<svg width="48" height="48" viewBox="0 0 48 48" fill="none" xmlns="http://www.w3.org/2000/svg">
<path d="M11.4096 12.8037C12.46 12.8037 13.3115 11.9522 13.3115 10.9018C13.3115 9.85148 12.46 9 11.4096 9C10.3593 9 9.50781 9.85148 9.50781 10.9018C9.50781 11.9522 10.3593 12.8037 11.4096 12.8037Z" fill="black"/>
<path d="M36.1347 21.2683V30.302C36.1347 32.2987 37.6149 33.8203 39.558 33.8203C41.4817 33.8203 42.9813 32.2985 42.9808 30.3601L42.9812 21.2683C42.9813 19.9554 44.0457 18.8911 45.3586 18.891H47.7359V30.1118C47.7359 34.6283 44.0745 38.2896 39.558 38.2896C35.0415 38.2896 31.3801 34.6283 31.3801 30.1118V18.891H33.7574C35.0704 18.891 36.1347 19.9554 36.1347 21.2683Z" fill="#4E91E6"/>
<path fill-rule="evenodd" clip-rule="evenodd" d="M25.1992 11.6641H27.5765V35.9124C27.5765 37.2253 26.5121 38.2896 25.1992 38.2896H22.8219V14.0413C22.8219 12.7284 23.8863 11.6641 25.1992 11.6641Z" fill="#4E91E6"/>
<path d="M4.75457 11.6641L4.75446 20.6913C6.25941 19.3279 8.17898 18.5106 10.2699 18.5106C15.1015 18.5106 19.0183 22.8745 19.0183 28.2575C19.0183 28.2986 19.018 28.3396 19.0176 28.3805C19.0181 28.4187 19.0183 28.4569 19.0183 28.4952C19.0176 34.0579 14.7609 38.2896 9.50913 38.2896C4.35006 38.2896 0.150573 34.0579 0.00395971 28.7806L0 28.7805V14.0413C0 12.7203 1.07666 11.6641 2.37728 11.6641H4.75457ZM9.41404 22.8848C6.68313 22.8848 4.46929 25.3328 4.46929 28.3526C4.46929 31.3724 6.68313 33.8203 9.41404 33.8203C12.145 33.8203 14.3588 31.3724 14.3588 28.3526C14.3588 25.3328 12.145 22.8848 9.41404 22.8848Z" fill="#4E91E6"/>
</svg>
