<svg width="48" height="48" viewBox="0 0 48 48" fill="none" xmlns="http://www.w3.org/2000/svg">
<path fill-rule="evenodd" clip-rule="evenodd" d="M31.5142 18.3721H31.1915C31.1215 18.8406 30.8774 19.3199 30.4589 19.81C30.3189 19.81 30.1512 19.7783 29.9562 19.715C29.7678 19.655 29.6129 19.5841 29.4911 19.5024C29.8862 19.3424 30.1896 19.174 30.4014 18.9973C30.5914 18.8389 30.7547 18.6305 30.8914 18.3721C30.3413 18.3721 29.982 18.2938 29.8137 18.1371C29.8137 17.762 29.8946 17.4444 30.0562 17.1843C30.1646 17.0109 30.2889 16.8859 30.4289 16.8092C30.594 16.8092 30.7439 16.8751 30.879 17.0068C31.0424 17.1651 31.1465 17.3919 31.1915 17.6869H31.5867C31.6501 17.6869 31.7467 17.5702 31.8768 17.3369C32.0385 17.0468 32.1693 16.8509 32.2694 16.7492C32.6061 16.7492 32.8479 16.8309 32.9946 16.9943C33.1313 17.1493 33.1996 17.3977 33.1996 17.7395C33.0529 18.0979 32.9011 18.3346 32.7444 18.4496C32.4693 18.4496 32.1951 18.3146 31.9217 18.0445C31.8017 18.2629 31.6658 18.3721 31.5142 18.3721ZM12.9213 16.4301L12.6084 17.1083C12.5101 17.0727 12.4179 17.0549 12.3317 17.0549C12.042 17.0549 11.8094 17.2607 11.6335 17.6722C11.6421 17.7331 11.7396 17.7899 11.9258 17.8423L12.4325 17.9846C12.6135 18.054 12.7041 18.1395 12.7041 18.2411C12.7041 18.4799 12.6308 18.7932 12.4843 19.1809C11.8534 19.5501 11.206 19.7347 10.5423 19.7347C10.2355 19.7347 9.99405 19.6661 9.81825 19.5289C9.62695 19.3782 9.53125 19.1555 9.53125 18.8609C9.53125 18.6729 9.57775 18.446 9.67085 18.1802C9.74845 17.9566 9.83895 17.7594 9.94235 17.5883C10.0303 17.5816 10.0949 17.6121 10.1363 17.6798C9.99845 17.9321 9.92945 18.1819 9.92945 18.4291C9.92945 18.8389 10.2027 19.0438 10.7492 19.0438C10.975 19.0438 11.2559 19.0048 11.5921 18.9269C11.9541 18.8423 12.2213 18.7466 12.3937 18.6399C12.249 18.54 12.0282 18.4579 11.7318 18.3935C11.4905 18.341 11.3318 18.2589 11.2559 18.1472C11.2559 18.0557 11.2914 17.8864 11.3621 17.6391C11.6086 16.7755 11.9938 16.3437 12.5178 16.3437C12.6454 16.3437 12.78 16.3725 12.9213 16.4301ZM14.3715 18.1898C14.3715 18.393 14.281 18.6707 14.0999 19.0229C13.9258 19.3616 13.7474 19.6207 13.5647 19.8002C13.4457 19.8002 13.2864 19.7595 13.0863 19.6783C12.8863 19.597 12.7432 19.5149 12.657 19.4319C12.9691 19.2913 13.2475 19.1279 13.4923 18.9416C13.7803 18.7232 13.9508 18.5259 14.0043 18.3498C13.9267 18.1382 13.7673 17.9527 13.5259 17.7936L13.8828 17.1154C14.0104 17.2237 14.1237 17.388 14.2228 17.6081C14.3219 17.8283 14.3715 18.0222 14.3715 18.1898ZM16.3747 19.186L15.9584 19.5721L15.5498 19.1708L15.9739 18.7898L16.3747 19.186ZM18.0737 18.3707C17.9341 18.3707 17.8038 18.3106 17.6831 18.1903C17.5711 18.0786 17.5013 17.9524 17.4738 17.8119C17.4531 17.9423 17.3798 18.0667 17.254 18.1853C17.123 18.3089 16.992 18.3707 16.8608 18.3707H16.654C16.5143 18.3707 16.3842 18.3106 16.2635 18.1903C16.1515 18.0786 16.0816 17.9524 16.0541 17.8119C16.0334 17.9423 15.9601 18.0667 15.8343 18.1853C15.7032 18.3089 15.5722 18.3707 15.4412 18.3707H15.3663C15.0371 18.3707 14.8223 18.2369 14.7224 17.9693C14.6551 17.7882 14.6103 17.3843 14.5879 16.7578C14.5775 16.4479 14.5647 16.2328 14.5491 16.1126C14.5198 15.8789 14.4646 15.6715 14.3836 15.4903L14.8568 15.0026C14.9361 15.1262 14.9852 15.3167 15.0042 15.5741C15.0111 15.6672 15.0146 15.8645 15.0146 16.1659V16.9152C15.0146 17.1388 15.0309 17.3013 15.0637 17.4029C15.1223 17.5841 15.2396 17.6747 15.4155 17.6747C15.5896 17.6747 15.7265 17.5985 15.8265 17.4461C15.9075 17.3225 15.948 17.1828 15.948 17.027H16.1678C16.1678 17.2082 16.2066 17.3564 16.2842 17.4715C16.3738 17.607 16.5066 17.6747 16.6824 17.6747H16.835C17.0091 17.6747 17.1462 17.5985 17.2462 17.4461C17.3273 17.3225 17.3678 17.1828 17.3678 17.027H17.5876C17.5876 17.2082 17.6262 17.3564 17.7038 17.4715C17.7935 17.607 17.9262 17.6747 18.102 17.6747H18.2934C18.3399 17.6747 18.4356 17.6671 18.5805 17.6518C18.3736 17.5282 18.2701 17.3504 18.2701 17.1184C18.2701 16.8848 18.3977 16.657 18.6528 16.4352C18.8873 16.2303 19.0976 16.1278 19.2838 16.1278C19.5786 16.1278 19.82 16.2853 20.0078 16.6003C20.0388 16.6528 20.0414 16.679 20.0156 16.679C20.0019 16.679 19.9785 16.6731 19.9457 16.6612C19.8458 16.6257 19.7217 16.6079 19.5735 16.6079C19.2579 16.6079 19.0062 16.6782 18.8183 16.8187C18.8545 17.1489 19.0486 17.3877 19.4002 17.535L20.375 17.2861L20.0751 17.9262C19.7355 18.0007 19.2856 18.1074 18.7253 18.2462C18.3892 18.3292 18.172 18.3707 18.0737 18.3707ZM18.1538 16.0262L17.7969 16.3767L17.4349 16.0643L17.1039 16.392L16.7238 16.0643L17.0806 15.7062L17.4427 16.0237L17.7737 15.6909L18.1538 16.0262ZM20.8686 15C20.9134 15.2168 20.9358 15.5275 20.9358 15.9322C20.9358 16.5994 20.8737 17.3301 20.7495 18.1243L20.4885 18.5104L20.4859 17.5553C20.4859 16.668 20.4092 15.9907 20.2557 15.5233L20.8686 15ZM26.465 18.3721H26.3323C26.1924 18.3721 26.0656 18.3121 25.9522 18.1921C25.8489 18.0804 25.7847 17.952 25.7598 17.807C25.7313 17.9487 25.6655 18.0737 25.5621 18.1821C25.4404 18.3088 25.2962 18.3721 25.1295 18.3721C24.8628 18.3721 24.6927 18.2037 24.6194 17.867C24.4827 18.2021 24.2943 18.3696 24.0542 18.3696C23.9125 18.3696 23.7917 18.3121 23.6916 18.1971C23.6183 18.1121 23.5658 18.0112 23.5341 17.8945C23.3974 18.2129 23.199 18.3721 22.9389 18.3721H22.8064C22.5163 18.3721 22.3187 18.1304 22.2137 17.6469C22.1604 17.8436 22.0853 18.0087 21.9887 18.1421C21.4635 18.1421 21.1159 18.0245 20.9459 17.7895C21.0142 17.5344 21.0743 17.3344 21.1259 17.1893C21.3293 17.0076 21.6211 16.8459 22.0012 16.7042C21.9878 16.6408 21.9595 16.5508 21.9161 16.4341L22.2137 15.989C22.3021 16.1174 22.3688 16.3374 22.4138 16.6492C22.4739 17.0626 22.5121 17.2985 22.5288 17.3569C22.5921 17.5769 22.6972 17.6869 22.8439 17.6869H22.8839V17.6894H22.9815C23.1348 17.6894 23.2557 17.6169 23.344 17.4719C23.4174 17.3519 23.4541 17.2193 23.4541 17.0743H23.6791C23.6791 17.4844 23.8117 17.6894 24.0767 17.6894C24.2535 17.6894 24.3827 17.6094 24.4643 17.4494C24.521 17.3394 24.5494 17.2143 24.5494 17.0743H24.7744C24.7744 17.2643 24.7928 17.4027 24.8294 17.4894C24.8861 17.6244 24.9953 17.6919 25.157 17.6919C25.3404 17.6919 25.4779 17.6111 25.5696 17.4494C25.6346 17.3344 25.6672 17.2077 25.6672 17.0693H25.8923C25.8923 17.4844 26.0364 17.6919 26.3249 17.6919H26.3998L26.26 17.6869H26.5126C26.681 17.6869 26.8051 17.6044 26.8851 17.4394C26.9402 17.326 26.9678 17.2035 26.9678 17.0718H27.1903C27.1903 17.4836 27.3436 17.6894 27.6503 17.6894C27.8537 17.6894 28.0005 17.6103 28.0905 17.4519C28.1521 17.3435 28.1831 17.2168 28.1831 17.0718H28.4081C28.4081 17.4819 28.5422 17.6869 28.8106 17.6869C29.0091 17.6869 29.1674 17.6361 29.2859 17.5344C29.2859 17.4894 29.1791 17.3127 28.9657 17.0043L29.3508 16.4991C29.4108 16.5625 29.4708 16.6683 29.5308 16.8167C29.5975 16.9801 29.631 17.1168 29.631 17.2268C29.631 17.2902 29.6017 17.411 29.5434 17.5894C29.5168 17.6711 29.4708 17.7911 29.4058 17.9495C29.3475 18.0645 29.2617 18.1621 29.1483 18.2421C29.0266 18.3288 28.9049 18.3721 28.7831 18.3721C28.6514 18.3721 28.5357 18.3188 28.4356 18.2121C28.3405 18.1137 28.2822 17.997 28.2605 17.862C28.1671 18.2021 27.9605 18.3721 27.6404 18.3721C27.4053 18.3721 27.2202 18.2029 27.0852 17.8645C26.9135 18.2029 26.7069 18.3721 26.465 18.3721ZM22.1912 17.5494L22.0813 16.9943C21.8245 17.0493 21.5844 17.1776 21.361 17.3794C21.4594 17.5011 21.6637 17.5619 21.9738 17.5619C22.052 17.5619 22.1245 17.5577 22.1912 17.5494ZM30.8414 17.777C30.7948 17.6753 30.7332 17.5836 30.6565 17.5019C30.5613 17.4002 30.4681 17.3494 30.3764 17.3494C30.3297 17.3494 30.2789 17.391 30.2239 17.4744C30.1772 17.5444 30.1479 17.6078 30.1362 17.6644C30.1546 17.7195 30.2204 17.7628 30.3338 17.7945C30.4171 17.8178 30.4998 17.8295 30.5814 17.8295C30.6865 17.8295 30.7731 17.812 30.8414 17.777ZM32.8195 17.9495C32.8229 17.9162 32.8244 17.8845 32.8244 17.8545C32.8244 17.5394 32.6561 17.346 32.3193 17.2743C32.2243 17.3394 32.1594 17.436 32.1243 17.5644C32.2544 17.7445 32.486 17.8728 32.8195 17.9495Z" fill="#313C4C"/>
<path fill-rule="evenodd" clip-rule="evenodd" d="M16.5318 30.7303H14.9642C14.341 30.7303 13.8358 30.2251 13.8358 29.6019V29.6006C13.8358 29.476 13.9368 29.3749 14.0614 29.3749C14.7471 29.3749 16.8025 29.3749 17.5187 29.3749C17.6565 29.3749 17.7681 29.4866 17.7681 29.6243C17.7681 29.8681 17.7681 31.9678 17.7681 31.9678C17.7682 32.0931 17.6666 32.1946 17.5413 32.1947H17.5394C16.9829 32.1946 16.5318 31.7436 16.5318 31.1871V30.7303ZM27.5172 25.9651C27.4778 27.027 28.1239 27.4616 28.7263 27.1211C29.2729 26.8122 29.8243 24.9427 30.2496 23.3533C30.4436 22.628 30.6177 21.9612 30.7302 21.5271C30.8079 21.2264 31.0792 21.0163 31.3898 21.0163C31.7834 21.0162 32.3162 21.0162 32.6951 21.0162C32.8046 21.0162 32.9075 21.0686 32.9719 21.1572C33.0362 21.2457 33.0543 21.3598 33.0204 21.4639C32.6663 22.5465 31.7294 25.3419 30.9522 27.0358C30.3186 28.4169 29.549 28.6351 28.6072 28.6201C28.5276 28.6188 27.9283 28.5653 27.6137 28.1322C27.299 27.6991 27.1175 27.0555 27.283 26.5463C27.2897 26.5255 27.2965 26.5045 27.3031 26.4834C27.2209 26.677 27.1396 26.8622 27.06 27.0358C26.4263 28.4169 25.6568 28.6351 24.715 28.6201C24.6353 28.6188 24.0361 28.5653 23.7214 28.1322C23.4855 27.8075 23.3245 27.3645 23.3283 26.9486C23.3141 26.978 23.2998 27.0071 23.2856 27.0358C22.7174 28.1836 21.8824 28.6351 20.9406 28.6201C20.861 28.6188 19.9582 28.7202 19.2989 28.1083C18.9154 27.7525 18.5732 26.9154 18.4941 26.3029C18.3862 26.5625 18.2792 26.809 18.1752 27.0358C17.5415 28.4169 16.772 28.6351 15.8302 28.6201C15.7505 28.6188 15.1932 28.5316 14.8366 28.1322C14.5219 27.7798 14.3282 27.1616 14.2599 26.6143C14.1968 26.7608 14.1343 26.9017 14.0728 27.0358C13.4391 28.4169 12.6696 28.6351 11.7278 28.6201C11.6481 28.6188 11.0908 28.5316 10.7342 28.1322C10.365 27.7187 10.1623 26.9395 10.1334 26.3381C10.0297 26.5865 9.927 26.8227 9.827 27.0406C9.1934 28.4217 8.6952 29.3091 7.1906 30.3444C3.8908 32.6146 0.362997 30.9211 0.0232966 27.9497C-0.157603 26.3667 0.729397 24.0969 2.1838 22.1484C2.4628 21.7746 3.3735 21.9905 3.3735 21.9905C3.2591 22.8568 0.0755967 25.8126 1.3734 28.7057C1.7764 29.6041 3.7232 29.8229 5.1644 29.1883C6.0483 28.799 6.8263 28.0204 7.4011 27.0736C7.7662 26.4721 8.4955 24.9475 8.9207 23.3581C9.1147 22.6329 9.2888 21.9661 9.4013 21.532C9.479 21.2312 9.7503 21.0211 10.0609 21.0211C10.5073 21.0211 11.1409 21.0211 11.5699 21.0211C11.6794 21.021 11.7823 21.0734 11.8467 21.162C11.9111 21.2506 11.9291 21.3647 11.8952 21.4688C11.6463 22.2298 11.1093 23.8374 10.5423 25.3136C10.422 26.8838 11.2102 27.4809 11.8469 27.1211C12.3934 26.8122 12.9449 24.9427 13.3701 23.3533C13.5641 22.628 13.7382 21.9612 13.8507 21.5271C13.9285 21.2264 14.1997 21.0163 14.5104 21.0163C14.904 21.0162 15.4367 21.0162 15.8157 21.0162C15.9252 21.0162 16.0281 21.0686 16.0924 21.1572C16.1568 21.2457 16.1748 21.3598 16.1409 21.4639C15.8694 22.2939 15.2554 24.1307 14.6334 25.706C14.6622 26.9816 15.3687 27.4492 15.9493 27.1211C16.4958 26.8122 17.0473 24.9427 17.4725 23.3533C17.6666 22.628 17.8407 21.9612 17.9532 21.5271C18.0309 21.2264 18.3022 21.0163 18.6128 21.0163C19.0064 21.0162 19.5392 21.0162 19.9181 21.0162C20.0276 21.0162 20.1305 21.0686 20.1949 21.1572C20.2592 21.2457 20.2773 21.3598 20.2434 21.4639C19.9865 22.2491 19.4232 23.9352 18.8365 25.4486C18.8107 26.5838 19.4681 27.4587 20.8267 27.0984C21.6171 26.8887 22.1577 24.9427 22.583 23.3533C22.777 22.628 22.9511 21.9612 23.0636 21.5271C23.1413 21.2264 23.4126 21.0163 23.7232 21.0163C24.1194 21.0162 24.6565 21.0162 25.0358 21.0162C25.1446 21.0161 25.2469 21.0676 25.3114 21.1551C25.376 21.2425 25.3951 21.3555 25.3629 21.4593C25.0715 22.3922 24.3565 24.611 23.6344 26.2785C23.7206 27.1096 24.2949 27.4258 24.8341 27.1211C25.3806 26.8122 25.9321 24.9427 26.3573 23.3533C26.5514 22.628 26.7255 21.9612 26.838 21.5271C26.9157 21.2264 27.187 21.0163 27.4976 21.0163C27.8912 21.0162 28.424 21.0162 28.8029 21.0162C28.9124 21.0162 29.0153 21.0686 29.0796 21.1572C29.144 21.2457 29.162 21.3598 29.1281 21.4639C28.8416 22.3399 28.1735 24.3373 27.5172 25.9651ZM13.3254 29.6243C13.3254 29.4866 13.2138 29.3749 13.076 29.3749C12.323 29.3749 10.0797 29.3749 9.359 29.3749C9.2991 29.3749 9.2417 29.3987 9.1994 29.441C9.157 29.4834 9.1333 29.5408 9.1333 29.6006V29.6019C9.1333 30.2251 9.6385 30.7303 10.2617 30.7303C11.224 30.7303 12.5348 30.7303 13.076 30.7303C13.2138 30.7303 13.3254 30.6187 13.3254 30.481C13.3254 30.2372 13.3254 29.8681 13.3254 29.6243ZM46.7659 18.1184C47.0477 18.1928 47.3464 18.0885 47.5207 17.8549C47.7978 17.4238 47.9441 16.8946 47.9984 16.2727C48.0082 16.1663 47.9733 16.0605 47.9021 15.9808C47.831 15.901 47.7299 15.8544 47.623 15.852C46.7684 15.833 44.7366 15.838 43.5197 16.2264C41.9182 16.7376 39.8148 17.512 38.4119 18.9297C37.527 19.8239 36.8579 20.8248 36.3224 21.9486C36.2601 22.0823 36.2733 22.239 36.3571 22.3604C36.4409 22.4818 36.5828 22.5497 36.7299 22.5387C38.0753 22.385 40.938 22.2719 41.6051 23.7545C41.9153 24.444 40.4529 26.6848 37.6971 26.7329C35.649 26.7687 34.7408 24.9455 35.0183 23.1066C35.3071 21.1921 36.9836 18.4562 39.0691 16.0137C39.1219 15.9526 39.1347 15.8665 39.1019 15.7927C39.0691 15.7188 38.9966 15.6706 38.9158 15.6689C38.4698 15.6592 37.7742 15.6444 37.2434 15.6331C36.7758 15.6228 36.3384 15.863 36.096 16.2629C34.9041 18.2133 34.3106 19.4428 33.7632 21.0796C33.1489 22.9165 32.6151 24.7524 33.2168 26.6374C33.8085 28.4912 36.0252 28.7149 36.3663 28.7116C37.649 28.6988 39.9637 28.2417 41.4567 25.8906C42.5574 24.1571 43.5903 20.3349 38.2419 20.8949C39.0622 19.7146 40.4697 18.6677 42.453 18.2988C44.207 17.9725 45.872 17.9692 46.7659 18.1184ZM7.8558 21.678C7.9178 21.5076 7.8928 21.3177 7.7888 21.1692C7.6848 21.0207 7.5149 20.9322 7.3336 20.9322C7.0893 20.9322 6.8161 20.9322 6.5561 20.9322C5.9093 20.9322 5.3316 21.3368 5.1104 21.9446C5.0245 22.1805 4.9322 22.4341 4.8436 22.6777C4.7427 22.9549 4.7834 23.264 4.9526 23.5056C5.1218 23.7473 5.3983 23.8912 5.6933 23.8912C5.8066 23.8912 5.9202 23.8912 6.0309 23.8912C6.643 23.8912 7.1897 23.5083 7.399 22.9332C7.5472 22.5261 7.7173 22.0586 7.8558 21.678Z" fill="#FDB816"/>
</svg>
