<svg width="48" height="48" viewBox="0 0 48 48" fill="none" xmlns="http://www.w3.org/2000/svg">
<path fill-rule="evenodd" clip-rule="evenodd" d="M25.9364 48H22.0564V45.058H20.2894V41.427L12.4674 41.419L12.4764 32.166H10.6334L10.6274 31.352H8.35138V30.108H6.92337V28.254H8.35138V26.624H10.5734L9.93337 25.638H6.22337C5.70737 25.638 5.37037 26.278 5.37037 26.278L4.73438 26.078C4.79298 25.8151 4.87538 25.558 4.98038 25.31C5.08038 25.027 5.30738 24.472 5.30738 24.472L5.33737 24.397C5.38837 24.275 5.43738 24.154 5.49837 24.036C5.79838 23.3163 6.33127 22.7175 7.01137 22.336C7.10227 22.2918 7.19618 22.2541 7.29238 22.223C7.46528 22.168 7.64428 22.1345 7.82538 22.123C7.88038 22.123 7.93537 22.123 7.99038 22.123L8.00537 22.086L8.02837 22.032C8.09457 21.8836 8.17928 21.7442 8.28038 21.617C8.34608 21.5386 8.41828 21.466 8.49638 21.4C8.81098 21.117 9.19388 20.9209 9.60738 20.831L9.58838 17.356L11.4614 17.362L11.4564 14.9L13.2894 14.889L13.2964 13.248L14.4134 13.243L13.1174 11H11.3774L14.2774 8.093L19.2684 8.099V2.599H22.0964V0H25.8964V2.6H28.7204V8.1L33.7114 8.094L36.6154 11H34.8754L33.5754 13.245L34.6924 13.25L34.6994 14.891L36.5324 14.902L36.5244 17.36L38.3984 17.354L38.3794 20.829C38.7952 20.9185 39.1804 21.1154 39.4964 21.4C39.5763 21.469 39.6499 21.545 39.7164 21.627C39.8175 21.7542 39.9022 21.8936 39.9684 22.042L39.9914 22.096L40.0054 22.133C40.0604 22.133 40.1154 22.133 40.1704 22.133C40.3515 22.1445 40.5305 22.178 40.7034 22.233C40.7996 22.2641 40.8935 22.3018 40.9844 22.346C41.6645 22.7275 42.1974 23.3263 42.4974 24.046C42.5544 24.165 42.6074 24.286 42.6584 24.407L42.6884 24.482C42.6884 24.482 42.9154 25.038 43.0154 25.32C43.1204 25.568 43.2028 25.8251 43.2614 26.088L42.6254 26.288C42.6254 26.288 42.2884 25.648 41.7724 25.648H38.0624L37.4224 26.634H39.6444V28.264H41.0734V30.1H39.6384V31.344H37.3694L37.3634 32.158H35.5214L35.5304 41.411L27.7084 41.419V45.05H25.9364V48Z" fill="url(#paint0_linear_4877_46345)"/>
<path fill-rule="evenodd" clip-rule="evenodd" d="M25.1249 47.1969H22.8749V44.2549H21.1109V41.4159H22.8789V43.0439H25.1219V41.4159H26.8899V44.2549H25.1249V47.1969ZM34.6949 40.6159H13.3059V31.7159H34.6939L34.6949 40.6159ZM31.1719 39.5469C31.1811 39.5963 31.1773 39.6474 31.1609 39.6949C31.1402 39.7569 31.1137 39.8168 31.0819 39.8739C31.0444 39.9427 30.995 40.0044 30.9359 40.0559C30.9123 40.0845 30.8794 40.104 30.8429 40.1109C30.8052 40.0982 30.771 40.077 30.7429 40.0489C30.7009 40.0142 30.6569 39.9786 30.6109 39.9419C30.5758 39.9154 30.5424 39.8866 30.5109 39.8559C30.4884 39.8392 30.473 39.8145 30.4679 39.7869C30.4959 39.7279 30.5179 39.6819 30.5319 39.6499C30.5799 39.5486 30.6156 39.4752 30.6389 39.4299C30.6816 39.3632 30.7246 39.2922 30.7679 39.2169L30.8109 39.1549C30.8241 39.1676 30.8385 39.1789 30.8539 39.1889L30.9109 39.2229C30.9833 39.2758 31.0503 39.3358 31.1109 39.4019C31.1443 39.4436 31.1663 39.4932 31.1749 39.5459L31.1719 39.5469ZM25.8159 38.5549C26.1385 38.5558 26.4604 38.5247 26.7769 38.4619C27.0573 38.4072 27.3333 38.3324 27.6029 38.2379C27.8467 38.1502 28.0775 38.0298 28.2889 37.8799C28.4887 37.7421 28.669 37.5779 28.8249 37.3919C28.8676 37.3366 28.9342 37.2496 29.0249 37.1309C29.0679 37.0709 29.0989 37.0309 29.1179 37.0069C29.1369 36.9829 29.1419 36.9879 29.1469 36.9929C29.1526 37.0007 29.1551 37.0103 29.1539 37.0199L29.1469 37.0959C29.1422 37.1372 29.1316 37.2256 29.1149 37.3609C29.0994 37.4796 29.091 37.5992 29.0899 37.7189C29.084 37.8974 29.1142 38.0754 29.1789 38.2419C29.2304 38.3738 29.3626 38.4576 29.5039 38.4479C29.6039 38.4479 29.7016 38.3736 29.7969 38.2249C29.9101 38.0298 29.9898 37.8172 30.0329 37.5959L30.0509 37.5069C30.057 37.4796 30.0606 37.4518 30.0619 37.4239C30.0619 37.3779 30.0499 37.3549 30.0259 37.3549C30.0019 37.3549 29.9909 37.3759 29.9799 37.4169C29.9689 37.4579 29.9569 37.4949 29.9479 37.5269C29.8959 37.6689 29.8362 37.7399 29.7689 37.7399C29.6904 37.7421 29.613 37.7205 29.5469 37.6779C29.4321 37.5821 29.373 37.4345 29.3899 37.2859V37.1789C29.3899 37.0962 29.3972 36.9736 29.4119 36.8109C29.4279 36.6302 29.4492 36.4502 29.4759 36.2709L29.6259 35.5489C29.6326 35.5136 29.6396 35.4782 29.6469 35.4429L29.8139 35.3299L30.4819 34.8239C30.6732 34.7006 30.8639 34.5759 31.0539 34.4499C31.2186 34.3406 31.3806 34.2279 31.5399 34.1119C31.7972 33.9239 31.9902 33.7806 32.1189 33.6819C32.2902 33.5486 32.4119 33.4526 32.4839 33.3939C32.5559 33.3352 32.6262 33.2709 32.6949 33.2009C32.7809 33.1189 32.8632 33.0339 32.9419 32.9459C33.0124 32.8647 33.0769 32.7785 33.1349 32.6879C33.1929 32.6092 33.2388 32.5222 33.2709 32.4299C33.2805 32.4132 33.2853 32.3942 33.2849 32.3749C33.2849 32.3829 33.1062 32.5342 32.7489 32.8289C32.5629 32.9862 32.3746 33.1416 32.1839 33.2949C31.9792 33.4576 31.7696 33.6152 31.5549 33.7679C31.2509 33.9799 30.9459 34.1906 30.6399 34.3999C30.3447 34.6093 30.0618 34.8357 29.7929 35.0779C29.729 35.1329 29.6734 35.1969 29.6279 35.2679C29.6192 35.2798 29.6112 35.2921 29.6039 35.3049C29.5713 35.3598 29.5419 35.4166 29.5159 35.4749L29.4839 35.5379C29.4233 35.651 29.3708 35.7683 29.3269 35.8889L29.2269 36.2809C29.177 36.4625 29.0972 36.6345 28.9909 36.7899C28.8435 36.9853 28.6559 37.1469 28.4409 37.2639C27.8522 37.5891 27.1967 37.7749 26.5249 37.8069C26.3629 37.8209 26.1462 37.8279 25.8749 37.8279C25.5484 37.8726 25.2164 37.7996 24.9389 37.6219C24.8799 37.5564 24.8447 37.4729 24.8389 37.3849C24.8319 37.2949 24.8209 37.2509 24.8069 37.2509C24.7689 37.2509 24.7392 37.3289 24.7179 37.4849C24.6969 37.6353 24.6863 37.787 24.6859 37.9389C24.6751 38.0776 24.7145 38.2157 24.7969 38.3279C24.9128 38.4323 25.0595 38.4962 25.2149 38.5099C25.3803 38.5358 25.5475 38.5475 25.7149 38.5449L25.8159 38.5549ZM18.4719 36.6969C18.4673 36.7894 18.4552 36.8813 18.4359 36.9719C18.4119 37.0999 18.3879 37.2122 18.3639 37.3089L18.2779 37.6459C18.2299 37.7739 18.1919 37.8679 18.1639 37.9279C18.1287 38.0011 18.0893 38.0722 18.0459 38.1409C18.0162 38.1891 17.9787 38.232 17.9349 38.2679C17.8741 38.3112 17.8095 38.3491 17.7419 38.3809L17.4849 38.4809C17.4298 38.498 17.3737 38.5117 17.3169 38.5219C17.2617 38.5354 17.2055 38.5448 17.1489 38.5499C17.1249 38.5499 17.1109 38.5419 17.1059 38.5259C17.102 38.5055 17.1071 38.4843 17.1199 38.4679C17.1697 38.401 17.2306 38.3432 17.2999 38.2969C17.3979 38.2236 17.4946 38.1526 17.5899 38.0839C17.6992 37.9872 17.7802 37.9116 17.8329 37.8569C17.9148 37.7715 17.9867 37.6768 18.0469 37.5749C18.0712 37.5297 18.0917 37.4826 18.1079 37.4339C18.1339 37.3632 18.1756 37.2476 18.2329 37.0869L18.3189 36.8389C18.3282 36.8022 18.3426 36.7576 18.3619 36.7049C18.3809 36.6529 18.4049 36.6259 18.4339 36.6259C18.4518 36.6453 18.4642 36.6691 18.4699 36.6949L18.4719 36.6969ZM23.7009 37.4759V37.4819C23.8009 37.3839 23.8602 37.3239 23.8789 37.3019C23.9534 37.2174 24.0139 37.1216 24.0579 37.0179C24.1157 36.8735 24.1576 36.7233 24.1829 36.5699C24.2128 36.428 24.2305 36.2838 24.2359 36.1389C24.2359 36.0189 24.2359 35.8929 24.2359 35.7609C24.2359 35.6289 24.2442 35.4956 24.2609 35.3609C24.2609 35.2359 24.2679 35.1609 24.2679 35.1269C24.2679 35.1209 24.2679 35.1149 24.2679 35.1099C24.2829 35.1019 24.3019 35.0899 24.3239 35.0759L24.5349 34.9319L25.0459 34.5859C25.2459 34.4572 25.4432 34.3272 25.6379 34.1959C25.8086 34.0819 25.9752 33.9639 26.1379 33.8419C26.4046 33.6419 26.6046 33.4912 26.7379 33.3899C26.9166 33.2519 27.0432 33.1519 27.1179 33.0899C27.1926 33.0279 27.2666 32.9592 27.3399 32.8839C27.4306 32.7966 27.5176 32.7059 27.6009 32.6119C27.6764 32.5239 27.7455 32.4306 27.8079 32.3329C27.8708 32.2467 27.9213 32.1521 27.9579 32.0519C27.9685 32.0333 27.9743 32.0123 27.9749 31.9909C27.9749 32.0002 27.7879 32.1606 27.4139 32.4719C27.2192 32.6386 27.0226 32.8032 26.8239 32.9659C26.6106 33.1379 26.3922 33.3046 26.1689 33.4659C25.8536 33.6879 25.5372 33.9082 25.2199 34.1269C24.976 34.2888 24.7422 34.4654 24.5199 34.6559C24.4525 34.7141 24.3936 34.7814 24.3449 34.8559C24.2969 34.9304 24.2545 35.0082 24.2179 35.0889L24.2059 35.1169V35.1229L23.9639 35.6839C23.9413 35.7402 23.9291 35.8002 23.9279 35.8609C23.9232 35.9389 23.9209 36.0292 23.9209 36.1319L23.9279 36.5799C23.9346 36.726 23.9104 36.8718 23.8569 37.0079C23.8347 37.0542 23.8072 37.0979 23.7749 37.1379C23.7523 37.1682 23.7245 37.1942 23.6929 37.2149L23.6499 37.2349C23.616 37.2388 23.5817 37.2343 23.5499 37.2219C23.5259 37.2579 23.5019 37.2909 23.4779 37.3219C23.4399 37.372 23.3876 37.4093 23.3279 37.4289C23.2996 37.4443 23.2643 37.4389 23.2419 37.4159C23.2089 37.4469 23.1779 37.4789 23.1489 37.5099C23.104 37.5577 23.0424 37.5863 22.9769 37.5899C22.9123 37.5902 22.8478 37.5856 22.7839 37.5759C22.6786 37.6472 22.5759 37.7186 22.4759 37.7899C22.3907 37.8446 22.2911 37.8724 22.1899 37.8699C22.02 37.8847 21.855 37.8051 21.7609 37.6629C21.7039 37.5586 21.6769 37.4406 21.6829 37.3219C21.6829 37.2679 21.6829 37.1819 21.6969 37.0609C21.7089 36.9176 21.7256 36.7749 21.7469 36.6329L21.8689 35.8169L21.8979 35.6429C21.9063 35.6079 21.9087 35.5717 21.9049 35.5359L21.8759 35.5489C21.8332 35.6336 21.7762 35.7582 21.7049 35.9229C21.6336 36.0876 21.5956 36.1789 21.5909 36.1969C21.5576 36.4156 21.5146 36.7309 21.4619 37.1429C21.4092 37.5549 21.3829 37.7882 21.3829 37.8429C21.384 37.9045 21.3887 37.9659 21.3969 38.0269C21.4018 38.0851 21.4135 38.1425 21.4319 38.1979C21.4818 38.4055 21.6694 38.5527 21.8829 38.5519C22.0804 38.5425 22.2594 38.431 22.3549 38.2579C22.4882 38.0619 22.5956 37.9639 22.6769 37.9639L22.7769 37.9739C22.8041 37.9775 22.8317 37.9775 22.8589 37.9739C22.9104 37.9541 22.9576 37.9245 22.9979 37.8869C23.0387 37.8508 23.0817 37.8174 23.1269 37.7869C23.1576 37.7697 23.1918 37.7595 23.2269 37.7569C23.2573 37.7548 23.2868 37.7456 23.3129 37.7299C23.3509 37.6939 23.3829 37.6659 23.4129 37.6459C23.4371 37.6269 23.4637 37.6111 23.4919 37.5989C23.5179 37.5879 23.5719 37.5619 23.6529 37.5219L23.6959 37.4879L23.7009 37.4759ZM17.7859 34.7819C17.7909 34.7667 17.7883 34.7499 17.7789 34.7369C17.7653 34.7204 17.7482 34.7071 17.7289 34.6979C17.6406 34.7171 17.5561 34.7509 17.4789 34.7979C17.387 34.8447 17.2984 34.8978 17.2139 34.9569C17.1232 35.0196 17.0492 35.0746 16.9919 35.1219C16.8622 35.2367 16.7403 35.36 16.6269 35.4909C16.475 35.6615 16.3474 35.8523 16.2479 36.0579C16.1695 36.2052 16.1231 36.3674 16.1119 36.5339C16.1079 36.6032 16.128 36.6718 16.1689 36.7279C16.2132 36.7797 16.2695 36.8199 16.3329 36.8449C16.365 36.8598 16.3985 36.8715 16.4329 36.8799C16.4616 36.8866 16.5092 36.8996 16.5759 36.9189C16.6426 36.9382 16.6759 36.9672 16.6759 37.0059C16.6714 37.0847 16.6454 37.1608 16.6009 37.2259C16.5394 37.3219 16.4662 37.41 16.3829 37.4879C16.2785 37.5867 16.1577 37.6666 16.0259 37.7239C15.8399 37.8095 15.6376 37.8539 15.4329 37.8539C15.2299 37.8664 15.0282 37.813 14.8579 37.7019C14.7272 37.6067 14.6521 37.4525 14.6579 37.2909C14.6819 37.0341 14.752 36.7838 14.8649 36.5519L14.9509 36.3709C15.0082 36.2502 15.0512 36.1639 15.0799 36.1119C15.1319 36.0119 15.1669 35.9419 15.1799 35.9009C15.1929 35.8599 15.2189 35.8069 15.2479 35.7419C15.2584 35.7198 15.2632 35.6954 15.2619 35.6709C15.2619 35.6319 15.2449 35.6129 15.2119 35.6129C15.1979 35.6129 15.1799 35.6299 15.1579 35.6649C15.1359 35.6999 15.1159 35.7339 15.0969 35.7649L14.9329 36.0829L14.7259 36.4909C14.6395 36.6604 14.5653 36.8358 14.5039 37.0159C14.4667 37.1249 14.4379 37.2365 14.4179 37.3499C14.3985 37.4622 14.3888 37.5759 14.3889 37.6899C14.39 37.7874 14.4044 37.8843 14.4319 37.9779C14.4624 38.0828 14.5134 38.1807 14.5819 38.2659C14.7462 38.4589 14.9945 38.5604 15.2469 38.5379C15.4902 38.5429 15.7301 38.4802 15.9399 38.3569C16.0459 38.2954 16.1443 38.2216 16.2329 38.1369C16.3179 38.0566 16.3968 37.97 16.4689 37.8779C16.61 37.6771 16.7187 37.4554 16.7909 37.2209C16.8656 37.0048 16.9068 36.7785 16.9129 36.5499C16.9277 36.4416 16.8843 36.3331 16.7989 36.2649C16.776 36.2482 16.7507 36.2351 16.7239 36.2259L16.6349 36.1939L16.5059 36.1349C16.4767 36.1053 16.459 36.0663 16.4559 36.0249C16.4742 35.9609 16.5086 35.9027 16.5559 35.8559C16.6417 35.7525 16.7386 35.659 16.8449 35.5769C16.9328 35.4986 17.0315 35.4333 17.1379 35.3829C17.2091 35.3462 17.287 35.3241 17.3669 35.3179C17.3834 35.3187 17.3994 35.3243 17.4129 35.3339L17.4669 35.3699C17.4959 35.3699 17.5289 35.3439 17.5669 35.2919C17.5769 35.2789 17.6039 35.2279 17.6489 35.1399C17.6857 35.0726 17.7191 35.0036 17.7489 34.9329C17.768 34.8837 17.7824 34.8328 17.7919 34.7809L17.7859 34.7819ZM20.7709 37.5599L20.6709 37.8139C20.6284 37.9049 20.5768 37.9913 20.5169 38.0719C20.4768 38.1319 20.4276 38.1852 20.3709 38.2299C20.303 38.2684 20.2313 38.2995 20.1569 38.3229L20.0069 38.3779C19.9302 38.4019 19.8539 38.4272 19.7779 38.4539C19.7037 38.4789 19.6269 38.495 19.5489 38.5019L19.5199 38.4879C19.5199 38.4559 19.6056 38.3872 19.7769 38.2819L20.0559 38.0899C20.1032 38.0579 20.1556 38.0189 20.2129 37.9729C20.2794 37.9188 20.3419 37.86 20.3999 37.7969C20.459 37.7364 20.5041 37.6637 20.5319 37.5839C20.5326 37.57 20.535 37.5563 20.5389 37.5429L20.3529 37.5569C20.274 37.5598 20.197 37.5314 20.1389 37.4779C20.086 37.4362 20.0587 37.3697 20.0669 37.3029C20.0739 37.258 20.0859 37.214 20.1029 37.1719C20.1219 37.1219 20.1649 37.0299 20.2319 36.8969C20.2688 36.8202 20.312 36.7466 20.3609 36.6769C20.4229 36.5939 20.4829 36.5529 20.5399 36.5529C20.6363 36.5535 20.7277 36.5963 20.7899 36.6699C20.861 36.7463 20.8994 36.8476 20.8969 36.9519C20.8969 37.0072 20.8922 37.0624 20.8829 37.1169L20.8579 37.2609C20.8509 37.3019 20.8399 37.3519 20.8259 37.4089C20.8139 37.4597 20.7971 37.5092 20.7759 37.5569L20.7709 37.5599ZM19.6939 36.6429C19.6892 36.7354 19.6772 36.8273 19.6579 36.9179C19.6339 37.0459 19.6099 37.1582 19.5859 37.2549L19.4999 37.5969C19.4519 37.7256 19.4139 37.8196 19.3859 37.8789C19.3507 37.9521 19.3113 38.0232 19.2679 38.0919C19.238 38.1399 19.2005 38.1828 19.1569 38.2189C19.096 38.2622 19.0314 38.3 18.9639 38.3319L18.7069 38.4319C18.6518 38.449 18.5957 38.4627 18.5389 38.4729C18.4837 38.4864 18.4275 38.4958 18.3709 38.5009C18.3469 38.5009 18.3329 38.4929 18.3279 38.4769C18.324 38.4565 18.3291 38.4353 18.3419 38.4189C18.3921 38.3514 18.4537 38.2932 18.5239 38.2469C18.6219 38.1736 18.7186 38.1026 18.8139 38.0339C18.9232 37.9379 19.0042 37.8622 19.0569 37.8069C19.1388 37.7214 19.2107 37.6268 19.2709 37.5249C19.2952 37.4797 19.3156 37.4326 19.3319 37.3839C19.3579 37.3126 19.3996 37.1969 19.4569 37.0369L19.5429 36.7889C19.5529 36.7519 19.5669 36.7079 19.5859 36.6549C19.6049 36.6019 19.6289 36.5759 19.6579 36.5759C19.6754 36.5948 19.6878 36.6179 19.6939 36.6429ZM30.7639 37.1869C30.7639 37.1319 30.7639 37.0429 30.7779 36.9189C30.7899 36.7716 30.8066 36.6249 30.8279 36.4789L30.9499 35.6399L30.9789 35.4609C30.9875 35.4249 30.9899 35.3877 30.9859 35.3509L30.9569 35.3649C30.9142 35.4522 30.8569 35.5806 30.7849 35.7499C30.7129 35.9192 30.6749 36.0132 30.6709 36.0319C30.6376 36.2566 30.5946 36.5809 30.5419 37.0049C30.4892 37.4289 30.4629 37.6676 30.4629 37.7209C30.457 37.8994 30.4872 38.0774 30.5519 38.2439C30.6034 38.3758 30.7356 38.4596 30.8769 38.4499C30.9769 38.4499 31.0746 38.3756 31.1699 38.2269C31.2831 38.0318 31.3628 37.8192 31.4059 37.5979L31.4239 37.5089C31.43 37.4816 31.4336 37.4538 31.4349 37.4259C31.4349 37.3799 31.4229 37.3569 31.3989 37.3569C31.3749 37.3569 31.3649 37.3779 31.3529 37.4189L31.3209 37.5289C31.2682 37.6709 31.2086 37.7419 31.1419 37.7419C31.0634 37.7441 30.986 37.7225 30.9199 37.6799C30.8051 37.5841 30.746 37.4365 30.7629 37.2879V37.1879L30.7639 37.1869ZM18.7999 35.1399C18.8091 35.1894 18.8053 35.2403 18.7889 35.2879C18.768 35.3498 18.7416 35.4098 18.7099 35.4669C18.6724 35.5357 18.623 35.5974 18.5639 35.6489C18.5403 35.6776 18.5074 35.6971 18.4709 35.7039C18.4332 35.6913 18.3989 35.6701 18.3709 35.6419C18.3269 35.6052 18.2816 35.5696 18.2349 35.5349C18.1998 35.5084 18.1664 35.4797 18.1349 35.4489C18.1124 35.4322 18.097 35.4075 18.0919 35.3799C18.1206 35.3206 18.1419 35.2749 18.1559 35.2429C18.2039 35.1429 18.2389 35.0689 18.2629 35.0229C18.3059 34.9539 18.3489 34.8829 18.3919 34.8099L18.4349 34.7479C18.4481 34.7609 18.4625 34.7726 18.4779 34.7829L18.5349 34.8169C18.6074 34.8697 18.6744 34.9297 18.7349 34.9959C18.7686 35.0375 18.791 35.0871 18.7999 35.1399ZM22.5469 34.2259C22.5383 34.1732 22.5162 34.1236 22.4829 34.0819C22.4223 34.0157 22.3553 33.9558 22.2829 33.9029L22.2259 33.8689C22.2105 33.859 22.1961 33.8476 22.1829 33.8349L22.1399 33.8969C22.0972 33.9702 22.0542 34.0412 22.0109 34.1099C21.9869 34.1559 21.9512 34.2292 21.9039 34.3299C21.8899 34.3619 21.8679 34.4079 21.8399 34.4669C21.8451 34.4945 21.8604 34.5191 21.8829 34.5359C21.9144 34.5666 21.9478 34.5954 21.9829 34.6219C22.0289 34.6559 22.0742 34.6912 22.1189 34.7279C22.1468 34.7562 22.1811 34.7775 22.2189 34.7899C22.2554 34.7831 22.2884 34.7637 22.3119 34.7349C22.3713 34.6834 22.421 34.6218 22.4589 34.5529C22.4907 34.4958 22.5171 34.4359 22.5379 34.3739C22.5543 34.3264 22.5581 34.2753 22.5489 34.2259H22.5469ZM23.2829 34.1849C23.2921 34.2344 23.2883 34.2853 23.2719 34.3329C23.2511 34.3949 23.2247 34.4548 23.1929 34.5119C23.1555 34.5808 23.1061 34.6425 23.0469 34.6939C23.0234 34.7227 22.9904 34.7421 22.9539 34.7489C22.9162 34.7362 22.882 34.715 22.8539 34.6869C22.8099 34.6502 22.7646 34.6146 22.7179 34.5799C22.6828 34.5534 22.6494 34.5247 22.6179 34.4939C22.5954 34.4771 22.5801 34.4525 22.5749 34.4249C22.6039 34.3659 22.6249 34.3189 22.6389 34.2879C22.6736 34.2139 22.7092 34.1406 22.7459 34.0679C22.7826 33.9952 22.8256 33.9242 22.8749 33.8549L22.9179 33.7929C22.931 33.8057 22.9454 33.8171 22.9609 33.8269L23.0179 33.8619C23.0903 33.9148 23.1573 33.9748 23.2179 34.0409C23.2519 34.0824 23.2747 34.132 23.2839 34.1849H23.2829ZM29.8499 34.1339C29.859 34.1834 29.8552 34.2343 29.8389 34.2819C29.8182 34.3439 29.7917 34.4038 29.7599 34.4609C29.7223 34.5297 29.6729 34.5913 29.6139 34.6429C29.5903 34.6716 29.5574 34.6911 29.5209 34.6979C29.4832 34.6853 29.449 34.664 29.4209 34.6359C29.3769 34.5992 29.3316 34.5636 29.2849 34.5289C29.2497 34.5025 29.2163 34.4738 29.1849 34.4429C29.1624 34.4262 29.147 34.4015 29.1419 34.3739C29.1706 34.3146 29.1919 34.2689 29.2059 34.2369C29.2539 34.1369 29.2889 34.0629 29.3129 34.0169C29.3559 33.9479 29.3989 33.8769 29.4419 33.8039L29.4849 33.7419C29.4981 33.7549 29.5125 33.7666 29.5279 33.7769L29.5849 33.8109C29.6574 33.8637 29.7245 33.9236 29.7849 33.9899C29.8191 34.0313 29.8408 34.081 29.8499 34.1339ZM22.9109 33.3339C22.902 33.2811 22.8796 33.2315 22.8459 33.1899C22.7855 33.1235 22.7185 33.0636 22.6459 33.0109L22.5889 32.9769C22.5734 32.9671 22.559 32.9557 22.5459 32.9429L22.5029 33.0049C22.4599 33.0779 22.4169 33.1489 22.3739 33.2179C22.3499 33.2639 22.3139 33.3369 22.2669 33.4379C22.2529 33.4699 22.2309 33.5159 22.2019 33.5749C22.207 33.6025 22.2224 33.6272 22.2449 33.6439C22.2739 33.6719 22.3079 33.7009 22.3449 33.7339L22.4809 33.8409C22.5094 33.8676 22.5436 33.8875 22.5809 33.8989C22.6174 33.8921 22.6503 33.8726 22.6739 33.8439C22.733 33.7924 22.7824 33.7307 22.8199 33.6619C22.8516 33.6048 22.8781 33.5448 22.8989 33.4829C22.9153 33.4353 22.919 33.3844 22.9099 33.3349L22.9109 33.3339ZM19.5439 8.84588L20.8149 11.0459V21.4769L23.5999 23.5029V30.9199H20.3569V24.0879L17.1569 20.8879V13.1769L15.2869 9.93788H13.5789L14.6789 8.83788L19.5439 8.84588ZM16.7609 21.6239L19.5609 24.4239V30.9239H16.9309L12.9719 24.8359H6.04688C6.59887 23.3989 7.50687 22.5359 8.64687 23.1109C8.65887 22.1969 8.98888 21.6279 10.5309 21.6279L16.7609 21.6239ZM12.5369 25.6319L15.9759 30.9199H14.3399L10.9089 25.6319H12.5369ZM27.6429 30.9199H24.3999V23.5029L27.1849 21.4779V11.0469L28.4559 8.84688H33.3179L34.4179 9.94688H32.7099L30.8399 13.1859V20.8969L27.6399 24.0969L27.6429 30.9199ZM35.0279 24.8319L31.0689 30.9199H28.4429V24.4199L31.2429 21.6199H37.4699C39.0119 21.6199 39.3429 22.1889 39.3539 23.1029C40.4969 22.5249 41.4049 23.3909 41.9539 24.8279L35.0279 24.8319ZM32.0279 30.9199L35.4669 25.6319H37.0959L33.6599 30.9199H32.0279ZM12.4579 29.4889H10.5339V28.5789H11.8669L12.4579 29.4889ZM37.4669 29.4889H35.5419L36.1329 28.5789H37.4659L37.4669 29.4889ZM25.0789 3.39687H27.8999L27.9089 8.19688L26.3849 10.8369V21.0739L24.3999 22.5139V20.1399L25.1119 19.6219V4.83287H22.8879V19.6209L23.5999 20.1389V22.5129L21.6149 21.0689V10.8329L20.0909 8.19688L20.0999 3.39687H22.9209V0.796875H25.0799L25.0789 3.39687ZM13.9419 20.8239H14.7419V18.4389H13.9419V20.8239ZM15.5619 20.8239H16.3619V13.3969L14.8299 10.7429H13.9229L15.5619 13.5819V20.8239ZM33.2619 20.8239H34.0619V18.4389H33.2619V20.8239ZM32.4419 20.8239H31.6419V13.3969L33.1739 10.7429H34.0809L32.4419 13.5819V20.8239Z" fill="#1F261A"/>
<defs>
<linearGradient id="paint0_linear_4877_46345" x1="43.2614" y1="0" x2="4.73438" y2="0" gradientUnits="userSpaceOnUse">
<stop stop-color="#D8AC4E"/>
<stop offset="1" stop-color="#ECE482"/>
</linearGradient>
</defs>
</svg>
