<svg width="48" height="48" viewBox="0 0 48 48" fill="none" xmlns="http://www.w3.org/2000/svg">
<path fill-rule="evenodd" clip-rule="evenodd" d="M44.8415 47.998H24.7581V28.3566C25.0269 25.1911 25.5031 22.2757 26.671 20.1947C27.3652 20.5843 28.6042 22.307 28.9739 25.6403C29.8799 24.0043 30.9832 22.1702 32.985 21.007C33.1199 24.6174 32.905 25.9912 31.8932 28.5046C30.4727 32.0332 26.5639 32.8547 26.5639 32.8547V46.1922H43.0357C43.0357 35.3371 43.2405 24.48 43.034 13.6268C43.0304 13.5179 43.0243 13.4094 43.0154 13.3008C42.9655 12.7767 42.8416 12.2635 42.6363 11.7782C42.1312 10.584 41.1658 9.61056 39.9804 9.09146L39.9789 9.09076C40.3367 8.54266 40.7024 8.04936 41.0642 7.60726C41.712 7.93666 42.3071 8.36826 42.8215 8.88266C43.5484 9.60946 44.11 10.4977 44.4516 11.4674C44.7112 12.2045 44.8366 12.9784 44.8415 13.7591V47.998ZM23.2397 47.998H3.15625V13.7591C3.16115 12.9784 3.28655 12.2045 3.54615 11.4674C3.88775 10.4977 4.44925 9.60946 5.17615 8.88266C5.69055 8.36826 6.28575 7.93666 6.93355 7.60726C7.29535 8.04936 7.66105 8.54266 8.01885 9.09076L8.01725 9.09146C6.83185 9.61056 5.86655 10.584 5.36145 11.7782C5.15615 12.2635 5.03225 12.7767 4.98235 13.3008C4.97335 13.4094 4.96725 13.5179 4.96375 13.6268C4.75725 24.48 4.96205 35.3371 4.96205 46.1922H21.4338V32.8547C21.4338 32.8547 17.525 32.0332 16.1046 28.5046C15.0928 25.9912 14.8778 24.6174 15.0127 21.007C17.0145 22.1702 18.1179 24.0043 19.0239 25.6403C19.3934 22.307 20.6325 20.5843 21.3267 20.1947C22.4946 22.2757 22.9708 25.1911 23.2397 28.3566V47.998ZM31.5885 1.22656C31.5719 1.39086 31.5494 1.55466 31.5207 1.71776C31.4805 1.94626 31.4289 2.17256 31.3671 2.39606C30.8577 4.23566 29.6737 5.80056 28.3891 7.17586C28.1506 7.43116 27.9069 7.68156 27.6609 7.92956C27.4291 8.16306 27.1952 8.39436 26.9615 8.62576C27.3434 9.74636 27.7841 10.8467 28.2786 11.9223C28.4802 12.3607 28.6912 12.7944 28.91 13.2242C29.5305 12.2644 30.2164 11.3468 30.9587 10.4794C31.5244 9.81836 32.1238 9.18506 32.7556 8.58586C32.2769 7.67696 32.0025 6.67026 31.8278 5.66056C31.5751 4.19916 31.526 2.70806 31.5885 1.22656ZM16.4093 1.22656C16.4258 1.39086 16.4483 1.55466 16.477 1.71776C16.5173 1.94626 16.5688 2.17256 16.6307 2.39606C17.1401 4.23566 18.324 5.80056 19.6087 7.17586C19.8472 7.43116 20.0908 7.68156 20.3368 7.92956C20.5686 8.16306 20.8026 8.39436 21.0363 8.62576C20.6544 9.74636 20.2136 10.8467 19.7192 11.9223C19.5176 12.3607 19.3066 12.7944 19.0878 13.2242C18.4673 12.2644 17.7812 11.3468 17.0391 10.4794C16.4734 9.81836 15.8738 9.18506 15.2421 8.58586C15.7207 7.67696 15.9953 6.67026 16.17 5.66056C16.4227 4.19916 16.4718 2.70806 16.4093 1.22656Z" fill="#B27D53"/>
<path fill-rule="evenodd" clip-rule="evenodd" d="M42.9788 4.55519C39.8064 6.84139 36.0957 11.8376 35.6584 17.095C35.3023 21.3773 34.5706 23.2484 34.0242 24.0496C34.2663 22.6058 34.2648 20.6425 33.9937 19.0596C33.3874 19.3279 32.3812 19.9462 31.4599 20.8622C31.3454 20.4876 30.4053 18.5632 27.3084 19.4166C27.4574 18.9371 27.6217 18.4628 27.8045 17.9947C28.2418 16.875 28.7712 15.7915 29.3802 14.7543C29.3843 14.7476 29.3882 14.7409 29.392 14.7341C30.0476 13.6199 30.795 12.5594 31.6185 11.565C32.3188 10.7192 33.0764 9.91889 33.8875 9.17739C33.9118 9.15859 33.9347 9.13769 33.9561 9.11489C34.547 8.57909 35.1661 8.07449 35.8117 7.60629C37.6194 6.29539 39.6606 5.24999 41.8479 4.75539C42.222 4.67089 42.5991 4.60509 42.9788 4.55519ZM5.01562 4.55519C8.18802 6.84139 11.8987 11.8376 12.336 17.095C12.6921 21.3773 13.4238 23.2484 13.9702 24.0496C13.7281 22.6058 13.7296 20.6425 14.0007 19.0596C14.607 19.3279 15.6132 19.9462 16.5345 20.8622C16.649 20.4876 17.5891 18.5632 20.686 19.4166C20.537 18.9371 20.3727 18.4628 20.1899 17.9947C19.7526 16.875 19.2232 15.7915 18.6142 14.7543C18.6101 14.7476 18.6062 14.7409 18.6024 14.7341C17.9468 13.6199 17.1994 12.5594 16.3759 11.565C15.6756 10.7192 14.918 9.91889 14.1069 9.17739C14.0826 9.15859 14.0597 9.13769 14.0383 9.11489C13.4474 8.57909 12.8283 8.07449 12.1827 7.60629C10.375 6.29539 8.33383 5.24999 6.14653 4.75539C5.77243 4.67089 5.39533 4.60509 5.01562 4.55519ZM25.915 19.8861C25.5677 19.6322 25.0182 19.176 23.9845 19.1792C22.9507 19.1825 22.4145 19.6411 22.0794 19.8861C21.8214 18.2621 20.7547 16.314 19.8175 14.4305C20.2383 13.635 21.4964 10.869 21.8321 9.82179C22.7236 7.04109 23.5015 3.63249 23.9972 1.79459C24.4736 3.63759 25.252 7.16369 26.1623 9.82179C26.5186 10.8622 27.7561 13.635 28.1769 14.4305C27.2397 16.314 26.173 18.2621 25.915 19.8861ZM32.9279 3.22739C33.1678 1.32319 35.319 1.18269 36.6455 1.62689C38.5517 2.26529 39.2092 4.04589 37.6781 5.03469C36.9392 5.51189 36.1454 5.90119 35.4269 6.40259C34.8234 6.82379 34.2413 7.27519 33.6815 7.75299L33.6725 7.73329C33.0278 5.66069 32.7939 4.29069 32.9279 3.22739ZM15.0665 3.22739C14.8266 1.32319 12.6754 1.18269 11.3489 1.62689C9.44273 2.26529 8.78523 4.04589 10.3163 5.03469C11.0552 5.51189 11.849 5.90119 12.5675 6.40259C13.171 6.82379 13.7531 7.27519 14.3129 7.75299L14.3219 7.73329C14.9666 5.66069 15.2005 4.29069 15.0665 3.22739ZM25.4553 2.33879C25.2344 0.834591 26.8087 -0.146709 27.9348 0.0179909C28.6749 0.126191 30.6835 0.639091 30.1189 2.36189C29.8988 3.03359 29.5713 3.66849 29.1869 4.26089C28.5139 5.29789 27.67 6.20649 26.8046 7.08359C26.7196 7.16879 26.6344 7.25379 26.5492 7.33869C26.2145 6.21039 25.9384 5.06489 25.7185 3.90869C25.6193 3.38719 25.5324 2.86379 25.4553 2.33879ZM22.5391 2.33879C22.76 0.834591 21.1857 -0.146709 20.0596 0.0179909C19.3195 0.126191 17.3109 0.639091 17.8755 2.36189C18.0956 3.03359 18.4231 3.66849 18.8075 4.26089C19.4805 5.29789 20.3244 6.20649 21.1898 7.08359C21.2748 7.16879 21.36 7.25379 21.4452 7.33869C21.7799 6.21039 22.056 5.06489 22.2759 3.90869C22.3751 3.38719 22.462 2.86379 22.5391 2.33879Z" fill="black"/>
</svg>
