<svg width="48" height="48" viewBox="0 0 48 48" fill="none" xmlns="http://www.w3.org/2000/svg">
<path fill-rule="evenodd" clip-rule="evenodd" d="M27.0252 0.210938C38.7823 1.69921 47.9245 11.7786 47.9245 23.924C47.9245 37.0889 37.1831 47.8264 24.0131 47.8264C10.8432 47.8264 0.101562 37.0889 0.101562 23.924C0.101562 20.5011 0.827708 17.2423 2.13388 14.2937L3.36982 15.8824L3.44171 15.9709C3.44171 15.9709 3.67665 16.248 3.95594 16.4894C4.21133 16.7073 4.53863 16.9035 4.76911 16.9983C4.94511 17.0691 5.11989 17.13 5.30359 17.1655C6.1127 17.3242 6.94288 17.3147 7.54379 17.2873C8.02177 17.2657 8.36242 17.2391 8.36242 17.2391C11.4869 17.0933 12.6822 18.5012 13.495 19.4594C14.2401 20.3355 21.5316 30.0468 21.5316 30.0468L25.157 26.4182C25.157 26.4182 22.1129 22.5385 20.7624 20.7992C19.2528 18.8558 18.1591 17.4589 17.4917 16.8954C16.0339 15.667 12.8098 15.5214 12.0718 15.3945C12.0718 15.3945 9.35017 15.062 7.72607 13.3969C7.34369 13.0048 7.07858 12.6585 7.07858 12.6585L4.74628 9.79486C5.34358 8.98374 5.99079 8.21142 6.68332 7.48249L9.19868 10.7212C9.68941 11.347 9.95736 11.71 10.4532 12.2041C11.7159 13.464 13.5 13.6345 13.5 13.6345C17.2212 14.304 19.2532 14.4805 20.4325 15.8465C21.8478 17.4845 22.1212 17.8593 23.304 19.3838C23.7398 19.9454 27.16 24.4157 27.16 24.4157L30.6729 20.8966C30.6729 20.8966 28.4238 17.9998 27.1175 16.2831C26.4783 15.4423 25.4656 14.13 24.7191 13.5943C23.1796 12.4923 21.8095 12.6559 20.4135 12.5081C19.2143 12.38 18.108 12.3556 16.6697 11.6711C16.6697 11.6711 16.0477 11.5327 14.7638 9.87957C13.4784 8.2278 13.1181 7.74881 13.1181 7.74881L10.3624 4.31763C11.1737 3.75109 12.0214 3.23348 12.9013 2.76914L15.6167 6.29005L16.9729 8.05698C18.9267 10.5508 20.1899 10.5794 21.4919 10.7325C23.5578 10.9773 25.5029 10.8466 27.1851 12.1146C28.1587 12.8479 28.6674 13.626 29.3678 14.5277C30.4252 15.8884 32.7045 18.8525 32.7045 18.8525L36.2204 15.3322C36.2204 15.3322 34.1963 12.7168 33.4099 11.7231C33.1491 11.3946 32.7009 10.9783 32.0372 10.5477C30.988 9.86545 29.9408 9.6557 27.2542 9.2592C24.5684 8.8631 23.6953 8.39701 22.4262 7.00945C21.8196 6.34572 21.4836 5.87479 21.0751 5.34841L17.5581 0.908837C18.6548 0.600349 19.783 0.368405 20.9365 0.219183L23.333 3.52602C24.1372 4.50135 24.8546 5.77113 26.8965 6.68051C29.3538 7.77463 31.2098 7.51809 32.892 7.95271C32.892 7.95271 33.3504 8.06424 33.8551 8.28568C34.3904 8.52185 34.7387 8.87439 35.0735 9.25214C35.6297 9.87957 36.1168 10.4913 36.2281 10.6353C36.251 10.6637 38.3138 13.2345 38.3138 13.2345L41.7887 9.75715C41.7887 9.75715 40.9864 8.73241 40.3501 7.9281C39.9561 7.43056 39.7846 7.25126 39.4541 7.04938C39.1926 6.89025 38.8647 6.73173 38.4222 6.62706C37.9169 6.50928 37.2272 6.42195 36.0376 6.37395C32.9046 6.24931 31.7471 6.00024 29.7534 3.61355L28.2741 1.8198L27.0252 0.210938Z" fill="#14763E"/>
</svg>
