<svg width="48" height="48" viewBox="0 0 48 48" fill="none" xmlns="http://www.w3.org/2000/svg">
<path fill-rule="evenodd" clip-rule="evenodd" d="M31.2665 24.9983C31.2665 20.9648 27.9893 17.6875 24.0061 17.6875C19.9725 17.6875 16.6953 20.9143 16.6953 24.9479C16.6953 28.9815 19.9725 32.2083 23.9557 32.2587C28.0397 32.3092 31.2665 29.0319 31.2665 24.9983Z" fill="#CDCCCC"/>
<path d="M21.6884 15.7237C21.033 15.9254 20.3775 15.522 20.1254 14.917L16.4952 5.79108C16.3439 5.38768 16.4952 4.93388 16.8481 4.68178L21.4363 1.35408C22.9993 0.194475 25.1169 0.194475 26.6295 1.35408L31.2177 4.73217C31.5707 4.93388 31.6715 5.38768 31.5707 5.79108L27.9404 14.917C27.6883 15.5725 27.0329 15.9254 26.327 15.7741C25.6211 15.5725 24.8144 15.4716 24.0077 15.4716C23.2514 15.4716 22.4447 15.5725 21.6884 15.7237Z" fill="#51B5D1"/>
<path d="M29.7556 17.438C31.016 18.396 32.0244 19.6564 32.6295 21.0682C32.932 21.6732 33.7387 22.0262 34.3437 21.8245L43.6714 19.001C44.0747 18.9002 44.3268 18.4464 44.3268 18.043L44.1251 12.3456C44.0243 10.4297 42.7134 8.81617 40.8983 8.31197L35.4025 6.79937C34.9488 6.69858 34.5454 6.84987 34.3437 7.20278L29.4026 15.7237C29.1505 16.1775 29.2514 17.0346 29.7556 17.438Z" fill="#51B5D1"/>
<path d="M13.6213 21.8749L4.24322 19.1522C3.83992 18.9506 3.58782 18.5976 3.63822 18.1943L3.83992 12.4969C3.89032 10.5809 5.20122 8.96747 6.96592 8.41288L12.4616 6.84987C12.865 6.74898 13.2683 6.90028 13.5204 7.25318L18.4616 15.7237C18.8145 16.2783 18.6632 17.085 18.159 17.4884C16.8986 18.4464 15.9406 19.7069 15.2851 21.169C14.9826 21.7741 14.2263 22.0766 13.6213 21.8749Z" fill="#51B5D1"/>
<path d="M47.6041 27.5219L45.3352 22.3287C45.184 21.9253 44.7806 21.6732 44.3772 21.7741L34.6967 23.3371C33.9908 23.4379 33.4866 24.043 33.537 24.7488V25.0513C33.537 26.5639 33.1841 28.0261 32.5286 29.2866C32.2261 29.8916 32.4278 30.6479 32.9824 31.0009L41.1 36.4966C41.4529 36.7487 41.9571 36.6983 42.2596 36.3958L46.4949 32.6143C47.957 31.3034 48.4108 29.2866 47.6041 27.5219Z" fill="#51B5D1"/>
<path d="M14.428 25.0009C14.428 26.5135 14.8313 27.9757 15.4868 29.2362C15.7389 29.8916 15.5876 30.6479 14.9826 31.0513L6.91552 36.547C6.51212 36.7991 6.10882 36.7487 5.75582 36.4462L1.52062 32.7151C0.0584186 31.4546 -0.395381 29.3874 0.360919 27.6227L2.62982 22.4295C2.78112 22.0766 3.18442 21.8749 3.58782 21.8749L13.2683 23.3875C13.9742 23.4883 14.4784 24.0934 14.428 24.7992V25.0009Z" fill="#51B5D1"/>
<path d="M31.974 32.2613C31.4698 31.8076 30.7135 31.8076 30.1589 32.2109C28.9993 33.2193 27.5875 33.9252 26.0245 34.2781C25.369 34.379 24.8649 35.0344 24.9153 35.7403L25.722 45.5217C25.7724 45.9251 26.1253 46.278 26.5287 46.3284L32.1757 47.2864C34.0412 47.6393 35.9067 46.6814 36.8143 44.9671L39.4361 39.9251C39.6378 39.5722 39.5874 39.068 39.2849 38.7655L31.974 32.2613Z" fill="#51B5D1"/>
<path d="M22.0414 34.3286C20.4783 33.9756 19.0162 33.2697 17.8565 32.3118C17.3523 31.858 16.5456 31.9588 16.0918 32.3622L8.83142 39.068C8.52892 39.3705 8.47852 39.8243 8.68022 40.1772L11.3524 45.2192C12.2599 46.883 14.1759 47.7906 16.0414 47.4376L21.6884 46.4293C22.0918 46.3284 22.3943 45.9755 22.4447 45.5721L23.1506 35.7907C23.201 35.0848 22.6968 34.4294 22.0414 34.3286Z" fill="#51B5D1"/>
</svg>
