<svg width="117" height="51" viewBox="0 0 117 51" fill="none" xmlns="http://www.w3.org/2000/svg">
<g id="Cafebazaar-Logo 1" clip-path="url(#clip0_15409_5249)">
<g id="Group">
<path id="Vector" d="M103.613 13.3218L98.7125 13.2214" stroke="#75CA12" stroke-width="2"/>
<path id="Vector_2" d="M86.6263 13.2523L81.761 13.3102" stroke="#75CA12" stroke-width="2"/>
<path id="Vector_3" d="M116.166 23.9623C105.025 23.9159 93.8858 23.9172 82.7495 23.9661C78.2471 23.9842 73.746 24.1155 69.2462 24.3602" stroke="#5DC11E" stroke-width="2"/>
<path id="Vector_4" d="M113.614 35.4566L71.8372 35.758" stroke="#48B92C" stroke-width="2"/>
<path id="Vector_5" d="M111.455 40.3673L73.9185 40.3789" stroke="#2CAF42" stroke-width="2"/>
</g>
<path id="Vector_6" d="M93.8819 0C96.1961 0.566667 98.0136 1.85712 99.3342 3.87136C99.9417 4.80121 100.395 5.60098 100.693 6.27068C101.381 7.79811 102.354 10.1485 103.613 13.3218L98.7125 13.2214C98.1384 11.7068 97.5476 10.2283 96.9401 8.78591C96.3995 7.50318 95.6813 6.3853 94.7854 5.43227C93.9617 4.55652 93.0041 4.25773 91.9126 4.53591C90.9472 4.77932 89.812 6.05818 89.3679 6.84636C88.3691 8.61848 87.4552 10.7538 86.6263 13.2523L81.761 13.3102C82.662 10.9225 83.5372 8.74598 84.3867 6.78068C85.2517 4.77674 86.3599 3.14758 87.7114 1.89318C88.669 1.00197 89.9227 0.370909 91.4724 0H93.8819Z" fill="#82CF0B"/>
<path id="Vector_7" d="M24.4599 12.7382L24.1665 12.7387C22.3282 12.7419 20.8406 14.2356 20.8438 16.075L20.8747 33.7781C20.8779 35.6175 22.3707 37.106 24.209 37.1027L24.5024 37.1022C26.3407 37.099 27.8283 35.6053 27.8251 33.766L27.7943 16.0628C27.7911 14.2235 26.2982 12.735 24.4599 12.7382Z" fill="#212121"/>
<path id="Vector_8" d="M86.6263 13.2523L98.7125 13.2214L103.613 13.3218C105.008 13.618 106.729 13.8898 108.775 14.1371C111.017 14.4075 113.27 15.0115 115.533 15.9491C115.849 16.0805 116.338 16.4037 117 16.9189V18.2132L116.166 23.9623C105.025 23.9159 93.8857 23.9172 82.7495 23.9661C78.2471 23.9842 73.746 24.1155 69.2462 24.3602C68.909 22.1992 68.6143 20.0343 68.362 17.8655C68.2822 17.1726 68.4958 16.6858 69.003 16.405C70.0764 15.8177 71.1151 15.3734 72.3585 15.0682C75.4888 14.3032 78.623 13.7172 81.761 13.3102L86.6263 13.2523Z" fill="#68C518"/>
<path id="Vector_9" d="M34.7525 23.2282C36.6995 23.2282 38.2779 21.6489 38.2779 19.7007C38.2779 17.7525 36.6995 16.1732 34.7525 16.1732C32.8054 16.1732 31.227 17.7525 31.227 19.7007C31.227 21.6489 32.8054 23.2282 34.7525 23.2282Z" fill="#212121"/>
<path id="Vector_10" d="M48.8118 33.5209C50.7682 33.5183 52.8714 33.5158 55.1213 33.5132C55.7198 33.5132 56.5886 33.6175 57.1099 33.8957C58.8141 34.8101 59.4203 36.2409 58.9286 38.1882C58.7175 39.0279 58.2168 39.677 57.4265 40.1355C56.9349 40.4188 56.1948 40.563 55.2062 40.5682C51.5611 40.5811 49.01 40.5849 47.553 40.5798C46.1165 40.572 45.1087 40.4033 44.5295 40.0736C43.5436 39.5095 42.7674 38.7342 42.2011 37.7477C41.887 37.2042 41.7287 36.1958 41.7261 34.7225C41.7004 26.4286 41.6914 21.5913 41.6991 20.2107C41.7043 19.0593 41.8574 18.2647 42.1586 17.8268C43.0596 16.5158 44.3326 15.9967 45.9775 16.2698C46.7781 16.4011 47.5157 16.9202 48.1901 17.8268C48.5351 18.2956 48.6934 19.0915 48.6651 20.2145C48.6548 20.6035 48.6522 24.9874 48.6573 33.3664C48.6573 33.4074 48.6736 33.4467 48.7026 33.4756C48.7315 33.5046 48.7708 33.5209 48.8118 33.5209Z" fill="#212121"/>
<path id="Vector_11" d="M0 37.9795V36.2409C0.617822 34.4404 1.81099 33.5351 3.5795 33.5248C5.75218 33.5145 7.97634 33.5132 10.252 33.5209C10.373 33.5209 10.4335 33.4617 10.4335 33.3432C10.4257 26.9347 10.4193 23.6583 10.4142 23.5141C10.3704 22.5533 10.5351 21.8141 10.9084 21.2964C11.9381 19.8642 13.2986 19.3736 14.9899 19.8243C15.7493 20.0252 16.425 20.5816 17.0171 21.4934C17.3003 21.9313 17.4226 22.713 17.384 23.8386C17.3762 24.1245 17.3737 27.7113 17.3762 34.5989C17.3762 36.0026 17.2025 37.0548 16.8549 37.7554C16.3452 38.7883 15.5936 39.5533 14.5999 40.0504C13.9049 40.4008 12.8996 40.5785 11.5842 40.5836C10.0499 40.5888 7.47049 40.5836 3.84594 40.5682C2.82653 40.563 2.05812 40.3879 1.54069 40.0427C0.830198 39.5688 0.316634 38.8811 0 37.9795Z" fill="#212121"/>
<path id="Vector_12" d="M116.166 23.9623C115.677 27.8723 114.826 31.7037 113.614 35.4566L71.8372 35.758C70.6119 32.0514 69.7482 28.2522 69.2462 24.3602C73.746 24.1155 78.2471 23.9842 82.7495 23.9661C93.8858 23.9172 105.025 23.9159 116.166 23.9623Z" fill="#52BD24"/>
<path id="Vector_13" d="M31.2695 40.3402C31.2824 38.6995 31.2824 35.266 31.2695 30.0398C31.2669 28.7854 31.8127 27.8195 32.9067 27.1421C34.7293 26.0139 37.0268 26.7325 37.9845 28.6798C38.1698 29.0507 38.2522 29.7333 38.2316 30.7275C38.2136 31.5311 38.2187 35.0921 38.247 41.4105C38.2548 42.9688 38.09 44.0571 37.7528 44.6752C37.1967 45.6849 36.4309 46.4628 35.4553 47.0089C34.8477 47.3463 33.8837 47.5189 32.5631 47.5266C30.5603 47.5369 27.9461 47.5382 24.7206 47.5305C23.6883 47.5305 22.9302 47.3721 22.4462 47.0552C21.1823 46.2258 20.661 44.9792 20.8824 43.3152C21.0008 42.4395 21.5478 41.6668 22.5235 40.9971C22.9997 40.6699 23.8492 40.5193 25.072 40.545C27.2987 40.5914 29.2963 40.5914 31.0649 40.545C31.1987 40.5424 31.2669 40.4742 31.2695 40.3402Z" fill="#212121"/>
<path id="Vector_14" d="M113.614 35.4566L111.455 40.3673L73.9185 40.3789L71.8372 35.758L113.614 35.4566Z" fill="#3DB534"/>
<path id="Vector_15" d="M111.455 40.3673C107.589 46.5336 102.038 50.0779 94.8048 51H90.565C83.3158 50.065 77.767 46.5246 73.9185 40.3789L111.455 40.3673Z" fill="#1BA94F"/>
<path id="Vector_16" d="M46.0741 51H44.3326C42.8627 50.5183 41.999 49.6451 41.7416 48.3804C41.4558 46.9895 41.8085 45.8395 42.7996 44.9302C43.6131 44.1832 44.581 43.8883 45.7034 44.0454C46.5143 44.1562 47.208 44.5181 47.7847 45.1311C48.2789 45.654 48.5672 46.3314 48.6496 47.1634C48.8298 48.9587 47.9713 50.2376 46.0741 51Z" fill="#212121"/>
</g>
<defs>
<clipPath id="clip0_15409_5249">
<rect width="117" height="51" fill="white"/>
</clipPath>
</defs>
</svg>
