<svg width="133" height="32" viewBox="0 0 133 32" fill="none" xmlns="http://www.w3.org/2000/svg">
<g id="logo-iranicard 1" clip-path="url(#clip0_13274_3766)">
<g id="#1e54a5ff">
<path id="Vector" d="M105.801 0.3685C112.366 0.3685 118.932 0.377033 125.499 0.3685C126.962 0.375966 128.446 0.805833 129.6 1.69543C130.982 2.74503 131.824 4.39623 131.97 6.0805C132.061 8.85383 132.029 11.6293 132.032 14.4048C132.033 18.0656 132.027 21.7264 132.018 25.3872C131.996 26.3333 131.847 27.2922 131.439 28.1594C130.674 29.817 129.134 31.176 127.278 31.5578C126.195 31.8224 125.071 31.7189 123.967 31.7392C120.244 31.7296 116.52 31.7669 112.798 31.7168C117.316 29.4789 121.864 27.2944 126.389 25.0682C127.975 24.3322 128.748 22.297 127.977 20.7536C126.591 17.8778 125.153 15.0245 123.729 12.1658C123.36 11.4768 123.084 10.7184 122.523 10.1445C121.859 9.44903 120.866 9.1013 119.9 9.12583C119.173 9.1717 118.499 9.47463 117.882 9.8309C118.471 11.3786 119.138 12.8976 119.76 14.4336C120.251 15.545 120.712 16.7461 120.479 17.9749C120.292 19.5909 119.261 21.1184 117.697 21.7658C112.43 23.9664 107.101 26.025 101.832 28.2213C102.349 29.417 102.98 30.5637 103.539 31.7413C98.5416 31.737 93.5432 31.7456 88.5459 31.7434C87.1478 31.7317 85.7475 31.2986 84.6629 30.4314C83.1702 29.2816 82.3496 27.4298 82.3056 25.6026C82.3056 22.472 82.31 19.3402 82.3133 16.2085C82.3232 15.6752 82.2968 15.1386 82.3672 14.6074C83.0734 16.4528 83.6619 18.3397 84.3472 20.1914C84.939 21.6858 86.7364 22.6405 88.3479 22.1893C89.6679 21.7904 90.9626 21.3146 92.2716 20.8837C97.358 19.1664 102.441 17.4373 107.535 15.7413C108.893 15.3061 109.868 13.976 109.866 12.5925C109.873 11.928 109.663 11.288 109.439 10.6672C108.724 8.58503 108.006 6.50503 107.283 4.4261C106.797 3.07037 106.382 1.68903 105.801 0.3685ZM109.139 4.96797C109.78 6.86983 110.437 8.76743 111.1 10.6618C111.884 12.633 111.284 15.0981 109.558 16.4208C108.743 17.0586 107.712 17.3136 106.747 17.6517C101.955 19.2794 97.1556 20.8869 92.3695 22.5274C92.7875 23.5802 93.2352 24.6213 93.6642 25.6698C93.9447 26.3578 94.3066 27.0522 94.9358 27.5013C95.9049 28.2341 97.2821 28.3632 98.4019 27.896C104.297 25.5045 110.196 23.1205 116.094 20.7365C116.623 20.5189 117.182 20.3365 117.639 19.9856C118.545 19.3114 119.075 18.184 118.973 17.0778C118.922 16.5082 118.697 15.9749 118.478 15.4501C117.27 12.5349 116.059 9.6197 114.855 6.70237C114.654 6.1925 114.411 5.68477 114.016 5.28797C113.375 4.64583 112.481 4.20103 111.546 4.21703C110.688 4.24263 109.893 4.6021 109.139 4.96797Z" fill="#1E54A5"/>
<path id="Vector_2" d="M84.8188 1.616C85.8814 0.820268 87.2157 0.405335 88.5533 0.378668C90.5322 0.353068 92.5122 0.377601 94.4911 0.371201C95.4921 0.381868 96.4942 0.344535 97.493 0.418135C92.4759 2.1376 87.4445 3.8176 82.4153 5.504C82.709 3.98933 83.5318 2.54293 84.8188 1.616Z" fill="#1E54A5"/>
</g>
<g id="#131313ff">
<path id="Vector_3" d="M35.7417 6.56214C36.13 6.38187 36.5293 6.76587 36.5458 7.13494C36.6074 7.91894 36.6327 8.7072 36.6481 9.49334C36.6547 9.9488 36.2521 10.3189 35.8088 10.3979C34.6571 10.6624 33.4977 10.8939 32.3537 11.1861C32.6606 11.6501 33.149 11.9477 33.5395 12.3371C34.2259 13.024 34.8991 13.7248 35.5921 14.4064C36.2994 15.1755 37.0023 15.952 37.7811 16.6539C38.0594 16.8864 38.3168 17.168 38.6732 17.2885C39.4751 17.5605 40.398 17.6181 41.1845 17.2683C41.8467 16.7456 42.1338 15.9051 42.2988 15.1179C42.4638 14.6155 42.6431 14.0309 43.1656 13.7749C43.9059 14.1312 44.6638 14.4501 45.403 14.8096C45.4415 14.9579 45.4789 15.1072 45.5196 15.2555C45.2897 15.8805 44.9498 16.5088 45.1104 17.1947C46.3358 17.44 47.5964 17.6192 48.8493 17.4923C49.561 17.4709 50.2804 17.3867 50.9448 17.1264C51.2275 16.9707 51.3991 16.624 51.3144 16.3147C51.101 15.3355 50.8612 14.3627 50.628 13.3888C50.5433 13.0421 50.5807 12.6859 50.6148 12.336C51.684 12.0789 52.7356 11.744 53.8158 11.5371C54.0611 13.088 54.4626 14.6357 54.3845 16.2165C54.3834 17.0464 54.4351 17.9264 53.9676 18.6635C53.7102 19.328 53.1349 19.7792 52.6014 20.2315C52.1636 20.6539 51.5344 20.7701 50.9789 20.9835C50.2551 21.1883 49.5555 21.5339 48.7855 21.5264C48.1618 21.5339 47.5392 21.5029 46.9177 21.4667C46.272 21.4283 45.6747 21.1659 45.0466 21.0453C44.3811 20.9643 44.0467 20.1888 43.3515 20.208C42.8598 20.8 42.0733 21.0005 41.3748 21.2672C40.5894 21.5915 39.7149 21.5072 38.8844 21.4859C37.9934 21.3568 37.1255 21.0411 36.3775 20.5515C35.9353 20.2965 35.723 19.7493 35.1873 19.6341C34.8837 19.92 34.5735 20.2101 34.1929 20.4C33.6506 20.6677 33.1116 20.9739 32.5022 21.0688C31.84 21.1797 31.2163 21.4731 30.5343 21.4763C29.541 21.4795 28.5477 21.5317 27.5555 21.4869C26.8339 21.4656 26.1673 21.1552 25.5447 20.8277C24.6339 20.3189 24.0256 19.4272 23.711 18.4725C23.5339 17.584 23.3359 16.6901 23.3447 15.7803C23.315 13.1093 23.1852 10.4395 23.2127 7.76854C23.3491 7.61814 23.4855 7.4688 23.6219 7.31947C24.1994 7.28747 24.778 7.26934 25.3544 7.2096C25.7757 7.19147 26.2157 7.09867 26.6282 7.22987C26.8163 7.28427 26.8515 7.504 26.8691 7.6672C26.9109 9.19894 26.8328 10.7339 26.923 12.2645C26.9318 13.6523 26.9307 15.0411 26.9307 16.4288C26.8911 16.9088 27.2541 17.4283 27.7788 17.4464C29.1362 17.6309 30.5013 17.3824 31.8598 17.3269C32.2305 17.3333 32.643 17.2064 32.8091 16.8555C32.6012 16.2421 32.0732 15.8069 31.6332 15.3472C30.4727 14.1312 28.9481 13.3355 27.6435 12.2827C27.4785 11.4197 27.7392 10.5653 27.7854 9.70454C27.8008 9.3728 27.8316 9.03787 27.9658 8.7296C30.5431 7.95947 33.1567 7.3088 35.7417 6.56214Z" fill="#131313"/>
<path id="Vector_4" d="M55.9003 7.85068C56.0961 7.65974 56.2919 7.40801 56.6021 7.41547C57.4469 7.40694 58.295 7.40268 59.1387 7.44748C59.4324 7.44534 59.5182 7.77174 59.4962 8.00108C59.4962 12.3435 59.4907 16.6869 59.4918 21.0304C59.2058 21.2853 58.8835 21.5499 58.4677 21.5328C57.7109 21.5605 56.9365 21.6896 56.1907 21.5083C56.1544 21.3088 56.1247 21.1072 56.1181 20.9045C56.0433 16.5536 55.9872 12.2027 55.9003 7.85068Z" fill="#131313"/>
<path id="Vector_5" d="M75.7849 8.09387C75.7475 7.67467 76.2183 7.37174 76.6176 7.408C77.4228 7.42187 78.2324 7.39414 79.0376 7.4496C79.3291 7.45707 79.3676 7.78134 79.3533 7.99894C79.3324 12.3563 79.3665 16.7136 79.3401 21.0699C79.0607 21.2907 78.7648 21.5403 78.3787 21.5285C77.6065 21.5605 76.8145 21.6928 76.0533 21.504C75.9796 21.0656 75.984 20.6219 75.9807 20.1792C75.9114 16.1515 75.8498 12.1227 75.7849 8.09387Z" fill="#131313"/>
<path id="Vector_6" d="M3.08485 8.27521C5.00765 8.22827 6.93595 8.26774 8.86095 8.24001C9.26795 8.22401 9.79155 8.26987 9.97635 8.6848C10.0633 9.41547 10.1073 10.1536 10.1425 10.8885C10.1832 11.3675 9.61445 11.6032 9.19755 11.5947C7.32535 11.6053 5.45095 11.5851 3.58095 11.6779C3.22015 11.7269 2.80655 11.5424 2.78235 11.152C2.72735 10.4565 2.75485 9.75681 2.73065 9.06027C2.70095 8.75947 2.81975 8.44587 3.08485 8.27521Z" fill="#131313"/>
<path id="Vector_7" d="M46.284 8.848C46.2796 8.53333 46.5843 8.2432 46.911 8.25707C47.7558 8.25387 48.605 8.2336 49.4487 8.29333C49.7402 8.2976 49.9074 8.5952 49.9118 8.84693C49.9261 9.45493 49.8612 10.0608 49.8656 10.6688C49.8821 10.9984 49.7545 11.4955 49.3453 11.5147C48.4466 11.5616 47.5446 11.5285 46.6448 11.5573C46.4908 11.3611 46.2906 11.1637 46.3049 10.8971C46.2906 10.2144 46.2653 9.53067 46.284 8.848Z" fill="#131313"/>
<path id="Vector_8" d="M14.5546 11.3941C14.8318 11.2651 15.1156 11.3952 15.3675 11.5147C15.4423 11.8613 15.5226 12.208 15.6315 12.5472C15.8185 13.1147 15.8449 13.7152 15.934 14.3019C16.0638 15.2534 16.2354 16.2144 16.1254 17.1755C15.945 18.064 15.5303 18.9376 14.8549 19.5744C14.0277 20.4288 12.9244 20.9622 11.8442 21.4518C11.2832 21.664 10.6782 21.7397 10.0864 21.8229C8.34285 21.9744 6.57515 22.047 4.83825 21.7942C3.85705 21.664 2.93855 21.247 2.11465 20.7275C1.61855 20.3542 1.11915 19.8549 1.08065 19.2128C0.901354 17.7867 0.841954 16.3435 0.961854 14.9109C1.00475 14.3648 1.04435 13.8123 1.20165 13.2832C1.25775 13.1083 1.35565 12.8704 1.58555 12.8832C2.34565 12.8523 3.12995 12.9237 3.83835 13.2117C3.96595 13.2768 4.13095 13.3621 4.14305 13.52C4.22775 14.5131 3.62275 15.472 3.87135 16.4651C4.01655 16.879 4.11225 17.3856 4.53905 17.6181C5.16715 17.9019 5.86455 17.9915 6.54875 18.0406C7.88745 18.1334 9.24485 18.1675 10.5649 17.8997C11.3866 17.8208 12.3128 17.6789 12.8386 16.9877C13.019 16.6261 12.8397 16.2336 12.7517 15.8731C12.5284 15.0955 12.5064 14.2667 12.1687 13.52C11.9927 13.1445 11.9476 12.7211 12.0576 12.3211C12.8848 11.9979 13.7274 11.7141 14.5546 11.3941Z" fill="#131313"/>
<path id="Vector_9" d="M70.9758 12.2731C71.8701 11.9947 72.76 11.7003 73.6554 11.4261C73.8402 11.3397 74.0294 11.4027 74.2109 11.4603C74.3352 12.6592 74.5475 13.8475 74.6861 15.0443C74.7367 15.7152 74.7213 16.3893 74.7653 17.0603C74.8533 17.8443 74.3726 18.5365 73.9502 19.1616C73.4585 19.936 72.6533 20.4469 71.8415 20.864C71.5159 21.0325 71.1397 21.056 70.7888 21.1488C70.4214 21.2267 70.0793 21.4165 69.6954 21.4123C68.9584 21.4176 68.2225 21.4069 67.4866 21.4016C67.1346 21.4155 66.8277 21.232 66.4966 21.1552C66.1798 21.4443 66.2172 21.9104 66.0522 22.2763C65.7145 23.0123 65.3273 23.7397 64.7586 24.336C64.3967 24.8277 63.8214 25.0891 63.2978 25.3835C62.4486 25.8123 61.5235 26.1365 60.5577 26.1632C59.725 26.2208 58.7482 26.3573 58.0651 25.7824C58.0937 25.008 57.9793 24.2197 58.152 23.456C58.2312 23.0901 58.6371 22.9792 58.9572 22.8864C59.505 22.6859 60.1067 22.7819 60.6611 22.6112C61.3354 22.4064 62.0273 22.1451 62.4959 21.6064C63.003 21.2096 63.1174 20.5429 63.1229 19.9467C63.1196 19.4528 63.1548 18.9483 63.014 18.4683C62.882 17.9989 62.7489 17.5307 62.6334 17.0571C62.4541 16.3413 62.1043 15.6693 62.002 14.9344C62.3298 14.7157 62.6521 14.4811 63.025 14.3371C63.8148 14.0427 64.5606 13.5925 65.4274 13.5456C65.6375 14.3659 65.8531 15.1851 66.0786 16.0011C66.2007 16.4544 66.4724 16.848 66.6803 17.2651C66.8805 17.3227 67.0818 17.3845 67.2908 17.4091C68.3677 17.5061 69.4589 17.4933 70.5281 17.3259C70.9263 17.2267 71.3575 16.9824 71.4345 16.5568C71.6215 15.8325 71.3487 15.1115 71.2926 14.3904C71.209 13.6811 71.0792 12.9792 70.9758 12.2731Z" fill="#131313"/>
<path id="Vector_10" d="M20.5441 13.6565C20.8257 13.5509 21.1227 13.6597 21.4032 13.712C21.6177 14.4757 21.9015 15.2224 22.0456 16.0032C22.204 16.8597 22.5406 17.6896 22.5406 18.5685C22.5549 19.3483 22.6088 20.1419 22.3987 20.9035C22.204 21.6128 22.0962 22.3637 21.6848 22.9963C21.2151 23.9413 20.4231 24.6987 19.5552 25.3067C18.6807 25.8016 17.6995 26.16 16.6798 26.2048C16.0154 26.2293 15.3477 26.2571 14.6844 26.192C14.372 26.1824 14.0772 25.9104 14.0816 25.6021C14.064 24.8085 14.0222 24.0128 14.0651 23.2192C14.2917 23.0496 14.5106 22.8384 14.8065 22.7947C15.7426 22.6357 16.7436 22.7744 17.6247 22.3712C18.1527 22.1696 18.6125 21.7899 18.827 21.2725C19.1383 20.7392 19.1251 20.1141 19.135 19.5211C19.1713 18.7051 18.7511 17.9659 18.6026 17.1787C18.4849 16.48 18.0603 15.8571 18.0504 15.1371C18.1153 14.6464 18.6477 14.4491 19.0547 14.2741C19.564 14.0971 20.0348 13.8315 20.5441 13.6565Z" fill="#131313"/>
<path id="Vector_11" d="M67.9146 22.7968C69.9364 22.7445 71.9604 22.7605 73.9833 22.7669C74.2968 22.7338 74.5476 22.9344 74.7995 23.0826C74.8776 23.9605 74.9832 24.8416 74.9436 25.7248C74.9271 25.9658 74.6279 26.0746 74.4145 26.081C73.2804 26.161 72.1419 26.08 71.0078 26.1418C69.9639 26.161 68.92 26.1482 67.8761 26.1504C67.6033 25.4816 67.688 24.752 67.6121 24.0512C67.5736 23.7066 67.5868 23.361 67.6451 23.0197C67.7342 22.945 67.8233 22.8704 67.9146 22.7968Z" fill="#131313"/>
<path id="Vector_12" d="M37.2795 23.0965C38.7678 23.0304 40.2605 23.0901 41.751 23.0635C42.6805 23.0784 43.6133 23.0219 44.5417 23.1125C44.6066 24.2059 44.6979 25.3099 44.5505 26.4011C44.2018 26.4395 43.8542 26.4821 43.5033 26.4789C42.1492 26.4779 40.7951 26.4821 39.441 26.4811C38.7271 26.4747 38.0077 26.528 37.3026 26.3957C37.2597 25.2971 37.2003 24.1941 37.2795 23.0965Z" fill="#131313"/>
</g>
</g>
<defs>
<clipPath id="clip0_13274_3766">
<rect width="132" height="32" fill="white" transform="translate(0.5)"/>
</clipPath>
</defs>
</svg>
