<svg width="63" height="26" viewBox="0 0 63 26" fill="none" xmlns="http://www.w3.org/2000/svg">
<g clip-path="url(#clip0_4175_28387)">
<path d="M28.3666 6.41501C28.6725 6.26855 28.9871 6.58055 29.0001 6.88041C29.0487 7.51741 29.0686 8.15788 29.0807 8.79661C29.0859 9.16668 28.7687 9.46741 28.4195 9.53155C27.5121 9.74648 26.5986 9.93455 25.6973 10.172C25.9391 10.549 26.3239 10.7908 26.6315 11.1071C27.1723 11.6653 27.7027 12.2347 28.2487 12.7885C28.806 13.4133 29.3598 14.0443 29.9734 14.6145C30.1927 14.8035 30.3955 15.0323 30.6763 15.1302C31.3081 15.3512 32.0352 15.398 32.6549 15.1137C33.1766 14.6891 33.4028 14.0061 33.5328 13.3665C33.6628 12.9583 33.8041 12.4834 34.2157 12.2754C34.799 12.5649 35.3962 12.824 35.9786 13.1161C36.0089 13.2365 36.0384 13.3579 36.0704 13.4783C35.8893 13.9862 35.6215 14.4967 35.748 15.0539C36.7135 15.2533 37.7067 15.3989 38.6938 15.2957C39.2546 15.2784 39.8214 15.2099 40.3448 14.9985C40.5676 14.8719 40.7028 14.5903 40.636 14.3389C40.4679 13.5433 40.279 12.7529 40.0952 11.9617C40.0285 11.68 40.058 11.3905 40.0848 11.1063C40.9272 10.8974 41.7558 10.6253 42.6068 10.4571C42.8001 11.7173 43.1164 12.9748 43.0549 14.2592C43.054 14.9335 43.0948 15.6485 42.7264 16.2473C42.5236 16.7873 42.0704 17.1539 41.65 17.5213C41.3051 17.8645 40.8094 17.959 40.3717 18.1323C39.8014 18.2987 39.2502 18.5795 38.6436 18.5735C38.1522 18.5795 37.6616 18.5544 37.172 18.5249C36.6632 18.4937 36.1926 18.2805 35.6978 18.1826C35.1734 18.1167 34.91 17.4867 34.3622 17.5023C33.9748 17.9833 33.3551 18.1462 32.8048 18.3629C32.186 18.6263 31.497 18.5579 30.8427 18.5405C30.1407 18.4357 29.4569 18.1791 28.8675 17.7813C28.5191 17.5742 28.3519 17.1296 27.9298 17.036C27.6906 17.2683 27.4462 17.504 27.1463 17.6583C26.7191 17.8758 26.2944 18.1245 25.8143 18.2017C25.2925 18.2918 24.8011 18.5301 24.2638 18.5327C23.4812 18.5353 22.6986 18.5778 21.9169 18.5414C21.3483 18.5241 20.8231 18.2719 20.3326 18.0058C19.615 17.5924 19.1357 16.8679 18.8878 16.0922C18.7483 15.3703 18.5923 14.644 18.5992 13.9047C18.5758 11.7346 18.4736 9.56535 18.4952 7.39521C18.6027 7.27301 18.7102 7.15168 18.8176 7.03035C19.2726 7.00435 19.7285 6.98961 20.1826 6.94108C20.5146 6.92634 20.8612 6.85095 21.1862 6.95755C21.3344 7.00175 21.3622 7.18028 21.376 7.31288C21.409 8.55741 21.3475 9.80455 21.4185 11.0482C21.4255 12.1757 21.4246 13.3041 21.4246 14.4317C21.3934 14.8217 21.6794 15.2437 22.0928 15.2585C23.1623 15.4084 24.2378 15.2065 25.3081 15.1614C25.6002 15.1666 25.9252 15.0635 26.0561 14.7783C25.8923 14.28 25.4763 13.9264 25.1296 13.5529C24.2153 12.5649 23.0141 11.9183 21.9862 11.0629C21.8562 10.3618 22.0616 9.66761 22.098 8.96821C22.1101 8.69868 22.1344 8.42654 22.2401 8.17608C24.2707 7.55034 26.3299 7.02168 28.3666 6.41501Z" fill="#0F53D9"/>
<path d="M44.2488 7.46193C44.403 7.30679 44.5573 7.10226 44.8017 7.10833C45.4673 7.10139 46.1355 7.09793 46.8003 7.13433C47.0317 7.13259 47.0993 7.39779 47.0819 7.58413C47.0819 11.1123 47.0776 14.6414 47.0785 18.1705C46.8531 18.3776 46.5992 18.5925 46.2716 18.5787C45.6753 18.6012 45.0652 18.7061 44.4776 18.5587C44.449 18.3967 44.4256 18.2329 44.4204 18.0682C44.3614 14.5331 44.3172 10.9979 44.2488 7.46193Z" fill="#0F53D9"/>
<path d="M59.915 7.65954C59.8855 7.31894 60.2564 7.07281 60.571 7.10228C61.2055 7.11354 61.8433 7.09101 62.4777 7.13608C62.7074 7.14214 62.7377 7.40561 62.7265 7.58241C62.71 11.1227 62.7369 14.6631 62.7161 18.2025C62.4959 18.3819 62.2628 18.5847 61.9586 18.5752C61.3502 18.6012 60.7262 18.7087 60.1264 18.5553C60.0684 18.1991 60.0718 17.8385 60.0692 17.4789C60.0146 14.2063 59.9661 10.9329 59.915 7.65954Z" fill="#0F53D9"/>
<path d="M2.63677 7.80693C4.1517 7.7688 5.67097 7.80086 7.18764 7.77833C7.50831 7.76533 7.92084 7.8026 8.06644 8.13973C8.13491 8.7334 8.16958 9.33313 8.19731 9.93026C8.22938 10.3194 7.78131 10.5109 7.45284 10.504C5.97777 10.5127 4.50097 10.4962 3.02763 10.5716C2.74337 10.6115 2.4175 10.4615 2.39843 10.1443C2.3551 9.57926 2.37677 9.01073 2.3577 8.4448C2.3343 8.2004 2.4279 7.9456 2.63677 7.80693Z" fill="#0F53D9"/>
<path d="M36.6721 8.27235C36.6686 8.01669 36.9087 7.78095 37.1661 7.79222C37.8317 7.78962 38.5008 7.77315 39.1655 7.82169C39.3952 7.82515 39.5269 8.06695 39.5304 8.27149C39.5416 8.76549 39.4905 9.25775 39.494 9.75175C39.507 10.0196 39.4064 10.4234 39.084 10.439C38.376 10.4772 37.6653 10.4503 36.9564 10.4737C36.835 10.3142 36.6773 10.1539 36.6886 9.93722C36.6773 9.38255 36.6574 8.82702 36.6721 8.27235Z" fill="#0F53D9"/>
<path d="M11.6738 10.341C11.8922 10.2361 12.1158 10.3419 12.3142 10.4389C12.3732 10.7206 12.4364 11.0023 12.5222 11.2779C12.6696 11.7389 12.6904 12.2269 12.7606 12.7035C12.8628 13.4766 12.998 14.2575 12.9114 15.0383C12.7692 15.7603 12.4425 16.4701 11.9104 16.9875C11.2586 17.6817 10.3894 18.115 9.53829 18.5128C9.09628 18.6853 8.61962 18.7468 8.15335 18.8144C6.77968 18.9375 5.38694 18.9964 4.01847 18.791C3.2454 18.6853 2.52173 18.3464 1.8726 17.9243C1.48173 17.621 1.08826 17.2154 1.05793 16.6937C0.916664 15.5349 0.869864 14.3623 0.964331 13.1984C0.998131 12.7547 1.02933 12.3057 1.15326 11.8759C1.19746 11.7337 1.2746 11.5405 1.45573 11.5509C2.0546 11.5257 2.67254 11.5838 3.23067 11.8178C3.3312 11.8707 3.4612 11.94 3.47074 12.0683C3.53747 12.8751 3.0608 13.6543 3.25667 14.4611C3.37107 14.7974 3.44647 15.2091 3.78274 15.398C4.27761 15.6285 4.82707 15.7013 5.36614 15.7412C6.42088 15.8166 7.49035 15.8443 8.53035 15.6268C9.17775 15.5627 9.90749 15.4474 10.3218 14.8858C10.4639 14.592 10.3226 14.2731 10.2533 13.9801C10.0774 13.3483 10.06 12.6749 9.79395 12.0683C9.65529 11.7632 9.61975 11.4191 9.70642 11.0941C10.3582 10.8315 11.022 10.601 11.6738 10.341Z" fill="#0F53D9"/>
<path d="M56.1267 11.0552C56.8313 10.829 57.5325 10.5898 58.2379 10.3671C58.3835 10.2969 58.5326 10.348 58.6756 10.3948C58.7735 11.3689 58.9408 12.3344 59.05 13.3068C59.0899 13.8519 59.0777 14.3997 59.1124 14.9448C59.1817 15.5818 58.803 16.1443 58.4702 16.6521C58.0828 17.2813 57.4484 17.6965 56.8088 18.0353C56.5523 18.1723 56.2559 18.1913 55.9794 18.2667C55.6899 18.33 55.4204 18.4843 55.1179 18.4808C54.5372 18.4851 53.9574 18.4765 53.3776 18.4721C53.1003 18.4834 52.8585 18.3343 52.5976 18.2719C52.348 18.5068 52.3775 18.8855 52.2475 19.1828C51.9814 19.7808 51.6764 20.3719 51.2283 20.8563C50.9432 21.2559 50.4899 21.4682 50.0774 21.7074C49.4083 22.0558 48.6794 22.3193 47.9185 22.3409C47.2624 22.3877 46.4928 22.4987 45.9546 22.0315C45.9772 21.4023 45.887 20.7619 46.0231 20.1413C46.0855 19.8441 46.4053 19.7539 46.6575 19.6785C47.0891 19.5156 47.5632 19.5936 48 19.4549C48.5312 19.2885 49.0764 19.0762 49.4456 18.6385C49.8451 18.3161 49.9352 17.7745 49.9396 17.29C49.937 16.8887 49.9647 16.4788 49.8538 16.0888C49.7498 15.7075 49.6449 15.327 49.5539 14.9422C49.4126 14.3607 49.137 13.8147 49.0564 13.2175C49.3147 13.0399 49.5686 12.8492 49.8624 12.7322C50.4847 12.493 51.0723 12.1273 51.7552 12.0891C51.9208 12.7556 52.0906 13.4212 52.2683 14.0842C52.3645 14.4525 52.5786 14.7723 52.7424 15.1112C52.9001 15.158 53.0587 15.2083 53.2234 15.2282C54.0718 15.3071 54.9316 15.2967 55.774 15.1606C56.0877 15.08 56.4275 14.8815 56.4881 14.5357C56.6355 13.9473 56.4205 13.3614 56.3763 12.7755C56.3105 12.1992 56.2082 11.6289 56.1267 11.0552Z" fill="#0F53D9"/>
<path d="M16.3931 12.1792C16.615 12.0934 16.849 12.1818 17.07 12.2243C17.239 12.8448 17.4626 13.4515 17.5761 14.0859C17.7009 14.7818 17.9661 15.4561 17.9661 16.1702C17.9774 16.8038 18.0199 17.4486 17.8543 18.0674C17.7009 18.6437 17.616 19.2538 17.2919 19.7678C16.9218 20.5356 16.2978 21.151 15.614 21.645C14.925 22.0471 14.1519 22.3383 13.3485 22.3747C12.825 22.3946 12.299 22.4172 11.7764 22.3643C11.5302 22.3565 11.298 22.1355 11.3014 21.885C11.2876 21.2402 11.2546 20.5937 11.2884 19.9489C11.467 19.8111 11.6394 19.6395 11.8726 19.604C12.6101 19.4748 13.3988 19.5875 14.093 19.2599C14.509 19.0961 14.8713 18.7876 15.0403 18.3672C15.2855 17.9339 15.2751 17.426 15.2829 16.9442C15.3115 16.2812 14.9805 15.6806 14.8635 15.041C14.7707 14.4733 14.4362 13.9672 14.4284 13.3822C14.4795 12.9835 14.899 12.8232 15.2197 12.681C15.6209 12.5372 15.9919 12.3214 16.3931 12.1792Z" fill="#0F53D9"/>
<path d="M53.7146 19.6057C55.3075 19.5632 56.9022 19.5762 58.496 19.5814C58.743 19.5545 58.9406 19.7175 59.1391 19.8379C59.2006 20.5512 59.2838 21.2671 59.2526 21.9847C59.2396 22.1805 59.0039 22.2689 58.8358 22.2741C57.9422 22.3391 57.0452 22.2733 56.1517 22.3235C55.3292 22.3391 54.5067 22.3287 53.6843 22.3305C53.4693 21.7871 53.5361 21.1943 53.4763 20.6249C53.4459 20.3449 53.4563 20.0641 53.5023 19.7868C53.5725 19.7261 53.6427 19.6655 53.7146 19.6057Z" fill="#0F53D9"/>
<path d="M29.5772 19.8493C30.7498 19.7955 31.9259 19.8441 33.1002 19.8224C33.8326 19.8345 34.5675 19.7886 35.299 19.8623C35.3501 20.7506 35.422 21.6476 35.3059 22.5342C35.0312 22.5654 34.7573 22.6001 34.4808 22.5975C33.414 22.5966 32.3471 22.6001 31.2802 22.5992C30.7177 22.594 30.1509 22.6373 29.5954 22.5299C29.5616 21.6372 29.5148 20.7411 29.5772 19.8493Z" fill="#0F53D9"/>
</g>
<defs>
<clipPath id="clip0_4175_28387">
<rect width="62.4002" height="26" fill="white" transform="translate(0.599854)"/>
</clipPath>
</defs>
</svg>
