<svg width="48" height="48" viewBox="0 0 48 48" fill="none" xmlns="http://www.w3.org/2000/svg">
<path d="M7.21479 15.3686C11.1994 15.3686 14.4296 12.1521 14.4296 8.18432C14.4296 4.21653 11.1994 1 7.21479 1C3.23017 1 0 4.21653 0 8.18432C0 12.1521 3.23017 15.3686 7.21479 15.3686Z" fill="url(#paint0_radial_4877_46352)"/>
<path d="M40.7851 47.0014C44.7697 47.0014 47.9999 43.7849 47.9999 39.8171C47.9999 35.8493 44.7697 32.6328 40.7851 32.6328C36.8005 32.6328 33.5703 35.8493 33.5703 39.8171C33.5703 43.7849 36.8005 47.0014 40.7851 47.0014Z" fill="url(#paint1_radial_4877_46352)"/>
<path fill-rule="evenodd" clip-rule="evenodd" d="M20.9728 5.25781L12.7463 47.0019H0L20.9728 5.25781Z" fill="url(#paint2_radial_4877_46352)"/>
<path fill-rule="evenodd" clip-rule="evenodd" d="M35.0571 1L26.6244 43.5211C25.4346 45.6613 23.1675 46.9999 20.6965 46.9999H12.7422L20.9686 5.25575L21.2335 4.72861C22.3815 2.4434 24.7275 1 27.2936 1H35.0571Z" fill="url(#paint3_radial_4877_46352)"/>
<path fill-rule="evenodd" clip-rule="evenodd" d="M48.0029 1C48.0029 1 32.1365 32.5672 26.633 43.5211C26.5821 43.6224 35.0658 1 35.0658 1H48.0029Z" fill="url(#paint4_radial_4877_46352)"/>
<defs>
<radialGradient id="paint0_radial_4877_46352" cx="0" cy="0" r="1" gradientUnits="userSpaceOnUse" gradientTransform="translate(14.4294 8.18433) rotate(180) scale(16.1236 16.0555)">
<stop stop-color="#6850A1"/>
<stop offset="1" stop-color="#AFAAD4"/>
</radialGradient>
<radialGradient id="paint1_radial_4877_46352" cx="0" cy="0" r="1" gradientUnits="userSpaceOnUse" gradientTransform="translate(47.9997 39.8171) rotate(180) scale(14.4294 14.3685)">
<stop stop-color="#6850A1"/>
<stop offset="1" stop-color="#AFAAD4"/>
</radialGradient>
<radialGradient id="paint2_radial_4877_46352" cx="0" cy="0" r="1" gradientUnits="userSpaceOnUse" gradientTransform="translate(20.9728 5.2578) rotate(-168.943) scale(42.714 42.5469)">
<stop stop-color="#6850A1"/>
<stop offset="0.47" stop-color="#7B69AF"/>
<stop offset="1" stop-color="#AFAAD4"/>
</radialGradient>
<radialGradient id="paint3_radial_4877_46352" cx="0" cy="0" r="1" gradientUnits="userSpaceOnUse" gradientTransform="translate(35.0571 1) rotate(-168.833) scale(49.4878 49.2945)">
<stop stop-color="#6850A1"/>
<stop offset="1" stop-color="#AFAAD4"/>
</radialGradient>
<radialGradient id="paint4_radial_4877_46352" cx="0" cy="0" r="1" gradientUnits="userSpaceOnUse" gradientTransform="translate(48.0029 0.999999) rotate(-153.51) scale(21.9697 21.9139)">
<stop stop-color="#6850A1"/>
<stop offset="1" stop-color="#AFAAD4"/>
</radialGradient>
</defs>
</svg>
