<svg width="48" height="48" viewBox="0 0 48 48" fill="none" xmlns="http://www.w3.org/2000/svg">
<path fill-rule="evenodd" clip-rule="evenodd" d="M0 18.4583C7.6613 16.9777 16.1238 16.7209 25.8796 17.8488C34.0724 26.6202 37.9844 34.0091 40.7682 41.2894C30.5577 30.4045 17.7556 22.0312 0 18.4583Z" fill="#4DA2E7"/>
<path fill-rule="evenodd" clip-rule="evenodd" d="M9.71875 10.9096C17.5515 9.83024 22.7174 10.1297 30.6138 11.3078C35.2092 15.2666 42.53 23.1464 45.3138 30.4267C35.1033 19.5418 28.2775 14.055 9.71875 10.9096Z" fill="#82BEEE"/>
<path fill-rule="evenodd" clip-rule="evenodd" d="M14.6328 6C22.6127 6.1734 27.1889 6.7151 35.0854 7.8932C38.815 11.2993 42.6817 15.1215 47.3876 21.4673C35.1797 10.8801 33.1917 9.1453 14.6328 6Z" fill="#A6D0F3"/>
</svg>
