<svg width="48" height="48" viewBox="0 0 48 48" fill="none" xmlns="http://www.w3.org/2000/svg">
<path fill-rule="evenodd" clip-rule="evenodd" d="M4.3103 31.469L12 44.7879H17.7339L10.0742 31.5826L11.5354 29.0518L20.6206 44.7879H36L38.8706 39.8159L23.5832 39.8223L14.4502 24.0033L17.7754 18.2438H11.9459L4.3103 31.469ZM40.3103 37.3223L48 24.0033L45.1331 19.0377L37.5268 32.2738H34.6045L43.6897 16.5377L36 3.21875H30.2589L37.908 16.4549L28.7749 32.2738H22.1244L25.0392 37.3223H40.3103ZM25.8601 10.6845L24.399 8.15355L9.1331 8.18445L12 3.21875H27.3794L35.015 16.4439L32.1002 21.4925L28.7749 15.733H10.5088L2.8706 28.9753L0 24.0033L7.6897 10.6845H25.8601Z" fill="#B11116"/>
<path fill-rule="evenodd" clip-rule="evenodd" d="M24.0006 18.2578C27.2175 18.2578 29.8293 20.8696 29.8293 24.0865C29.8293 27.3034 27.2175 29.9152 24.0006 29.9152C20.7837 29.9152 18.1719 27.3034 18.1719 24.0865C18.1719 20.8696 20.7837 18.2578 24.0006 18.2578Z" fill="#00A1BF"/>
</svg>
