<svg width="48" height="48" viewBox="0 0 48 48" fill="none" xmlns="http://www.w3.org/2000/svg">
<path fill-rule="evenodd" clip-rule="evenodd" d="M16.437 8.37726L16.4368 8.37706C18.3011 5.64026 20.9577 2.88386 23.844 0.289062C25.515 2.29256 26.9759 4.80316 27.4994 7.70096C29.5678 6.51246 31.8978 5.52386 34.3542 4.69996C35.9713 4.15766 37.6397 3.68746 39.32 3.27736C39.1121 7.03456 38.3996 11.0246 36.7703 14.6069V14.607L36.7704 14.6069C40.6103 14.686 44.4792 15.8135 48 17.3475C45.1882 20.9615 42.0341 24.345 38.6891 26.752L38.689 26.7522L38.6892 26.7521C41.0904 28.7356 42.7487 31.5085 43.866 34.2908C40.0817 35.8799 36.2745 37.1372 32.8978 37.5759L32.8973 37.5761L32.8979 37.576C33.3329 39.9871 32.8979 42.5521 32.1644 44.8097C30.9606 44.7098 29.7715 44.5719 28.6277 44.3858C26.8766 44.1025 25.2259 43.7029 23.7809 43.1454L23.7795 43.145L23.7809 43.1455C22.963 44.9407 21.5448 46.4893 20.0993 47.7037C18.2027 46.5239 16.3945 45.1682 15.1109 43.6808L15.1105 43.6804L15.111 43.681C13.7876 44.63 12.1477 45.1869 10.6257 45.5025C9.6845 43.998 8.8458 42.3487 8.4359 40.7489C7.564 40.8611 6.6481 40.8121 5.7584 40.6657C5.2163 40.5778 4.6805 40.4545 4.1681 40.31C3.9591 38.7585 3.8854 37.0844 4.1528 35.5935V35.5929L4.1527 35.5934C2.877 35.1044 1.6494 34.197 0.5926 33.2288C0.9916 31.7617 1.5686 30.2206 2.4061 28.9901L2.4062 28.99C1.4262 27.8512 0.6306 26.308 0 24.7572C0.9779 23.5166 2.1835 22.2822 3.5183 21.5112L3.5076 21.4687C3.0575 19.6676 2.9467 17.4961 3.0065 15.351C3.5968 15.0634 4.2168 14.8046 4.8565 14.5886C5.9099 14.237 7.0016 14.0157 8.0606 14.0344H8.0608C8.5035 11.5852 9.5184 8.83426 10.733 6.14726C12.723 6.40706 14.8222 7.04136 16.4367 8.37706L16.437 8.37726Z" fill="#7DCDF1"/>
<path fill-rule="evenodd" clip-rule="evenodd" d="M19.7027 14.4628V14.4627C20.9041 13.031 22.3447 11.5694 24.0254 10.1351C25.0649 9.23662 26.2365 8.43353 27.4995 7.70312C27.7034 8.83483 27.7617 10.0101 27.6311 11.2126C27.4167 13.1988 26.9874 15.1149 26.3906 16.9C28.2327 16.1247 30.2896 15.47 32.5193 14.992C33.9093 14.6966 35.333 14.5778 36.7705 14.6091C36.1544 15.9602 35.4119 17.2395 34.5305 18.4117C33.1094 20.303 31.6056 21.9516 30.0931 23.3491C31.9013 23.6295 33.7645 24.1353 35.6064 24.889C36.737 25.3528 37.7626 25.9891 38.6894 26.7542C37.4512 27.6425 36.1886 28.3976 34.9011 28.9854C32.8428 29.9248 30.8812 30.6107 29.0604 31.0778V31.0779L29.0604 31.0778C30.1505 32.1626 31.1313 33.4279 31.9317 34.8481C32.4118 35.6951 32.7239 36.6188 32.8981 37.578C31.6411 37.7423 30.4356 37.7946 29.2997 37.7089C27.4613 37.5737 25.7945 37.2854 24.3116 36.881C24.5293 38.1638 24.5747 39.508 24.43 40.8559C24.344 41.6475 24.1133 42.4162 23.781 43.1477C22.8803 42.7993 22.0516 42.3927 21.323 41.9065C20.1211 41.1063 19.083 40.242 18.2114 39.3459L18.2046 39.3403L18.2113 39.3471C17.7891 40.3902 17.2297 41.3881 16.537 42.3048C16.1405 42.836 15.6531 43.2912 15.111 43.6829C14.6109 43.1065 14.1847 42.5025 13.857 41.8723C13.3038 40.8199 12.8927 39.7607 12.6073 38.7219V38.7218C11.8453 39.3493 11.0016 39.88 10.0954 40.2902C9.57435 40.5305 9.01505 40.6744 8.43615 40.751C8.27305 40.1136 8.17675 39.4797 8.16785 38.8576C8.15015 37.8015 8.24715 36.7775 8.44215 35.8087V35.8085L8.44205 35.8087C7.56195 35.9798 6.65075 36.0348 5.73545 35.967C5.20355 35.9281 4.67315 35.797 4.15295 35.5954C4.26395 34.992 4.42925 34.4121 4.66435 33.8818C5.07215 32.9685 5.57035 32.1257 6.14295 31.3702V31.3701C5.30485 31.0827 4.47875 30.6771 3.69025 30.1509C3.22745 29.8417 2.80065 29.4487 2.40625 28.9923C2.75085 28.4879 3.13685 28.035 3.57305 27.6597C4.32865 27.0114 5.14165 26.4786 5.98605 26.0636L5.98625 26.0634L5.98605 26.0635C5.34345 25.3152 4.75445 24.4487 4.24275 23.4658C3.93865 22.8834 3.69985 22.2245 3.51845 21.5119C4.07145 21.1959 4.64315 20.9573 5.22615 20.833C6.23745 20.6166 7.25125 20.5547 8.23645 20.6358C7.98235 19.4505 7.83645 18.1435 7.81485 16.7294C7.79835 15.8775 7.88955 14.9742 8.06085 14.0364C8.75615 14.0508 9.42995 14.1721 10.0596 14.4307C11.1381 14.8696 12.1251 15.4808 12.9998 16.224L13.0001 16.2242L12.9999 16.2239C13.3867 14.7287 13.9427 13.1295 14.692 11.4564C15.1514 10.4279 15.7424 9.40103 16.4368 8.37923C17.0882 8.91493 17.651 9.56052 18.0837 10.3272C18.8153 11.6211 19.3524 13.0243 19.7026 14.4627L19.7027 14.4628Z" fill="#00AAE7"/>
<path fill-rule="evenodd" clip-rule="evenodd" d="M15.9901 20.2381C15.9672 20.29 16.0131 20.2907 15.9901 20.2381L15.9909 20.2363L15.9901 20.2346C16.7967 18.4055 18.0377 16.4409 19.701 14.4609C20.2031 16.5515 20.2992 18.6839 20.0194 20.6635C19.9821 20.6946 19.9797 20.732 20.0033 20.7754C20.0088 20.7382 20.0142 20.7009 20.0195 20.6635C21.707 19.2595 23.8582 17.9608 26.3889 16.8981C25.5486 19.4087 24.3943 21.6288 23.0652 23.424L23.0649 23.4241H23.0652C23.4702 23.3436 23.8836 23.2781 24.3097 23.225C26.0989 23.0043 28.0543 23.0311 30.0914 23.3481C28.0078 25.2685 25.8964 26.7149 23.9165 27.6617C25.7187 28.3676 27.4922 29.5213 29.0589 31.076C27.035 31.594 25.1618 31.8392 23.5004 31.8448C23.1031 31.8456 22.7171 31.8324 22.3447 31.8069L22.3446 31.8068L22.3447 31.8069C23.3044 33.2364 23.9889 34.9766 24.3097 36.8788C22.237 36.3098 20.4895 35.5005 19.1252 34.5307V34.5297L19.1251 34.5305C19.1578 36.1079 18.8478 37.7635 18.2096 39.344C16.9575 38.0602 16.0202 36.686 15.4219 35.3112C15.3979 35.2558 15.4396 35.278 15.4219 35.3112C14.736 36.593 13.7725 37.7619 12.6056 38.72C12.1887 37.1873 12.0459 35.6746 12.1702 34.2702L12.1703 34.2701H12.1702V34.2702C11.0645 35.022 9.78807 35.5471 8.44027 35.8069C8.73548 34.3496 9.25857 33.0005 9.97318 31.8499C10.0166 31.846 10.0043 31.7997 9.97327 31.8499C9.71937 31.8727 9.46657 31.8849 9.21007 31.8849C8.19147 31.8874 7.15488 31.7171 6.14118 31.3684C7.01017 30.2147 8.04418 29.2603 9.17138 28.5723C8.02428 28.0185 6.94017 27.1678 5.98438 26.0617C7.01867 25.5526 8.09697 25.2259 9.16097 25.0945C9.42587 25.0604 9.69247 25.0416 9.95867 25.034C9.98807 25.0798 10.0149 25.0323 9.95858 25.034C9.19198 23.8428 8.60047 22.3534 8.23697 20.6342C9.73277 20.7601 11.142 21.2192 12.3408 21.9649V21.965C12.3436 22.0162 12.3852 21.9926 12.3408 21.965V21.9649C12.2438 20.2797 12.4548 18.3332 12.9981 16.2222C14.3033 17.3333 15.3264 18.7198 15.9901 20.2346L15.9893 20.2364L15.9901 20.2381Z" fill="#006FBA"/>
<path fill-rule="evenodd" clip-rule="evenodd" d="M20.0229 20.6447C20.0219 20.6523 20.0209 20.66 20.0198 20.6676C18.6648 21.796 17.5908 23.0084 16.8416 24.2452C16.8501 22.9034 16.5578 21.5376 15.9905 20.2422C15.3307 21.7413 14.9475 23.1758 14.8594 24.4879C14.2543 23.475 13.3866 22.619 12.3412 21.9691C12.4198 23.3815 12.7167 24.6379 13.2225 25.6786C12.2401 25.2106 11.1259 25.0021 9.95898 25.0381C9.94578 25.0176 9.91967 25.0203 9.88377 25.0406C9.90887 25.0397 9.93397 25.0388 9.95907 25.0381C10.6134 26.0588 11.4078 26.878 12.311 27.4386C11.2411 27.5652 10.1714 27.965 9.17188 28.5764C10.1714 29.0618 11.2297 29.3199 12.2856 29.3148C11.3849 29.9645 10.6024 30.8366 9.97368 31.854C11.085 31.7537 12.1585 31.4293 13.1195 30.8831C12.5968 31.8997 12.2812 33.0534 12.1707 34.2742C13.159 33.6051 14.001 32.7648 14.6326 31.7908C14.6411 32.9517 14.914 34.1433 15.4223 35.3153C16.0282 34.1813 16.4022 32.977 16.5039 31.7844C17.109 32.8016 17.999 33.7328 19.1255 34.5346L19.1256 34.5345C19.0982 33.1676 18.8139 31.8835 18.2735 30.782C19.3974 31.3529 20.773 31.7024 22.345 31.8109C21.5345 30.6056 20.5414 29.6394 19.4316 28.9873C20.8099 28.8701 22.3302 28.4252 23.9168 27.6658C22.4424 27.0888 20.9596 26.8224 19.5663 26.8767C20.8006 26.0485 21.9898 24.8808 23.0656 23.4282L23.0655 23.4281C21.3669 23.7641 19.8525 24.3354 18.5949 25.1121C19.3037 23.8211 19.7885 22.3084 20.0199 20.6676C20.0259 20.6626 20.0266 20.6549 20.0229 20.6447Z" fill="white"/>
</svg>
