<svg width="48" height="48" viewBox="0 0 48 48" fill="none" xmlns="http://www.w3.org/2000/svg">
<path d="M14.1875 16.4197V30.4336C23.1665 30.2638 32.1455 26.8291 41.1251 16.1083L41.0867 0.0703125C32.9525 9.84941 24.14 16.0984 14.1875 16.4197Z" fill="#1F1F48"/>
<path d="M33.2885 41.9746C33.2885 45.2953 30.5801 48.0037 27.2591 48.0037C23.9384 48.0037 21.23 45.2953 21.23 41.9746C21.23 38.6536 23.9384 35.9452 27.2591 35.9452C30.5801 35.9452 33.2885 38.6536 33.2885 41.9746Z" fill="#1F1F48"/>
<path fill-rule="evenodd" clip-rule="evenodd" d="M33.0235 17.6328V31.6467C23.0713 31.968 14.2585 38.217 6.12434 47.9961L6.08594 31.9581C15.0655 21.2373 24.0445 17.8026 33.0235 17.6328Z" fill="#AFB2AE"/>
</svg>
