<svg width="48" height="48" viewBox="0 0 48 48" fill="none" xmlns="http://www.w3.org/2000/svg">
<path fill-rule="evenodd" clip-rule="evenodd" d="M7.64991 34.9634C4.52029 31.3519 2.59442 26.6938 2.50337 21.5923C2.29492 9.91778 11.7753 0.214107 23.6205 0.00335437L24.0752 0L24.3795 0.00335437C36.2242 0.214107 45.7051 9.91778 45.4966 21.5923C45.4056 26.6938 43.4797 31.3519 40.3501 34.9629C40.8858 35.2898 41.3497 35.7992 41.7048 36.5041C42.1082 37.2988 42.0862 38.2422 41.654 39.0059C40.9309 40.3043 40.1172 42.009 39.4137 43.4427C38.9312 44.4252 38.4927 45.2907 38.0571 45.8823C37.5717 46.5409 37.0312 46.9442 36.5007 47.1335C35.1753 47.6974 33.8546 47.9822 32.5392 47.9999C32.4525 48.0008 32.3662 47.9956 32.2809 47.9832C30.3397 47.7084 29.2323 46.8635 28.757 45.7065C27.2049 45.0943 25.6245 44.7622 24.0043 44.7607C24.0043 44.7607 23.9564 44.7607 23.9578 44.7607C22.3477 44.7679 20.7813 45.0995 19.2431 45.706C18.7677 46.8635 17.6603 47.7084 15.7191 47.9832C15.6333 47.9956 15.547 48.0008 15.4608 47.9999C14.1454 47.9822 12.8247 47.6974 11.4993 47.1335C10.9688 46.9442 10.4278 46.5409 9.94286 45.8823C9.5068 45.2907 9.06834 44.4252 8.58627 43.4427C7.88281 42.009 7.06913 40.3043 6.35178 39.0164C5.91284 38.2408 5.89225 37.2974 6.29238 36.5094C6.6489 35.8016 7.11369 35.2907 7.64991 34.9634ZM8.89056 35.2597C5.45858 31.6764 3.31656 26.8754 3.22216 21.5794C3.02042 10.2972 12.1865 0.923304 23.6334 0.720199L24.0805 0.716844L24.3666 0.720199C35.8135 0.923304 44.9796 10.2972 44.7778 21.5794C44.6834 26.8754 42.541 31.6764 39.109 35.2601C39.914 35.3834 40.5978 35.9039 41.0636 36.8281C41.3583 37.4083 41.343 38.0969 41.0253 38.658C40.2969 39.966 39.4765 41.6831 38.7678 43.1277C38.3078 44.0649 37.8937 44.8931 37.4778 45.458C37.0887 45.986 36.6646 46.3191 36.2391 46.4654C34.9975 46.9963 33.7612 47.2668 32.5297 47.283C32.4803 47.2835 32.4309 47.2807 32.382 47.2735C30.622 47.0245 29.6497 46.2651 29.3267 45.1636C27.5906 44.4381 25.8214 44.0453 24.0024 44.0439H23.9545C22.1489 44.052 20.3946 44.4443 18.6728 45.1636C18.3498 46.2651 17.378 47.0245 15.618 47.2735C15.5691 47.2807 15.5197 47.2835 15.4703 47.283C14.2383 47.2668 13.002 46.9963 11.7604 46.4654C11.3354 46.3191 10.9113 45.986 10.5222 45.458C10.1063 44.8931 9.69224 44.0649 9.23174 43.1273C8.52301 41.6831 7.70264 39.966 6.97762 38.6637C6.65704 38.0974 6.64171 37.4088 6.93498 36.8315C7.40171 35.9043 8.086 35.3834 8.89056 35.2597Z" fill="#E95B00"/>
<path fill-rule="evenodd" clip-rule="evenodd" d="M23.9529 43.0873C21.8554 43.0969 19.8227 43.5872 17.8298 44.4876C17.7416 45.504 16.9605 46.1177 15.4855 46.327C14.3623 46.3117 13.2353 46.0598 12.1029 45.5705C11.3942 45.3568 10.8129 44.1693 10.0951 42.7069C9.37919 41.2479 8.55017 39.5141 7.81461 38.1932C7.65168 37.905 7.64353 37.5547 7.79352 37.2598C8.23198 36.3891 8.95126 36.0417 9.78985 36.2534C10.0069 36.3079 10.1905 36.4527 10.2935 36.651C10.4166 36.8885 10.5752 37.1944 10.5752 37.1944C11.4723 37.4883 12.3871 37.7253 13.3402 37.8405L13.4581 37.7425C13.4322 37.7277 13.4078 37.71 13.3833 37.6952C7.95934 34.2878 4.30405 28.3523 4.18281 21.5619C3.99017 10.803 12.7369 1.86924 23.6524 1.67521L24.0895 1.67188C24.1767 1.67235 24.2644 1.67378 24.3516 1.67521C35.2676 1.86924 44.0143 10.803 43.8217 21.5619C43.7004 28.3523 40.0452 34.2878 34.6212 37.6952C34.5967 37.71 34.5723 37.7277 34.5464 37.7425L34.6643 37.8405C35.6174 37.7253 36.5322 37.4883 37.4293 37.1944C37.4293 37.1944 37.5879 36.8885 37.711 36.651C37.8141 36.4527 37.9976 36.3079 38.2146 36.2534C39.0532 36.0417 39.7725 36.3891 40.211 37.2598C40.361 37.5547 40.3528 37.905 40.1899 38.1932C39.4543 39.5141 38.6253 41.2479 37.9094 42.7069C37.1916 44.1693 36.6103 45.3568 35.9016 45.5705C34.7693 46.0598 33.6422 46.3117 32.519 46.327C31.044 46.1177 30.2629 45.504 30.1747 44.4876C28.1659 43.58 26.1169 43.0892 24.0022 43.0873H23.9529ZM10.8642 37.9647C10.8642 37.9647 11.3894 39.4089 11.6716 40.1239C12.0373 41.0481 13.056 43.5107 13.056 43.5107C13.2947 44.0938 13.7796 44.5344 12.5304 45.1896C12.5457 45.2335 12.5605 45.2765 12.5768 45.3344C13.3426 45.5843 14.0346 45.8204 14.7524 45.8075C14.8386 45.7621 14.9263 45.731 14.9996 45.7005L11.5772 38.6629C11.2174 37.9227 11.1206 37.8835 10.8642 37.9647ZM37.1403 37.9647C37.1403 37.9647 36.6151 39.4089 36.3328 40.1239C35.9672 41.0481 34.9485 43.5107 34.9485 43.5107C34.7098 44.0938 34.2249 44.5344 35.4741 45.1896C35.4588 45.2335 35.444 45.2765 35.4277 45.3344C34.6619 45.5843 33.9699 45.8204 33.2521 45.8075C33.1659 45.7621 33.0782 45.731 33.0048 45.7005L36.4273 38.6629C36.7871 37.9227 36.8839 37.8835 37.1403 37.9647ZM32.4912 37.1729C30.0866 35.8716 27.0533 35.3583 24.0022 35.4438L23.8987 35.4414C19.5275 35.3377 15.2067 36.4685 12.7345 39.3913C12.6875 39.7745 14.9345 44.0393 15.405 44.6572C15.6135 44.8584 15.6873 44.8861 15.8641 44.9119C17.9366 43.159 20.9632 42.4168 24.0022 42.4589L24.0736 42.4579C27.0887 42.4288 30.0837 43.1724 32.1404 44.9119C32.3172 44.8861 32.391 44.8584 32.5994 44.6572C33.07 44.0393 35.3169 39.7745 35.27 39.3913C34.5186 38.5024 33.5962 37.7798 32.5535 37.2068C32.5367 37.2312 32.5022 37.2689 32.4495 37.3191C32.3119 37.4486 32.16 37.569 31.9938 37.678C31.826 37.7889 31.6554 37.8768 31.481 37.9447L31.0474 38.1229C30.9012 38.1669 30.7522 38.2118 30.6026 38.2563C30.4536 38.3026 30.3041 38.3408 30.1541 38.3724C30.1431 38.3753 30.133 38.3781 30.1235 38.3805L29.962 38.6209C29.8911 38.7337 29.8221 38.8465 29.7545 38.9607L29.6443 39.1614C29.5642 39.3005 29.4929 39.4438 29.4315 39.5939C29.3697 39.7435 29.3127 39.8926 29.259 40.0417L29.258 40.0436C29.19 40.2314 29.1637 40.3796 29.178 40.489C29.1929 40.5989 29.2547 40.6735 29.3644 40.7131C29.4037 40.7275 29.4411 40.7284 29.4756 40.7165C29.5096 40.7045 29.5417 40.6859 29.571 40.661C29.6007 40.6362 29.628 40.608 29.6524 40.576C29.6773 40.5435 29.6984 40.5138 29.7157 40.4866C29.7473 40.4417 29.7712 40.424 29.788 40.434C29.8053 40.4436 29.8067 40.4684 29.7923 40.5081C29.7535 40.5951 29.7018 40.694 29.6371 40.8054C29.5724 40.9167 29.5 41.0185 29.4195 41.1112C29.3395 41.2034 29.2552 41.2751 29.1675 41.3258C29.0798 41.3764 28.993 41.3865 28.9068 41.3554C28.8143 41.322 28.7506 41.2699 28.7161 41.1996C28.6816 41.1294 28.6638 41.051 28.6629 40.965C28.6624 40.879 28.6744 40.7924 28.6979 40.7059C28.7218 40.619 28.7453 40.5444 28.7678 40.4813L28.7688 40.4809C28.8076 40.3824 28.8522 40.2811 28.9015 40.1741C28.9514 40.0665 28.9998 39.9619 29.0448 39.8577C29.0678 39.8142 29.0783 39.7841 29.0764 39.7683C29.074 39.7526 29.0434 39.7669 28.9835 39.8085C28.8201 39.9289 28.6586 40.0316 28.4999 40.1196C28.3418 40.2061 28.1717 40.2744 27.993 40.3255C27.728 40.4025 27.4568 40.4407 27.1779 40.4393C26.8995 40.4383 26.6196 40.4073 26.3373 40.3471C26.1188 40.3012 25.8975 40.2419 25.6756 40.1674C25.4528 40.0933 25.2247 40.0006 24.9913 39.8911C24.8883 39.8429 24.7987 39.7908 24.7201 39.7373C24.6429 39.6828 24.5801 39.6202 24.5341 39.5471C24.4877 39.4739 24.457 39.3884 24.4441 39.2904C24.4311 39.1925 24.4412 39.0768 24.4742 38.943C24.4968 38.8579 24.5289 38.771 24.5691 38.6821C24.6075 38.5941 24.6515 38.51 24.6999 38.4302C24.7431 38.359 24.7781 38.3289 24.803 38.3375C24.8269 38.3466 24.8279 38.3944 24.8049 38.4785C24.7848 38.5573 24.779 38.63 24.7876 38.6969C24.7967 38.7638 24.825 38.8259 24.872 38.8847C24.9899 39.0242 25.1312 39.1327 25.2961 39.2101C25.4614 39.288 25.6277 39.3592 25.7954 39.4233C26.4025 39.6608 27.0739 39.7898 27.8075 39.8109C27.9561 39.8156 28.1022 39.8085 28.245 39.7893C28.3893 39.7697 28.5287 39.7325 28.6658 39.677C28.8752 39.5948 29.0506 39.4816 29.1905 39.3368C29.3309 39.1905 29.3663 39.1624 29.4823 38.9688C29.5067 38.9225 29.5341 38.8828 29.5647 38.8498L29.8623 38.5454C29.9131 38.4942 29.9663 38.4441 30.0214 38.3948C30.0118 38.3877 30.0319 38.359 30.0818 38.3079C30.1465 38.2524 30.2112 38.1956 30.2754 38.1368C30.3401 38.078 30.4124 38.0302 30.4915 37.9953C30.5586 37.9676 30.6468 37.9323 30.7579 37.8897C30.8552 37.8524 31.3382 37.6814 31.482 37.624C31.77 37.5079 32.0546 37.3803 32.3378 37.2398L32.4912 37.1729ZM35.651 44.8163C35.4833 44.737 35.235 44.6018 35.2408 44.3098C35.6093 44.1999 36.0774 44.1788 36.2581 44.7652C36.0779 44.8976 35.7837 44.8789 35.651 44.8163ZM12.3535 44.8163C12.5212 44.737 12.7695 44.6018 12.7633 44.3098C12.3952 44.1999 11.9271 44.1788 11.7464 44.7652C11.9266 44.8976 12.2208 44.8789 12.3535 44.8163ZM9.66958 36.7007C8.82189 36.4336 8.18408 37.0978 8.3542 37.7731L11.537 44.3241C11.8542 43.9351 12.1676 43.8954 12.4781 43.8768L9.66958 36.7007ZM38.3349 36.7007C39.1826 36.4336 39.8204 37.0978 39.6503 37.7731L36.4675 44.3241C36.1503 43.9351 35.8369 43.8954 35.5264 43.8768L38.3349 36.7007ZM29.6217 42.6085C29.64 42.5588 29.7185 42.4713 29.8575 42.3456C29.9965 42.2199 30.0794 42.1621 30.1057 42.1717C30.192 42.2027 30.2605 42.273 30.3108 42.3824C30.3607 42.4923 30.3717 42.5865 30.3429 42.6658C30.3166 42.7384 30.2461 42.8168 30.1316 42.9009C30.0166 42.9846 29.938 43.019 29.8949 43.0037C29.8748 42.9965 29.8216 42.932 29.7339 42.8111C29.7037 42.7705 29.6735 42.7298 29.6433 42.6887C29.6208 42.6586 29.6136 42.6314 29.6217 42.6085ZM17.4531 42.6902C17.4507 42.6725 17.4843 42.576 17.5542 42.3991C17.6242 42.2228 17.6697 42.1329 17.6908 42.1296C17.7497 42.12 17.825 42.1454 17.917 42.2056C18.009 42.2696 18.0603 42.3341 18.0708 42.4001C18.0833 42.4766 18.0583 42.5803 17.997 42.7107C17.9352 42.8378 17.8868 42.9043 17.8523 42.91C17.8346 42.9124 17.8063 42.9019 17.767 42.878C17.7272 42.8541 17.6879 42.8288 17.6481 42.8034C17.6021 42.7858 17.5595 42.7686 17.5192 42.7518C17.479 42.7346 17.4569 42.7141 17.4531 42.6902ZM16.9687 42.0995C16.9643 42.0718 17.0003 41.9628 17.0774 41.7726C17.1541 41.5829 17.203 41.4859 17.2236 41.4825C17.2691 41.4758 17.34 41.4964 17.4373 41.5451C17.5307 41.5944 17.5974 41.6445 17.6376 41.6952C17.674 41.6111 17.7124 41.5265 17.7526 41.4419C17.8087 41.3224 17.8437 41.2622 17.8575 41.2598C17.9203 41.2498 18.0028 41.2761 18.1053 41.3382C18.2093 41.407 18.2668 41.4778 18.2783 41.5509C18.2917 41.634 18.261 41.7439 18.1863 41.8801C18.1134 42.0058 18.0579 42.0713 18.0195 42.0775C17.9917 42.0818 17.9438 42.0627 17.8767 42.0202C17.7809 41.9571 17.7023 41.9122 17.6414 41.8864C17.5446 42.1545 17.4564 42.2945 17.3764 42.3074C17.3625 42.3093 17.2916 42.2778 17.1632 42.2128C17.0353 42.1478 16.9701 42.11 16.9687 42.0995ZM31.3996 38.9148C31.4039 38.911 31.4082 38.9067 31.4125 38.9029C31.4297 38.8866 31.4437 38.8766 31.4542 38.8727C31.4647 38.8694 31.4695 38.8746 31.4681 38.889C31.4667 38.9038 31.4523 38.932 31.4259 38.9745C31.2639 39.2455 31.1125 39.5241 30.9712 39.8113C30.5916 40.5822 30.8677 40.0168 30.6721 40.4995V40.5C30.6036 40.6883 30.5772 40.8374 30.5916 40.9473C30.6065 41.0567 30.6683 41.1318 30.778 41.171C30.8173 41.1853 30.8547 41.1862 30.8888 41.1743C30.9233 41.1623 30.9553 41.1442 30.9846 41.1193C31.0143 41.0945 31.0416 41.0658 31.0665 41.0338C31.091 41.0013 31.112 40.9717 31.1293 40.9444C31.1604 40.8995 31.1849 40.8818 31.2016 40.8919C31.2189 40.9019 31.2203 40.9263 31.206 40.9664C31.1672 41.0529 31.1154 41.1523 31.0507 41.2632C30.986 41.3745 30.9137 41.4768 30.8332 41.569C30.7526 41.6613 30.6688 41.733 30.5811 41.7841C30.4934 41.8343 30.4067 41.8443 30.3204 41.8132C30.2274 41.7798 30.1642 41.7282 30.1297 41.6579C30.0952 41.5872 30.0775 41.5093 30.077 41.4228C30.076 41.3368 30.0875 41.2503 30.1115 41.1638C30.1355 41.0773 30.1585 41.0023 30.1815 40.9396L30.1896 40.932C30.2471 40.7748 30.3372 40.576 30.4589 40.3361C30.734 39.7937 30.3252 40.5755 30.8633 39.5514C30.9098 39.4634 30.9664 39.3793 31.0334 39.2986C31.0723 39.2532 31.1197 39.1996 31.1748 39.1394L31.3996 38.9148ZM19.9114 39.3655C20.2085 39.3258 20.4965 39.2751 20.7758 39.213C21.0552 39.1514 21.3303 39.0634 21.601 38.9492C21.8416 38.8469 22.0735 38.7275 22.2963 38.5913C22.5187 38.4546 22.7324 38.3098 22.9361 38.1564C23.2231 37.9404 23.4914 37.7138 23.7411 37.4768C23.9903 37.2398 24.2462 37.0013 24.5073 36.7609C24.585 36.6878 24.6631 36.6185 24.7421 36.553C24.8207 36.4871 24.9055 36.4254 24.9966 36.3686C25.0809 36.316 25.1408 36.3002 25.1763 36.3213C25.2117 36.3423 25.2132 36.3949 25.1801 36.4785C25.1581 36.542 25.1346 36.608 25.1096 36.6763C25.0847 36.7442 25.0555 36.8073 25.022 36.8661C25.0057 36.8971 24.9875 36.9225 24.9673 36.9416C24.9472 36.9607 24.9209 36.9798 24.8883 36.9994C24.8418 37.0242 24.7771 37.0759 24.6928 37.1528C24.6089 37.2302 24.502 37.3311 24.3717 37.4543C24.2198 37.5996 24.0684 37.7473 23.9174 37.8974C23.7665 38.0474 23.6127 38.1956 23.4555 38.3413C23.2983 38.4871 23.1388 38.629 22.9773 38.7662C22.8153 38.9043 22.6476 39.0328 22.4736 39.1528C21.7448 39.6632 20.9311 39.9891 20.0331 40.131L19.4413 40.2113C19.2764 40.2319 19.137 40.239 19.0215 40.2324C18.895 40.2238 18.7699 40.2099 18.6453 40.1903C18.5212 40.1707 18.4 40.1401 18.2831 40.0981C18.2375 40.0804 18.2011 40.0665 18.1748 40.0565C18.1479 40.0465 18.124 40.0412 18.1024 40.0412C18.0813 40.0412 18.0612 40.0498 18.0425 40.0665C18.0238 40.0837 17.9999 40.1129 17.9706 40.1525C17.9443 40.1889 17.917 40.2304 17.8887 40.2778C17.8604 40.3251 17.8269 40.3819 17.7876 40.4484C17.7128 40.5635 17.6189 40.6505 17.5049 40.7093C17.3913 40.7681 17.2648 40.7872 17.1258 40.7666C17.0492 40.7537 16.9792 40.7399 16.9159 40.7251C16.8531 40.7103 16.7818 40.7127 16.7032 40.7322C16.6308 40.7504 16.5618 40.7757 16.4957 40.8073C16.4291 40.8393 16.3653 40.8852 16.303 40.9449C16.2096 41.0304 16.1483 41.0696 16.1185 41.062C16.0888 41.0543 16.1042 40.9941 16.1645 40.8813C16.2331 40.7494 16.3131 40.6214 16.4056 40.4962C16.4985 40.3714 16.603 40.2586 16.719 40.1588C16.7784 40.1062 16.8431 40.0579 16.9126 40.013C16.9821 39.9686 17.0573 39.9432 17.1388 39.9375C17.2058 39.9341 17.2729 39.9408 17.34 39.959C17.4071 39.9767 17.4752 39.9891 17.5442 39.9958C17.6204 40.0054 17.6879 39.9968 17.7459 39.9695C17.8039 39.9428 17.8556 39.9026 17.9007 39.8491C17.9529 39.7946 17.9989 39.7373 18.0396 39.6775C18.0799 39.6178 18.1201 39.5581 18.1609 39.4983C18.2193 39.418 18.2749 39.364 18.3276 39.3358C18.3804 39.3081 18.4599 39.3052 18.5672 39.3272C18.8097 39.3707 19.0359 39.3965 19.2458 39.4042C19.4556 39.4118 19.678 39.3989 19.9114 39.3655ZM30.1815 38.889C30.1982 38.8426 30.2763 38.7566 30.4153 38.6309C30.5543 38.5057 30.6371 38.4474 30.664 38.457C30.7502 38.488 30.8183 38.5583 30.8686 38.6682C30.9189 38.7776 30.9295 38.8718 30.9007 38.9511C30.8744 39.0242 30.8044 39.1017 30.6904 39.1838C30.5763 39.266 30.4977 39.2995 30.4546 39.2837C30.4345 39.277 30.3808 39.2125 30.2936 39.0916C30.262 39.0543 30.2313 39.0152 30.2011 38.9741C30.1795 38.9406 30.1733 38.9119 30.1815 38.889ZM32.5429 36.5808C32.9488 36.7533 34.0418 37.4066 33.9364 37.3745C33.992 37.3397 34.141 37.2446 34.198 37.2092C39.4893 33.9203 43.0622 28.1535 43.1796 21.5504C43.3665 11.14 34.9029 2.49625 24.3401 2.30843L24.0022 2.30556C23.8896 2.30556 23.777 2.30652 23.6644 2.30843C13.1015 2.49625 4.63804 11.14 4.82444 21.5504C4.94233 28.1535 8.5152 33.9203 13.8065 37.2092C13.8635 37.2446 13.9866 37.3234 14.0427 37.3583C14.0312 37.3225 15.0988 36.7079 15.302 36.6577C15.1511 36.6262 15.0025 36.5831 14.8578 36.5282C14.347 36.3346 13.8984 35.9996 13.5266 35.6035C13.4446 35.516 13.3656 35.4252 13.2908 35.3311C13.2146 35.2355 13.1423 35.137 13.0757 35.0348L12.999 34.9095C12.8255 34.8555 12.6573 34.7877 12.4958 34.7036C12.0598 34.4766 11.6879 34.1397 11.3851 33.7554C11.3352 33.6919 11.2868 33.6269 11.2404 33.5604C11.1632 33.4505 11.0909 33.3368 11.0238 33.2202C10.9706 33.1275 10.9208 33.0329 10.8762 32.9354L10.7981 32.7562C10.8307 32.7495 10.8623 32.7432 10.8949 32.7366C10.626 32.6123 10.373 32.4555 10.1488 32.2625C9.77596 31.9418 9.4918 31.5289 9.28527 31.0854C9.25124 31.0123 9.21911 30.9378 9.18892 30.8627C9.13909 30.738 9.095 30.6109 9.05667 30.4818C9.026 30.3796 8.99916 30.2759 8.97808 30.1712L8.9436 29.9786L9.17024 29.9863C8.8118 29.7578 8.48741 29.473 8.23823 29.128C7.95071 28.7299 7.77003 28.2625 7.67276 27.7832C7.65694 27.7043 7.64306 27.6245 7.63108 27.5447C7.61191 27.4114 7.5985 27.2776 7.59083 27.1433C7.58508 27.0367 7.58316 26.9296 7.58747 26.8226L7.5985 26.6276C7.65744 26.6439 7.71685 26.6596 7.7758 26.6759C7.87307 26.7031 7.9689 26.7366 8.0633 26.7729C8.14668 26.8049 8.22959 26.8398 8.31106 26.8771C8.27943 26.8565 8.24828 26.8355 8.21761 26.814C8.151 26.7681 8.08582 26.7203 8.02209 26.6706C7.63586 26.3695 7.29709 26.0001 7.06803 25.5653C6.83946 25.1308 6.72636 24.6429 6.69761 24.1545C6.69282 24.0742 6.69043 23.9935 6.68995 23.9127C6.68947 23.7779 6.69521 23.6436 6.70671 23.5098C6.71629 23.4032 6.72925 23.2972 6.74841 23.1915L6.78722 22.9999C6.84329 23.0243 6.89983 23.0482 6.9559 23.0725C7.04838 23.1132 7.13847 23.16 7.22664 23.2092C7.33686 23.2704 7.53379 23.3932 7.52661 23.386C7.46814 23.3301 7.41114 23.2723 7.35603 23.213C7.02251 22.8551 6.74698 22.4365 6.5898 21.971C6.43311 21.506 6.39954 21.0061 6.44842 20.5201C6.45657 20.4398 6.46711 20.3595 6.47957 20.2797C6.50065 20.1469 6.52749 20.015 6.56056 19.8845C6.58643 19.7808 6.61616 19.6781 6.6521 19.5772L6.7206 19.3942C6.77235 19.4267 6.82412 19.4596 6.87587 19.4921C6.96069 19.5471 7.04214 19.6073 7.1212 19.6699C7.2295 19.755 7.3335 19.8458 7.43366 19.9404C7.47439 19.9801 7.51511 20.0197 7.55489 20.0608L7.56015 20.0484C7.48348 19.949 7.41065 19.8463 7.34261 19.7406C7.299 19.6728 7.25682 19.6035 7.21705 19.5332C6.97553 19.1079 6.80399 18.6372 6.75894 18.1483C6.71438 17.6594 6.7973 17.1657 6.95783 16.7041C6.98418 16.6276 7.01291 16.5521 7.04358 16.4771C7.09437 16.3528 7.1514 16.2305 7.21322 16.1115C7.26305 16.0164 7.31577 15.9232 7.37376 15.8334L7.48253 15.6709C7.52566 15.7149 7.56831 15.7583 7.61096 15.8023C7.68092 15.8749 7.7461 15.9524 7.80887 16.0317C7.81702 16.0417 7.82515 16.0523 7.8333 16.0628C7.71781 15.6785 7.66032 15.2766 7.68811 14.8761C7.72213 14.3863 7.88266 13.9122 8.11507 13.4816C8.1534 13.4104 8.19365 13.3402 8.2363 13.2714C8.30626 13.1567 8.38197 13.0453 8.46247 12.9373C8.5262 12.8518 8.59331 12.7677 8.66519 12.6883L8.79888 12.5454C8.83386 12.5951 8.86931 12.6453 8.90429 12.6955C8.96179 12.7787 9.01402 12.8652 9.0629 12.9531L9.06483 12.9564C9.04614 12.5837 9.08063 12.208 9.18749 11.8496C9.32742 11.3794 9.58812 10.9512 9.90918 10.5813C9.96189 10.5206 10.017 10.4609 10.0731 10.4026C10.167 10.306 10.2647 10.2138 10.3668 10.1259C10.4482 10.0561 10.5321 9.9887 10.6193 9.92705L10.7808 9.81618L10.8743 10.0451C10.9231 9.75549 11.007 9.47257 11.133 9.20686C11.3434 8.7629 11.6668 8.3801 12.0401 8.06325C12.1019 8.01116 12.1652 7.96051 12.2299 7.91177C12.3372 7.83053 12.4484 7.75406 12.5625 7.68285C12.6535 7.62598 12.7465 7.57246 12.8423 7.52467L13.0191 7.44008C13.0335 7.49934 13.0484 7.55859 13.0627 7.61785C13.0857 7.7163 13.1025 7.81619 13.1164 7.91559C13.1346 8.05179 13.1471 8.18942 13.1528 8.32657C13.1552 8.38344 13.1567 8.44031 13.1567 8.49718L13.1835 8.4862C13.2602 8.29456 13.3598 8.11248 13.4863 7.94856C13.5228 7.90077 13.562 7.85442 13.6028 7.81045C13.8381 7.55669 14.1357 7.366 14.4529 7.23028C14.6086 7.16385 14.7701 7.1089 14.9349 7.07163L15.1367 7.03052C15.1357 7.09455 15.1343 7.1586 15.1329 7.22263C15.1305 7.29527 15.1237 7.36792 15.1146 7.44008C15.1036 7.53041 15.0878 7.62025 15.0686 7.70914C14.9853 8.08667 14.8295 8.45465 14.5799 8.75334C14.4145 8.95119 14.2114 9.11416 13.989 9.24462L13.9857 9.25608C14.0384 9.25083 14.0906 9.24653 14.1433 9.24271C14.2243 9.23745 14.3058 9.23458 14.3872 9.23362C14.4208 9.23315 14.4208 9.23314 14.4538 9.23314C14.5717 9.2341 14.6891 9.23841 14.8065 9.25083L15.0011 9.27424C14.98 9.33589 14.9594 9.39754 14.9373 9.45918C14.9009 9.55954 14.8583 9.65799 14.8128 9.75453C14.7581 9.8697 14.6982 9.98297 14.634 10.0929C14.5938 10.1622 14.5516 10.2305 14.507 10.2974C14.2334 10.7118 13.8855 11.084 13.4614 11.3488C13.3057 11.4458 13.1409 11.5275 12.9703 11.5954C12.9545 11.6647 12.9362 11.7335 12.9166 11.8018C12.8783 11.9337 12.8337 12.0642 12.7834 12.1923C12.7541 12.2668 12.7225 12.3409 12.6895 12.4135C12.4743 12.8828 12.1724 13.3192 11.7718 13.6499C11.6309 13.7665 11.479 13.8692 11.3204 13.9586C11.3194 13.9791 11.318 13.9992 11.317 14.0193C11.3084 14.1564 11.2936 14.2936 11.2725 14.4293C11.26 14.5086 11.2456 14.5875 11.2289 14.6654C11.1215 15.1705 10.9222 15.6618 10.6035 16.0718C10.477 16.2343 10.3337 16.3829 10.178 16.5172C10.189 16.5865 10.1976 16.6558 10.2043 16.7256C10.2182 16.8623 10.2254 16.9999 10.2259 17.1376C10.2264 17.2174 10.225 17.2976 10.2211 17.3774C10.1957 17.8931 10.0774 18.4097 9.82866 18.8647C9.72324 19.0582 9.59577 19.2384 9.45201 19.4056L9.50185 19.5117C9.54401 19.6035 9.57996 19.6981 9.61255 19.7937C9.65759 19.9237 9.6964 20.0556 9.72898 20.1894C9.74815 20.2673 9.76493 20.3457 9.77979 20.424C9.87467 20.9316 9.87898 21.4616 9.74241 21.9619C9.68299 22.1798 9.59768 22.3901 9.49322 22.5899L9.55218 22.6768C9.60825 22.761 9.65854 22.8484 9.70646 22.9373C9.77115 23.0587 9.83059 23.1829 9.88426 23.31C9.91541 23.3836 9.94464 23.4582 9.97147 23.5337C10.1459 24.0197 10.2345 24.5421 10.1794 25.0577C10.1291 25.5261 9.96379 25.9767 9.73378 26.3858L9.60199 26.6052C9.62164 26.6238 9.64082 26.6424 9.65999 26.6615C9.67293 26.6319 9.68538 26.6028 9.6988 26.5741C9.75439 26.4517 9.81525 26.3318 9.88186 26.2147C9.93457 26.1215 9.9911 26.0302 10.0524 25.9428L10.167 25.7841C10.2082 25.8295 10.2494 25.8749 10.2906 25.9203C10.3577 25.9954 10.42 26.0752 10.4799 26.1564C10.5613 26.2673 10.6375 26.3825 10.7085 26.5005C10.7497 26.5688 10.7894 26.6386 10.8268 26.7098C11.0679 27.1662 11.2294 27.6709 11.2471 28.1894C11.2519 28.3241 11.2471 28.4584 11.2337 28.5922L11.2456 28.5636C11.296 28.598 11.3467 28.6324 11.3971 28.6668C11.48 28.7246 11.5595 28.7877 11.6367 28.8532C11.7416 28.9421 11.8427 29.0362 11.939 29.1347C11.9951 29.1915 12.0497 29.2503 12.1024 29.311C12.4436 29.699 12.7182 30.1526 12.8562 30.6525C12.8821 30.7452 12.9027 30.8384 12.9195 30.9325C13.0014 30.9664 13.0814 31.0047 13.1605 31.0453C13.2836 31.1079 13.4034 31.1762 13.5199 31.2498C13.5875 31.2928 13.6541 31.3378 13.7197 31.3841C14.1328 31.6785 14.4984 32.0484 14.7476 32.4924C14.7989 32.5846 14.8454 32.6787 14.887 32.7757C14.9479 32.7934 15.0083 32.813 15.0682 32.834C15.1985 32.879 15.3269 32.9306 15.4525 32.9879C15.5253 33.0209 15.5977 33.0563 15.6686 33.0935C16.1272 33.333 16.5474 33.6575 16.857 34.0742C17.1426 34.4589 17.329 34.91 17.4373 35.3741C17.4555 35.4524 17.4713 35.5308 17.4852 35.6097C17.4915 35.6436 17.4967 35.6775 17.502 35.7115L17.512 35.7081C19.2736 35.0759 21.0207 34.7982 23.6261 34.7944C23.7512 34.7896 23.8767 34.7863 24.0022 34.7848L24.3784 34.7944C27.2991 34.7987 29.1411 35.1471 31.1331 35.9528C31.1092 35.8725 31.0891 35.7913 31.0723 35.7091C30.9961 35.3406 30.987 34.9526 31.0866 34.5879C31.1863 34.2228 31.3919 33.8931 31.6454 33.6145C31.7585 33.4897 31.8821 33.3731 32.0163 33.2708L32.1825 33.1499C32.2079 33.2087 32.2338 33.2675 32.2592 33.3258C32.287 33.3932 32.3115 33.4615 32.3335 33.5308C32.3608 33.6178 32.3838 33.7053 32.4035 33.7941C32.4351 33.9394 32.4562 34.088 32.4643 34.2376C32.5113 34.2109 32.5587 34.186 32.6071 34.1626C32.5372 33.8042 32.5314 33.4281 32.6287 33.0739C32.7284 32.7093 32.9334 32.3791 33.1869 32.1005C33.3005 31.9757 33.4242 31.8591 33.5583 31.7569L33.7246 31.636C33.75 31.6947 33.7754 31.7535 33.8008 31.8123C33.8291 31.8792 33.8535 31.948 33.8751 32.0173C33.9024 32.1038 33.9259 32.1918 33.945 32.2807C33.9767 32.4259 33.9977 32.5745 34.0059 32.7236C34.0131 32.7193 34.0207 32.7155 34.0279 32.7112C33.9642 32.3643 33.9623 32.002 34.0557 31.6603C34.1559 31.2952 34.361 30.9655 34.6145 30.6869C34.728 30.5621 34.8512 30.4455 34.9854 30.3433L35.1517 30.2223L35.2552 30.4661C35.2614 30.3963 35.271 30.3265 35.2848 30.2577C35.3577 29.8864 35.5384 29.5428 35.7708 29.246C35.8748 29.1136 35.9897 28.9884 36.1158 28.8766L36.2729 28.7442L36.3851 28.9612C36.3836 28.9115 36.3841 28.8613 36.3865 28.8111C36.4047 28.4336 36.5336 28.067 36.7205 27.7402C36.8039 27.5939 36.8993 27.4534 37.008 27.3249L37.1441 27.171C37.182 27.2226 37.2194 27.2747 37.2572 27.3263C37.2994 27.3856 37.3377 27.4472 37.3742 27.5103C37.4197 27.5887 37.4613 27.6699 37.4997 27.7521C37.562 27.8873 37.6152 28.0278 37.6554 28.1717C37.6823 28.1473 37.7101 28.1239 37.7378 28.1005C37.55 27.8138 37.4101 27.4907 37.3612 27.1499C37.3075 26.7753 37.3641 26.3915 37.4858 26.0355C37.5399 25.8759 37.607 25.7201 37.6894 25.5729L37.7939 25.3961C37.8404 25.44 37.8874 25.4835 37.9338 25.5275C37.9865 25.5777 38.0364 25.6312 38.0838 25.6862C38.1432 25.7545 38.1998 25.8262 38.253 25.8998C38.3397 26.0207 38.4183 26.1488 38.4854 26.2826L38.5218 26.2357C38.2937 25.9715 38.1107 25.6642 38.0177 25.3263C37.9175 24.9617 37.9257 24.5736 38.0014 24.2052C38.0354 24.0403 38.0824 23.8773 38.1456 23.721L38.2266 23.5328C38.2789 23.57 38.3306 23.6078 38.3824 23.6455C38.4408 23.6886 38.4969 23.7354 38.551 23.7841C38.6191 23.8448 38.6838 23.9084 38.7456 23.9753C38.7691 24.0001 38.8084 24.0446 38.8112 24.0479C38.8112 24.0484 38.8117 24.0484 38.8112 24.0479C38.7005 23.9112 38.6057 23.7626 38.5314 23.603C38.3728 23.2594 38.3172 22.8752 38.3316 22.4991C38.3378 22.3308 38.357 22.1626 38.3943 21.9982L38.4432 21.7989C38.5007 21.8276 38.5582 21.8563 38.6157 21.885C38.6742 21.9151 38.7317 21.948 38.7878 21.9834C38.7542 21.9418 38.7226 21.8993 38.6929 21.8549C38.4811 21.5414 38.3646 21.171 38.3181 20.7978C38.2975 20.6305 38.2899 20.4613 38.2999 20.2931L38.3162 20.0886C38.3776 20.1077 38.4389 20.1268 38.5002 20.1459C38.5697 20.1684 38.6373 20.1947 38.7044 20.2233C38.7878 20.2592 38.8697 20.2993 38.9497 20.3428C39.081 20.4135 39.2075 20.4948 39.3264 20.5861C39.3307 20.565 39.3355 20.5435 39.3403 20.5225C39.0877 20.3858 38.8563 20.209 38.6718 19.9892C38.4284 19.6991 38.2741 19.3426 38.1893 18.976C38.1514 18.8121 38.126 18.6444 38.1183 18.4761L38.114 18.2711C38.1768 18.2836 38.2396 18.2964 38.3023 18.3089C38.3598 18.3213 38.4169 18.3361 38.4729 18.3528C38.4586 18.3399 38.4442 18.327 38.4298 18.3137C38.1543 18.0542 37.9592 17.7182 37.8318 17.3641C37.7747 17.2054 37.7302 17.042 37.7029 16.8757L37.6741 16.6726C37.7379 16.6778 37.8021 16.6831 37.8658 16.6883C37.9382 16.695 38.0105 16.706 38.0819 16.7194C38.0973 16.7223 38.1126 16.7251 38.1274 16.728C38.103 16.7122 38.079 16.6955 38.0551 16.6783C37.7484 16.4561 37.5117 16.1473 37.3401 15.8123C37.2634 15.6623 37.1983 15.506 37.1499 15.3445L37.0952 15.1466C37.1638 15.1438 37.2323 15.1399 37.3008 15.1376L37.4628 15.139C37.4403 15.1299 37.4178 15.1203 37.3957 15.1103C37.0507 14.9526 36.7579 14.6969 36.5231 14.4021C36.4182 14.2702 36.3233 14.1297 36.2437 13.981L36.1513 13.798C36.2179 13.7813 36.284 13.7641 36.3506 13.7483C36.4263 13.7311 36.5629 13.702 36.5629 13.702C36.5125 13.6843 36.4627 13.6647 36.4138 13.6427C36.0923 13.4998 35.812 13.2738 35.5805 13.0114C35.4689 12.8852 35.3668 12.7495 35.2796 12.6052L35.178 12.4269C35.2437 12.4069 35.3088 12.3863 35.375 12.3672C35.4018 12.3595 35.4286 12.3524 35.4559 12.3462C35.1234 12.1985 34.8363 11.961 34.6015 11.6862C34.4923 11.5581 34.3921 11.421 34.3078 11.2747L34.2091 11.095L34.3562 11.0525C34.0155 10.8967 33.7246 10.6453 33.4908 10.3552C33.3849 10.2243 33.289 10.0843 33.2085 9.93613L33.1151 9.75358C33.1285 9.74976 33.1232 9.75118 33.1338 9.74832C32.8779 9.61642 32.6488 9.43338 32.4519 9.22502C32.3359 9.1022 32.229 8.9703 32.1375 8.82884L32.0297 8.65393C32.0944 8.63195 32.1591 8.60901 32.2243 8.58798C32.3258 8.55596 32.4293 8.53064 32.5338 8.51105C32.6929 8.48094 32.8544 8.46374 33.0159 8.45992H33.139C33.0825 8.33853 33.0355 8.21236 32.9972 8.08477C32.9488 7.92324 32.9124 7.75788 32.8942 7.59014L32.876 7.38608C32.9397 7.39468 33.0029 7.40329 33.0667 7.41141C33.1386 7.4224 33.2104 7.43674 33.2809 7.45394C33.3695 7.47545 33.4572 7.50125 33.5435 7.53041C33.7179 7.59014 33.8885 7.66565 34.0481 7.75932C34.0528 7.57915 34.0768 7.39947 34.1166 7.22408C34.1535 7.05968 34.2038 6.89767 34.2699 6.74283L34.3552 6.55597C34.4065 6.59468 34.4573 6.63338 34.5086 6.67209C34.5661 6.71654 34.6212 6.76434 34.6744 6.81356C34.741 6.87569 34.8047 6.94068 34.8651 7.00854C35.1315 7.30627 35.3438 7.66134 35.4349 8.05226C35.4401 8.07568 35.4564 8.10817 35.4564 8.10817L35.5048 8.01164L35.5982 7.84343C35.6462 7.88596 35.6941 7.92849 35.742 7.97102C35.7957 8.01977 35.8469 8.07186 35.8963 8.12538C35.9576 8.19229 36.0161 8.26253 36.0712 8.3347C36.2916 8.62382 36.4637 8.95692 36.5379 9.31391L36.6391 9.11749C36.688 9.15859 36.7373 9.19969 36.7862 9.24079C36.8417 9.28858 36.894 9.33877 36.9448 9.39086C37.0081 9.45633 37.0684 9.52466 37.1254 9.59539C37.3209 9.83816 37.482 10.1139 37.5768 10.4112L37.723 10.5297C37.7791 10.576 37.8322 10.6257 37.884 10.6769C37.9482 10.7409 38.0096 10.8083 38.068 10.8781C38.3239 11.1849 38.5237 11.5466 38.6014 11.9404C38.6038 11.9514 38.6057 11.9624 38.6076 11.9734L38.6469 11.9041C38.6943 11.9466 38.7422 11.9892 38.7897 12.0322C38.8433 12.0814 38.8941 12.1335 38.943 12.1875C39.0039 12.2549 39.0619 12.3251 39.1165 12.3978C39.3566 12.717 39.5377 13.0888 39.5952 13.4859C39.6311 13.7349 39.6187 13.9887 39.5717 14.2353L39.5722 14.2339C39.6359 14.1306 39.7064 14.0312 39.783 13.9376L39.9172 13.7822C39.9555 13.8334 39.9939 13.885 40.0322 13.9361C40.0749 13.9949 40.1142 14.0561 40.1515 14.1187C40.198 14.1966 40.2407 14.2769 40.28 14.3591C40.4515 14.7194 40.556 15.1189 40.5335 15.5199C40.5277 15.6193 40.5148 15.7172 40.4951 15.8142L40.647 15.6776C40.6786 15.7335 40.7103 15.7889 40.7414 15.8448C40.7764 15.9089 40.8076 15.9743 40.8363 16.0413C40.8723 16.1244 40.9049 16.2095 40.9331 16.296C41.0577 16.6749 41.1099 17.0845 41.0361 17.4792C41.0155 17.5887 40.9863 17.6962 40.9484 17.8009L41.0265 17.7411L41.1837 17.6307C41.2086 17.6895 41.2331 17.7488 41.2575 17.8076C41.2849 17.8754 41.3083 17.9442 41.3289 18.0135C41.3548 18.101 41.3769 18.1889 41.3951 18.2778C41.4741 18.6692 41.4775 19.0821 41.3582 19.4654C41.3059 19.6326 41.2316 19.7923 41.1411 19.9419L41.2685 19.8625L41.4363 19.7684C41.455 19.83 41.4732 19.8912 41.4914 19.9524C41.5115 20.0221 41.5278 20.0933 41.5412 20.1645C41.558 20.2539 41.5704 20.3438 41.5791 20.4341C41.6169 20.8312 41.5776 21.2427 41.419 21.6116C41.3217 21.8377 41.1833 22.0432 41.0184 22.2262L41.0246 22.2228C41.1392 22.1574 41.2585 22.0995 41.3812 22.0513L41.5743 21.9806C41.5829 22.0441 41.591 22.1077 41.5992 22.1707C41.6078 22.2429 41.6121 22.3156 41.614 22.3882C41.6164 22.479 41.6145 22.5698 41.6088 22.6606C41.5824 23.0587 41.4775 23.4582 41.2614 23.797C41.1248 24.0116 40.948 24.1975 40.7486 24.3557C40.8584 24.317 40.97 24.2845 41.0836 24.2606L41.2858 24.2224C41.2834 24.2864 41.2815 24.3504 41.2791 24.414C41.2757 24.4866 41.2681 24.5593 41.258 24.631C41.2455 24.7208 41.2288 24.8102 41.2082 24.8986C41.1166 25.2871 40.948 25.6646 40.6791 25.9633C40.4352 26.2353 40.119 26.4355 39.7826 26.5736C39.7011 26.6071 39.6187 26.6376 39.5344 26.6634C39.5344 26.694 39.5334 26.7246 39.5324 26.7552C39.6939 26.6744 39.8645 26.6118 40.0385 26.5645C40.2014 26.5206 40.3686 26.4885 40.5368 26.4747L40.7424 26.4618C40.7319 26.5249 40.7218 26.5879 40.7113 26.6515C40.6988 26.7227 40.6825 26.7939 40.6633 26.8637C40.6394 26.9516 40.6116 27.0381 40.58 27.1232C40.441 27.4969 40.2258 27.8501 39.922 28.1134C39.646 28.3528 39.3067 28.5124 38.9555 28.6075C38.8472 28.6372 38.7365 28.6611 38.6253 28.6778C38.6162 28.7299 38.6057 28.7815 38.5937 28.8331C38.7672 28.7848 38.9469 28.7552 39.1266 28.7418C39.1889 28.737 39.2516 28.7346 39.3144 28.7337C39.3379 28.7332 39.3614 28.7332 39.3848 28.7332L39.646 28.749L39.8372 28.7734C39.8137 28.8379 39.7907 28.9024 39.7663 28.9664C39.7044 29.1232 39.6263 29.2737 39.5377 29.4166C39.3383 29.7363 39.0772 30.024 38.7528 30.2204C38.4284 30.4169 38.0517 30.5148 37.6755 30.5435C37.6118 30.5483 37.5471 30.5511 37.4829 30.5521C37.4772 30.5679 37.4709 30.5832 37.4647 30.5989H37.4657C37.5625 30.5865 37.6602 30.5803 37.758 30.5784L37.9468 30.5817C38.0522 30.587 38.1576 30.598 38.2621 30.6147L38.5189 30.6678L38.7039 30.7198C38.6713 30.78 38.6392 30.8403 38.6057 30.9C38.5223 31.0462 38.4226 31.1839 38.3139 31.3129C38.0704 31.6001 37.77 31.8472 37.4206 31.9944C37.1518 32.1072 36.8614 32.1588 36.57 32.1645C36.6831 32.1741 36.7953 32.1898 36.9065 32.2118C37.0186 32.2343 37.1302 32.2625 37.239 32.2993L37.4326 32.3691C37.3957 32.4264 37.3593 32.4847 37.3214 32.5416C37.227 32.6816 37.1182 32.8116 37.0004 32.932C36.7368 33.2011 36.4191 33.4257 36.0597 33.5471C35.9044 33.5996 35.7439 33.6321 35.5815 33.6479C35.5762 33.6465 35.731 33.6857 35.8115 33.7129L36.0051 33.7827C35.9682 33.8405 35.9318 33.8983 35.8939 33.9557C35.7995 34.0952 35.6907 34.2252 35.5728 34.3456C35.3088 34.6147 34.9916 34.8393 34.6322 34.9607C34.2728 35.0821 33.8837 35.0969 33.5104 35.0434C33.4318 35.0319 33.3532 35.018 33.2756 35.0003C33.2631 35.0295 33.2497 35.0577 33.2363 35.0859L33.3954 35.0825C33.5775 35.0845 33.7586 35.1041 33.9374 35.1394C34.0495 35.1619 34.1611 35.1901 34.2699 35.2264L34.4635 35.2962C34.4261 35.354 34.3902 35.4118 34.3523 35.4692C34.2579 35.6092 34.1492 35.7392 34.0308 35.8596C33.7672 36.1287 33.4495 36.3528 33.0906 36.4747C32.9133 36.5344 32.7293 36.5683 32.5429 36.5808ZM16.0294 36.315C15.6729 36.2085 15.3312 36.0512 15.0298 35.8324C14.6815 35.5796 14.3949 35.2512 14.1659 34.8885C13.9148 34.9062 13.6651 34.9473 13.4216 35.0099L13.413 35.0118C13.5251 35.1662 13.6488 35.3119 13.781 35.4486C13.8299 35.4998 13.8807 35.549 13.932 35.5972C14.2574 35.9002 14.6378 36.1511 15.0614 36.2926C15.2929 36.3695 15.5339 36.414 15.7764 36.4316C15.7572 36.4407 15.9264 36.3619 16.0294 36.315ZM31.8697 36.2458C31.9339 36.2587 31.9981 36.2687 32.0627 36.2768C32.3915 36.3174 32.7332 36.2988 33.0451 36.1822C33.3077 36.0842 33.5425 35.9232 33.7457 35.732C33.7903 35.69 33.8334 35.6465 33.8751 35.6015L34.004 35.452C33.9479 35.4376 33.8909 35.4257 33.8339 35.4152C33.6887 35.3889 33.5411 35.3745 33.393 35.3726C33.3829 35.3726 33.3724 35.3726 33.3623 35.3726C33.2593 35.3736 33.1563 35.3808 33.0547 35.396C33.0001 35.4744 32.9397 35.5495 32.874 35.6197C32.6244 35.8859 32.3038 36.0794 31.9645 36.2109L31.8697 36.2458ZM17.0233 35.8921C16.9073 35.6369 16.7669 35.3927 16.5987 35.1681C16.4319 34.9444 16.2379 34.7409 16.0151 34.5722C15.7573 34.3772 15.464 34.2333 15.1578 34.132C15.0001 34.0799 14.8386 34.0388 14.6757 34.0078C14.4639 33.9676 14.2487 33.9442 14.0331 33.9366H14.025C14.0259 33.9389 14.0264 33.9418 14.0274 33.9447C14.0988 34.1401 14.1841 34.3303 14.2833 34.5134C14.3618 34.6582 14.4495 34.7982 14.5463 34.9315C14.7351 35.1915 14.9604 35.4266 15.2229 35.613C15.4645 35.7846 15.7347 35.9131 16.016 36.0063C16.1622 36.0546 16.3112 36.0933 16.4621 36.1234L16.6413 36.0474C16.4583 35.9236 16.2791 35.7941 16.1008 35.6637C15.8996 35.5127 15.6997 35.3592 15.5062 35.1977C15.3116 35.0367 15.1209 34.8708 14.9397 34.6902L14.9407 34.6892C15.1746 34.7929 15.3978 34.9119 15.6178 35.0357C15.8382 35.159 16.0534 35.2904 16.2666 35.4238C16.4779 35.56 16.6883 35.6976 16.8929 35.8434C16.9231 35.8649 16.9533 35.8864 16.9835 35.9079L17.0233 35.8921ZM31.8768 35.9332C31.8874 35.9289 31.8979 35.9246 31.9089 35.9203C32.2151 35.7951 32.5036 35.6116 32.7183 35.3573C32.8985 35.1437 33.024 34.888 33.1065 34.6228C33.1247 34.564 33.1409 34.5048 33.1553 34.4455L33.1937 34.2515L33.0048 34.3112C32.9469 34.3318 32.8899 34.3542 32.8333 34.3786C32.5621 34.4966 32.3072 34.661 32.1083 34.8818C31.9099 35.1026 31.7743 35.3736 31.6861 35.6551C31.6832 35.6656 31.6799 35.6761 31.6765 35.6866C31.7585 35.5906 31.8438 35.4978 31.9305 35.4056C32.0469 35.2856 32.1653 35.1676 32.2913 35.0558C32.4169 34.943 32.5472 34.835 32.691 34.738L32.692 34.7389C32.6191 34.8962 32.5328 35.0415 32.4418 35.1829C32.3508 35.3248 32.253 35.4606 32.1529 35.5944C32.0633 35.7096 31.9727 35.8238 31.8768 35.9332ZM32.1763 34.4264C32.1797 34.2792 32.1677 34.1315 32.1437 33.9872C32.1337 33.9265 32.1217 33.8663 32.1073 33.8071L32.0551 33.6164L31.9128 33.754C31.8706 33.798 31.8294 33.8438 31.7901 33.8907C31.6003 34.1172 31.4461 34.3781 31.3679 34.6644C31.2898 34.9502 31.2898 35.2532 31.3377 35.5442C31.3468 35.5982 31.3708 35.699 31.3708 35.699C31.3722 35.6943 31.3737 35.689 31.3746 35.6842C31.4719 35.3205 31.6382 34.9698 31.8917 34.6878C31.9765 34.5932 32.0704 34.5076 32.1711 34.4302L32.1763 34.4264ZM17.1757 35.5413C17.1369 35.3511 17.0841 35.1638 17.0161 34.9817C16.9188 34.7208 16.7894 34.4708 16.6227 34.2472C16.4305 33.9882 16.1895 33.7674 15.9235 33.5848C15.7812 33.4868 15.6317 33.3994 15.4769 33.3215C15.2905 33.2278 15.0974 33.1485 14.899 33.0835L14.8909 33.0806C14.8914 33.084 14.8913 33.0864 14.8913 33.0892C14.9048 33.2971 14.933 33.5036 14.9771 33.7072C14.9824 33.732 14.9881 33.7569 14.9939 33.7812C15.3571 33.8749 15.7079 34.0178 16.0222 34.2223C16.0965 34.2706 16.1684 34.3222 16.2374 34.3767C16.4353 34.533 16.6121 34.7141 16.7683 34.911C16.9241 35.1074 17.0592 35.3196 17.1757 35.5413ZM33.4112 34.7322C33.4754 34.7447 33.5396 34.7547 33.6043 34.7628C33.9331 34.8035 34.2747 34.7848 34.5871 34.6682C34.8493 34.5707 35.0845 34.4092 35.2872 34.2185C35.3318 34.1765 35.3749 34.1325 35.4166 34.0876L35.5455 33.938C35.4818 33.9217 35.4171 33.9084 35.3519 33.8974C35.2139 33.8735 35.0745 33.8606 34.9346 33.8591H34.9039C34.8009 33.8596 34.6983 33.8673 34.5967 33.8826C34.5416 33.9609 34.4817 34.0355 34.4156 34.1057C34.1659 34.3724 33.8458 34.566 33.5061 34.6969C33.4749 34.7093 33.4433 34.7208 33.4112 34.7322ZM13.4073 34.7136C13.4921 34.6931 13.6814 34.6563 13.6977 34.6534C13.3354 34.4957 12.9956 34.284 12.71 34.0102C12.3995 33.7124 12.1609 33.3478 11.9841 32.9569C11.927 32.953 11.87 32.9507 11.8135 32.9492C11.7732 32.9483 11.733 32.9478 11.6932 32.9478C11.5466 32.9487 11.4004 32.9569 11.2542 32.9722L11.2212 32.976C11.2351 33.0013 11.249 33.0266 11.2629 33.0515C11.4421 33.3669 11.6601 33.6618 11.9184 33.9179C12.1226 34.1201 12.3531 34.2978 12.607 34.4336C12.8577 34.5674 13.1294 34.6582 13.4073 34.7136L13.4059 34.7141L13.4073 34.7136ZM14.4126 33.6737C14.2521 33.3573 14.0446 33.0639 13.7825 32.8231C13.5596 32.6176 13.3014 32.4522 13.0278 32.3222C12.7048 32.1693 12.3593 32.0632 12.008 32.0001L11.975 31.9949C11.9759 31.9972 11.9764 32.0001 11.9769 32.003C12.0205 32.2066 12.0785 32.4068 12.1518 32.6013C12.2098 32.7557 12.2774 32.9062 12.355 33.0515C12.5016 33.3272 12.6861 33.5844 12.9118 33.8008C13.138 34.0173 13.4025 34.1913 13.6843 34.3275C13.7595 34.3638 13.8362 34.3973 13.9138 34.4288C13.8707 34.3366 13.8304 34.2434 13.793 34.1487C13.7595 34.0622 13.7044 33.8964 13.7063 33.9017C13.5577 33.753 13.4111 33.602 13.2693 33.4462C13.0987 33.2603 12.9324 33.0696 12.7781 32.8665L12.779 32.8651C12.9961 33.0004 13.2012 33.1485 13.402 33.3014C13.5501 33.4133 13.6943 33.5289 13.8371 33.6465L13.9492 33.6446C14.104 33.646 14.2588 33.656 14.4126 33.6737ZM33.4625 34.4016C33.7644 34.2763 34.0481 34.0943 34.2599 33.8434C34.44 33.6302 34.5656 33.3745 34.6485 33.1088C34.6667 33.0505 34.6825 32.9913 34.6969 32.9315L34.7357 32.738L34.5464 32.7973C34.4889 32.8178 34.4314 32.8403 34.3753 32.8646C34.1041 32.9827 33.8487 33.1471 33.6503 33.3679C33.5028 33.5318 33.3896 33.7239 33.3053 33.927L33.4639 33.9002L33.4721 33.8921C33.5885 33.7717 33.7069 33.6536 33.8334 33.5418C33.9589 33.4295 34.0893 33.321 34.2325 33.224L34.234 33.225C34.1611 33.3822 34.0744 33.5275 33.9834 33.6689C33.8928 33.8114 33.7946 33.9471 33.6944 34.0804C33.6216 34.1745 33.5478 34.2677 33.4711 34.3585C33.4682 34.3729 33.4654 34.3872 33.4625 34.4016ZM32.9612 34.0188C33.0619 33.71 33.2157 33.4161 33.4333 33.1738C33.52 33.0778 33.6154 32.9908 33.7179 32.9124C33.7213 32.7652 33.7093 32.618 33.6853 32.4732C33.6757 32.4125 33.6633 32.3528 33.6494 32.2931L33.5966 32.1029L33.4548 32.24C33.4122 32.2845 33.371 32.3299 33.3317 32.3772C33.1419 32.6032 32.9876 32.8646 32.9095 33.1504C32.8314 33.4367 32.8314 33.7392 32.8793 34.0307L32.8822 34.0465L32.9612 34.0188ZM14.5957 32.8369C14.5573 32.7518 14.5142 32.6687 14.4668 32.5879C14.3086 32.3193 14.1021 32.0809 13.8692 31.874C13.5961 31.6312 13.2865 31.4295 12.9587 31.2689L12.9511 31.2656C12.9506 31.2685 12.9506 31.2713 12.9501 31.2742C12.9343 31.4883 12.9343 31.7038 12.9516 31.9184C12.953 31.9366 12.9549 31.9552 12.9563 31.9734C13.367 32.1416 13.7513 32.3772 14.0652 32.6912C14.2967 32.9225 14.4869 33.1915 14.6398 33.4797L14.6091 33.2202C14.5995 33.1136 14.5957 32.8369 14.5957 32.8369ZM34.8823 33.3268C34.9317 33.3354 34.982 33.343 35.0319 33.3492C35.3606 33.3898 35.7022 33.3712 36.0147 33.2546C36.2768 33.1571 36.5121 32.9956 36.7148 32.8049C36.7593 32.7628 36.8025 32.7189 36.8442 32.674L36.973 32.5244C36.9093 32.5081 36.8446 32.4947 36.7795 32.4838C36.6415 32.4599 36.502 32.4469 36.3621 32.4455C36.352 32.4455 36.3415 32.4455 36.3314 32.4455C36.2284 32.446 36.1258 32.4536 36.0243 32.4685C35.9692 32.5473 35.9093 32.6219 35.8431 32.6921C35.5935 32.9588 35.2734 33.1523 34.9336 33.2833C34.9197 33.2885 34.9058 33.2943 34.8919 33.299C34.8885 33.3081 34.8852 33.3172 34.8823 33.3268ZM34.9858 32.3901C35.075 32.3002 35.1655 32.2123 35.2609 32.1282C35.386 32.0159 35.5163 31.9074 35.6601 31.8104L35.6615 31.8113C35.5882 31.9686 35.5019 32.1139 35.4109 32.2553C35.3203 32.3973 35.2221 32.533 35.1219 32.6668C35.0884 32.7098 35.0553 32.7523 35.0213 32.7949C35.0132 32.8446 35.0036 32.8933 34.993 32.9425C35.2561 32.8202 35.5 32.652 35.6874 32.4297C35.8676 32.2161 35.9931 31.9609 36.076 31.6952C36.0937 31.6364 36.11 31.5777 36.1244 31.5179L36.1627 31.3244L35.974 31.3836C35.916 31.4042 35.8589 31.4266 35.8029 31.451C35.5311 31.5691 35.2762 31.7335 35.0778 31.9542C34.9504 32.0957 34.8493 32.2577 34.7692 32.4297L34.9858 32.3901ZM11.5787 32.6591C11.1618 32.393 10.7861 32.0527 10.5163 31.636C10.2829 31.2751 10.1339 30.8656 10.0515 30.4446C9.81909 30.3734 9.57948 30.3232 9.33797 30.2935L9.30489 30.2897C9.30585 30.2921 9.30633 30.295 9.30729 30.2979C9.36144 30.4986 9.43094 30.6955 9.5148 30.8861C9.58093 31.0367 9.65664 31.1834 9.74194 31.3244C9.90343 31.5915 10.1018 31.8381 10.339 32.0422C10.5705 32.2415 10.8364 32.3977 11.1167 32.5172C11.2475 32.5726 11.5255 32.6611 11.5255 32.6611C11.5432 32.6601 11.5609 32.6596 11.5787 32.6591ZM34.4118 32.5373C34.5124 32.2534 34.659 31.9848 34.8608 31.7602C34.947 31.6642 35.0429 31.5772 35.1454 31.4988C35.1488 31.3516 35.1368 31.2044 35.1128 31.0596C35.1027 30.9989 35.0908 30.9392 35.0769 30.8795L35.0242 30.6888L34.8823 30.8264C34.8397 30.8708 34.7985 30.9162 34.7592 30.9631C34.5694 31.1896 34.4151 31.4505 34.337 31.7368C34.2618 32.0111 34.2589 32.3007 34.3011 32.5808L34.4118 32.5373ZM12.2644 31.7559C12.251 31.6967 12.2366 31.6384 12.2203 31.5801C12.1451 31.312 12.0377 31.052 11.8911 30.8145C11.721 30.5401 11.4996 30.3002 11.2504 30.0957C11.1167 29.9863 10.9749 29.8864 10.8278 29.7956C10.65 29.6866 10.4641 29.591 10.2719 29.5093L10.2642 29.5065C10.2642 29.5093 10.2642 29.5117 10.2642 29.5146C10.2595 29.7229 10.27 29.9308 10.2968 30.1373C10.3179 30.3007 10.3491 30.4627 10.3908 30.6219C10.4732 30.932 10.5982 31.2326 10.7756 31.5007C10.9437 31.754 11.1556 31.9762 11.3918 32.1674C11.5188 32.2706 11.7895 32.4407 11.7895 32.4407C11.7622 32.3523 11.7382 32.263 11.7167 32.1731C11.7057 32.1268 11.6951 32.0799 11.6855 32.0331C11.6491 31.9767 11.6127 31.9198 11.5763 31.8634C11.4436 31.6503 11.3127 31.4352 11.19 31.2149C11.0669 30.9951 10.949 30.7714 10.8455 30.5382L10.8465 30.5373C11.0267 30.7189 11.1925 30.9096 11.353 31.1041C11.5087 31.2919 11.6568 31.4845 11.8025 31.679L11.6314 31.6642L11.8144 31.6799C11.9151 31.6895 12.0152 31.7053 12.1144 31.7244C12.1647 31.7339 12.2146 31.7444 12.2644 31.7559ZM36.352 31.7884L36.3257 31.8677C36.3443 31.8692 36.3626 31.8701 36.3813 31.8711C36.7119 31.8878 37.0512 31.8448 37.354 31.7057C37.6085 31.5896 37.8313 31.4114 38.0196 31.2063C38.0613 31.1614 38.1011 31.1146 38.1394 31.0668L38.2573 30.9081C38.1222 30.8842 37.9856 30.8723 37.849 30.8689C37.8251 30.8685 37.8011 30.8685 37.7772 30.8685C37.619 30.8704 37.4604 30.8866 37.3066 30.921C37.2572 31.0032 37.2031 31.0826 37.1427 31.1571C36.9309 31.4185 36.6554 31.6226 36.3559 31.775L36.352 31.7884ZM12.6631 31.2125C12.6477 31.0496 12.619 30.8876 12.5754 30.7299C12.4877 30.4111 12.3372 30.1124 12.1494 29.8415C12.0555 29.7057 11.952 29.5767 11.8413 29.4548C11.7014 29.3005 11.5499 29.1566 11.3884 29.0247L11.3817 29.0195C11.3808 29.0224 11.3798 29.0252 11.3788 29.0276C11.3161 29.2259 11.2682 29.429 11.2356 29.6345C11.2318 29.6599 11.2279 29.6847 11.2246 29.71C11.5854 29.9676 11.9055 30.2845 12.1388 30.662C12.3612 31.0209 12.5016 31.4252 12.5788 31.8391C12.6046 31.8472 12.63 31.8548 12.6559 31.8634C12.6535 31.8314 12.6521 31.7999 12.6506 31.7679C12.6453 31.6336 12.6458 31.4988 12.6525 31.365C12.6549 31.3139 12.6583 31.2632 12.6631 31.2125ZM36.4761 31.1557L36.4478 31.3875C36.6477 31.2589 36.8279 31.0993 36.9678 30.9067C37.1321 30.6807 37.2385 30.4169 37.3018 30.1459C37.3157 30.0861 37.3277 30.0264 37.3372 29.9657L37.3617 29.7698L37.1777 29.8429C37.1216 29.8673 37.066 29.894 37.0114 29.9222C36.7498 30.0594 36.5068 30.2419 36.3252 30.4766C36.1891 30.652 36.0904 30.8522 36.0209 31.0625C36.0731 31.0467 36.1263 31.0324 36.179 31.02L36.1857 31.0123C36.2931 30.8842 36.4028 30.7576 36.5207 30.6367C36.6371 30.5158 36.7593 30.3982 36.8959 30.2912L36.8969 30.2921C36.8355 30.4541 36.7598 30.6051 36.6793 30.7528C36.6165 30.8689 36.549 30.9817 36.4795 31.0926L36.4761 31.1557ZM35.6831 31.1863C35.7602 30.8675 35.8929 30.5593 36.0947 30.2988C36.1728 30.1985 36.26 30.1062 36.3544 30.0216L36.3592 30.0173C36.3525 29.8706 36.3295 29.7244 36.295 29.5815C36.2806 29.5222 36.2643 29.463 36.2456 29.4047L36.1795 29.2188C36.179 29.2192 36.179 29.2192 36.1785 29.2197C36.1335 29.267 36.0899 29.3158 36.0477 29.3659C36.0089 29.4133 35.9711 29.4615 35.9351 29.5112C35.7626 29.7511 35.628 30.0226 35.5704 30.3132C35.5134 30.6042 35.5355 30.9067 35.605 31.1934C35.6069 31.202 35.6088 31.2102 35.6112 31.2188C35.6347 31.2078 35.6586 31.1968 35.6831 31.1863ZM25.631 28.035C26.921 28.5057 28.3006 28.7184 29.6898 28.651C28.0581 29.1796 26.3886 29.2422 24.8226 28.9134L24.8097 29.2355L24.0022 30.3437L23.1948 29.2355L23.1819 28.9134C21.6159 29.2422 19.9459 29.1796 18.3147 28.651C19.7034 28.7184 21.0835 28.5057 22.3735 28.035C20.2607 26.9316 18.562 25.0343 17.766 22.5937C16.5867 18.977 17.7018 15.0076 20.5938 12.5273C17.4512 17.1634 18.5826 23.4252 23.0908 26.6888L22.7774 18.9607V12.8814C23.2657 12.6477 23.6874 12.2945 24.0022 11.8554C24.3171 12.2945 24.7388 12.6477 25.2266 12.8814V18.9607L24.9137 26.6888C29.4214 23.4252 30.5533 17.1634 27.4107 12.5273C30.3027 15.0076 31.4178 18.977 30.2385 22.5937C29.4425 25.0343 27.7438 26.9316 25.631 28.035ZM37.574 30.2587C37.6185 30.2568 37.6626 30.2534 37.7067 30.2491C38.0364 30.218 38.3656 30.1258 38.6454 29.9447C38.8802 29.7927 39.0743 29.5844 39.231 29.354C39.2655 29.3033 39.2981 29.2517 39.3292 29.1987L39.4227 29.0247C39.3949 29.0238 39.3676 29.0238 39.3398 29.0238C39.2847 29.0243 39.2296 29.0257 39.1745 29.0295C38.9397 29.0448 38.7039 29.0902 38.484 29.1748L38.4816 29.1805C38.4456 29.267 38.4039 29.3516 38.356 29.4324C38.1701 29.7464 37.8993 30.0049 37.5965 30.2061L37.585 30.2137C37.5816 30.2286 37.5778 30.2438 37.574 30.2587ZM8.56741 27.3378C8.54249 27.3229 8.51712 27.3086 8.49172 27.2943C8.29765 27.1858 8.09446 27.0931 7.88553 27.0166L7.87737 27.0137C7.87737 27.0166 7.87739 27.0195 7.87787 27.0224C7.88362 27.2302 7.90519 27.4376 7.94257 27.6422C7.9718 27.8042 8.01109 27.9648 8.06093 28.1215C8.15629 28.4188 8.2914 28.7045 8.47493 28.9583C8.65319 29.2054 8.87556 29.419 9.12043 29.6001C9.26658 29.7081 9.42135 29.8051 9.5814 29.8912C9.56319 29.8725 9.54451 29.8534 9.5263 29.8348C9.18751 29.4811 8.90525 29.0668 8.74185 28.6037C8.59857 28.1989 8.5492 27.766 8.56741 27.3378ZM10.4104 29.2527C10.43 28.845 10.3845 28.4326 10.2441 28.0479C10.1373 27.7554 9.97721 27.4835 9.78602 27.2379C9.56127 26.9502 9.29341 26.6959 8.99966 26.479L8.99294 26.4742C8.99246 26.4766 8.9915 26.4795 8.99054 26.4823C8.93783 26.6835 8.89999 26.8885 8.87747 27.0955C8.86022 27.2589 8.85255 27.4238 8.85638 27.5887C8.86357 27.9002 8.91244 28.2128 9.01642 28.5072C9.12089 28.802 9.27902 29.0759 9.46926 29.3234C9.56558 29.4486 9.67005 29.5671 9.78122 29.6795C9.84543 29.744 9.91109 29.8061 9.97914 29.8663L9.97434 29.7616C9.88281 29.5337 9.80039 29.3024 9.71989 29.0706C9.63986 28.8321 9.56319 28.5932 9.49515 28.3504C9.42662 28.1081 9.36385 27.8635 9.31785 27.6126L9.31881 27.6121C9.45203 27.83 9.56893 28.0541 9.67914 28.2806C9.7908 28.5067 9.89334 28.7361 9.99253 28.9669C10.0146 29.019 10.0362 29.0711 10.0577 29.1232L10.1804 29.1633C10.258 29.1896 10.3347 29.2197 10.4104 29.2527ZM37.6617 29.5791L37.6511 29.8042C37.8514 29.6388 38.0259 29.4405 38.1466 29.2102C38.276 28.9626 38.3431 28.6859 38.3661 28.4087C38.3713 28.348 38.3742 28.2864 38.3752 28.2252L38.3704 28.0283L38.1993 28.1268C38.1471 28.1593 38.0963 28.1937 38.0464 28.23C37.8073 28.4035 37.5936 28.619 37.4479 28.8776C37.3382 29.0725 37.2692 29.2876 37.2313 29.5079L37.3679 29.4615L37.388 29.4276C37.4753 29.2852 37.5658 29.1442 37.6645 29.0075C37.7628 28.8708 37.8663 28.737 37.9856 28.6114L37.9865 28.6118C37.9496 28.781 37.8969 28.9416 37.8385 29.0998C37.7853 29.2465 37.7244 29.3894 37.6607 29.5313L37.6617 29.5791ZM36.9189 29.6436C36.9515 29.3263 37.0373 29.0133 37.194 28.7351C37.2577 28.6224 37.332 28.5167 37.4154 28.4183C37.3866 28.274 37.343 28.1325 37.2879 27.9963C37.2654 27.9394 37.2404 27.8835 37.2136 27.8286L37.1211 27.6541L37.0119 27.8185C36.9802 27.8711 36.9501 27.9246 36.9218 27.9791C36.7857 28.241 36.6918 28.5292 36.6779 28.825C36.6635 29.1194 36.7287 29.4133 36.8374 29.6857L36.9189 29.6436ZM10.741 29.4113C10.788 29.2857 10.8287 29.1571 10.8613 29.0271C10.9318 28.7485 10.9677 28.4603 10.9548 28.1727C10.9409 27.8596 10.8685 27.5509 10.7569 27.2589C10.6241 26.9105 10.4372 26.5836 10.2134 26.2859L10.1933 26.2596C10.1919 26.262 10.1905 26.2644 10.189 26.2668C10.0817 26.4451 9.98726 26.6314 9.90771 26.8236C9.89813 26.847 9.88857 26.8709 9.87946 26.8948C10.1703 27.2288 10.4075 27.6111 10.547 28.0326C10.6907 28.467 10.7286 28.9316 10.6936 29.3865C10.6874 29.3832 10.7195 29.3999 10.741 29.4113ZM38.7403 28.3609C38.8045 28.3476 38.8678 28.3313 38.9306 28.3127C39.2483 28.22 39.554 28.067 39.7941 27.8367C39.9958 27.6431 40.1472 27.4018 40.2574 27.1461C40.2814 27.0902 40.3034 27.0329 40.324 26.975L40.3825 26.7868L40.1884 26.8259C40.129 26.8403 40.0696 26.857 40.0112 26.8752C39.8291 26.9325 39.6518 27.0104 39.4893 27.1112C39.4701 27.2049 39.4447 27.2976 39.4126 27.3884C39.29 27.7316 39.0729 28.0364 38.8141 28.2912C38.7897 28.3151 38.7657 28.3385 38.7403 28.3609ZM38.4202 27.6823C38.4336 27.6436 38.4475 27.6049 38.4614 27.5662C38.5204 27.4099 38.5822 27.2541 38.6531 27.1017C38.7235 26.9488 38.8002 26.7977 38.8932 26.652L38.8946 26.6525C38.8903 26.8255 38.8687 26.9932 38.8414 27.159C38.8151 27.3253 38.7791 27.4888 38.7408 27.6513C38.7145 27.7535 38.6876 27.8553 38.6579 27.9566L38.6627 28.0307C38.8865 27.7975 39.0715 27.5203 39.1649 27.2092C39.2454 26.9421 39.2583 26.6577 39.2286 26.381C39.2219 26.3203 39.2133 26.2596 39.2023 26.1994L39.1606 26.0063L39.0111 26.1359C38.966 26.1774 38.9224 26.2209 38.8807 26.2658C38.6785 26.4814 38.5098 26.7332 38.4159 27.0147C38.3397 27.2431 38.3143 27.4854 38.3244 27.7258L38.4298 27.6785L38.4202 27.6823ZM38.0431 27.8816C38.0129 27.5595 38.0369 27.2302 38.1394 26.9225C38.1806 26.8001 38.2338 26.6826 38.2966 26.5698C38.241 26.4336 38.171 26.3031 38.0915 26.1798C38.0584 26.1282 38.0234 26.0776 37.9865 26.0288L37.8624 25.8749L37.7867 26.0575C37.7656 26.1148 37.746 26.1727 37.7288 26.2314C37.6449 26.5143 37.6075 26.8154 37.6497 27.1088C37.6918 27.4018 37.8126 27.6795 37.9726 27.9275L38.0431 27.8816ZM30.4354 26.8178C30.4297 26.8259 30.4239 26.8341 30.4182 26.8407C34.2076 24.6568 35.5043 19.8238 33.3135 16.046C32.2391 14.1932 30.4589 12.8537 28.3763 12.3342C32.9569 15.7669 33.8789 22.252 30.4354 26.8178ZM14.6906 16.046C12.5002 19.8238 13.7969 24.6568 17.5863 26.8407C17.5806 26.8341 17.5748 26.8259 17.5691 26.8178C14.1256 22.252 15.0471 15.7669 19.6277 12.3342C17.5456 12.8537 15.7649 14.1932 14.6906 16.046ZM8.99103 26.121C9.0495 26.1574 9.153 26.2305 9.14821 26.2276C9.27136 25.7473 9.30875 25.2379 9.20045 24.7514C9.13624 24.4637 9.02315 24.188 8.87843 23.9318C8.69873 23.6145 8.4711 23.3239 8.21281 23.0668L8.18933 23.0434C8.18837 23.0463 8.18695 23.0486 8.18599 23.0515C8.10549 23.2432 8.03888 23.441 7.98761 23.6427C7.94688 23.8023 7.91621 23.9643 7.89656 24.1277C7.86014 24.4374 7.86446 24.7538 7.92627 25.0601C7.98761 25.3664 8.10547 25.6599 8.25929 25.9318C8.34027 26.0752 8.43134 26.2128 8.53053 26.3447C8.57797 26.4078 8.62731 26.4694 8.67858 26.5301L8.69967 26.4446C8.64025 26.2032 8.59043 25.96 8.54299 25.7163C8.49747 25.4692 8.45481 25.2216 8.42223 24.9717C8.3882 24.7222 8.36088 24.4709 8.35034 24.2162L8.3518 24.2157C8.45291 24.4503 8.53675 24.6883 8.61438 24.9282C8.69297 25.1676 8.7615 25.4095 8.82763 25.6518C8.86548 25.797 8.90238 25.9423 8.93737 26.0881L8.99103 26.121ZM7.6464 23.8391C7.45616 23.6871 7.25157 23.5533 7.03785 23.4372L7.0086 23.4214C7.0086 23.4243 7.00811 23.4271 7.00764 23.43C6.98368 23.6436 6.97601 23.8592 6.98511 24.0742C6.99182 24.2314 7.00813 24.3887 7.03448 24.544C7.08815 24.8603 7.18591 25.1705 7.33878 25.4539C7.47918 25.7144 7.66416 25.949 7.875 26.1564C8.00439 26.284 8.1438 26.4016 8.29044 26.5091C8.27462 26.4881 8.25883 26.467 8.24349 26.4455C7.9579 26.0484 7.73747 25.5982 7.64067 25.117C7.55585 24.696 7.5683 24.2606 7.6464 23.8391ZM39.5382 26.3562C39.6 26.3347 39.6609 26.3108 39.7203 26.2845C40.0241 26.1526 40.3087 25.9633 40.5177 25.7048C40.6935 25.4874 40.8133 25.2293 40.8905 24.9621C40.9072 24.9034 40.9226 24.8436 40.9355 24.7839L40.97 24.5894L40.7822 24.6529C40.7247 24.6744 40.6681 24.6983 40.612 24.7237C40.4391 24.8035 40.2728 24.9024 40.1242 25.0228C40.1175 25.1184 40.1036 25.2135 40.083 25.3072C40.0044 25.6632 39.8271 25.993 39.6024 26.2778C39.5813 26.3041 39.5602 26.3304 39.5382 26.3562ZM9.41703 26.3523C9.51718 26.186 9.60585 26.0126 9.67964 25.8329C9.78842 25.5672 9.8646 25.2866 9.89239 25.0004C9.92258 24.6883 9.8943 24.3729 9.82529 24.0675C9.74287 23.7043 9.60344 23.354 9.42422 23.0281L9.40793 22.9994C9.40601 23.0013 9.4041 23.0037 9.40267 23.0056C9.27137 23.1676 9.15157 23.3382 9.04567 23.5179C9.03273 23.5399 9.02025 23.5619 9.00779 23.5839C9.24883 23.9557 9.42997 24.3676 9.50807 24.804C9.59289 25.2752 9.55889 25.7617 9.44867 26.2262C9.43861 26.2682 9.42805 26.3103 9.41703 26.3523ZM38.7825 25.9514C38.7149 25.6408 38.6991 25.3167 38.7614 25.0042C38.7868 24.8776 38.8247 24.7538 38.8731 24.6343C38.8007 24.5062 38.7154 24.3853 38.621 24.273C38.5812 24.2257 38.54 24.1803 38.4978 24.1363L38.3551 23.9987L38.3033 24.1894C38.2889 24.2491 38.2769 24.3093 38.2673 24.3696C38.2194 24.6606 38.2199 24.9636 38.2985 25.2494C38.3766 25.5328 38.5295 25.7913 38.7169 26.0159L38.7825 25.9514ZM39.4558 25.9877C39.6312 25.7406 39.7644 25.4606 39.8147 25.1609C39.8611 24.8852 39.8382 24.6018 39.774 24.3313C39.7596 24.2716 39.7433 24.2123 39.725 24.154L39.6594 23.9676L39.5272 24.1148C39.4879 24.1617 39.4505 24.2099 39.4141 24.2596C39.2411 24.4991 39.1055 24.77 39.0475 25.0606C39.0029 25.2819 39.0048 25.5098 39.0384 25.733L39.15 25.6532C39.1539 25.6365 39.1577 25.6192 39.1615 25.6025C39.2004 25.44 39.242 25.278 39.2938 25.1179C39.3441 24.9574 39.4011 24.7977 39.4754 24.6415L39.4769 24.642C39.4941 24.814 39.4941 24.9832 39.4879 25.1509C39.4826 25.3191 39.4673 25.4859 39.4495 25.6518C39.4409 25.7201 39.4318 25.7889 39.4217 25.8568L39.4558 25.9877ZM40.2004 24.371C40.2574 24.3394 40.3135 24.306 40.3686 24.2706C40.6461 24.0909 40.8957 23.8572 41.0596 23.5681C41.1976 23.3253 41.2733 23.051 41.3059 22.7748C41.3126 22.7136 41.3179 22.6525 41.3208 22.5913L41.3227 22.3939L41.1483 22.4871C41.0951 22.5182 41.0429 22.5507 40.9921 22.5851C40.8344 22.6921 40.6863 22.8169 40.5598 22.9598C40.5684 23.0553 40.5708 23.1509 40.5656 23.247C40.5464 23.6111 40.4257 23.9648 40.2507 24.2831C40.2345 24.3127 40.2177 24.3418 40.2004 24.371ZM38.8735 24.1215C38.9267 24.1875 38.9775 24.2553 39.0245 24.3256C39.0302 24.316 39.036 24.306 39.0417 24.2964C38.9828 24.241 38.9267 24.1827 38.8735 24.1215ZM39.7179 23.5237C39.7275 23.4123 39.7394 23.3005 39.7557 23.1887C39.7797 23.0224 39.8094 22.8556 39.8573 22.6893H39.8583C39.9038 22.8561 39.9316 23.0233 39.9527 23.1901C39.9752 23.3569 39.9877 23.5237 39.9973 23.6905C40.002 23.8181 40.0059 23.9457 40.0049 24.0733C40.0083 24.0842 40.0116 24.0952 40.015 24.1067L40.0202 24.0962C40.1741 23.8042 40.2766 23.4783 40.2771 23.1461C40.2776 22.867 40.2086 22.5908 40.1008 22.3347C40.0768 22.2778 40.0514 22.2224 40.0236 22.1674L39.9282 21.9944L39.8219 22.1612C39.7912 22.2142 39.7615 22.2678 39.7342 22.3227C39.6024 22.587 39.5133 22.8766 39.5037 23.1729C39.4984 23.3378 39.5176 23.5022 39.5559 23.6623C39.5693 23.6498 39.7179 23.5237 39.7179 23.5237ZM39.3216 23.9074C39.2454 23.667 39.2042 23.4157 39.2123 23.1633C39.2167 23.0343 39.2339 22.9062 39.2617 22.7805C39.1697 22.6658 39.0652 22.5602 38.9536 22.4651C38.9071 22.425 38.8587 22.3868 38.8093 22.3504L38.6469 22.2381L38.6263 22.4345C38.6224 22.4957 38.6205 22.5569 38.6205 22.6181C38.621 22.9134 38.6713 23.2121 38.7959 23.4811C38.8951 23.6952 39.0389 23.8854 39.2066 24.0513L39.3216 23.9074ZM8.78355 23.1199C8.82476 23.0711 8.86454 23.0219 8.90335 22.9712C9.17409 22.619 9.38781 22.2171 9.48748 21.7827C9.55313 21.4955 9.56942 21.1978 9.54882 20.9043C9.52294 20.5406 9.44242 20.1813 9.31975 19.8386L9.30826 19.8076C9.30634 19.8095 9.30394 19.8114 9.30203 19.8133C9.14629 19.9519 9.00111 20.1019 8.86837 20.2625C8.85208 20.2821 8.83626 20.3017 8.81997 20.3218C8.99918 20.7265 9.11228 21.1619 9.12043 21.6054C9.12905 22.0838 9.01786 22.5593 8.83529 22.9999C8.819 23.04 8.80176 23.0802 8.78355 23.1199ZM6.87251 19.8453L6.87011 19.8534C6.81405 20.0537 6.77331 20.2582 6.74792 20.4647C6.72779 20.6281 6.71773 20.793 6.71917 20.9574C6.72204 21.2694 6.76613 21.5825 6.86628 21.8788C6.96595 22.175 7.11978 22.4513 7.30666 22.7012C7.40538 22.8336 7.51321 22.9588 7.62821 23.0768C7.63396 23.0831 7.64497 23.0936 7.64497 23.0936C7.63347 23.0711 7.62199 23.0486 7.61049 23.0262C7.39198 22.5889 7.24533 22.1096 7.22664 21.6193C7.20987 21.1901 7.29133 20.7619 7.43509 20.3586L7.43556 20.3581C7.27167 20.1784 7.09102 20.0135 6.89886 19.8654L6.87251 19.8453ZM8.52957 22.975C8.60672 22.8006 8.6714 22.6204 8.72076 22.4365C8.79599 22.1593 8.83674 21.8716 8.82859 21.5844C8.81949 21.2709 8.75239 20.9612 8.64553 20.6668C8.58899 20.511 8.52142 20.3595 8.44475 20.2123C8.34555 20.0216 8.23102 19.8386 8.10308 19.6656L8.09828 19.6584C8.09636 19.6608 8.09495 19.6632 8.09351 19.6656C7.97946 19.8482 7.87979 20.0393 7.79545 20.2372C7.73028 20.3896 7.67468 20.5464 7.63011 20.706C7.54673 21.0076 7.50313 21.3215 7.51894 21.6346C7.5338 21.9375 7.60234 22.2367 7.70777 22.521C7.76431 22.673 7.83089 22.8212 7.90612 22.965L8.01013 22.739L8.03551 22.6907C8.03024 22.5784 8.02592 22.4656 8.02209 22.3533C8.01682 22.1019 8.01395 21.851 8.02162 21.5992C8.02785 21.3473 8.04031 21.095 8.07049 20.8417H8.07193C8.1347 21.0888 8.17926 21.3378 8.21808 21.5868C8.25737 21.8353 8.2871 22.0847 8.31345 22.3347C8.32831 22.489 8.3422 22.6434 8.3537 22.7977L8.52957 22.975ZM40.4635 22.3466C40.5152 22.3069 40.5651 22.2649 40.6135 22.2209C40.8588 21.9997 41.0678 21.7292 41.1833 21.4176C41.28 21.1557 41.3112 20.8728 41.2987 20.5951C41.2959 20.534 41.2911 20.4728 41.2839 20.4121L41.2546 20.2166L41.097 20.3366C41.0496 20.3753 41.0036 20.4159 40.9585 20.458C40.82 20.5884 40.694 20.7352 40.5919 20.8967C40.6159 20.9894 40.6336 21.0835 40.6437 21.1796C40.6835 21.5418 40.6212 21.9103 40.499 22.252C40.4879 22.284 40.476 22.3156 40.4635 22.3466ZM39.5406 22.0666C39.417 21.831 39.3288 21.5767 39.2948 21.3124C39.278 21.1844 39.2741 21.0553 39.2818 20.9268C39.1725 20.8283 39.0523 20.7409 38.9267 20.6644C38.8745 20.6324 38.8208 20.6023 38.7662 20.5741L38.5875 20.4895L38.599 20.6864C38.6047 20.7476 38.6128 20.8083 38.6229 20.869C38.6708 21.16 38.7686 21.4467 38.9344 21.6928C39.0738 21.8993 39.2588 22.0718 39.4639 22.2128L39.5406 22.0666ZM40.1822 21.8525C40.2134 21.9046 40.2431 21.9581 40.2713 22.0121C40.3552 21.7254 40.3907 21.4219 40.3427 21.1261C40.2986 20.8503 40.1861 20.5884 40.0385 20.3528C40.0059 20.3007 39.9718 20.2501 39.9354 20.2004L39.8137 20.0446L39.7356 20.2262C39.7136 20.2831 39.693 20.3409 39.6747 20.3997C39.5871 20.6811 39.5454 20.9813 39.5837 21.2757C39.6057 21.4491 39.656 21.6173 39.725 21.7779L39.8535 21.6169C39.8439 21.4955 39.8367 21.3736 39.8353 21.2508C39.8315 21.0831 39.8343 20.9139 39.8549 20.7418H39.8564C39.9278 20.8991 39.9819 21.0596 40.0298 21.2207C40.0787 21.3817 40.1175 21.5447 40.1535 21.7077C40.1635 21.7559 40.1731 21.8037 40.1822 21.8525ZM40.4841 20.2955C40.5311 20.2506 40.5766 20.2033 40.6202 20.155C40.8411 19.9093 41.0208 19.6188 41.1032 19.2972C41.1727 19.0267 41.1741 18.7418 41.1324 18.467C41.1238 18.4064 41.1123 18.3461 41.0989 18.2864L41.0496 18.0953L40.9053 18.2305C40.8622 18.274 40.8205 18.3194 40.7802 18.3657C40.6557 18.5101 40.5459 18.6692 40.4611 18.8403C40.4946 18.9297 40.522 19.0219 40.5421 19.1156C40.6192 19.4721 40.5953 19.8453 40.5095 20.1975C40.5018 20.2305 40.4932 20.263 40.4841 20.2955ZM39.4946 20.0455C39.3676 19.842 39.2694 19.6212 39.2138 19.388C39.1845 19.2642 39.1678 19.138 39.1615 19.0119L39.1611 19.0052C39.0422 18.9187 38.9138 18.8441 38.7811 18.781C38.7255 18.7547 38.6689 18.7304 38.6119 18.7079L38.425 18.642L38.4571 18.8369C38.4691 18.8967 38.4835 18.9564 38.4998 19.0157C38.5779 19.3 38.7044 19.5753 38.8951 19.8028C39.0422 19.9782 39.2243 20.1211 39.4222 20.2353L39.4946 20.0455ZM39.5981 18.0747C39.5765 18.1364 39.5569 18.1985 39.5396 18.2616C39.5233 18.3203 39.5094 18.3801 39.4974 18.4403C39.4395 18.7294 39.4289 19.0324 39.4974 19.3211C39.5315 19.4635 39.5842 19.6006 39.6503 19.7311L39.7514 19.5648L39.7974 19.6087C39.7768 19.4969 39.7586 19.3841 39.7452 19.2704C39.7246 19.1036 39.7097 18.9349 39.7121 18.7619L39.7131 18.7614C39.8008 18.911 39.8712 19.0649 39.9354 19.2202C40.0011 19.3755 40.0567 19.5332 40.1094 19.6919C40.153 19.8305 40.1956 19.97 40.2311 20.111C40.2335 20.1 40.2359 20.089 40.2388 20.0776C40.3102 19.7555 40.3236 19.4142 40.2373 19.0936C40.1645 18.824 40.0255 18.5755 39.854 18.3562C39.8161 18.3079 39.7768 18.2606 39.7361 18.2152L39.5986 18.0728L39.5981 18.0747ZM9.91061 16.7184C9.91061 16.7184 9.65855 16.8957 9.52533 16.9693C9.45633 17.0076 9.38635 17.0444 9.31495 17.0788C9.39162 17.507 9.3993 17.949 9.30586 18.3748C9.20331 18.8422 8.98527 19.279 8.7059 19.6661C8.6805 19.7015 8.65416 19.7364 8.62781 19.7708C8.67908 19.733 8.7294 19.6943 8.77876 19.6537C9.1233 19.3731 9.42423 19.0315 9.62214 18.6315C9.75248 18.3672 9.83727 18.0819 9.88519 17.7913C9.94318 17.4372 9.94895 17.0749 9.91061 16.7184ZM8.40354 19.5849L8.4069 19.5806C8.71454 19.1772 8.95319 18.7113 9.04184 18.209C9.09407 17.9108 9.09405 17.6049 9.05523 17.3053C9.00971 16.9516 8.91197 16.6047 8.77492 16.2759L8.76197 16.2453C8.76005 16.2472 8.75813 16.2491 8.75574 16.251C8.60767 16.3978 8.47063 16.555 8.34604 16.7218C8.24732 16.8542 8.15674 16.9923 8.07576 17.1356C7.92338 17.408 7.80647 17.7019 7.74561 18.0088C7.68523 18.3151 7.68187 18.631 7.71973 18.9407C7.73937 19.1041 7.77101 19.2661 7.81174 19.4257C7.82037 19.4587 7.82946 19.4917 7.83856 19.5242L7.97225 19.3258C8.00052 19.1667 8.03216 19.008 8.06426 18.8499C8.11698 18.6042 8.17258 18.3591 8.23823 18.1158C8.30244 17.8726 8.37336 17.6298 8.46154 17.3904H8.46297C8.46632 17.6455 8.45241 17.8979 8.43229 18.1488C8.41312 18.4002 8.38389 18.6496 8.35227 18.8986C8.32831 19.0697 8.30338 19.2408 8.27511 19.4109L8.40354 19.5849ZM7.52614 16.145L7.52184 16.1521C7.42121 16.3347 7.33398 16.5239 7.26162 16.7189C7.20412 16.8733 7.15619 17.0314 7.11977 17.192C7.04981 17.496 7.02059 17.8109 7.04934 18.122C7.07761 18.4331 7.16387 18.7375 7.28751 19.0238C7.35268 19.1753 7.42887 19.3215 7.51321 19.4635C7.51656 19.4687 7.51992 19.4745 7.52327 19.4802L7.52661 19.4855C7.52038 19.4601 7.51415 19.4348 7.50792 19.4095C7.39195 18.9144 7.36274 18.3935 7.472 17.8945C7.55969 17.4941 7.73172 17.1165 7.95502 16.7734C7.83379 16.5536 7.69097 16.3452 7.5314 16.1517L7.52614 16.145ZM39.2401 18.2563C39.0964 18.0737 38.9775 17.8716 38.8975 17.6527C38.8539 17.5332 38.8223 17.4104 38.8012 17.2857L38.8002 17.2795C38.6718 17.2068 38.5357 17.1481 38.3963 17.1008C38.3383 17.0812 38.2793 17.0635 38.2199 17.0482L38.0268 17.0042L38.0814 17.1944C38.1006 17.2522 38.1217 17.3101 38.1447 17.3669C38.2554 17.6403 38.414 17.8988 38.6301 18.1024C38.7945 18.2573 38.989 18.3767 39.196 18.467L39.2401 18.2563ZM40.2661 18.4059C40.3073 18.3557 40.3466 18.3036 40.3844 18.2506C40.5747 17.9806 40.7189 17.6714 40.763 17.3421C40.7999 17.0654 40.7683 16.7825 40.695 16.5144C40.6787 16.4551 40.6604 16.3968 40.6403 16.3385L40.5684 16.1545L40.4415 16.306C40.4036 16.3543 40.3672 16.404 40.3332 16.4546C40.2263 16.6128 40.1357 16.7834 40.072 16.9631C40.1156 17.0482 40.1535 17.1366 40.1846 17.2274C40.303 17.5724 40.3231 17.9457 40.28 18.306C40.2757 18.3395 40.2713 18.3724 40.2661 18.4059ZM40.0068 18.0828C40.0202 17.797 39.9862 17.5074 39.8794 17.2413C39.7754 16.9822 39.6081 16.7514 39.4122 16.5536C39.369 16.5101 39.324 16.468 39.278 16.4274L39.1251 16.3022L39.0887 16.4962C39.0796 16.5569 39.0724 16.6176 39.0676 16.6788C39.0441 16.9732 39.0695 17.2747 39.1711 17.5533C39.2171 17.678 39.2775 17.7966 39.3489 17.9079L39.4045 17.776L39.4869 17.6025L39.4601 17.6589C39.4428 17.5978 39.4265 17.5361 39.4117 17.4745C39.3709 17.311 39.3369 17.1452 39.3187 16.9732L39.3201 16.9727C39.4246 17.1108 39.5123 17.2556 39.5947 17.4023C39.6776 17.549 39.7514 17.6991 39.8228 17.8501C39.8319 17.8711 39.8415 17.8921 39.8511 17.9132L40.0068 18.0828ZM38.7988 16.4656C38.655 16.3156 38.5304 16.1483 38.4346 15.9634C38.3756 15.8506 38.3287 15.7325 38.2918 15.6116L38.2899 15.6054C38.1533 15.55 38.011 15.5089 37.8667 15.4797C37.8064 15.4678 37.7455 15.4577 37.6846 15.4496L37.4877 15.431L37.5663 15.6121C37.5927 15.6675 37.6209 15.722 37.6511 15.7755C37.7958 16.0327 37.9861 16.2692 38.2266 16.4436C38.392 16.5636 38.5783 16.652 38.7729 16.7141L38.7892 16.5364C38.7921 16.5129 38.7954 16.489 38.7988 16.4656ZM9.96761 16.3146C10.1234 16.1822 10.2657 16.035 10.3893 15.8726C10.5795 15.6231 10.7214 15.3397 10.8235 15.0434C10.9442 14.6912 11.0104 14.3204 11.029 13.949L11.0305 13.9156C11.0276 13.9165 11.0252 13.9175 11.0223 13.9184C10.8254 13.9873 10.6337 14.0704 10.4492 14.1679C10.4267 14.1799 10.4042 14.1918 10.3816 14.2042C10.3912 14.6468 10.3289 15.0922 10.1655 15.5046C10.0036 15.9151 9.74865 16.2845 9.44484 16.6037L9.65999 16.4723C9.75295 16.4193 9.96761 16.3146 9.96761 16.3146ZM39.8875 16.5368C39.9225 16.4814 39.9546 16.425 39.9853 16.3677C40.14 16.0757 40.2435 15.7502 40.245 15.4181C40.2464 15.139 40.1784 14.8623 40.0715 14.6057C40.0476 14.5493 40.0222 14.4933 39.9949 14.4389L39.9 14.2654L39.7931 14.4317C39.762 14.4843 39.7327 14.5383 39.7049 14.5927C39.6192 14.7629 39.5511 14.9435 39.5109 15.1304C39.5655 15.2092 39.6144 15.2919 39.6566 15.3779C39.818 15.7053 39.8861 16.0728 39.8885 16.4355C39.8889 16.469 39.8885 16.5029 39.8875 16.5368ZM9.16164 16.4781C9.27425 16.3653 9.38015 16.2463 9.47742 16.1201C9.65329 15.8926 9.80135 15.6422 9.90438 15.3736C10.0165 15.0807 10.0735 14.7691 10.0879 14.4561C10.1047 14.0843 10.064 13.7101 9.9777 13.3478L9.96954 13.3158C9.96715 13.3177 9.96524 13.3192 9.96285 13.3211C9.79321 13.442 9.6322 13.5753 9.48269 13.7206C9.36433 13.8353 9.25266 13.9571 9.15011 14.0862C8.95029 14.3376 8.78403 14.6171 8.67525 14.9201C8.5727 15.2059 8.52142 15.5084 8.50944 15.8109C8.50561 15.9031 8.50562 15.9949 8.50898 16.0867C8.56696 16.0279 8.62732 15.971 8.68914 15.916L8.85398 15.7784L8.85924 15.7885L8.86404 15.776C8.95557 15.5419 9.0495 15.3091 9.15301 15.0792C9.25556 14.8489 9.36433 14.621 9.48988 14.3983L9.49082 14.3987C9.45392 14.651 9.39978 14.8981 9.3394 15.1428C9.28046 15.3875 9.21195 15.6293 9.14055 15.8702C9.10988 15.9705 9.07824 16.0704 9.04614 16.1698C9.05285 16.1851 9.05907 16.2004 9.06529 16.2162C9.10028 16.3022 9.13241 16.3896 9.16164 16.4781ZM39.5943 16.3242C39.5784 16.014 39.508 15.7029 39.3556 15.4305C39.219 15.1868 39.024 14.9789 38.804 14.8078C38.7556 14.7701 38.7058 14.7342 38.655 14.6998L38.4873 14.5951L38.4763 14.792C38.4749 14.8532 38.4758 14.9149 38.4787 14.976C38.4926 15.2704 38.5563 15.5667 38.6934 15.83C38.7442 15.9285 38.805 16.0217 38.8735 16.1086L38.9588 15.8477L38.9761 15.8587C38.9574 15.8128 38.9387 15.7674 38.9215 15.7211C38.8601 15.5643 38.805 15.4047 38.7652 15.236L38.7662 15.2355C38.8879 15.3588 38.9933 15.4912 39.094 15.6264C39.1951 15.7612 39.2876 15.9008 39.3772 16.0417C39.4146 16.1024 39.4514 16.1626 39.4874 16.2243L39.5943 16.3242ZM9.08878 13.7091C9.00684 13.4802 8.90334 13.2594 8.78259 13.0487L8.7658 13.02C8.76388 13.0224 8.76245 13.0248 8.76053 13.0267C8.6278 13.1963 8.50752 13.3755 8.40257 13.5634C8.32542 13.701 8.25596 13.8429 8.19702 13.9892C8.07962 14.2783 8.00005 14.5846 7.97848 14.8962C7.95692 15.2078 7.99334 15.5218 8.06953 15.8243C8.10978 15.9839 8.16108 16.1411 8.22194 16.2941C8.22529 16.3022 8.22815 16.3098 8.2315 16.318C8.23198 16.3218 8.22767 16.2697 8.22527 16.2405C8.18981 15.733 8.24444 15.2145 8.43229 14.739C8.58275 14.3576 8.81324 14.0126 9.08878 13.7091ZM38.184 14.8221C37.9736 14.6902 37.7814 14.5282 37.6257 14.3347C37.5457 14.2353 37.4762 14.1292 37.4158 14.0178C37.4158 14.0178 37.307 13.9944 37.2539 13.9882C37.1796 13.9796 37.1048 13.9753 37.0296 13.9729C37.0018 13.9724 36.9735 13.9724 36.9453 13.9724C36.893 13.9734 36.8413 13.9753 36.7891 13.9786L36.5921 13.9992C36.6506 14.091 36.7152 14.1789 36.7847 14.263C36.996 14.5172 37.2572 14.7375 37.5639 14.8666C37.7623 14.9502 37.9746 14.9951 38.1888 15.0114L38.184 14.8221ZM38.6541 12.565C38.6411 12.6009 38.5165 13.2322 38.5156 13.3053C38.5846 13.3722 38.6488 13.4439 38.7077 13.5199C38.931 13.809 39.07 14.1555 39.1447 14.5106C39.1519 14.5435 39.1582 14.5765 39.1639 14.61C39.1869 14.5488 39.2075 14.4871 39.2262 14.425C39.3197 14.1082 39.3566 13.7689 39.2924 13.4429C39.2382 13.1691 39.117 12.9115 38.9612 12.6812C38.9267 12.63 38.8908 12.5808 38.8529 12.5321L38.7255 12.381L38.6541 12.565ZM38.8371 14.4718C38.7609 14.1665 38.6292 13.8711 38.4226 13.6307C38.241 13.4186 38.0081 13.2532 37.7589 13.129C37.7038 13.1012 37.6483 13.0759 37.5912 13.0525L37.4062 12.9827L37.4341 13.1782C37.4451 13.2384 37.458 13.2981 37.4729 13.3579C37.5452 13.6437 37.6664 13.9218 37.8528 14.1526C37.9549 14.2793 38.0747 14.3901 38.206 14.4862L38.242 14.2764C38.1773 14.1865 38.1145 14.0953 38.0551 14.0011C37.964 13.8592 37.8782 13.7134 37.8054 13.5562L37.8068 13.5552C37.9501 13.6527 38.08 13.7612 38.205 13.8745C38.3311 13.9863 38.4494 14.1048 38.5654 14.2253C38.6181 14.2821 38.6704 14.339 38.7221 14.3968C38.7609 14.4207 38.7993 14.446 38.8371 14.4718ZM10.2738 13.3354C10.3007 13.453 10.3472 13.6867 10.3472 13.6867C10.7176 13.4401 11.0496 13.129 11.2849 12.7495C11.4402 12.4991 11.5519 12.2229 11.6276 11.9385C11.721 11.5858 11.7613 11.2198 11.756 10.8561L11.7555 10.8226C11.7526 10.8241 11.7502 10.825 11.7474 10.826C11.5552 10.9077 11.3693 11.0028 11.1915 11.1118C11.0511 11.1978 10.9155 11.2924 10.787 11.3961C10.5441 11.5925 10.3261 11.8219 10.1559 12.0848C9.98535 12.3471 9.86461 12.6391 9.78458 12.9407C9.76877 13.0009 9.75438 13.0611 9.74144 13.1218L9.95086 12.9794L10.1353 12.8695L10.1622 12.9483C10.2949 12.7519 10.4301 12.5569 10.5733 12.3662C10.7233 12.1636 10.8795 11.9648 11.0501 11.7751L11.0516 11.7756C10.96 12.014 10.8532 12.2429 10.741 12.4685C10.6299 12.695 10.5101 12.9158 10.3879 13.1357C10.35 13.2016 10.3122 13.268 10.2733 13.334L10.2738 13.3354ZM11.3146 13.5337C11.3175 13.5949 11.3185 13.6207 11.3185 13.6207C11.4411 13.5423 11.5576 13.4544 11.6664 13.3569C11.8978 13.149 12.0905 12.9005 12.2476 12.6329C12.4283 12.3251 12.5644 11.9911 12.6573 11.6465L12.6592 11.6384C12.6568 11.6389 12.654 11.6394 12.6511 11.6394C12.4369 11.6647 12.2246 11.7063 12.0166 11.7641C11.9989 11.7689 11.9812 11.7741 11.9635 11.7794C11.8763 12.2128 11.7176 12.6343 11.4685 13.0014C11.2979 13.2523 11.0894 13.475 10.8565 13.669C10.9447 13.637 11.0343 13.6073 11.1249 13.5825L11.3146 13.5337ZM37.1585 13.2862C36.9807 13.1763 36.8173 13.0439 36.6779 12.8881C36.5921 12.7916 36.5159 12.6874 36.4493 12.577C36.3606 12.565 36.2715 12.5583 36.1819 12.5564C36.1623 12.5564 36.1421 12.556 36.1225 12.556C35.9572 12.5574 35.7923 12.5746 35.6299 12.6052L35.6284 12.6057C35.6917 12.6941 35.7607 12.7787 35.8345 12.8589C36.0583 13.1022 36.3305 13.3091 36.6434 13.4224C36.8283 13.4893 37.0229 13.5237 37.2189 13.5333L37.2184 13.5309C37.1973 13.4587 37.1585 13.2862 37.1585 13.2862ZM10.8096 11.0152C10.8043 10.9722 10.7981 10.9297 10.7914 10.8871C10.7588 10.6816 10.7104 10.479 10.6476 10.2807L10.6447 10.2726C10.6428 10.2745 10.6404 10.2759 10.6385 10.2778C10.3558 10.5091 10.1013 10.7767 9.89142 11.075C9.70741 11.3373 9.55839 11.625 9.46687 11.9323C9.37774 12.2319 9.34418 12.5464 9.35233 12.858C9.35712 13.0229 9.37296 13.1873 9.39883 13.3497C9.40027 13.3583 9.4017 13.3669 9.40313 13.3755L9.41416 13.2977C9.487 12.8145 9.64369 12.339 9.91108 11.9266C10.1454 11.5662 10.4588 11.2628 10.8096 11.0152ZM38.3325 12.6138C38.3613 12.3801 38.3546 12.1421 38.2971 11.9132C38.229 11.6422 38.0949 11.3913 37.9271 11.1686C37.8902 11.1199 37.8514 11.0721 37.8116 11.0257L37.6765 10.8809L37.6147 11.0683C37.5974 11.127 37.5821 11.1868 37.5687 11.2465C37.5279 11.4324 37.5074 11.6245 37.5145 11.8152L37.5189 11.819C37.5893 11.8812 37.6554 11.9476 37.7168 12.0193C37.9544 12.2965 38.1116 12.6358 38.2041 12.9865C38.2113 13.0133 38.218 13.0401 38.2242 13.0663L38.2324 13.0726C38.2362 13.0606 38.2448 13.0262 38.2448 13.0262C38.263 12.8867 38.2932 12.7486 38.3325 12.6138ZM36.3899 11.5505C36.4004 11.615 36.4129 11.679 36.4277 11.7426C36.4416 11.8023 36.4575 11.8616 36.4757 11.9204C36.5624 12.2023 36.698 12.4733 36.8954 12.695C36.9601 12.7672 37.031 12.8336 37.1063 12.8943L37.1024 12.6057L37.1494 12.6162C37.1293 12.5889 37.1091 12.5612 37.0895 12.533C36.9917 12.3963 36.8983 12.2549 36.8178 12.1015L36.8188 12.1005C36.9668 12.1908 37.1024 12.2926 37.2333 12.3987C37.3646 12.5043 37.4887 12.6167 37.6109 12.7313L37.6382 12.7576C37.6775 12.7729 37.7163 12.7892 37.7551 12.8059C37.7896 12.8217 37.8241 12.8374 37.8586 12.8542C37.7661 12.5932 37.6296 12.3462 37.4379 12.1445C37.2452 11.9419 37.0047 11.7889 36.7493 11.6771C36.6932 11.6523 36.6362 11.6298 36.5782 11.6093L36.3894 11.549L36.3899 11.5505ZM35.0927 11.2403C35.0294 11.2413 34.9662 11.2441 34.9029 11.2494L34.6566 11.2814C34.7185 11.3708 34.786 11.4568 34.8584 11.538C35.0779 11.7851 35.3467 11.9963 35.6581 12.1153C35.8565 12.1908 36.0679 12.2286 36.2801 12.2386L36.1958 12.0011C36.0118 11.8855 35.8436 11.7459 35.7013 11.5815C35.6179 11.485 35.545 11.3813 35.4808 11.2718L35.478 11.2666C35.4358 11.2599 35.2163 11.225 35.0927 11.2403ZM26.0882 11.7636C25.412 12.2377 24.4776 12.0762 24.0022 11.4014C23.5269 12.0762 22.5924 12.2377 21.9163 11.7636C21.3489 11.3665 21.13 10.6324 21.3873 9.98966C21.532 10.7552 22.2719 11.2594 23.0396 11.1141C23.444 11.0386 23.7962 10.7901 24.0022 10.4346C24.2083 10.7901 24.5605 11.0386 24.9645 11.1141C25.7326 11.2594 26.4725 10.7552 26.6172 9.98966C26.8745 10.6324 26.6556 11.3665 26.0882 11.7636ZM37.3737 10.8637C37.3665 10.7863 37.3545 10.7098 37.3368 10.6339C37.2735 10.3619 37.1432 10.1086 36.9798 9.88356C36.9434 9.83386 36.906 9.7856 36.8662 9.73876L36.734 9.59157L36.6688 9.77795C36.6505 9.83673 36.6343 9.89552 36.6199 9.95525C36.5763 10.1407 36.5519 10.3323 36.5557 10.523C36.6266 10.587 36.6937 10.6563 36.755 10.7304C36.9596 10.9779 37.101 11.2723 37.1916 11.5791C37.2031 11.5863 37.2146 11.5935 37.2261 11.6006C37.2361 11.421 37.2668 11.2417 37.3123 11.0683C37.3296 11.0018 37.3737 10.8637 37.3737 10.8637ZM35.4363 10.2391C35.4454 10.3041 35.4569 10.3681 35.4708 10.4322C35.4832 10.4919 35.4986 10.5512 35.5153 10.61C35.5978 10.8938 35.7281 11.1672 35.9222 11.3918C35.9763 11.4549 36.0353 11.5132 36.0976 11.5677C36.089 11.5098 36.0822 11.4511 36.0779 11.3928L36.0669 11.1877L36.0904 11.192C36.0051 11.0664 35.9246 10.9368 35.8546 10.7973L35.8556 10.7963C36.0022 10.8891 36.1359 10.9932 36.2648 11.1017C36.3281 11.1548 36.3899 11.2088 36.4507 11.2647L36.7287 11.355C36.7574 11.366 36.7862 11.377 36.8144 11.3889C36.7306 11.1925 36.6189 11.0085 36.4737 10.8508C36.2849 10.6449 36.0468 10.4876 35.7933 10.372C35.7377 10.3462 35.6807 10.3228 35.6232 10.3008L35.4358 10.2377L35.4363 10.2391ZM12.8246 11.3335L12.8437 11.333C12.9885 11.2766 13.1284 11.2092 13.2616 11.1299C13.5391 10.9646 13.783 10.7471 13.9914 10.5015C14.0988 10.3753 14.197 10.2415 14.2871 10.102C14.4035 9.92131 14.5056 9.73112 14.5928 9.5347L14.5966 9.52706L14.3906 9.52371C14.3144 9.52514 14.2382 9.52753 14.1625 9.53279C14.0705 9.53853 13.9785 9.54761 13.8869 9.55955C13.7346 9.97532 13.5132 10.3672 13.2108 10.6922C12.929 10.9947 12.585 11.2336 12.215 11.4167L12.505 11.3655C12.6109 11.3502 12.7177 11.3388 12.8246 11.3335ZM12.0401 11.1787C12.1441 11.129 12.2462 11.0745 12.3449 11.0152C12.584 10.8719 12.8068 10.6989 12.9971 10.4948C13.217 10.2587 13.39 9.98154 13.5213 9.68763C13.5889 9.53662 13.6454 9.38034 13.6924 9.22168C13.7537 9.01523 13.7983 8.80448 13.827 8.59134L13.828 8.58273C13.8251 8.58369 13.8222 8.58417 13.8199 8.58512C13.6176 8.63626 13.4188 8.70173 13.2266 8.78249C13.0742 8.84653 12.9262 8.91917 12.7834 9.00232C12.5131 9.15907 12.2625 9.35262 12.054 9.58632C11.8508 9.81379 11.6898 10.0762 11.5657 10.3538C11.524 10.448 11.4862 10.5431 11.4522 10.6401C11.478 10.6276 11.5039 10.6157 11.5303 10.6038C11.6276 10.5598 11.7272 10.5187 11.8283 10.4838L11.9146 10.4556C12.0799 10.2769 12.2481 10.0996 12.423 9.92801C12.6027 9.75119 12.7872 9.57819 12.9856 9.41666L12.9866 9.41762C12.8596 9.63889 12.7187 9.84915 12.5735 10.0551C12.4288 10.2616 12.2769 10.4618 12.1221 10.6601C12.0962 10.6926 12.0708 10.7247 12.0449 10.7572C12.0468 10.8073 12.0478 10.8575 12.0478 10.9077C12.0483 10.998 12.0454 11.0883 12.0401 11.1787ZM35.2829 10.8393C35.0213 10.6969 34.7812 10.512 34.5929 10.2812C34.511 10.1808 34.4396 10.0728 34.3782 9.95955C34.3255 9.95 34.2723 9.94235 34.2187 9.93661C34.1444 9.92849 34.0696 9.92466 33.9944 9.92323L33.7787 9.92849L33.5569 9.95238C33.6163 10.0437 33.6815 10.1311 33.7515 10.2143C33.9642 10.4676 34.2268 10.686 34.5344 10.8135C34.7165 10.8886 34.9097 10.9316 35.1056 10.9498L35.3275 10.9569C35.3117 10.9182 35.2968 10.879 35.2829 10.8393ZM12.8639 8.62861C12.8711 8.38584 12.8552 8.14259 12.8198 7.90268L12.815 7.87019C12.8126 7.87162 12.8102 7.87306 12.8078 7.87449C12.6281 7.98011 12.4561 8.0991 12.2941 8.23052C12.1662 8.33422 12.0445 8.44605 11.9309 8.56552C11.71 8.79873 11.5197 9.06301 11.3851 9.35501C11.2576 9.63076 11.18 9.92801 11.1416 10.2286C11.1196 10.4006 11.11 10.5746 11.1119 10.7481L11.1349 10.6726C11.2873 10.187 11.5279 9.72395 11.8763 9.34928C12.1561 9.04916 12.4963 8.81117 12.8639 8.62861ZM35.6625 10.0059C35.5901 9.84963 35.4986 9.70244 35.3855 9.5715C35.202 9.36075 34.9686 9.1973 34.7184 9.074C34.6633 9.04724 34.6073 9.02191 34.5503 8.9985L34.3648 8.93064L34.394 9.12561C34.405 9.18583 34.4185 9.24557 34.4338 9.30483C34.5081 9.59061 34.6312 9.86779 34.8186 10.0977C34.9212 10.2229 35.0409 10.3323 35.1722 10.4269C35.1516 10.3218 35.1368 10.2148 35.1291 10.1077V10.1072C35.0918 10.0537 35.0553 9.9997 35.0199 9.94474C34.9279 9.80328 34.8411 9.658 34.7678 9.50125L34.7688 9.50028C34.9125 9.59682 35.0434 9.70483 35.1694 9.81666C35.1996 9.84342 35.2288 9.87018 35.258 9.89694C35.258 9.89694 35.2456 9.89455 35.3088 9.9065C35.3802 9.92083 35.4507 9.93899 35.5206 9.96002C35.5681 9.97388 35.6155 9.98966 35.6625 10.0059ZM37.5768 10.4112L37.5735 10.4083L37.5768 10.4116V10.4112ZM36.2183 10.2697C36.2912 9.97914 36.3137 9.67329 36.2538 9.37843C36.1982 9.10508 36.075 8.84845 35.9174 8.61858C35.8829 8.5684 35.8465 8.51869 35.8081 8.4709L35.6802 8.32036L35.6098 8.50484C35.5896 8.56266 35.5719 8.62143 35.5561 8.68069C35.5072 8.86468 35.4775 9.05537 35.4765 9.24605C35.4765 9.24605 35.6112 9.38511 35.6697 9.45918C35.835 9.67041 35.9553 9.91319 36.0377 10.1679C36.099 10.1994 36.1594 10.2334 36.2183 10.2697ZM34.1956 9.52944C33.9541 9.41235 33.7304 9.25847 33.5444 9.06445C33.4567 8.97221 33.3782 8.87234 33.3087 8.76624L33.3053 8.76098L33.1136 8.75C33.0983 8.74952 33.083 8.74952 33.0676 8.74952C32.8726 8.75095 32.6781 8.77437 32.4873 8.81738H32.4859C32.552 8.90388 32.6244 8.98607 32.7006 9.06397C32.9325 9.29957 33.2114 9.49694 33.5281 9.59969C33.5823 9.61689 33.6369 9.63172 33.692 9.64414C33.7629 9.63793 33.8343 9.6341 33.9053 9.63266C33.9364 9.63219 33.968 9.63219 33.9992 9.63266C34.0782 9.6341 34.1573 9.63841 34.2364 9.64653L34.1956 9.52944ZM34.5857 8.70029C34.5019 8.55262 34.4003 8.41498 34.279 8.29551C34.0797 8.09957 33.8339 7.95478 33.5746 7.85155C33.5176 7.82909 33.4596 7.80806 33.4012 7.78942L33.2109 7.7359L33.2555 7.92802C33.2713 7.98727 33.289 8.04605 33.3091 8.10387C33.4059 8.38296 33.5502 8.64916 33.7553 8.86374C33.8588 8.97174 33.9752 9.06493 34.1013 9.14473L34.0998 9.13709C34.0835 9.0439 34.0715 8.94976 34.0648 8.85513V8.84844C34.0236 8.79826 33.9829 8.7476 33.9436 8.69551C33.8411 8.56218 33.7433 8.42407 33.6575 8.27353L33.6585 8.27258C33.8099 8.35765 33.9484 8.45466 34.0826 8.55645L34.0898 8.56218L34.2464 8.59564C34.3178 8.61189 34.3878 8.63243 34.4568 8.65489C34.5004 8.66923 34.5431 8.68405 34.5857 8.70029ZM35.1526 8.98846C35.2134 8.67449 35.2183 8.34474 35.1296 8.03506C35.0525 7.76696 34.9092 7.52037 34.7343 7.30388C34.6959 7.25609 34.6557 7.20973 34.614 7.16481L34.4745 7.02478L34.4185 7.21451C34.4031 7.27329 34.3902 7.33351 34.3792 7.39372C34.3447 7.58106 34.3303 7.77365 34.3442 7.96385C34.418 8.02454 34.4884 8.09002 34.5531 8.16123C34.7482 8.37342 34.8938 8.62574 34.9983 8.89336C35.0505 8.92347 35.1023 8.95501 35.1526 8.98846ZM14.1371 8.41068C14.1314 8.51152 14.1194 8.61189 14.104 8.71129C14.0983 8.75048 14.0916 8.78965 14.0849 8.82884C14.197 8.74043 14.3 8.64008 14.3887 8.5273C14.5616 8.30699 14.6786 8.04653 14.7519 7.77748C14.7682 7.71822 14.7821 7.658 14.7941 7.59778L14.8262 7.40185C14.8252 7.40232 14.8247 7.40233 14.8238 7.40233C14.7615 7.4224 14.6992 7.44438 14.6383 7.46828C14.5813 7.49074 14.5248 7.51558 14.4692 7.54187C14.2013 7.66947 13.9512 7.84343 13.7604 8.07186C13.6871 8.15931 13.6234 8.25346 13.5683 8.35239L13.5774 8.35C13.6943 8.31559 13.8131 8.28547 13.9334 8.26253L13.9881 8.25298C14.1064 8.1402 14.2291 8.03076 14.3652 7.93232L14.3661 7.93278C14.3005 8.08762 14.2224 8.23243 14.1385 8.37294L14.1371 8.41068Z" fill="#4E4E4E"/>
</svg>
