<svg width="48" height="48" viewBox="0 0 48 48" fill="none" xmlns="http://www.w3.org/2000/svg">
<path fill-rule="evenodd" clip-rule="evenodd" d="M26.1324 0L13.8283 7.58904C13.4335 8.18399 13.1798 8.88961 13.1798 9.74722C13.1798 11.7878 14.8506 12.6283 16.5275 13.3737L22.2238 15.9034C21.2905 15.4553 20.2433 14.9187 20.2433 14.2228C20.2433 13.6116 20.7861 13.213 21.1897 12.9668L25.7468 10.1895C27.8162 8.9332 29.0419 7.29715 29.0419 4.84708C29.0419 2.55798 27.6075 0.844099 26.1324 0ZM27.482 27.225C28.3846 27.6384 28.6914 27.9644 28.6914 28.481C28.6914 28.9775 28.259 29.4339 26.9211 30.1792L25.3262 31.0814L34.6857 35.274C35.3245 34.7262 35.7724 33.9273 35.7724 33.1335C35.7724 31.7372 35.1216 30.626 33.0381 29.6839L27.482 27.225ZM8.5 41.9078L14.4593 38.3167L23.7487 42.5092L17.8245 46.2949C16.5802 47.043 15.4514 47.4801 14.2665 47.4801C11.2003 47.4801 8.6473 44.9553 8.5 41.9078Z" fill="#80B0D5"/>
<path fill-rule="evenodd" clip-rule="evenodd" d="M24.8896 15.6181L35.8091 8.98438C37.2845 9.84326 38.7361 11.5257 38.7361 13.8138C38.7361 16.2636 37.5436 17.9498 35.4235 19.1562L34.2842 19.8107L24.8896 15.6181ZM13.0938 25.0469C13.0938 23.905 13.4285 23.3072 13.9701 22.7119L23.3647 26.8867L21.0336 28.2312C20.3931 28.629 19.9469 28.9888 19.9469 29.4872C19.9469 30.0262 20.5616 30.4731 21.3841 30.8493L16.9497 28.8857C16.865 28.8475 16.7805 28.8095 16.6963 28.7717C14.8099 27.9252 13.0938 27.155 13.0938 25.0469Z" fill="#A2D993"/>
<path d="M13.8315 7.58594C11.2565 9.17415 9.625 11.3308 9.625 14.6266C9.625 18.2059 11.8483 20.2546 15.409 21.8441L33.0414 29.6808C35.1232 30.6229 35.7757 31.7359 35.7757 33.1304C35.7757 33.9251 35.3277 34.7231 34.689 35.2709L35.7231 34.6164C37.941 33.2236 39.3337 31.3324 39.3337 28.3364C39.3337 24.4944 36.807 22.3878 33.6899 20.995L16.5307 13.3706C14.8539 12.6252 13.183 11.7847 13.183 9.74412C13.183 8.88651 13.4368 8.18089 13.8315 7.58594Z" fill="#086DA9"/>
<path d="M37.3903 47.9384C35.0245 46.0996 32.5009 44.8558 29.4326 43.4509L15.2529 37.1188C11.6904 35.5165 9.32812 33.3801 9.32812 29.7852C9.32812 26.2908 11.0041 24.599 13.1826 23.2092L13.97 22.7109C13.4283 23.3063 13.0849 23.9043 13.0849 25.0462C13.0849 27.2484 14.957 27.9938 16.9403 28.8882L33.437 36.2254C36.3066 37.4689 38.9327 39.6081 38.9327 43.2508C38.9327 45.2534 38.1778 47.0452 37.3903 47.9384Z" fill="#35AF3B"/>
</svg>
