<svg width="53" height="31" viewBox="0 0 53 31" fill="none" xmlns="http://www.w3.org/2000/svg">
<g clip-path="url(#clip0_7099_2337)">
<path d="M1.30815 13.157C2.24868 11.7608 3.75064 10.8106 5.35339 10.5358C6.01762 10.4977 6.68464 10.4998 7.3496 10.5343C8.71376 10.7645 10.0073 11.4773 10.9444 12.547C11.789 13.5058 12.3573 14.7387 12.5177 16.0356C12.5458 16.5147 12.5375 16.9952 12.5389 17.475C12.5396 19.4826 12.5375 21.4901 12.5403 23.4985C11.573 23.4985 10.6058 23.5035 9.6392 23.4956C9.64537 23.1158 9.64126 22.736 9.64265 22.3562C8.82208 22.8158 7.93981 23.1935 7.00409 23.2676C6.54618 23.2827 6.08823 23.2848 5.63101 23.2618C4.24215 23.0892 2.89992 22.4231 1.92717 21.3621C1.06 20.4673 0.476624 19.2804 0.253832 18.0281C0.133182 17.421 0.166772 16.7952 0.185966 16.1795C0.312786 15.0955 0.69119 14.0388 1.30815 13.157ZM5.38629 13.6389C4.39571 13.946 3.57241 14.7797 3.25296 15.8112C3.05484 16.3162 3.11655 16.8736 3.12545 17.4059C3.29545 18.6496 4.20172 19.7264 5.33966 20.1033C5.80513 20.2903 6.31034 20.2637 6.79913 20.2443C8.13655 20.0709 9.32251 18.9474 9.57476 17.5505C9.60425 17.0937 9.60425 16.6334 9.57271 16.1766C9.31564 14.8711 8.25721 13.7878 7.00545 13.554C6.46801 13.5418 5.90728 13.4677 5.38629 13.6389Z" fill="#1B1B1F"/>
<path d="M15.0272 8.92031C15.7847 8.14849 16.7904 7.65361 17.8364 7.51838C18.6968 7.48601 19.5585 7.50687 20.4188 7.50399C20.4126 8.50887 20.425 9.51374 20.4133 10.5186C19.6688 10.5675 18.9203 10.5121 18.1751 10.546C17.4985 10.6474 16.8884 11.1401 16.621 11.8012C16.377 12.3298 16.5525 12.9312 16.4668 13.4915C16.6642 13.5692 16.8774 13.5491 17.0838 13.5512C17.8844 13.5491 18.6844 13.5527 19.4851 13.5491C19.5873 13.5519 19.6935 13.5433 19.7915 13.5829C19.7909 14.5 19.7881 15.4171 19.7922 16.3342C19.8135 16.4393 19.7833 16.522 19.7011 16.5824C18.631 16.5817 17.5609 16.586 16.4908 16.5795C16.4853 18.6777 16.4887 20.7767 16.4894 22.8749C16.4778 23.0763 16.5381 23.3065 16.3962 23.4734C15.4475 23.4971 14.4939 23.4432 13.5465 23.5C13.5355 21.3493 13.5445 19.1993 13.5417 17.0485C13.5486 15.3696 13.528 13.6908 13.5534 12.0119C13.6781 10.8445 14.2094 9.72522 15.0272 8.92031Z" fill="#1B1B1F"/>
<path d="M25.9174 10.6929C26.3787 10.613 26.8462 10.6584 27.311 10.6454C27.3241 11.6898 27.3206 12.735 27.3131 13.7802C26.7126 13.8068 26.0716 13.6715 25.5143 13.9722C24.8747 14.2916 24.3743 15.0073 24.4216 15.7705C24.425 18.3435 24.4175 20.9164 24.4257 23.4894C23.4255 23.5103 22.4247 23.4937 21.4238 23.498C21.4142 20.9215 21.4218 18.3456 21.4197 15.7698C21.406 14.4412 21.9455 13.1205 22.8552 12.1984C23.6634 11.3367 24.7698 10.7979 25.9174 10.6929ZM25.0982 10.9425C23.296 11.3957 21.8228 13.0573 21.5445 14.9836C21.4684 15.7223 21.5129 16.4668 21.5006 17.2084C21.5054 19.2764 21.4917 21.3451 21.5075 23.4131C22.4446 23.4146 23.383 23.4405 24.3194 23.3981C24.2968 20.9035 24.3208 18.4089 24.3071 15.9144C24.2776 15.0181 24.8432 14.1463 25.6404 13.8291C26.1402 13.6075 26.6934 13.6672 27.2219 13.6672C27.2411 12.7069 27.2315 11.7459 27.2274 10.785C26.5165 10.777 25.7858 10.7065 25.0982 10.9425Z" fill="#02704D"/>
<path d="M31.3201 11.3359C32.0082 10.9079 32.7699 10.6044 33.5632 10.4864C34.2247 10.4548 34.8896 10.4497 35.5511 10.4915C36.7061 10.6929 37.8058 11.2381 38.6804 12.0574C39.8705 13.1543 40.6266 14.7584 40.7234 16.4186C40.7364 18.7578 40.713 21.097 40.735 23.4354C40.4787 23.534 40.2029 23.488 39.9371 23.4973C39.2356 23.4894 38.533 23.5117 37.8324 23.4851C37.6934 23.0988 37.9428 22.6924 37.7716 22.3119C36.9899 22.7988 36.1112 23.1204 35.207 23.2196C34.5647 23.2275 33.9122 23.2779 33.2808 23.129C32.1831 22.8916 31.146 22.3457 30.32 21.5494C28.9112 20.2273 28.1482 18.1744 28.3525 16.2028C28.5246 14.2031 29.6817 12.3559 31.3201 11.3359ZM33.6535 13.5593C32.3045 13.9334 31.2358 15.2993 31.2598 16.7811C31.2283 17.4961 31.4579 18.2111 31.8536 18.7901C32.3531 19.5512 33.1771 20.0439 34.0381 20.1935C34.3822 20.2151 34.7292 20.2187 35.0732 20.1878C35.6244 20.0748 36.1564 19.8346 36.5966 19.4663C37.2231 18.952 37.6372 18.178 37.7722 17.3601C37.7942 17.0465 37.7913 16.7322 37.7803 16.4186C37.6198 14.7965 36.166 13.3867 34.5899 13.4859C34.2779 13.4974 33.9559 13.4622 33.6535 13.5593Z" fill="#1B1B1F"/>
<path d="M41.7445 7.5249C42.726 7.52706 43.7073 7.52634 44.6882 7.5249C44.6943 10.008 44.6758 12.4925 44.6978 14.9741C44.8704 15.2294 45.105 15.4287 45.3167 15.6473C46.6556 17.0234 47.9814 18.4131 49.312 19.7978C50.4875 21.004 51.6584 22.2154 52.8334 23.4224C52.7115 23.4598 52.5901 23.5087 52.4618 23.4986C51.2272 23.4907 49.992 23.5058 48.7573 23.4914C48.5847 23.3843 48.4579 23.2173 48.3139 23.0749C47.152 21.8499 45.968 20.6473 44.7855 19.4446C44.7609 19.4582 44.7122 19.4856 44.6873 19.4985C44.6902 20.8293 44.6862 22.1607 44.6894 23.4914C43.7614 23.5022 42.8332 23.4965 41.905 23.495C41.7831 23.5072 41.7144 23.3684 41.7405 23.2576C41.746 18.0131 41.737 12.7687 41.7445 7.5249Z" fill="#1B1B1F"/>
<path d="M25.4258 10.9264C26.109 10.6904 26.8352 10.761 27.5416 10.7689C27.5457 11.7298 27.5552 12.6908 27.5362 13.6511C27.011 13.6511 26.4612 13.5914 25.9646 13.813C25.1724 14.1302 24.6104 15.002 24.6397 15.8983C24.6533 18.3928 24.6295 20.8874 24.652 23.382C23.7214 23.4244 22.7888 23.3985 21.8577 23.397C21.842 21.329 21.8556 19.2603 21.8508 17.1923C21.8631 16.4507 21.8188 15.7062 21.8944 14.9675C22.171 13.0412 23.6349 11.3796 25.4258 10.9264Z" fill="#1B1B1F"/>
<path d="M47.7903 12.6167C48.0799 12.339 48.323 11.9995 48.6454 11.7643C49.9819 11.7549 51.3199 11.752 52.657 11.7657C52.499 12.0311 52.2707 12.234 52.063 12.4534C51.2422 13.3122 50.4234 14.1747 49.6032 15.0343C49.3367 15.3069 49.0909 15.604 48.787 15.832C48.1884 15.1673 47.5555 14.5372 46.9416 13.8877C46.8832 13.8165 46.7488 13.6992 46.8524 13.6064C47.1454 13.2568 47.4858 12.9554 47.7903 12.6167Z" fill="#02704D"/>
</g>
<defs>
<clipPath id="clip0_7099_2337">
<rect width="52.6668" height="16" fill="white" transform="translate(0.166626 7.5)"/>
</clipPath>
</defs>
</svg>
