<svg width="32" height="33" viewBox="0 0 32 33" fill="none" xmlns="http://www.w3.org/2000/svg">
<path d="M25.6553 3.21284C29.1237 5.89107 31.2428 9.64537 31.9658 14.0472C31.9912 14.6831 32.0012 15.3198 31.9999 15.9562C31.9999 16.5231 31.9999 16.5231 31.9998 17.1015C31.9983 17.5065 31.9967 17.9116 31.9951 18.3289C31.9946 18.75 31.9941 19.1712 31.9938 19.5923C31.9927 20.6971 31.9897 21.8019 31.9864 22.9067C31.9833 24.0356 31.982 25.1644 31.9804 26.2932C31.9772 28.5054 31.9721 30.7176 31.9658 32.9299C29.7452 32.9443 27.5247 32.9552 25.3041 32.9619C24.2727 32.9651 23.2413 32.9695 22.2099 32.9766C21.0209 32.9847 19.8319 32.9876 18.6428 32.9903C18.2771 32.9935 17.9113 32.9967 17.5345 33C12.4491 33.0007 8.30116 31.6286 4.58381 27.9686C1.69478 24.8575 0.16382 20.8391 0 16.5429C0.19838 11.4913 2.0028 7.4048 5.57218 3.94923C11.3411 -1.04262 19.5426 -1.31787 25.6553 3.21284ZM13.9357 4.45104C13.5427 6.92317 13.2189 9.38208 13.0342 11.8803C14.374 11.4448 15.6394 10.9156 16.9196 10.3204C17.1105 10.232 17.3014 10.1436 17.498 10.0524C18.1014 9.7726 18.7043 9.49153 19.3072 9.21041C19.7188 9.01928 20.1304 8.82822 20.542 8.63726C21.5457 8.17145 22.5489 7.70454 23.5518 7.23702C22.7345 6.36722 22.0853 5.79175 20.9975 5.32166C20.7713 5.2215 20.5451 5.12135 20.312 5.01815C18.8944 4.47054 17.6228 4.4126 16.1144 4.4317C15.9048 4.43309 15.6952 4.43449 15.4793 4.43593C14.9648 4.43956 14.4502 4.44511 13.9357 4.45104ZM7.58295 7.83435C6.31565 9.24767 5.6401 10.7381 4.9207 12.4994C5.6958 13.1073 6.47253 13.7128 7.24958 14.318C7.46883 14.49 7.68808 14.662 7.91397 14.8392C8.12702 15.0048 8.34007 15.1704 8.55958 15.341C8.75471 15.4934 8.94985 15.6458 9.1509 15.8028C9.72428 16.2109 10.3005 16.5287 10.9307 16.8331C11.0753 15.5112 11.219 14.1891 11.3627 12.867C11.4032 12.4969 11.4436 12.1268 11.4854 11.7455C11.7265 9.52232 11.9469 7.29895 12.1327 5.07015C10.5301 5.07015 8.72592 6.77298 7.58295 7.83435ZM23.4097 9.08466C23.1395 9.21035 22.8693 9.33605 22.591 9.46555C22.3068 9.59843 22.0227 9.73131 21.73 9.86821C21.4447 10.0011 21.1594 10.134 20.8654 10.2709C20.158 10.6005 19.4508 10.9306 18.7437 11.2612C18.7437 11.4655 18.7437 11.6698 18.7437 11.8803C19.4143 12.426 19.4143 12.426 20.2791 12.9915C20.5991 13.2088 20.919 13.4261 21.2487 13.6499C21.5906 13.8792 21.9326 14.1083 22.2746 14.3374C22.9371 14.7845 23.5989 15.2327 24.2607 15.6808C24.5566 15.8795 24.8524 16.0782 25.1573 16.2829C25.9558 16.8331 25.9558 16.8331 26.6064 17.3695C27.1697 17.8498 27.1697 17.8498 28.0593 17.7618C28.2758 14.4722 27.4711 11.4499 25.4358 8.87547C25.3099 8.74339 25.184 8.61131 25.0543 8.47522C24.474 8.47522 23.9277 8.84304 23.4097 9.08466ZM4.3197 14.6663C4.12962 18.4808 4.99728 21.0865 7.02421 24.2624C8.57758 24.0571 9.91578 23.3587 11.3251 22.6953C11.5763 22.5786 11.8275 22.4619 12.0864 22.3416C12.7035 22.0546 13.3199 21.7662 13.9357 21.4764C13.1326 20.6116 12.3191 19.8945 11.365 19.2128C11.1059 19.0269 10.8467 18.8409 10.5797 18.6493C10.1771 18.3632 10.1771 18.3632 9.76628 18.0713C9.50016 17.8806 9.23404 17.6899 8.95986 17.4934C8.21609 16.9613 7.47015 16.4326 6.72371 15.9045C6.53535 15.7688 6.34699 15.6331 6.15293 15.4934C5.31473 14.8535 5.31473 14.8535 4.3197 14.6663ZM21.4482 15.9045C21.0616 18.2647 20.7557 20.6253 20.5092 23.0048C20.4697 23.3782 20.4697 23.3782 20.4295 23.7591C20.2977 25.0686 20.2175 26.3488 20.2462 27.6675C23.5711 26.0768 25.3962 24.5212 27.1578 21.1669C27.2662 20.7563 27.368 20.3438 27.4583 19.9287C26.6828 19.3727 25.9062 18.8186 25.1294 18.2648C24.9101 18.1076 24.6909 17.9504 24.465 17.7884C24.2519 17.6368 24.0389 17.4851 23.8194 17.3289C23.6243 17.1895 23.4291 17.0501 23.2281 16.9064C22.6515 16.5244 22.0666 16.2081 21.4482 15.9045ZM16.5452 21.873C16.3255 21.9761 16.1058 22.0792 15.8794 22.1853C15.175 22.516 14.4708 22.8475 13.7667 23.179C13.2903 23.4027 12.814 23.6264 12.3376 23.8501C11.1672 24.3996 9.99711 24.9499 8.82721 25.5006C10.6226 27.3976 12.3149 28.2671 14.9194 28.3628C16.096 28.376 17.2679 28.3413 18.4432 28.2866C18.5453 27.5129 18.6451 26.7391 18.7437 25.9649C18.7724 25.7495 18.8011 25.534 18.8306 25.312C19.019 23.8145 19.0707 22.3674 19.0442 20.8573C18.2339 20.8573 17.2878 21.5228 16.5452 21.873Z" fill="#EE3226"/>
</svg>
