<svg width="43" height="28" viewBox="0 0 43 28" fill="none" xmlns="http://www.w3.org/2000/svg">
<path d="M20.3156 0.0012207C25.993 0.0012207 31.6704 0.00883573 37.3487 0.0012207C38.6137 0.00788385 39.8968 0.391491 40.8946 1.18536C42.0892 2.12201 42.8178 3.59551 42.9434 5.09853C43.0223 7.57341 42.9947 10.0502 42.9976 12.527C42.9985 15.7938 42.9928 19.0607 42.9852 22.3275C42.9662 23.1719 42.8378 24.0276 42.4849 24.8015C41.8229 26.2807 40.4913 27.4934 38.8867 27.8342C37.9498 28.0702 36.9787 27.9779 36.0238 27.996C32.8041 27.9874 29.5845 28.0207 26.3658 27.976C30.2731 25.9789 34.2052 24.0295 38.1182 22.0429C39.4897 21.3861 40.1574 19.5699 39.4907 18.1926C38.2922 15.6263 37.0491 13.08 35.8183 10.529C35.4987 9.91408 35.26 9.2373 34.7749 8.72519C34.2014 8.10456 33.3425 7.79425 32.5074 7.81614C31.8787 7.85708 31.2956 8.12741 30.762 8.44534C31.2718 9.82651 31.8482 11.182 32.3856 12.5527C32.8108 13.5445 33.2093 14.6164 33.0077 15.7129C32.846 17.155 31.9547 18.5181 30.6022 19.0959C26.0481 21.0596 21.4398 22.8968 16.8838 24.8567C17.3309 25.9237 17.8768 26.947 18.36 27.9979C14.0389 27.9941 9.71692 28.0017 5.39586 27.9998C4.18695 27.9893 2.97614 27.6028 2.03831 26.829C0.747601 25.8028 0.0380459 24.1504 0 22.5198C0 19.726 0.00380529 16.9313 0.00665873 14.1366C0.0152191 13.6607 -0.00760941 13.1819 0.053264 12.7078C0.663901 14.3546 1.17276 16.0385 1.76533 17.6909C2.27705 19.0245 3.83122 19.8764 5.22465 19.4738C6.36603 19.1178 7.48553 18.6933 8.61739 18.3087C13.0155 16.7762 17.4108 15.2332 21.8155 13.7197C22.9892 13.3313 23.8329 12.1443 23.831 10.9097C23.8367 10.3167 23.655 9.7456 23.462 9.19161C22.8437 7.33354 22.2226 5.47738 21.5977 3.62217C21.1773 2.41233 20.8187 1.17965 20.3156 0.0012207ZM23.2023 4.10572C23.7568 5.80292 24.3246 7.49631 24.8982 9.18685C25.5754 10.9459 25.057 13.1457 23.5647 14.326C22.8599 14.8953 21.9687 15.1228 21.1335 15.4245C16.9903 16.8771 12.8405 18.3116 8.70205 19.7755C9.06348 20.7151 9.4506 21.6441 9.82155 22.5798C10.0641 23.1937 10.377 23.8134 10.9211 24.2142C11.759 24.8681 12.9499 24.9833 13.9181 24.5663C19.0153 22.4322 24.1163 20.3048 29.2164 18.1773C29.6739 17.9832 30.1571 17.8204 30.5518 17.5072C31.3355 16.9056 31.794 15.8995 31.7055 14.9124C31.6618 14.4041 31.4668 13.9282 31.2775 13.4598C30.2332 10.8583 29.186 8.25686 28.1445 5.65348C27.9713 5.19848 27.7611 4.74538 27.4197 4.39128C26.8652 3.81825 26.0919 3.42132 25.2834 3.4356C24.5415 3.45844 23.8538 3.77923 23.2023 4.10572Z" fill="#0F53D9"/>
</svg>
