<svg width="32" height="29" viewBox="0 0 32 29" fill="none" xmlns="http://www.w3.org/2000/svg">
<path d="M17.5032 23.1228L20.2635 28.2718C20.6038 28.9062 21.3534 29.1715 21.9966 28.8842C23.2962 28.3032 24.5006 27.5387 25.5815 26.6222C26.2064 26.0916 26.2561 25.1195 25.6848 24.527L23.1747 21.9284C19.211 17.826 12.7859 17.826 8.82323 21.9284L6.31314 24.527C5.74183 25.1184 5.79046 26.0916 6.41646 26.6222C7.49728 27.5387 8.70167 28.3032 10.0013 28.8842C10.6445 29.1726 11.3951 28.9062 11.7344 28.2718L14.4947 23.1228C15.1501 21.9011 16.8478 21.9011 17.5032 23.1228Z" fill="#0E53D9"/>
<path d="M17.5032 5.87734L20.2635 0.728373C20.6038 0.0939286 21.3534 -0.171384 21.9966 0.115951C23.2962 0.696914 24.5006 1.46139 25.5815 2.37793C26.2064 2.90856 26.2561 3.88067 25.6848 4.47317L23.1747 7.07177C19.211 11.1742 12.7859 11.1742 8.82323 7.07177L6.31314 4.47317C5.74183 3.88172 5.79046 2.90856 6.41646 2.37793C7.49728 1.46139 8.70167 0.696914 10.0013 0.115951C10.6445 -0.172433 11.3951 0.0939286 11.7344 0.728373L14.4947 5.87734C15.1501 7.10009 16.8478 7.10009 17.5032 5.87734Z" fill="#0E53D9"/>
<path d="M29.4601 11.0967L20.4944 12.266C17.5103 12.6551 14.4897 12.6551 11.5055 12.266L2.53992 11.0967C1.80249 11.0003 1.1228 11.533 1.01847 12.2954C0.920212 13.0158 0.869568 13.752 0.869568 14.4997C0.869568 15.2484 0.920212 15.9846 1.01847 16.705C1.12179 17.4674 1.80148 18.0001 2.53992 17.9036L11.5055 16.7354C14.4897 16.3464 17.5103 16.3464 20.4944 16.7354L29.4601 17.9047C30.1975 18.0012 30.8772 17.4684 30.9815 16.7061C31.0798 15.9856 31.1304 15.2495 31.1304 14.5007C31.1304 13.753 31.0798 13.0168 30.9815 12.2964C30.8772 11.533 30.1985 11.0003 29.4601 11.0967Z" fill="#0E53D9"/>
</svg>
