<svg xmlns:xlink="http://www.w3.org/1999/xlink"
    style="shape-rendering:geometricPrecision; text-rendering:geometricPrecision; image-rendering:optimizeQuality; fill-rule:evenodd; clip-rule:evenodd"
    height="29px" version="1.1" viewBox="0 0 33px 29px" width="33px"
    xmlns="http://www.w3.org/2000/svg">
    <g>
        <path style="opacity:0.968"
            d="M20.7 -0.1h5.8q4.569 1.068 6.4 5.4v6.8h-7.8q0.05 -3.202 -0.1 -6.4 -0.386 -1.269 -1.7 -0.9l-0.5 0.5q-0.248 9.313 0.1 18.6 0.939 0.784 1.9 0l0.2 -0.6q0.15 -3.198 0.1 -6.4h7.8v7q-1.655 3.656 -5.4 5h-7.8q-3.553 -1.304 -4.5 -5a122.6 122.6 0 0 1 -0.1 -7l0.2 -0.4q2.105 -0.655 2.7 -2.8a110.6 110.6 0 0 0 0 -9.4 14.4 14.4 0 0 0 -1.1 -2v-0.4q1.779 -1.291 3.8 -2"
            fill="#990000" />
    </g>
    <g>
        <path style="opacity:0.975"
            d="M16.9 1.9v0.4q-1.049 1.094 -1.5 2.6 -0.15 5.799 -0.1 11.6l-0.2 0.4a17.46 17.46 0 0 1 -5.2 0.6v11.2h-7.4q-0.05 -14.1 0.1 -28.2A99.8 99.8 0 0 1 13.5 0.4q1.963 0.202 3.4 1.5m-6.8 3.4q1.226 -0.012 1.9 1 1.588 3.132 -0.5 5.9a3.56 3.56 0 0 1 -1.4 0.3z"
            fill="#2c2c2c" />
    </g>
    <g>
        <path style="opacity:1"
            d="M16.9 2.3a14.4 14.4 0 0 1 1.1 2 110.6 110.6 0 0 1 0 9.4q-0.595 2.145 -2.7 2.8 -0.05 -5.801 0.1 -11.6 0.451 -1.506 1.5 -2.6"
            fill="#535252" />
    </g>
    <g>
        <path style="opacity:0.762" d="M0.7 4.5q0.493 -0.064 0.9 0.2 0.15 9.8 0.1 19.6h-1z"
            fill="#6e6c6c" />
    </g>
</svg>