<svg width="33" height="33" viewBox="0 0 33 33" fill="none" xmlns="http://www.w3.org/2000/svg">
<path d="M2.84778 7.16546C5.76064 2.71041 10.8914 0.155771 16.0342 0C20.8869 0.330234 25.7759 2.5671 28.6646 6.72307C28.7553 8.16863 26.7549 8.23093 25.8545 8.92879C23.9146 6.71061 21.4852 4.77282 18.5724 4.19958C13.6108 3.04065 8.04499 5.35852 5.44035 9.90703C2.52749 14.6175 3.18017 21.2472 6.95721 25.2536C7.54945 25.9577 8.56471 26.3564 9.44703 26.02C12.4505 24.8486 15.0431 22.7426 18.1191 21.7581C19.642 21.2721 21.0078 22.4061 21.6242 23.7519C18.6388 25.4592 15.5024 26.8985 12.6741 28.8675C17.4725 30.0451 22.996 28.3565 25.8303 24.0573C27.8548 21.2596 28.3383 17.6893 28.1509 14.2873C24.6156 15.7952 21.31 17.8264 17.8593 19.5399C16.0765 20.3935 13.9916 22.026 12.0335 20.7113C9.94862 19.4277 7.89996 18.0757 5.94194 16.6052C7.24124 15.7453 8.40759 14.4306 10.0151 14.2312C11.9066 14.6923 13.5202 15.9572 15.4299 16.3373C17.2308 16.0132 18.7114 14.7546 20.3551 14.0007C23.0383 12.686 25.6249 11.1781 28.2778 9.81357C29.7524 8.94125 31.789 8.99733 32.913 10.4429C33.3542 11.608 32.0065 11.876 31.3478 12.443C32.073 16.0319 31.9522 19.8639 30.4413 23.2286C28.5196 27.8394 24.3981 31.3598 19.6722 32.5063C13.2966 34.2509 6.00841 31.2476 2.55167 25.4592C-0.86278 20.0134 -0.9353 12.443 2.84778 7.16546Z" fill="#23C879"/>
</svg>
