<svg width="33" height="29" viewBox="0 0 33 29" fill="none" xmlns="http://www.w3.org/2000/svg">
<path d="M22.5649 1.94727H25.4118C25.4206 3.94205 25.4271 5.93684 25.4118 7.93162C23.5102 7.93162 21.6086 7.93382 19.707 7.93162C19.6982 6.93861 19.696 5.94341 19.7004 4.95041C20.6523 4.94383 21.6086 4.93944 22.5649 4.94164C22.5649 3.94205 22.5627 2.94466 22.5649 1.94727Z" fill="#18C492"/>
<path d="M0 4.94565C1.02648 4.93031 2.05734 4.92811 3.08382 4.94784C3.0882 7.94441 3.07724 10.941 3.0882 13.9375C3.05092 15.1256 4.08178 16.2896 5.28372 16.2326C6.41548 16.2831 7.46828 15.2594 7.45292 14.1085C7.51872 12.4995 7.45073 10.8862 7.4924 9.27499C8.51888 9.25965 9.54536 9.25527 10.574 9.28376C10.6201 11.0199 10.5148 12.7582 10.6311 14.4943C10.8592 15.7898 12.3704 16.568 13.5635 16.1143C14.2259 15.8271 14.7523 15.2046 14.8861 14.4834C15.0901 13.4991 14.908 12.4973 14.9453 11.5065C15.985 11.4956 17.0246 11.4956 18.0642 11.5065C18.1585 12.8919 17.6607 14.5995 18.7968 15.6758C19.9176 16.853 22.1789 16.077 22.3785 14.4636C22.5101 13.098 22.4443 11.7235 22.4224 10.3579C23.4313 10.1299 24.4775 10.3031 25.504 10.2527C25.5786 11.7104 25.4119 13.1791 25.6312 14.6302C25.9032 15.7876 27.217 16.5088 28.3356 16.1713C29.2151 15.9148 29.895 15.0511 29.917 14.1217C29.9828 12.4119 29.9148 10.6976 29.9543 8.98783C30.9632 8.98345 31.9743 8.98564 32.9832 8.98564C33.0052 10.8116 33.0052 12.6398 32.9854 14.4658C32.8802 17.3769 30.0047 19.7838 27.1578 19.3498C25.9602 19.2687 24.9162 18.6198 23.9665 17.9424C23.1045 18.5847 22.1679 19.2029 21.0801 19.33C19.4526 19.6216 17.7594 19.0253 16.553 17.9118C15.6428 18.565 14.6755 19.227 13.5328 19.341C11.9054 19.626 10.2648 18.9815 9.0387 17.914C7.93545 18.8259 6.56682 19.4901 5.11484 19.4002C2.44556 19.387 0.00658012 16.9889 0.0087733 14.2729C0.00438637 11.1646 0.0131602 8.05401 0 4.94565Z" fill="#18C492"/>
<path d="M2.30737 21.1543C4.22215 21.1455 6.13692 21.1455 8.05169 21.1565C8.05169 23.1206 8.06047 25.0847 8.04511 27.0488C7.05154 27.0575 6.05796 27.0509 5.06438 27.04C5.06 26.0842 5.06877 25.1263 5.05561 24.1706C4.14538 24.1728 3.23296 24.1574 2.32053 24.164C2.30518 23.16 2.30518 22.1561 2.30737 21.1543Z" fill="#18C492"/>
</svg>
