<svg width="146" height="67" viewBox="0 0 146 67" fill="none" xmlns="http://www.w3.org/2000/svg">
<g clip-path="url(#clip0_7385_3159)">
<mask id="mask0_7385_3159" style="mask-type:luminance" maskUnits="userSpaceOnUse" x="0" y="0" width="146" height="67">
<path d="M146 0H0V67H146V0Z" fill="white"/>
</mask>
<g mask="url(#mask0_7385_3159)">
<path d="M30.9625 63.2718C27.4667 61.0056 24.925 56.9321 25.4452 52.814C28.5929 56.065 32.7951 58.1036 37.3084 58.5693C39.0497 58.7426 41.0045 58.755 42.2411 59.9868C43.0105 60.7532 43.3374 61.8733 43.3542 62.9563C43.371 64.0393 43.1094 65.1053 42.8495 66.1571L42.9134 66.42C38.7437 66.2667 34.4582 65.5379 30.9625 63.2718Z" fill="#F0F0F0"/>
<path d="M25.5328 52.8133C26.8404 55.993 29.1221 58.6821 32.0536 60.4985C32.6777 60.9006 33.3616 61.2024 34.0802 61.3927C34.7862 61.5556 35.5232 61.5275 36.2146 61.3112C36.8633 61.1225 37.5049 60.8547 38.1884 60.8261C38.5385 60.8166 38.8867 60.8809 39.2101 61.0146C39.5335 61.1484 39.8248 61.3486 40.0649 61.6023C40.6798 62.2187 41.0354 63.0182 41.3557 63.812C41.7114 64.6934 42.0669 65.6145 42.7913 66.2673C42.8791 66.3464 42.7506 66.4772 42.6629 66.3982C41.4025 65.2625 41.2638 63.4402 40.273 62.1226C39.8107 61.5077 39.1594 61.0278 38.3631 61.0075C37.6667 60.9897 37.0049 61.2653 36.3497 61.4621C35.6783 61.6829 34.9628 61.7368 34.2657 61.6191C33.5397 61.4658 32.8452 61.1907 32.212 60.8056C30.7725 59.9613 29.4754 58.8971 28.3683 57.6519C27.0968 56.2379 26.0778 54.6178 25.3555 52.8619C25.3108 52.7532 25.4884 52.7053 25.5328 52.8133Z" fill="white"/>
<path d="M31.075 59.9685C30.7019 60.4164 30.1808 60.7177 29.605 60.8187C29.0291 60.9198 28.4359 60.8139 27.9312 60.52C27.8293 60.4601 27.918 60.2998 28.02 60.3597C28.4894 60.6342 29.042 60.7328 29.5781 60.6377C30.1142 60.5425 30.5984 60.2599 30.9433 59.8408C31.0184 59.7498 31.1496 59.878 31.075 59.9685Z" fill="white"/>
<path d="M35.8983 61.4497C35.7974 60.2649 35.2514 59.1613 34.369 58.3592C34.2815 58.2798 34.41 58.1489 34.4973 58.2282C35.414 59.0647 35.98 60.2142 36.0821 61.4474C36.0918 61.565 35.9079 61.5666 35.8983 61.4497Z" fill="white"/>
<path d="M27.3281 56.1608C27.5088 56.0175 27.6508 55.8317 27.7415 55.6202C27.8322 55.4088 27.8686 55.1782 27.8476 54.9493C27.8364 54.8319 28.0204 54.8303 28.0314 54.9469C28.0535 55.2 28.0129 55.4546 27.9133 55.6884C27.8136 55.9223 27.6579 56.1284 27.4598 56.2886C27.4424 56.3052 27.4192 56.3147 27.3951 56.315C27.3709 56.3153 27.3476 56.3064 27.3297 56.2902C27.3124 56.2732 27.3025 56.2501 27.3022 56.2259C27.3019 56.2016 27.3112 56.1783 27.3281 56.1608Z" fill="white"/>
<path d="M37.3695 45.2778C37.3785 45.3509 37.3876 45.424 37.398 45.4978C37.5249 46.4799 37.7318 47.45 38.0167 48.3987C38.0375 48.4724 38.0598 48.5468 38.0827 48.6197C38.7935 50.8981 39.9233 53.0254 41.4147 54.8935C42.0089 55.6363 42.659 56.3331 43.3594 56.9778C44.3268 57.8681 45.4469 58.7568 46.0445 59.8799C46.1082 59.9964 46.1646 60.1167 46.2133 60.2401L43.2308 66.3221C43.2171 66.3325 43.2047 66.3437 43.1909 66.3542L43.083 66.6025C43.0445 66.5717 43.0053 66.539 42.9668 66.5083C42.9445 66.4906 42.9227 66.4715 42.9004 66.4537C42.8856 66.4415 42.871 66.4291 42.857 66.4189C42.8521 66.4149 42.8472 66.4107 42.8437 66.4073C42.8297 66.3971 42.8178 66.3861 42.8052 66.3766C42.5854 66.1944 42.3666 66.0103 42.1486 65.8244C42.1486 65.8244 42.1472 65.8237 42.1465 65.8217C40.4895 64.4009 38.9371 62.83 37.6738 61.0747C37.6358 61.0219 37.5964 60.9685 37.5598 60.9129C36.9948 60.1185 36.4959 59.2795 36.0683 58.4043C35.8357 57.9244 35.6277 57.433 35.445 56.9321C34.9756 55.6369 34.7139 54.2764 34.6695 52.9003C34.5814 50.1571 35.3762 47.4164 37.2266 45.4284C37.274 45.3775 37.3207 45.328 37.3695 45.2778Z" fill="#F0F0F0"/>
<path d="M37.4403 45.3289C36.5599 48.6509 36.7541 52.1644 37.9953 55.3704C38.2502 56.0652 38.6137 56.7158 39.0722 57.2981C39.5373 57.851 40.1428 58.27 40.8257 58.5114C41.4579 58.7492 42.1323 58.9196 42.6954 59.3061C42.9807 59.5082 43.2198 59.7681 43.397 60.0685C43.5743 60.369 43.6857 60.7034 43.7239 61.0497C43.8417 61.9102 43.6417 62.7614 43.4171 63.5871C43.1676 64.5039 42.8939 65.4522 43.0773 66.4073C43.0995 66.523 42.9176 66.5505 42.8955 66.435C42.5765 64.7733 43.5687 63.2352 43.5751 61.5898C43.5781 60.822 43.3486 60.0487 42.725 59.5555C42.1798 59.1243 41.4845 58.948 40.8423 58.7127C40.1726 58.4869 39.5687 58.1015 39.0833 57.59C38.5964 57.0328 38.2084 56.3972 37.9359 55.7105C37.2976 54.1742 36.9061 52.5477 36.7757 50.8904C36.6163 48.9999 36.7833 47.0961 37.2693 45.2615C37.2994 45.148 37.4703 45.2161 37.4403 45.3289Z" fill="white"/>
<path d="M37.5346 54.3615C36.9655 54.4957 36.3671 54.4242 35.8462 54.16C35.3252 53.8958 34.9157 53.4559 34.6906 52.919C34.6455 52.8103 34.8133 52.7353 34.8585 52.8443C35.0671 53.3446 35.4487 53.7543 35.9343 53.9994C36.4199 54.2444 36.9776 54.3087 37.5067 54.1807C37.6217 54.153 37.6489 54.334 37.5346 54.3615Z" fill="white"/>
<path d="M40.4892 58.4331C41.1259 57.4267 41.3578 56.2186 41.1387 55.0496C41.1169 54.9338 41.2987 54.9063 41.3205 55.0219C41.5462 56.2388 41.3023 57.4956 40.6374 58.5414C40.574 58.6411 40.4261 58.5322 40.4892 58.4331Z" fill="white"/>
<path d="M36.8474 49.0775C37.0785 49.0713 37.3043 49.008 37.5047 48.8935C37.7051 48.7789 37.8737 48.6167 37.9955 48.4212C38.0576 48.3208 38.2055 48.4298 38.1437 48.5295C38.0082 48.7448 37.8217 48.9238 37.6006 49.0508C37.3795 49.1779 37.1305 49.2491 36.8753 49.2584C36.8513 49.2612 36.8271 49.2549 36.8076 49.2407C36.7882 49.2265 36.7749 49.2054 36.7705 49.1818C36.7669 49.1578 36.773 49.1334 36.7874 49.1139C36.8018 49.0944 36.8234 49.0813 36.8474 49.0775Z" fill="white"/>
<path d="M137.644 63.2718C141.14 61.0056 143.682 56.9321 143.161 52.814C140.014 56.065 135.811 58.1036 131.298 58.5693C129.557 58.7426 127.602 58.755 126.366 59.9868C125.596 60.7532 125.269 61.8733 125.252 62.9563C125.236 64.0393 125.497 65.1053 125.757 66.1571L125.693 66.42C129.863 66.2667 134.148 65.5379 137.644 63.2718Z" fill="#F0F0F0"/>
<path d="M143.074 52.8133C141.766 55.993 139.485 58.6821 136.553 60.4985C135.929 60.9006 135.245 61.2024 134.526 61.3927C133.82 61.5556 133.083 61.5275 132.392 61.3112C131.743 61.1225 131.102 60.8547 130.418 60.8261C130.068 60.8166 129.72 60.8809 129.397 61.0146C129.073 61.1484 128.782 61.3486 128.542 61.6023C127.927 62.2187 127.571 63.0182 127.251 63.812C126.895 64.6934 126.54 65.6145 125.815 66.2673C125.727 66.3464 125.856 66.4772 125.944 66.3982C127.204 65.2625 127.343 63.4402 128.334 62.1226C128.796 61.5077 129.447 61.0278 130.244 61.0075C130.94 60.9897 131.602 61.2653 132.257 61.4621C132.928 61.6829 133.644 61.7368 134.341 61.6191C135.067 61.4658 135.761 61.1907 136.395 60.8056C137.834 59.9613 139.131 58.8971 140.238 57.6519C141.51 56.2378 142.529 54.6178 143.251 52.8619C143.296 52.7532 143.118 52.7053 143.074 52.8133Z" fill="white"/>
<path d="M137.531 59.9685C137.905 60.4164 138.426 60.7177 139.002 60.8187C139.577 60.9198 140.171 60.8139 140.675 60.52C140.777 60.4601 140.689 60.2998 140.586 60.3597C140.117 60.6342 139.564 60.7328 139.028 60.6377C138.492 60.5425 138.008 60.2599 137.663 59.8408C137.588 59.7498 137.457 59.878 137.531 59.9685Z" fill="white"/>
<path d="M132.708 61.4497C132.809 60.2649 133.355 59.1613 134.238 58.3592C134.325 58.2798 134.197 58.1489 134.109 58.2282C133.193 59.0647 132.627 60.2142 132.524 61.4474C132.515 61.565 132.699 61.5666 132.708 61.4497Z" fill="white"/>
<path d="M141.278 56.1608C141.098 56.0175 140.956 55.8317 140.865 55.6202C140.774 55.4088 140.738 55.1782 140.759 54.9493C140.77 54.8319 140.586 54.8303 140.575 54.9469C140.553 55.2 140.594 55.4546 140.693 55.6884C140.793 55.9223 140.949 56.1284 141.147 56.2886C141.164 56.3052 141.187 56.3147 141.211 56.315C141.236 56.3153 141.259 56.3064 141.277 56.2902C141.294 56.2732 141.304 56.2501 141.304 56.2259C141.305 56.2016 141.295 56.1783 141.278 56.1608Z" fill="white"/>
<path d="M131.237 45.2778C131.228 45.3509 131.219 45.424 131.209 45.4978C131.082 46.4799 130.875 47.45 130.59 48.3987C130.569 48.4724 130.547 48.5468 130.524 48.6197C129.813 50.8981 128.683 53.0254 127.192 54.8935C126.598 55.6363 125.948 56.3331 125.247 56.9778C124.28 57.8681 123.16 58.7568 122.562 59.8799C122.498 59.9964 122.442 60.1167 122.393 60.2401L125.376 66.3221C125.39 66.3325 125.402 66.3437 125.416 66.3542L125.524 66.6025C125.562 66.5717 125.601 66.539 125.64 66.5083C125.662 66.4906 125.684 66.4715 125.706 66.4537C125.721 66.4415 125.736 66.4291 125.75 66.4189C125.755 66.4149 125.759 66.4107 125.763 66.4073C125.777 66.3971 125.789 66.3861 125.801 66.3766C126.021 66.1944 126.24 66.0103 126.458 65.8244C126.458 65.8244 126.459 65.8237 126.46 65.8217C128.117 64.4009 129.669 62.83 130.933 61.0747C130.971 61.0219 131.01 60.9685 131.047 60.9129C131.612 60.1185 132.111 59.2795 132.538 58.4043C132.771 57.9244 132.979 57.433 133.162 56.9321C133.631 55.6369 133.893 54.2764 133.937 52.9003C134.025 50.1571 133.23 47.4164 131.38 45.4284C131.333 45.3775 131.286 45.328 131.237 45.2778Z" fill="#F0F0F0"/>
<path d="M131.166 45.3289C132.047 48.6509 131.853 52.1644 130.611 55.3704C130.356 56.0652 129.993 56.7158 129.534 57.2981C129.069 57.851 128.464 58.27 127.781 58.5114C127.149 58.7492 126.474 58.9196 125.911 59.3061C125.626 59.5082 125.387 59.7681 125.21 60.0685C125.032 60.369 124.921 60.7034 124.883 61.0497C124.765 61.9102 124.965 62.7614 125.19 63.5871C125.439 64.5039 125.713 65.4522 125.529 66.4073C125.507 66.523 125.689 66.5505 125.711 66.435C126.03 64.7733 125.038 63.2352 125.031 61.5898C125.028 60.822 125.258 60.0487 125.882 59.5555C126.427 59.1243 127.122 58.948 127.764 58.7127C128.434 58.4869 129.038 58.1015 129.523 57.59C130.01 57.0328 130.398 56.3972 130.671 55.7105C131.309 54.1742 131.701 52.5477 131.831 50.8904C131.99 48.9999 131.823 47.0961 131.337 45.2615C131.307 45.148 131.136 45.2161 131.166 45.3289Z" fill="white"/>
<path d="M131.072 54.3615C131.641 54.4957 132.239 54.4242 132.76 54.16C133.281 53.8958 133.691 53.4559 133.916 52.919C133.961 52.8103 133.793 52.7353 133.748 52.8443C133.539 53.3446 133.158 53.7543 132.672 53.9994C132.187 54.2444 131.629 54.3087 131.1 54.1807C130.985 54.153 130.958 54.334 131.072 54.3615Z" fill="white"/>
<path d="M128.117 58.4331C127.481 57.4267 127.249 56.2186 127.468 55.0496C127.49 54.9338 127.308 54.9063 127.286 55.0219C127.06 56.2388 127.304 57.4956 127.969 58.5414C128.033 58.6411 128.18 58.5322 128.117 58.4331Z" fill="white"/>
<path d="M131.759 49.0775C131.528 49.0713 131.302 49.008 131.102 48.8935C130.902 48.7789 130.733 48.6167 130.611 48.4212C130.549 48.3208 130.401 48.4298 130.463 48.5295C130.598 48.7448 130.785 48.9238 131.006 49.0508C131.227 49.1779 131.476 49.2491 131.731 49.2584C131.755 49.2612 131.78 49.2549 131.799 49.2407C131.818 49.2265 131.832 49.2054 131.836 49.1818C131.84 49.1578 131.834 49.1334 131.819 49.1139C131.805 49.0944 131.783 49.0813 131.759 49.0775Z" fill="white"/>
<path d="M37.8476 43.2874C37.7154 43.2082 37.6022 43.1011 37.516 42.9737C37.4298 42.8463 37.3728 42.7017 37.3489 42.5499C37.325 42.3982 37.3349 42.2432 37.3778 42.0957C37.4207 41.9481 37.4955 41.8118 37.5971 41.6962L35.7376 38.4541L37.6835 38.5791L39.151 41.6387C39.3349 41.8213 39.4451 42.0648 39.4607 42.3228C39.4763 42.5809 39.3961 42.8357 39.2355 43.0389C39.0748 43.2421 38.8448 43.3797 38.589 43.4255C38.3332 43.4713 38.0694 43.4221 37.8476 43.2874Z" fill="#FFB6B6"/>
<path d="M23.5331 65.3892H24.8205L25.433 60.4497L23.5329 60.4499L23.5331 65.3892Z" fill="#FFB6B6"/>
<path d="M23.2047 64.9708L25.74 64.9707C26.1685 64.9707 26.5795 65.1401 26.8825 65.4415C27.1855 65.7428 27.3557 66.1516 27.3557 66.5779V66.6301L23.2048 66.6302L23.2047 64.9708Z" fill="#2F2E41"/>
<path d="M32.3536 65.3892H33.6409L34.2534 60.4497L32.3533 60.4499L32.3536 65.3892Z" fill="#FFB6B6"/>
<path d="M32.0252 64.9708L34.5605 64.9707C34.989 64.9707 35.4 65.1401 35.703 65.4415C36.006 65.7428 36.1762 66.1516 36.1762 66.5779V66.6301L32.0253 66.6302L32.0252 64.9708Z" fill="#2F2E41"/>
<path d="M35.6639 38.5938C35.6639 38.5938 36.018 43.6096 35.3206 46.1358C34.6232 48.662 34.4987 63.939 34.4987 63.939H32.1611L30.135 43.1439L25.4641 64.0123L23.2375 63.8601L24.4586 39.2694L35.6639 38.5938Z" fill="#2F2E43"/>
<path d="M25.4246 21.6849L27.2117 20.3877L30.2061 21.0363L31.0167 22.9522L32.4135 23.6411C32.8727 23.8676 33.2698 24.2016 33.5706 24.6145C33.8715 25.0274 34.067 25.5067 34.1405 26.0114L36.1359 39.7183L24.4586 39.2692L23.045 23.1267C23.0302 22.9581 23.0496 22.7882 23.102 22.6272C23.1544 22.4661 23.2387 22.3172 23.35 22.1892C23.4613 22.0611 23.5973 21.9566 23.7499 21.8818C23.9025 21.8069 24.0687 21.7633 24.2386 21.7535L25.4246 21.6849Z" fill="#757680"/>
<path d="M33.1523 24.7119L34.2309 26.1581L38.9284 40.4103L36.7265 41.2872L33.2006 34.6461L33.1523 24.7119Z" fill="#3F3D56"/>
<path d="M29.2428 19.7103C30.6833 19.7103 31.851 18.5488 31.851 17.1159C31.851 15.683 30.6833 14.5215 29.2428 14.5215C27.8024 14.5215 26.6347 15.683 26.6347 17.1159C26.6347 18.5488 27.8024 19.7103 29.2428 19.7103Z" fill="#FFB9B9"/>
<path opacity="0.1" d="M23.5571 27.79L27.8132 33.6785L32.5707 36.7645L23.5571 27.79Z" fill="black"/>
<path d="M27.8607 18.9915C27.6792 18.6312 27.4926 18.2391 27.562 17.842C27.6313 17.445 28.0893 17.0991 28.4428 17.2959C28.5895 16.7687 29.2387 16.5379 29.7853 16.5988C30.3318 16.6596 30.835 16.9219 31.3732 17.0345C31.9114 17.147 32.5649 17.0577 32.8558 16.5934L32.1599 16.5815L32.8846 15.7453L32.0445 15.6828C32.3355 15.3704 32.2582 14.8396 31.9765 14.5189C31.6948 14.1982 31.2673 14.0465 30.8502 13.9505C30.0175 13.7596 29.1543 13.7398 28.3137 13.8925C27.9173 13.9533 27.5354 14.0855 27.1868 14.2826C26.8584 14.4818 26.5871 14.7617 26.399 15.0953C26.1959 15.4717 26.0862 15.8909 26.0789 16.318C26.0665 16.8901 26.1986 17.4562 26.4632 17.9643C26.7278 18.4724 27.1163 18.9063 27.5933 19.2263" fill="#2F2E41"/>
<path d="M124.969 66.6469H44.03C43.2097 66.6459 42.4232 66.3214 41.8432 65.7444C41.2632 65.1675 40.937 64.3853 40.936 63.5695V3.12716C40.937 2.31135 41.2632 1.52918 41.8432 0.952249C42.4232 0.375299 43.2097 0.0507208 44.03 0.0498047H124.969C125.789 0.0507353 126.576 0.37532 127.156 0.95227C127.736 1.52921 128.062 2.31138 128.063 3.12719V63.5695C128.062 64.3853 127.736 65.1674 127.156 65.7444C126.576 66.3213 125.789 66.6459 124.969 66.6469Z" fill="#F2F2F2" stroke="black" stroke-width="0.1"/>
<path d="M51.2068 57.163C51.2066 57.5453 51.2828 57.9239 51.431 58.2766C51.5791 58.6294 51.7962 58.9494 52.0697 59.218H50.7876C50.4093 59.218 50.0348 59.1439 49.6853 58.9999C49.3358 58.8559 49.0183 58.6448 48.7508 58.3787C48.4833 58.1127 48.2711 57.7968 48.1264 57.4491C47.9816 57.1015 47.9071 56.7289 47.9071 56.3526V9.89905C47.9071 9.52276 47.9816 9.15017 48.1264 8.80253C48.2711 8.45488 48.4833 8.13901 48.7508 7.87294C49.0183 7.60686 49.3358 7.3958 49.6853 7.2518C50.0348 7.10781 50.4093 7.03369 50.7876 7.03369H52.6534C52.2133 7.28826 51.8482 7.65322 51.5943 8.09212C51.3405 8.53101 51.2069 9.02848 51.2068 9.53483V57.163Z" fill="#E6E6E6"/>
<path d="M145.837 66.0942H17.3923C17.3492 66.0945 17.3078 66.1424 17.2774 66.2273C17.2469 66.3121 17.2298 66.4271 17.2298 66.5469C17.2298 66.6667 17.2469 66.7817 17.2774 66.8665C17.3078 66.9514 17.3492 66.9993 17.3923 66.9996H145.837C145.88 66.9996 145.922 66.9519 145.952 66.867C145.983 66.7821 146 66.6669 146 66.5469C146 66.4268 145.983 66.3117 145.952 66.2268C145.922 66.1419 145.88 66.0942 145.837 66.0942Z" fill="#CACACA"/>
<path d="M50.8964 20.6081C49.9155 20.3348 48.931 20.0816 47.9428 19.8485C44.5637 19.0461 41.1379 18.4521 37.6851 18.0699C37.0999 17.9166 36.4774 17.9995 35.9533 18.3005C35.4292 18.6015 35.0458 19.0963 34.8867 19.6771L33.1624 26.0072C33.0041 26.5906 33.0849 27.2128 33.3873 27.737C33.6896 28.2612 34.1887 28.6446 34.775 28.8032L34.7983 28.8078C37.0798 29.0656 39.3831 29.4238 41.6739 29.8808C41.8789 29.921 42.0822 29.9627 42.287 30.0059C43.0212 30.1572 43.7532 30.3188 44.4832 30.4907C44.8029 30.5648 45.1211 30.642 45.4408 30.7207C46.3007 30.9338 47.1611 31.1607 48.022 31.4016C48.9796 31.6702 49.9377 31.9569 50.8964 32.2616C51.0004 32.2924 51.1044 32.3248 51.2068 32.3588V20.6961C51.1044 20.6652 51.0004 20.6359 50.8964 20.6081Z" fill="white"/>
<path d="M50.8964 20.6081C49.9155 20.3348 48.931 20.0816 47.9428 19.8485C44.5637 19.0461 41.1379 18.4521 37.6851 18.0699C37.0999 17.9166 36.4774 17.9995 35.9533 18.3005C35.4292 18.6015 35.0458 19.0963 34.8867 19.6771L33.1624 26.0072C33.0041 26.5906 33.0849 27.2128 33.3873 27.737C33.6896 28.2612 34.1887 28.6446 34.775 28.8032L34.7983 28.8078C37.0798 29.0656 39.3831 29.4238 41.6739 29.8808C41.8789 29.921 42.0822 29.9627 42.287 30.0059C43.0212 30.1572 43.7532 30.3188 44.4832 30.4907C44.8029 30.5648 45.1211 30.642 45.4408 30.7207C46.3007 30.9338 47.1611 31.1607 48.022 31.4016C48.9796 31.6702 49.9377 31.9569 50.8964 32.2616C51.0004 32.2924 51.1044 32.3248 51.2068 32.3588V32.033C51.1028 32.0006 50.9988 31.9682 50.8964 31.9358C50.0148 31.6563 49.1343 31.3933 48.2548 31.1468C47.9257 31.0527 47.5967 30.9616 47.2676 30.8736C46.6748 30.7145 46.0834 30.5622 45.4936 30.4166C45.1801 30.3378 44.8671 30.2622 44.5546 30.1896C44.5313 30.1834 44.5065 30.1788 44.4832 30.1726C43.9508 30.0476 43.4174 29.9282 42.883 29.8144C42.6782 29.7712 42.4733 29.728 42.2684 29.6863C39.7975 29.1768 37.3079 28.78 34.8448 28.5021C34.341 28.3625 33.913 28.0307 33.654 27.5787C33.395 27.1267 33.326 26.5913 33.4619 26.089L35.1863 19.7574C35.3242 19.2536 35.6574 18.8248 36.1128 18.5652C36.5682 18.3056 37.1086 18.2363 37.6153 18.3725L37.6385 18.3756C41.0475 18.7521 44.4301 19.3358 47.7674 20.1233C47.8015 20.1326 47.8357 20.1403 47.8698 20.148C48.8818 20.3888 49.8907 20.6493 50.8963 20.9292C50.9988 20.957 51.1028 20.9863 51.2068 21.0172V20.6961C51.1044 20.6652 51.0004 20.6359 50.8964 20.6081Z" fill="#0E53D9"/>
<path d="M51.2068 20.8565V32.195C51.1028 32.161 51.0004 32.1286 50.8963 32.0962C49.9791 31.8044 49.0588 31.5295 48.1353 31.2717C47.249 31.0216 46.3596 30.7864 45.4673 30.5661C45.1506 30.4889 44.8355 30.4133 44.5189 30.3392C44.5065 30.2836 44.494 30.228 44.4832 30.1724C44.4257 29.9069 44.3808 29.6383 44.3466 29.3681C44.3311 29.2646 44.3202 29.1612 44.3093 29.0562C44.146 27.4021 44.3736 25.733 44.9741 24.182C45.5745 22.631 46.531 21.241 47.7674 20.1231C47.8124 20.0799 47.8589 20.0382 47.9056 19.998C48.9082 20.2358 49.9051 20.4931 50.8963 20.77C51.0004 20.7963 51.1044 20.8256 51.2068 20.8565Z" fill="#0E53D9"/>
<path d="M40.8995 25.4993L36.5831 24.9929C36.4313 24.975 36.2774 24.9871 36.1302 25.0284C35.9831 25.0697 35.8456 25.1395 35.7255 25.2337C35.6054 25.3279 35.5052 25.4447 35.4305 25.5774C35.3559 25.7101 35.3082 25.8562 35.2903 26.0072C35.2723 26.1583 35.2845 26.3114 35.326 26.4577C35.3676 26.6041 35.4377 26.7409 35.5324 26.8603C35.6271 26.9798 35.7445 27.0795 35.8779 27.1537C36.0113 27.228 36.1582 27.2754 36.31 27.2933L40.6263 27.7997C40.9325 27.8349 41.2403 27.7479 41.4822 27.5577C41.724 27.3675 41.8802 27.0896 41.9163 26.785C41.9525 26.4805 41.8658 26.174 41.6751 25.933C41.4845 25.692 41.2056 25.536 40.8995 25.4993ZM41.6103 26.7498C41.5833 26.9733 41.4683 27.177 41.2905 27.3162C41.1127 27.4554 40.8867 27.5188 40.662 27.4925L36.3456 26.9861C36.1215 26.9589 35.9173 26.8445 35.7778 26.6679C35.6383 26.4913 35.5748 26.2669 35.6013 26.0438C35.6278 25.8208 35.7421 25.6173 35.9191 25.4779C36.0961 25.3385 36.3215 25.2745 36.5458 25.3001L40.8622 25.8065C41.0868 25.8336 41.2916 25.9479 41.4318 26.1247C41.572 26.3014 41.6362 26.5262 41.6103 26.7498Z" fill="#0E53D9"/>
<path d="M51.2068 23.512V28.8894C51.1071 28.949 51.0033 29.0016 50.8964 29.0469C50.3393 29.2943 49.7217 29.3744 49.1194 29.2773C48.5172 29.1802 47.9566 28.9101 47.5066 28.5004C47.4632 28.4618 47.4197 28.4201 47.3778 28.3768C47.3359 28.3352 47.2956 28.2904 47.2568 28.2456C46.7882 27.7103 46.5174 27.0319 46.4892 26.3227C46.4609 25.6134 46.6768 24.9159 47.1012 24.3453C47.5257 23.7747 48.1332 23.3654 48.8233 23.1849C49.5134 23.0045 50.2447 23.0638 50.8964 23.353C51.0026 23.4004 51.1062 23.4535 51.2068 23.512Z" fill="white"/>
<path d="M50.8963 27.4041C49.6749 27.6573 48.4617 27.9378 47.2568 28.2455C46.8067 28.3598 46.3581 28.4782 45.9111 28.6006C45.3772 28.7473 44.8433 28.8991 44.3093 29.0561C43.628 29.2568 42.9477 29.4668 42.2684 29.686C42.0712 29.7509 41.8726 29.8157 41.6739 29.8806C39.785 30.5074 37.9086 31.2021 36.0632 31.9602C35.4759 32.1062 34.9704 32.4771 34.6567 32.9921C34.3431 33.5071 34.2466 34.1245 34.3885 34.7099L35.9452 41.0832C36.0893 41.6702 36.4616 42.1764 36.9804 42.4907C37.4991 42.805 38.1221 42.9018 38.7125 42.7599L38.7343 42.7522C41.769 41.5139 44.8751 40.456 48.0359 39.5841C48.9796 39.3231 49.9331 39.0771 50.8963 38.8461C51.0004 38.8214 51.1028 38.7967 51.2067 38.7735V27.3408C51.1028 27.3593 51.0004 27.381 50.8963 27.4041Z" fill="white"/>
<path d="M50.8963 27.4041C49.6749 27.6573 48.4617 27.9378 47.2568 28.2455C46.8067 28.3598 46.3581 28.4782 45.9111 28.6006C45.3772 28.7473 44.8433 28.8991 44.3093 29.0561C43.628 29.2568 42.9477 29.4668 42.2684 29.686C42.0712 29.7509 41.8726 29.8157 41.6739 29.8806C39.785 30.5074 37.9086 31.2021 36.0632 31.9602C35.4759 32.1062 34.9704 32.4771 34.6567 32.9921C34.3431 33.5071 34.2466 34.1245 34.3885 34.7099L35.9452 41.0832C36.0893 41.6702 36.4616 42.1764 36.9804 42.4907C37.4991 42.805 38.1221 42.9018 38.7125 42.7599L38.7343 42.7522C41.769 41.5139 44.8751 40.456 48.0359 39.5841C48.9796 39.3231 49.9331 39.0771 50.8963 38.8461C51.0004 38.8214 51.1028 38.7967 51.2067 38.7735V38.4555C51.1028 38.4802 51.0004 38.5049 50.8963 38.5296C50.8187 38.5481 50.7396 38.5666 50.662 38.5851C49.7494 38.8059 48.8466 39.0396 47.9536 39.2861C47.9303 39.2923 47.9056 39.3 47.8822 39.3061C44.7373 40.1762 41.6469 41.2304 38.6272 42.4635C38.118 42.5822 37.5822 42.4962 37.1364 42.2241C36.6905 41.9521 36.3707 41.516 36.2463 41.0106L34.6911 34.6374C34.5677 34.1299 34.6517 33.5944 34.9246 33.1484C35.1975 32.7024 35.6371 32.3822 36.147 32.2582L36.1702 32.2505C38.1802 31.4229 40.2258 30.6726 42.287 30.0056C42.4856 29.9408 42.6843 29.8775 42.883 29.8142C43.3703 29.6613 43.8582 29.5126 44.3466 29.368C44.8619 29.2151 45.3766 29.0679 45.8909 28.9264C45.9251 28.9172 45.9592 28.9079 45.9933 28.8986C46.4963 28.7612 47.0007 28.6284 47.5066 28.5003C48.6288 28.2162 49.7587 27.9553 50.8963 27.7175C50.9988 27.6959 51.1028 27.6743 51.2067 27.6542V27.3408C51.1028 27.3593 51.0004 27.381 50.8963 27.4041Z" fill="#0E53D9"/>
<path d="M51.2068 27.4971V38.6148C51.1044 38.638 51.0004 38.6611 50.8964 38.6858C49.9248 38.9205 48.9574 39.1706 47.994 39.4362C47.9552 39.3929 47.918 39.3497 47.8823 39.3065C46.8766 38.1354 46.1376 36.7617 45.7162 35.2796C45.2948 33.7976 45.2008 32.2423 45.4408 30.7208C45.4486 30.6698 45.458 30.6173 45.4673 30.5664C45.475 30.517 45.4843 30.466 45.4937 30.4166C45.5895 29.911 45.7222 29.4131 45.8909 28.9267C45.9112 28.8681 45.9313 28.8094 45.9531 28.7507C46.4264 28.621 46.9013 28.4965 47.3778 28.3771C48.5435 28.0776 49.7163 27.8053 50.8964 27.5604C50.9988 27.5372 51.1028 27.5171 51.2068 27.4971Z" fill="#0E53D9"/>
<path d="M43.9943 37.5679C43.878 37.2836 43.653 37.0567 43.3687 36.9372C43.0844 36.8177 42.7641 36.8152 42.4779 36.9303L38.4503 38.5545C38.1647 38.6703 37.9369 38.8941 37.817 39.1768C37.6972 39.4595 37.695 39.7779 37.8109 40.0622C37.9269 40.3465 38.1516 40.5734 38.4356 40.6931C38.7196 40.8127 39.0397 40.8154 39.3257 40.7005L43.3533 39.0763C43.639 38.9603 43.8668 38.7364 43.9869 38.4537C44.107 38.171 44.1097 37.8525 43.9943 37.5679ZM43.2369 38.7891L39.2093 40.4149C38.9994 40.4993 38.7644 40.4974 38.556 40.4096C38.3475 40.3218 38.1826 40.1553 38.0975 39.9466C38.0124 39.738 38.014 39.5043 38.1019 39.2968C38.1899 39.0893 38.3571 38.9251 38.5667 38.8401L42.5944 37.2159C42.8041 37.1311 43.0391 37.1327 43.2476 37.2203C43.4562 37.3079 43.6212 37.4743 43.7064 37.6829C43.7916 37.8915 43.79 38.1253 43.702 38.3327C43.614 38.5402 43.4467 38.7044 43.2369 38.7891Z" fill="#0E53D9"/>
<path d="M51.2067 30.3363V36.39C51.1044 36.4159 51.0008 36.4365 50.8963 36.4517C50.2732 36.5386 49.6382 36.437 49.0739 36.1602C48.5096 35.8833 48.0421 35.444 47.732 34.8993C47.422 34.3547 47.2839 33.7299 47.3356 33.1061C47.3873 32.4823 47.6265 31.8884 48.0219 31.4016C48.0576 31.3568 48.0948 31.3136 48.1352 31.2719C48.1725 31.2287 48.2129 31.187 48.2548 31.1468C48.5979 30.8092 49.0149 30.5549 49.4731 30.4039C49.9313 30.2529 50.4183 30.2091 50.8963 30.2761C51.0009 30.29 51.1045 30.3101 51.2067 30.3363Z" fill="white"/>
<path d="M37.0714 36.108C37.0106 35.9669 36.9194 35.8407 36.8042 35.7385C36.6891 35.6362 36.5528 35.5603 36.4049 35.5161C36.2571 35.4719 36.1013 35.4604 35.9486 35.4826C35.7958 35.5048 35.6498 35.56 35.5208 35.6443L32.5454 33.3701L32.4048 35.3047L35.2519 37.1678C35.4087 37.3739 35.6361 37.5157 35.891 37.5662C36.1459 37.6167 36.4106 37.5725 36.6348 37.4418C36.8591 37.3112 37.0274 37.1033 37.1079 36.8574C37.1884 36.6116 37.1754 36.345 37.0714 36.108Z" fill="#FFB6B6"/>
<path d="M25.0815 22.3831L24.1024 21.9229C24.1024 21.9229 22.5251 22.3642 23.2914 24.439L27.9289 33.0329L33.5907 36.3303L35.3557 34.7745L29.6898 30.315L25.0815 22.3831Z" fill="#757680"/>
<path d="M117.224 7.05273H55.3212C53.112 7.05273 51.3212 8.84359 51.3212 11.0527V55.9474C51.3212 58.1566 53.112 59.9474 55.3212 59.9474H117.224C119.433 59.9474 121.224 58.1566 121.224 55.9474V11.0527C121.224 8.84359 119.433 7.05273 117.224 7.05273Z" fill="#E6E6E6"/>
<path d="M104.598 27.7519H92.104C91.4865 27.7519 90.8944 27.5079 90.4578 27.0736C90.0212 26.6392 89.7759 26.0502 89.7759 25.436C89.7759 24.8218 90.0212 24.2327 90.4578 23.7984C90.8944 23.3641 91.4865 23.1201 92.104 23.1201H104.598C105.216 23.1201 105.808 23.3641 106.244 23.7984C106.681 24.2327 106.926 24.8218 106.926 25.436C106.926 26.0502 106.681 26.6392 106.244 27.0736C105.808 27.5079 105.216 27.7519 104.598 27.7519Z" fill="#F2F2F2"/>
<path d="M93.6561 34.0821H90.7072C90.4808 34.0821 90.2636 33.9926 90.1035 33.8334C89.9435 33.6741 89.8535 33.4582 89.8535 33.2329C89.8535 33.0077 89.9435 32.7917 90.1035 32.6325C90.2636 32.4733 90.4808 32.3838 90.7072 32.3838H93.6561C93.8825 32.3838 94.0996 32.4733 94.2597 32.6325C94.4198 32.7917 94.5097 33.0077 94.5097 33.2329C94.5097 33.4582 94.4198 33.6741 94.2597 33.8334C94.0996 33.9926 93.8825 34.0821 93.6561 34.0821Z" fill="white"/>
<path d="M105.917 34.0821H102.968C102.742 34.0821 102.525 33.9926 102.365 33.8334C102.205 33.6741 102.115 33.4582 102.115 33.2329C102.115 33.0077 102.205 32.7917 102.365 32.6325C102.525 32.4733 102.742 32.3838 102.968 32.3838H105.917C106.144 32.3838 106.361 32.4733 106.521 32.6325C106.681 32.7917 106.771 33.0077 106.771 33.2329C106.771 33.4582 106.681 33.6741 106.521 33.8334C106.361 33.9926 106.144 34.0821 105.917 34.0821Z" fill="white"/>
<path d="M99.7091 34.0821H96.7601C96.5337 34.0821 96.3166 33.9926 96.1565 33.8334C95.9964 33.6741 95.9065 33.4582 95.9065 33.2329C95.9065 33.0077 95.9964 32.7917 96.1565 32.6325C96.3166 32.4733 96.5337 32.3838 96.7601 32.3838H99.7091C99.9355 32.3838 100.153 32.4733 100.313 32.6325C100.473 32.7917 100.563 33.0077 100.563 33.2329C100.563 33.4582 100.473 33.6741 100.313 33.8334C100.153 33.9926 99.9355 34.0821 99.7091 34.0821Z" fill="white"/>
<path d="M93.6561 37.3243H90.7072C90.4808 37.3243 90.2636 37.2348 90.1035 37.0756C89.9435 36.9163 89.8535 36.7003 89.8535 36.4751C89.8535 36.2499 89.9435 36.0339 90.1035 35.8747C90.2636 35.7154 90.4808 35.626 90.7072 35.626H93.6561C93.8825 35.626 94.0996 35.7154 94.2597 35.8747C94.4198 36.0339 94.5097 36.2499 94.5097 36.4751C94.5097 36.7003 94.4198 36.9163 94.2597 37.0756C94.0996 37.2348 93.8825 37.3243 93.6561 37.3243Z" fill="white"/>
<path d="M105.917 37.3243H102.968C102.742 37.3243 102.525 37.2348 102.365 37.0756C102.205 36.9163 102.115 36.7003 102.115 36.4751C102.115 36.2499 102.205 36.0339 102.365 35.8747C102.525 35.7154 102.742 35.626 102.968 35.626H105.917C106.144 35.626 106.361 35.7154 106.521 35.8747C106.681 36.0339 106.771 36.2499 106.771 36.4751C106.771 36.7003 106.681 36.9163 106.521 37.0756C106.361 37.2348 106.144 37.3243 105.917 37.3243Z" fill="white"/>
<path d="M99.7091 37.3243H96.7601C96.5337 37.3243 96.3166 37.2348 96.1565 37.0756C95.9964 36.9163 95.9065 36.7003 95.9065 36.4751C95.9065 36.2499 95.9964 36.0339 96.1565 35.8747C96.3166 35.7154 96.5337 35.626 96.7601 35.626H99.7091C99.9355 35.626 100.153 35.7154 100.313 35.8747C100.473 36.0339 100.563 36.2499 100.563 36.4751C100.563 36.7003 100.473 36.9163 100.313 37.0756C100.153 37.2348 99.9355 37.3243 99.7091 37.3243Z" fill="white"/>
<path d="M93.6561 40.5665H90.7072C90.4808 40.5665 90.2636 40.477 90.1035 40.3178C89.9435 40.1585 89.8535 39.9425 89.8535 39.7173C89.8535 39.4921 89.9435 39.2761 90.1035 39.1169C90.2636 38.9576 90.4808 38.8682 90.7072 38.8682H93.6561C93.8825 38.8682 94.0996 38.9576 94.2597 39.1169C94.4198 39.2761 94.5097 39.4921 94.5097 39.7173C94.5097 39.9425 94.4198 40.1585 94.2597 40.3178C94.0996 40.477 93.8825 40.5665 93.6561 40.5665Z" fill="white"/>
<path d="M105.917 40.5665H102.968C102.742 40.5665 102.525 40.477 102.365 40.3178C102.205 40.1585 102.115 39.9425 102.115 39.7173C102.115 39.4921 102.205 39.2761 102.365 39.1169C102.525 38.9576 102.742 38.8682 102.968 38.8682H105.917C106.144 38.8682 106.361 38.9576 106.521 39.1169C106.681 39.2761 106.771 39.4921 106.771 39.7173C106.771 39.9425 106.681 40.1585 106.521 40.3178C106.361 40.477 106.144 40.5665 105.917 40.5665Z" fill="white"/>
<path d="M105.917 43.9327H102.968C102.742 43.9327 102.525 43.8432 102.365 43.684C102.205 43.5247 102.115 43.3087 102.115 43.0835C102.115 42.8583 102.205 42.6423 102.365 42.4831C102.525 42.3238 102.742 42.2344 102.968 42.2344H105.917C106.144 42.2344 106.361 42.3238 106.521 42.4831C106.681 42.6423 106.771 42.8583 106.771 43.0835C106.771 43.3087 106.681 43.5247 106.521 43.684C106.361 43.8432 106.144 43.9327 105.917 43.9327Z" fill="white"/>
<path d="M99.7091 40.5665H96.7601C96.5337 40.5665 96.3166 40.477 96.1565 40.3178C95.9964 40.1585 95.9065 39.9425 95.9065 39.7173C95.9065 39.4921 95.9964 39.2761 96.1565 39.1169C96.3166 38.9576 96.5337 38.8682 96.7601 38.8682H99.7091C99.9355 38.8682 100.153 38.9576 100.313 39.1169C100.473 39.2761 100.563 39.4921 100.563 39.7173C100.563 39.9425 100.473 40.1585 100.313 40.3178C100.153 40.477 99.9355 40.5665 99.7091 40.5665Z" fill="white"/>
<path d="M93.6561 43.8087H90.7072C90.4808 43.8087 90.2636 43.7191 90.1035 43.5598C89.9435 43.4006 89.8535 43.1846 89.8535 42.9594C89.8535 42.7342 89.9435 42.5183 90.1035 42.3591C90.2636 42.1998 90.4808 42.1104 90.7072 42.1104H93.6561C93.8825 42.1104 94.0996 42.1998 94.2597 42.3591C94.4198 42.5183 94.5097 42.7342 94.5097 42.9594C94.5097 43.1846 94.4198 43.4006 94.2597 43.5598C94.0996 43.7191 93.8825 43.8087 93.6561 43.8087Z" fill="white"/>
<path d="M99.7091 43.8087H96.7601C96.5337 43.8087 96.3166 43.7191 96.1565 43.5598C95.9964 43.4006 95.9065 43.1846 95.9065 42.9594C95.9065 42.7342 95.9964 42.5183 96.1565 42.3591C96.3166 42.1998 96.5337 42.1104 96.7601 42.1104H99.7091C99.9355 42.1104 100.153 42.1998 100.313 42.3591C100.473 42.5183 100.563 42.7342 100.563 42.9594C100.563 43.1846 100.473 43.4006 100.313 43.5598C100.153 43.7191 99.9355 43.8087 99.7091 43.8087Z" fill="white"/>
<path d="M73.7119 40.412C78.0835 40.412 81.6274 36.8867 81.6274 32.538C81.6274 28.1894 78.0835 24.6641 73.7119 24.6641C69.3402 24.6641 65.7963 28.1894 65.7963 32.538C65.7963 36.8867 69.3402 40.412 73.7119 40.412Z" fill="white"/>
<path d="M73.7119 42.1875C73.0947 42.1868 72.5029 41.9426 72.0665 41.5085C71.63 41.0743 71.3845 40.4856 71.3838 39.8716V25.2045C71.3835 24.9002 71.4436 24.5988 71.5605 24.3176C71.6773 24.0365 71.8488 23.7809 72.065 23.5657C72.2812 23.3504 72.5379 23.1797 72.8205 23.0632C73.1031 22.9467 73.406 22.8867 73.7119 22.8867C74.0178 22.8867 74.3207 22.9467 74.6033 23.0632C74.8858 23.1797 75.1426 23.3504 75.3588 23.5657C75.575 23.7809 75.7464 24.0365 75.8633 24.3176C75.9802 24.5988 76.0403 24.9002 76.04 25.2045V39.8716C76.0393 40.4856 75.7938 41.0743 75.3573 41.5084C74.9209 41.9426 74.3291 42.1868 73.7119 42.1875Z" fill="#686767"/>
<path d="M94.3912 26.7572H92.2183C92.1359 26.7572 92.057 26.7247 91.9988 26.6668C91.9405 26.6089 91.9078 26.5303 91.9078 26.4484C91.9078 26.3665 91.9405 26.288 91.9988 26.2301C92.057 26.1722 92.1359 26.1396 92.2183 26.1396H94.3912C94.4735 26.1396 94.5524 26.1722 94.6107 26.2301C94.6689 26.288 94.7016 26.3665 94.7016 26.4484C94.7016 26.5303 94.6689 26.6089 94.6107 26.6668C94.5524 26.7247 94.4735 26.7572 94.3912 26.7572Z" fill="#E4E4E4"/>
<path d="M97.8057 26.8344H95.6328C95.5505 26.8344 95.4715 26.8018 95.4133 26.7439C95.3551 26.686 95.3224 26.6075 95.3224 26.5256C95.3224 26.4437 95.3551 26.3651 95.4133 26.3072C95.4715 26.2493 95.5505 26.2168 95.6328 26.2168H97.8057C97.888 26.2168 97.967 26.2493 98.0252 26.3072C98.0834 26.3651 98.1161 26.4437 98.1161 26.5256C98.1161 26.6075 98.0834 26.686 98.0252 26.7439C97.967 26.8018 97.888 26.8344 97.8057 26.8344Z" fill="#E4E4E4"/>
<path d="M101.22 26.912H99.0474C98.965 26.912 98.8861 26.8795 98.8279 26.8216C98.7696 26.7637 98.7369 26.6851 98.7369 26.6032C98.7369 26.5213 98.7696 26.4428 98.8279 26.3849C98.8861 26.327 98.965 26.2944 99.0474 26.2944H101.22C101.303 26.2944 101.382 26.327 101.44 26.3849C101.498 26.4428 101.531 26.5213 101.531 26.6032C101.531 26.6851 101.498 26.7637 101.44 26.8216C101.382 26.8795 101.303 26.912 101.22 26.912Z" fill="#E4E4E4"/>
<path d="M104.635 26.9891H102.462C102.38 26.9891 102.301 26.9566 102.242 26.8987C102.184 26.8408 102.152 26.7623 102.152 26.6804C102.152 26.5985 102.184 26.5199 102.242 26.462C102.301 26.4041 102.38 26.3716 102.462 26.3716H104.635C104.717 26.3716 104.796 26.4041 104.854 26.462C104.913 26.5199 104.945 26.5985 104.945 26.6804C104.945 26.7623 104.913 26.8408 104.854 26.8987C104.796 26.9566 104.717 26.9891 104.635 26.9891Z" fill="#E4E4E4"/>
<path d="M50.8964 19.8038V35.2136C51.0004 35.1796 51.1044 35.1472 51.2068 35.1163V19.9443C51.1028 19.8964 51.0004 19.8501 50.8964 19.8038ZM50.8964 19.8038V35.2136C51.0004 35.1796 51.1044 35.1472 51.2068 35.1163V19.9443C51.1028 19.8964 51.0004 19.8501 50.8964 19.8038ZM50.8964 19.8038V35.2136C51.0004 35.1796 51.1044 35.1472 51.2068 35.1163V19.9443C51.1028 19.8964 51.0004 19.8501 50.8964 19.8038ZM50.8964 20.9293V38.6859C51.0004 38.6612 51.1044 38.638 51.2068 38.6149V21.0173C51.1028 20.9864 50.9988 20.9571 50.8964 20.9293ZM50.8964 20.9293V38.6859C51.0004 38.6612 51.1044 38.638 51.2068 38.6149V21.0173C51.1028 20.9864 50.9988 20.9571 50.8964 20.9293ZM50.8964 20.9293V38.6859C51.0004 38.6612 51.1044 38.638 51.2068 38.6149V21.0173C51.1028 20.9864 50.9988 20.9571 50.8964 20.9293ZM50.8964 20.9293V38.6859C51.0004 38.6612 51.1044 38.638 51.2068 38.6149V21.0173C51.1028 20.9864 50.9988 20.9571 50.8964 20.9293ZM50.8964 20.9293V38.8464C51.0004 38.8217 51.1028 38.797 51.2068 38.7739V21.0173C51.1028 20.9864 50.9988 20.9571 50.8964 20.9293ZM118.606 6.33008H54.1185C53.2644 6.33149 52.4456 6.66962 51.8417 7.2704C51.2377 7.87118 50.8978 8.68561 50.8964 9.53524V57.1634C50.8978 58.0129 51.2378 58.8272 51.8418 59.4277C52.4458 60.0282 53.2645 60.366 54.1185 60.3671H118.606C119.46 60.366 120.278 60.0282 120.882 59.4276C121.486 58.827 121.825 58.0128 121.826 57.1634V9.53524C121.826 8.68566 121.486 7.87106 120.882 7.27017C120.279 6.66929 119.46 6.3312 118.606 6.33008ZM121.516 57.1634C121.515 57.931 121.208 58.6668 120.663 59.2095C120.117 59.7522 119.377 60.0575 118.606 60.0583H54.1185C53.3468 60.0576 52.6068 59.7524 52.061 59.2097C51.5151 58.667 51.2079 57.9311 51.2068 57.1634V9.53524C51.2079 8.76742 51.5151 8.03138 52.0609 7.48846C52.6067 6.94553 53.3466 6.64001 54.1185 6.63886H118.606C119.378 6.63974 120.117 6.94523 120.663 7.48826C121.209 8.03129 121.515 8.76748 121.516 9.53524V57.1634ZM50.8964 20.9293V38.5299C51.0004 38.5052 51.1028 38.4805 51.2068 38.4558V21.0173C51.1028 20.9864 50.9988 20.9571 50.8964 20.9293ZM50.8964 20.9293V38.6859C51.0004 38.6612 51.1044 38.638 51.2068 38.6149V21.0173C51.1028 20.9864 50.9988 20.9571 50.8964 20.9293ZM50.8964 20.9293V38.6859C51.0004 38.6612 51.1044 38.638 51.2068 38.6149V21.0173C51.1028 20.9864 50.9988 20.9571 50.8964 20.9293ZM50.8964 20.9293V38.6859C51.0004 38.6612 51.1044 38.638 51.2068 38.6149V21.0173C51.1028 20.9864 50.9988 20.9571 50.8964 20.9293ZM50.8964 19.8038V35.2136C51.0004 35.1796 51.1044 35.1472 51.2068 35.1163V19.9443C51.1028 19.8964 51.0004 19.8501 50.8964 19.8038ZM50.8964 19.8038V35.2136C51.0004 35.1796 51.1044 35.1472 51.2068 35.1163V19.9443C51.1028 19.8964 51.0004 19.8501 50.8964 19.8038Z" fill="#E4E4E4"/>
</g>
</g>
<defs>
<clipPath id="clip0_7385_3159">
<rect width="146" height="67" fill="white"/>
</clipPath>
</defs>
</svg>
