<svg width="1128" height="521" viewBox="0 0 1128 521" fill="none" xmlns="http://www.w3.org/2000/svg">
<g clip-path="url(#clip0_7425_13121)">
<path d="M239.302 492.037C212.301 474.432 192.668 442.788 196.686 410.796C221 436.051 253.458 451.889 288.32 455.506C301.769 456.852 316.868 456.949 326.42 466.518C332.363 472.471 334.888 481.173 335.018 489.586C335.148 498 333.127 506.28 331.12 514.452L331.613 516.493C299.406 515.303 266.304 509.641 239.302 492.037Z" fill="#0E53D9"/>
<path d="M240.17 466.377C237.288 469.856 233.264 472.197 228.816 472.982C224.368 473.767 219.785 472.944 215.888 470.661C215.1 470.197 215.785 468.951 216.573 469.416C220.199 471.549 224.467 472.315 228.608 471.576C232.749 470.836 236.489 468.641 239.153 465.385C239.733 464.678 240.747 465.674 240.17 466.377Z" fill="white"/>
<path d="M277.427 477.883C276.648 468.679 272.43 460.106 265.615 453.875C264.939 453.258 265.931 452.241 266.606 452.857C273.687 459.355 278.058 468.285 278.847 477.865C278.922 478.779 277.501 478.792 277.427 477.883Z" fill="white"/>
<path d="M211.23 436.798C212.625 435.684 213.722 434.241 214.423 432.599C215.123 430.956 215.404 429.165 215.242 427.386C215.156 426.474 216.577 426.462 216.662 427.368C216.833 429.334 216.519 431.312 215.75 433.128C214.98 434.945 213.777 436.546 212.247 437.79C212.112 437.92 211.933 437.993 211.747 437.995C211.56 437.998 211.38 437.929 211.242 437.803C211.108 437.671 211.032 437.491 211.029 437.303C211.027 437.115 211.099 436.934 211.23 436.798Z" fill="white"/>
<path d="M288.791 352.252C288.861 352.82 288.93 353.388 289.011 353.961C289.991 361.59 291.589 369.127 293.79 376.497C293.951 377.069 294.122 377.647 294.3 378.213C299.79 395.913 308.516 412.439 320.036 426.951C324.626 432.721 329.647 438.134 335.058 443.142C342.53 450.059 351.182 456.963 355.798 465.688C356.29 466.593 356.725 467.527 357.101 468.486L334.064 515.733C333.958 515.814 333.862 515.901 333.756 515.983L332.922 517.911C332.625 517.673 332.322 517.419 332.025 517.18C331.852 517.042 331.685 516.894 331.512 516.756C331.398 516.661 331.285 516.565 331.177 516.486C331.139 516.454 331.101 516.422 331.074 516.396C330.966 516.316 330.874 516.231 330.777 516.157C329.079 514.741 327.389 513.311 325.705 511.867C325.695 511.862 325.695 511.862 325.689 511.846C312.89 500.809 300.899 488.606 291.141 474.969C290.848 474.559 290.544 474.144 290.261 473.712C285.896 467.541 282.043 461.024 278.74 454.225C276.944 450.496 275.337 446.679 273.926 442.787C270.3 432.726 268.279 422.157 267.936 411.467C267.255 390.156 273.394 368.866 287.687 353.421C288.053 353.026 288.414 352.642 288.791 352.252Z" fill="#0E53D9"/>
<path d="M289.337 352.651C282.537 378.458 284.037 405.752 293.624 430.657C295.593 436.056 298.4 441.11 301.942 445.633C305.535 449.929 310.212 453.183 315.486 455.058C320.37 456.906 325.579 458.23 329.928 461.232C332.131 462.802 333.978 464.821 335.347 467.155C336.717 469.489 337.577 472.087 337.872 474.777C338.782 481.462 337.238 488.075 335.502 494.489C333.576 501.611 331.462 508.978 332.878 516.398C333.049 517.297 331.645 517.51 331.473 516.613C329.01 503.704 336.673 491.755 336.723 478.973C336.746 473.008 334.973 467.001 330.157 463.17C325.945 459.82 320.575 458.45 315.614 456.622C310.442 454.869 305.777 451.874 302.028 447.901C298.267 443.572 295.27 438.635 293.165 433.3C288.235 421.366 285.211 408.73 284.204 395.856C282.973 381.169 284.262 366.379 288.016 352.127C288.249 351.245 289.569 351.774 289.337 352.651Z" fill="white"/>
<path d="M290.065 422.82C285.67 423.862 281.048 423.307 277.024 421.254C273 419.201 269.836 415.785 268.098 411.614C267.749 410.769 269.046 410.187 269.395 411.033C271.006 414.92 273.954 418.102 277.704 420.006C281.455 421.91 285.763 422.41 289.85 421.415C290.738 421.2 290.948 422.606 290.065 422.82Z" fill="white"/>
<path d="M312.888 454.447C317.805 446.629 319.597 437.243 317.905 428.162C317.736 427.263 319.141 427.049 319.309 427.947C321.052 437.4 319.168 447.164 314.033 455.288C313.543 456.062 312.401 455.217 312.888 454.447Z" fill="white"/>
<path d="M284.758 381.771C286.543 381.722 288.288 381.231 289.835 380.341C291.383 379.451 292.686 378.19 293.626 376.672C294.106 375.892 295.248 376.739 294.771 377.513C293.724 379.186 292.284 380.576 290.576 381.563C288.868 382.55 286.945 383.104 284.974 383.175C284.788 383.198 284.602 383.149 284.451 383.038C284.301 382.928 284.198 382.764 284.164 382.581C284.136 382.394 284.183 382.205 284.295 382.053C284.406 381.902 284.573 381.8 284.758 381.771Z" fill="white"/>
<path d="M1063.32 492.037C1090.32 474.432 1109.96 442.788 1105.94 410.796C1081.63 436.051 1049.17 451.889 1014.31 455.506C1000.86 456.852 985.757 456.949 976.206 466.518C970.262 472.471 967.737 481.173 967.607 489.586C967.478 498 969.498 506.28 971.506 514.452L971.012 516.493C1003.22 515.303 1036.32 509.641 1063.32 492.037Z" fill="#0E53D9"/>
<path d="M1105.26 410.789C1095.16 435.491 1077.54 456.38 1054.9 470.491C1050.07 473.615 1044.79 475.96 1039.24 477.438C1033.79 478.704 1028.1 478.485 1022.76 476.805C1017.74 475.339 1012.79 473.258 1007.51 473.036C1004.8 472.962 1002.12 473.462 999.617 474.501C997.119 475.54 994.869 477.096 993.014 479.066C988.265 483.855 985.519 490.065 983.044 496.232C980.297 503.079 977.551 510.234 971.956 515.306C971.278 515.92 972.27 516.937 972.947 516.323C982.683 507.5 983.754 493.344 991.407 483.108C994.978 478.332 1000.01 474.603 1006.16 474.445C1011.54 474.307 1016.65 476.448 1021.71 477.977C1026.9 479.692 1032.42 480.111 1037.81 479.197C1043.42 478.006 1048.78 475.869 1053.67 472.877C1064.79 466.318 1074.81 458.051 1083.36 448.378C1093.18 437.393 1101.05 424.807 1106.63 411.167C1106.98 410.323 1105.61 409.95 1105.26 410.789Z" fill="white"/>
<path d="M1025.2 477.883C1025.98 468.679 1030.2 460.106 1037.01 453.875C1037.69 453.258 1036.69 452.241 1036.02 452.857C1028.94 459.355 1024.57 468.285 1023.78 477.865C1023.7 478.779 1025.12 478.792 1025.2 477.883Z" fill="white"/>
<path d="M1091.4 436.798C1090 435.684 1088.9 434.241 1088.2 432.599C1087.5 430.956 1087.22 429.165 1087.38 427.386C1087.47 426.474 1086.05 426.462 1085.96 427.368C1085.79 429.334 1086.11 431.312 1086.88 433.128C1087.65 434.945 1088.85 436.546 1090.38 437.79C1090.51 437.92 1090.69 437.993 1090.88 437.995C1091.06 437.998 1091.25 437.929 1091.38 437.803C1091.52 437.671 1091.59 437.491 1091.6 437.303C1091.6 437.115 1091.53 436.934 1091.4 436.798Z" fill="white"/>
<path d="M1013.83 352.252C1013.76 352.82 1013.69 353.388 1013.61 353.961C1012.63 361.59 1011.04 369.127 1008.83 376.497C1008.67 377.069 1008.5 377.647 1008.32 378.213C1002.83 395.913 994.108 412.439 982.588 426.951C977.999 432.721 972.977 438.134 967.567 443.142C960.095 450.059 951.443 456.963 946.827 465.688C946.335 466.593 945.9 467.527 945.523 468.486L968.56 515.733C968.666 515.814 968.762 515.901 968.869 515.983L969.702 517.911C969.999 517.673 970.302 517.419 970.599 517.18C970.772 517.042 970.94 516.894 971.113 516.756C971.227 516.661 971.34 516.565 971.448 516.485C971.486 516.454 971.524 516.422 971.551 516.395C971.659 516.316 971.751 516.231 971.848 516.157C973.545 514.741 975.236 513.311 976.919 511.867C976.93 511.862 976.93 511.862 976.936 511.846C989.735 500.809 1001.73 488.605 1011.48 474.969C1011.78 474.559 1012.08 474.144 1012.36 473.712C1016.73 467.541 1020.58 461.024 1023.88 454.225C1025.68 450.496 1027.29 446.679 1028.7 442.787C1032.32 432.726 1034.35 422.157 1034.69 411.467C1035.37 390.156 1029.23 368.866 1014.94 353.421C1014.57 353.026 1014.21 352.642 1013.83 352.252Z" fill="#0E53D9"/>
<path d="M1013.29 352.651C1020.09 378.458 1018.59 405.752 1009 430.657C1007.03 436.056 1004.22 441.11 1000.68 445.633C997.09 449.929 992.413 453.183 987.138 455.058C982.255 456.906 977.046 458.23 972.697 461.232C970.493 462.802 968.646 464.821 967.277 467.155C965.908 469.489 965.048 472.087 964.752 474.777C963.842 481.462 965.387 488.075 967.122 494.489C969.049 501.611 971.163 508.978 969.747 516.398C969.575 517.297 970.98 517.51 971.151 516.613C973.615 503.704 965.951 491.755 965.901 478.973C965.878 473.008 967.651 467.001 972.468 463.17C976.679 459.82 982.049 458.45 987.01 456.622C992.183 454.869 996.847 451.874 1000.6 447.901C1004.36 443.572 1007.35 438.635 1009.46 433.3C1014.39 421.366 1017.41 408.73 1018.42 395.856C1019.65 381.169 1018.36 366.379 1014.61 352.127C1014.38 351.245 1013.06 351.774 1013.29 352.651Z" fill="white"/>
<path d="M1012.56 422.82C1016.95 423.862 1021.58 423.307 1025.6 421.254C1029.62 419.201 1032.79 415.785 1034.53 411.614C1034.87 410.769 1033.58 410.187 1033.23 411.033C1031.62 414.92 1028.67 418.102 1024.92 420.006C1021.17 421.91 1016.86 422.41 1012.77 421.415C1011.89 421.2 1011.68 422.606 1012.56 422.82Z" fill="white"/>
<path d="M989.738 454.447C984.821 446.629 983.029 437.243 984.721 428.162C984.89 427.263 983.485 427.049 983.317 427.947C981.574 437.4 983.458 447.164 988.593 455.288C989.083 456.062 990.225 455.217 989.738 454.447Z" fill="white"/>
<path d="M1017.87 381.771C1016.08 381.722 1014.34 381.231 1012.79 380.341C1011.24 379.451 1009.94 378.19 1009 376.672C1008.52 375.892 1007.38 376.739 1007.85 377.513C1008.9 379.186 1010.34 380.576 1012.05 381.563C1013.76 382.55 1015.68 383.104 1017.65 383.175C1017.84 383.198 1018.02 383.149 1018.17 383.038C1018.32 382.928 1018.43 382.764 1018.46 382.581C1018.49 382.394 1018.44 382.205 1018.33 382.053C1018.22 381.902 1018.05 381.8 1017.87 381.771Z" fill="white"/>
<path d="M292.484 336.79C291.462 336.175 290.588 335.343 289.922 334.354C289.257 333.364 288.816 332.24 288.632 331.062C288.447 329.883 288.523 328.678 288.854 327.532C289.186 326.386 289.764 325.327 290.549 324.429L276.186 299.243L291.216 300.215L302.551 323.983C303.972 325.401 304.823 327.292 304.943 329.297C305.063 331.302 304.444 333.281 303.203 334.86C301.962 336.439 300.186 337.507 298.21 337.863C296.234 338.219 294.197 337.837 292.484 336.79Z" fill="#FFB6B6"/>
<path d="M181.917 508.485H191.862L196.592 470.113L181.916 470.114L181.917 508.485Z" fill="#FFB6B6"/>
<path d="M179.381 505.238L198.963 505.237C202.273 505.237 205.448 506.553 207.788 508.894C210.129 511.236 211.444 514.411 211.444 517.722V518.128L179.381 518.129L179.381 505.238Z" fill="#2F2E41"/>
<path d="M250.047 508.485H259.991L264.721 470.113L250.045 470.114L250.047 508.485Z" fill="#FFB6B6"/>
<path d="M247.512 505.238L267.094 505.237C270.404 505.237 273.579 506.553 275.919 508.894C278.26 511.236 279.575 514.411 279.575 517.722V518.128L247.512 518.129L247.512 505.238Z" fill="#2F2E41"/>
<path d="M196.527 168.972L210.331 158.895L233.46 163.933L239.721 178.817L250.51 184.168C254.057 185.928 257.124 188.523 259.448 191.73C261.772 194.938 263.282 198.661 263.849 202.582L279.262 309.063L189.066 305.575L178.146 180.172C178.032 178.862 178.182 177.543 178.587 176.292C178.992 175.041 179.643 173.884 180.503 172.889C181.362 171.894 182.413 171.082 183.592 170.501C184.77 169.92 186.054 169.581 187.366 169.504L196.527 168.972Z" fill="#757680"/>
<path d="M256.217 192.485L264.548 203.72L300.832 314.437L283.824 321.25L256.59 269.658L256.217 192.485Z" fill="#3F3D56"/>
<path d="M226.019 153.633C237.145 153.633 246.164 144.61 246.164 133.479C246.164 122.348 237.145 113.324 226.019 113.324C214.892 113.324 205.873 122.348 205.873 133.479C205.873 144.61 214.892 153.633 226.019 153.633Z" fill="#FFB9B9"/>
<path opacity="0.1" d="M182.102 216.398L214.976 262.143L251.723 286.116L182.102 216.398Z" fill="black"/>
<path d="M215.343 148.049C213.942 145.25 212.5 142.203 213.036 139.119C213.572 136.034 217.109 133.347 219.84 134.876C220.973 130.78 225.988 128.988 230.209 129.46C234.43 129.933 238.317 131.97 242.474 132.845C246.631 133.719 251.68 133.026 253.926 129.419L248.551 129.326L254.149 122.83L247.66 122.345C249.907 119.918 249.31 115.795 247.134 113.303C244.958 110.812 241.656 109.633 238.434 108.888C232.003 107.404 225.336 107.251 218.842 108.437C215.781 108.909 212.831 109.936 210.138 111.467C207.602 113.015 205.506 115.189 204.053 117.781C202.485 120.705 201.637 123.961 201.58 127.279C201.485 131.724 202.505 136.121 204.549 140.068C206.593 144.015 209.594 147.386 213.278 149.872" fill="#2F2E41"/>
<path d="M965.419 518.597H340.237C333.812 518.589 327.653 516.033 323.109 511.488C318.566 506.942 316.01 500.78 316.003 494.352L316.003 24.8082C316.011 18.3803 318.566 12.2178 323.109 7.67266C327.653 3.1275 333.812 0.570888 340.237 0.563672L965.419 0.563672C971.844 0.571002 978.004 3.12767 982.547 7.67282C987.09 12.218 989.645 18.3804 989.653 24.8082V494.352C989.645 500.78 987.09 506.942 982.547 511.487C978.004 516.033 971.844 518.589 965.419 518.597Z" fill="#595E72" stroke="#00174C" stroke-width="0.1"/>
<path d="M395.671 444.584C395.67 447.553 396.258 450.494 397.402 453.235C398.547 455.975 400.224 458.461 402.336 460.547H392.433C389.511 460.547 386.618 459.972 383.918 458.853C381.219 457.734 378.766 456.095 376.7 454.028C374.634 451.961 372.995 449.507 371.877 446.806C370.759 444.106 370.184 441.211 370.184 438.288V77.4156C370.184 74.4925 370.759 71.598 371.877 68.8974C372.995 66.1967 374.634 63.7429 376.7 61.6759C378.766 59.6089 381.219 57.9693 383.918 56.8506C386.618 55.732 389.511 55.1562 392.433 55.1563H406.844C403.445 57.1339 400.625 59.969 398.664 63.3786C396.703 66.7881 395.671 70.6527 395.671 74.5863L395.671 444.584Z" fill="#2F2E43"/>
<path d="M1126.44 521H1.57175C1.19389 520.999 0.83188 520.848 0.565076 520.58C0.298272 520.312 0.148438 519.95 0.148438 519.572C0.148438 519.194 0.298272 518.831 0.565076 518.563C0.83188 518.296 1.19389 518.145 1.57175 518.144H1126.44C1126.82 518.144 1127.18 518.294 1127.45 518.562C1127.71 518.83 1127.86 519.193 1127.86 519.572C1127.86 519.95 1127.71 520.314 1127.45 520.581C1127.18 520.849 1126.82 521 1126.44 521Z" fill="#CACACA"/>
<path d="M393.273 160.606C385.697 158.483 378.092 156.516 370.459 154.705C344.358 148.472 317.898 143.858 291.228 140.888C286.708 139.697 281.9 140.341 277.851 142.68C273.803 145.018 270.842 148.862 269.613 153.374L256.294 202.549C255.071 207.081 255.696 211.914 258.031 215.987C260.366 220.059 264.221 223.038 268.75 224.269L268.93 224.305C286.553 226.308 304.343 229.091 322.038 232.641C323.621 232.953 325.191 233.277 326.774 233.613C332.444 234.788 338.099 236.043 343.737 237.379C346.207 237.954 348.664 238.554 351.134 239.166C357.775 240.821 364.421 242.584 371.071 244.455C378.468 246.542 385.868 248.769 393.273 251.136C394.077 251.376 394.88 251.627 395.671 251.891V161.29C394.88 161.05 394.077 160.822 393.273 160.606Z" fill="white"/>
<path d="M393.273 160.606C385.697 158.483 378.092 156.516 370.459 154.705C344.358 148.472 317.898 143.858 291.228 140.888C286.708 139.697 281.9 140.341 277.851 142.68C273.803 145.018 270.842 148.862 269.613 153.374L256.294 202.549C255.071 207.081 255.696 211.914 258.031 215.987C260.366 220.059 264.221 223.038 268.75 224.269L268.93 224.305C286.553 226.308 304.343 229.091 322.038 232.641C323.621 232.953 325.191 233.277 326.774 233.613C332.444 234.788 338.099 236.043 343.737 237.379C346.207 237.954 348.664 238.554 351.134 239.166C357.775 240.821 364.421 242.584 371.071 244.455C378.468 246.542 385.868 248.769 393.273 251.136C394.077 251.376 394.88 251.627 395.671 251.891V249.36C394.868 249.109 394.064 248.857 393.273 248.605C386.464 246.434 379.663 244.391 372.869 242.476C370.328 241.744 367.786 241.037 365.244 240.353C360.665 239.118 356.097 237.934 351.542 236.803C349.12 236.191 346.702 235.604 344.289 235.04C344.109 234.992 343.917 234.956 343.737 234.908C339.625 233.936 335.505 233.009 331.377 232.125C329.795 231.79 328.212 231.454 326.63 231.13C307.544 227.172 288.315 224.089 269.289 221.931C265.397 220.846 262.092 218.268 260.091 214.757C258.091 211.246 257.557 207.087 258.608 203.184L271.927 153.998C272.992 150.084 275.566 146.753 279.083 144.736C282.601 142.719 286.774 142.181 290.688 143.239L290.868 143.263C317.199 146.188 343.327 150.722 369.105 156.84C369.368 156.912 369.632 156.972 369.896 157.032C377.713 158.903 385.505 160.926 393.273 163.101C394.064 163.317 394.867 163.545 395.671 163.785V161.29C394.88 161.05 394.077 160.822 393.273 160.606Z" fill="#0E53D9"/>
<path d="M395.671 162.537V250.619C394.868 250.355 394.077 250.104 393.273 249.852C386.189 247.585 379.08 245.45 371.947 243.447C365.101 241.504 358.231 239.677 351.339 237.966C348.893 237.366 346.459 236.779 344.013 236.203C343.917 235.771 343.821 235.339 343.737 234.908C343.294 232.845 342.947 230.758 342.683 228.659C342.563 227.855 342.479 227.052 342.395 226.236C341.133 213.386 342.891 200.42 347.529 188.371C352.167 176.322 359.555 165.524 369.105 156.84C369.453 156.504 369.812 156.18 370.172 155.868C377.917 157.715 385.617 159.714 393.273 161.865C394.077 162.069 394.88 162.297 395.671 162.537Z" fill="#0E53D9"/>
<path d="M316.056 198.603L282.716 194.669C281.543 194.53 280.355 194.624 279.218 194.945C278.081 195.266 277.019 195.808 276.092 196.539C275.165 197.271 274.39 198.178 273.814 199.21C273.237 200.241 272.869 201.375 272.73 202.549C272.592 203.722 272.685 204.911 273.006 206.048C273.327 207.185 273.869 208.248 274.6 209.176C275.331 210.104 276.238 210.878 277.269 211.455C278.3 212.032 279.434 212.401 280.607 212.539L313.946 216.473C316.312 216.747 318.689 216.071 320.557 214.593C322.425 213.116 323.631 210.957 323.911 208.591C324.19 206.225 323.52 203.845 322.048 201.972C320.575 200.1 318.42 198.888 316.056 198.603ZM321.547 208.318C321.338 210.053 320.45 211.636 319.076 212.717C317.703 213.799 315.957 214.291 314.222 214.087L280.882 210.153C279.15 209.942 277.573 209.053 276.496 207.681C275.418 206.309 274.928 204.566 275.132 202.833C275.337 201.1 276.22 199.519 277.587 198.436C278.955 197.353 280.695 196.857 282.428 197.055L315.768 200.989C317.503 201.199 319.085 202.088 320.168 203.461C321.251 204.834 321.746 206.58 321.547 208.318Z" fill="#0E53D9"/>
<path d="M395.671 183.166V224.941C394.901 225.403 394.1 225.812 393.274 226.164C388.971 228.086 384.2 228.708 379.548 227.954C374.897 227.2 370.567 225.102 367.091 221.918C366.756 221.618 366.42 221.295 366.096 220.959C365.772 220.635 365.461 220.287 365.161 219.939C361.542 215.781 359.45 210.511 359.232 205.001C359.013 199.491 360.681 194.072 363.96 189.64C367.238 185.207 371.931 182.027 377.261 180.626C382.591 179.224 388.24 179.684 393.274 181.931C394.094 182.299 394.895 182.712 395.671 183.166Z" fill="white"/>
<path d="M393.273 213.403C383.839 215.37 374.468 217.549 365.161 219.939C361.684 220.827 358.22 221.747 354.767 222.698C350.643 223.837 346.519 225.017 342.395 226.236C337.132 227.795 331.877 229.427 326.63 231.13C325.108 231.633 323.573 232.137 322.038 232.641C307.449 237.51 292.955 242.908 278.7 248.797C274.164 249.931 270.26 252.812 267.837 256.813C265.414 260.814 264.669 265.61 265.765 270.158L277.79 319.668C278.902 324.228 281.778 328.16 285.785 330.602C289.792 333.044 294.604 333.796 299.164 332.693L299.332 332.633C322.773 323.014 346.764 314.796 371.179 308.022C378.468 305.995 385.833 304.084 393.273 302.289C394.077 302.097 394.868 301.905 395.671 301.725V212.911C394.868 213.055 394.077 213.223 393.273 213.403Z" fill="white"/>
<path d="M393.273 213.403C383.839 215.37 374.468 217.549 365.161 219.939C361.684 220.827 358.22 221.747 354.767 222.698C350.643 223.837 346.519 225.017 342.395 226.236C337.132 227.795 331.877 229.427 326.63 231.13C325.108 231.633 323.573 232.137 322.038 232.641C307.449 237.51 292.955 242.908 278.7 248.797C274.164 249.931 270.26 252.812 267.837 256.813C265.414 260.814 264.669 265.61 265.765 270.158L277.79 319.668C278.902 324.228 281.778 328.16 285.785 330.602C289.792 333.044 294.604 333.796 299.164 332.693L299.332 332.633C322.773 323.014 346.764 314.796 371.179 308.022C378.468 305.995 385.833 304.084 393.273 302.289C394.077 302.097 394.868 301.905 395.671 301.725V299.255C394.868 299.447 394.077 299.638 393.273 299.83C392.674 299.974 392.063 300.118 391.464 300.262C384.414 301.977 377.441 303.792 370.544 305.707C370.364 305.755 370.172 305.815 369.992 305.863C345.701 312.622 321.83 320.812 298.505 330.391C294.572 331.313 290.434 330.645 286.99 328.532C283.546 326.418 281.076 323.03 280.115 319.104L268.103 269.594C267.149 265.651 267.798 261.492 269.906 258.027C272.014 254.562 275.41 252.075 279.348 251.111L279.528 251.051C295.053 244.623 310.853 238.794 326.774 233.612C328.308 233.109 329.843 232.617 331.377 232.125C335.142 230.938 338.91 229.782 342.683 228.659C346.663 227.472 350.639 226.328 354.611 225.229C354.875 225.157 355.139 225.085 355.402 225.013C359.287 223.945 363.183 222.914 367.091 221.918C375.759 219.712 384.486 217.685 393.273 215.838C394.065 215.67 394.868 215.502 395.671 215.346V212.911C394.868 213.055 394.077 213.223 393.273 213.403Z" fill="#0E53D9"/>
<path d="M395.671 214.122V300.49C394.88 300.669 394.077 300.849 393.274 301.041C385.769 302.864 378.296 304.807 370.856 306.87C370.556 306.535 370.268 306.199 369.992 305.863C362.224 296.765 356.517 286.094 353.261 274.58C350.006 263.067 349.281 250.985 351.134 239.165C351.195 238.769 351.267 238.362 351.339 237.966C351.398 237.582 351.47 237.186 351.542 236.802C352.283 232.875 353.308 229.007 354.611 225.228C354.767 224.773 354.923 224.317 355.091 223.861C358.747 222.854 362.416 221.886 366.096 220.959C375.1 218.632 384.159 216.517 393.274 214.614C394.065 214.434 394.868 214.278 395.671 214.122Z" fill="#0E53D9"/>
<path d="M339.962 292.358C339.063 290.149 337.325 288.387 335.129 287.459C332.934 286.53 330.459 286.511 328.249 287.405L297.139 300.022C294.933 300.922 293.174 302.661 292.248 304.857C291.322 307.053 291.305 309.527 292.201 311.735C293.097 313.944 294.832 315.706 297.025 316.636C299.219 317.566 301.692 317.587 303.901 316.694L335.011 304.076C337.217 303.175 338.977 301.436 339.904 299.24C340.832 297.044 340.853 294.57 339.962 292.358ZM334.112 301.846L303.002 314.475C301.381 315.131 299.566 315.116 297.956 314.434C296.346 313.752 295.072 312.458 294.414 310.838C293.757 309.217 293.769 307.401 294.448 305.789C295.128 304.177 296.419 302.901 298.038 302.241L329.148 289.624C330.768 288.965 332.583 288.978 334.194 289.658C335.805 290.338 337.08 291.631 337.738 293.252C338.396 294.873 338.384 296.688 337.704 298.3C337.024 299.912 335.732 301.187 334.112 301.846Z" fill="#0E53D9"/>
<path d="M395.67 236.179V283.207C394.88 283.408 394.08 283.568 393.273 283.687C388.46 284.361 383.555 283.572 379.196 281.422C374.837 279.271 371.226 275.858 368.832 271.627C366.437 267.396 365.37 262.542 365.769 257.696C366.169 252.85 368.016 248.237 371.071 244.455C371.346 244.107 371.634 243.771 371.946 243.447C372.233 243.112 372.545 242.788 372.869 242.476C375.52 239.853 378.74 237.878 382.279 236.704C385.819 235.531 389.581 235.191 393.273 235.711C394.08 235.82 394.881 235.976 395.67 236.179Z" fill="white"/>
<path d="M286.489 281.018C286.019 279.922 285.314 278.942 284.425 278.147C283.536 277.353 282.483 276.763 281.341 276.42C280.199 276.076 278.996 275.988 277.816 276.16C276.636 276.332 275.508 276.761 274.512 277.416L251.529 259.749L250.443 274.778L272.435 289.251C273.646 290.852 275.403 291.954 277.371 292.346C279.34 292.738 281.384 292.395 283.117 291.38C284.849 290.365 286.149 288.75 286.771 286.84C287.392 284.93 287.292 282.859 286.489 281.018Z" fill="#FFB6B6"/>
<path d="M193.877 174.396L186.314 170.82C186.314 170.82 174.131 174.249 180.05 190.367L215.87 257.129L259.603 282.744L273.236 270.658L229.472 236.014L193.877 174.396Z" fill="#757680"/>
<rect x="393.516" y="52.9062" width="544.535" height="416.561" rx="27" fill="#DAD9E0"/>
<path d="M808.074 216.103H711.567C706.797 216.103 702.223 214.207 698.851 210.833C695.479 207.459 693.584 202.883 693.584 198.112C693.584 193.34 695.479 188.764 698.851 185.39C702.223 182.017 706.797 180.121 711.567 180.121H808.074C812.843 180.121 817.417 182.017 820.789 185.39C824.162 188.764 826.056 193.34 826.056 198.112C826.056 202.883 824.162 207.459 820.789 210.833C817.417 214.207 812.843 216.103 808.074 216.103Z" fill="#F2F2F2"/>
<path d="M723.555 265.277H700.777C699.028 265.277 697.351 264.582 696.115 263.345C694.878 262.108 694.184 260.43 694.184 258.681C694.184 256.931 694.878 255.253 696.115 254.016C697.351 252.779 699.028 252.084 700.777 252.084H723.555C725.304 252.084 726.981 252.779 728.218 254.016C729.454 255.253 730.149 256.931 730.149 258.681C730.149 260.43 729.454 262.108 728.218 263.345C726.981 264.582 725.304 265.277 723.555 265.277Z" fill="white"/>
<path d="M818.262 265.277H795.484C793.736 265.277 792.058 264.582 790.822 263.345C789.585 262.108 788.891 260.43 788.891 258.681C788.891 256.931 789.585 255.253 790.822 254.016C792.058 252.779 793.736 252.084 795.484 252.084H818.262C820.011 252.084 821.688 252.779 822.925 254.016C824.161 255.253 824.856 256.931 824.856 258.681C824.856 260.43 824.161 262.108 822.925 263.345C821.688 264.582 820.011 265.277 818.262 265.277Z" fill="white"/>
<path d="M770.309 265.277H747.531C745.782 265.277 744.105 264.582 742.869 263.345C741.632 262.108 740.938 260.43 740.938 258.681C740.938 256.931 741.632 255.253 742.869 254.016C744.105 252.779 745.782 252.084 747.531 252.084H770.309C772.058 252.084 773.735 252.779 774.971 254.016C776.208 255.253 776.903 256.931 776.903 258.681C776.903 260.43 776.208 262.108 774.971 263.345C773.735 264.582 772.058 265.277 770.309 265.277Z" fill="white"/>
<path d="M723.555 290.464H700.777C699.028 290.464 697.351 289.769 696.115 288.532C694.878 287.295 694.184 285.617 694.184 283.867C694.184 282.118 694.878 280.44 696.115 279.203C697.351 277.966 699.028 277.271 700.777 277.271H723.555C725.304 277.271 726.981 277.966 728.218 279.203C729.454 280.44 730.149 282.118 730.149 283.867C730.149 285.617 729.454 287.295 728.218 288.532C726.981 289.769 725.304 290.464 723.555 290.464Z" fill="white"/>
<path d="M818.262 290.464H795.484C793.736 290.464 792.058 289.769 790.822 288.532C789.585 287.295 788.891 285.617 788.891 283.867C788.891 282.118 789.585 280.44 790.822 279.203C792.058 277.966 793.736 277.271 795.484 277.271H818.262C820.011 277.271 821.688 277.966 822.925 279.203C824.161 280.44 824.856 282.118 824.856 283.867C824.856 285.617 824.161 287.295 822.925 288.532C821.688 289.769 820.011 290.464 818.262 290.464Z" fill="white"/>
<path d="M770.309 290.464H747.531C745.782 290.464 744.105 289.769 742.869 288.532C741.632 287.295 740.938 285.617 740.938 283.867C740.938 282.118 741.632 280.44 742.869 279.203C744.105 277.966 745.782 277.271 747.531 277.271H770.309C772.058 277.271 773.735 277.966 774.971 279.203C776.208 280.44 776.903 282.118 776.903 283.867C776.903 285.617 776.208 287.295 774.971 288.532C773.735 289.769 772.058 290.464 770.309 290.464Z" fill="white"/>
<path d="M723.555 315.651H700.777C699.028 315.651 697.351 314.956 696.115 313.719C694.878 312.482 694.184 310.804 694.184 309.055C694.184 307.305 694.878 305.627 696.115 304.39C697.351 303.153 699.028 302.458 700.777 302.458H723.555C725.304 302.458 726.981 303.153 728.218 304.39C729.454 305.627 730.149 307.305 730.149 309.055C730.149 310.804 729.454 312.482 728.218 313.719C726.981 314.956 725.304 315.651 723.555 315.651Z" fill="white"/>
<path d="M818.262 315.651H795.484C793.736 315.651 792.058 314.956 790.822 313.719C789.585 312.482 788.891 310.804 788.891 309.055C788.891 307.305 789.585 305.627 790.822 304.39C792.058 303.153 793.736 302.458 795.484 302.458H818.262C820.011 302.458 821.688 303.153 822.925 304.39C824.161 305.627 824.856 307.305 824.856 309.055C824.856 310.804 824.161 312.482 822.925 313.719C821.688 314.956 820.011 315.651 818.262 315.651Z" fill="white"/>
<path d="M818.262 341.803H795.484C793.736 341.803 792.058 341.108 790.822 339.87C789.585 338.633 788.891 336.956 788.891 335.206C788.891 333.456 789.585 331.779 790.822 330.541C792.058 329.304 793.736 328.609 795.484 328.609H818.262C820.011 328.609 821.688 329.304 822.925 330.541C824.161 331.779 824.856 333.456 824.856 335.206C824.856 336.956 824.161 338.633 822.925 339.87C821.688 341.108 820.011 341.803 818.262 341.803Z" fill="white"/>
<path d="M770.309 315.651H747.531C745.782 315.651 744.105 314.956 742.869 313.719C741.632 312.482 740.938 310.804 740.938 309.055C740.938 307.305 741.632 305.627 742.869 304.39C744.105 303.153 745.782 302.458 747.531 302.458H770.309C772.058 302.458 773.735 303.153 774.971 304.39C776.208 305.627 776.903 307.305 776.903 309.055C776.903 310.804 776.208 312.482 774.971 313.719C773.735 314.956 772.058 315.651 770.309 315.651Z" fill="white"/>
<path d="M723.555 340.838H700.777C699.028 340.838 697.351 340.143 696.115 338.906C694.878 337.669 694.184 335.991 694.184 334.241C694.184 332.492 694.878 330.814 696.115 329.577C697.351 328.34 699.028 327.645 700.777 327.645H723.555C725.304 327.645 726.981 328.34 728.218 329.577C729.454 330.814 730.149 332.492 730.149 334.241C730.149 335.991 729.454 337.669 728.218 338.906C726.981 340.143 725.304 340.838 723.555 340.838Z" fill="white"/>
<path d="M770.309 340.838H747.531C745.782 340.838 744.105 340.143 742.869 338.906C741.632 337.669 740.938 335.991 740.938 334.241C740.938 332.492 741.632 330.814 742.869 329.577C744.105 328.34 745.782 327.645 747.531 327.645H770.309C772.058 327.645 773.735 328.34 774.971 329.577C776.208 330.814 776.903 332.492 776.903 334.241C776.903 335.991 776.208 337.669 774.971 338.906C773.735 340.143 772.058 340.838 770.309 340.838Z" fill="white"/>
<path d="M569.504 314.451C603.271 314.451 630.645 287.065 630.645 253.283C630.645 219.5 603.271 192.114 569.504 192.114C535.737 192.114 508.363 219.5 508.363 253.283C508.363 287.065 535.737 314.451 569.504 314.451Z" fill="white"/>
<path d="M569.504 328.245C564.736 328.24 560.166 326.342 556.794 322.97C553.423 319.597 551.527 315.024 551.521 310.254V196.313C551.52 193.949 551.983 191.608 552.886 189.424C553.789 187.239 555.113 185.254 556.783 183.582C558.453 181.91 560.436 180.584 562.619 179.678C564.802 178.773 567.141 178.308 569.504 178.308C571.867 178.308 574.206 178.773 576.389 179.678C578.572 180.584 580.555 181.91 582.225 183.582C583.895 185.254 585.219 187.239 586.122 189.424C587.025 191.608 587.489 193.949 587.487 196.313V310.254C587.481 315.024 585.585 319.597 582.214 322.97C578.843 326.342 574.272 328.24 569.504 328.245Z" fill="#686767"/>
<path d="M729.232 208.378H712.448C711.813 208.378 711.203 208.125 710.753 207.675C710.303 207.225 710.051 206.615 710.051 205.979C710.051 205.343 710.303 204.733 710.753 204.283C711.203 203.833 711.813 203.58 712.448 203.58H729.232C729.868 203.58 730.478 203.833 730.928 204.283C731.377 204.733 731.63 205.343 731.63 205.979C731.63 206.615 731.377 207.225 730.928 207.675C730.478 208.125 729.868 208.378 729.232 208.378Z" fill="#E4E4E4"/>
<path d="M755.607 208.977H738.823C738.188 208.977 737.578 208.724 737.128 208.275C736.678 207.825 736.426 207.215 736.426 206.578C736.426 205.942 736.678 205.332 737.128 204.882C737.578 204.432 738.188 204.18 738.823 204.18H755.607C756.243 204.18 756.853 204.432 757.303 204.882C757.752 205.332 758.005 205.942 758.005 206.578C758.005 207.215 757.752 207.825 757.303 208.275C756.853 208.724 756.243 208.977 755.607 208.977Z" fill="#E4E4E4"/>
<path d="M781.982 209.577H765.198C764.563 209.577 763.953 209.324 763.503 208.874C763.053 208.424 762.801 207.814 762.801 207.178C762.801 206.542 763.053 205.932 763.503 205.482C763.953 205.032 764.563 204.779 765.198 204.779H781.982C782.618 204.779 783.228 205.032 783.678 205.482C784.127 205.932 784.38 206.542 784.38 207.178C784.38 207.814 784.127 208.424 783.678 208.874C783.228 209.324 782.618 209.577 781.982 209.577Z" fill="#E4E4E4"/>
<path d="M808.355 210.176H791.572C790.936 210.176 790.326 209.924 789.876 209.474C789.426 209.024 789.174 208.414 789.174 207.778C789.174 207.141 789.426 206.531 789.876 206.081C790.326 205.632 790.936 205.379 791.572 205.379H808.355C808.991 205.379 809.601 205.632 810.051 206.081C810.5 206.531 810.753 207.141 810.753 207.778C810.753 208.414 810.5 209.024 810.051 209.474C809.601 209.924 808.991 210.176 808.355 210.176Z" fill="#E4E4E4"/>
<path d="M393.273 154.357V274.067C394.077 273.803 394.88 273.551 395.671 273.311V155.448C394.868 155.076 394.077 154.716 393.273 154.357ZM393.273 154.357V274.067C394.077 273.803 394.88 273.551 395.671 273.311V155.448C394.868 155.076 394.077 154.716 393.273 154.357ZM393.273 154.357V274.067C394.077 273.803 394.88 273.551 395.671 273.311V155.448C394.868 155.076 394.077 154.716 393.273 154.357ZM393.273 163.1V301.041C394.077 300.849 394.88 300.669 395.671 300.489V163.784C394.868 163.544 394.065 163.316 393.273 163.1ZM393.273 163.1V301.041C394.077 300.849 394.88 300.669 395.671 300.489V163.784C394.868 163.544 394.065 163.316 393.273 163.1ZM393.273 163.1V301.041C394.077 300.849 394.88 300.669 395.671 300.489V163.784C394.868 163.544 394.065 163.316 393.273 163.1ZM393.273 163.1V301.041C394.077 300.849 394.88 300.669 395.671 300.489V163.784C394.868 163.544 394.065 163.316 393.273 163.1ZM393.273 163.1V302.288C394.077 302.096 394.868 301.905 395.671 301.725V163.784C394.868 163.544 394.065 163.316 393.273 163.1ZM916.268 49.6865H418.162C411.564 49.6975 405.24 52.3243 400.575 56.9914C395.91 61.6585 393.284 67.9853 393.273 74.5857V444.583C393.285 451.182 395.911 457.508 400.576 462.173C405.242 466.838 411.565 469.462 418.162 469.47H916.268C922.863 469.462 929.186 466.838 933.849 462.172C938.512 457.507 941.136 451.181 941.144 444.583V74.5857C941.138 67.9858 938.516 61.6576 933.852 56.9896C929.189 52.3217 922.865 49.6952 916.268 49.6865ZM938.746 444.583C938.74 450.545 936.37 456.262 932.156 460.478C927.941 464.694 922.228 467.065 916.268 467.071H418.162C412.201 467.066 406.485 464.695 402.269 460.479C398.053 456.263 395.68 450.547 395.671 444.583V74.5857C395.68 68.6209 398.053 62.903 402.268 58.6853C406.484 54.4676 412.2 52.0942 418.162 52.0853H916.268C922.229 52.0921 927.945 54.4653 932.159 58.6838C936.373 62.9023 938.742 68.6214 938.746 74.5857V444.583ZM393.273 163.1V299.83C394.077 299.638 394.868 299.446 395.671 299.254V163.784C394.868 163.544 394.065 163.316 393.273 163.1ZM393.273 163.1V301.041C394.077 300.849 394.88 300.669 395.671 300.489V163.784C394.868 163.544 394.065 163.316 393.273 163.1ZM393.273 163.1V301.041C394.077 300.849 394.88 300.669 395.671 300.489V163.784C394.868 163.544 394.065 163.316 393.273 163.1ZM393.273 163.1V301.041C394.077 300.849 394.88 300.669 395.671 300.489V163.784C394.868 163.544 394.065 163.316 393.273 163.1ZM393.273 154.357V274.067C394.077 273.803 394.88 273.551 395.671 273.311V155.448C394.868 155.076 394.077 154.716 393.273 154.357ZM393.273 154.357V274.067C394.077 273.803 394.88 273.551 395.671 273.311V155.448C394.868 155.076 394.077 154.716 393.273 154.357Z" fill="#3F3D56"/>
<path d="M197.362 410.789C207.463 435.491 225.086 456.38 247.729 470.491C252.55 473.615 257.833 475.96 263.383 477.438C268.837 478.704 274.529 478.485 279.869 476.805C284.88 475.339 289.836 473.258 295.116 473.036C297.82 472.962 300.509 473.462 303.007 474.501C305.505 475.54 307.755 477.096 309.61 479.066C314.36 483.855 314.927 484.496 315.357 487.932C315.357 491.797 315.357 496.521 316.645 500.815C316.215 501.244 317.074 501.244 316.645 501.244C313.209 491.367 316.215 488.791 311.218 483.108C307.647 478.332 302.616 474.603 296.465 474.445C291.086 474.307 285.974 476.448 280.913 477.977C275.728 479.692 270.201 480.111 264.816 479.197C259.209 478.006 253.844 475.869 248.953 472.877C237.834 466.318 227.816 458.051 219.264 448.378C209.443 437.393 201.572 424.807 195.993 411.167C195.648 410.323 197.02 409.95 197.362 410.789Z" fill="white"/>
<path d="M275.617 300.325C275.617 300.325 278.353 339.292 272.966 358.916C267.579 378.541 266.617 497.219 266.617 497.219H248.561L232.912 335.673L196.833 497.789L179.635 496.606L189.067 305.574L275.617 300.325Z" fill="#2F2E43"/>
</g>
<defs>
<clipPath id="clip0_7425_13121">
<rect width="1127.72" height="520.486" fill="white" transform="translate(0.144531 0.513672)"/>
</clipPath>
</defs>
</svg>
