<?xml version="1.0" encoding="UTF-8"?>
<svg version="1.1" xmlns="http://www.w3.org/2000/svg" width="1024" height="1024">
    <path
        d="M0 0 C0.24492188 0.86238281 0.48984375 1.72476563 0.7421875 2.61328125 C12.95188295 42.48425225 43.39201599 79.57960624 69.62353516 111.32373047 C71.46611062 113.56763312 73.26461681 115.84520998 75.0625 118.125 C78.76175241 122.76857633 82.62651125 127.26101241 86.50585938 131.75390625 C89.58794421 135.32959105 92.6014768 138.94760022 95.5625 142.625 C99.18076319 147.08730651 103.00716282 151.32141192 106.91870117 155.52441406 C109.86968667 158.71339056 112.66003825 161.98378404 115.375 165.375 C118.90717974 169.76806943 122.63899098 173.89913537 126.5 178 C131.18757303 182.97944843 135.61232283 188.08180441 139.890625 193.421875 C142.01985146 196.0242629 144.23449357 198.51575502 146.5 201 C150.3150645 205.19657095 153.94264875 209.50777483 157.5078125 213.91796875 C159.30393609 216.13919369 161.11008536 218.34900377 162.9296875 220.55078125 C185.65385214 248.12978218 206.10468001 277.48883592 223 309 C223.45262207 309.83821289 223.90524414 310.67642578 224.37158203 311.54003906 C230.79979076 323.47274847 236.68639283 335.53053218 242 348 C233.42824799 303.0046047 218.76128442 259.45518975 198.53857422 218.35229492 C196 213.18400889 196 213.18400889 196 211 C206.23018106 213.89048015 214.16301309 221.93701687 221.82421875 229.01171875 C223.57001374 230.60706821 225.33288102 232.09935732 227.1875 233.5625 C230.14005652 236.12138232 232.58956807 238.83597714 235.11328125 241.80859375 C236.35007743 243.24512099 237.61788754 244.65564034 238.91796875 246.03515625 C268.60615547 277.6171485 288.81917985 317.46058837 303 358 C303.44255127 359.25949463 303.44255127 359.25949463 303.89404297 360.54443359 C320.92615665 409.72374019 327.44918338 462.11835406 327.375 513.9375 C327.37486216 514.9812252 327.37486216 514.9812252 327.37472153 516.04603577 C327.37061046 540.20473053 326.42242871 564.05790696 323 588 C322.81808105 589.2900293 322.63616211 590.58005859 322.44873047 591.90917969 C316.52578669 632.10474276 303.91473197 672.09886771 287 709 C286.5153125 710.05751465 286.030625 711.1150293 285.53125 712.20458984 C269.73940336 746.36371124 250.49201124 778.55263388 227 808 C226.50145508 808.6285791 226.00291016 809.2571582 225.48925781 809.90478516 C219.12819125 817.90735491 212.62853788 825.69999097 205.6328125 833.15625 C203.6568633 835.29050967 201.75423148 837.44544012 199.86328125 839.65234375 C195.62537639 844.51617222 191.0813392 849.06913065 186.51196289 853.6184082 C185.06475615 855.06025221 183.62297974 856.50737116 182.18164062 857.95507812 C176.95771246 863.18309155 171.62973162 868.21169561 166 873 C164.91671538 873.94909216 163.83463404 874.89955992 162.75390625 875.8515625 C153.81065496 883.6525597 144.51985165 890.91790286 135 898 C134.27264648 898.54301758 133.54529297 899.08603516 132.79589844 899.64550781 C56.67022055 956.26040657 -40.26400278 991.84163563 -135.5859375 992.203125 C-136.83372482 992.21018463 -138.08151215 992.21724426 -139.36711121 992.22451782 C-143.36978304 992.2420256 -147.3722979 992.24920984 -151.375 992.25 C-152.0579652 992.25029457 -152.7409304 992.25058914 -153.44459152 992.25089264 C-174.11554921 992.25233253 -194.50383077 991.98243981 -215 989 C-216.40017959 988.80434172 -217.80040959 988.60904392 -219.20068359 988.4140625 C-272.88527424 980.82785204 -323.51265515 964.13955358 -372 940 C-372.9084668 939.55043945 -373.81693359 939.10087891 -374.75292969 938.63769531 C-405.78925373 923.18254539 -434.43421908 903.20477721 -461 881 C-461.5161084 880.57025879 -462.0322168 880.14051758 -462.56396484 879.69775391 C-478.60892635 866.29740833 -494.62693836 852.00514834 -508.20703125 836.0703125 C-510.33146824 833.6172589 -512.54188637 831.25296853 -514.75 828.875 C-519.99523219 823.11552936 -524.79497195 817.07387164 -529.53613281 810.89648438 C-531.01786728 808.9768524 -532.51879597 807.07358806 -534.0234375 805.171875 C-554.52948762 779.06599741 -571.13599636 750.60693458 -586 721 C-586.65162109 719.71077637 -586.65162109 719.71077637 -587.31640625 718.39550781 C-629.28727682 634.83469042 -641.39071922 538.44189296 -609.3125 367 C-597.11996255 330.80889461 -579.90856191 296.29338154 -558 265 C-557.50000488 264.28360352 -557.00000977 263.56720703 -556.48486328 262.82910156 C-550.19753988 253.86359632 -543.71656071 245.18789878 -536.52734375 236.92578125 C-534.21611909 234.25019041 -532.00911774 231.51964845 -529.8125 228.75 C-518.48884529 214.83516664 -505.65643899 201.62451208 -492 190 C-491.08992187 189.20078125 -490.17984375 188.4015625 -489.2421875 187.578125 C-457.60681303 160 -457.60681303 160 -447 160 C-446.99413376 160.55978546 -446.98826752 161.11957092 -446.98222351 161.69631958 C-450.3425896 223.70481072 -450.3425896 223.70481072 -430 279 C-429.49968262 278.42967041 -428.99936523 277.85934082 -428.48388672 277.27172852 C-422.47572624 270.50228308 -416.21607329 264.02984448 -409.81689453 257.6315918 C-408.12892145 255.94142654 -406.44914276 254.24339166 -404.76953125 252.54492188 C-398.16791488 245.90917067 -391.35958082 239.80231675 -384 234 C-382.79098433 233.00005416 -381.58481191 231.99665024 -380.3828125 230.98828125 C-331.99596797 191 -331.99596797 191 -314 191 C-314.14622803 191.80630859 -314.29245605 192.61261719 -314.44311523 193.44335938 C-314.99089784 196.4697442 -315.53673156 199.49647259 -316.08129883 202.5234375 C-316.43097781 204.46380835 -316.78285095 206.40378338 -317.13476562 208.34375 C-317.46831055 210.2 -317.46831055 210.2 -317.80859375 212.09375 C-318.01282959 213.22490234 -318.21706543 214.35605469 -318.42749023 215.52148438 C-319.55050966 222.34484508 -320.17068871 228.93164999 -320.23828125 235.8359375 C-320.25283607 237.07921562 -320.25283607 237.07921562 -320.26768494 238.34761047 C-320.29254814 241.0234567 -320.30520736 243.69904985 -320.3125 246.375 C-320.31511841 247.28851227 -320.31773682 248.20202454 -320.32043457 249.14321899 C-320.32513107 264.45431505 -319.20650548 278.9887824 -316 294 C-315.73105936 295.46731769 -315.46276564 296.9347542 -315.1953125 298.40234375 C-313.45556711 306.29747402 -310.72076716 310.13218684 -304.046875 314.7421875 C-303.37140625 315.15726562 -302.6959375 315.57234375 -302 316 C-297.64863892 314.51989019 -294.26682185 312.16280271 -290.625 309.4375 C-260.48057032 287.53336651 -224.87153086 273.80971973 -188.125 268.125 C-186.95880127 267.94457153 -186.95880127 267.94457153 -185.76904297 267.76049805 C-180.16263261 266.97903877 -174.65502868 266.8801838 -169 267 C-168.98582031 266.09765625 -168.97164063 265.1953125 -168.95703125 264.265625 C-167.69642934 222.51968374 -152.92975036 181.25914875 -135 144 C-134.58637207 143.12504883 -134.17274414 142.25009766 -133.74658203 141.34863281 C-120.60364083 113.57946805 -103.14494 87.08212008 -82.265625 64.4765625 C-80.37880336 62.41407126 -78.54559182 60.32211842 -76.71875 58.20703125 C-67.39480875 47.52760522 -57.17614622 37.71334133 -46 29 C-44.90760034 28.09813908 -43.81791216 27.19298716 -42.73046875 26.28515625 C-32.37666711 17.70816924 -21.34115396 10.21118799 -10 3 C-9.13906738 2.44836182 -8.27813477 1.89672363 -7.39111328 1.32836914 C-4.6861372 -0.17436466 -3.04516947 -0.26101453 0 0 Z "
        fill="#F95F43" transform="translate(665,0)" />
    <path
        d="M0 0 C3.35188622 0.0237792 6.70298115 0.0205081 10.05493164 0.01391602 C21.38059446 0.02845198 32.35151199 0.33574772 43.52563477 2.33618164 C44.81183716 2.55504028 44.81183716 2.55504028 46.12402344 2.77832031 C48.33086254 3.17527727 50.52098642 3.61525151 52.71313477 4.08618164 C53.89359375 4.33887817 53.89359375 4.33887817 55.09790039 4.59667969 C64.39659437 6.65948285 73.48007098 9.36647888 82.52563477 12.33618164 C83.3090625 12.59238281 84.09249023 12.84858398 84.8996582 13.11254883 C110.87629896 21.76419224 134.1105285 35.44499537 155.52563477 52.33618164 C156.07783691 52.76979004 156.63003906 53.20339844 157.19897461 53.65014648 C179.07380281 71.00610455 200.2779255 93.54668322 213.52563477 118.33618164 C213.52563477 118.99618164 213.52563477 119.65618164 213.52563477 120.33618164 C209.91219768 119.03342444 206.71224074 117.32996671 203.41601562 115.36669922 C173.61580692 97.73394665 135.03108227 88.14797369 100.52563477 94.33618164 C101.06341553 94.6473291 101.60119629 94.95847656 102.15527344 95.27905273 C116.36839456 103.54337687 129.2000814 112.13785213 141.31860352 123.31665039 C143.24045629 125.07523071 145.20210966 126.74437939 147.21313477 128.39868164 C178.74890192 155.26778735 195.30132047 199.63870554 201.52563477 239.33618164 C201.70143066 240.39498535 201.87722656 241.45378906 202.05834961 242.54467773 C202.59237933 246.87774017 202.70526645 251.10822492 202.72875977 255.46899414 C202.73577408 256.33490173 202.74278839 257.20080933 202.75001526 258.09295654 C202.76748022 260.88241797 202.77387012 263.6716675 202.77563477 266.46118164 C202.77630951 267.41091858 202.77698425 268.36065552 202.77767944 269.33917236 C202.76234174 282.88652083 202.4866968 296.06195721 199.52563477 309.33618164 C199.35402832 310.14490723 199.18242188 310.95363281 199.00561523 311.78686523 C191.47005628 346.6767052 176.2178275 378.65076819 151.80297852 404.87133789 C149.93029074 406.89820922 148.1516563 408.95553484 146.40063477 411.08618164 C117.52704945 445.10372397 68.5058164 461.65220869 25.68969727 466.79711914 C21.63241206 467.12275808 17.59346364 467.26950848 13.52563477 467.33618164 C12.41510742 467.35664551 11.30458008 467.37710937 10.16040039 467.39819336 C-53.59028489 468.39584376 -108.40976396 449.50530806 -154.85131836 404.92749023 C-168.16921035 391.87002633 -179.06346731 377.41170982 -188.47436523 361.33618164 C-188.8651123 360.67134766 -189.25585938 360.00651367 -189.65844727 359.3215332 C-198.9965872 343.20021231 -204.87047296 326.1608354 -208.97436523 308.02368164 C-209.35757935 306.3339624 -209.35757935 306.3339624 -209.74853516 304.61010742 C-211.83789511 294.79709243 -212.86471265 287.4509726 -207.97436523 278.46118164 C-207.43187134 277.42646729 -207.43187134 277.42646729 -206.87841797 276.37084961 C-189.72028805 244.43404874 -158.12731242 224.57772569 -124.18310547 214.34570312 C-107.21187303 209.47024904 -89.46740567 206.52665172 -71.81030273 206.16040039 C-70.66819336 206.13655273 -69.52608398 206.11270508 -68.34936523 206.08813477 C-66.00840774 206.04502562 -63.66720119 206.01385212 -61.32592773 205.99438477 C-54.13700266 205.819541 -48.74632727 204.89645206 -42.47436523 201.33618164 C-41.5062793 200.80637695 -40.53819336 200.27657227 -39.54077148 199.73071289 C-33.80515978 196.10680846 -28.76093489 192.15050821 -23.80639648 187.51586914 C-21.74584788 185.58992924 -19.63562534 183.77161596 -17.47436523 181.96118164 C-8.35727757 173.96761387 2.31294512 163.67632994 4.52563477 151.33618164 C3.94808441 151.04962708 3.37053406 150.76307251 2.77548218 150.46783447 C-3.36164762 147.42179191 -9.49569888 144.3696117 -15.62817383 141.31420898 C-17.90216538 140.18217127 -20.17687913 139.05158286 -22.45239258 137.92260742 C-60.23754669 119.17195428 -95.63551422 99.8595983 -125.34936523 69.52368164 C-127.48912631 67.34706129 -129.63223546 65.17381147 -131.77905273 63.00415039 C-132.28080017 62.49681366 -132.78254761 61.98947693 -133.29949951 61.46676636 C-136.87237224 57.87921099 -140.5535202 54.53652951 -144.47436523 51.33618164 C-139.1066277 45.71283756 -132.93999715 41.56613239 -126.47436523 37.33618164 C-125.91491211 36.96976562 -125.35545898 36.60334961 -124.77905273 36.22583008 C-103.22832717 22.3055649 -79.14972046 12.38259292 -54.34936523 6.02368164 C-53.45741455 5.79318115 -52.56546387 5.56268066 -51.64648438 5.32519531 C-34.46652738 1.16058898 -17.64342135 -0.1336328 0 0 Z "
        fill="#8541D5" transform="translate(508.474365234375,266.663818359375)" />
    <path
        d="M0 0 C0.24492188 0.86238281 0.48984375 1.72476563 0.7421875 2.61328125 C12.95188295 42.48425225 43.39201599 79.57960624 69.62353516 111.32373047 C71.46611062 113.56763312 73.26461681 115.84520998 75.0625 118.125 C78.76175241 122.76857633 82.62651125 127.26101241 86.50585938 131.75390625 C89.58794421 135.32959105 92.6014768 138.94760022 95.5625 142.625 C99.18076319 147.08730651 103.00716282 151.32141192 106.91870117 155.52441406 C109.86968667 158.71339056 112.66003825 161.98378404 115.375 165.375 C118.90717974 169.76806943 122.63899098 173.89913537 126.5 178 C131.18757303 182.97944843 135.61232283 188.08180441 139.890625 193.421875 C142.01985146 196.0242629 144.23449357 198.51575502 146.5 201 C150.3150645 205.19657095 153.94264875 209.50777483 157.5078125 213.91796875 C159.30393609 216.13919369 161.11008536 218.34900377 162.9296875 220.55078125 C185.65385214 248.12978218 206.10468001 277.48883592 223 309 C223.45262207 309.83821289 223.90524414 310.67642578 224.37158203 311.54003906 C230.79979076 323.47274847 236.68639283 335.53053218 242 348 C242.66 347.67 243.32 347.34 244 347 C244.13277344 348.13179688 244.26554687 349.26359375 244.40234375 350.4296875 C244.5805342 351.91148179 244.75893029 353.39325136 244.9375 354.875 C245.02451172 355.62136719 245.11152344 356.36773437 245.20117188 357.13671875 C245.63326063 361.1953231 245.63326063 361.1953231 247 365 C252.57886683 423.75028894 241.33460128 484.31978003 212.17773438 535.90771484 C211.02621949 537.95342018 209.90788339 540.01409956 208.796875 542.08203125 C201.37165238 555.77933591 192.63446158 568.60833532 183.375 581.125 C182.61159302 582.16527344 182.61159302 582.16527344 181.83276367 583.2265625 C180.60587641 584.85712177 179.30928302 586.43483105 178 588 C177.34 588 176.68 588 176 588 C175.938125 588.53625 175.87625 589.0725 175.8125 589.625 C173.90780862 595.19255942 168.75558651 599.33444356 164.5625 603.3125 C161.94782012 605.87948473 161.94782012 605.87948473 160.21484375 608.81640625 C157.82917865 612.24553686 155.11129921 614.88555258 152 617.625 C147.48213844 621.68724129 143.12031016 625.84162648 138.875 630.1875 C125.4147107 643.8617631 125.4147107 643.8617631 119 646 C120.5604319 640.2634122 122.12949846 634.52945775 123.71875 628.80078125 C128.63968336 611.07165404 128.63968336 611.07165404 132 593 C132.10151367 592.2771582 132.20302734 591.55431641 132.30761719 590.80957031 C139.82623612 534.14717083 130.71824624 474.35661127 95.91796875 427.77734375 C94.94987888 426.51471485 93.97740671 425.25543054 93 424 C92.55865723 423.43168457 92.11731445 422.86336914 91.66259766 422.27783203 C86.16685057 415.30333451 80.09591049 408.89144262 73.875 402.5625 C73.23014648 401.89984131 72.58529297 401.23718262 71.92089844 400.55444336 C67.88829055 396.52847141 63.81986821 393.40130415 58.88720703 390.53491211 C56.51185439 388.60297912 55.97604542 386.86725504 55 384 C53.68459562 381.7724336 52.34908672 379.60167218 50.9375 377.4375 C50.53829346 376.82326172 50.13908691 376.20902344 49.7277832 375.57617188 C34.77840347 352.82188331 15.99630986 332.09330941 -6 316 C-7.12783846 315.15395808 -8.25544181 314.30760264 -9.3828125 313.4609375 C-37.12441163 292.87910122 -69.23004222 278.97055241 -103 272 C-104.34125099 271.71142584 -105.68239689 271.42236275 -107.0234375 271.1328125 C-117.35011578 268.96853861 -127.40615962 267.89198586 -137.9453125 267.68359375 C-138.84120087 267.66281265 -139.73708923 267.64203156 -140.66012573 267.62062073 C-143.48168342 267.55598643 -146.30332251 267.49664707 -149.125 267.4375 C-151.05469543 267.39423256 -152.98438307 267.35061587 -154.9140625 267.30664062 C-159.60929467 267.20039536 -164.30460748 267.09889388 -169 267 C-168.54103069 256.79080628 -167.79613137 246.81858745 -165.9375 236.75 C-165.72125977 235.56817139 -165.50501953 234.38634277 -165.28222656 233.16870117 C-159.32352795 201.99648855 -148.72920079 172.53014259 -135 144 C-134.58637207 143.12504883 -134.17274414 142.25009766 -133.74658203 141.34863281 C-120.60364083 113.57946805 -103.14494 87.08212008 -82.265625 64.4765625 C-80.37880336 62.41407126 -78.54559182 60.32211842 -76.71875 58.20703125 C-67.39480875 47.52760522 -57.17614622 37.71334133 -46 29 C-44.90760034 28.09813908 -43.81791216 27.19298716 -42.73046875 26.28515625 C-32.37666711 17.70816924 -21.34115396 10.21118799 -10 3 C-8.70860107 2.17254272 -8.70860107 2.17254272 -7.39111328 1.32836914 C-4.6861372 -0.17436466 -3.04516947 -0.26101453 0 0 Z "
        fill="#FED246" transform="translate(665,0)" />
    <path
        d="M0 0 C53.37522294 22.97386396 104.79794196 20.41363533 160.61450195 8.19384766 C163.42798851 7.58202088 166.24420902 6.98470851 169.0612793 6.38964844 C169.87830322 6.20539307 170.69532715 6.0211377 171.53710938 5.83129883 C173.48584357 5.42185115 175.46122957 5.14340215 177.4362793 4.88964844 C178.4262793 5.54964844 179.4162793 6.20964844 180.4362793 6.88964844 C177.85908663 23.76127019 157.17122161 40.76286501 144.2175293 50.28808594 C128.03385454 61.89274915 128.03385454 61.89274915 117.86987305 62.13574219 C116.19598511 62.18263184 116.19598511 62.18263184 114.48828125 62.23046875 C113.29549561 62.26237305 112.10270996 62.29427734 110.8737793 62.32714844 C78.2555115 63.41635373 46.30263443 68.96781119 17.4362793 84.88964844 C16.34702148 85.47746094 15.25776367 86.06527344 14.13549805 86.67089844 C7.33957977 90.47039532 1.33792729 94.82296029 -4.5637207 99.88964844 C-5.38614258 100.57800781 -6.20856445 101.26636719 -7.0559082 101.97558594 C-18.63971634 111.97158236 -26.73951404 123.33164799 -33.5637207 136.88964844 C-33.9762207 137.685 -34.3887207 138.48035156 -34.8137207 139.29980469 C-41.19975416 161.35157648 -25.07836596 194.24835759 -14.84228516 213.40087891 C-7.48478929 226.71227904 1.37999517 238.52167508 11.4362793 249.88964844 C12.16202148 250.73785156 12.88776367 251.58605469 13.63549805 252.45996094 C26.05062951 266.73391985 40.65338771 278.53821491 56.4362793 288.88964844 C55.7762793 289.21964844 55.1162793 289.54964844 54.4362793 289.88964844 C38.25396189 282.40443554 23.70569947 270.63344009 10.4362793 258.88964844 C9.55456055 258.11878906 8.6728418 257.34792969 7.7644043 256.55371094 C-32.02735576 221.33429598 -59.39500014 170.86432545 -64.2512207 117.57714844 C-64.66559329 110.31294326 -64.66433399 103.03906239 -64.6887207 95.76464844 C-64.69347412 94.56541748 -64.69822754 93.36618652 -64.703125 92.13061523 C-64.70094971 90.99664307 -64.69877441 89.8626709 -64.6965332 88.69433594 C-64.69484131 87.16268799 -64.69484131 87.16268799 -64.69311523 85.60009766 C-64.57847152 83.19863634 -64.25246192 81.18294467 -63.5637207 78.88964844 C-64.44930664 78.92445313 -65.33489258 78.95925781 -66.24731445 78.99511719 C-88.25480497 79.47603009 -108.40544762 73.5007914 -127.5637207 62.88964844 C-129.01004883 62.09107422 -129.01004883 62.09107422 -130.4855957 61.27636719 C-149.40908005 49.99505921 -170.3385185 29.66103127 -176.5637207 7.88964844 C-164.74630516 -0.85331754 -151.17612064 -5.88049288 -137.35522461 -10.50537109 C-135.8910334 -10.99981997 -134.43502936 -11.5184563 -132.98168945 -12.04394531 C-89.51254559 -27.60896343 -40.96555744 -17.66562415 0 0 Z "
        fill="#FEBA27" transform="translate(333.563720703125,411.1103515625)" />
    <path
        d="M0 0 C-0.21934204 1.20946289 -0.21934204 1.20946289 -0.44311523 2.44335938 C-0.99089784 5.4697442 -1.53673156 8.49647259 -2.08129883 11.5234375 C-2.43097781 13.46380835 -2.78285095 15.40378338 -3.13476562 17.34375 C-3.35712891 18.58125 -3.57949219 19.81875 -3.80859375 21.09375 C-4.01282959 22.22490234 -4.21706543 23.35605469 -4.42749023 24.52148438 C-5.55050966 31.34484508 -6.17068871 37.93164999 -6.23828125 44.8359375 C-6.25283607 46.07921562 -6.25283607 46.07921562 -6.26768494 47.34761047 C-6.29254814 50.0234567 -6.30520736 52.69904985 -6.3125 55.375 C-6.31511841 56.28851227 -6.31773682 57.20202454 -6.32043457 58.14321899 C-6.65151387 90.37916267 -6.65151387 90.37916267 4 120 C0.68463314 118.4853654 -2.28062305 116.55568816 -5.32641602 114.57324219 C-38.50036265 93.14518942 -78.63245931 91.61120092 -117 90 C-113.1126747 84.56408024 -108.97716555 79.6790639 -104.23828125 74.97265625 C-103.606978 74.33943954 -102.97567474 73.70622284 -102.32524109 73.05381775 C-100.99735829 71.72458384 -99.6669862 70.39783238 -98.33422852 69.07348633 C-96.32792512 67.07784316 -94.33246159 65.07181453 -92.33789062 63.06445312 C-85.19661492 55.91546989 -77.96471056 49.23140572 -70 43 C-68.79060199 42.00051662 -67.58441805 40.99711954 -66.3828125 39.98828125 C-17.99596797 0 -17.99596797 0 0 0 Z "
        fill="#FF9B3C" transform="translate(351,191)" />
    <path
        d="M0 0 C0.66 0.33 1.32 0.66 2 1 C-10.21 13.21 -22.42 25.42 -35 38 C-35 35 -35 35 -33.71484375 33.45703125 C-33.12832031 32.91433594 -32.54179687 32.37164062 -31.9375 31.8125 C-29.41904552 29.40441604 -27.06265014 26.97277602 -24.8125 24.3125 C-17.54650616 15.90096659 -9.47720827 8.17659549 -1 1 C-0.67 0.67 -0.34 0.34 0 0 Z "
        fill="#FE8D20" transform="translate(174,189)" />
    <path
        d="M0 0 C4.2742558 1.5830577 6.26531794 4.50568404 9 8 C6 8 6 8 4.39453125 6.7578125 C3.87246094 6.21898437 3.35039063 5.68015625 2.8125 5.125 C2.28269531 4.59132813 1.75289062 4.05765625 1.20703125 3.5078125 C0 2 0 2 0 0 Z "
        fill="#F8C546" transform="translate(684,336)" />
    <path
        d="M0 0 C1.48280196 0.78483659 2.9611498 1.57809334 4.4375 2.375 C5.67306641 3.03628906 5.67306641 3.03628906 6.93359375 3.7109375 C9 5 9 5 10 7 C5.49197399 5.74194623 2.5087188 4.09592835 -1 1 C-0.67 0.67 -0.34 0.34 0 0 Z "
        fill="#F69926" transform="translate(380,694)" />
    <path
        d="M0 0 C2.02045442 0.60183749 4.02111039 1.27306096 6 2 C6.33 2.66 6.66 3.32 7 4 C5.68 4 4.36 4 3 4 C2.67 4.99 2.34 5.98 2 7 C1.34 4.69 0.68 2.38 0 0 Z "
        fill="#FCDC45" transform="translate(861,211)" />
</svg>
