<?xml version="1.0" encoding="UTF-8"?>
<svg version="1.1" xmlns="http://www.w3.org/2000/svg" width="1024" height="1024">
  <defs>
    <clipPath id="circleClip">
      <circle cx="512" cy="512" r="512"/>
    </clipPath>
  </defs>
  <g clip-path="url(#circleClip)">
<path d="M0 0 C337.92 0 675.84 0 1024 0 C1024 337.92 1024 675.84 1024 1024 C686.08 1024 348.16 1024 0 1024 C0 686.08 0 348.16 0 0 Z " fill="#000000" transform="translate(0,0)"/>
<path d="M0 0 C11.88 0 23.76 0 36 0 C37.093125 4.186875 38.18625 8.37375 39.3125 12.6875 C39.65063721 13.97873779 39.98877441 15.26997559 40.3371582 16.6003418 C41.83948328 22.37565553 43.27582396 28.15262561 44.578125 33.9765625 C45.57682251 38.3668994 46.76681237 42.49708676 48.4375 46.6875 C50.42816693 52.04150271 51.83683201 57.30044923 53 62.875 C54.31666978 69.17375279 55.91897149 75.24551522 57.92480469 81.36938477 C61.13303921 91.30050647 63.66332413 101.43816111 66.32324219 111.52661133 C66.82683265 113.36711458 67.3965884 115.1897652 68 117 C71.68091063 109.59902012 73.80933668 101.94550111 76 94 C78.09975498 86.80356701 80.43146405 79.6980709 82.82983398 72.59692383 C86.10582165 62.88986859 89.16699721 53.16976072 91.92358398 43.30273438 C93.83217563 36.49756866 95.97769427 29.8140749 98.27441406 23.12841797 C99.81299749 18.61517088 101.30746175 14.08701687 102.8125 9.5625 C103.864375 6.406875 104.91625 3.25125 106 0 C116.23 0 126.46 0 137 0 C139.61479191 8.81558415 142.19150358 17.63279013 144.625 26.5 C146.51619661 33.3585664 148.52661727 40.10763071 151.046875 46.765625 C154.34621978 55.63529213 156.90522559 64.62106181 159.40649414 73.74365234 C161.34498569 80.77683627 163.49600909 87.66456434 165.87109375 94.5625 C168.38770412 102.22553505 170.50442639 110.07345984 172 118 C172.66 118 173.32 118 174 118 C174.12955078 116.68708984 174.12955078 116.68708984 174.26171875 115.34765625 C175.13813154 109.23425498 177.08204336 103.35120208 178.8125 97.4375 C179.15603516 96.25091797 179.49957031 95.06433594 179.85351562 93.84179688 C180.55160345 91.43057796 181.25141195 89.0198566 181.95288086 86.60961914 C182.97574614 83.08360767 183.98610708 79.55427114 184.9921875 76.0234375 C186.70598217 70.01444758 188.44738328 64.01384758 190.19677734 58.01513672 C193.46211256 46.81296482 196.70772919 35.60535849 199.875 24.375 C200.28552612 22.93096802 200.28552612 22.93096802 200.7043457 21.45776367 C202.70226191 14.33349289 204.33111065 7.23185383 206 0 C217.55 0 229.1 0 241 0 C240.22740522 4.63556865 239.23288335 8.90992204 237.875 13.375 C237.42133972 14.88916264 236.9682479 16.40349568 236.515625 17.91796875 C236.27134766 18.73313965 236.02707031 19.54831055 235.77539062 20.38818359 C234.95638689 23.14690589 234.15573365 25.91043982 233.359375 28.67578125 C230.24709904 39.47345528 227.01130512 50.21342802 223.55957031 60.9074707 C221.54142885 67.19742059 219.66774261 73.51733386 217.875 79.875 C214.76444485 90.89574676 211.53476835 101.83670134 207.6171875 112.60058594 C205.37132436 118.77398402 203.58803488 124.55176583 202.6171875 131.0703125 C201.48049589 136.46600054 199.41878588 141.57305771 197.52734375 146.7421875 C195.73580834 151.65694031 194.23405759 156.63663066 192.76171875 161.65625 C192 164 192 164 191 165 C188.47905924 165.08847743 185.98569107 165.11527301 183.46484375 165.09765625 C182.33496788 165.09553383 182.33496788 165.09553383 181.18226624 165.09336853 C178.7673044 165.08775376 176.35243399 165.07519883 173.9375 165.0625 C172.30403779 165.0574869 170.67057414 165.05292366 169.03710938 165.04882812 C165.02470415 165.03777954 161.01236759 165.02050506 157 165 C151.85138175 148.72107969 151.85138175 148.72107969 149.6875 140.5 C147.45488875 132.23208905 144.76062452 124.14443881 142.0168457 116.03417969 C139.04846107 107.23181789 136.34052572 98.36928074 133.72216797 89.45751953 C132.47043803 85.19791387 131.20654908 80.94197487 129.9375 76.6875 C129.69161133 75.86088867 129.44572266 75.03427734 129.19238281 74.18261719 C127.25380586 67.71811953 125.12220827 61.33483105 122.8828125 54.96875 C122 52 122 52 122 48 C121.34 48 120.68 48 120 48 C119.78085937 48.92296875 119.56171875 49.8459375 119.3359375 50.796875 C116.63193785 61.99540485 113.38401433 72.99064824 110 84 C109.34885407 86.12887436 108.69781692 88.257782 108.046875 90.38671875 C104.91699097 100.60453771 101.7542145 110.81057263 98.51318359 120.99365234 C93.88138804 135.62217364 89.4710873 150.32178634 85 165 C73.45 165 61.9 165 50 165 C48.63875 160.441875 47.2775 155.88375 45.875 151.1875 C43.04922076 141.74438319 40.18403082 132.31898147 37.17163086 122.93359375 C35.13894093 116.55256228 33.28669983 110.12374686 31.4375 103.6875 C29.28236052 96.1938773 26.94391462 88.87688489 24.234375 81.56640625 C22.41201095 76.30115822 20.94250782 70.94747969 19.44116211 65.58349609 C17.40369691 58.33302789 15.22830056 51.13147131 13 43.9375 C10.53918335 35.98604469 8.08467506 28.03341362 5.6875 20.0625 C5.45740234 19.30122803 5.22730469 18.53995605 4.99023438 17.75561523 C3.22177882 11.85968294 1.62118102 5.9443304 0 0 Z " fill="#FAFAFA" transform="translate(391,428)"/>
<path d="M0 0 C20.3259375 -0.12375 20.3259375 -0.12375 41.0625 -0.25 C45.31133057 -0.28641602 49.56016113 -0.32283203 53.93774414 -0.36035156 C59.20202637 -0.37841797 59.20202637 -0.37841797 61.68113708 -0.3817749 C63.38052077 -0.3878417 65.07988932 -0.40174931 66.77915955 -0.42230225 C86.73232455 -0.65117655 105.12014641 3.15871446 120.0625 17.3125 C132.66501766 30.88876346 134.89113187 45.95732801 134.4765625 63.86328125 C133.71620297 77.75577192 126.76942606 89.82481912 116.6875 99.25 C107.08524018 107.2411424 98.03004848 110.48027986 86 113 C84.80102837 113.26755348 84.80102837 113.26755348 83.57783508 113.54051208 C81.02777591 113.99504906 78.7051264 114.12049899 76.11791992 114.11352539 C75.16429565 114.11340454 74.21067139 114.11328369 73.22814941 114.11315918 C72.23891479 114.10804321 71.24968018 114.10292725 70.23046875 114.09765625 C69.3115686 114.09664917 68.39266846 114.09564209 67.44592285 114.09460449 C64.0264358 114.08938821 60.60696659 114.07542696 57.1875 114.0625 C49.535625 114.041875 41.88375 114.02125 34 114 C34 131.16 34 148.32 34 166 C22.78 166 11.56 166 0 166 C0 111.22 0 56.44 0 0 Z " fill="#FAFAF9" transform="translate(251,428)"/>
<path d="M0 0 C11.55 0 23.1 0 35 0 C41.82858451 16.02090981 48.50655531 32.07646177 54.91723633 48.26904297 C56.30240998 51.76274137 57.69851087 55.25201246 59.09619141 58.74072266 C60.04695299 61.11736979 60.99238599 63.49610222 61.9375 65.875 C65.03411872 73.60445063 68.17455616 81.2906729 71.75 88.8125 C73.66988754 92.96523481 74.69628603 96.44429049 75 101 C75.66 101 76.32 101 77 101 C79.46973711 106.63776298 81.64885015 112.34331928 83.75 118.12695312 C85.26441997 122.232451 86.9812759 126.10834854 89 130 C95 143.25 95 143.25 95 149 C95.66 149 96.32 149 97 149 C97.8394882 151.10171867 98.67139656 153.20646625 99.5 155.3125 C99.9640625 156.48425781 100.428125 157.65601563 100.90625 158.86328125 C102 162 102 162 102 165 C90.45 165 78.9 165 67 165 C65.29499543 160.62047846 63.59009425 156.24102546 61.890625 151.859375 C60.74453462 148.90732401 59.59015302 145.95896109 58.421875 143.015625 C57.74898437 141.30632812 57.74898437 141.30632812 57.0625 139.5625 C56.66160156 138.55316406 56.26070312 137.54382813 55.84765625 136.50390625 C55 134 55 134 55 131 C30.25 131 5.5 131 -20 131 C-22.04451293 137.12453303 -22.04451293 137.12453303 -24.0625 143.2578125 C-25.82090441 148.63559933 -27.72257433 153.82403257 -30 159 C-30.66 160.98 -31.32 162.96 -32 165 C-43.55 165 -55.1 165 -67 165 C-66.2107147 161.05357348 -65.48542146 158.57617646 -63.8125 155.0625 C-59.71326461 146.2580553 -55.63692628 137.43969423 -52.71875 128.1640625 C-51.59095557 124.76842056 -50.22270747 121.47405312 -48.8671875 118.1640625 C-48.18632921 116.46498371 -47.57882957 114.73648872 -47 113 C-46.34 113 -45.68 113 -45 113 C-44.93425781 112.08863281 -44.86851562 111.17726563 -44.80078125 110.23828125 C-43.98396454 104.5463133 -41.45471625 99.42577503 -39.1875 94.1875 C-38.30534105 92.11876601 -37.42382381 90.04975826 -36.54296875 87.98046875 C-36.1137915 86.97798096 -35.68461426 85.97549316 -35.24243164 84.94262695 C-33.72647771 81.35217838 -32.28788965 77.73382071 -30.85131836 74.11108398 C-29.87174378 71.68195254 -28.80482767 69.30623466 -27.6875 66.9375 C-22.62252554 55.90364795 -18.18246432 44.66999612 -14.18359375 33.2109375 C-12.7173192 29.23312339 -10.9873324 25.4218303 -9.1875 21.5859375 C-7.69278588 18.33100083 -6.37968402 15.02019549 -5.08984375 11.6796875 C-3.48988883 7.74574817 -1.72480912 3.88082052 0 0 Z " fill="#FAFBFA" transform="translate(688,428)"/>
<path d="M0 0 C6.5175 -0.061875 13.035 -0.12375 19.75 -0.1875 C21.78124023 -0.21481201 23.81248047 -0.24212402 25.90527344 -0.27026367 C46.14569605 -0.42715198 46.14569605 -0.42715198 55 4 C55 4.66 55 5.32 55 6 C55.7425 6.226875 56.485 6.45375 57.25 6.6875 C60.6018353 8.28723957 61.98266141 9.90194431 64 13 C64.75 15.8125 64.75 15.8125 65 18 C65.66 18 66.32 18 67 18 C67.0543251 21.02107902 67.09382927 24.04116528 67.125 27.0625 C67.14175781 27.91005859 67.15851563 28.75761719 67.17578125 29.63085938 C67.24630421 38.76358277 65.3849755 44.35284308 59.09375 51.04296875 C55.17861179 54.70245428 52.32988149 56 47 56 C47 56.66 47 57.32 47 58 C31.49 58 15.98 58 0 58 C0 38.86 0 19.72 0 0 Z " fill="#060606" transform="translate(284,456)"/>
<path d="M0 0 C0.99 0.33 1.98 0.66 3 1 C4.06063904 3.48396786 4.93133289 5.87345266 5.75 8.4375 C6.27080552 9.99046848 6.7943379 11.54252461 7.3203125 13.09375 C7.59262695 13.90070313 7.86494141 14.70765625 8.14550781 15.5390625 C9.53649816 19.54511469 11.07468406 23.49090045 12.625 27.4375 C12.9235791 28.20022217 13.2221582 28.96294434 13.52978516 29.7487793 C15.03907991 33.5918053 16.57219093 37.42432927 18.125 41.25 C20.22273121 46.43103442 22.03062547 51.71305669 23.8515625 56.99609375 C24.91727911 60.11532985 24.91727911 60.11532985 27 63 C27 63.99 27 64.98 27 66 C10.17 66 -6.66 66 -24 66 C-22.1316047 54.78962822 -17.4195579 44.41961996 -13 34 C-9.73014875 26.06996705 -6.73965744 18.0360102 -3.74560547 9.99902344 C-2.50178428 6.66424679 -1.2505277 3.3322667 0 0 Z " fill="#070707" transform="translate(704,465)"/>
<path d="M0 0 C0.66 0 1.32 0 2 0 C2.598125 0.928125 3.19625 1.85625 3.8125 2.8125 C6.02761293 6.04023598 7.65800576 7.14333654 11 9 C11 9.66 11 10.32 11 11 C10.071875 11.598125 9.14375 12.19625 8.1875 12.8125 C4.95976402 15.02761293 3.85666346 16.65800576 2 20 C1.34 20 0.68 20 0 20 C-0.598125 19.071875 -1.19625 18.14375 -1.8125 17.1875 C-4.02761293 13.95976402 -5.65800576 12.85666346 -9 11 C-9 10.34 -9 9.68 -9 9 C-8.071875 8.401875 -7.14375 7.80375 -6.1875 7.1875 C-2.95976402 4.97238707 -1.85666346 3.34199424 0 0 Z " fill="#787878" transform="translate(988,979)"/>
   </g> 
</svg>
