<svg width="276" height="276" viewBox="0 0 276 276" fill="none" xmlns="http://www.w3.org/2000/svg">
<rect x="0.5" y="0.5" width="275" height="275" rx="59.7826" fill="white"/>
<path d="M126.607 110.862C127.615 110.38 128.651 111.406 128.693 112.391C128.853 114.484 128.919 116.589 128.959 118.688C128.976 119.904 127.931 120.893 126.781 121.103C123.794 121.81 120.786 122.428 117.818 123.208C118.614 124.447 119.881 125.242 120.894 126.281C122.675 128.115 124.421 129.986 126.219 131.806C128.054 133.86 129.878 135.933 131.898 137.807C132.62 138.428 133.288 139.18 134.212 139.502C136.293 140.228 138.687 140.382 140.727 139.448C142.445 138.052 143.19 135.808 143.618 133.706C144.046 132.365 144.511 130.804 145.867 130.12C147.787 131.072 149.753 131.923 151.671 132.883C151.771 133.279 151.868 133.677 151.974 134.073C151.377 135.742 150.495 137.42 150.912 139.251C154.091 139.906 157.361 140.385 160.612 140.046C162.458 139.989 164.324 139.764 166.048 139.069C166.781 138.653 167.227 137.727 167.007 136.901C166.453 134.287 165.831 131.69 165.226 129.089C165.006 128.164 165.103 127.212 165.192 126.278C167.966 125.592 170.694 124.698 173.496 124.145C174.132 128.286 175.174 132.419 174.971 136.639C174.969 138.855 175.103 141.205 173.89 143.173C173.222 144.947 171.73 146.152 170.346 147.36C169.21 148.487 167.578 148.798 166.136 149.367C164.259 149.914 162.444 150.837 160.446 150.817C158.828 150.837 157.213 150.754 155.601 150.658C153.926 150.555 152.376 149.854 150.747 149.533C149.02 149.316 148.153 147.246 146.349 147.297C145.073 148.878 143.033 149.413 141.221 150.125C139.183 150.991 136.915 150.766 134.76 150.709C132.449 150.364 130.197 149.521 128.257 148.214C127.11 147.533 126.559 146.072 125.169 145.765C124.381 146.528 123.577 147.303 122.589 147.81C121.182 148.524 119.784 149.342 118.203 149.595C116.485 149.891 114.867 150.675 113.098 150.683C110.521 150.692 107.944 150.831 105.37 150.712C103.498 150.655 101.769 149.826 100.154 148.952C97.7908 147.593 96.2127 145.212 95.3966 142.663C94.9371 140.291 94.4235 137.904 94.4463 135.475C94.3692 128.343 94.0325 121.214 94.1039 114.083C94.4577 113.681 94.8116 113.283 95.1654 112.884C96.6636 112.798 98.1646 112.75 99.66 112.59C100.753 112.542 101.894 112.294 102.965 112.645C103.453 112.79 103.544 113.377 103.589 113.812C103.698 117.902 103.495 122 103.729 126.087C103.752 129.793 103.749 133.501 103.749 137.206C103.647 138.488 104.588 139.875 105.949 139.923C109.471 140.416 113.012 139.752 116.537 139.604C117.498 139.621 118.568 139.282 118.999 138.345C118.46 136.708 117.09 135.546 115.949 134.318C112.938 131.072 108.983 128.947 105.598 126.136C105.17 123.832 105.847 121.55 105.967 119.252C106.007 118.366 106.086 117.472 106.435 116.649C113.121 114.593 119.901 112.855 126.607 110.862Z" fill="#0F53D9"/>
<path d="M178.786 114.364C179.295 113.855 179.804 113.183 180.611 113.203C182.808 113.18 185.014 113.169 187.208 113.288C187.972 113.283 188.195 114.153 188.138 114.765C188.138 126.346 188.124 137.931 188.127 149.515C187.383 150.195 186.545 150.9 185.463 150.855C183.495 150.929 181.481 151.273 179.541 150.789C179.447 150.258 179.37 149.72 179.352 149.179C179.158 137.575 179.012 125.971 178.786 114.364Z" fill="#0F53D9"/>
<path d="M230.275 115.025C230.177 113.907 231.411 113.1 232.457 113.196C234.566 113.233 236.687 113.159 238.797 113.307C239.56 113.327 239.661 114.192 239.624 114.772C239.569 126.389 239.658 138.006 239.589 149.62C238.857 150.209 238.082 150.874 237.071 150.843C235.048 150.928 232.973 151.281 230.978 150.778C230.785 149.609 230.797 148.426 230.788 147.246C230.607 136.507 230.445 125.766 230.275 115.025Z" fill="#0F53D9"/>
<path d="M41.9767 115.515C46.9448 115.391 51.927 115.496 56.9008 115.422C57.9524 115.38 59.3052 115.501 59.7827 116.6C60.0072 118.534 60.1209 120.489 60.2119 122.434C60.317 123.702 58.8476 124.327 57.7705 124.304C52.9331 124.332 48.0902 124.279 43.2585 124.524C42.3263 124.654 41.2577 124.166 41.1951 123.132C41.053 121.291 41.1241 119.438 41.0616 117.594C40.9848 116.798 41.2918 115.967 41.9767 115.515Z" fill="#0F53D9"/>
<path d="M153.842 117.023C153.83 116.175 154.633 115.394 155.494 115.431C157.72 115.422 159.958 115.368 162.182 115.529C162.95 115.54 163.391 116.342 163.402 117.02C163.44 118.658 163.269 120.29 163.281 121.928C163.324 122.816 162.988 124.155 161.909 124.207C159.541 124.334 157.164 124.245 154.793 124.322C154.387 123.793 153.859 123.262 153.897 122.543C153.859 120.704 153.792 118.862 153.842 117.023Z" fill="#0F53D9"/>
<path d="M71.667 123.798C72.3836 123.451 73.1172 123.801 73.7683 124.121C73.9616 125.052 74.1692 125.982 74.4507 126.892C74.9341 128.415 75.0023 130.027 75.2326 131.601C75.5681 134.155 76.0117 136.734 75.7274 139.314C75.2611 141.698 74.1891 144.043 72.4433 145.752C70.305 148.045 67.4531 149.476 64.6609 150.791C63.2108 151.36 61.6469 151.563 60.1172 151.787C55.6104 152.193 51.0411 152.388 46.5514 151.709C44.0151 151.36 41.6409 150.241 39.5112 148.847C38.2288 147.845 36.9379 146.505 36.8384 144.782C36.375 140.954 36.2214 137.081 36.5313 133.236C36.6422 131.77 36.7446 130.287 37.1512 128.868C37.2962 128.398 37.5493 127.76 38.1435 127.794C40.1083 127.711 42.1357 127.903 43.9668 128.676C44.2966 128.85 44.7231 129.079 44.7544 129.503C44.9733 132.168 43.4095 134.742 44.0521 137.407C44.4274 138.518 44.6748 139.878 45.778 140.502C47.4016 141.263 49.2043 141.504 50.9729 141.635C54.4333 141.884 57.942 141.976 61.3541 141.258C63.4781 141.046 65.8722 140.665 67.2313 138.81C67.6977 137.839 67.2342 136.786 67.0067 135.818C66.4295 133.731 66.3726 131.507 65.4997 129.503C65.0448 128.495 64.9282 127.359 65.2125 126.285C67.3508 125.418 69.5288 124.656 71.667 123.798Z" fill="#0F53D9"/>
<path d="M217.942 126.044C220.266 125.296 222.579 124.505 224.906 123.768C225.387 123.536 225.878 123.705 226.35 123.86C226.673 127.081 227.225 130.273 227.585 133.489C227.717 135.291 227.677 137.102 227.791 138.905C228.02 141.011 226.77 142.871 225.672 144.55C224.395 146.631 222.302 148.003 220.192 149.124C219.346 149.577 218.368 149.64 217.456 149.889C216.501 150.098 215.612 150.608 214.614 150.597C212.699 150.611 210.786 150.582 208.873 150.568C207.959 150.605 207.161 150.112 206.3 149.906C205.477 150.683 205.574 151.935 205.145 152.918C204.268 154.895 203.261 156.85 201.783 158.452C200.843 159.773 199.347 160.475 197.987 161.266C195.779 162.418 193.375 163.289 190.865 163.361C188.701 163.515 186.162 163.882 184.387 162.337C184.461 160.257 184.164 158.139 184.612 156.087C184.818 155.104 185.873 154.806 186.705 154.557C188.129 154.018 189.693 154.276 191.134 153.818C192.886 153.268 194.684 152.566 195.902 151.118C197.22 150.052 197.518 148.261 197.532 146.659C197.523 145.333 197.615 143.977 197.249 142.687C196.906 141.427 196.56 140.169 196.26 138.896C195.794 136.973 194.885 135.168 194.619 133.193C195.471 132.606 196.308 131.976 197.278 131.589C199.33 130.798 201.269 129.588 203.521 129.462C204.068 131.666 204.628 133.867 205.214 136.059C205.531 137.277 206.237 138.335 206.778 139.455C207.298 139.61 207.821 139.776 208.364 139.842C211.163 140.103 213.999 140.068 216.778 139.618C217.813 139.352 218.934 138.696 219.134 137.552C219.62 135.606 218.911 133.669 218.765 131.732C218.548 129.826 218.211 127.941 217.942 126.044Z" fill="#0F53D9"/>
<path d="M87.3143 129.786C88.0444 129.502 88.8143 129.794 89.5415 129.934C90.0976 131.983 90.8333 133.985 91.2069 136.079C91.6176 138.376 92.4902 140.602 92.4902 142.959C92.5273 145.05 92.667 147.179 92.1223 149.221C91.6176 151.124 91.3381 153.137 90.2716 154.834C89.0539 157.368 87.0007 159.4 84.7507 161.03C82.4836 162.358 79.9398 163.319 77.2963 163.439C75.5739 163.505 73.8429 163.579 72.1233 163.405C71.3134 163.379 70.5492 162.649 70.5606 161.823C70.515 159.694 70.4066 157.56 70.5178 155.432C71.1053 154.977 71.6727 154.41 72.4399 154.293C74.8667 153.867 77.4617 154.239 79.7459 153.157C81.1147 152.617 82.3067 151.598 82.8628 150.211C83.6699 148.781 83.6356 147.104 83.6613 145.514C83.7554 143.325 82.6661 141.343 82.2811 139.232C81.976 137.358 80.8752 135.687 80.8495 133.756C81.0178 132.44 82.398 131.911 83.4531 131.442C84.7735 130.967 85.994 130.255 87.3143 129.786Z" fill="#0F53D9"/>
<path d="M209.941 154.26C215.205 154.12 220.475 154.163 225.741 154.18C226.557 154.091 227.21 154.631 227.866 155.03C228.07 157.392 228.345 159.762 228.241 162.139C228.198 162.787 227.419 163.08 226.864 163.097C223.911 163.312 220.947 163.094 217.994 163.261C215.277 163.312 212.559 163.278 209.841 163.284C209.131 161.484 209.351 159.521 209.154 157.636C209.053 156.709 209.088 155.779 209.239 154.86C209.471 154.659 209.703 154.458 209.941 154.26Z" fill="#0F53D9"/>
<path d="M130.523 155.149C134.384 154.973 138.256 155.132 142.122 155.061C144.533 155.101 146.953 154.951 149.361 155.192C149.529 158.105 149.766 161.046 149.384 163.953C148.479 164.055 147.578 164.169 146.667 164.16C143.155 164.158 139.643 164.169 136.13 164.166C134.278 164.149 132.412 164.291 130.583 163.939C130.472 161.012 130.318 158.074 130.523 155.149Z" fill="#0F53D9"/>
</svg>
