<svg width="335" height="208" viewBox="0 0 335 208" fill="none" xmlns="http://www.w3.org/2000/svg">
<g opacity="0.3">
<g clip-path="url(#clip0_5356_34817)">
<path d="M160 221C160 254.137 133.137 281 100 281C66.8629 281 40 254.137 40 221C40 187.863 66.8629 161 100 161C133.137 161 160 187.863 160 221ZM74.9776 221C74.9776 234.819 86.1805 246.022 100 246.022C113.819 246.022 125.022 234.819 125.022 221C125.022 207.181 113.819 195.978 100 195.978C86.1805 195.978 74.9776 207.181 74.9776 221Z" fill="#328AFF"/>
<line x1="337.707" y1="171.707" x2="294.707" y2="214.707" stroke="#1C4DFF" stroke-width="2"/>
</g>
</g>
<defs>
<clipPath id="clip0_5356_34817">
<rect width="335" height="208" rx="12" fill="white"/>
</clipPath>
</defs>
</svg>
