<svg width="22" height="22" viewBox="0 0 22 22" fill="none" xmlns="http://www.w3.org/2000/svg">
<path opacity="0.4" d="M11.7788 5.64502H4.97124C3.47499 5.64502 2.25 6.87001 2.25 8.36626V18.3063C2.25 19.575 3.16 20.1175 4.27125 19.4963L7.70999 17.58C8.07749 17.3788 8.6725 17.3788 9.03125 17.58L12.47 19.4963C13.5812 20.1175 14.4912 19.575 14.4912 18.3063V8.36626C14.5 6.87001 13.275 5.64502 11.7788 5.64502Z" fill="#0E53D9"/>
<path d="M19.75 4.97124V14.9113C19.75 16.18 18.84 16.7137 17.7288 16.1012L14.5 14.2987V8.36624C14.5 6.86999 13.275 5.645 11.7788 5.645H7.5V4.97124C7.5 3.47499 8.72499 2.25 10.2212 2.25H17.0288C18.525 2.25 19.75 3.47499 19.75 4.97124Z" fill="#0E53D9"/>
</svg>
