<svg width="60" height="60" viewBox="0 0 60 60" fill="none" xmlns="http://www.w3.org/2000/svg">
<path d="M44.05 26.875C42.975 26.875 42.125 26 42.125 24.95C42.125 24.025 41.2 22.1 39.65 20.425C38.125 18.8 36.45 17.85 35.05 17.85C33.975 17.85 33.125 16.975 33.125 15.925C33.125 14.875 34 14 35.05 14C37.55 14 40.175 15.35 42.475 17.775C44.625 20.05 46 22.875 46 24.925C46 26 45.125 26.875 44.05 26.875Z" fill="#0E53D9"/>
<path d="M53.0749 26.875C51.9999 26.875 51.1499 26 51.1499 24.95C51.1499 16.075 43.9249 8.875 35.0749 8.875C33.9999 8.875 33.1499 8 33.1499 6.95C33.1499 5.9 33.9999 5 35.0499 5C46.0499 5 54.9999 13.95 54.9999 24.95C54.9999 26 54.1249 26.875 53.0749 26.875Z" fill="#0E53D9"/>
<path opacity="0.4" d="M29.475 35.525L21.3 43.7C20.4 42.9 19.525 42.075 18.675 41.225C16.1 38.625 13.775 35.9 11.7 33.05C9.65 30.2 8 27.35 6.8 24.525C5.6 21.675 5 18.95 5 16.35C5 14.65 5.3 13.025 5.9 11.525C6.5 10 7.45 8.6 8.775 7.35C10.375 5.775 12.125 5 13.975 5C14.675 5 15.375 5.15 16 5.45C16.65 5.75 17.225 6.2 17.675 6.85L23.475 15.025C23.925 15.65 24.25 16.225 24.475 16.775C24.7 17.3 24.825 17.825 24.825 18.3C24.825 18.9 24.65 19.5 24.3 20.075C23.975 20.65 23.5 21.25 22.9 21.85L21 23.825C20.725 24.1 20.6 24.425 20.6 24.825C20.6 25.025 20.625 25.2 20.675 25.4C20.75 25.6 20.825 25.75 20.875 25.9C21.325 26.725 22.1 27.8 23.2 29.1C24.325 30.4 25.525 31.725 26.825 33.05C27.725 33.925 28.6 34.775 29.475 35.525Z" fill="#0E53D9"/>
<path d="M54.925 45.8251C54.925 46.5251 54.8 47.2501 54.55 47.9501C54.475 48.1501 54.4 48.3501 54.3 48.5501C53.875 49.4501 53.325 50.3001 52.6 51.1001C51.375 52.4501 50.025 53.4251 48.5 54.0501C48.475 54.0501 48.45 54.0751 48.425 54.0751C46.95 54.6751 45.35 55.0001 43.625 55.0001C41.075 55.0001 38.35 54.4001 35.475 53.1751C32.6 51.9501 29.725 50.3001 26.875 48.2251C25.9 47.5001 24.925 46.7751 24 46.0001L32.175 37.8251C32.875 38.3501 33.5 38.7501 34.025 39.0251C34.15 39.0751 34.3 39.1501 34.475 39.2251C34.675 39.3001 34.875 39.3251 35.1 39.3251C35.525 39.3251 35.85 39.1751 36.125 38.9001L38.025 37.0251C38.65 36.4001 39.25 35.9251 39.825 35.6251C40.4 35.2751 40.975 35.1001 41.6 35.1001C42.075 35.1001 42.575 35.2001 43.125 35.4251C43.675 35.6501 44.25 35.9751 44.875 36.4001L53.15 42.2751C53.8 42.7251 54.25 43.2501 54.525 43.8751C54.775 44.5001 54.925 45.1251 54.925 45.8251Z" fill="#0E53D9"/>
</svg>
