<svg width="40" height="40" viewBox="0 0 40 40" fill="none" xmlns="http://www.w3.org/2000/svg">
<path d="M35.4166 36.6667H4.58325C3.89992 36.6667 3.33325 36.1 3.33325 35.4167C3.33325 34.7333 3.89992 34.1667 4.58325 34.1667H35.4166C36.0999 34.1667 36.6666 34.7333 36.6666 35.4167C36.6666 36.1 36.0999 36.6667 35.4166 36.6667Z" fill="#0F53D9"/>
<path opacity="0.4" d="M34.3167 22.8333L22.2667 34.8833C19.9 37.25 16.0834 37.25 13.7334 34.9L6.05005 27.2167L26.65 6.61667L34.3334 14.3C36.6834 16.65 36.6834 20.4667 34.3167 22.8333Z" fill="#0F53D9"/>
<path d="M26.65 6.61666L6.03331 27.2167L4.51665 25.7C2.16665 23.35 2.16665 19.5333 4.53331 17.1667L16.5833 5.11666C18.95 2.74999 22.7666 2.74999 25.1166 5.09999L26.65 6.61666Z" fill="#0F53D9"/>
<path d="M21.4834 29.3333L19.2334 31.5833C18.7667 32.05 18.0167 32.05 17.5501 31.5833C17.0834 31.1167 17.0834 30.3667 17.5501 29.9L19.8001 27.65C20.2667 27.1833 21.0167 27.1833 21.4834 27.65C21.9501 28.1167 21.9501 28.8667 21.4834 29.3333Z" fill="#0F53D9"/>
<path d="M28.7834 22.0333L24.3001 26.5167C23.8334 26.9833 23.0834 26.9833 22.6167 26.5167C22.1501 26.05 22.1501 25.3 22.6167 24.8333L27.1001 20.35C27.5667 19.8833 28.3167 19.8833 28.7834 20.35C29.2334 20.8167 29.2334 21.5667 28.7834 22.0333Z" fill="#0F53D9"/>
</svg>
