<svg width="25" height="24" viewBox="0 0 25 24" fill="none" xmlns="http://www.w3.org/2000/svg">
<path d="M3.01831 12.989V8.99902C3.01831 5.49902 4.44744 3.99902 7.44744 3.99902H17.4474C20.4474 3.99902 22.4474 5.49902 22.4474 8.99902V14.999C22.4474 18.499 20.4474 19.999 17.4474 19.999L6.87545 19.8461" stroke="#606266" stroke-width="1.75" stroke-miterlimit="10" stroke-linecap="round" stroke-linejoin="round"/>
<path d="M11.4584 14.9167C13.0692 14.9167 14.3751 13.6108 14.3751 12C14.3751 10.3892 13.0692 9.08334 11.4584 9.08334C9.84758 9.08334 8.54175 10.3892 8.54175 12C8.54175 13.6108 9.84758 14.9167 11.4584 14.9167Z" stroke="#606266" stroke-width="1.75" stroke-miterlimit="10" stroke-linecap="round" stroke-linejoin="round"/>
<path d="M18.375 9.08334V14.9167" stroke="#606266" stroke-width="1.75" stroke-miterlimit="10" stroke-linecap="round" stroke-linejoin="round"/>
<path d="M0.87493 12L3.01773 14.5714L5.16064 12" stroke="#606266" stroke-width="1.75" stroke-miterlimit="10" stroke-linecap="round" stroke-linejoin="round"/>
</svg>
