<svg width="128" height="128" viewBox="0 0 128 128" fill="none" xmlns="http://www.w3.org/2000/svg">
<path d="M91.102 107.577H36.8987C27.8001 107.577 20.4235 100.2 20.4235 91.1015V36.8982C20.4235 27.7996 27.8001 20.423 36.8987 20.423H91.102C100.201 20.423 107.577 27.7996 107.577 36.8982V91.1015C107.577 100.2 100.201 107.577 91.102 107.577Z" fill="#C1DBFF"/>
<path d="M46.004 18.6812H22.6179C21.4529 18.6812 20.5095 19.6246 20.5095 20.7884V43.7336C20.5095 44.8974 21.4529 45.842 22.6179 45.842H46.004C47.169 45.842 48.1124 44.8974 48.1124 43.7336V20.7884C48.1124 19.6246 47.169 18.6812 46.004 18.6812ZM44.7062 19.5997C45.1661 19.5997 45.5382 19.9718 45.5382 20.4317C45.5382 20.8903 45.1661 21.2637 44.7062 21.2637C44.2475 21.2637 43.8742 20.8903 43.8742 20.4317C43.8742 19.9718 44.2475 19.5997 44.7062 19.5997Z" fill="white" stroke="black" stroke-width="0.238889" stroke-miterlimit="10" stroke-linecap="round" stroke-linejoin="round"/>
<path d="M46.004 18.6812H22.6179C21.4529 18.6812 20.5095 19.6246 20.5095 20.7884V22.2497H48.1124V20.7884C48.1124 19.6246 47.169 18.6812 46.004 18.6812ZM44.7062 21.2637C44.2475 21.2637 43.8742 20.8903 43.8742 20.4317C43.8742 19.9718 44.2475 19.5997 44.7062 19.5997C45.1661 19.5997 45.5382 19.9718 45.5382 20.4317C45.5382 20.8903 45.1661 21.2637 44.7062 21.2637Z" fill="#15B38B" stroke="black" stroke-width="0.238889" stroke-miterlimit="10" stroke-linecap="round" stroke-linejoin="round"/>
<path d="M25.2121 25.0658H22.6853V27.5926H25.2121V25.0658Z" fill="#FAA81A" stroke="black" stroke-width="0.238889" stroke-miterlimit="10" stroke-linecap="round" stroke-linejoin="round"/>
<path d="M28.6668 25.0658H26.14V27.5926H28.6668V25.0658Z" fill="#CCCCCC" stroke="black" stroke-width="0.238889" stroke-miterlimit="10" stroke-linecap="round" stroke-linejoin="round"/>
<path d="M25.212 31.0456L25.212 28.5188L22.6852 28.5188L22.6852 31.0456L25.212 31.0456Z" fill="#FAA81A" stroke="black" stroke-width="0.238889" stroke-miterlimit="10" stroke-linecap="round" stroke-linejoin="round"/>
<path d="M32.1203 25.0658H29.5935V27.5926H32.1203V25.0658Z" fill="#CCCCCC" stroke="black" stroke-width="0.238889" stroke-miterlimit="10" stroke-linecap="round" stroke-linejoin="round"/>
<path d="M35.5743 25.0658H33.0475V27.5926H35.5743V25.0658Z" fill="#CCCCCC" stroke="black" stroke-width="0.238889" stroke-miterlimit="10" stroke-linecap="round" stroke-linejoin="round"/>
<path d="M25.2121 23.4001H22.6853V24.2914H25.2121V23.4001Z" fill="#999999" stroke="black" stroke-width="0.238889" stroke-miterlimit="10" stroke-linecap="round" stroke-linejoin="round"/>
<path d="M28.6668 23.4001H26.14V24.2914H28.6668V23.4001Z" fill="#999999" stroke="black" stroke-width="0.238889" stroke-miterlimit="10" stroke-linecap="round" stroke-linejoin="round"/>
<path d="M32.1203 23.4001H29.5935V24.2914H32.1203V23.4001Z" fill="#999999" stroke="black" stroke-width="0.238889" stroke-miterlimit="10" stroke-linecap="round" stroke-linejoin="round"/>
<path d="M35.5743 23.4001H33.0475V24.2914H35.5743V23.4001Z" fill="#999999" stroke="black" stroke-width="0.238889" stroke-miterlimit="10" stroke-linecap="round" stroke-linejoin="round"/>
<path d="M39.0278 23.4001H36.501V24.2914H39.0278V23.4001Z" fill="#999999" stroke="black" stroke-width="0.238889" stroke-miterlimit="10" stroke-linecap="round" stroke-linejoin="round"/>
<path d="M42.4825 23.4001H39.9557V24.2914H42.4825V23.4001Z" fill="#999999" stroke="black" stroke-width="0.238889" stroke-miterlimit="10" stroke-linecap="round" stroke-linejoin="round"/>
<path d="M45.936 23.4001H43.4092V24.2914H45.936V23.4001Z" fill="#999999" stroke="black" stroke-width="0.238889" stroke-miterlimit="10" stroke-linecap="round" stroke-linejoin="round"/>
<path d="M28.6668 28.5188H26.14V31.0456H28.6668V28.5188Z" fill="#CCCCCC" stroke="black" stroke-width="0.238889" stroke-miterlimit="10" stroke-linecap="round" stroke-linejoin="round"/>
<path d="M32.1203 28.5188H29.5935V31.0456H32.1203V28.5188Z" fill="#CCCCCC" stroke="black" stroke-width="0.238889" stroke-miterlimit="10" stroke-linecap="round" stroke-linejoin="round"/>
<path d="M35.5743 28.5188H33.0475V31.0456H35.5743V28.5188Z" fill="#CCCCCC" stroke="black" stroke-width="0.238889" stroke-miterlimit="10" stroke-linecap="round" stroke-linejoin="round"/>
<path d="M39.0278 28.5188H36.501V31.0456H39.0278V28.5188Z" fill="#CCCCCC" stroke="black" stroke-width="0.238889" stroke-miterlimit="10" stroke-linecap="round" stroke-linejoin="round"/>
<path d="M42.4825 28.5188H39.9557V31.0456H42.4825V28.5188Z" fill="#CCCCCC" stroke="black" stroke-width="0.238889" stroke-miterlimit="10" stroke-linecap="round" stroke-linejoin="round"/>
<path d="M45.936 28.5188H43.4092V31.0456H45.936V28.5188Z" fill="#CCCCCC" stroke="black" stroke-width="0.238889" stroke-miterlimit="10" stroke-linecap="round" stroke-linejoin="round"/>
<path d="M25.2121 31.9728H22.6853V34.4996H25.2121V31.9728Z" fill="#FAA81A" stroke="black" stroke-width="0.238889" stroke-miterlimit="10" stroke-linecap="round" stroke-linejoin="round"/>
<path d="M28.6668 31.9728H26.14V34.4996H28.6668V31.9728Z" fill="#CCCCCC" stroke="black" stroke-width="0.238889" stroke-miterlimit="10" stroke-linecap="round" stroke-linejoin="round"/>
<path d="M32.1203 31.9728H29.5935V34.4996H32.1203V31.9728Z" fill="#CCCCCC" stroke="black" stroke-width="0.238889" stroke-miterlimit="10" stroke-linecap="round" stroke-linejoin="round"/>
<path d="M35.5743 31.9728H33.0475V34.4996H35.5743V31.9728Z" fill="#CCCCCC" stroke="black" stroke-width="0.238889" stroke-miterlimit="10" stroke-linecap="round" stroke-linejoin="round"/>
<path d="M39.0278 31.9728H36.501V34.4996H39.0278V31.9728Z" fill="#CCCCCC" stroke="black" stroke-width="0.238889" stroke-miterlimit="10" stroke-linecap="round" stroke-linejoin="round"/>
<path d="M42.4825 31.9728H39.9557V34.4996H42.4825V31.9728Z" fill="#CCCCCC" stroke="black" stroke-width="0.238889" stroke-miterlimit="10" stroke-linecap="round" stroke-linejoin="round"/>
<path d="M45.936 31.9728H43.4092V34.4996H45.936V31.9728Z" fill="#CCCCCC" stroke="black" stroke-width="0.238889" stroke-miterlimit="10" stroke-linecap="round" stroke-linejoin="round"/>
<path d="M25.2121 35.4277H22.6853V37.9545H25.2121V35.4277Z" fill="#FAA81A" stroke="black" stroke-width="0.238889" stroke-miterlimit="10" stroke-linecap="round" stroke-linejoin="round"/>
<path d="M28.6668 35.4277H26.14V37.9545H28.6668V35.4277Z" fill="#CCCCCC" stroke="black" stroke-width="0.238889" stroke-miterlimit="10" stroke-linecap="round" stroke-linejoin="round"/>
<path d="M32.1203 35.4277H29.5935V37.9545H32.1203V35.4277Z" fill="#CCCCCC" stroke="black" stroke-width="0.238889" stroke-miterlimit="10" stroke-linecap="round" stroke-linejoin="round"/>
<path d="M35.5743 35.4277H33.0475V37.9545H35.5743V35.4277Z" fill="#CCCCCC" stroke="black" stroke-width="0.238889" stroke-miterlimit="10" stroke-linecap="round" stroke-linejoin="round"/>
<path d="M39.0278 35.4277H36.501V37.9545H39.0278V35.4277Z" fill="#CCCCCC" stroke="black" stroke-width="0.238889" stroke-miterlimit="10" stroke-linecap="round" stroke-linejoin="round"/>
<path d="M42.4825 35.4277H39.9557V37.9545H42.4825V35.4277Z" fill="#CCCCCC" stroke="black" stroke-width="0.238889" stroke-miterlimit="10" stroke-linecap="round" stroke-linejoin="round"/>
<path d="M45.936 35.4277H43.4092V37.9545H45.936V35.4277Z" fill="#CCCCCC" stroke="black" stroke-width="0.238889" stroke-miterlimit="10" stroke-linecap="round" stroke-linejoin="round"/>
<path d="M32.1203 38.8812H29.5935V41.408H32.1203V38.8812Z" fill="#CCCCCC" stroke="black" stroke-width="0.238889" stroke-miterlimit="10" stroke-linecap="round" stroke-linejoin="round"/>
<path d="M35.5743 38.8812H33.0475V41.408H35.5743V38.8812Z" fill="#CCCCCC" stroke="black" stroke-width="0.238889" stroke-miterlimit="10" stroke-linecap="round" stroke-linejoin="round"/>
<path d="M39.0278 38.8812H36.501V41.408H39.0278V38.8812Z" fill="#CCCCCC" stroke="black" stroke-width="0.238889" stroke-miterlimit="10" stroke-linecap="round" stroke-linejoin="round"/>
<path d="M42.4825 38.8812H39.9557V41.408H42.4825V38.8812Z" fill="#CCCCCC" stroke="black" stroke-width="0.238889" stroke-miterlimit="10" stroke-linecap="round" stroke-linejoin="round"/>
<path d="M45.936 38.8812H43.4092V41.408H45.936V38.8812Z" fill="#CCCCCC" stroke="black" stroke-width="0.238889" stroke-miterlimit="10" stroke-linecap="round" stroke-linejoin="round"/>
<path opacity="0.5" d="M46.004 18.6812H22.6179C21.4529 18.6812 20.5095 19.6246 20.5095 20.7884V43.7336C20.5095 44.8974 21.4529 45.842 22.6179 45.842H46.004C47.169 45.842 48.1124 44.8974 48.1124 43.7336V20.7884C48.1124 19.6246 47.169 18.6812 46.004 18.6812ZM44.7062 19.5997C45.1661 19.5997 45.5382 19.9718 45.5382 20.4317C45.5382 20.8903 45.1661 21.2637 44.7062 21.2637C44.2475 21.2637 43.8742 20.8903 43.8742 20.4317C43.8742 19.9718 44.2475 19.5997 44.7062 19.5997Z" fill="black" stroke="black" stroke-width="0.238889" stroke-miterlimit="10" stroke-linecap="round" stroke-linejoin="round"/>
<path d="M41.219 13.895H17.8329C16.6679 13.895 15.7245 14.8396 15.7245 16.0035V38.9487C15.7245 40.1125 16.6679 41.0571 17.8329 41.0571H41.219C42.3829 41.0571 43.3274 40.1125 43.3274 38.9487V16.0035C43.3274 14.8396 42.3829 13.895 41.219 13.895ZM39.9556 14.8479C40.4143 14.8479 40.7876 15.2201 40.7876 15.6799C40.7876 16.1398 40.4143 16.5119 39.9556 16.5119C39.4957 16.5119 39.1236 16.1398 39.1236 15.6799C39.1236 15.2201 39.4957 14.8479 39.9556 14.8479Z" fill="white" stroke="black" stroke-width="0.238889" stroke-miterlimit="10" stroke-linecap="round" stroke-linejoin="round"/>
<path d="M41.219 13.895H17.8329C16.6679 13.895 15.7245 14.8396 15.7245 16.0035V17.4648H43.3274V16.0035C43.3274 14.8396 42.3829 13.895 41.219 13.895ZM39.9556 16.5119C39.4957 16.5119 39.1236 16.1398 39.1236 15.6799C39.1236 15.2201 39.4957 14.8479 39.9556 14.8479C40.4143 14.8479 40.7876 15.2201 40.7876 15.6799C40.7876 16.1398 40.4143 16.5119 39.9556 16.5119Z" fill="#15B38B" stroke="black" stroke-width="0.238889" stroke-miterlimit="10" stroke-linecap="round" stroke-linejoin="round"/>
<path d="M20.4275 20.281H17.9006V22.8078H20.4275V20.281Z" fill="#FAA81A" stroke="black" stroke-width="0.238889" stroke-miterlimit="10" stroke-linecap="round" stroke-linejoin="round"/>
<path d="M23.8802 20.281H21.3534V22.8078H23.8802V20.281Z" fill="#CCCCCC" stroke="black" stroke-width="0.238889" stroke-miterlimit="10" stroke-linecap="round" stroke-linejoin="round"/>
<path d="M20.4268 26.2608L20.4268 23.734L17.9 23.734L17.9 26.2608L20.4268 26.2608Z" fill="#FAA81A" stroke="black" stroke-width="0.238889" stroke-miterlimit="10" stroke-linecap="round" stroke-linejoin="round"/>
<path d="M27.3364 20.281H24.8096V22.8078H27.3364V20.281Z" fill="#CCCCCC" stroke="black" stroke-width="0.238889" stroke-miterlimit="10" stroke-linecap="round" stroke-linejoin="round"/>
<path d="M30.7889 20.281H28.2621V22.8078H30.7889V20.281Z" fill="#CCCCCC" stroke="black" stroke-width="0.238889" stroke-miterlimit="10" stroke-linecap="round" stroke-linejoin="round"/>
<path d="M20.4275 18.6158H17.9006V19.5071H20.4275V18.6158Z" fill="#999999" stroke="black" stroke-width="0.238889" stroke-miterlimit="10" stroke-linecap="round" stroke-linejoin="round"/>
<path d="M23.8802 18.6158H21.3534V19.5071H23.8802V18.6158Z" fill="#999999" stroke="black" stroke-width="0.238889" stroke-miterlimit="10" stroke-linecap="round" stroke-linejoin="round"/>
<path d="M27.3364 18.6158H24.8096V19.5071H27.3364V18.6158Z" fill="#999999" stroke="black" stroke-width="0.238889" stroke-miterlimit="10" stroke-linecap="round" stroke-linejoin="round"/>
<path d="M30.7889 18.6158H28.2621V19.5071H30.7889V18.6158Z" fill="#999999" stroke="black" stroke-width="0.238889" stroke-miterlimit="10" stroke-linecap="round" stroke-linejoin="round"/>
<path d="M34.2431 18.6158H31.7163V19.5071H34.2431V18.6158Z" fill="#999999" stroke="black" stroke-width="0.238889" stroke-miterlimit="10" stroke-linecap="round" stroke-linejoin="round"/>
<path d="M37.6966 18.6158H35.1698V19.5071H37.6966V18.6158Z" fill="#999999" stroke="black" stroke-width="0.238889" stroke-miterlimit="10" stroke-linecap="round" stroke-linejoin="round"/>
<path d="M41.1513 18.6158H38.6245V19.5071H41.1513V18.6158Z" fill="#999999" stroke="black" stroke-width="0.238889" stroke-miterlimit="10" stroke-linecap="round" stroke-linejoin="round"/>
<path d="M23.8802 23.7345H21.3534V26.2613H23.8802V23.7345Z" fill="#CCCCCC" stroke="black" stroke-width="0.238889" stroke-miterlimit="10" stroke-linecap="round" stroke-linejoin="round"/>
<path d="M27.3364 23.7345H24.8096V26.2613H27.3364V23.7345Z" fill="#CCCCCC" stroke="black" stroke-width="0.238889" stroke-miterlimit="10" stroke-linecap="round" stroke-linejoin="round"/>
<path d="M30.7889 23.7345H28.2621V26.2613H30.7889V23.7345Z" fill="#CCCCCC" stroke="black" stroke-width="0.238889" stroke-miterlimit="10" stroke-linecap="round" stroke-linejoin="round"/>
<path d="M34.2431 23.7345H31.7163V26.2613H34.2431V23.7345Z" fill="#CCCCCC" stroke="black" stroke-width="0.238889" stroke-miterlimit="10" stroke-linecap="round" stroke-linejoin="round"/>
<path d="M37.6966 23.7345H35.1698V26.2613H37.6966V23.7345Z" fill="#CCCCCC" stroke="black" stroke-width="0.238889" stroke-miterlimit="10" stroke-linecap="round" stroke-linejoin="round"/>
<path d="M41.1513 23.7345H38.6245V26.2613H41.1513V23.7345Z" fill="#CCCCCC" stroke="black" stroke-width="0.238889" stroke-miterlimit="10" stroke-linecap="round" stroke-linejoin="round"/>
<path d="M34.2431 20.281H31.7163V22.8078H34.2431V20.281Z" fill="#CCCCCC" stroke="black" stroke-width="0.238889" stroke-miterlimit="10" stroke-linecap="round" stroke-linejoin="round"/>
<path d="M37.6966 20.281H35.1698V22.8078H37.6966V20.281Z" fill="#CCCCCC" stroke="black" stroke-width="0.238889" stroke-miterlimit="10" stroke-linecap="round" stroke-linejoin="round"/>
<path d="M41.1513 20.281H38.6245V22.8078H41.1513V20.281Z" fill="#CCCCCC" stroke="black" stroke-width="0.238889" stroke-miterlimit="10" stroke-linecap="round" stroke-linejoin="round"/>
<path d="M20.4275 27.188H17.9006V29.7148H20.4275V27.188Z" fill="#FAA81A" stroke="black" stroke-width="0.238889" stroke-miterlimit="10" stroke-linecap="round" stroke-linejoin="round"/>
<path d="M23.8802 27.188H21.3534V29.7148H23.8802V27.188Z" fill="#CCCCCC" stroke="black" stroke-width="0.238889" stroke-miterlimit="10" stroke-linecap="round" stroke-linejoin="round"/>
<path d="M27.3364 27.188H24.8096V29.7148H27.3364V27.188Z" fill="#CCCCCC" stroke="black" stroke-width="0.238889" stroke-miterlimit="10" stroke-linecap="round" stroke-linejoin="round"/>
<path d="M30.7889 27.188H28.2621V29.7148H30.7889V27.188Z" fill="#CCCCCC" stroke="black" stroke-width="0.238889" stroke-miterlimit="10" stroke-linecap="round" stroke-linejoin="round"/>
<path d="M34.2431 27.188H31.7163V29.7148H34.2431V27.188Z" fill="#CCCCCC" stroke="black" stroke-width="0.238889" stroke-miterlimit="10" stroke-linecap="round" stroke-linejoin="round"/>
<path d="M37.6966 27.188H35.1698V29.7148H37.6966V27.188Z" fill="#CCCCCC" stroke="black" stroke-width="0.238889" stroke-miterlimit="10" stroke-linecap="round" stroke-linejoin="round"/>
<path d="M41.1513 27.188H38.6245V29.7148H41.1513V27.188Z" fill="#CCCCCC" stroke="black" stroke-width="0.238889" stroke-miterlimit="10" stroke-linecap="round" stroke-linejoin="round"/>
<path d="M20.4275 30.642H17.9006V33.1688H20.4275V30.642Z" fill="#FAA81A" stroke="black" stroke-width="0.238889" stroke-miterlimit="10" stroke-linecap="round" stroke-linejoin="round"/>
<path d="M23.8802 30.642H21.3534V33.1688H23.8802V30.642Z" fill="#CCCCCC" stroke="black" stroke-width="0.238889" stroke-miterlimit="10" stroke-linecap="round" stroke-linejoin="round"/>
<path d="M27.3364 30.642H24.8096V33.1688H27.3364V30.642Z" fill="#CCCCCC" stroke="black" stroke-width="0.238889" stroke-miterlimit="10" stroke-linecap="round" stroke-linejoin="round"/>
<path d="M30.7889 30.642H28.2621V33.1688H30.7889V30.642Z" fill="#CCCCCC" stroke="black" stroke-width="0.238889" stroke-miterlimit="10" stroke-linecap="round" stroke-linejoin="round"/>
<path d="M34.2431 30.642H31.7163V33.1688H34.2431V30.642Z" fill="#CCCCCC" stroke="black" stroke-width="0.238889" stroke-miterlimit="10" stroke-linecap="round" stroke-linejoin="round"/>
<path d="M37.6966 30.642H35.1698V33.1688H37.6966V30.642Z" fill="#CCCCCC" stroke="black" stroke-width="0.238889" stroke-miterlimit="10" stroke-linecap="round" stroke-linejoin="round"/>
<path d="M41.1513 30.642H38.6245V33.1688H41.1513V30.642Z" fill="#CCCCCC" stroke="black" stroke-width="0.238889" stroke-miterlimit="10" stroke-linecap="round" stroke-linejoin="round"/>
<path d="M27.3364 34.0969H24.8096V36.6237H27.3364V34.0969Z" fill="#CCCCCC" stroke="black" stroke-width="0.238889" stroke-miterlimit="10" stroke-linecap="round" stroke-linejoin="round"/>
<path d="M30.7889 34.0969H28.2621V36.6237H30.7889V34.0969Z" fill="#CCCCCC" stroke="black" stroke-width="0.238889" stroke-miterlimit="10" stroke-linecap="round" stroke-linejoin="round"/>
<path d="M34.2431 34.0969H31.7163V36.6237H34.2431V34.0969Z" fill="#CCCCCC" stroke="black" stroke-width="0.238889" stroke-miterlimit="10" stroke-linecap="round" stroke-linejoin="round"/>
<path d="M37.6966 34.0969H35.1698V36.6237H37.6966V34.0969Z" fill="#CCCCCC" stroke="black" stroke-width="0.238889" stroke-miterlimit="10" stroke-linecap="round" stroke-linejoin="round"/>
<path d="M41.1513 34.0969H38.6245V36.6237H41.1513V34.0969Z" fill="#CCCCCC" stroke="black" stroke-width="0.238889" stroke-miterlimit="10" stroke-linecap="round" stroke-linejoin="round"/>
<path opacity="0.5" d="M41.219 13.895H17.8329C16.6679 13.895 15.7245 14.8396 15.7245 16.0035V38.9487C15.7245 40.1125 16.6679 41.0571 17.8329 41.0571H41.219C42.3829 41.0571 43.3274 40.1125 43.3274 38.9487V16.0035C43.3274 14.8396 42.3829 13.895 41.219 13.895ZM39.9556 14.8479C40.4143 14.8479 40.7876 15.2201 40.7876 15.6799C40.7876 16.1398 40.4143 16.5119 39.9556 16.5119C39.4957 16.5119 39.1236 16.1398 39.1236 15.6799C39.1236 15.2201 39.4957 14.8479 39.9556 14.8479Z" fill="black" stroke="black" stroke-width="0.238889" stroke-miterlimit="10" stroke-linecap="round" stroke-linejoin="round"/>
<path d="M109.107 61.1188C105.223 82.4047 84.8174 99.6598 63.5315 99.6598H55.5683L55.7188 98.8349C55.221 98.7259 54.7292 98.6074 54.2432 98.477C46.9555 96.5404 40.9952 92.3199 36.9893 86.586C35.3692 84.2678 34.069 81.7019 33.1303 78.9404C31.3182 73.6106 30.85 67.5484 32.0234 61.1188H58.0963C59.8136 61.1188 61.2856 59.8909 61.5937 58.202L61.8343 56.8853L63.3751 56.8817L64.5318 50.5434L62.9923 50.541L64.1786 44.0355L65.1694 38.6109L67.0551 28.2773L67.0752 28.1694L67.0883 28.0983L67.88 23.7594C68.4133 23.6302 68.949 23.5116 69.4859 23.4026L69.6364 22.5765H77.5997C98.8856 22.5765 112.992 39.8328 109.107 61.1188Z" fill="#063889" stroke="black" stroke-width="0.238889" stroke-miterlimit="10" stroke-linecap="round" stroke-linejoin="round"/>
<path d="M105.813 71.4666C101.972 79.8067 95.6052 87.0079 87.9252 92.0449C80.6316 96.8283 72.1539 99.6598 63.5317 99.6598H55.5685L55.719 98.8349C55.2212 98.7258 54.7294 98.6073 54.2434 98.4769C52.8568 98.1083 51.5187 97.658 50.2339 97.1294L50.2399 97.0689L52.34 76.7169L96.9089 73.3889C99.348 68.7442 108.377 65.0654 105.813 71.4666Z" fill="black" stroke="black" stroke-width="0.238889" stroke-miterlimit="10" stroke-linecap="round" stroke-linejoin="round"/>
<g opacity="0.31">
<path d="M105.078 37.3029L97.3563 37.4736L87.9258 27.646H95.5726C99.4885 30.1147 102.685 33.3633 105.078 37.3029Z" fill="#1575E8"/>
</g>
<path d="M69.6364 22.5763C69.1197 22.5763 68.6041 22.587 68.0897 22.6071L67.88 23.7591L67.0883 28.0981L67.0752 28.1692L67.0551 28.277L65.1694 38.6107L64.1786 44.0353L62.9923 50.5407L64.5318 50.5431L63.3751 56.8815L61.8343 56.885L61.5937 58.2018C61.2856 59.8918 59.8136 61.1185 58.0963 61.1185H24.0601C20.2687 81.8889 33.608 98.8204 54.0334 99.6287C54.5407 99.6489 55.0527 99.6596 55.5683 99.6596C76.8542 99.6596 97.2583 82.4044 101.143 61.1185C105.028 39.8326 90.9223 22.5763 69.6364 22.5763Z" fill="#1149D5" stroke="black" stroke-width="0.238889" stroke-miterlimit="10" stroke-linecap="round" stroke-linejoin="round"/>
<path d="M93.0927 42.2257L40.4941 77.4305L94.029 44.2405L93.0927 42.2257Z" fill="#52A5F7"/>
<path d="M93.0926 42.2256L33.3794 82.1925C31.7723 79.7154 30.5776 76.9326 29.8582 73.9211L47.591 61.1187H58.0964C59.8138 61.1187 61.2858 59.8908 61.5939 58.2019L61.8345 56.8852L63.3753 56.8816L64.532 50.5433L62.9924 50.5409L63.1062 49.9175L69.5252 45.2834L75.841 44.9006C74.1261 44.5213 73.6662 42.2932 75.0896 41.2656L78.3062 38.9427H78.3074L85.7622 33.5596C88.8318 35.8588 91.3219 38.804 93.0926 42.2256Z" fill="#1575E8"/>
<path d="M76.3554 68.0699C75.9323 70.3869 75.0399 72.3235 73.6804 73.8796C72.321 75.4358 70.5954 76.5937 68.5036 77.3546C67.3267 77.7836 66.0621 78.0906 64.7098 78.2779L63.8991 82.7211C63.7948 83.2948 63.2959 83.7108 62.7127 83.7108H59.3551C59.0363 83.7108 58.7507 83.5887 58.5373 83.3907C58.247 83.1217 58.0905 82.7152 58.1687 82.2885L58.8799 78.3916C58.5622 78.3656 58.2434 78.3348 57.9258 78.298C56.7252 78.1617 55.5234 77.9555 54.3181 77.6782C52.5036 77.2586 50.8479 76.7371 49.3522 76.1137C48.6422 75.8174 48.3566 74.9605 48.743 74.2945L51.1679 70.1096L50.7613 69.2124V69.2112H52.3104C52.5498 69.1899 52.7975 69.2337 53.0262 69.3522C54.6025 70.1712 56.0923 70.7709 57.4956 71.1478C58.0514 71.2983 58.6073 71.4239 59.1631 71.5247C59.6633 71.6159 60.1634 71.6882 60.6636 71.7404C61.0499 71.7807 61.4375 71.8091 61.8239 71.8245C62.1024 71.8376 62.3797 71.8435 62.657 71.8435C64.3459 71.8435 65.7136 71.5543 66.7637 70.9747C67.8126 70.3952 68.4455 69.5099 68.6636 68.3176C68.8745 67.1596 68.5296 66.2826 67.6289 65.6865C66.7281 65.0903 65.3367 64.5937 63.457 64.1967C62.9865 64.0983 62.5326 63.994 62.0964 63.8862C61.5844 63.7593 61.095 63.6266 60.6292 63.4867C59.3634 63.1087 58.2659 62.6832 57.3391 62.2103C56.7193 61.895 56.167 61.5312 55.6834 61.1188H58.0964C59.8138 61.1188 61.2858 59.8909 61.5939 58.202L61.8345 56.8853L63.3753 56.8817C63.4511 56.9137 63.5293 56.9433 63.6087 56.973C64.4609 57.287 65.5382 57.5928 66.8419 57.8915C69.255 58.4545 71.2117 59.1573 72.7133 60.0011C74.2138 60.845 75.2828 61.9306 75.9181 63.2533C76.5533 64.5783 76.6991 66.1831 76.3554 68.0699Z" fill="#063889" stroke="black" stroke-width="0.238889" stroke-miterlimit="10" stroke-linecap="round" stroke-linejoin="round"/>
<path d="M79.16 47.5013L77.1298 51.5784C77.0208 51.7964 76.8584 51.9695 76.6652 52.0904C76.4732 52.2101 76.2504 52.2776 76.0205 52.2835C75.992 52.2847 75.9648 52.2847 75.9363 52.2835H74.4703L74.6551 51.8474C73.6406 51.4539 72.638 51.1339 71.646 50.891C70.0306 50.4927 68.5266 50.2948 67.1363 50.2948C66.8697 50.2948 66.6089 50.3019 66.3553 50.3149C65.7034 50.3481 65.0966 50.424 64.5325 50.5437L62.9929 50.5413L64.1793 44.0358C64.5064 43.9801 64.8394 43.9304 65.1784 43.8877L65.976 39.5155C66.0519 39.0995 66.3363 38.7665 66.7097 38.616C66.8495 38.5579 67.0024 38.5271 67.1624 38.5271H70.52C71.2726 38.5271 71.8415 39.2086 71.7064 39.9493L70.9917 43.8628C71.8984 43.979 72.8513 44.1532 73.8504 44.3855C75.3793 44.7434 76.907 45.189 78.4335 45.7224C79.1624 45.9772 79.5037 46.8115 79.16 47.5013Z" fill="#063889" stroke="black" stroke-width="0.238889" stroke-miterlimit="10" stroke-linecap="round" stroke-linejoin="round"/>
<path d="M55.9402 82.2889C55.862 82.7191 56.0208 83.1304 56.3171 83.3994C56.5292 83.5914 56.8113 83.7111 57.1266 83.7111H61.1645C61.7464 83.7111 62.2454 83.2951 62.3497 82.7215L63.1615 78.2782C64.5126 78.091 65.7772 77.784 66.9541 77.355C69.046 76.5941 70.7716 75.4361 72.1322 73.88C73.4904 72.3238 74.3828 70.3873 74.806 68.0702C75.1497 66.1834 75.0039 64.5787 74.3686 63.2536C73.7334 61.931 72.6643 60.8453 71.1639 60.0015C69.6623 59.1576 67.7055 58.4548 65.2925 57.8918C64.5506 57.7212 63.8821 57.5493 63.286 57.3739C62.8356 57.2424 62.4267 57.1096 62.0593 56.9733C61.9834 56.9449 61.9088 56.9164 61.8353 56.8856L61.5947 58.2024C61.2866 59.8924 59.8146 61.1191 58.0972 61.1191H54.1351C54.6187 61.5315 55.1698 61.8954 55.7908 62.2107C57.0602 62.859 58.6495 63.4184 60.5565 63.8889C60.9903 63.9967 61.4406 64.0987 61.9076 64.197C61.9503 64.2065 61.9929 64.2148 62.0356 64.2255C63.8501 64.6166 65.1988 65.1037 66.0794 65.6868C66.9802 66.283 67.3251 67.16 67.1141 68.3179C66.896 69.5102 66.2631 70.3955 65.2143 70.9751C64.3171 71.4705 63.1876 71.7538 61.8246 71.8249C61.5923 71.8379 61.3529 71.8438 61.1076 71.8438C60.9535 71.8438 60.8006 71.8415 60.6466 71.8379C60.1393 71.8261 59.6308 71.7941 59.1236 71.7419C58.064 71.6317 57.0057 71.4338 55.9473 71.1481C54.5429 70.7713 53.0531 70.1715 51.4768 69.3526C51.3191 69.2708 51.1532 69.2246 50.9873 69.2115C50.9162 69.2044 50.8451 69.2044 50.774 69.2115C50.7704 69.2115 50.7657 69.2115 50.7621 69.2127C50.3639 69.2495 49.9894 69.4711 49.7749 69.8421L47.1935 74.2948C46.8083 74.9609 47.0928 75.8178 47.8039 76.1141C49.2984 76.7375 50.9541 77.259 52.7686 77.6785C54.006 77.963 55.5194 78.1727 56.752 78.309L55.9402 82.2889Z" fill="white" stroke="black" stroke-width="0.238889" stroke-miterlimit="10" stroke-linecap="round" stroke-linejoin="round"/>
<path d="M77.6098 47.5013L75.5796 51.5784C75.3674 52.0062 74.9431 52.2646 74.494 52.2835H74.4703C74.456 52.2835 74.4418 52.2847 74.4288 52.2847C74.2617 52.2847 74.0934 52.2515 73.9322 52.1828C72.6356 51.6317 71.3568 51.2003 70.0957 50.891C68.7731 50.565 67.5263 50.373 66.3553 50.3149C66.0957 50.3019 65.8397 50.2948 65.5873 50.2948C65.2377 50.2948 64.8987 50.3055 64.5716 50.3292C64.0122 50.3671 63.486 50.4382 62.9929 50.5413L64.1793 44.0358L65.1701 38.6112C65.3076 38.5567 65.4569 38.5271 65.6122 38.5271H68.9698C69.7224 38.5271 70.2913 39.2086 70.1562 39.9493L69.4415 43.8628C70.3494 43.979 71.3023 44.1532 72.3002 44.3855C73.8291 44.7434 75.358 45.189 76.8845 45.7224C77.6122 45.9772 77.9535 46.8115 77.6098 47.5013Z" fill="white" stroke="black" stroke-width="0.238889" stroke-miterlimit="10" stroke-linecap="round" stroke-linejoin="round"/>
<path d="M68.0901 22.6075L67.8803 23.7595L67.0886 28.0985L67.0756 28.1696L67.0554 28.2775" stroke="black" stroke-width="0.238889" stroke-miterlimit="10" stroke-linecap="round" stroke-linejoin="round"/>
<path d="M57.3468 94.0941C57.2188 94.0976 57.092 94.1 56.9652 94.1012C56.8384 94.1035 56.7116 94.1035 56.5836 94.1035H56.5824C56.0657 94.1035 55.5548 94.0917 55.0488 94.068C47.7492 93.729 41.5187 90.9782 36.9901 86.5859C31.6011 81.3569 28.6227 73.8025 29.1217 65.2277C29.1347 64.9978 29.1513 64.7678 29.1691 64.5379C29.1809 64.3921 29.194 64.2475 29.207 64.1018C29.2283 63.8647 29.2532 63.6277 29.2805 63.3895C29.3101 63.1394 29.3409 62.8881 29.3753 62.6369C29.4097 62.3856 29.4476 62.1332 29.4879 61.8795C29.5282 61.6271 29.572 61.3735 29.6183 61.1187H31.159C29.9608 67.6846 30.762 73.8013 33.1311 78.9403C36.9593 87.2484 44.8823 93.0013 55.0689 93.9601C55.5703 94.0087 56.0763 94.0443 56.5883 94.068C56.8396 94.0798 57.0932 94.0881 57.3468 94.0941Z" fill="#0A3A9B" stroke="black" stroke-width="0.238889" stroke-miterlimit="10" stroke-linecap="round" stroke-linejoin="round"/>
<path d="M69.3997 28.1431C69.1378 28.1491 68.877 28.1574 68.6151 28.1704C68.0948 28.1941 67.5745 28.2297 67.0554 28.2771L67.0756 28.1692C67.5911 28.1455 68.1067 28.1337 68.6222 28.1337C68.7763 28.1337 68.9304 28.1349 69.0833 28.1372C69.1888 28.1384 69.2942 28.1408 69.3997 28.1431Z" fill="#0A3A9B" stroke="black" stroke-width="0.238889" stroke-miterlimit="10" stroke-linecap="round" stroke-linejoin="round"/>
<path d="M32.0238 61.1187H31.1586H30.8694H29.6179H28.8155H24.0605" stroke="black" stroke-width="0.238889" stroke-miterlimit="10" stroke-linecap="round" stroke-linejoin="round"/>
<path d="M64.5325 50.5435L62.9929 50.5411" stroke="black" stroke-width="0.238889" stroke-miterlimit="10" stroke-linecap="round" stroke-linejoin="round"/>
<path d="M63.3755 56.8817L61.8347 56.8853" stroke="black" stroke-width="0.238889" stroke-miterlimit="10" stroke-linecap="round" stroke-linejoin="round"/>
<path d="M69.4002 28.1431C69.2947 28.1408 69.1892 28.1384 69.0837 28.1372C68.9308 28.1349 68.7768 28.1337 68.6227 28.1337C68.1071 28.1337 67.5916 28.1455 67.076 28.1692L67.0559 28.2771L65.1703 38.6107L64.1794 44.0353L62.9931 50.5408L64.5326 50.5431L63.3759 56.8815L61.8351 56.8851L61.5946 58.2018C61.2864 59.8919 59.8144 61.1186 58.0971 61.1186H29.6183C29.572 61.3734 29.5282 61.627 29.4879 61.8794C29.4476 62.1331 29.4097 62.3855 29.3753 62.6368C29.3409 62.888 29.3101 63.1393 29.2805 63.3894C29.2532 63.6276 29.2283 63.8646 29.207 64.1017C29.194 64.2474 29.1809 64.392 29.1691 64.5378C29.1513 64.7677 29.1347 64.9977 29.1217 65.2276C28.6227 73.8024 31.6011 81.3568 36.9901 86.5858C41.5187 90.9781 47.7492 93.7289 55.0488 94.0679C55.5548 94.0916 56.0657 94.1034 56.5824 94.1034H56.5836C56.7116 94.1034 56.8384 94.1034 56.9652 94.1011C57.092 94.0999 57.2188 94.0975 57.3468 94.094C75.2858 93.6898 92.3086 79.0812 95.588 61.1186C98.8651 43.1618 87.1827 28.5568 69.4002 28.1431Z" stroke="black" stroke-width="0.238889" stroke-miterlimit="10" stroke-linecap="round" stroke-linejoin="round"/>
<path d="M97.2937 37.5999L95.2907 39.0494L92.5032 40.9161C90.1221 36.8805 86.6709 33.5762 82.5073 31.3469L87.6226 27.655C91.6321 30.1854 94.8854 33.5312 97.2937 37.5999Z" fill="#1575E8"/>
<path d="M31.8708 79.796L27.1146 83.2057C25.7837 80.6505 24.8106 77.8831 24.2204 74.9782L29.2302 71.22C29.6509 74.2659 30.5386 77.1495 31.8708 79.796Z" fill="#1575E8"/>
<path d="M97.7947 38.4858L92.8181 41.469L92.4365 40.8064L97.1096 37.3007L97.7947 38.4858Z" fill="#52A5F7"/>
<path d="M90.7631 56.2836L78.1208 58.0555C77.7012 58.1147 77.5128 57.547 77.8837 57.3432L92.0526 49.5766C92.8728 49.1275 93.8908 49.6015 94.0805 50.5165C94.148 50.8436 94.2096 51.1731 94.2653 51.5061C94.6482 53.8006 93.0671 55.9612 90.7631 56.2836Z" fill="#1575E8"/>
<path d="M91.7591 59.4443C93.1587 58.2237 93.4639 56.2832 92.4408 55.11C91.4177 53.9369 89.4537 53.9753 88.0541 55.1959C86.6544 56.4165 86.3492 58.357 87.3724 59.5302C88.3955 60.7034 90.3595 60.6649 91.7591 59.4443Z" fill="#52A5F7"/>
<path d="M44.5285 78.9227L42.2849 84.595C41.9412 85.4626 40.8284 85.7115 40.1504 85.0691C39.738 84.678 39.3409 84.2738 38.9581 83.8555C38.4556 83.3067 38.5303 82.4439 39.1229 81.9923L43.8411 78.4001C44.2026 78.1275 44.6956 78.5008 44.5285 78.9227Z" fill="#1575E8"/>
<path d="M105.912 38.766L97.9983 38.3607L97.4354 37.3805L104.159 35.8824C104.792 36.8022 105.381 37.7704 105.912 38.766Z" fill="#1575E8"/>
<path d="M107.201 41.4979L99.2773 40.9764C99.1315 40.6374 98.981 40.302 98.8234 39.969L106.766 40.4917C106.918 40.8235 107.063 41.1589 107.201 41.4979Z" fill="#1575E8"/>
<path d="M108.058 43.8491L100.175 43.33C100.062 42.9934 99.9427 42.6592 99.8182 42.3285L107.719 42.8476C107.838 43.1783 107.951 43.5125 108.058 43.8491Z" fill="#1575E8"/>
<path d="M108.642 45.907L100.79 45.3903C100.729 45.1509 100.662 44.9115 100.594 44.6744L108.456 45.1912C108.521 45.4282 108.583 45.6664 108.642 45.907Z" fill="#1575E8"/>
<path d="M109.11 48.1081L101.291 47.5937C101.255 47.397 101.216 47.2014 101.174 47.0059L109 47.5202C109.039 47.7158 109.076 47.9113 109.11 48.1081Z" fill="#1575E8"/>
<path d="M109.417 50.2185L101.629 49.7065C101.615 49.5797 101.597 49.4529 101.579 49.326L109.371 49.8381C109.387 49.9649 109.403 50.0917 109.417 50.2185Z" fill="#1575E8"/>
<path d="M109.591 52.4089L101.837 51.9004C101.832 51.8115 101.826 51.7238 101.819 51.6361L109.577 52.1469C109.583 52.2346 109.588 52.3223 109.591 52.4089Z" fill="#1575E8"/>
<path d="M61.8348 56.8856L61.5729 58.3221C61.3074 59.7775 62.425 61.1179 63.9041 61.1179H101.144" stroke="black" stroke-width="0.238889" stroke-miterlimit="10" stroke-linecap="round" stroke-linejoin="round"/>
<path d="M58.4094 83.7107L56.5818 94.1036L55.0482 94.068L54.0337 99.6289" stroke="black" stroke-width="0.238889" stroke-miterlimit="10" stroke-linecap="round" stroke-linejoin="round"/>
<path d="M56.938 83.7109L59.1223 71.7417H60.6749L61.975 64.2122L60.5552 63.8886C60.8479 62.2839 62.2464 61.1177 63.8772 61.1177H63.9033" stroke="black" stroke-width="0.238889" stroke-miterlimit="10" stroke-linecap="round" stroke-linejoin="round"/>
<path d="M51.1205 47.4321L49.9637 53.7704L43.8091 53.2122L47.6503 47.4297L51.1205 47.4321Z" fill="#1149D5" stroke="black" stroke-width="0.238889" stroke-miterlimit="10" stroke-linecap="round" stroke-linejoin="round"/>
<path d="M55.2102 25.0227L55.2031 25.0594C54.6828 25.0831 54.1625 25.1187 53.6434 25.1661L53.6636 25.0583C54.1791 25.0346 54.6947 25.0227 55.2102 25.0227Z" fill="white" stroke="black" stroke-width="0.238889" stroke-miterlimit="10" stroke-linecap="round" stroke-linejoin="round"/>
<path d="M54.6784 19.4967L54.4686 20.6487L53.6639 25.0588C46.241 25.3966 39.0079 28.1486 32.8757 32.5397C24.4301 38.59 18.0775 47.7527 16.2061 58.0081H10.6487C14.439 37.2389 33.959 20.305 54.6784 19.4967Z" fill="#1149D5" stroke="black" stroke-width="0.238889" stroke-miterlimit="10" stroke-linecap="round" stroke-linejoin="round"/>
<path d="M55.2102 25.0227L55.2031 25.0594C54.6828 25.0831 54.1625 25.1187 53.6434 25.1661L53.6636 25.0583C54.1791 25.0346 54.6947 25.0227 55.2102 25.0227Z" fill="white" stroke="black" stroke-width="0.238889" stroke-miterlimit="10" stroke-linecap="round" stroke-linejoin="round"/>
<path d="M55.2032 25.0591L53.314 35.4152H52.1999C52.0447 35.4152 51.8953 35.4449 51.7578 35.4994C51.3798 35.6487 51.0906 35.9841 51.0135 36.4049L50.2159 40.7758C47.5279 41.1136 45.2322 41.8911 43.3347 43.1118C40.7095 44.7995 39.1072 47.2327 38.5276 50.4102C38.1282 52.5945 38.2799 54.3912 38.9839 55.798C39.407 56.6455 39.9866 57.3826 40.7226 58.0072H17.7466C18.9448 51.4389 21.9824 45.3186 26.229 40.1785C33.09 31.8739 43.1095 26.1246 53.6435 25.1657C54.1626 25.1183 54.6829 25.0828 55.2032 25.0591Z" fill="#1149D5" stroke="black" stroke-width="0.238889" stroke-miterlimit="10" stroke-linecap="round" stroke-linejoin="round"/>
<path d="M55.2102 25.0227L55.2031 25.0594C54.6828 25.0831 54.1625 25.1187 53.6434 25.1661L53.6636 25.0583C54.1791 25.0346 54.6947 25.0227 55.2102 25.0227Z" stroke="black" stroke-width="0.238889" stroke-miterlimit="10" stroke-linecap="round" stroke-linejoin="round"/>
<path d="M48.5715 52.9598C48.9661 53.2821 49.4307 53.5524 49.9641 53.7704V53.774H48.4233C47.6719 53.4682 47.058 53.0593 46.5792 52.5461C46.053 51.9832 45.8776 51.2223 46.053 50.2611C46.2521 49.1695 46.917 48.3838 48.0476 47.9026C48.517 47.7035 49.0278 47.5458 49.5813 47.4297L51.1208 47.4321C50.5709 47.5482 50.0624 47.7046 49.5967 47.9026C49.5587 47.9192 49.522 47.9346 49.4853 47.9524C48.4233 48.4371 47.7952 49.2063 47.602 50.2611C47.4278 51.2223 47.6032 51.9832 48.1294 52.5461C48.2657 52.6919 48.4127 52.8294 48.5715 52.9598Z" fill="#063889" stroke="black" stroke-width="0.238889" stroke-miterlimit="10" stroke-linecap="round" stroke-linejoin="round"/>
<path d="M55.2112 25.0227L55.204 25.0601" stroke="black" stroke-width="0.238889" stroke-miterlimit="10" stroke-linecap="round" stroke-linejoin="round"/>
<path d="M53.6644 25.0581L53.6443 25.166C43.1104 26.1248 33.0908 31.8741 26.2298 40.1787C21.9833 45.3188 18.9456 51.4391 17.7474 58.0074H16.2067C18.0781 47.752 24.4307 38.5894 32.8763 32.539C39.0084 28.1479 46.2416 25.3959 53.6644 25.0581Z" fill="#0A3A9B" stroke="black" stroke-width="0.238889" stroke-miterlimit="10" stroke-linecap="round" stroke-linejoin="round"/>
<path d="M54.7845 58.008H44.3205L48.4236 53.7745L49.9643 53.771L51.1211 47.4326L49.5815 47.4302L51.7587 35.5001C51.7587 35.5001 51.9199 35.416 52.2008 35.416C52.4817 35.416 53.3149 35.416 53.3149 35.416L55.2112 25.0231L53.6645 25.0587L54.679 19.4966H64.7578L63.7481 25.0231L62.1978 25.0587L60.3086 35.416H61.8944L59.7006 47.4326H58.1172L56.9605 53.7745H58.5249L58.2843 55.0912C57.9738 56.7801 56.5018 58.008 54.7845 58.008Z" fill="#063889" stroke="black" stroke-width="0.238889" stroke-miterlimit="10" stroke-linecap="round" stroke-linejoin="round"/>
<path d="M49.358 45.5238L52.052 30.2752C52.3483 28.597 50.7969 27.176 49.153 27.6287C43.6763 29.1386 37.1388 32.5804 32.6943 36.2723C32.5142 36.4216 32.7228 36.6978 32.916 36.5662C34.6878 35.3609 36.9575 33.589 39.1263 34.8204C40.353 35.5173 39.7213 38.2172 41.3604 38.7517C42.7791 39.2139 46.3821 38.5858 47.8706 39.2613C50.0514 40.2521 49.8523 42.8086 49.358 45.5238Z" fill="#52A5F7"/>
<path d="M55.2102 25.0227L55.2031 25.0594C54.6828 25.0831 54.1625 25.1187 53.6434 25.1661L53.6636 25.0583C54.1791 25.0346 54.6947 25.0227 55.2102 25.0227Z" stroke="black" stroke-width="0.238889" stroke-miterlimit="10" stroke-linecap="round" stroke-linejoin="round"/>
<path d="M51.7583 35.4995L50.7675 40.9253L49.5811 47.4296C49.0276 47.5457 48.5168 47.7034 48.0475 47.9025C46.9168 48.3837 46.2519 49.1694 46.0528 50.261C45.8774 51.2222 46.0528 51.9831 46.579 52.546C47.0579 53.0592 47.6718 53.4681 48.4232 53.7739L48.1826 55.0906C47.8744 56.7807 46.4024 58.0074 44.6851 58.0074H40.723C39.987 57.3828 39.4075 56.6456 38.9844 55.7982C38.2804 54.3914 38.1287 52.5946 38.5281 50.4103C39.1076 47.2328 40.71 44.7997 43.3352 43.112C45.2327 41.8912 46.617 41.1137 49.305 40.776L50.1026 36.405C50.2104 35.7899 51.3885 35.4995 51.7583 35.4995Z" fill="white" stroke="black" stroke-width="0.238889" stroke-miterlimit="10" stroke-linecap="round" stroke-linejoin="round"/>
<path d="M53.6638 25.0583L55.2104 25.0227" stroke="black" stroke-width="0.238889" stroke-miterlimit="10" stroke-linecap="round" stroke-linejoin="round"/>
<g opacity="0.5">
<path d="M61.7509 35.5343L61.1832 38.6466L51.0487 40.051L51.8582 35.6137L53.3207 35.5343C53.3764 35.5307 53.4214 35.4916 53.4309 35.4371L54.0105 32.2632L61.2496 29.5906L60.1912 35.3944C60.1853 35.4288 60.1936 35.4644 60.2161 35.4916C60.2386 35.5189 60.273 35.5343 60.3074 35.5343H61.7509Z" fill="#1B61ED"/>
</g>
<g opacity="0.5">
<path d="M60.6265 41.6865L60.0683 44.7443L49.948 46.0776L50.3438 43.9064L60.6265 41.6865Z" fill="#1B61ED"/>
</g>
<path d="M35.8054 56.7931H21.3757C20.59 56.7931 20.0116 56.0499 20.2143 55.2902C20.4193 54.5222 20.654 53.7779 20.9076 53.0621C21.5322 51.3056 23.4249 50.3551 25.2051 50.911C28.6836 51.9966 32.1621 54.4748 35.9677 55.8544C36.4774 56.0393 36.3482 56.7931 35.8054 56.7931Z" fill="#1B61ED"/>
<path d="M28.9623 53.7061C29.7408 53.0272 29.9108 51.9481 29.342 51.2959C28.7732 50.6437 27.6811 50.6654 26.9026 51.3443C26.1241 52.0232 25.9541 53.1023 26.5228 53.7545C27.0916 54.4067 28.1838 54.3851 28.9623 53.7061Z" fill="#52A5F7"/>
<path d="M36.434 9.11072H13.0467C11.8829 9.11072 10.9395 10.0541 10.9395 11.2192V34.1644C10.9395 35.3282 11.8829 36.2716 13.0467 36.2716H36.434C37.5978 36.2716 38.5424 35.3282 38.5424 34.1644V11.2192C38.5424 10.0541 37.5978 9.11072 36.434 9.11072ZM35.1694 10.0636C35.6292 10.0636 36.0014 10.4358 36.0014 10.8956C36.0014 11.3543 35.6292 11.7276 35.1694 11.7276C34.7107 11.7276 34.3374 11.3543 34.3374 10.8956C34.3374 10.4358 34.7107 10.0636 35.1694 10.0636ZM14.3789 10.0636C14.8387 10.0636 15.2109 10.4358 15.2109 10.8956C15.2109 11.3543 14.8387 11.7276 14.3789 11.7276C13.919 11.7276 13.5469 11.3543 13.5469 10.8956C13.5469 10.4358 13.919 10.0636 14.3789 10.0636Z" fill="white" stroke="black" stroke-width="0.238889" stroke-miterlimit="10" stroke-linecap="round" stroke-linejoin="round"/>
<path d="M36.434 9.11072H13.0467C11.8829 9.11072 10.9395 10.0541 10.9395 11.2192V12.6793H38.5424V11.2192C38.5424 10.0541 37.5978 9.11072 36.434 9.11072ZM14.3789 11.7276C13.919 11.7276 13.5469 11.3543 13.5469 10.8956C13.5469 10.4358 13.919 10.0636 14.3789 10.0636C14.8387 10.0636 15.2109 10.4358 15.2109 10.8956C15.2109 11.3543 14.8387 11.7276 14.3789 11.7276ZM35.1694 11.7276C34.7107 11.7276 34.3374 11.3543 34.3374 10.8956C34.3374 10.4358 34.7107 10.0636 35.1694 10.0636C35.6292 10.0636 36.0014 10.4358 36.0014 10.8956C36.0014 11.3543 35.6292 11.7276 35.1694 11.7276Z" fill="#15B38B" stroke="black" stroke-width="0.238889" stroke-miterlimit="10" stroke-linecap="round" stroke-linejoin="round"/>
<path d="M15.6428 15.4951H13.116V18.0219H15.6428V15.4951Z" fill="#FAA81A" stroke="black" stroke-width="0.238889" stroke-miterlimit="10" stroke-linecap="round" stroke-linejoin="round"/>
<path d="M19.0963 15.4951H16.5695V18.0219H19.0963V15.4951Z" fill="#CCCCCC" stroke="black" stroke-width="0.238889" stroke-miterlimit="10" stroke-linecap="round" stroke-linejoin="round"/>
<path d="M15.6422 21.4759L15.6422 18.9491L13.1154 18.9491L13.1154 21.4759L15.6422 21.4759Z" fill="#FAA81A" stroke="black" stroke-width="0.238889" stroke-miterlimit="10" stroke-linecap="round" stroke-linejoin="round"/>
<path d="M22.551 15.4951H20.0242V18.0219H22.551V15.4951Z" fill="#CCCCCC" stroke="black" stroke-width="0.238889" stroke-miterlimit="10" stroke-linecap="round" stroke-linejoin="round"/>
<path d="M26.005 15.4951H23.4782V18.0219H26.005V15.4951Z" fill="#CCCCCC" stroke="black" stroke-width="0.238889" stroke-miterlimit="10" stroke-linecap="round" stroke-linejoin="round"/>
<path d="M15.6428 13.8295H13.116V14.7207H15.6428V13.8295Z" fill="#999999" stroke="black" stroke-width="0.238889" stroke-miterlimit="10" stroke-linecap="round" stroke-linejoin="round"/>
<path d="M19.0963 13.8295H16.5695V14.7207H19.0963V13.8295Z" fill="#999999" stroke="black" stroke-width="0.238889" stroke-miterlimit="10" stroke-linecap="round" stroke-linejoin="round"/>
<path d="M22.551 13.8295H20.0242V14.7207H22.551V13.8295Z" fill="#999999" stroke="black" stroke-width="0.238889" stroke-miterlimit="10" stroke-linecap="round" stroke-linejoin="round"/>
<path d="M26.005 13.8295H23.4782V14.7207H26.005V13.8295Z" fill="#999999" stroke="black" stroke-width="0.238889" stroke-miterlimit="10" stroke-linecap="round" stroke-linejoin="round"/>
<path d="M29.458 13.8295H26.9312V14.7207H29.458V13.8295Z" fill="#999999" stroke="black" stroke-width="0.238889" stroke-miterlimit="10" stroke-linecap="round" stroke-linejoin="round"/>
<path d="M32.912 13.8295H30.3852V14.7207H32.912V13.8295Z" fill="#999999" stroke="black" stroke-width="0.238889" stroke-miterlimit="10" stroke-linecap="round" stroke-linejoin="round"/>
<path d="M36.3655 13.8295H33.8387V14.7207H36.3655V13.8295Z" fill="#999999" stroke="black" stroke-width="0.238889" stroke-miterlimit="10" stroke-linecap="round" stroke-linejoin="round"/>
<path d="M19.0963 18.9501H16.5695V21.4769H19.0963V18.9501Z" fill="#CCCCCC" stroke="black" stroke-width="0.238889" stroke-miterlimit="10" stroke-linecap="round" stroke-linejoin="round"/>
<path d="M22.551 18.9501H20.0242V21.4769H22.551V18.9501Z" fill="#CCCCCC" stroke="black" stroke-width="0.238889" stroke-miterlimit="10" stroke-linecap="round" stroke-linejoin="round"/>
<path d="M26.005 18.9501H23.4782V21.4769H26.005V18.9501Z" fill="#1149D5" stroke="black" stroke-width="0.238889" stroke-miterlimit="10" stroke-linecap="round" stroke-linejoin="round"/>
<path d="M29.458 18.9501H26.9312V21.4769H29.458V18.9501Z" fill="#CCCCCC" stroke="black" stroke-width="0.238889" stroke-miterlimit="10" stroke-linecap="round" stroke-linejoin="round"/>
<path d="M32.912 18.9501H30.3852V21.4769H32.912V18.9501Z" fill="#CCCCCC" stroke="black" stroke-width="0.238889" stroke-miterlimit="10" stroke-linecap="round" stroke-linejoin="round"/>
<path d="M36.3655 18.9501H33.8387V21.4769H36.3655V18.9501Z" fill="#CCCCCC" stroke="black" stroke-width="0.238889" stroke-miterlimit="10" stroke-linecap="round" stroke-linejoin="round"/>
<path d="M15.6428 22.4031H13.116V24.9299H15.6428V22.4031Z" fill="#FAA81A" stroke="black" stroke-width="0.238889" stroke-miterlimit="10" stroke-linecap="round" stroke-linejoin="round"/>
<path d="M19.0963 22.4031H16.5695V24.9299H19.0963V22.4031Z" fill="#CCCCCC" stroke="black" stroke-width="0.238889" stroke-miterlimit="10" stroke-linecap="round" stroke-linejoin="round"/>
<path d="M22.551 22.4031H20.0242V24.9299H22.551V22.4031Z" fill="#CCCCCC" stroke="black" stroke-width="0.238889" stroke-miterlimit="10" stroke-linecap="round" stroke-linejoin="round"/>
<path d="M26.005 22.4031H23.4782V24.9299H26.005V22.4031Z" fill="#CCCCCC" stroke="black" stroke-width="0.238889" stroke-miterlimit="10" stroke-linecap="round" stroke-linejoin="round"/>
<path d="M29.458 22.4031H26.9312V24.9299H29.458V22.4031Z" fill="#CCCCCC" stroke="black" stroke-width="0.238889" stroke-miterlimit="10" stroke-linecap="round" stroke-linejoin="round"/>
<path d="M32.912 22.4031H30.3852V24.9299H32.912V22.4031Z" fill="#CCCCCC" stroke="black" stroke-width="0.238889" stroke-miterlimit="10" stroke-linecap="round" stroke-linejoin="round"/>
<path d="M36.3655 22.4031H33.8387V24.9299H36.3655V22.4031Z" fill="#CCCCCC" stroke="black" stroke-width="0.238889" stroke-miterlimit="10" stroke-linecap="round" stroke-linejoin="round"/>
<path d="M15.6428 25.8571H13.116V28.3839H15.6428V25.8571Z" fill="#FAA81A" stroke="black" stroke-width="0.238889" stroke-miterlimit="10" stroke-linecap="round" stroke-linejoin="round"/>
<path d="M19.0963 25.8571H16.5695V28.3839H19.0963V25.8571Z" fill="#CCCCCC" stroke="black" stroke-width="0.238889" stroke-miterlimit="10" stroke-linecap="round" stroke-linejoin="round"/>
<path d="M22.551 25.8571H20.0242V28.3839H22.551V25.8571Z" fill="#CCCCCC" stroke="black" stroke-width="0.238889" stroke-miterlimit="10" stroke-linecap="round" stroke-linejoin="round"/>
<path d="M26.005 25.8571H23.4782V28.3839H26.005V25.8571Z" fill="#CCCCCC" stroke="black" stroke-width="0.238889" stroke-miterlimit="10" stroke-linecap="round" stroke-linejoin="round"/>
<path d="M29.458 25.8571H26.9312V28.3839H29.458V25.8571Z" fill="#CCCCCC" stroke="black" stroke-width="0.238889" stroke-miterlimit="10" stroke-linecap="round" stroke-linejoin="round"/>
<path d="M32.912 25.8571H30.3852V28.3839H32.912V25.8571Z" fill="#CCCCCC" stroke="black" stroke-width="0.238889" stroke-miterlimit="10" stroke-linecap="round" stroke-linejoin="round"/>
<path d="M36.3655 25.8571H33.8387V28.3839H36.3655V25.8571Z" fill="#CCCCCC" stroke="black" stroke-width="0.238889" stroke-miterlimit="10" stroke-linecap="round" stroke-linejoin="round"/>
<path d="M22.551 29.311H20.0242V31.8379H22.551V29.311Z" fill="#CCCCCC" stroke="black" stroke-width="0.238889" stroke-miterlimit="10" stroke-linecap="round" stroke-linejoin="round"/>
<path d="M26.005 29.311H23.4782V31.8379H26.005V29.311Z" fill="#CCCCCC" stroke="black" stroke-width="0.238889" stroke-miterlimit="10" stroke-linecap="round" stroke-linejoin="round"/>
<path d="M29.458 29.311H26.9312V31.8379H29.458V29.311Z" fill="#CCCCCC" stroke="black" stroke-width="0.238889" stroke-miterlimit="10" stroke-linecap="round" stroke-linejoin="round"/>
<path d="M32.912 29.311H30.3852V31.8379H32.912V29.311Z" fill="#CCCCCC" stroke="black" stroke-width="0.238889" stroke-miterlimit="10" stroke-linecap="round" stroke-linejoin="round"/>
<path d="M36.3655 29.311H33.8387V31.8379H36.3655V29.311Z" fill="#CCCCCC" stroke="black" stroke-width="0.238889" stroke-miterlimit="10" stroke-linecap="round" stroke-linejoin="round"/>
<path d="M94.3227 95.2367L100.027 91.0056L99.566 88.48L103.118 85.1342C103.577 84.7668 103.666 84.1031 103.321 83.6278L103.012 83.2047C102.817 79.194 97.7585 73.6604 97.7585 73.6604L91.9867 91.4761L94.3227 95.2367Z" fill="black" stroke="black" stroke-width="0.238889" stroke-miterlimit="10" stroke-linecap="round" stroke-linejoin="round"/>
<path d="M91.9861 107.095L100.468 104.839C102.112 104.402 103.775 105.472 104.058 107.149L106.266 120.216L110.221 123.431C110.637 123.769 110.398 124.442 109.862 124.442H101.725L97.7568 111.498L90.3743 114.999L91.9861 107.095Z" fill="black" stroke="black" stroke-width="0.238889" stroke-miterlimit="10" stroke-linecap="round" stroke-linejoin="round"/>
<path d="M90.8496 124.326L78.2499 120.734L76.5788 122.881L78.2878 123.796C78.6031 123.965 78.4833 124.442 78.1254 124.442H74.6149C73.745 124.442 73.0777 123.67 73.2057 122.809L73.406 121.462L74.0982 116.817C74.289 115.532 75.5275 114.678 76.7968 114.955L85.7485 116.91L83.0072 110.629L91.3331 109.978L94.4988 120.635C95.1636 122.874 93.0955 124.966 90.8496 124.326Z" fill="#063889" stroke="black" stroke-width="0.238889" stroke-miterlimit="10" stroke-linecap="round" stroke-linejoin="round"/>
<path d="M85.3564 86.4512L81.4453 92.1401C79.5431 94.9075 78.9552 98.3718 79.8382 101.612L81.9004 109.175C81.4891 110.304 82.3259 111.5 83.5288 111.5H93.0731C94.2263 111.5 95.0571 110.395 94.7383 109.287L92.5872 101.828L94.3211 94.7593L85.3564 86.4512Z" fill="#FAA81A" stroke="black" stroke-width="0.238889" stroke-miterlimit="10" stroke-linecap="round" stroke-linejoin="round"/>
<path d="M91.3331 96.5024C94.1091 96.5024 96.3594 94.2521 96.3594 91.4761C96.3594 88.7001 94.1091 86.4497 91.3331 86.4497C88.5571 86.4497 86.3067 88.7001 86.3067 91.4761C86.3067 94.2521 88.5571 96.5024 91.3331 96.5024Z" fill="#F29777" stroke="black" stroke-width="0.238889" stroke-miterlimit="10" stroke-linecap="round" stroke-linejoin="round"/>
<path d="M81.0555 92.7063L87.1461 83.8458L84.1251 74.8941C84.009 74.5492 83.8478 74.2197 83.6404 73.9211C83.3808 73.5466 83.0347 72.9587 83.0347 72.4823V69.0203C83.0347 68.8591 83.1355 68.7146 83.2872 68.6588C83.5088 68.5783 83.7506 68.7146 83.7956 68.9468L84.0967 70.4935L87.6937 67.0731C87.7719 66.9984 87.8857 66.9723 87.9888 67.0055C88.1784 67.066 88.2555 67.2935 88.1417 67.4571L86.6045 69.6805L88.8339 68.1943C89.0567 68.0461 89.3565 68.1871 89.3838 68.4526L89.6161 70.6642C89.6635 71.1134 89.4537 71.5519 89.0744 71.7972L88.2662 72.3187C88.0113 72.4834 87.8241 72.7383 87.7542 73.0334C87.6664 73.4043 87.4922 73.7409 87.2552 74.023L91.5906 82.2482C92.1168 83.2461 92.1133 84.4408 91.5811 85.4351L86.0001 95.8754" fill="#F29777"/>
<path d="M81.0555 92.7063L87.1461 83.8458L84.1251 74.8941C84.009 74.5492 83.8478 74.2197 83.6404 73.9211C83.3808 73.5466 83.0347 72.9587 83.0347 72.4823V69.0203C83.0347 68.8591 83.1355 68.7146 83.2872 68.6588C83.5088 68.5783 83.7506 68.7146 83.7956 68.9468L84.0967 70.4935L87.6937 67.0731C87.7719 66.9984 87.8857 66.9723 87.9888 67.0055C88.1784 67.066 88.2555 67.2935 88.1417 67.4571L86.6045 69.6805L88.8339 68.1943C89.0567 68.0461 89.3565 68.1871 89.3838 68.4526L89.6161 70.6642C89.6635 71.1134 89.4537 71.5519 89.0744 71.7972L88.2662 72.3187C88.0113 72.4834 87.8241 72.7383 87.7542 73.0334C87.6664 73.4043 87.4922 73.7409 87.2552 74.023L91.5906 82.2482C92.1168 83.2461 92.1133 84.4408 91.5811 85.4351L86.0001 95.8754" stroke="black" stroke-width="0.238889" stroke-miterlimit="10" stroke-linecap="round" stroke-linejoin="round"/>
<path d="M87.2584 74.0253L86.0543 74.1355" stroke="black" stroke-width="0.238889" stroke-miterlimit="10" stroke-linecap="round" stroke-linejoin="round"/>
<path d="M88.9784 69.2549L87.2575 70.3903L87.2694 70.3986C87.4625 70.542 87.7316 70.5218 87.9011 70.35L88.9784 69.2549Z" fill="black" stroke="black" stroke-width="0.238889" stroke-miterlimit="10" stroke-linecap="round" stroke-linejoin="round"/>
<path d="M84.0977 70.4952C83.8843 70.6979 83.7421 70.9646 83.6923 71.2549L83.6129 71.7184" stroke="black" stroke-width="0.238889" stroke-miterlimit="10" stroke-linecap="round" stroke-linejoin="round"/>
<path d="M89.6544 84.8105L90.2067 84.8639C90.3477 84.8781 90.4188 85.0002 90.3489 85.108L90.1439 85.4174C90.0668 85.5335 89.876 85.556 89.7848 85.4612L89.4375 85.0974C89.3213 84.9777 89.4624 84.7916 89.6544 84.8105Z" fill="black" stroke="black" stroke-width="0.238889" stroke-miterlimit="10" stroke-linecap="round" stroke-linejoin="round"/>
<path d="M85.0072 97.4225L84.0981 101.097" stroke="black" stroke-width="0.238889" stroke-miterlimit="10" stroke-linecap="round" stroke-linejoin="round"/>
<path d="M81.0555 92.7065L84.9547 87.0354L89.8851 91.4763L83.0537 100.678" fill="#FAA81A"/>
<path d="M81.0555 92.7065L84.9547 87.0354L89.8851 91.4763L83.0537 100.678" stroke="black" stroke-width="0.238889" stroke-miterlimit="10" stroke-linecap="round" stroke-linejoin="round"/>
<path d="M90.3745 101.795C90.3745 101.795 88.3288 107.282 84.5516 108.956" stroke="black" stroke-width="0.238889" stroke-miterlimit="10" stroke-linecap="round" stroke-linejoin="round"/>
<path d="M93.0922 95.2369L92.0824 97.036C91.8809 97.3952 91.3784 97.4307 91.1283 97.1036L90.3757 96.1199" fill="#F29777"/>
<path d="M93.0922 95.2369L92.0824 97.036C91.8809 97.3952 91.3784 97.4307 91.1283 97.1036L90.3757 96.1199" stroke="black" stroke-width="0.238889" stroke-miterlimit="10" stroke-linecap="round" stroke-linejoin="round"/>
<path d="M85.7488 116.91L86.2549 118.071C86.8309 119.392 87.5621 120.64 88.432 121.789" fill="#063889"/>
<path d="M85.7488 116.91L86.2549 118.071C86.8309 119.392 87.5621 120.64 88.432 121.789" stroke="black" stroke-width="0.238889" stroke-miterlimit="10" stroke-linecap="round" stroke-linejoin="round"/>
<path d="M78.1254 124.442H74.6149C73.745 124.442 73.0777 123.669 73.2057 122.808L73.406 121.461L75.0617 120.503C75.5631 120.213 76.1616 120.138 76.7198 120.298L78.2499 120.733L76.5788 122.881L78.2878 123.796C78.6031 123.964 78.4833 124.442 78.1254 124.442Z" fill="black" stroke="black" stroke-width="0.238889" stroke-miterlimit="10" stroke-linecap="round" stroke-linejoin="round"/>
<path d="M87.3065 72.395L85.3485 71.0569C85.1068 70.8921 85.0748 70.5484 85.2822 70.341L85.4505 70.1727C85.5797 70.0436 85.7918 70.0578 85.902 70.2036L87.4534 72.2409C87.5281 72.3369 87.4072 72.4637 87.3065 72.395Z" fill="#EF6662"/>
<path d="M17.5501 54.7166C21.361 54.7166 24.4503 51.6273 24.4503 47.8164C24.4503 44.0056 21.361 40.9163 17.5501 40.9163C13.7393 40.9163 10.65 44.0056 10.65 47.8164C10.65 51.6273 13.7393 54.7166 17.5501 54.7166Z" fill="#FAA81A" stroke="black" stroke-width="0.238889" stroke-miterlimit="10" stroke-linecap="round" stroke-linejoin="round"/>
<path d="M17.5497 53.7327C20.8172 53.7327 23.4661 51.0838 23.4661 47.8162C23.4661 44.5487 20.8172 41.8998 17.5497 41.8998C14.2821 41.8998 11.6332 44.5487 11.6332 47.8162C11.6332 51.0838 14.2821 53.7327 17.5497 53.7327Z" fill="white" stroke="black" stroke-width="0.238889" stroke-miterlimit="10" stroke-linecap="round" stroke-linejoin="round"/>
<path d="M16.6159 43.1313C14.3202 43.5864 12.6159 45.6866 12.7854 48.1518C12.9465 50.5067 14.8523 52.416 17.2073 52.5808C19.9996 52.7752 22.3249 50.5683 22.3249 47.8163C22.3249 46.5043 21.7951 45.3144 20.9394 44.4516L19.9048 45.6534C20.4298 46.2235 20.7486 46.9832 20.7486 47.8163C20.7486 49.6534 19.2008 51.1278 17.3388 51.008C15.746 50.9061 14.4517 49.6083 14.3557 48.0155C14.2562 46.3728 15.3963 44.9778 16.9288 44.6768C17.2926 44.6057 17.5486 44.2774 17.5486 43.9064C17.5498 43.4134 17.1006 43.0353 16.6159 43.1313Z" fill="#A7D5FC"/>
<path d="M18.0653 48.3327C17.7796 48.6183 17.3174 48.6183 17.0318 48.3327C16.7462 48.0471 16.7462 47.5849 17.0318 47.2992C17.3174 47.0136 21.0946 44.2699 21.0946 44.2699C21.0946 44.2699 18.3509 48.0471 18.0653 48.3327Z" fill="#1149D5" stroke="black" stroke-width="0.238889" stroke-miterlimit="10" stroke-linecap="round" stroke-linejoin="round"/>
<path d="M15.4443 39.6173C14.3101 38.1524 12.204 37.8834 10.7391 39.0176C9.27423 40.1518 9.00519 42.2579 10.1394 43.7228L15.4443 39.6173Z" fill="#CCCCCC" stroke="black" stroke-width="0.238889" stroke-miterlimit="10" stroke-linecap="round" stroke-linejoin="round"/>
<path d="M19.6538 39.6175C20.788 38.1527 22.8941 37.8836 24.359 39.0178C25.8239 40.1521 26.0929 42.2581 24.9587 43.723L19.6538 39.6175Z" fill="#CCCCCC" stroke="black" stroke-width="0.238889" stroke-miterlimit="10" stroke-linecap="round" stroke-linejoin="round"/>
</svg>
