<svg width="24" height="24" viewBox="0 0 24 24" fill="none" xmlns="http://www.w3.org/2000/svg">
<path d="M21.7428 15.2305C21.9312 14.5009 22.032 13.7353 22.032 12.9469C22.032 7.92849 17.9652 3.86169 12.9468 3.86169V12.9469H3.86157C3.86157 17.9653 7.92837 22.0321 12.9468 22.0321C13.7352 22.0321 14.5008 21.9313 15.2304 21.7429" stroke="#1149D5" stroke-width="0.7" stroke-miterlimit="10" stroke-linecap="round" stroke-linejoin="round"/>
<path d="M11.0534 1.96777V4.53457C7.45338 4.53457 4.53498 7.45297 4.53498 11.053H1.96818C1.96818 6.03457 6.03498 1.96777 11.0534 1.96777Z" stroke="#1149D5" stroke-width="0.7" stroke-miterlimit="10" stroke-linecap="round" stroke-linejoin="round"/>
<path d="M14.285 19.3283C13.853 19.4183 13.4054 19.4663 12.947 19.4663C9.34703 19.4663 6.42863 16.5479 6.42863 12.9479H12.947V6.42834C16.547 6.42834 19.4654 9.34674 19.4654 12.9467C19.4654 13.4051 19.4186 13.8527 19.3274 14.2847" stroke="#1149D5" stroke-width="0.7" stroke-miterlimit="10" stroke-linecap="round" stroke-linejoin="round"/>
<path d="M12.947 9.73438H14.1542C15.041 9.73438 15.7598 10.4532 15.7598 11.3412" stroke="#1149D5" stroke-width="0.7" stroke-miterlimit="10" stroke-linecap="round" stroke-linejoin="round"/>
<path d="M12.9471 12.9467H14.1543C15.0411 12.9467 15.7599 13.6655 15.7599 14.5523C15.7599 15.4391 15.0411 16.1579 14.1543 16.1579H11.7411C10.8543 16.1579 10.1355 15.4391 10.1355 14.5523" stroke="#1149D5" stroke-width="0.7" stroke-miterlimit="10" stroke-linecap="round" stroke-linejoin="round"/>
<path d="M12.947 9.73528V8.32288" stroke="#1149D5" stroke-width="0.7" stroke-miterlimit="10" stroke-linecap="round" stroke-linejoin="round"/>
<path d="M12.947 17.5712V16.1588" stroke="#1149D5" stroke-width="0.7" stroke-miterlimit="10" stroke-linecap="round" stroke-linejoin="round"/>
<path d="M11.0531 7.84082V11.0532H9.84592C8.95912 11.0532 8.24032 10.3344 8.24032 9.44762C8.24032 9.00362 8.42032 8.60162 8.71072 8.31122C9.00112 8.02082 9.40192 7.84082 9.84592 7.84082H11.0531Z" stroke="#1149D5" stroke-width="0.7" stroke-miterlimit="10" stroke-linecap="round" stroke-linejoin="round"/>
<path d="M11.0533 4.53455V7.84055H9.84611C9.40211 7.84055 9.00131 8.02055 8.71091 8.31095C8.42051 8.60135 8.24051 9.00335 8.24051 9.44735C8.24051 10.3341 8.95931 11.0529 9.84611 11.0529H4.53491C4.53491 7.45295 7.45331 4.53455 11.0533 4.53455Z" stroke="#1149D5" stroke-width="0.7" stroke-miterlimit="10" stroke-linecap="round" stroke-linejoin="round"/>
<path d="M18.9336 22.0332C20.6454 22.0332 22.0332 20.6454 22.0332 18.9336C22.0332 17.2217 20.6454 15.834 18.9336 15.834C17.2217 15.834 15.834 17.2217 15.834 18.9336C15.834 20.6454 17.2217 22.0332 18.9336 22.0332Z" stroke="#1149D5" stroke-width="0.7" stroke-miterlimit="10" stroke-linecap="round" stroke-linejoin="round"/>
<path d="M18.9334 16.8658V18.9334L20.323 18.4078" stroke="#1149D5" stroke-width="0.7" stroke-miterlimit="10" stroke-linecap="round" stroke-linejoin="round"/>
</svg>
