<svg width="57" height="56" viewBox="0 0 57 56" fill="none" xmlns="http://www.w3.org/2000/svg">
<g id="vuesax/bulk/empty-wallet-tick">
<g id="empty-wallet-tick">
<path id="Vector" d="M12.1668 35C9.9735 35 7.9435 35.77 6.3335 37.0533C4.18683 38.7567 2.8335 41.3933 2.8335 44.3333C2.8335 46.0833 3.3235 47.74 4.18683 49.14C5.79683 51.8467 8.76016 53.6667 12.1668 53.6667C14.5235 53.6667 16.6702 52.8033 18.3035 51.3333C19.0268 50.7267 19.6568 49.98 20.1468 49.14C21.0102 47.74 21.5002 46.0833 21.5002 44.3333C21.5002 39.1767 17.3235 35 12.1668 35ZM16.9968 43.33L12.0268 47.9266C11.7002 48.2299 11.2568 48.3933 10.8368 48.3933C10.3935 48.3933 9.95015 48.23 9.60015 47.88L7.29017 45.5701C6.6135 44.8934 6.6135 43.7733 7.29017 43.0966C7.96684 42.4199 9.08683 42.4199 9.7635 43.0966L10.8835 44.2167L14.6168 40.7633C15.3168 40.1099 16.4368 40.1567 17.0902 40.8567C17.7435 41.5567 17.6968 42.6767 16.9968 43.33Z" fill="#2860E6"/>
<path id="Vector_2" opacity="0.4" d="M45.953 30.2173H50.6663V26.8573C50.6663 22.0273 46.723 18.084 41.893 18.084H15.1063C10.2763 18.084 6.33301 22.0273 6.33301 26.8573V37.054C7.94301 35.7707 9.97301 35.0007 12.1663 35.0007C17.323 35.0007 21.4997 39.1773 21.4997 44.334C21.4997 46.084 21.0097 47.7406 20.1463 49.1406C19.6563 49.9806 19.0264 50.7273 18.303 51.334H41.893C46.723 51.334 50.6663 47.3906 50.6663 42.5606V39.784H46.233C43.713 39.784 41.403 37.9406 41.193 35.4206C41.053 33.9506 41.613 32.574 42.593 31.6173C43.4563 30.7306 44.6463 30.2173 45.953 30.2173Z" fill="#2860E6"/>
<path id="Vector_3" d="M35.1497 9.21647V18.0831H15.1063C10.2763 18.0831 6.33301 22.0265 6.33301 26.8565V18.2932C6.33301 15.5165 8.03633 13.0431 10.6263 12.0631L29.153 5.06306C32.0463 3.98973 35.1497 6.11313 35.1497 9.21647Z" fill="#2860E6"/>
<path id="Vector_4" d="M53.1398 32.5967V37.4035C53.1398 38.6868 52.1132 39.7367 50.8065 39.7834H46.2332C43.7132 39.7834 41.4032 37.9401 41.1932 35.4201C41.0532 33.9501 41.6131 32.5734 42.5931 31.6167C43.4565 30.7301 44.6465 30.2168 45.9531 30.2168H50.8065C52.1132 30.2635 53.1398 31.3134 53.1398 32.5967Z" fill="#2860E6"/>
<g id="Group">
<path id="Vector_5" d="M33.1668 29.75H16.8335C15.8768 29.75 15.0835 28.9567 15.0835 28C15.0835 27.0433 15.8768 26.25 16.8335 26.25H33.1668C34.1235 26.25 34.9168 27.0433 34.9168 28C34.9168 28.9567 34.1235 29.75 33.1668 29.75Z" fill="#2860E6"/>
</g>
</g>
</g>
</svg>