<svg width="280" height="202" viewBox="0 0 280 202" fill="none" xmlns="http://www.w3.org/2000/svg">
<g clip-path="url(#clip0_11693_19747)">
<path d="M150.672 194.541C150.611 196.809 150.232 199.058 149.545 201.22C149.53 201.27 149.513 201.32 149.497 201.37H145.291C145.296 201.325 145.3 201.275 145.305 201.22C145.585 197.991 143.983 178.574 142.051 175.214C142.22 175.486 150.998 184.282 150.672 194.541Z" fill="#F1F1F1"/>
<path d="M150.357 201.22C150.321 201.27 150.285 201.32 150.247 201.37H147.093C147.117 201.327 147.144 201.277 147.176 201.22C147.697 200.278 149.24 197.461 150.672 194.541C152.21 191.403 153.622 188.146 153.503 186.967C153.54 187.232 154.605 195.338 150.357 201.22Z" fill="#F1F1F1"/>
<path d="M263.047 196.845C263.007 198.348 262.755 199.838 262.3 201.27C262.29 201.304 262.279 201.336 262.268 201.37H259.481C259.484 201.34 259.487 201.307 259.49 201.27C259.676 199.131 258.615 186.264 257.334 184.037C257.446 184.218 263.263 190.046 263.047 196.845Z" fill="#F1F1F1"/>
<path d="M262.838 201.27C262.815 201.304 262.79 201.337 262.765 201.37H260.675C260.691 201.341 260.709 201.308 260.73 201.27C261.076 200.646 262.098 198.78 263.047 196.845C264.066 194.765 265.002 192.607 264.923 191.826C264.947 192.002 265.653 197.373 262.838 201.27Z" fill="#F1F1F1"/>
<path d="M128.71 196.845C128.67 198.348 128.418 199.838 127.963 201.27C127.953 201.304 127.942 201.336 127.931 201.37H125.144C125.147 201.34 125.15 201.307 125.153 201.27C125.339 199.131 124.278 186.264 122.997 184.037C123.109 184.218 128.926 190.046 128.71 196.845Z" fill="#F1F1F1"/>
<path d="M128.501 201.27C128.477 201.304 128.453 201.337 128.428 201.37H126.338C126.354 201.341 126.372 201.308 126.393 201.27C126.739 200.646 127.761 198.78 128.71 196.845C129.729 194.765 130.665 192.607 130.586 191.826C130.61 192.002 131.316 197.373 128.501 201.27Z" fill="#F1F1F1"/>
<path d="M68.7332 0L37.5083 51.5109L127.767 106.407L158.992 54.896L68.7332 0Z" fill="white"/>
<path d="M68.7332 0L37.5083 51.5109L127.767 106.407L158.992 54.896L68.7332 0ZM127.181 104.005L39.906 50.9239L69.3192 2.40174L156.594 55.4831L127.181 104.005Z" fill="#E5E5E5"/>
<path d="M59.1822 17.44L58.2764 18.9344L146.795 72.7718L147.7 71.2775L59.1822 17.44Z" fill="#E5E5E5"/>
<path d="M46.7618 37.93L45.8559 39.4244L134.374 93.2618L135.28 91.7674L46.7618 37.93Z" fill="#E5E5E5"/>
<path d="M93.3492 14.9717L62.1243 66.4826L63.6161 67.39L94.8411 15.879L93.3492 14.9717Z" fill="#E5E5E5"/>
<path d="M143.327 45.3687L112.102 96.8796L110.548 96.0745L141.835 44.4611L143.327 45.3687Z" fill="#E5E5E5"/>
<path d="M112.798 97.3029L112.102 96.8797L110.548 96.0745L110.491 95.8996L109.641 93.3376L103.358 74.3975L102.508 71.8354L91.7048 39.2652L90.855 36.7032L87.8011 27.4928L87.0791 25.3153L82.0451 10.1416L81.1953 7.57959L83.503 8.98288L84.3524 11.5449L88.2689 23.3526L88.9906 25.5302L93.1626 38.1068L94.0121 40.6688L104.816 73.239L105.665 75.8011L111.74 94.1093L111.949 94.7412L112.462 96.2869L112.798 97.3029Z" fill="#E5E5E5"/>
<path d="M109.311 80.3275H108.441V56.4593C108.441 54.6452 108.084 52.8488 107.391 51.1728C106.698 49.4968 105.682 47.9739 104.402 46.6911C103.121 45.4084 101.601 44.3908 99.9276 43.6966C98.2543 43.0023 96.461 42.645 94.6499 42.645H44.1662C42.3551 42.645 40.5618 43.0023 38.8886 43.6966C37.2153 44.3908 35.695 45.4083 34.4144 46.6911C33.1337 47.9739 32.1179 49.4967 31.4248 51.1728C30.7317 52.8488 30.375 54.6451 30.375 56.4593V187.402C30.375 189.216 30.7317 191.013 31.4248 192.689C32.1179 194.365 33.1337 195.887 34.4143 197.17C35.695 198.453 37.2153 199.471 38.8885 200.165C40.5618 200.859 42.3551 201.216 44.1662 201.216H94.6498C98.3075 201.216 101.815 199.761 104.402 197.17C106.988 194.58 108.441 191.066 108.441 187.402V97.3173H109.311V80.3275Z" fill="#3F3D56"/>
<path d="M95.2063 46.239H88.6165C88.9196 46.9832 89.0353 47.7907 88.9534 48.5902C88.8715 49.3898 88.5946 50.1569 88.147 50.824C87.6994 51.491 87.095 52.0377 86.3868 52.4156C85.6787 52.7936 84.8886 52.9913 84.0862 52.9914H55.1648C54.3624 52.9913 53.5723 52.7936 52.8641 52.4156C52.156 52.0377 51.5515 51.4911 51.104 50.824C50.6564 50.1569 50.3795 49.3898 50.2976 48.5902C50.2157 47.7907 50.3314 46.9832 50.6344 46.239H44.4796C41.7481 46.239 39.1284 47.3259 37.197 49.2606C35.2655 51.1953 34.1804 53.8193 34.1804 56.5553V187.306C34.1804 188.661 34.4468 190.002 34.9644 191.254C35.482 192.506 36.2406 193.643 37.197 194.601C38.1533 195.559 39.2887 196.319 40.5382 196.837C41.7878 197.356 43.127 197.622 44.4795 197.622H95.2063C96.5588 197.622 97.8981 197.356 99.1476 196.837C100.397 196.319 101.533 195.559 102.489 194.601C103.445 193.643 104.204 192.506 104.721 191.254C105.239 190.002 105.505 188.661 105.505 187.306V56.5553C105.505 55.2006 105.239 53.8591 104.721 52.6074C104.204 51.3558 103.445 50.2185 102.489 49.2606C101.533 48.3026 100.397 47.5427 99.1476 47.0243C97.8981 46.5058 96.5588 46.239 95.2063 46.239Z" fill="white"/>
<path d="M80.7111 82.8689H58.9749V88.1228H80.7111V82.8689Z" fill="#0E53D9"/>
<path d="M81.7459 105.445H57.9401V110.699H81.7459V105.445Z" fill="#E5E5E5"/>
<path d="M96.4091 116.731H43.2767V121.985H96.4091V116.731Z" fill="#E5E5E5"/>
<path d="M96.4091 128.017H43.2767V133.271H96.4091V128.017Z" fill="#E5E5E5"/>
<path d="M80.7111 153.032H58.9749V160.993H80.7111V153.032Z" fill="#0E53D9"/>
<path d="M117.567 43.1902C118.896 43.1902 119.973 42.1115 119.973 40.7809C119.973 39.4503 118.896 38.3716 117.567 38.3716C116.239 38.3716 115.162 39.4503 115.162 40.7809C115.162 42.1115 116.239 43.1902 117.567 43.1902Z" fill="#0E53D9"/>
<path d="M177.932 141.237C178.31 141.039 178.64 140.761 178.899 140.421C179.159 140.082 179.34 139.69 179.432 139.272C179.523 138.855 179.522 138.422 179.429 138.005C179.335 137.588 179.152 137.197 178.891 136.859L182.204 131.061L179.177 128.185L174.614 136.438C174.076 136.915 173.731 137.573 173.644 138.287C173.558 139.001 173.736 139.722 174.145 140.314C174.554 140.905 175.165 141.326 175.863 141.496C176.561 141.666 177.297 141.574 177.932 141.237Z" fill="#FFB7B7"/>
<path d="M196.557 197.443H192.353L190.353 181.2L196.558 181.2L196.557 197.443Z" fill="#FFB7B7"/>
<path d="M197.629 201.525L184.073 201.524V201.352C184.074 199.951 184.629 198.607 185.619 197.615C186.608 196.624 187.95 196.068 189.35 196.067H189.35L197.629 196.068L197.629 201.525Z" fill="#2F2E41"/>
<path d="M232.059 192.029L228.351 194.015L218.941 180.636L224.413 177.705L232.059 192.029Z" fill="#FFB7B7"/>
<path d="M234.926 195.123L222.971 201.525L222.891 201.373C222.231 200.137 222.088 198.689 222.494 197.348C222.9 196.006 223.822 194.882 225.056 194.221L225.056 194.22L232.357 190.31L234.926 195.123Z" fill="#2F2E41"/>
<path d="M212.228 133.435L213.169 152.899C213.169 152.899 215.341 153.715 214.581 156.872C214.581 156.872 213.516 160.509 215.926 160.509C218.337 160.509 227.77 182.981 227.77 182.981L221.605 186.11L205.412 162.561L200.809 146.835L198.343 164.702L198.178 192.285L190.122 191.379L187.821 159.515L186.752 135.225L212.228 133.435Z" fill="#2F2E41"/>
<path d="M184.191 139.699L186.176 125.271L193.053 91.5448L206.123 92.2856L212.363 104.341L211.279 127.856L213.775 137.139L184.191 139.699Z" fill="#3F3D56"/>
<path d="M189.231 119.196L181.381 134.164L180.151 137.101L176.557 132.838L181.484 115.401C181.484 115.401 185.941 93.7814 193.028 91.5808L194.742 91.8611L189.231 119.196Z" fill="#3F3D56"/>
<path d="M207.942 136.946C208.346 136.808 208.715 136.583 209.022 136.287C209.33 135.991 209.569 135.63 209.723 135.232C209.876 134.833 209.941 134.405 209.911 133.979C209.882 133.553 209.76 133.138 209.553 132.764L213.705 127.537L211.149 124.234L205.389 131.699C204.785 132.088 204.345 132.686 204.151 133.379C203.957 134.072 204.024 134.812 204.339 135.459C204.654 136.105 205.194 136.614 205.859 136.888C206.523 137.162 207.264 137.183 207.942 136.946Z" fill="#FFB7B7"/>
<path d="M203.687 94.4228L206.004 92.1966C206.004 92.1966 208.726 93.2111 210.685 98.449C212.645 103.687 219.022 117.87 219.022 117.87L212.78 130.564L208.571 127.769L210.841 116.591L203.687 94.4228Z" fill="#3F3D56"/>
<path d="M198.348 90.0766C202.173 90.0766 205.274 86.9708 205.274 83.1396C205.274 79.3084 202.173 76.2025 198.348 76.2025C194.523 76.2025 191.423 79.3084 191.423 83.1396C191.423 86.9708 194.523 90.0766 198.348 90.0766Z" fill="#FFB7B7"/>
<path d="M204.862 77.5938L205.198 76.9169L203.508 76.0761C203.508 76.0761 201.645 73.0387 198.272 73.8923C194.9 74.7459 193.383 75.2567 193.383 75.2567L191.697 76.106L192.543 76.9489L191.026 77.4598L192.04 77.9642L190.86 78.6432L191.495 82.1241C191.495 82.1241 192.55 79.484 194.577 80.4929C196.604 81.5018 200.312 79.9714 200.312 79.9714L203.534 86.2164C203.534 86.2164 204.198 84.0272 205.383 84.611C205.383 84.611 208.41 79.7819 204.862 77.5938Z" fill="#2F2E41"/>
<path d="M279.685 202H0.314607C0.231168 202 0.151146 201.967 0.0921459 201.908C0.0331457 201.849 0 201.768 0 201.685C0 201.601 0.0331457 201.521 0.0921459 201.462C0.151146 201.403 0.231168 201.37 0.314607 201.37H279.685C279.769 201.37 279.849 201.403 279.908 201.462C279.967 201.521 280 201.601 280 201.685C280 201.768 279.967 201.849 279.908 201.908C279.849 201.967 279.769 202 279.685 202Z" fill="#CBCBCB"/>
</g>
<defs>
<clipPath id="clip0_11693_19747">
<rect width="280" height="202" fill="white"/>
</clipPath>
</defs>
</svg>
