<svg width="235" height="159" viewBox="0 0 235 159" fill="none" xmlns="http://www.w3.org/2000/svg">
<g clip-path="url(#clip0_3528_26417)">
<path d="M151.95 36.0453C156.4 36.0453 160.007 32.4253 160.007 27.9599C160.007 23.4945 156.4 19.8746 151.95 19.8746C147.5 19.8746 143.893 23.4945 143.893 27.9599C143.893 32.4253 147.5 36.0453 151.95 36.0453Z" fill="#F2F2F2"/>
<path d="M170.708 108.106C169.449 105.2 167.511 102.648 163.633 100.501C161.629 99.3636 159.476 98.5131 157.238 97.974C158.744 97.2717 160.129 96.3335 161.342 95.1946C163.124 93.5956 164.476 91.5705 165.27 89.3075C166.001 87.0077 166.3 84.5916 166.151 82.1823C165.874 77.9375 165.043 73.819 162.827 70.8628C160.612 67.9066 157.489 65.6326 153.36 64.0408C150.188 62.828 146.94 62.07 141.904 61.792V45.6466L131.832 51.9633V61.8173H123.775V51.4579L113.452 45.6466V61.8173H91.5208L98.5709 73.9453C100.749 73.9478 102.224 74.15 102.977 74.5264C103.68 74.8283 104.258 75.3636 104.614 76.0424C104.941 76.6741 105.092 78.1649 105.092 80.4641V124.226C105.092 126.5 104.941 127.966 104.614 128.622C104.286 129.279 104.11 129.861 103.33 130.214C102.549 130.568 102.524 130.543 100.359 130.543H100.333L91.5208 142.671H113.426V158.841H123.75V142.671H131.807V158.841H141.879V142.57C148.425 142.241 153.083 141.382 156.835 139.967C161.694 138.148 165.421 135.495 168.09 132.008C170.759 128.521 171.841 123.19 172.068 119.072C172.244 115.408 171.841 110.683 170.708 108.106ZM123.75 75.4613H123.752V75.1253H130.792C134.753 75.1253 147.952 73.8013 148.171 84.618C148.392 95.4346 130.792 94.9925 130.792 94.9925H123.752V94.1587H123.75V75.4613ZM123.75 106.287H131.807C133.444 106.287 139.074 106.537 141.123 106.63C141.959 106.661 142.786 106.809 143.581 107.07C143.87 107.169 144.145 107.28 144.442 107.403C145.684 107.806 146.855 108.401 147.914 109.167C148.604 109.625 149.211 110.197 149.709 110.86C149.925 111.159 150.123 111.47 150.303 111.792C150.78 112.602 151.134 113.478 151.353 114.392C151.593 115.275 151.718 116.186 151.723 117.101C151.723 119.069 151.361 120.699 150.467 122.078C149.256 124.115 147.269 125.558 145.033 126.576C139.252 129.214 131.807 129.027 131.807 129.027H123.75V106.287Z" fill="#3F3D56"/>
<path opacity="0.3" d="M154.131 28.3001C154.054 28.1108 153.914 27.9545 153.734 27.8587C153.622 27.7929 153.501 27.7435 153.375 27.7121C153.46 27.6711 153.538 27.6166 153.605 27.5508C153.706 27.457 153.782 27.3396 153.826 27.2091C153.867 27.0754 153.883 26.9353 153.875 26.7956C153.874 26.5636 153.81 26.3363 153.689 26.1387C153.554 25.9581 153.369 25.8206 153.158 25.7428C152.953 25.6629 152.736 25.6188 152.516 25.6122V24.6752L151.951 25.0418V25.6137H151.499V25.0125L150.921 24.6752V25.6137H149.691L150.087 26.3176C150.17 26.3118 150.254 26.3233 150.334 26.3513C150.373 26.3692 150.406 26.4002 150.425 26.4393C150.449 26.5225 150.458 26.6094 150.452 26.6959V29.2356C150.458 29.3216 150.449 29.408 150.425 29.4908C150.407 29.5289 150.397 29.5626 150.353 29.5832C150.31 29.6037 150.308 29.6022 150.187 29.6022H150.185L149.691 30.3061H150.919V31.2446H151.498V30.3061H151.95V31.2446H152.514V30.3002C152.8 30.2951 153.083 30.2441 153.353 30.1492C153.603 30.0595 153.822 29.8991 153.984 29.6873C154.125 29.462 154.202 29.2024 154.207 28.9365C154.222 28.7215 154.196 28.5055 154.131 28.3001ZM151.498 26.4056L151.498 26.3861H151.893C152.115 26.3861 152.855 26.3092 152.867 26.937C152.879 27.5647 151.893 27.5391 151.893 27.5391H151.498V27.4907L151.498 26.4056ZM151.498 28.1945H151.95C152.041 28.1945 152.357 28.2091 152.472 28.2145C152.519 28.2163 152.565 28.2249 152.61 28.24C152.626 28.2457 152.641 28.2522 152.658 28.2594C152.728 28.2829 152.794 28.3174 152.853 28.3617C152.892 28.3885 152.926 28.4217 152.953 28.46C152.996 28.5222 153.027 28.5916 153.045 28.665C153.059 28.7163 153.066 28.7691 153.066 28.8222C153.071 28.9232 153.046 29.0235 152.996 29.111C152.923 29.2273 152.817 29.3184 152.691 29.372C152.456 29.4687 152.204 29.5171 151.95 29.5143H151.498V28.1945Z" fill="#0F53D9"/>
<path d="M200.96 120.217C202.591 120.217 203.914 118.89 203.914 117.253C203.914 115.617 202.591 114.29 200.96 114.29C199.329 114.29 198.007 115.617 198.007 117.253C198.007 118.89 199.329 120.217 200.96 120.217Z" fill="#FF6584"/>
<path d="M224.242 149.514V115.771" stroke="#3F3D56" stroke-width="2" stroke-miterlimit="10"/>
<path d="M224.242 120.542C226.869 120.542 228.998 118.406 228.998 115.771C228.998 113.135 226.869 110.999 224.242 110.999C221.616 110.999 219.487 113.135 219.487 115.771C219.487 118.406 221.616 120.542 224.242 120.542Z" fill="#3F3D56"/>
<path d="M214.877 134.664C208.008 145.234 209.89 158.678 209.89 158.678C209.89 158.678 222.909 154.984 229.778 144.414C236.646 133.844 234.764 120.4 234.764 120.4C234.764 120.4 221.746 124.094 214.877 134.664Z" fill="#3F3D56"/>
<path d="M209.854 158.555C209.854 158.555 209.687 158.528 209.379 158.466C209.133 158.416 208.795 158.345 208.383 158.246C204.693 157.373 194.885 154.423 188.472 146.665C180.446 136.951 180.784 123.379 180.784 123.379C180.784 123.379 193.056 125.38 201.143 134.103C201.493 134.478 201.834 134.867 202.166 135.269C209.149 143.721 209.8 155.094 209.852 157.905C209.859 158.327 209.854 158.555 209.854 158.555Z" fill="#0F53D9"/>
<path d="M204.904 134.664C211.772 145.234 209.89 158.678 209.89 158.678C209.89 158.678 196.872 154.984 190.003 144.414C183.135 133.844 185.017 120.4 185.017 120.4C185.017 120.4 198.035 124.094 204.904 134.664Z" stroke="#3F3D56" stroke-width="2" stroke-miterlimit="10"/>
<path opacity="0.1" d="M209.852 157.905C209.671 158.125 209.51 158.312 209.379 158.466C209.087 158.8 208.922 158.975 208.922 158.975C208.922 158.975 208.721 158.721 208.383 158.246C206.527 155.651 200.559 146.422 201.02 135.762C201.045 135.203 201.086 134.65 201.143 134.104C201.493 134.478 201.834 134.867 202.166 135.269C209.149 143.721 209.8 155.094 209.852 157.905Z" fill="black"/>
<path d="M220.036 136.533C219.494 149.14 210.167 158.975 210.167 158.975C210.167 158.975 201.722 148.369 202.265 135.762C202.808 123.155 212.134 113.32 212.134 113.32C212.134 113.32 220.579 123.926 220.036 136.533Z" fill="#0F53D9"/>
<path d="M210.167 158.618L212.218 113.834" stroke="#3F3D56" stroke-width="2" stroke-miterlimit="10"/>
<path d="M14.4707 158.667H227.489" stroke="#3F3D56" stroke-width="2" stroke-miterlimit="10"/>
<path d="M59.7131 104.052C65.6551 104.052 70.472 99.2182 70.472 93.2555C70.472 87.2928 65.6551 82.4591 59.7131 82.4591C53.7711 82.4591 48.9542 87.2928 48.9542 93.2555C48.9542 99.2182 53.7711 104.052 59.7131 104.052Z" fill="#0F53D9"/>
<path d="M41.4258 129.461C47.3677 129.461 52.1846 124.627 52.1846 118.665C52.1846 112.702 47.3677 107.868 41.4258 107.868C35.4838 107.868 30.6669 112.702 30.6669 118.665C30.6669 124.627 35.4838 129.461 41.4258 129.461Z" fill="#0F53D9"/>
<path d="M18.9183 149.753C24.8603 149.753 29.6772 144.919 29.6772 138.957C29.6772 132.994 24.8603 128.16 18.9183 128.16C12.9763 128.16 8.15942 132.994 8.15942 138.957C8.15942 144.919 12.9763 149.753 18.9183 149.753Z" fill="#0F53D9"/>
<path d="M18.9088 158.482V138.897" stroke="#3F3D56" stroke-width="2" stroke-miterlimit="10"/>
<path d="M18.9088 141.667C20.433 141.667 21.6687 140.427 21.6687 138.897C21.6687 137.368 20.433 136.128 18.9088 136.128C17.3846 136.128 16.1489 137.368 16.1489 138.897C16.1489 140.427 17.3846 141.667 18.9088 141.667Z" fill="#3F3D56"/>
<path d="M18.9087 150.968C18.9087 150.968 18.5145 142.458 10.432 143.447L18.9087 150.968Z" fill="#3F3D56"/>
<path d="M59.7198 158.619V93.2951" stroke="#3F3D56" stroke-width="2" stroke-miterlimit="10"/>
<path d="M59.7199 96.0337C61.2442 96.0337 62.4798 94.7937 62.4798 93.2642C62.4798 91.7346 61.2442 90.4947 59.7199 90.4947C58.1957 90.4947 56.9601 91.7346 56.9601 93.2642C56.9601 94.7937 58.1957 96.0337 59.7199 96.0337Z" fill="#3F3D56"/>
<path d="M51.2431 143.296C52.7674 143.296 54.003 142.056 54.003 140.526C54.003 138.997 52.7674 137.757 51.2431 137.757C49.7189 137.757 48.4833 138.997 48.4833 140.526C48.4833 142.056 49.7189 143.296 51.2431 143.296Z" fill="#3F3D56"/>
<path d="M59.7199 107.411C59.7199 107.411 59.3256 98.9015 51.2432 99.8906L59.7199 107.411Z" fill="#3F3D56"/>
<path d="M59.7199 131.534C59.7199 131.534 59.3256 123.025 51.2432 124.014L59.7199 131.534Z" fill="#3F3D56"/>
<path d="M59.7199 157.858C59.7199 157.858 61.4941 141.318 51.2432 140.526" stroke="#3F3D56" stroke-width="2" stroke-miterlimit="10"/>
<path d="M68.1979 143.296C69.7221 143.296 70.9577 142.056 70.9577 140.526C70.9577 138.997 69.7221 137.757 68.1979 137.757C66.6736 137.757 65.438 138.997 65.438 140.526C65.438 142.056 66.6736 143.296 68.1979 143.296Z" fill="#3F3D56"/>
<path d="M59.7211 157.858C59.7211 157.858 57.9469 141.318 68.1978 140.526" stroke="#3F3D56" stroke-width="2" stroke-miterlimit="10"/>
<path d="M68.3659 117.317C69.8902 117.317 71.1258 116.077 71.1258 114.548C71.1258 113.018 69.8902 111.778 68.3659 111.778C66.8417 111.778 65.6061 113.018 65.6061 114.548C65.6061 116.077 66.8417 117.317 68.3659 117.317Z" fill="#3F3D56"/>
<path d="M59.8892 130.997C59.8892 130.997 58.115 115.339 68.3659 114.548" stroke="#3F3D56" stroke-width="2" stroke-miterlimit="10"/>
<path d="M41.4357 158.527V118.653" stroke="#3F3D56" stroke-width="2" stroke-miterlimit="10"/>
<path d="M41.4356 121.422C42.9599 121.422 44.1955 120.182 44.1955 118.653C44.1955 117.123 42.9599 115.883 41.4356 115.883C39.9114 115.883 38.6758 117.123 38.6758 118.653C38.6758 120.182 39.9114 121.422 41.4356 121.422Z" fill="#3F3D56"/>
<path d="M41.4356 129.932C41.4356 129.932 41.0413 121.422 32.9589 122.411L41.4356 129.932Z" fill="#3F3D56"/>
<path d="M41.4356 157.766C41.4356 157.766 43.2098 141.402 32.9589 140.611" stroke="#3F3D56" stroke-width="2" stroke-miterlimit="10"/>
<path d="M32.9588 143.38C34.4831 143.38 35.7187 142.14 35.7187 140.611C35.7187 139.081 34.4831 137.841 32.9588 137.841C31.4346 137.841 30.199 139.081 30.199 140.611C30.199 142.14 31.4346 143.38 32.9588 143.38Z" fill="#3F3D56"/>
<path d="M192.992 97.9487C195.495 97.9487 197.524 95.9125 197.524 93.4007C197.524 90.8889 195.495 88.8527 192.992 88.8527C190.489 88.8527 188.459 90.8889 188.459 93.4007C188.459 95.9125 190.489 97.9487 192.992 97.9487Z" fill="#F2F2F2"/>
<path opacity="0.1" d="M145.033 126.576C139.252 129.214 131.807 129.027 131.807 129.027H123.75V127.483C127.033 126.563 131.573 125.995 136.591 125.995C139.415 125.985 142.237 126.179 145.033 126.576Z" fill="black"/>
<path opacity="0.1" d="M154.72 131.048C154.72 133.84 146.602 136.101 136.591 136.101C126.58 136.101 118.462 133.84 118.462 131.048C118.462 129.656 120.482 128.395 123.75 127.483V129.027H131.807C131.807 129.027 139.252 129.214 145.033 126.576C150.792 127.42 154.72 129.105 154.72 131.048Z" fill="black"/>
<path d="M138.906 99.5834H131.193V107.338H138.906V99.5834Z" fill="#2F2E41"/>
<path d="M134.061 105.067C134.061 105.067 134.7 107.309 133.583 107.47C132.889 107.578 132.232 107.853 131.667 108.27L133.742 110.993H137.573L139.967 108.591C139.967 108.591 136.775 106.188 137.413 104.747C138.052 103.305 134.061 105.067 134.061 105.067Z" fill="#FFB9B9"/>
<path opacity="0.1" d="M134.061 105.067C134.061 105.067 134.7 107.309 133.583 107.47C132.889 107.578 132.232 107.853 131.667 108.27L133.742 110.993H137.573L139.967 108.591C139.967 108.591 136.775 106.188 137.413 104.747C138.052 103.305 134.061 105.067 134.061 105.067Z" fill="black"/>
<path d="M135.019 132.937L138.69 134.219L141.244 134.379L141.084 132.136L135.817 130.573L135.019 132.937Z" fill="#FFB9B9"/>
<path d="M139.728 132.457C139.728 132.457 139.728 134.699 140.047 134.699C140.366 134.699 144.676 134.219 145.953 134.699C147.23 135.18 149.145 133.418 148.188 132.457C147.23 131.496 145.668 130.054 144.693 130.374C143.718 130.695 139.728 131.496 139.728 131.496L139.728 132.457Z" fill="#2F2E41"/>
<path d="M127.996 130.374C127.996 130.374 126.08 134.219 127.357 134.539C128.634 134.859 130.071 134.379 130.231 134.219C130.39 134.058 132.625 133.418 132.944 133.738C133.263 134.058 133.263 132.457 133.263 132.457L127.996 130.374Z" fill="#2F2E41"/>
<path d="M129.592 125.089C129.592 125.089 126.559 129.253 128.794 130.374C131.029 131.496 141.723 131.496 142.521 130.374C143.319 129.253 143.638 125.729 142.521 125.409C141.404 125.089 129.592 125.089 129.592 125.089Z" fill="#2F2E41"/>
<path opacity="0.2" d="M129.592 125.089C129.592 125.089 126.559 129.253 128.794 130.374C131.029 131.496 141.723 131.496 142.521 130.374C143.319 129.253 143.638 125.729 142.521 125.409C141.404 125.089 129.592 125.089 129.592 125.089Z" fill="black"/>
<path d="M135.338 106.188C137.366 106.188 139.009 104.539 139.009 102.504C139.009 100.47 137.366 98.8202 135.338 98.8202C133.311 98.8202 131.667 100.47 131.667 102.504C131.667 104.539 133.311 106.188 135.338 106.188Z" fill="#FFB9B9"/>
<path d="M129.592 108.27L132.784 107.63C132.784 107.63 133.582 110.193 136.136 109.712C138.69 109.231 139.329 107.63 139.329 107.63C139.329 107.63 141.244 108.431 141.404 108.431C141.563 108.431 143.638 109.231 143.638 109.712C143.638 110.193 141.244 114.998 141.244 114.998L141.563 123.647L129.752 123.327L130.55 114.838L129.592 108.27Z" fill="#0F53D9"/>
<path d="M127.836 112.435C127.836 112.435 126.879 120.924 127.517 121.565C128.156 122.206 130.709 123.967 130.709 123.967V122.045L129.432 119.643L130.709 114.037L127.836 112.435Z" fill="#FFB9B9"/>
<path d="M144.357 112.195C144.357 112.195 143.798 120.924 143.798 121.245C143.798 121.565 142.361 122.686 141.883 122.686C141.404 122.686 141.084 121.885 141.084 121.885L142.202 120.604L141.404 114.037L144.357 112.195Z" fill="#FFB9B9"/>
<path d="M142.84 124.448C142.84 124.448 150.023 120.444 150.183 124.448C150.342 128.452 146.512 130.054 146.512 130.054C146.512 130.054 136.615 133.032 136.216 131.943C135.817 130.855 135.019 129.093 135.658 128.933C136.296 128.773 137.094 128.452 137.413 128.773C137.733 129.093 141.723 126.37 141.723 126.37L142.84 124.448Z" fill="#2F2E41"/>
<path opacity="0.2" d="M146.192 123.967C146.192 123.967 144.756 124.608 144.277 125.089C143.798 125.569 141.723 126.37 141.723 126.37" stroke="black" stroke-width="2" stroke-miterlimit="10"/>
<path d="M130.55 108.591L129.592 108.27C129.592 108.27 126.08 111.954 127.198 112.915C128.315 113.877 128.954 114.197 129.273 114.517C129.592 114.838 131.188 114.998 131.188 114.998L130.55 108.591Z" fill="#0F53D9"/>
<path d="M142.202 109.392L143.638 109.712C143.638 109.712 144.756 112.115 145.075 112.435C145.394 112.755 144.596 112.595 144.117 113.236C143.638 113.877 143.16 114.998 142.202 114.998C141.244 114.998 139.967 113.396 139.967 113.396L142.202 109.392Z" fill="#0F53D9"/>
<path d="M129.911 125.89C129.911 125.89 123.846 121.565 121.771 124.768C119.696 127.972 130.709 132.297 132.306 132.937C133.902 133.578 135.338 134.219 135.338 134.219C135.338 134.219 136.775 130.695 136.775 130.054C136.775 129.413 135.658 129.413 135.338 129.413C135.019 129.413 133.583 129.093 133.263 128.613C132.944 128.132 129.911 125.89 129.911 125.89Z" fill="#2F2E41"/>
<path opacity="0.2" d="M126.559 124.768C126.559 124.768 128.156 126.05 129.592 126.37C131.029 126.69 131.507 127.491 131.507 127.491" stroke="black" stroke-width="2" stroke-miterlimit="10"/>
<path d="M128.81 118.746L128.938 125.528C128.942 125.752 129.034 125.965 129.194 126.121C129.355 126.277 129.57 126.363 129.793 126.361L142.37 126.219C142.584 126.216 142.79 126.132 142.945 125.984C143.1 125.835 143.193 125.633 143.205 125.419L143.587 118.779C143.593 118.663 143.576 118.548 143.537 118.439C143.498 118.331 143.436 118.231 143.357 118.147C143.278 118.063 143.183 117.996 143.077 117.95C142.971 117.905 142.857 117.881 142.742 117.881H129.656C129.544 117.881 129.432 117.903 129.329 117.947C129.225 117.991 129.131 118.055 129.052 118.135C128.973 118.216 128.912 118.311 128.87 118.416C128.828 118.521 128.808 118.633 128.81 118.746Z" fill="#575A89"/>
<path d="M127.356 108.311C127.698 107.552 128.158 106.84 128.378 106.037C128.641 105.075 128.538 104.056 128.507 103.059C128.457 102.176 128.532 101.291 128.73 100.43C128.93 99.5648 129.38 98.778 130.024 98.1681C131.697 96.6696 134.758 96.562 136.801 97.1858C137.606 97.4317 138.464 97.9001 138.664 98.7206C138.694 98.8445 138.707 98.9721 138.741 99.0951C138.908 99.706 139.531 100.093 139.756 100.685C140.046 101.45 139.598 102.283 139.539 103.1C139.471 104.055 139.939 104.956 140.399 105.794C140.673 106.292 140.958 106.822 140.931 107.39C140.908 107.701 140.814 108.002 140.656 108.27C140.362 108.756 139.95 109.159 139.459 109.442C138.968 109.724 138.413 109.877 137.847 109.886C137.479 109.915 137.111 109.828 136.795 109.636C136.296 109.292 136.15 108.598 136.254 108C136.358 107.402 136.66 106.861 136.898 106.302C136.97 106.13 137.036 105.956 137.097 105.78C137.832 105.368 138.399 104.709 138.696 103.918C138.994 103.128 139.004 102.257 138.725 101.46C138.445 100.663 137.893 99.9904 137.168 99.5616C136.442 99.1329 135.589 98.9753 134.758 99.1166C133.928 99.2579 133.174 99.6891 132.63 100.334C132.086 100.979 131.786 101.796 131.784 102.641C131.782 103.486 132.077 104.305 132.618 104.953C133.159 105.6 133.911 106.035 134.741 106.181C134.919 107.085 134.838 108.021 134.506 108.881C134.204 109.58 133.826 110.243 133.377 110.857C133.193 111.172 132.948 111.447 132.657 111.666C132.465 111.78 132.259 111.868 132.044 111.928C131.142 112.219 130.193 112.453 129.255 112.322C128.317 112.192 127.388 111.624 127.068 110.729C126.788 109.945 127.013 109.069 127.356 108.311Z" fill="#2F2E41"/>
<path d="M135.16 102.651C137.312 102.651 139.057 101.659 139.057 100.436C139.057 99.2121 137.312 98.2202 135.16 98.2202C133.009 98.2202 131.264 99.2121 131.264 100.436C131.264 101.659 133.009 102.651 135.16 102.651Z" fill="#2F2E41"/>
<path opacity="0.3" d="M194.686 93.665C194.627 93.5179 194.518 93.3964 194.378 93.322C194.291 93.2709 194.197 93.2325 194.099 93.2081C194.165 93.1762 194.225 93.1339 194.278 93.0828C194.356 93.0099 194.415 92.9186 194.449 92.8173C194.481 92.7133 194.494 92.6045 194.487 92.4959C194.487 92.3156 194.437 92.139 194.343 91.9855C194.238 91.8451 194.094 91.7383 193.93 91.6778C193.771 91.6158 193.602 91.5815 193.431 91.5764V90.8483L192.992 91.1331V91.5775H192.641V91.1103L192.192 90.8483V91.5775H191.236L191.544 92.1245C191.609 92.12 191.674 92.1289 191.736 92.1507C191.766 92.1646 191.792 92.1887 191.807 92.219C191.826 92.2837 191.833 92.3513 191.828 92.4184V94.392C191.832 94.4588 191.825 94.5259 191.807 94.5903C191.793 94.6199 191.785 94.6461 191.751 94.662C191.717 94.678 191.716 94.6769 191.621 94.6769H191.62L191.236 95.2238H192.191V95.9531H192.64V95.2238H192.991V95.9531H193.43V95.2192C193.652 95.2153 193.872 95.1757 194.082 95.1019C194.276 95.0321 194.446 94.9075 194.572 94.7429C194.681 94.5679 194.741 94.3662 194.745 94.1595C194.757 93.9924 194.737 93.8246 194.686 93.665ZM192.64 92.1928L192.64 92.1777H192.947C193.12 92.1777 193.695 92.118 193.704 92.6058C193.714 93.0936 192.947 93.0736 192.947 93.0736H192.64V93.036L192.64 92.1928ZM192.64 93.583H192.991C193.063 93.583 193.308 93.5943 193.397 93.5985C193.434 93.5999 193.47 93.6065 193.504 93.6183C193.517 93.6227 193.529 93.6278 193.542 93.6333C193.596 93.6516 193.647 93.6785 193.693 93.7129C193.723 93.7337 193.75 93.7595 193.771 93.7892C193.804 93.8376 193.829 93.8915 193.843 93.9485C193.853 93.9884 193.859 94.0294 193.859 94.0707C193.863 94.1492 193.844 94.2272 193.804 94.2952C193.748 94.3855 193.665 94.4563 193.568 94.498C193.385 94.5731 193.189 94.6107 192.991 94.6085H192.64V93.583Z" fill="#0F53D9"/>
<path d="M16.2358 113.867C18.7389 113.867 20.768 111.83 20.768 109.319C20.768 106.807 18.7389 104.771 16.2358 104.771C13.7327 104.771 11.7036 106.807 11.7036 109.319C11.7036 111.83 13.7327 113.867 16.2358 113.867Z" fill="#F2F2F2"/>
<path opacity="0.3" d="M17.9302 109.583C17.8708 109.436 17.7617 109.314 17.6219 109.24C17.535 109.189 17.4412 109.151 17.3433 109.126C17.4093 109.094 17.4696 109.052 17.5221 109.001C17.6002 108.928 17.659 108.837 17.6932 108.735C17.7251 108.631 17.7381 108.523 17.7316 108.414C17.7311 108.234 17.681 108.057 17.5868 107.903C17.4818 107.763 17.3386 107.656 17.1744 107.596C17.015 107.534 16.8463 107.499 16.6754 107.494V106.766L16.2366 107.051V107.496H15.8856V107.028L15.4359 106.766V107.496H14.4806L14.7877 108.042C14.8528 108.038 14.9181 108.047 14.9797 108.069C15.0105 108.083 15.0357 108.107 15.0509 108.137C15.0697 108.202 15.0767 108.269 15.0718 108.336V110.31C15.0766 110.377 15.0695 110.444 15.0509 110.508C15.0367 110.538 15.029 110.564 14.995 110.58C14.961 110.596 14.9599 110.595 14.8656 110.595H14.8645L14.4806 111.142H15.4349V111.871H15.8845V111.142H16.2355V111.871H16.6743V111.137C16.8963 111.133 17.1163 111.094 17.3258 111.02C17.5203 110.95 17.6905 110.826 17.8161 110.661C17.9255 110.486 17.9854 110.284 17.9894 110.078C18.0009 109.91 17.9808 109.743 17.9302 109.583ZM15.8846 108.111L15.8847 108.096H16.1913C16.3639 108.096 16.9388 108.036 16.9484 108.524C16.958 109.012 16.1913 108.992 16.1913 108.992H15.8847V108.954L15.8846 108.111ZM15.8846 109.501H16.2355C16.3068 109.501 16.5521 109.512 16.6414 109.517C16.6778 109.518 16.7139 109.525 16.7484 109.536C16.761 109.541 16.773 109.546 16.7859 109.551C16.8403 109.57 16.8913 109.596 16.9372 109.631C16.9674 109.652 16.9939 109.678 17.0154 109.707C17.0486 109.756 17.0729 109.81 17.087 109.867C17.0975 109.906 17.1029 109.947 17.1031 109.989C17.1068 110.067 17.0878 110.145 17.0484 110.213C16.9921 110.304 16.9095 110.374 16.8117 110.416C16.6289 110.491 16.433 110.529 16.2355 110.527H15.8845L15.8846 109.501Z" fill="#0F53D9"/>
</g>
<defs>
<clipPath id="clip0_3528_26417">
<rect width="235" height="159" fill="white"/>
</clipPath>
</defs>
</svg>
