<svg width="375" height="266" viewBox="0 0 375 266" fill="none" xmlns="http://www.w3.org/2000/svg">
<g clip-path="url(#clip0_3940_25333)">
<g clip-path="url(#clip1_3940_25333)">
<path d="M25.8188 127.559C26.525 129.443 89.3813 194.771 90.4406 194.771C93.6188 194.771 90.2052 189.945 78.199 177.468C70.9011 169.817 57.0115 155.221 47.3594 144.98C36.8833 134.033 28.8792 126.5 27.5844 126.5C26.4073 126.5 25.5833 126.971 25.8188 127.559Z" fill="#F4F4FD"/>
<path d="M53.9511 141.802C89.3813 179.233 91.5 181.47 91.2646 178.174C90.7938 173.819 46.5354 127.206 42.2979 126.735C39.8261 126.382 41.8271 129.09 53.9511 141.802Z" fill="#F4F4FD"/>
<path d="M15.1073 129.913C13.8125 130.737 18.6385 136.505 36.2948 154.985C71.1365 191.475 84.7906 205.365 85.85 205.365C89.0281 205.365 85.026 199.95 71.1365 185.59C62.5437 176.761 46.7708 160.282 36.1771 149.1C25.5833 138.035 16.8729 128.854 16.8729 128.854C16.7552 128.854 16.049 129.325 15.1073 129.913Z" fill="#F4F4FD"/>
<path d="M5.21977 134.387C4.74894 134.74 4.39581 135.564 4.39581 136.152C4.39581 136.623 15.3427 148.629 28.7614 162.637C73.1375 209.367 79.9646 216.194 81.0239 214.664C81.6125 213.722 79.9646 211.015 76.4333 207.13C69.7239 199.832 6.51456 133.563 6.16144 133.563C6.04373 133.563 5.5729 133.916 5.21977 134.387Z" fill="#F4F4FD"/>
<path d="M72.7844 146.393C79.4937 153.338 85.2615 158.988 85.4969 158.752C85.7323 158.517 84.3198 155.809 82.3187 152.749C77.2573 144.863 65.1333 133.563 61.7198 133.563C61.1312 133.563 66.075 139.33 72.7844 146.393Z" fill="#F4F4FD"/>
<path d="M-4.43232 141.684C-5.13857 142.979 71.1364 223.609 73.1375 223.609C73.8437 223.609 74.4323 223.021 74.4323 222.197C74.4323 220.549 -1.13649 140.625 -2.6667 140.625C-3.25524 140.625 -3.96149 141.096 -4.43232 141.684Z" fill="#F4F4FD"/>
<path d="M-11.4948 150.042C-11.8479 150.63 -6.19793 157.457 0.982279 164.991C20.4042 185.354 37.4719 203.128 51.3614 217.489C59.4833 226.081 64.0739 229.966 65.251 229.495C67.2521 228.789 67.4875 229.024 32.0573 191.828C-12.4365 145.098 -9.84689 147.452 -11.4948 150.042Z" fill="#F4F4FD"/>
<path d="M-16.5563 160.518C-15.9677 164.049 53.5979 235.969 55.7167 235.145C57.7177 234.439 58.8948 235.616 15.6958 190.298C-1.13647 172.759 -15.2615 158.281 -15.85 158.281C-16.4386 158.281 -16.7917 159.223 -16.5563 160.518Z" fill="#F4F4FD"/>
<path d="M-21.2646 171.111C-21.0292 172.288 -7.13959 187.708 9.6927 205.364C26.525 223.021 40.65 237.97 41.0031 238.676C41.4739 239.264 42.7687 239.5 43.8281 239.029C45.5937 238.441 45.3583 237.734 41.9448 233.85C32.8812 223.609 -19.7344 168.875 -20.676 168.875C-21.2646 168.875 -21.5 169.817 -21.2646 171.111Z" fill="#F4F4FD"/>
<path d="M-21.5 185.707C-21.5 187.826 -15.2615 195.124 2.86562 214.075C16.8729 228.671 28.1729 239.5 29.35 239.5C30.5271 239.5 31.4687 239.147 31.4687 238.676C31.4687 238.205 26.525 232.791 20.5219 226.67C14.5187 220.431 2.63021 208.072 -5.9625 199.126C-18.7927 185.707 -21.5 183.353 -21.5 185.707Z" fill="#F4F4FD"/>
<path d="M-15.1438 208.307C-11.2594 216.312 8.75101 235.498 10.9875 233.379C11.2229 233.144 4.74892 226.081 -3.37295 217.606C-17.2625 203.246 -17.8511 202.775 -15.1438 208.307Z" fill="#F4F4FD"/>
</g>
<g clip-path="url(#clip2_3940_25333)">
<path d="M358.069 12.3156C357.525 13.7656 309.131 64.0625 308.316 64.0625C305.869 64.0625 308.497 60.3469 317.741 50.7406C323.359 44.85 334.053 33.6125 341.484 25.7281C349.55 17.3 355.712 11.5 356.709 11.5C357.616 11.5 358.25 11.8625 358.069 12.3156Z" fill="#F4F4FD"/>
<path d="M336.409 23.2812C309.131 52.0999 307.5 53.8218 307.681 51.2843C308.044 47.9312 342.119 12.0437 345.381 11.6812C347.284 11.4093 345.744 13.4937 336.409 23.2812Z" fill="#F4F4FD"/>
<path d="M366.316 14.1281C367.312 14.7625 363.597 19.2031 350.003 33.4312C323.178 61.525 312.666 72.2188 311.85 72.2188C309.403 72.2188 312.484 68.05 323.178 56.9937C329.794 50.1969 341.937 37.5094 350.094 28.9C358.25 20.3812 364.956 13.3125 364.956 13.3125C365.047 13.3125 365.591 13.675 366.316 14.1281Z" fill="#F4F4FD"/>
<path d="M373.928 17.5719C374.291 17.8437 374.562 18.4781 374.562 18.9312C374.562 19.2937 366.134 28.5375 355.803 39.3219C321.637 75.3 316.381 80.5562 315.566 79.3781C315.112 78.6531 316.381 76.5687 319.1 73.5781C324.266 67.9594 372.931 16.9375 373.203 16.9375C373.294 16.9375 373.656 17.2094 373.928 17.5719Z" fill="#F4F4FD"/>
<path d="M321.909 26.8156C316.744 32.1625 312.303 36.5125 312.122 36.3312C311.941 36.15 313.028 34.0656 314.569 31.7093C318.466 25.6375 327.8 16.9375 330.428 16.9375C330.881 16.9375 327.075 21.3781 321.909 26.8156Z" fill="#F4F4FD"/>
<path d="M381.359 23.1906C381.903 24.1875 323.178 86.2656 321.638 86.2656C321.094 86.2656 320.641 85.8125 320.641 85.1781C320.641 83.9094 378.822 22.375 380 22.375C380.453 22.375 380.997 22.7375 381.359 23.1906Z" fill="#F4F4FD"/>
<path d="M386.797 29.6249C387.069 30.0781 382.719 35.3343 377.191 41.1343C362.238 56.8124 349.097 70.4968 338.403 81.5531C332.15 88.1687 328.616 91.1593 327.709 90.7968C326.169 90.2531 325.987 90.4343 353.266 61.7968C387.522 25.8187 385.528 27.6312 386.797 29.6249Z" fill="#F4F4FD"/>
<path d="M390.694 37.6907C390.241 40.4094 336.681 95.7813 335.05 95.1469C333.509 94.6032 332.603 95.5094 365.862 60.6188C378.822 47.1157 389.697 35.9688 390.15 35.9688C390.603 35.9688 390.875 36.6938 390.694 37.6907Z" fill="#F4F4FD"/>
<path d="M394.319 45.8469C394.137 46.7531 383.444 58.625 370.484 72.2187C357.525 85.8125 346.65 97.3219 346.378 97.8656C346.016 98.3187 345.019 98.5 344.203 98.1375C342.844 97.6844 343.025 97.1406 345.653 94.15C352.631 86.2656 393.141 44.125 393.866 44.125C394.319 44.125 394.5 44.85 394.319 45.8469Z" fill="#F4F4FD"/>
<path d="M394.5 57.0844C394.5 58.7156 389.697 64.3344 375.741 78.925C364.956 90.1625 356.256 98.5 355.35 98.5C354.444 98.5 353.719 98.2281 353.719 97.8656C353.719 97.5031 357.525 93.3344 362.147 88.6219C366.769 83.8187 375.922 74.3031 382.537 67.4156C392.416 57.0844 394.5 55.2719 394.5 57.0844Z" fill="#F4F4FD"/>
<path d="M389.606 74.4843C386.616 80.6468 371.209 95.4187 369.488 93.7874C369.306 93.6062 374.291 88.1687 380.544 81.6437C391.238 70.5874 391.691 70.2249 389.606 74.4843Z" fill="#F4F4FD"/>
</g>
</g>
<defs>
<clipPath id="clip0_3940_25333">
<rect width="375" height="266" fill="white"/>
</clipPath>
<clipPath id="clip1_3940_25333">
<rect width="113" height="113" fill="white" transform="translate(-21.5 126.5)"/>
</clipPath>
<clipPath id="clip2_3940_25333">
<rect width="87" height="87" fill="white" transform="matrix(-1 0 0 1 394.5 11.5)"/>
</clipPath>
</defs>
</svg>
