<svg width="361" height="372" viewBox="0 0 361 372" fill="none" xmlns="http://www.w3.org/2000/svg">
<g opacity="0.3">
<path d="M205.78 90.1531L198.786 78.0472L191.812 90.1597L184.832 102.279L198.799 102.266L212.773 102.259L205.78 90.1531Z" stroke="white" stroke-miterlimit="10"/>
<path d="M182.654 238.149L175.661 226.043L168.687 238.156L161.707 250.268L175.674 250.255L189.648 250.248L182.654 238.149Z" stroke="white" stroke-miterlimit="10"/>
<path d="M262.808 283.593L255.815 271.487L248.841 283.599L241.867 295.719L255.835 295.705L269.802 295.699L262.808 283.593Z" stroke="white" stroke-miterlimit="10"/>
<path d="M308.913 190.646L312.523 177.134L299.035 180.767L285.541 184.393L295.425 194.272L305.309 204.158L308.913 190.646Z" stroke="white" stroke-miterlimit="10"/>
<path d="M79.1747 33.797L82.7781 20.2847L69.2903 23.9177L55.7959 27.5442L65.6803 37.4235L75.5646 47.3028L79.1747 33.797Z" stroke="white" stroke-miterlimit="10"/>
<path d="M69.6031 325.716L73.2132 312.204L59.7254 315.837L46.231 319.464L56.1153 329.343L65.9997 339.229L69.6031 325.716Z" stroke="white" stroke-miterlimit="10"/>
<path d="M323.067 48.8893L335.169 41.8898L323.06 34.9102L310.958 27.9241L310.971 41.9031L310.978 55.8888L323.067 48.8893Z" stroke="white" stroke-miterlimit="10"/>
<path d="M69.2968 188.579L81.3925 181.58L69.2902 174.6L57.1812 167.614L57.1945 181.593L57.2011 195.579L69.2968 188.579Z" stroke="white" stroke-miterlimit="10"/>
<path d="M229.392 165.688C229.392 167.787 228.77 169.839 227.604 171.584C226.439 173.329 224.783 174.689 222.846 175.493C220.908 176.296 218.776 176.506 216.719 176.096C214.662 175.687 212.773 174.676 211.29 173.192C209.807 171.708 208.797 169.817 208.388 167.758C207.979 165.7 208.189 163.566 208.991 161.627C209.794 159.687 211.153 158.03 212.897 156.864C214.64 155.698 216.691 155.075 218.788 155.075C220.181 155.074 221.56 155.348 222.847 155.881C224.134 156.414 225.303 157.196 226.288 158.182C227.273 159.167 228.054 160.338 228.586 161.625C229.119 162.913 229.392 164.294 229.392 165.688Z" stroke="white" stroke-miterlimit="10"/>
<path d="M175.833 47.3027C175.835 49.4022 175.214 51.455 174.049 53.2012C172.884 54.9475 171.228 56.3088 169.291 57.1128C167.353 57.9169 165.22 58.1276 163.163 57.7184C161.105 57.3091 159.215 56.2982 157.732 54.8136C156.248 53.329 155.238 51.4374 154.829 49.3781C154.42 47.3189 154.631 45.1845 155.434 43.245C156.238 41.3056 157.598 39.6482 159.343 38.4825C161.088 37.3169 163.139 36.6955 165.236 36.6968C168.047 36.6968 170.742 37.8142 172.73 39.8032C174.717 41.7922 175.833 44.4898 175.833 47.3027Z" stroke="white" stroke-miterlimit="10"/>
<path d="M182.621 360.387C182.621 362.486 181.999 364.538 180.833 366.283C179.668 368.029 178.012 369.389 176.075 370.192C174.137 370.995 172.005 371.206 169.948 370.796C167.891 370.387 166.002 369.376 164.519 367.892C163.036 366.407 162.026 364.516 161.617 362.458C161.208 360.399 161.418 358.265 162.22 356.326C163.023 354.387 164.382 352.729 166.126 351.563C167.869 350.397 169.92 349.775 172.017 349.775C173.41 349.774 174.789 350.048 176.076 350.581C177.363 351.114 178.532 351.896 179.517 352.881C180.502 353.867 181.283 355.037 181.815 356.325C182.348 357.613 182.621 358.993 182.621 360.387Z" stroke="white" stroke-miterlimit="10"/>
<path d="M210.948 344.529C211.018 341.761 212.165 339.13 214.145 337.197C216.126 335.264 218.782 334.182 221.549 334.182C224.315 334.182 226.972 335.264 228.952 337.197C230.932 339.13 232.08 341.761 232.149 344.529" stroke="white" stroke-miterlimit="10"/>
<path d="M126.352 181.6C126.352 178.787 127.468 176.089 129.455 174.1C131.443 172.111 134.138 170.994 136.949 170.994C139.759 170.994 142.455 172.111 144.442 174.1C146.429 176.089 147.546 178.787 147.546 181.6" stroke="white" stroke-miterlimit="10"/>
<path d="M14.8394 95.466C14.8394 92.6655 15.9509 89.9797 17.9295 87.9995C19.9081 86.0192 22.5916 84.9067 25.3898 84.9067C28.1879 84.9067 30.8715 86.0192 32.8501 87.9995C34.8287 89.9797 35.9402 92.6655 35.9402 95.466" stroke="white" stroke-miterlimit="10"/>
<path d="M282.01 112.838C279.212 112.838 276.529 111.726 274.55 109.745C272.572 107.765 271.46 105.079 271.46 102.279C271.46 99.4784 272.572 96.7926 274.55 94.8123C276.529 92.8321 279.212 91.7196 282.01 91.7196" stroke="white" stroke-miterlimit="10"/>
<path d="M26.7623 360.334C23.9642 360.334 21.2807 359.222 19.3021 357.241C17.3235 355.261 16.2119 352.575 16.2119 349.775C16.2119 346.974 17.3235 344.289 19.3021 342.308C21.2807 340.328 23.9642 339.216 26.7623 339.216" stroke="white" stroke-miterlimit="10"/>
<path d="M140.526 22.9645C139.14 22.9645 137.768 22.6913 136.488 22.1607C135.208 21.63 134.045 20.8522 133.065 19.8717C132.086 18.8912 131.308 17.7272 130.778 16.4461C130.248 15.1649 129.975 13.7919 129.975 12.4052C129.975 11.0185 130.248 9.64546 130.778 8.36435C131.308 7.08324 132.086 5.9192 133.065 4.93868C134.045 3.95816 135.208 3.18037 136.488 2.64972C137.768 2.11907 139.14 1.84595 140.526 1.84595" stroke="white" stroke-miterlimit="10"/>
<path d="M32.0907 248.762C32.092 250.861 31.4713 252.914 30.3069 254.66C29.1426 256.406 27.487 257.767 25.5495 258.571C23.612 259.376 21.4798 259.587 19.4224 259.178C17.3651 258.769 15.475 257.759 13.9914 256.275C12.5078 254.791 11.4972 252.9 11.0875 250.841C10.6779 248.783 10.8875 246.648 11.6898 244.709C12.4922 242.769 13.8513 241.111 15.5952 239.945C17.3391 238.779 19.3895 238.156 21.487 238.156C22.8792 238.155 24.2579 238.429 25.5444 238.961C26.8308 239.494 27.9998 240.275 28.9846 241.26C29.9693 242.245 30.7505 243.414 31.2834 244.702C31.8164 245.989 32.0907 247.369 32.0907 248.762Z" stroke="white" stroke-miterlimit="10"/>
<path d="M358.941 260.874C358.942 262.974 358.321 265.027 357.157 266.773C355.992 268.519 354.336 269.88 352.398 270.684C350.46 271.489 348.328 271.699 346.27 271.29C344.213 270.881 342.323 269.87 340.839 268.385C339.356 266.901 338.346 265.009 337.937 262.95C337.528 260.891 337.738 258.756 338.542 256.817C339.345 254.877 340.705 253.22 342.45 252.054C344.195 250.889 346.246 250.267 348.344 250.268C351.154 250.27 353.848 251.388 355.835 253.377C357.822 255.365 358.939 258.062 358.941 260.874Z" stroke="white" stroke-miterlimit="10"/>
<path d="M350.701 91.7263H329.621V112.825H350.701V91.7263Z" stroke="white" stroke-miterlimit="10"/>
<path d="M112.325 102.279H91.2437V123.377H112.325V102.279Z" stroke="white" stroke-miterlimit="10"/>
<path d="M111.265 236.996H90.1846V258.095H111.265V236.996Z" stroke="white" stroke-miterlimit="10"/>
<path d="M350.701 339.229H329.621V360.327H350.701V339.229Z" stroke="white" stroke-miterlimit="10"/>
<path d="M263.241 1.85266H242.16V22.9512H263.241V1.85266Z" stroke="white" stroke-miterlimit="10"/>
<path d="M211.868 216.411C207.265 216.411 208.058 208.238 202.183 208.238" stroke="white" stroke-miterlimit="10"/>
<path d="M231.243 216.411C226.641 216.411 227.433 208.238 221.559 208.238" stroke="white" stroke-miterlimit="10"/>
<path d="M211.868 216.411C216.47 216.411 215.678 208.238 221.546 208.238" stroke="white" stroke-miterlimit="10"/>
<path d="M231.243 216.411C235.846 216.411 235.053 208.238 240.921 208.238" stroke="white" stroke-miterlimit="10"/>
<path d="M267.031 368.553C262.422 368.553 263.221 360.387 257.346 360.387" stroke="white" stroke-miterlimit="10"/>
<path d="M286.394 368.553C281.791 368.553 282.584 360.387 276.709 360.387" stroke="white" stroke-miterlimit="10"/>
<path d="M267.031 368.553C271.633 368.553 270.834 360.387 276.709 360.387" stroke="white" stroke-miterlimit="10"/>
<path d="M286.393 368.553C290.996 368.553 290.203 360.387 296.071 360.387" stroke="white" stroke-miterlimit="10"/>
<path d="M293.434 149.209C288.831 149.209 289.624 141.043 283.749 141.043" stroke="white" stroke-miterlimit="10"/>
<path d="M312.796 149.209C308.193 149.209 308.986 141.043 303.111 141.043" stroke="white" stroke-miterlimit="10"/>
<path d="M293.434 149.209C298.036 149.209 297.243 141.043 303.112 141.043" stroke="white" stroke-miterlimit="10"/>
<path d="M312.796 149.209C317.398 149.209 316.606 141.043 322.48 141.043" stroke="white" stroke-miterlimit="10"/>
<path d="M24.1577 139.336C19.5552 139.336 20.3478 131.17 14.4731 131.17" stroke="white" stroke-miterlimit="10"/>
<path d="M43.52 139.336C38.9175 139.336 39.7101 131.17 33.8354 131.17" stroke="white" stroke-miterlimit="10"/>
<path d="M24.1577 139.336C28.7602 139.336 27.9676 131.17 33.8356 131.17" stroke="white" stroke-miterlimit="10"/>
<path d="M43.52 139.336C48.1225 139.336 47.3299 131.17 53.1979 131.17" stroke="white" stroke-miterlimit="10"/>
<path d="M213.466 29.9706C213.466 34.5769 205.307 33.7836 205.307 39.6566" stroke="white" stroke-miterlimit="10"/>
<path d="M213.466 10.5986C213.466 15.205 205.307 14.405 205.307 20.2846" stroke="white" stroke-miterlimit="10"/>
<path d="M213.466 29.9706C213.466 25.3643 205.307 26.1575 205.307 20.278" stroke="white" stroke-miterlimit="10"/>
<path d="M213.466 10.5987C213.466 5.99231 205.307 6.78559 205.307 0.906006" stroke="white" stroke-miterlimit="10"/>
<path d="M154.093 131.35C154.093 135.956 145.934 135.163 145.934 141.043" stroke="white" stroke-miterlimit="10"/>
<path d="M154.093 111.965C154.093 116.571 145.934 115.778 145.934 121.651" stroke="white" stroke-miterlimit="10"/>
<path d="M154.093 131.35C154.093 126.744 145.934 127.537 145.934 121.657" stroke="white" stroke-miterlimit="10"/>
<path d="M154.093 111.965C154.093 107.359 145.934 108.152 145.934 102.272" stroke="white" stroke-miterlimit="10"/>
<path d="M315.04 293.285C315.04 297.892 306.875 297.098 306.875 302.971" stroke="white" stroke-miterlimit="10"/>
<path d="M315.04 273.913C315.04 278.52 306.875 277.72 306.875 283.599" stroke="white" stroke-miterlimit="10"/>
<path d="M315.04 293.285C315.04 288.679 306.875 289.472 306.875 283.593" stroke="white" stroke-miterlimit="10"/>
<path d="M315.04 273.913C315.04 269.307 306.875 270.1 306.875 264.221" stroke="white" stroke-miterlimit="10"/>
<path d="M115.348 308.564C115.348 313.171 107.189 312.377 107.189 318.25" stroke="white" stroke-miterlimit="10"/>
<path d="M115.348 289.186C115.348 293.792 107.189 292.992 107.189 298.872" stroke="white" stroke-miterlimit="10"/>
<path d="M115.348 308.564C115.348 303.958 107.189 304.751 107.189 298.872" stroke="white" stroke-miterlimit="10"/>
<path d="M115.348 289.186C115.348 284.579 107.189 285.373 107.189 279.493" stroke="white" stroke-miterlimit="10"/>
<path d="M235.066 238.156H258.958" stroke="white" stroke-miterlimit="10"/>
<path d="M0.192871 169.061H24.0845" stroke="white" stroke-miterlimit="10"/>
<path d="M236.852 57.9153H260.743" stroke="white" stroke-miterlimit="10"/>
<path d="M331.026 3.95251H354.918" stroke="white" stroke-miterlimit="10"/>
<path d="M95.4399 360.334H119.332" stroke="white" stroke-miterlimit="10"/>
<path d="M156.791 314.144L173.682 297.232" stroke="white" stroke-miterlimit="10"/>
<path d="M16.9443 20.858L33.8357 3.95251" stroke="white" stroke-miterlimit="10"/>
<path d="M342.969 194.186L359.867 177.28" stroke="white" stroke-miterlimit="10"/>
</g>
</svg>
