<svg width="40" height="40" viewBox="0 0 40 40" fill="none" xmlns="http://www.w3.org/2000/svg">
<path opacity="0.4" d="M33.2834 16.6667V30C33.2834 35 31.6167 36.6667 26.6167 36.6667H13.2834C8.28337 36.6667 6.6167 35 6.6167 30V16.6667H33.2834Z" fill="#0F53D9"/>
<path d="M35.8334 11.6667V13.3333C35.8334 15.1667 34.9501 16.6667 32.5001 16.6667H7.50008C4.95008 16.6667 4.16675 15.1667 4.16675 13.3333V11.6667C4.16675 9.83334 4.95008 8.33334 7.50008 8.33334H32.5001C34.9501 8.33334 35.8334 9.83334 35.8334 11.6667Z" fill="#0F53D9"/>
<path opacity="0.4" d="M19.4 8.33333H10.2C9.6333 7.71666 9.64997 6.76666 10.25 6.16666L12.6166 3.79999C13.2333 3.18333 14.25 3.18333 14.8666 3.79999L19.4 8.33333Z" fill="#0F53D9"/>
<path opacity="0.4" d="M29.7834 8.33333H20.5834L25.1167 3.79999C25.7334 3.18333 26.75 3.18333 27.3667 3.79999L29.7334 6.16666C30.3334 6.76666 30.35 7.71666 29.7834 8.33333Z" fill="#0F53D9"/>
<path opacity="0.6" d="M14.9 16.6667V25.2333C14.9 26.5667 16.3667 27.35 17.4834 26.6333L19.05 25.6C19.6167 25.2333 20.3334 25.2333 20.8834 25.6L22.3667 26.6C23.4667 27.3333 24.95 26.55 24.95 25.2167V16.6667H14.9Z" fill="#0F53D9"/>
</svg>
