<svg width="200" height="71" viewBox="0 0 200 71" fill="none" xmlns="http://www.w3.org/2000/svg">
<path d="M165.59 49.8056L170.202 58.1171C170.771 59.1412 172.024 59.5695 173.099 59.1057C175.271 58.1679 177.283 56.9339 179.089 55.4544C180.134 54.5979 180.217 53.0287 179.262 52.0723L175.067 47.8776C168.444 41.2555 157.706 41.2555 151.084 47.8776L146.89 52.0723C145.935 53.027 146.016 54.5979 147.062 55.4544C148.869 56.9339 150.881 58.1679 153.053 59.1057C154.128 59.5712 155.382 59.1412 155.949 58.1171L160.562 49.8056C161.657 47.8336 164.494 47.8336 165.59 49.8056Z" fill="#0E53D9"/>
<path d="M165.59 21.9682L170.202 13.6567C170.771 12.6326 172.024 12.2043 173.099 12.6681C175.271 13.6059 177.283 14.8399 179.089 16.3194C180.134 17.176 180.217 18.7451 179.262 19.7016L175.067 23.8962C168.444 30.5183 157.706 30.5183 151.084 23.8962L146.89 19.7016C145.935 18.7468 146.016 17.176 147.062 16.3194C148.869 14.8399 150.881 13.6059 153.053 12.6681C154.128 12.2026 155.382 12.6326 155.949 13.6567L160.562 21.9682C161.657 23.9419 164.494 23.9419 165.59 21.9682Z" fill="#0E53D9"/>
<path d="M185.571 30.3931L170.589 32.2805C165.602 32.9085 160.554 32.9085 155.567 32.2805L140.584 30.3931C139.352 30.2374 138.216 31.0973 138.042 32.3279C137.878 33.4908 137.793 34.6792 137.793 35.8861C137.793 37.0947 137.878 38.2831 138.042 39.446C138.214 40.6766 139.35 41.5365 140.584 41.3808L155.567 39.4951C160.554 38.8671 165.602 38.8671 170.589 39.4951L185.571 41.3825C186.804 41.5382 187.939 40.6783 188.114 39.4477C188.278 38.2848 188.363 37.0964 188.363 35.8878C188.363 34.6809 188.278 33.4925 188.114 32.3296C187.939 31.0973 186.805 30.2374 185.571 30.3931Z" fill="#0E53D9"/>
<path d="M98.5211 32.9795L96.3138 33.4281C96.1191 33.467 95.987 33.6498 96.0091 33.8479L96.9062 41.6211C96.9435 41.9444 96.7573 42.2525 96.4526 42.3676C95.9854 42.5453 95.4606 42.679 94.88 42.7688C94.0759 42.8923 93.15 42.9533 92.0988 42.9533C91.1559 42.9533 90.3366 42.8365 89.6409 42.6062C88.9451 42.3743 88.5981 41.9562 88.5981 41.3536C88.5981 40.6071 88.8808 38.5318 89.4428 35.1259C89.475 34.9313 89.3463 34.7417 89.1534 34.7027L87.2558 34.3337C87.0526 34.2948 86.8563 34.4319 86.8241 34.6367L86.3028 37.9935C85.9473 40.0485 85.7695 41.3621 85.7695 41.9342C85.7695 43.5576 86.2401 44.7781 87.183 45.5974C88.1259 46.415 89.9337 46.8246 92.0971 46.8246C93.1009 46.8246 94.1859 46.6926 95.354 46.4302C96.5203 46.1678 97.5207 45.7429 98.3552 45.1556C99.1898 44.5682 99.64 43.693 99.6367 42.4573C99.6316 40.3329 99.398 37.5601 98.9765 33.3197C98.9562 33.0946 98.7429 32.9355 98.5211 32.9795Z" fill="#414659"/>
<path d="M105.334 40.8221L105.291 26.955C105.289 26.5843 104.963 26.2982 104.595 26.349L102.075 26.6909C101.762 26.7333 101.532 27.0058 101.543 27.3223L102.055 41.0523C102.068 41.4061 102.376 41.6753 102.728 41.6397L104.78 41.4349C105.097 41.4027 105.335 41.137 105.334 40.8221Z" fill="#414659"/>
<path d="M120.384 31.6118L118.814 31.8826C118.455 31.9453 118.206 32.2753 118.247 32.6376L118.731 36.9524C118.267 37.1691 117.718 37.3164 117.085 37.3926C116.452 37.4704 115.672 37.5094 114.744 37.5094H113.979C113.16 37.5094 112.557 37.4044 112.171 37.1962C111.785 36.988 111.56 36.6054 111.499 36.0485L111.235 33.7142C111.189 33.3113 110.809 33.0354 110.412 33.1166L108.723 33.462C108.368 33.5348 108.129 33.8716 108.178 34.2305L109.026 40.3955C109.05 40.5682 109.024 40.7459 108.941 40.8983C108.518 41.6769 107.87 42.4218 107 43.1293C106.16 43.8132 104.889 44.553 103.184 45.3486C102.795 45.5297 102.66 46.0155 102.903 46.3676L104.136 48.1467C104.33 48.426 104.706 48.5242 105.011 48.3735C107.25 47.2614 108.884 46.0883 109.908 44.856C110.91 43.649 111.486 42.2948 111.641 40.7967C112.283 41.1031 113.104 41.379 113.976 41.379H114.741C117.106 41.379 118.836 41.0083 119.933 40.2669C120.427 39.9266 120.791 39.4984 121.023 38.9804C121.255 38.4624 121.37 37.9105 121.37 37.3232C121.37 35.9757 121.309 34.2863 121.187 32.2533C121.165 31.8437 120.789 31.5424 120.384 31.6118Z" fill="#414659"/>
<path d="M126.725 26.955C126.723 26.5843 126.396 26.2982 126.029 26.349L123.509 26.6909C123.195 26.7333 122.965 27.0058 122.977 27.3223L123.488 41.0523C123.502 41.4061 123.81 41.6753 124.162 41.6397L126.214 41.4349C126.528 41.4027 126.767 41.1387 126.767 40.8221L126.725 26.955Z" fill="#414659"/>
<path d="M81.3806 26.349L78.8601 26.6909C78.5469 26.7333 78.3167 27.0058 78.3286 27.3223L78.8398 41.0523C78.8533 41.4061 79.1614 41.6753 79.5135 41.6397L81.5651 41.4349C81.88 41.4027 82.1187 41.1387 82.1187 40.8221L82.0763 26.955C82.0746 26.5843 81.7479 26.2982 81.3806 26.349Z" fill="#414659"/>
<path d="M120.333 44.6393C120.272 44.316 119.989 44.0807 119.659 44.0807H113.201C112.822 44.0807 112.516 44.3871 112.516 44.7663V46.8822C112.516 47.2614 112.822 47.5678 113.201 47.5678H120.059C120.489 47.5678 120.812 47.1768 120.732 46.7553L120.333 44.6393Z" fill="#414659"/>
<path d="M42.4531 44.0417H36.6215C36.2559 44.0417 35.9817 44.3735 36.0494 44.7324L36.3896 46.5318C36.4421 46.8077 36.6825 47.0058 36.9618 47.0058H40.1509V48.1941C40.1509 48.5157 40.4116 48.7764 40.7333 48.7764H42.4531C42.7747 48.7764 43.0354 48.5157 43.0354 48.1941V46.4743C43.0354 46.4658 43.0337 46.4573 43.032 46.4489C43.032 46.4404 43.0354 46.4319 43.0354 46.4235V44.6241C43.0371 44.3024 42.7747 44.0417 42.4531 44.0417Z" fill="#414659"/>
<path d="M90.7832 32.7104H92.8061C93.1853 32.7104 93.4916 32.404 93.4916 32.0248V30.002C93.4916 29.6228 93.1853 29.3164 92.8061 29.3164H90.7832C90.404 29.3164 90.0977 29.6228 90.0977 30.002V32.0248C90.0977 32.4023 90.4057 32.7104 90.7832 32.7104Z" fill="#414659"/>
<path d="M27.0606 30.977H29.0834C29.4626 30.977 29.769 30.6706 29.769 30.2914V28.2686C29.769 27.8894 29.4626 27.583 29.0834 27.583H27.0606C26.6814 27.583 26.375 27.8894 26.375 28.2686V30.2914C26.375 30.6706 26.6814 30.977 27.0606 30.977Z" fill="#414659"/>
<path d="M18.1973 42.0155C17.8181 42.0155 17.5117 42.3219 17.5117 42.7011V44.7239C17.5117 45.1031 17.8181 45.4095 18.1973 45.4095H20.2201C20.5993 45.4095 20.9057 45.1031 20.9057 44.7239V42.7011C20.9057 42.3219 20.5993 42.0155 20.2201 42.0155H18.1973Z" fill="#414659"/>
<path d="M76.035 26.4641C74.6774 26.8636 73.4146 27.275 72.2432 27.6982C71.1074 28.1095 69.9733 28.5716 68.8425 29.0845C68.5649 29.2115 68.3804 29.4857 68.3702 29.7921L68.2991 31.71C68.2873 32.0215 68.4379 32.3143 68.6918 32.4954C70.3186 33.6482 73.22 36.4007 73.6652 37.5805C73.7058 37.6905 73.6465 37.7955 73.5314 37.8175C72.2399 38.0545 70.3812 38.1747 67.9521 38.1747H67.4273C66.8738 38.1747 66.4557 38.1239 66.1713 38.0223C65.8869 37.9208 65.6906 37.7718 65.5822 37.5737C65.4722 37.3774 65.4045 37.1031 65.374 36.7544L65.0778 32.6359C65.0609 32.4108 64.8476 32.2534 64.6275 32.3059L62.1493 32.9C61.9699 32.9423 61.8514 33.1116 61.8717 33.2944L62.3304 37.5974C62.349 37.7769 62.2356 37.9411 62.0613 37.9902C61.6398 38.112 61.1201 38.1713 60.5039 38.1713C60.1908 38.1713 59.9216 38.1425 59.6999 38.0866C59.5408 38.046 59.4307 37.9021 59.429 37.7379L59.3596 34.0172C59.3562 33.8175 59.1937 33.6584 58.994 33.6584H56.7612C56.553 33.6584 56.3871 33.831 56.3956 34.0392L56.5429 37.6279C56.5496 37.7938 56.4464 37.9478 56.2873 37.9935C55.8624 38.112 55.3986 38.1713 54.8941 38.1713C54.5149 38.1713 54.2356 38.0833 54.0528 37.9089C53.87 37.7346 53.787 37.4434 53.8023 37.0354L53.8226 34.0257C53.8243 33.8226 53.6601 33.6584 53.457 33.6584H51.2208C51.0194 33.6584 50.8552 33.8226 50.8552 34.024V36.123C50.8552 36.7511 50.4523 37.3063 49.8548 37.5026C48.7138 37.8784 47.0803 38.0342 45.3012 37.0134C45.1235 36.9119 45.1201 36.6529 45.2961 36.5496C45.5145 36.421 45.7193 36.3059 45.9039 36.2111C46.0274 36.1484 46.107 36.0232 46.107 35.8844L46.1121 33.831C46.1121 33.5331 45.8852 33.286 45.589 33.2555C45.5264 33.2487 45.4705 33.2436 45.4299 33.2369C42.6707 32.8594 39.3884 30.8467 36.3905 30.6114C36.0012 30.5809 35.6525 30.8569 35.5898 31.2428L35.3156 32.9373C35.2428 33.3875 35.5865 33.7938 36.0418 33.8073C39.0346 33.8869 40.1264 34.388 42.2102 35.0803C42.3778 35.1362 42.4049 35.363 42.2526 35.4544C41.7617 35.7456 40.9694 36.2026 40.5124 36.4091C40.4887 36.4193 40.4616 36.4311 40.4396 36.4413C40.3414 36.487 40.2449 36.5361 40.1485 36.5784C39.4934 36.9136 38.9551 37.1539 38.5319 37.2995C36.9728 37.8818 36.1637 38.173 34.0393 38.173H33.8074C32.7714 38.173 32.5259 38.0714 32.0469 37.87C31.9165 37.8158 31.8285 37.6905 31.8217 37.5483L31.6525 33.8226C31.6423 33.611 31.4578 33.4519 31.2479 33.4756L29.2301 33.6973C29.027 33.7193 28.8831 33.9038 28.9068 34.1053L29.3097 37.3825C29.33 37.5483 29.2352 37.7075 29.0795 37.7684C28.4091 38.0359 27.6457 38.3693 26.3931 38.3693H24.7443C24.1027 38.3693 23.6271 38.2932 23.3139 38.1391C23.0295 38.0003 22.7858 37.7447 22.5793 37.3841H22.5742L22.4269 37.115C22.3033 36.8899 22.3863 36.6072 22.6114 36.4819L23.1006 36.2111C23.2242 36.1434 23.3004 36.013 23.3004 35.8708L23.3055 33.8327C23.3055 33.5382 23.0837 33.286 22.7892 33.2589C22.7248 33.2521 22.6656 33.2453 22.6233 33.2386C19.8641 32.8611 16.5818 30.8484 13.5839 30.6131C13.1946 30.5826 12.8459 30.8585 12.7832 31.2445L12.5107 32.9373C12.4379 33.3875 12.7815 33.7955 13.2369 33.8073C16.1518 33.8818 17.2437 34.3423 19.253 35.0278C19.4375 35.0905 19.4476 35.3494 19.2665 35.4205C18.019 35.9131 16.487 36.6139 15.4595 37.2944C13.5297 38.5759 12.1755 40.5716 11.7523 42.8501C11.6474 43.4104 11.6406 43.7439 11.6406 44.1129C11.6406 44.1434 11.6406 44.1738 11.6406 44.2043C11.6406 44.2805 11.6491 44.3566 11.6525 44.4328C11.7134 46.5031 12.3567 48.1213 13.5958 49.2775C14.5945 50.2102 15.8861 50.7824 17.4637 50.999C17.6855 51.0346 18.3677 51.06 18.5979 51.0752C18.8399 51.0905 19.0888 51.0989 19.3444 51.1006C19.3749 51.1006 19.407 51.1006 19.4375 51.1006C21.027 51.1006 22.366 50.9483 23.6576 50.6402C24.035 50.5505 24.3228 50.2424 24.3837 49.8581L24.7105 47.7743C24.7799 47.3376 24.3837 46.9686 23.9521 47.0668C22.5234 47.3901 21.1946 47.6609 19.6271 47.6609C17.9817 47.6609 14.6097 47.2157 14.6097 43.8928C14.6097 41.7193 16.1755 40.0282 16.8662 39.6423C18.1171 38.9449 18.4134 38.6656 19.9656 38.1053C20.3143 39.1243 20.6647 39.8996 21.0135 40.4311C21.3622 40.9627 21.8581 41.3588 22.498 41.6211C23.1396 41.8835 24.0266 42.0139 25.1624 42.0139H26.3931C27.7185 42.0139 28.5124 41.6939 29.1675 41.4451C29.655 41.2606 30.041 40.9762 30.327 40.5919C30.4506 40.426 30.6876 40.443 30.7942 40.619C31.0126 40.9796 31.3376 41.2521 31.7676 41.4349C32.3651 41.6888 32.878 41.8175 33.8074 41.8175H33.9953C36.5429 41.8175 37.826 41.264 39.9081 40.1586L40.5412 39.8099C40.5412 39.8099 41.1929 39.3664 41.9022 38.8179C42.5099 39.8437 44.0029 41.5585 47.2276 41.5585C49.1116 41.5585 50.366 41.1641 51.2005 40.6427C51.341 40.5547 51.5204 40.5902 51.6389 40.707C52.4379 41.4756 53.7058 41.8192 54.7452 41.8192C56.6241 41.8192 57.4468 41.1827 57.8378 40.7426C57.9733 40.5902 58.217 40.5919 58.349 40.7477C58.6436 41.0896 59.0735 41.3605 59.4578 41.5145C59.9673 41.7193 60.8865 41.8209 61.6161 41.8209C62.2136 41.8209 62.7773 41.7007 63.3088 41.4603C63.6914 41.2877 64.0232 41.0524 64.3042 40.7527C64.4616 40.5852 64.7206 40.6021 64.8662 40.7815C65.0879 41.0558 65.3774 41.2792 65.7329 41.4485C66.2492 41.6973 66.8146 41.8209 67.4256 41.8209H67.9504C69.9022 41.8209 71.4747 41.7109 72.6681 41.4942C73.8615 41.2758 74.7536 40.9085 75.3444 40.3905C75.9352 39.8742 76.2297 39.17 76.2297 38.283C76.2297 35.4205 74.432 33.0828 72.2331 31.4358C72.1755 31.3918 71.9859 31.2462 71.666 30.999C73.2301 30.3812 74.8501 29.8547 76.531 29.418C76.7088 29.3723 76.8256 29.2013 76.8019 29.0202L76.5056 26.7705C76.4752 26.5437 76.25 26.3998 76.035 26.4641Z" fill="#414659"/>
</svg>
