<svg width="25" height="22" viewBox="0 0 25 22" fill="none" xmlns="http://www.w3.org/2000/svg">
<path d="M13.575 16.9468L15.5482 20.4975C15.7918 20.9349 16.3272 21.1181 16.7867 20.9201C17.7156 20.5191 18.5765 19.9921 19.3486 19.3596C19.7953 18.9941 19.8308 18.3231 19.4226 17.9153L17.6289 16.1232C14.7968 13.2937 10.2045 13.2937 7.37246 16.1232L5.57874 17.9153C5.1705 18.3231 5.20501 18.9941 5.6527 19.3596C6.42481 19.9911 7.28568 20.5191 8.21458 20.9201C8.6741 21.1191 9.21054 20.9359 9.45312 20.4975L11.4263 16.9468C11.8937 16.1035 13.1066 16.1035 13.575 16.9468Z" stroke="#45464F" stroke-width="1.5"/>
<path d="M13.575 5.05339L15.5482 1.50275C15.7918 1.06533 16.3272 0.882083 16.7867 1.08011C17.7156 1.48108 18.5765 2.00816 19.3486 2.64065C19.7953 3.00616 19.8308 3.67707 19.4226 4.08494L17.6289 5.87701C14.7968 8.70648 10.2045 8.70648 7.37246 5.87701L5.57874 4.08494C5.1705 3.67707 5.20501 3.00616 5.6527 2.64065C6.42481 2.00914 7.28568 1.48108 8.21458 1.08011C8.6741 0.881098 9.21054 1.06434 9.45312 1.50275L11.4263 5.05339C11.8937 5.89573 13.1066 5.89573 13.575 5.05339Z" stroke="#45464F" stroke-width="1.5"/>
<path d="M22.1195 8.65232L15.7118 9.45821C13.5789 9.72618 11.4213 9.72618 9.28835 9.45821L2.88068 8.65232C2.35312 8.58631 1.86796 8.95379 1.794 9.4789C1.72399 9.97543 1.6875 10.4838 1.6875 10.999C1.6875 11.5153 1.72399 12.0236 1.794 12.5202C1.86796 13.0463 2.35411 13.4138 2.88068 13.3468L9.28835 12.5409C11.4213 12.2729 13.5789 12.2729 15.7118 12.5409L22.1195 13.3468C22.647 13.4128 23.1322 13.0453 23.2061 12.5202C23.2762 12.0236 23.3126 11.5153 23.3126 10.999C23.3126 10.4828 23.2762 9.97543 23.2061 9.4789C23.1322 8.95379 22.647 8.58631 22.1195 8.65232Z" stroke="#45464F" stroke-width="1.5"/>
</svg>
