<svg width="60" height="60" viewBox="0 0 60 60" fill="none" xmlns="http://www.w3.org/2000/svg">
<path opacity="0.4" d="M55 15.625V28.3749C55 31.5499 53.95 34.225 52.075 36.075C50.225 37.95 47.55 38.9999 44.375 38.9999V43.5249C44.375 45.2249 42.475 46.25 41.075 45.3L38.65 43.6999C38.875 42.9249 38.975 42.0749 38.975 41.1749V31.0001C38.975 25.9001 35.575 22.5 30.475 22.5H13.5C13.15 22.5 12.825 22.525 12.5 22.55V15.625C12.5 9.25 16.75 5 23.125 5H44.375C50.75 5 55 9.25 55 15.625Z" fill="#0E53D9"/>
<path d="M38.975 31.0001V41.1749C38.975 42.0749 38.875 42.925 38.65 43.7C37.725 47.375 34.675 49.675 30.475 49.675H23.675L16.125 54.7C15 55.475 13.5 54.65 13.5 53.3V49.675C10.95 49.675 8.82501 48.825 7.35001 47.35C5.85001 45.85 5 43.7249 5 41.1749V31.0001C5 26.2501 7.95 22.975 12.5 22.55C12.825 22.525 13.15 22.5 13.5 22.5H30.475C35.575 22.5 38.975 25.9001 38.975 31.0001Z" fill="#0E53D9"/>
</svg>
