<svg width="60" height="60" viewBox="0 0 60 60" fill="none" xmlns="http://www.w3.org/2000/svg">
<path opacity="0.4" d="M46.1749 42.075L47.1499 49.975C47.3999 52.05 45.1749 53.4999 43.3999 52.4249L32.9249 46.2C31.7749 46.2 30.6499 46.125 29.5499 45.975C31.3999 43.8 32.4999 41.0499 32.4999 38.075C32.4999 30.975 26.3499 25.2251 18.7499 25.2251C15.8499 25.2251 13.1749 26.05 10.9499 27.5C10.8749 26.875 10.8499 26.25 10.8499 25.6C10.8499 14.225 20.7249 5 32.9249 5C45.1249 5 54.9999 14.225 54.9999 25.6C54.9999 32.35 51.5249 38.325 46.1749 42.075Z" fill="#0E53D9"/>
<path d="M32.5 38.0749C32.5 41.0499 31.4 43.7999 29.55 45.9749C27.075 48.9749 23.15 50.8999 18.75 50.8999L12.225 54.7748C11.125 55.4498 9.72499 54.5249 9.87499 53.2499L10.5 48.325C7.14999 46 5 42.2749 5 38.0749C5 33.6749 7.35001 29.7999 10.95 27.4999C13.175 26.0499 15.85 25.225 18.75 25.225C26.35 25.225 32.5 30.9749 32.5 38.0749Z" fill="#0E53D9"/>
</svg>
