<svg width="24" height="24" viewBox="0 0 24 24" fill="none" xmlns="http://www.w3.org/2000/svg">
<path d="M2.02999 14.63C2.02999 14.66 2.00999 14.7 2.00999 14.73C2.92999 16.57 4.42999 18.08 6.26999 18.99C6.29999 18.99 6.33999 18.97 6.36999 18.97C6.02999 17.81 5.76999 16.62 5.57999 15.43C4.37999 15.23 3.18999 14.97 2.02999 14.63Z" fill="#0E53D9"/>
<path d="M19.07 6.43C18.13 4.46 16.54 2.87 14.58 1.94C14.94 3.13 15.24 4.35 15.44 5.57C16.66 5.77 17.88 6.06 19.07 6.43Z" fill="#0E53D9"/>
<path d="M1.92999 6.43002C3.12999 6.07002 4.34999 5.77002 5.56999 5.57002C5.76999 4.38002 6.01999 3.20002 6.35999 2.04002C6.32999 2.04002 6.28999 2.02002 6.25999 2.02002C4.37999 2.95002 2.84999 4.52002 1.92999 6.43002Z" fill="#0E53D9"/>
<path d="M13.82 5.36C13.58 4.06 13.28 2.76 12.85 1.5C12.83 1.43 12.83 1.37 12.82 1.29C12.08 1.11 11.3 1 10.5 1C9.68999 1 8.91999 1.11 8.16999 1.3C8.15999 1.37 8.16999 1.43 8.14999 1.51C7.72999 2.77 7.41999 4.06 7.17999 5.36C9.38999 5.12 11.61 5.12 13.82 5.36Z" fill="#0E53D9"/>
<path d="M5.36 7.17999C4.05 7.41999 2.77 7.72999 1.5 8.14999C1.43 8.16999 1.37 8.16999 1.3 8.17999C1.11 8.91999 1 9.69999 1 10.5C1 11.31 1.11 12.08 1.3 12.83C1.37 12.84 1.43 12.83 1.51 12.85C2.77 13.27 4.06 13.58 5.37 13.82C5.12 11.61 5.12 9.38999 5.36 7.17999Z" fill="#0E53D9"/>
<path d="M19.7 8.17999C19.63 8.17999 19.57 8.16999 19.49 8.14999C18.23 7.72999 16.93 7.41999 15.63 7.17999C15.88 9.38999 15.88 11.61 15.63 13.81C16.93 13.57 18.23 13.27 19.49 12.84C19.56 12.82 19.62 12.83 19.7 12.82C19.88 12.07 20 11.3 20 10.49C20 9.69999 19.89 8.92999 19.7 8.17999Z" fill="#0E53D9"/>
<path d="M7.17999 15.64C7.41999 16.95 7.71999 18.24 8.14999 19.5C8.16999 19.57 8.15999 19.63 8.16999 19.71C8.91999 19.89 9.68999 20 10.5 20C11.3 20 12.08 19.89 12.82 19.7C12.83 19.63 12.83 19.57 12.85 19.49C13.27 18.23 13.58 16.94 13.82 15.63C12.72 15.75 11.61 15.84 10.5 15.84C9.38999 15.84 8.27999 15.76 7.17999 15.64Z" fill="#0E53D9"/>
<path d="M6.95001 6.94998C6.65001 9.30998 6.65001 11.69 6.95001 14.06C9.31001 14.36 11.69 14.36 14.06 14.06C14.36 11.7 14.36 9.31998 14.06 6.94998C11.69 6.64998 9.31001 6.64998 6.95001 6.94998Z" fill="#0E53D9"/>
<path d="M18.4531 18.6719L17.875 19.25C17.7531 19.3719 17.5594 19.3719 17.4344 19.2531C17.4 19.2188 17.3656 19.1875 17.3313 19.1531C17.0094 18.8281 16.7188 18.4875 16.4594 18.1313C16.2031 17.775 15.9969 17.4188 15.8469 17.0656C15.7 16.7094 15.625 16.3688 15.625 16.0438C15.625 15.8313 15.6625 15.6281 15.7375 15.4406C15.8125 15.25 15.9313 15.075 16.0969 14.9188C16.2969 14.7219 16.5156 14.625 16.7469 14.625C16.8344 14.625 16.9219 14.6438 17 14.6813C17.0813 14.7188 17.1531 14.775 17.2094 14.8563L17.9344 15.8781C17.9906 15.9563 18.0312 16.0281 18.0594 16.0969C18.0875 16.1625 18.1031 16.2281 18.1031 16.2875C18.1031 16.3625 18.0813 16.4375 18.0375 16.5094C17.9969 16.5813 17.9375 16.6563 17.8625 16.7313L17.625 16.9781C17.5906 17.0125 17.575 17.0531 17.575 17.1031C17.575 17.1281 17.5781 17.15 17.5844 17.175C17.5938 17.2 17.6031 17.2188 17.6094 17.2375C17.6656 17.3406 17.7625 17.475 17.9 17.6375C18.0406 17.8 18.1906 17.9656 18.3531 18.1313C18.3844 18.1625 18.4187 18.1938 18.45 18.225C18.575 18.3469 18.5781 18.5469 18.4531 18.6719Z" fill="#95B1ED"/>
<path d="M21.8656 19.7281C21.8656 19.8156 21.85 19.9063 21.8187 19.9938C21.8094 20.0188 21.8 20.0438 21.7875 20.0688C21.7344 20.1813 21.6656 20.2875 21.575 20.3875C21.4219 20.5563 21.2531 20.6781 21.0625 20.7563C21.0594 20.7563 21.0563 20.7594 21.0531 20.7594C20.8688 20.8344 20.6688 20.875 20.4531 20.875C20.1344 20.875 19.7937 20.8 19.4344 20.6469C19.075 20.4938 18.7156 20.2875 18.3594 20.0281C18.2375 19.9375 18.1156 19.8469 18 19.75L19.0219 18.7281C19.1094 18.7938 19.1875 18.8438 19.2531 18.8781C19.2687 18.8844 19.2875 18.8938 19.3094 18.9031C19.3344 18.9125 19.3594 18.9156 19.3875 18.9156C19.4406 18.9156 19.4812 18.8969 19.5156 18.8625L19.7531 18.6281C19.8312 18.55 19.9062 18.4906 19.9781 18.4531C20.05 18.4094 20.1219 18.3875 20.2 18.3875C20.2594 18.3875 20.3219 18.4 20.3906 18.4281C20.4594 18.4563 20.5313 18.4969 20.6094 18.55L21.6437 19.2844C21.725 19.3406 21.7812 19.4063 21.8156 19.4844C21.8469 19.5625 21.8656 19.6406 21.8656 19.7281Z" fill="#95B1ED"/>
</svg>
