<svg width="640" height="640" viewBox="0 0 640 640" fill="none" xmlns="http://www.w3.org/2000/svg">
<g clip-path="url(#clip0_15506_220)">
<path d="M320 640C496.731 640 640 496.731 640 320C640 143.269 496.731 0 320 0C143.269 0 0 143.269 0 320C0 496.731 143.269 640 320 640Z" fill="#FBF8FD"/>
<mask id="mask0_15506_220" style="mask-type:luminance" maskUnits="userSpaceOnUse" x="0" y="0" width="640" height="640">
<path d="M320 640C496.731 640 640 496.731 640 320C640 143.269 496.731 0 320 0C143.269 0 0 143.269 0 320C0 496.731 143.269 640 320 640Z" fill="white"/>
</mask>
<g mask="url(#mask0_15506_220)">
<path d="M411.3 319C415.968 303.767 416.323 287.538 412.326 272.116C408.329 256.693 400.136 242.68 388.656 231.633C377.176 220.585 362.86 212.935 347.295 209.532C331.731 206.129 315.528 207.106 300.486 212.355C285.443 217.603 272.149 226.918 262.08 239.265C252.011 251.612 245.561 266.508 243.446 282.299C241.331 298.09 243.634 314.158 250.098 328.72C256.563 343.281 266.937 355.766 280.068 364.789L227.449 496.682L485.935 474.776C485.935 474.776 354.991 404.476 353.312 376.387C366.968 372.36 379.413 365.011 389.533 354.996C399.653 344.981 407.132 332.613 411.3 319Z" fill="#C29198"/>
<path d="M473.129 442.664L493.15 433.415C493.15 433.415 516.022 436.331 522.844 462.136C529.666 487.941 560.814 626.185 560.814 626.185C560.814 626.185 579.061 644.192 568.603 669.023C568.603 669.023 572.246 696.523 560.814 700.666C549.382 704.809 472.793 763.931 472.793 763.931L473.13 442.665L473.129 442.664Z" fill="#2860E6"/>
<path d="M412.829 406.641L354.5 376.199C342.566 435.583 287.574 437.773 275.64 378.39L237.582 406.641L157.261 433.414L168.944 744.838L331.978 744.368L331.99 744.838H481.467L493.15 433.414L412.829 406.641Z" fill="#2860E6"/>
<path d="M177.284 442.664L157.263 433.415C157.263 433.415 134.391 436.331 127.569 462.136C120.747 487.941 133.41 637.136 133.41 637.136C133.41 637.136 115.163 655.143 125.621 679.974C125.621 679.974 121.978 707.474 133.41 711.617C144.842 715.76 177.283 717.591 177.283 717.591V442.664H177.284Z" fill="#2860E6"/>
<path d="M256.326 252.572L250.383 313.202C250.383 313.202 188.019 192.194 265.575 169.818C265.575 169.818 258.022 159.591 268.983 156.188C279.944 152.785 383.857 136.468 392.14 187.342C392.14 187.342 446.425 220.987 429.996 256.984L410.639 299.3L393.115 300.274C393.115 300.274 392.621 219.705 365.855 222.387C339.089 225.069 256.326 252.572 256.326 252.572Z" fill="#090814"/>
</g>
</g>
<defs>
<clipPath id="clip0_15506_220">
<rect width="640" height="640" fill="white"/>
</clipPath>
</defs>
</svg>
