<svg width="40" height="40" viewBox="0 0 40 40" fill="none" xmlns="http://www.w3.org/2000/svg">
<path d="M31.6667 11.6667C31.6667 11.9667 31.65 12.25 31.6167 12.5333C31.4167 14.95 30.35 17.1333 28.7333 18.7333C26.9333 20.55 24.4334 21.6667 21.6667 21.6667H16.45C15.6167 21.6667 14.9167 22.2833 14.8 23.1L13.5334 31.9C13.4334 32.55 12.9667 33.0833 12.35 33.25C12.2 33.3167 12.05 33.3333 11.8834 33.3333H8.63335C7.60002 33.3333 6.8167 32.4167 6.98336 31.4L10.9667 7.51666C11.3667 5.09999 13.45 3.33333 15.9 3.33333H23.3334C27.9334 3.33333 31.6667 7.06667 31.6667 11.6667Z" fill="#0F53D9"/>
<path opacity="0.4" d="M35.0001 18.3334C35.0001 20.6334 34.0667 22.7167 32.5667 24.2333C31.0501 25.7333 28.9667 26.6667 26.6667 26.6667H23.0834C22.2667 26.6667 21.5667 27.25 21.4334 28.0667L20.2334 35.2667C20.1001 36.0834 19.4 36.6667 18.5834 36.6667H13.7001C12.6501 36.6667 11.8667 35.7 12.0667 34.6667L12.3501 33.25C12.9667 33.0834 13.4334 32.55 13.5334 31.9L14.8001 23.1C14.9167 22.2834 15.6167 21.6667 16.45 21.6667H21.6667C24.4334 21.6667 26.9334 20.55 28.7334 18.7334C30.35 17.1334 31.4167 14.95 31.6167 12.5334C33.6334 13.6834 35.0001 15.85 35.0001 18.3334Z" fill="#0F53D9"/>
</svg>
