<svg width="168" height="109" viewBox="0 0 168 109" fill="none" xmlns="http://www.w3.org/2000/svg">
<path d="M62.3882 1.83393L62.0621 3.66785L61.5866 3.8037C61.3149 3.87162 60.6356 4.03464 60.0786 4.1569C59.5215 4.29274 59.0053 4.42859 58.9509 4.48293C58.8966 4.53727 59.5487 4.6867 60.4182 4.82255C61.7768 5.0399 62.0214 5.12141 62.1165 5.35235C62.1708 5.51536 62.3339 6.41195 62.4697 7.36287C62.6056 8.32738 62.755 9.10171 62.7958 9.10171C62.8365 9.10171 63.0132 8.23229 63.1898 7.17269C63.3528 6.0995 63.5294 5.18933 63.5566 5.14858C63.5838 5.10782 64.1952 4.93122 64.9288 4.76821C65.6625 4.59161 66.5999 4.37425 67.0075 4.29274L67.7547 4.11614L67.0075 4.03464C63.3664 3.61351 63.5023 3.64068 63.4343 3.34182C63.3936 3.1788 63.2577 2.36373 63.1219 1.52148C62.986 0.692815 62.8501 -1.25915e-06 62.7958 -1.25915e-06C62.755 -1.25915e-06 62.5648 0.828662 62.3882 1.83393Z" fill="#0F53D9"/>
<path d="M83.868 0.747147C83.243 1.30412 83.1751 1.4943 83.5827 1.4943C83.7593 1.4943 83.8544 1.39921 83.8544 1.22261C83.8544 0.774316 84.4386 0.502623 85.2673 0.570546C86.0825 0.638469 86.3406 0.828654 86.6531 1.56223C87.0471 2.52673 86.4493 3.532 85.2809 3.8852L84.5337 4.08897V4.97197C84.5337 5.75988 84.5065 5.84139 84.2484 5.84139C83.0528 5.84139 81.0828 6.83307 80.091 7.93342C79.6155 8.44964 77.2787 10.0526 76.9934 10.0526C76.9255 10.0526 76.7489 9.93037 76.5858 9.78093L76.2869 9.49566L75.9337 10.2972C75.6348 10.9628 75.4854 11.1258 74.9963 11.3296C73.5697 11.9681 70.8932 13.8292 69.589 15.1061C67.7277 16.9265 66.5321 18.4344 65.2958 20.54C64.861 21.2735 64.4806 21.8713 64.4399 21.8713C64.3991 21.8713 64.0866 21.4501 63.747 20.9611C62.8775 19.657 59.9021 16.7091 59.4809 16.7091C59.3994 16.7091 59.2228 16.6004 59.0733 16.451C58.2038 15.6631 54.9703 14.3182 53.0275 13.9514C52.2803 13.8156 52.1444 13.7341 52.0357 13.4216C51.8863 13.0141 51.5466 12.7424 50.8266 12.5114C50.3375 12.362 50.3375 12.3484 50.2424 11.4383C50.2016 10.9356 50.1609 9.14246 50.1609 7.44438C50.1609 5.54253 50.1065 4.33349 50.025 4.27915C49.9299 4.22482 49.8891 5.37951 49.8891 7.66173C49.8891 9.82169 49.8348 11.153 49.7533 11.2073C49.6853 11.2481 49.6174 11.5198 49.6174 11.7915C49.6174 12.2669 49.5767 12.3077 48.8838 12.6065C48.3675 12.8375 48.0958 13.0412 47.9871 13.2994C47.8512 13.639 47.7425 13.6933 46.7372 13.8427C44.509 14.1824 42.1858 15.1061 40.0528 16.5053C39.1425 17.1031 37.2541 18.611 37.4171 18.611C37.4443 18.611 37.1318 18.9642 36.7106 19.3853C35.4471 20.703 34.007 23.0803 33.2054 25.1995C32.9065 26.001 32.5261 27.8078 32.3631 29.1934C31.9691 32.4809 32.8386 36.6378 34.4689 39.3547C34.8086 39.9117 35.0803 40.4143 35.0803 40.4415C35.0803 40.4822 35.2841 40.7675 35.5286 41.08C35.7596 41.3788 36.0585 41.7592 36.1672 41.895C36.5748 42.4248 37.8926 43.7154 38.6806 44.381C40.7865 46.147 43.8297 47.5327 46.6828 48.0217C48.2588 48.2934 50.9896 48.2798 52.5384 48.0081C53.2177 47.8859 53.8427 47.7772 53.9378 47.7636C54.128 47.75 54.3861 48.3477 55.9621 52.3416L56.8724 54.6238L56.7229 55.4661C56.6414 56.0095 56.6278 56.3355 56.7229 56.3898C56.7909 56.4442 57.28 56.5257 57.8234 56.5664C58.3533 56.6208 60.4048 56.8381 62.3884 57.0555C64.3719 57.2728 66.5185 57.4902 67.1842 57.5445C67.8364 57.5989 68.3934 57.6804 68.4206 57.7211C68.4478 57.7619 68.3526 58.8758 68.2168 60.18C68.0809 61.4841 67.9587 62.8154 67.9451 63.1278L67.9043 63.712H65.1192C63.5839 63.712 61.2743 63.7255 59.9972 63.7255C58.394 63.7255 57.606 63.7799 57.4566 63.8886C57.2392 64.0516 56.886 64.6493 55.8534 66.6327C55.541 67.2304 55.1877 67.8689 55.0519 68.0591C54.8481 68.3579 53.571 70.6809 52.7015 72.3382C52.5384 72.6371 52.3482 72.9767 52.2531 73.0854C52.1716 73.194 51.8591 73.751 51.5602 74.308C49.7397 77.7313 49.7805 77.677 48.3947 78.6958C46.6013 80.0271 44.9438 81.7252 43.2999 83.9123C43.0146 84.3063 42.7564 84.6051 42.7293 84.5916C42.5662 84.4285 45.5823 76.6989 47.7154 71.7948C47.7833 71.6454 48.1637 70.8167 48.5713 69.9473C49.3185 68.3579 49.5495 67.7874 49.4408 67.7874C49.3729 67.7874 47.7697 70.1647 47.0632 71.3194C44.0471 76.2234 41.819 80.5433 40.3245 84.4285C40.0392 85.1757 39.849 85.5153 39.849 85.3115C39.7947 83.7901 40.7321 70.6537 40.9223 70.1918C40.9767 70.0288 41.3435 69.3768 41.7239 68.7383C42.1043 68.0998 42.4168 67.5021 42.4168 67.407C42.4168 67.3255 42.4711 67.244 42.5255 67.244C42.6885 67.244 45.3242 61.9188 45.9084 60.4109C46.5741 58.6721 46.7643 57.8706 46.7643 56.7295C46.7643 55.8329 46.7372 55.7106 46.3839 55.3846C45.2699 54.3114 43.232 55.697 41.8326 58.4955C40.8 60.5603 39.6045 64.8395 39.0882 68.3579C38.9795 69.1594 38.8572 69.893 38.8165 69.9881C38.735 70.2054 38.4496 73.7103 37.8383 81.7116C37.7568 82.8256 37.7296 82.8799 37.6481 82.3229C37.5937 81.9833 37.5122 80.1222 37.4579 78.1796C37.4035 76.237 37.322 74.2536 37.2677 73.7646L37.1726 72.8816L37.0231 73.8325C36.9416 74.3487 36.8057 75.3676 36.7242 76.074C36.0585 82.0241 35.8004 83.6542 35.7732 82.0784C35.7596 81.1546 35.1346 75.0551 34.8765 73.2891C34.3602 69.7843 33.4907 65.8312 33.1918 65.6138C33.1375 65.5731 32.9744 65.3557 32.8386 65.1248C32.2136 64.1467 31.0181 63.5761 30.5561 64.0516C30.1078 64.4863 29.9855 65.2742 30.1757 66.524C30.5018 68.8062 31.7789 73.2076 32.9065 75.9517C33.1239 76.4679 33.3413 77.0928 33.382 77.3374C33.4771 77.9351 33.8304 82.3365 33.9255 84.0889L33.9934 85.5153L33.5722 84.6323C32.5397 82.4724 31.3034 78.6143 30.529 75.1095C29.5508 70.7488 29.0617 68.8877 28.0835 65.9534C26.9694 62.5709 26.2493 60.995 25.2575 59.7317C24.7684 59.1068 24.6733 59.1475 24.9451 59.8539C25.5293 61.3075 26.7384 65.9263 27.3906 69.1458C27.8389 71.3329 28.097 73.0039 28.4367 75.9381C28.6812 78.1117 28.9665 80.0407 29.1839 80.9916C29.2383 81.2362 29.2111 81.372 29.116 81.372C29.0345 81.372 28.9665 81.3177 28.9665 81.2633C28.9665 81.0324 26.0863 77.3102 24.8364 75.9381C22.88 73.7918 21.8746 72.8001 19.3884 70.5994C18.8177 70.0832 19.0623 70.6809 19.8775 71.7541C21.4942 73.8869 21.8474 74.3759 22.9207 75.9789C24.5375 78.3562 25.0266 79.1441 26.0999 81.1682C26.4259 81.766 26.752 82.3365 26.8335 82.4316C27.0645 82.7169 26.8335 82.7712 26.2765 82.5539C25.2847 82.1599 22.812 81.7524 20.9508 81.6844C18.8993 81.6029 17.2689 81.8746 15.8967 82.4995C15.0136 82.9071 13.7365 83.8987 13.655 84.2384C13.6143 84.3878 13.5463 84.4965 13.492 84.4965C13.3697 84.4965 13.1116 85.2165 13.0029 85.8821C12.8806 86.5613 13.2203 87.2406 13.8316 87.5258C14.6604 87.9198 15.6793 87.8247 17.2825 87.1998C20.5839 85.9093 22.3773 85.461 24.619 85.3659L26.3173 85.2844L27.0509 85.8006C27.6623 86.2353 27.8525 86.4798 28.1106 87.1047C28.2737 87.5258 28.4639 88.1372 28.5046 88.4632L28.5997 89.0473L28.1106 88.667C26.9286 87.7704 25.2983 87.1998 25.2983 87.6889C25.2983 87.7975 25.3662 87.8926 25.4342 87.8926C25.8146 87.8926 27.4721 89.9439 27.4721 90.4058C27.4721 90.4465 27.2275 90.4737 26.9422 90.4737C26.6433 90.4737 26.3716 90.5281 26.3308 90.5824C26.2901 90.6503 26.4124 92.0903 26.589 93.8155C26.7656 95.5272 27.1053 98.7875 27.3362 101.07C27.5672 103.352 27.8525 105.539 27.9748 105.933C28.2601 106.857 29.0888 107.808 29.9855 108.215L30.6648 108.541H19.6329C12.3643 108.541 8.5874 108.582 8.5874 108.677C8.5874 108.772 13.4512 108.813 22.8936 108.813C30.7463 108.813 41.0038 108.854 45.6775 108.894C61.6683 109.044 163.469 109.03 163.428 108.881C163.387 108.786 158.265 108.731 148.47 108.704L133.58 108.677L133.661 108.297C134.191 105.892 134.571 105.145 135.78 104.072C136.242 103.678 136.433 103.787 136.922 104.778C137.302 105.498 137.913 106.245 138.511 106.667C138.837 106.898 138.946 106.911 139.272 106.775C140.169 106.408 140.06 105.186 139.055 104.058C137.519 102.347 135.808 102.347 133.946 104.058C133.552 104.412 133.009 105.091 132.737 105.566C132.18 106.504 132.139 106.449 132.411 105.213C132.914 102.972 133.308 101.858 134.245 99.983C135.332 97.823 136.895 95.8125 138.742 94.2367L139.489 93.5982L139.014 93.6797C137.927 93.8835 136.297 94.848 135.183 95.9483C133.783 97.3204 132.112 100.268 131.406 102.564C131.243 103.121 131.052 103.637 130.985 103.719C130.917 103.787 130.876 100.608 130.889 95.9755L130.93 88.0964L138.674 88.0285L146.418 87.9606L146.867 87.6481C147.763 87.0096 147.709 87.8383 147.709 73.7918V61.0494L147.383 60.6011C146.758 59.7588 146.907 59.7724 140.223 59.7724C136.31 59.7724 134.123 59.7181 134.123 59.6366C134.123 59.3649 134.965 58.1423 135.332 57.8706C135.658 57.6532 135.998 57.5989 137.601 57.5445C140.264 57.463 142.913 56.8517 143.294 56.2404C143.525 55.8736 143.212 55.4525 142.451 55.0857C140.264 54.0261 136.324 55.0993 133.349 57.5445C133.104 57.7483 132.9 57.8298 132.9 57.7483C132.9 57.5853 134.069 55.2623 134.558 54.4744C135.59 52.8035 138.307 49.7741 139.734 48.7145C140.019 48.5108 140.237 48.307 140.21 48.2798C140.101 48.1711 137.316 49.6247 136.46 50.236C135.359 51.0103 133.525 52.8443 132.778 53.9039C132.479 54.325 131.936 55.1944 131.582 55.8329L130.93 56.9876L130.862 52.3688C130.822 49.3122 130.74 47.6413 130.631 47.4104C130.264 46.5817 129.64 45.9297 128.865 45.5629L128.077 45.1689L113.961 45.1418L99.8316 45.101L99.7909 44.8021C99.7229 44.218 99.0572 39.0558 98.8534 37.4936C98.7448 36.6378 98.4866 34.6544 98.2828 33.0922C98.0383 31.2311 97.8617 30.2258 97.753 30.1987C97.6307 30.1579 97.6035 30.253 97.6443 30.5247C97.685 30.7285 98.0247 33.2552 98.3915 36.1351C99.2746 42.941 99.4512 44.2588 99.5327 44.8429C99.6007 45.2912 99.5735 45.3319 99.1523 45.4814C98.541 45.6987 97.6714 46.5817 97.3182 47.3289C97.0465 47.9266 97.0329 48.1168 97.0329 53.6593C97.0329 58.9845 97.0193 59.3785 96.8019 59.4464C96.1362 59.6502 96.1498 59.5958 96.109 62.2312C96.0955 63.6033 96.109 64.8667 96.1498 65.0297C96.1906 65.2334 96.34 65.3421 96.5981 65.3693L96.965 65.41L97.0057 66.8364L97.0465 68.2764L96.5981 68.3987L96.1498 68.5345L96.0819 70.5043L96.0139 72.4741L95.4705 72.5556C94.3021 72.7593 90.6203 72.9767 90.5116 72.868C90.4572 72.8001 90.4708 66.85 90.5387 59.6366L90.6746 46.5274L91.055 45.7123C91.843 44.0278 92.1827 43.2127 92.8891 41.3652C94.9542 35.9178 96.7068 29.8047 96.8563 27.5768C96.9242 26.5716 96.897 26.3406 96.6525 25.8787C96.3672 25.3218 95.7558 24.6833 94.764 23.9225L94.1934 23.4878L94.6553 22.7543C94.9135 22.3467 95.1308 21.9935 95.1308 21.9528C95.1308 21.9256 95.6199 21.0834 96.2313 20.0781C97.1008 18.6381 97.3046 18.1898 97.2503 17.891C97.1823 17.5378 95.9188 14.6035 95.389 13.5439C94.9814 12.756 95.2667 12.8646 97.1416 14.2367C99.9132 16.2608 102.25 19.1815 103.921 22.6863C104.994 24.9278 105.511 26.6123 106.054 29.5466C106.312 30.9594 106.679 32.9835 106.869 34.0295C107.25 36.108 107.793 39.0287 108.092 40.6181C108.201 41.175 108.364 42.0309 108.445 42.5199C108.758 44.2995 108.907 44.9652 109.016 44.9652C109.07 44.9652 109.125 44.9108 109.125 44.8293C109.125 44.7071 108.391 40.686 107.549 36.1351C107.358 35.1299 107.087 33.622 106.937 32.8069C105.986 27.4817 105.769 26.4629 105.225 24.9957C103.31 19.8336 99.9132 15.4593 96.0275 13.1363C95.0086 12.525 94.8048 12.2669 94.1526 10.7047C93.6907 9.61792 93.4869 9.4549 93.2016 9.91678C93.1065 10.0662 92.9435 10.1885 92.8348 10.1885C92.4136 10.1885 89.8459 8.55832 89.2073 7.87908C88.3378 6.95533 87.0064 6.181 85.8923 5.96365C85.4032 5.86856 84.9684 5.73271 84.9141 5.6512C84.8598 5.56969 84.8054 5.23008 84.8054 4.91763C84.8054 4.44217 84.8598 4.30632 85.0771 4.25198C85.8515 4.04821 86.5173 3.54558 86.8297 2.93427C87.1151 2.36372 87.1286 2.24146 86.9792 1.71166C86.7211 0.7879 86.1912 0.366777 85.2266 0.298853C84.4658 0.244515 84.4114 0.258099 83.868 0.747147ZM83.4876 6.92816C84.4114 7.44438 84.9549 7.44438 85.9738 6.92816C86.4086 6.7108 86.8297 6.52062 86.8841 6.52062C87.1286 6.52062 88.4465 7.48513 89.0307 8.08285C89.6692 8.7485 90.5795 9.38698 91.6392 9.91678C92.5902 10.3922 92.6718 10.5417 92.2234 10.9492L91.8566 11.3024L90.6067 10.6775C89.9138 10.3379 88.9763 9.94395 88.5144 9.79452C86.1504 9.00661 83.0256 9.07453 80.716 9.95753C79.6427 10.3651 78.7053 10.827 78.4471 11.0851C78.352 11.1937 78.189 11.2752 78.0803 11.2752C77.9037 11.2752 77.1972 10.5281 77.1972 10.3515C77.1972 10.2972 77.6727 9.9847 78.2433 9.64509C78.8275 9.30547 79.7786 8.58549 80.3628 8.05568C81.3545 7.11834 82.2105 6.5342 82.6045 6.52062C82.6996 6.52062 83.0936 6.69722 83.4876 6.92816ZM86.6531 9.65867C87.9846 9.88961 89.3024 10.3243 90.4844 10.9085C91.0958 11.2073 91.5985 11.4926 91.5985 11.5469C91.5985 11.5877 91.3811 11.8322 91.1229 12.0903C90.6746 12.525 90.6474 12.6065 90.6474 13.4352V14.3318L86.2727 14.2503C83.8544 14.1959 81.2866 14.1552 80.5666 14.1416L79.2351 14.128V13.3401C79.2351 12.6201 79.1944 12.5114 78.7596 12.0903C78.1618 11.5062 78.2297 11.4111 79.9008 10.6368C81.9931 9.64509 84.5473 9.2783 86.6531 9.65867ZM78.9634 13.082C78.977 13.3265 79.0313 14.6714 79.0993 16.0978C79.2623 19.426 79.4525 23.678 79.7106 29.207C79.8193 31.6386 79.9688 34.7767 80.0503 36.2031C80.3763 42.3433 80.6209 47.9266 80.5666 48.1575C80.485 48.633 78.9498 45.7938 77.6999 42.8595C77.2787 41.8543 76.1375 38.6619 75.6348 37.0181C74.7381 34.1382 74.6158 33.6899 74.2762 32.3314C73.6784 29.9813 73.2572 27.7127 73.2572 26.9519C73.2572 26.3406 73.3252 26.1504 73.7599 25.5799C74.3034 24.8599 74.3985 24.7784 75.3359 24.1535C75.6891 23.9225 75.9745 23.6509 75.9745 23.5693C75.9745 23.4878 75.5669 22.7407 75.0778 21.9256C73.5425 19.4124 73.3931 19.1408 73.3931 19.0728C73.3931 19.0321 73.2572 18.8011 73.0942 18.5838C72.7274 18.0676 72.7002 18.1491 74.2354 14.8073C74.4936 14.2503 74.874 13.3944 75.0914 12.9054C75.2951 12.4164 75.6756 11.5605 75.9337 11.0036L76.3956 9.9847L77.6863 11.316C78.746 12.4299 78.9634 12.7288 78.9634 13.082ZM93.8945 10.8405C94.0847 11.2617 94.3972 11.9816 94.601 12.4299C95.4162 14.1959 97.0329 17.9589 97.0329 18.0676C97.0329 18.1355 96.7884 18.5974 96.4895 19.0864C96.1906 19.5755 95.946 20.0102 95.946 20.0509C95.946 20.0917 95.8373 20.2954 95.6879 20.4856C95.2939 21.0562 93.9081 23.5014 93.9081 23.6373C93.9081 23.6916 94.1391 23.8954 94.4244 24.072C95.158 24.5203 95.9324 25.2538 96.2993 25.838C96.897 26.7753 96.6933 28.2832 95.3211 33.2144C94.9542 34.5186 93.7451 38.3223 93.5141 38.8657C93.4462 39.0423 93.1609 39.803 92.8891 40.5501C92.0604 42.8188 90.8241 45.7259 90.7154 45.6172C90.6882 45.5901 90.7154 39.7622 90.7833 32.6711C90.8512 25.5663 90.9192 18.1627 90.9192 16.2201V12.6609L92.1691 11.3568C92.862 10.6368 93.4598 10.0526 93.5005 10.0526C93.5413 10.0526 93.7179 10.4058 93.8945 10.8405ZM75.2951 11.7235C75.2951 11.8186 75.2136 12.0088 75.1185 12.1582C75.0098 12.3077 74.8332 12.6745 74.7245 12.9733C74.5072 13.5167 74.2898 14.0058 73.1757 16.4646C72.8496 17.1981 72.5779 17.891 72.5779 18.0268C72.5779 18.1762 72.9448 18.8826 73.3931 19.6162C73.8414 20.3498 74.2083 20.9747 74.2083 21.0154C74.2083 21.0426 74.4256 21.3958 74.6702 21.8033C74.9283 22.2109 75.268 22.7679 75.4174 23.0667L75.6891 23.5965L75.0234 24.0312C74.0996 24.6289 73.1485 25.7157 73.0399 26.3134C72.8632 27.278 73.1893 29.3021 74.086 32.739C75.7027 38.9336 78.2162 45.427 80.0095 48.0489L80.6345 48.9726L80.8111 52.5726C80.9062 54.5559 81.0828 58.1558 81.1915 60.5875C81.3138 63.0191 81.4496 65.8855 81.504 66.9723C81.5583 68.0591 81.5991 69.0643 81.5991 69.2137C81.5991 69.4719 81.504 69.4854 79.6835 69.5262L77.7678 69.5669L76.9255 68.0319C76.45 67.1896 75.9473 66.2795 75.7978 66.0214C75.6484 65.7632 75.3495 65.2063 75.1185 64.7987C74.9011 64.3912 74.6566 63.9837 74.5887 63.8886C74.4936 63.7799 73.5561 63.7255 71.3144 63.712C69.589 63.712 68.1624 63.6848 68.1489 63.6712C68.1353 63.6576 68.176 63.2093 68.244 62.6931C68.3119 62.1633 68.5157 60.2479 68.7059 58.414C68.8961 56.58 69.1406 54.2027 69.2493 53.1159C69.8471 47.4376 70.771 38.4174 71.2737 33.4182C71.3823 32.4129 71.4095 31.5299 71.3552 31.462C71.2193 31.3262 71.1514 31.7473 70.8117 35.2521C70.4857 38.4853 70.2547 40.6588 69.7248 45.6444C69.5075 47.6957 69.2901 49.91 69.2357 50.5756C69.1814 51.2277 69.0999 51.7982 69.032 51.8254C68.9776 51.8662 67.9315 51.7711 66.7087 51.6216C65.486 51.4722 63.2171 51.1869 61.6411 50.9967C60.0787 50.8066 58.625 50.6164 58.4348 50.562L58.0816 50.4669L58.4756 48.4972C58.7065 47.4104 58.9647 46.1334 59.0598 45.6444C59.2228 44.8565 59.644 42.8595 60.3504 39.5313C60.4863 38.8928 60.7852 37.4936 61.0162 36.4068C61.2471 35.3201 61.6411 33.4318 61.8993 32.1956C62.171 30.9594 62.5786 29.0304 62.8095 27.9164C63.3394 25.3353 64.0323 23.3248 65.0512 21.4773C65.4724 20.7166 67.1163 18.1762 67.2658 18.0676C67.3065 18.0268 67.5239 17.7687 67.7277 17.4834C69.0048 15.7853 71.9801 13.2858 74.1811 12.0632C75.1865 11.5062 75.2951 11.4654 75.2951 11.7235ZM50.7587 14.1552C52.1308 14.128 52.8917 14.1824 53.5438 14.3454C56.6414 15.0925 59.3722 16.6412 61.6411 18.937C62.7552 20.0509 64.2904 22.0343 64.2904 22.3331C64.2904 22.3739 64.073 22.8629 63.8149 23.4199C63.5568 23.9769 63.3394 24.5339 63.3394 24.6425C63.3394 25.1316 63.0812 24.9142 62.6057 24.0448C60.9346 20.9475 57.9321 18.3393 54.6307 17.1302C52.783 16.451 51.6689 16.2608 49.6174 16.2608C46.153 16.2608 43.8977 16.9808 40.868 19.0592C39.9849 19.6706 37.6617 22.0615 37.3356 22.7135C37.2133 22.958 36.928 23.4607 36.697 23.8275C36.1264 24.7376 35.4199 26.6259 35.1618 27.9164C34.1429 32.8069 35.6237 37.7789 39.1561 41.3109C41.982 44.1365 45.6095 45.6444 49.6038 45.6444C51.4515 45.6444 52.4705 45.495 54.0057 45.0195C55.6089 44.5169 56.9947 43.8105 58.2989 42.8188C58.9239 42.3569 59.4673 41.9901 59.4945 42.0309C59.5353 42.0716 59.4402 42.6558 59.2771 43.335C59.1141 44.0142 58.9918 44.6935 58.9918 44.8293C58.9918 45.2097 58.5435 45.5629 57.2392 46.2014C55.0247 47.2881 52.9324 47.8043 50.3239 47.913C46.6828 48.076 43.8433 47.3425 40.5827 45.3999C39.7947 44.938 38.5176 43.9599 38.3138 43.6746C38.2594 43.6067 38.2051 43.5795 38.2051 43.6339C38.2051 43.824 36.5884 42.0037 35.8004 40.9169C34.7814 39.5177 34.3195 38.6755 33.6809 37.0317C30.7463 29.4379 33.6945 20.703 40.6506 16.451C43.232 14.8752 46.2617 13.8971 47.9871 14.1009C48.4762 14.1552 49.7125 14.1824 50.7587 14.1552ZM90.6474 16.125C90.6474 16.3559 90.3078 16.3695 85.0092 16.3287C80.1454 16.3016 79.371 16.2744 79.371 16.0978C79.371 15.9212 80.1182 15.894 85.0092 15.894C90.2942 15.894 90.6474 15.9076 90.6474 16.125ZM49.6174 17.7959C49.6174 19.5619 49.862 19.589 49.9163 17.823L49.9571 16.5053L50.7722 16.5461C52.6199 16.6548 54.8752 17.3612 56.7229 18.4208C57.3343 18.774 57.9049 19.1272 57.9865 19.2087C58.068 19.2902 58.5163 19.657 58.9647 20.0373L59.7934 20.7166L58.9647 21.5588C58.5027 22.0207 58.1631 22.4554 58.2174 22.5097C58.2718 22.5641 58.7065 22.2245 59.1684 21.7626L60.0244 20.9068L60.5678 21.5588C61.94 23.2161 62.9318 24.9414 62.9318 25.675C62.9318 25.8923 62.7823 26.7346 62.5921 27.5361C62.4155 28.3511 62.0215 30.2258 61.709 31.7201C61.1384 34.5457 60.826 35.9993 60.6222 36.8144C60.5678 37.0725 60.3776 37.9962 60.201 38.8521C60.038 39.7079 59.8478 40.4686 59.7798 40.5501C59.6983 40.6317 59.413 40.4279 58.9918 39.966C58.6114 39.5856 58.2854 39.2596 58.2446 39.2596C58.0272 39.2596 58.2582 39.6128 58.9239 40.2785C59.3315 40.6996 59.6711 41.0935 59.6711 41.1615C59.6711 41.3924 58.6522 42.289 57.4974 43.0497C55.6089 44.3267 53.2313 45.1553 51.0304 45.3184L49.8891 45.4135V44.0957C49.8891 43.3214 49.8348 42.7916 49.7533 42.7916C49.6718 42.7916 49.6174 43.3078 49.6174 44.0822V45.3727H48.9517C48.5985 45.3727 47.7561 45.2776 47.104 45.1689C44.5906 44.7206 42.5526 43.7969 40.474 42.126L39.5501 41.3924L40.5147 40.4143C41.0582 39.8709 41.4386 39.3955 41.3707 39.3547C41.3027 39.3139 40.8272 39.6943 40.3109 40.2105C39.2105 41.3109 39.3327 41.3516 38.0285 39.5992C36.3438 37.3442 35.4607 34.9533 35.1482 31.8831L35.0803 31.1088H36.5068C38.3545 31.1088 38.3953 30.8643 36.5476 30.81L35.1482 30.7692L35.189 29.8183C35.2433 28.5685 35.7868 26.4493 36.3846 25.0772C37.0775 23.515 38.9659 20.7845 39.3735 20.7845C39.4278 20.7845 39.8762 21.1784 40.3517 21.6675C40.8272 22.1565 41.2891 22.5369 41.3571 22.5233C41.425 22.4962 41.0718 22.0615 40.5827 21.5452C40.0936 21.0426 39.6996 20.5807 39.6996 20.5264C39.6996 20.3498 40.5691 19.6026 41.5337 18.9506C43.6803 17.4834 46.5877 16.5325 49.1827 16.451L49.6174 16.4374V17.7959ZM115.578 47.1795C115.632 47.3561 115.646 47.8043 115.619 48.1711L115.578 48.8368L113.92 48.8775L112.249 48.9183V47.9809C112.249 47.4647 112.29 47.0029 112.344 46.9621C112.385 46.9078 113.119 46.867 113.961 46.867C115.456 46.867 115.51 46.8806 115.578 47.1795ZM138.28 49.5432C137.696 50.1137 135.862 52.1922 135.454 52.7492C135.169 53.1431 134.843 53.5778 134.721 53.7273C133.906 54.7869 132.207 58.4004 132.058 59.3785C132.017 59.6637 131.936 59.7045 131.419 59.7452L130.835 59.786L130.889 58.7264C130.93 57.8298 131.025 57.5038 131.46 56.648C132.289 55.0042 133.416 53.4012 134.666 52.165C135.862 50.956 137.737 49.5704 138.321 49.4617C138.348 49.4481 138.335 49.4888 138.28 49.5432ZM130.591 52.2601V53.9989L114.016 53.9582C102.943 53.9446 97.4405 53.9718 97.4405 54.0669C97.4405 54.1348 97.522 54.2027 97.6171 54.2027C97.6986 54.2027 105.157 54.2027 114.192 54.2027H130.591V56.8517C130.591 58.3053 130.591 59.5415 130.591 59.5958C130.591 59.6637 127.208 59.7317 123.064 59.7724L115.537 59.8403L115.021 60.2615C114.736 60.4924 114.45 60.832 114.41 61.0086C114.355 61.1852 114.314 66.9859 114.301 73.8733C114.287 87.8655 114.233 87.0232 115.225 87.7024L115.714 88.0285H123.132C127.208 88.0285 130.577 88.0556 130.604 88.0828C130.631 88.11 130.645 91.2616 130.618 95.0789L130.591 102.021H113.948H97.3046V76.2778V50.5349H113.948H130.591V52.2601ZM61.0977 51.2141C65.4181 51.7303 68.9776 52.1922 69.0184 52.2329C69.0591 52.2737 68.5157 57.3544 68.4613 57.3951C68.4478 57.4087 66.9397 57.2593 65.1056 57.0555C63.2714 56.8517 60.7037 56.58 59.3994 56.4442C58.0951 56.3083 56.9811 56.1725 56.9403 56.1182C56.8724 56.0502 57.7827 51.4858 57.9729 50.9696C58.0136 50.8473 58.1767 50.8066 58.4076 50.8609C58.625 50.9016 59.8342 51.0647 61.0977 51.2141ZM137.139 56.0231C136.691 56.3491 136.242 56.7295 136.147 56.8789C136.039 57.0147 135.713 57.2864 135.4 57.4902C134.829 57.857 134.041 58.903 133.906 59.46C133.824 59.7452 133.743 59.7724 133.022 59.7724C132.139 59.7724 132.099 59.7181 132.465 58.9573C133.009 57.857 136.487 55.5476 137.778 55.4389C137.873 55.4389 137.587 55.697 137.139 56.0231ZM42.2809 58.6992C41.3978 61.1988 40.9087 64.5135 40.4468 70.9797C40.3381 72.542 40.1479 75.1095 40.0392 76.6853C39.9305 78.2475 39.7403 81.2497 39.6316 83.3418C39.4686 86.4527 39.3327 87.9606 39.0203 90.433C39.0203 90.4601 38.6806 90.4737 38.2594 90.4737H37.485L37.5801 88.7349C37.6345 87.784 37.879 84.4693 38.1372 81.372C38.3817 78.2747 38.667 74.7563 38.7485 73.5608C39.0338 69.6213 40.0256 64.3912 41.0989 61.1309C41.5609 59.7452 42.3896 57.8026 42.4983 57.8977C42.5255 57.9249 42.4304 58.2917 42.2809 58.6992ZM26.2765 62.0411C27.0237 63.6712 26.9966 63.6033 27.54 65.2063C28.4639 67.8825 29.3605 71.1292 29.9855 73.9684C31.0452 78.8996 32.2 82.4995 33.6538 85.4474C34.0749 86.3168 34.17 86.67 34.2651 87.8247C34.3331 88.5719 34.3874 89.4684 34.401 89.8217C34.401 90.4465 34.3874 90.4737 34.0342 90.4737C33.4635 90.4601 32.594 89.2647 31.4936 87.0096C30.067 84.0753 29.347 81.2633 28.8307 76.6853C28.6812 75.3404 28.491 73.9004 28.4231 73.4929C28.3552 73.0854 28.1921 72.1073 28.0699 71.3194C27.6759 68.7247 26.3852 63.2773 25.7874 61.552C25.5429 60.8864 25.5429 60.8592 25.638 60.8592C25.6787 60.8592 25.964 61.389 26.2765 62.0411ZM144.856 61.3618C145.25 61.5384 145.671 62.0003 145.916 62.5301C146.16 63.0871 146.147 65.6138 145.889 65.6138C145.739 65.6138 145.685 65.3014 145.644 64.201C145.617 63.0191 145.549 62.7203 145.318 62.3943C144.829 61.7286 144.272 61.5384 142.723 61.5384C141.65 61.5384 141.324 61.4977 141.324 61.3618C141.324 61.2531 141.351 61.1445 141.378 61.1173C141.487 61.0086 144.53 61.2124 144.856 61.3618ZM120.944 61.3347C120.944 61.4977 120.686 61.5384 119.382 61.5384C116.814 61.5384 116.271 62.0954 116.339 64.6221C116.366 65.641 116.339 65.8176 116.135 65.8583C115.945 65.8991 115.918 65.7361 115.918 64.5542C115.918 61.7694 116.543 61.1445 119.355 61.1309C120.673 61.1309 120.944 61.1581 120.944 61.3347ZM130.658 63.9293C130.658 64.7987 130.618 65.0025 130.455 65.0025C130.292 65.0025 130.237 64.7852 130.21 64.0652C130.169 63.0327 130.237 62.7067 130.495 62.7882C130.604 62.829 130.658 63.1822 130.658 63.9293ZM63.516 64.8395C63.7062 65.2334 63.9643 65.6953 64.073 65.8855C64.3991 66.4425 65.7305 68.8198 66.5729 70.3684C67.4696 72.0258 69.9558 76.5223 70.4041 77.2966C70.9204 78.2068 71.4231 79.0762 71.9937 80.1494C72.1839 80.489 72.5372 81.1411 72.7953 81.6029C73.0534 82.0648 73.2572 82.4995 73.2572 82.5539C73.2572 82.6082 67.456 82.649 60.3504 82.6218C53.0004 82.6082 47.4436 82.5403 47.4436 82.4724C47.4436 82.4044 47.6474 81.9969 47.892 81.5622C48.3267 80.7879 48.3403 80.7743 50.3647 79.7554C52.6064 78.6279 53.4215 78.0981 53.7476 77.5547C54.0057 77.1064 53.8427 76.8483 53.1362 76.631C52.552 76.4408 51.5874 76.631 50.8673 77.0521C50.6228 77.2015 50.3918 77.2966 50.3511 77.2559C50.3103 77.2151 50.5141 76.7668 50.813 76.2506C51.2613 75.4899 52.9596 72.4333 54.685 69.2817C54.8617 68.9421 55.3372 68.0862 55.7312 67.3798C56.1252 66.6734 56.655 65.6953 56.9132 65.2063C57.1713 64.7172 57.443 64.2554 57.4974 64.1874C57.5653 64.1059 58.6522 64.0652 60.3776 64.0923L63.1492 64.1331L63.516 64.8395ZM66.274 64.3504C66.437 64.6221 66.9669 65.5866 67.8228 67.176C68.3662 68.2085 68.801 68.9692 70.1868 71.4145C70.9612 72.8001 71.3688 73.5337 72.3062 75.2589C73.8143 78.0438 73.9773 78.329 74.9011 79.9728C75.4174 80.883 75.8386 81.6844 75.8386 81.7524C75.8386 81.8203 75.9337 81.9561 76.0424 82.0512C76.1511 82.1463 76.2462 82.3093 76.2462 82.4044C76.2462 82.5539 75.9473 82.5946 74.8876 82.5946C74.1403 82.5946 73.529 82.5403 73.529 82.4859C73.529 82.418 73.1214 81.6437 72.6323 80.7471C72.1432 79.8641 71.491 78.6687 71.1786 78.1117C70.8797 77.5547 70.4993 76.8755 70.3226 76.6038C70.1596 76.3457 69.8064 75.7072 69.5346 75.1774C69.2629 74.6612 68.9776 74.145 68.9097 74.0363C68.7738 73.8325 67.9994 72.4333 66.9669 70.5043C66.668 69.9473 66.3147 69.336 66.1925 69.1458C66.0566 68.9556 65.7849 68.4666 65.5811 68.0591C65.092 67.081 63.91 64.9753 63.5839 64.4863L63.3258 64.1195H64.7252C65.9207 64.1195 66.1517 64.1603 66.274 64.3504ZM121.325 66.5104C121.841 67.2304 121.95 67.7194 121.569 67.57C121.338 67.4749 120.387 66.0078 120.483 65.8719C120.632 65.6274 120.795 65.7632 121.325 66.5104ZM140.97 65.8583C141.079 66.0349 140.046 67.4477 139.788 67.4885C139.422 67.5564 139.517 67.2576 140.101 66.4696C140.644 65.7632 140.834 65.6274 140.97 65.8583ZM134.123 67.1081C137.18 67.9504 140.196 70.1239 143.076 73.5337C144.041 74.6748 144.068 74.7427 143.891 75.0687C143.62 75.5849 140.93 78.0573 139.829 78.7909C139.666 78.8996 139.286 79.1577 139 79.3751C138.063 80.0407 135.713 81.1954 134.598 81.535C132.737 82.1056 132.139 82.2143 130.495 82.2143C128.43 82.2278 126.922 81.8882 124.884 80.9237C123.431 80.2445 120.836 78.1117 119.491 76.4815C119.097 75.9925 118.689 75.5034 118.58 75.3948C118.485 75.2861 118.295 75.028 118.159 74.8106C117.928 74.4438 117.928 74.4438 118.445 73.7918C119.233 72.8137 121.175 70.9118 122.126 70.1918C124.45 68.4123 127.153 67.176 129.572 66.7821C130.468 66.6462 133.118 66.8364 134.123 67.1081ZM90.1448 70.1783C90.0904 72.2024 90.104 73.1397 90.2127 73.2076C90.2942 73.2484 91.5985 73.194 93.1201 73.0718C94.6417 72.9495 95.9188 72.8816 95.9868 72.9088C96.0411 72.9359 96.0819 73.194 96.0819 73.4793C96.0819 74.0635 96.2721 74.308 96.7204 74.308H97.0329L97.0193 88.0556C97.0057 97.2253 96.965 101.613 96.8699 101.206C96.0819 97.5106 95.4162 95.1468 94.6417 93.2857C93.5413 90.6639 93.0793 89.6315 92.9707 89.5228C92.9299 89.482 92.6038 88.8843 92.2506 88.1915C91.286 86.2896 90.4572 84.9176 90.2806 84.904C90.0496 84.904 90.0225 84.7817 90.661 86.4119C91.7751 89.2239 92.631 92.0359 93.5684 95.9347C93.8809 97.2389 94.4244 100.662 94.3021 100.662C94.2613 100.662 94.1255 100.458 94.0304 100.214C93.7315 99.4803 92.5495 97.7822 91.8158 97.0215C90.9463 96.1113 89.9817 95.5951 89.153 95.5951C88.4329 95.5951 87.4819 96.0298 87.2237 96.5053C87.1286 96.6819 86.8705 97.0758 86.6531 97.4019C85.8244 98.6653 85.5119 100.499 85.9602 101.572C86.2184 102.17 86.4901 102.442 87.0879 102.686C88.0661 103.094 89.547 102.184 90.0496 100.852C90.3621 100.024 90.2399 98.6109 89.7643 97.6872C89.5741 97.3068 89.479 96.9943 89.547 96.9943C89.6149 96.9943 90.0225 97.3747 90.4708 97.8502C91.3539 98.8011 92.1555 100.227 92.8891 102.17C93.1473 102.876 93.419 103.569 93.4869 103.719C93.6771 104.14 94.044 105.213 94.044 105.322C94.044 105.376 93.6636 105.145 93.2016 104.806C92.074 103.99 91.2045 103.732 89.71 103.814C88.7046 103.868 88.3921 103.95 87.4683 104.384C86.8841 104.67 85.8244 105.308 85.1179 105.784C84.425 106.259 83.6098 106.735 83.3109 106.843C82.6996 107.061 80.5122 107.455 79.9416 107.455C79.7242 107.455 79.4389 107.577 79.2895 107.74C79.0857 107.971 79.0721 108.052 79.2079 108.283C79.3438 108.501 79.3438 108.555 79.1944 108.609C79.0993 108.65 77.8901 108.664 76.5179 108.65L74.0045 108.609L74.0452 107.835C74.1132 106.816 74.0045 106.517 73.4882 106.3L73.0534 106.123L73.5697 106.028C74.7245 105.811 75.7299 104.629 75.4174 103.827C75.2136 103.284 74.4256 102.618 73.692 102.347C72.4828 101.912 71.6677 101.477 71.5046 101.165C71.2601 100.717 71.2737 100.051 71.5318 99.6569C71.8035 99.2494 72.279 99.1 73.8686 98.8962C77.632 98.4207 80.5801 96.94 80.8111 95.4185C80.9877 94.2231 80.2269 93.014 78.9226 92.4027C77.4825 91.7235 76.8983 91.5605 74.3441 91.1529C70.9748 90.6096 70.1324 90.3243 69.1406 89.3462C68.2304 88.4632 67.4424 86.9417 67.8771 86.9417C68.2575 86.9417 68.5021 86.3847 68.5021 85.4746V84.6187L67.7277 84.6323C67.2929 84.6459 66.8718 84.6459 66.7902 84.6459C66.6951 84.6323 66.6408 84.3199 66.6544 83.7493L66.668 82.8663H75.8793C80.9334 82.8663 85.0771 82.8527 85.0771 82.8256C85.0771 82.7305 82.7539 78.5192 81.5448 76.4136C81.3681 76.1147 80.9198 75.2861 80.553 74.5797C80.1726 73.8733 79.7242 73.0718 79.5476 72.8137C79.3846 72.5556 79.2351 72.2975 79.2351 72.2295C79.2351 72.1752 78.9634 71.6454 78.6237 71.0613C78.2841 70.4771 78.0124 69.9609 78.0124 69.9201C78.0124 69.8658 78.8955 69.8251 79.9823 69.8251H81.9523L81.8708 68.6704C81.7893 67.5972 81.7893 67.5157 82.0338 67.5021C82.7132 67.4477 87.4819 67.2847 88.7726 67.2711L90.2263 67.244L90.1448 70.1783ZM34.7271 74.5797C35.3113 79.0219 35.5558 82.2278 35.8139 88.7349L35.8955 90.4737H35.2841H34.6727V89.8217C34.6727 89.4684 34.4553 86.5206 34.17 83.2739C33.6402 76.9434 33.6402 77.1472 34.0885 71.9986C34.17 71.102 34.1836 71.0341 34.2787 71.4552C34.3331 71.7133 34.5369 73.1261 34.7271 74.5797ZM47.5387 79.9728C47.2127 80.3396 45.6095 82.2143 45.1068 82.8527C44.971 83.0022 44.8623 83.2059 44.8623 83.2739C44.8623 83.3554 44.8079 83.4097 44.7536 83.4097C44.6585 83.4097 44.0064 84.3606 43.0282 85.9229C42.607 86.5885 41.6696 88.4768 41.2484 89.5092C40.8544 90.4601 40.8544 90.4737 40.3381 90.4737C39.8626 90.4737 39.8218 90.4465 39.9169 90.1613C40.2023 89.2375 42.6613 85.1078 43.6531 83.8852C44.9302 82.3229 46.4519 80.6248 47.0496 80.1086C47.8241 79.4294 48.1094 79.3479 47.5387 79.9728ZM47.7154 81.1954C47.7154 81.2633 47.5252 81.6301 47.3078 82.0376C47.0768 82.4452 46.9002 82.7984 46.9002 82.8256C46.9002 82.8391 49.1147 82.8663 51.832 82.8663H56.7501L56.6686 85.2708C56.6143 86.6021 56.6143 87.9198 56.6414 88.2051C56.7229 88.7892 56.9539 89.0202 56.9539 88.5175C56.9539 88.3273 57.0218 88.1372 57.0898 88.0964C57.2392 88.0013 57.28 87.0368 57.1441 86.901C57.0898 86.8466 57.049 85.9229 57.0354 84.8361L57.0218 82.8663H61.1656H65.3094L65.3229 83.7493L65.3365 84.6323H64.4127C63.3801 84.6323 63.4209 84.5916 63.4617 85.6512C63.4888 86.0859 63.5975 86.4662 63.7741 86.7244L64.0594 87.1183L63.7605 87.7296C62.8367 89.6315 61.4645 90.4737 58.5842 90.9356C53.503 91.7507 51.8591 92.4299 51.1526 93.965C50.8809 94.5627 50.8266 94.8344 50.8945 95.3234C51.1255 97.0623 54.0601 98.4751 58.5163 98.9777C59.9157 99.1271 60.3504 99.4939 60.3504 100.499C60.3504 101.219 59.9021 101.654 58.7744 102.021C57.606 102.415 56.6686 103.053 56.3697 103.678C56.1523 104.126 56.1523 104.221 56.3154 104.642C56.5599 105.213 57.2256 105.743 58.0272 105.974L58.6114 106.15L58.2446 106.408C57.9049 106.653 57.8914 106.735 57.9185 107.645L57.9457 108.609L55.7855 108.65C54.6035 108.677 50.1744 108.65 45.9492 108.609L38.2866 108.514L38.898 108.188C39.6452 107.821 40.3245 107.074 40.6778 106.259C40.9223 105.716 41.3027 102.455 42.4575 90.9084C42.4847 90.6231 42.444 90.4737 42.3217 90.4737C42.2266 90.4737 42.1451 90.3786 42.1451 90.2564C42.1451 89.9439 42.9331 88.599 43.2048 88.436C43.6531 88.1779 43.0417 88.2866 42.4847 88.5719C42.1994 88.7213 41.9413 88.8164 41.9141 88.7892C41.8054 88.6805 43.0417 86.4119 44.0335 84.904C45.3242 82.9207 46.5605 81.4263 47.0225 81.2497C47.4708 81.0867 47.7154 81.0731 47.7154 81.1954ZM121.284 81.2362C121.379 81.3992 120.252 82.8663 120.034 82.8663C119.735 82.8663 119.83 82.6082 120.401 81.8475C120.944 81.1003 121.121 80.978 121.284 81.2362ZM139.883 81.8339C140.373 82.5675 140.481 82.8663 140.264 82.8663C140.074 82.8663 139.014 81.5486 139.014 81.3177C139.014 80.883 139.408 81.1139 139.883 81.8339ZM116.366 83.2195C116.393 84.7138 116.42 84.904 116.733 85.3387C117.235 86.0859 117.738 86.2625 119.328 86.2625C120.36 86.2625 120.686 86.3032 120.646 86.4255C120.578 86.6157 118.485 86.7379 117.711 86.6021C117.1 86.4934 116.23 85.6783 116.053 85.067C115.986 84.7817 115.918 83.8716 115.918 83.0293C115.918 81.698 115.945 81.4943 116.135 81.535C116.312 81.5622 116.352 81.8475 116.366 83.2195ZM22.7985 82.1192C23.668 82.2414 24.85 82.4588 25.4206 82.6082C26.358 82.8527 29.6187 84.2248 29.9991 84.5236C30.0942 84.5916 30.298 84.9855 30.4746 85.4202C31.0181 86.7787 31.8196 88.3409 32.5125 89.3598C32.8793 89.9032 33.1782 90.3786 33.1782 90.4058C33.1782 90.4465 32.7299 90.4737 32.2 90.4737H31.2083L30.6784 89.4684C29.8632 87.9062 28.6948 86.6157 26.9966 85.4066C24.062 83.3146 21.8067 82.4316 19.2525 82.4044C18.4373 82.4044 17.4863 82.4316 17.1466 82.4859L16.5353 82.581L17.0651 82.3909C18.3286 81.9154 20.4481 81.8203 22.7985 82.1192ZM146.052 83.5184C146.011 85.0399 145.984 85.1621 145.63 85.624C145.005 86.4391 144.408 86.67 142.886 86.67C141.826 86.67 141.595 86.6293 141.595 86.4662C141.595 86.3032 141.813 86.2625 142.696 86.2625C144.149 86.2625 144.788 86.0587 145.236 85.461C145.576 85.0263 145.603 84.8768 145.644 83.4505C145.685 82.2007 145.725 81.9154 145.902 81.9154C146.065 81.9154 146.092 82.1599 146.052 83.5184ZM66.3419 83.8716C66.3419 84.0346 66.3691 84.2655 66.3963 84.3878C66.437 84.578 66.3419 84.6323 65.9887 84.6323C65.6354 84.6323 65.5403 84.578 65.5811 84.3878C65.6083 84.2655 65.6354 83.9531 65.6354 83.7221C65.649 83.301 65.6626 83.2874 65.9887 83.4369C66.1789 83.5184 66.3283 83.7086 66.3419 83.8716ZM130.591 84.7002C130.591 85.6376 130.55 85.8549 130.387 85.8549C130.224 85.8549 130.183 85.6376 130.183 84.7002C130.183 83.7629 130.224 83.5455 130.387 83.5455C130.55 83.5455 130.591 83.7629 130.591 84.7002ZM67.0076 85.0399C67.0484 85.0399 67.0756 85.4202 67.062 85.8821V86.7379L65.6218 86.7244C63.8964 86.7244 63.747 86.6428 63.747 85.7191C63.747 85.3795 63.7877 85.0534 63.8285 84.9991C63.8828 84.9448 66.2604 84.9719 67.0076 85.0399ZM92.4408 89.1152C95.0086 94.1823 96.3944 98.7875 96.8427 103.732C96.965 105.064 97.1688 106.436 97.2775 106.775C97.4133 107.156 97.753 107.631 98.1741 108.025L98.8399 108.677H96.8835H94.9271V105.512C94.9135 102.387 94.764 100.744 94.2342 97.8773C93.5956 94.3725 92.6446 90.8948 91.5305 87.9334C90.892 86.2489 91.1773 86.6157 92.4408 89.1152ZM66.2604 88.3953C66.2604 90.433 66.8038 91.4926 68.4478 92.7152C69.1271 93.2314 69.8607 94.0057 69.8607 94.2231C69.8607 94.6985 70.2819 94.5491 71.3959 93.6933C71.8443 93.3401 72.3062 93.2721 72.3062 93.5574C72.3062 93.6389 70.9068 94.5899 70.1596 95.0382C70.0781 95.0789 70.309 96.1793 70.4041 96.1793C70.4585 96.1793 70.6759 96.0298 70.8797 95.8532C71.328 95.4593 71.722 95.337 71.8443 95.5272C71.953 95.6902 71.5182 96.0706 70.7846 96.451C70.4449 96.6276 70.1596 96.9536 69.9015 97.429C69.6026 97.986 69.3037 98.2985 68.57 98.7875C67.2522 99.6705 66.7359 100.295 66.7359 100.975C66.7359 101.437 66.831 101.6 67.4696 102.252C68.5021 103.27 68.57 103.827 67.9043 105.322L67.619 105.974L62.9997 105.933C58.625 105.892 58.3533 105.879 57.7555 105.607C56.886 105.199 56.5463 104.792 56.5463 104.167C56.5463 103.719 56.6278 103.596 57.1985 103.135C57.5789 102.849 58.2174 102.51 58.6929 102.36C60.0923 101.953 60.8124 101.07 60.6493 100.024C60.6086 99.7792 59.9157 98.8962 59.7526 98.8962C59.7255 98.8962 58.9103 98.7739 57.9593 98.6245C54.8481 98.1626 52.9053 97.4562 51.832 96.4102C50.8809 95.5 50.9081 94.3725 51.8863 93.3944C52.8645 92.4163 54.1008 92.0088 58.3125 91.2752C60.7988 90.8405 61.5868 90.5552 62.565 89.7266C63.0948 89.2647 64.0459 87.9334 64.2089 87.3764C64.304 87.1047 64.3855 87.0776 65.2822 87.0776H66.2604V88.3953ZM42.1451 91.0443C42.1451 91.2209 42.05 92.3212 41.9141 93.4895L41.6831 95.6359H34.3874H27.0917L27.0102 95.0517C26.8607 94.0193 26.6569 91.9137 26.6569 91.316V90.7454H34.401H42.1451V91.0443ZM137.411 95.1197C136.242 96.3151 135.957 96.6547 135.223 97.7415C133.376 100.499 132.031 104.303 131.732 107.618L131.637 108.677H130.264C128.77 108.664 128.824 108.718 129.748 108.039C130.251 107.685 130.686 106.789 130.862 105.824C131.555 101.912 133.253 98.2985 135.4 96.1793C136.202 95.3778 137.778 94.2774 138.104 94.2774C138.172 94.2774 137.859 94.6578 137.411 95.1197ZM90.2942 96.1793C91.5577 96.8042 93.0658 98.7196 94.0983 101.002C94.5059 101.898 94.7233 103.406 94.7097 105.213L94.6961 106.3L94.2613 105.009C94.0168 104.303 93.7587 103.596 93.7043 103.447C93.65 103.298 93.3375 102.523 93.0114 101.708C92.6989 100.907 92.2098 99.8471 91.9381 99.3581C91.286 98.1898 90.0904 96.9264 89.3024 96.5732C88.7726 96.3423 88.5552 96.2744 88.0661 96.1928C88.0253 96.1793 88.0932 96.1113 88.2019 96.0434C88.5552 95.8125 89.71 95.894 90.2942 96.1793ZM41.3027 99.1271L41.262 99.7792L34.3874 99.8199L27.4993 99.8471L27.4449 99.2766C27.4041 98.9505 27.4041 98.6517 27.4313 98.5837C27.4585 98.5294 30.6105 98.4887 34.4146 98.4887H41.3435L41.3027 99.1271ZM41.0582 101.504C41.0582 102.686 40.6098 105.77 40.3789 106.286C40.012 107.061 39.3735 107.699 38.6127 108.052C38.0556 108.31 37.716 108.338 34.6048 108.378C31.412 108.419 31.1403 108.405 30.4338 108.134C29.3062 107.713 28.5046 106.857 28.2329 105.784C28.0019 104.901 27.6079 101.382 27.7302 101.274C27.7574 101.233 30.7735 101.206 34.4282 101.206H41.0582V101.504ZM135.386 104.004C135.074 104.262 134.639 104.792 134.408 105.186C134.014 105.906 133.498 107.455 133.416 108.202C133.376 108.596 133.349 108.609 132.669 108.65L131.963 108.691L132.044 108.175C132.37 106.015 134.232 103.529 135.549 103.529L135.957 103.515L135.386 104.004ZM92.2778 104.561C93.5684 105.199 94.3157 106.015 94.5195 107.006C94.6146 107.441 94.6553 107.998 94.6146 108.242C94.5602 108.677 94.5331 108.691 94.0032 108.65C93.582 108.623 93.419 108.541 93.3647 108.338C93.0929 107.332 92.0876 106.341 90.8512 105.879C89.7779 105.471 87.7264 105.539 86.5716 106.015C85.3217 106.544 84.2212 106.925 84.1669 106.857C84.1397 106.83 84.3299 106.667 84.6016 106.504C84.8598 106.341 85.1587 106.123 85.2673 106.028C85.5526 105.729 86.8705 104.955 87.5906 104.642C88.7861 104.126 89.0579 104.072 90.2399 104.099C91.2316 104.126 91.5305 104.194 92.2778 104.561ZM91.1229 106.3C91.9245 106.667 92.4 107.074 92.8076 107.726C93.4054 108.731 93.6364 108.677 88.5416 108.677C86.0417 108.677 83.9902 108.65 83.9902 108.623C83.9902 108.582 84.2212 108.487 84.5065 108.405C85.3217 108.134 86.1369 107.455 86.3814 106.816C86.5852 106.273 86.6395 106.232 87.3732 106.082C87.7944 106.001 88.2019 105.906 88.2699 105.879C88.6503 105.743 90.498 106.015 91.1229 106.3ZM69.5618 107.55L69.6026 108.541H63.9779C58.9647 108.541 58.3261 108.514 58.2582 108.324C58.1087 107.957 58.1767 106.83 58.3397 106.667C58.462 106.544 59.8478 106.504 64.0187 106.531L69.5211 106.572L69.5618 107.55Z" fill="#0F53D9"/>
<path d="M78.5018 53.6998C78.2028 53.9581 78.0261 54.1891 78.0941 54.2299C78.162 54.2707 78.4882 54.0668 78.828 53.7814C79.1678 53.496 79.3445 53.2513 79.2357 53.2513C79.127 53.2513 78.7872 53.4552 78.5018 53.6998Z" fill="#0F53D9"/>
<path d="M78.624 58.4272C78.0804 58.835 77.8765 59.0932 78.1076 59.0932C78.2979 59.0932 79.3716 58.2642 79.3716 58.1282C79.3716 57.9244 79.1949 57.9923 78.624 58.4272Z" fill="#0F53D9"/>
<path d="M44.4814 18.4749C44.5493 18.7059 44.6717 18.9234 44.7396 18.9641C44.9027 19.0593 44.8891 18.6516 44.726 18.3254C44.495 17.9176 44.3183 18.0264 44.4814 18.4749Z" fill="#0F53D9"/>
<path d="M48.3132 18.7876C48.3947 19.3581 48.3947 19.3853 47.9328 19.6026C47.0905 19.9966 46.7508 21.029 47.1584 21.9528C47.3894 22.469 47.5524 22.6184 48.0958 22.8494L48.7616 23.1346L48.8567 24.3029C48.9789 25.8923 49.0876 26.49 49.2507 26.49C49.3865 26.49 49.305 24.5203 49.1284 23.5422C49.0469 23.1482 49.0876 23.0939 49.6175 22.8222C50.9625 22.143 50.9625 20.2411 49.6175 19.5619C49.3322 19.4124 48.9925 19.2902 48.8702 19.2902C48.7208 19.2902 48.6664 19.1408 48.6664 18.7468C48.6664 18.3393 48.6121 18.2034 48.4491 18.2034C48.2725 18.2034 48.2453 18.2985 48.3132 18.7876ZM49.7262 19.9287C49.9028 20.0373 50.1337 20.3362 50.2424 20.6079C50.6636 21.5996 49.93 22.6999 48.8159 22.7407C48.1094 22.7543 47.5796 22.3603 47.3214 21.6403C47.1448 21.1513 47.1584 21.0562 47.3894 20.5671C47.8377 19.657 48.8431 19.3717 49.7262 19.9287Z" fill="#0F53D9"/>
<path d="M54.7937 18.6243C54.6034 19.1815 54.6986 19.2767 54.9976 18.8146C55.1471 18.5699 55.1878 18.4204 55.0927 18.3253C54.9976 18.2302 54.9024 18.3253 54.7937 18.6243Z" fill="#0F53D9"/>
<path d="M36.7104 25.4574C36.7104 25.5797 37.5395 25.9739 37.6346 25.8923C37.6754 25.838 37.6482 25.7564 37.5803 25.6885C37.4308 25.5254 36.7104 25.3487 36.7104 25.4574Z" fill="#0F53D9"/>
<path d="M61.9538 25.9872C61.5868 26.1232 61.4373 26.3542 61.7091 26.3542C61.9266 26.3542 62.5246 26.0416 62.5246 25.9193C62.5246 25.7834 62.4295 25.797 61.9538 25.9872Z" fill="#0F53D9"/>
<path d="M49.5357 27.2915C49.8074 29.8862 49.7802 29.7639 50.1063 29.8862C50.772 30.1443 50.935 31.2583 50.3644 31.7881C49.9025 32.2228 49.0194 32.1141 48.5303 31.5435C48.245 31.2039 48.0004 31.0952 47.063 30.9186C46.4516 30.7964 45.7859 30.7013 45.5957 30.7013C45.2425 30.7013 45.2425 30.7149 45.2968 31.4213C45.4191 32.8612 46.4245 34.2333 47.851 34.8854C48.9379 35.388 50.3508 35.388 51.397 34.8718C52.6333 34.274 53.3941 33.4046 53.7474 32.1684C54.0191 31.2039 54.0191 30.6741 53.7474 29.7368C53.2447 28.0659 51.9132 26.9112 50.1335 26.6395L49.4542 26.5308L49.5357 27.2915Z" fill="#0F53D9"/>
<path d="M48.2451 26.7617C47.0496 27.1149 45.7725 28.4734 45.3921 29.7775C45.2698 30.2122 45.1611 30.1579 47.0632 30.4975L48.2451 30.7149L48.7886 30.1715L49.332 29.6281L49.1962 28.2425C49.1282 27.4817 49.0331 26.8025 48.9924 26.7482C48.9109 26.6123 48.7342 26.6123 48.2451 26.7617Z" fill="#0F53D9"/>
<path d="M40.2157 28.3376C40.0119 28.4462 39.781 28.65 39.6994 28.7994C39.6179 28.9625 39.4141 29.0711 39.2239 29.0711C39.0066 29.0711 38.8843 29.1526 38.8843 29.2749C38.8843 29.3836 38.993 29.4787 39.1288 29.4787C39.3054 29.4787 39.4141 29.6281 39.5092 29.9813C39.6587 30.6198 40.338 31.1088 41.0716 31.1088C41.4928 31.1088 41.6558 31.0273 42.0363 30.579L42.4982 30.0492L43.3677 30.2258C45.0795 30.5654 45.1339 30.5654 45.1339 30.3753C45.1339 30.2666 44.672 30.1172 43.7753 29.9541C42.4982 29.7232 42.4167 29.6824 42.4167 29.37C42.4167 29.1798 42.2265 28.8538 41.9547 28.5821C41.4385 28.0659 40.8543 27.9844 40.2157 28.3376ZM41.5064 28.5413C41.9004 28.7179 42.1449 29.1934 42.1449 29.764C42.1449 30.3209 41.5743 30.8371 40.963 30.8371C40.338 30.8371 39.6994 30.2122 39.6994 29.6145C39.6994 29.3157 39.8217 29.0576 40.0934 28.7859C40.5146 28.3647 40.963 28.2968 41.5064 28.5413Z" fill="#0F53D9"/>
<path d="M37.1858 35.7274C37.145 35.7954 36.9819 35.8633 36.8324 35.8633C36.6965 35.8633 36.5742 35.9177 36.5742 35.9992C36.5742 36.1895 37.0227 36.1623 37.3217 35.9585C37.4712 35.8361 37.512 35.741 37.4169 35.6731C37.3353 35.6323 37.2402 35.6459 37.1858 35.7274Z" fill="#0F53D9"/>
<path d="M44.02 43.3348C43.8433 43.7697 43.8297 43.8784 43.9792 43.8784C44.1287 43.8784 44.4549 43.226 44.4549 42.9134C44.4549 42.6144 44.2375 42.8455 44.02 43.3348Z" fill="#0F53D9"/>
<path d="M54.2368 43.1852C54.2368 43.2532 54.2912 43.4706 54.3727 43.6609C54.5766 44.2045 54.7805 44.0958 54.6038 43.5386C54.4815 43.1037 54.2368 42.8862 54.2368 43.1852Z" fill="#0F53D9"/>
<path d="M101.557 57.7347C101.394 57.8026 101.149 58.0608 101.027 58.3053C100.837 58.6856 100.81 59.066 100.864 61.0765C100.946 63.5354 101.027 63.9157 101.598 64.1195C102.06 64.2961 108.051 64.2961 108.513 64.1195C109.315 63.8071 109.383 63.5897 109.396 61.1173C109.396 58.4004 109.355 58.1151 108.853 57.8298C108.527 57.626 108.01 57.5989 105.157 57.6125C103.35 57.6125 101.72 57.6668 101.557 57.7347ZM108.88 58.1151C109.084 58.3189 109.22 62.0954 109.056 63.1142C108.975 63.6576 108.934 63.7255 108.459 63.8614C107.698 64.0923 101.774 63.9837 101.475 63.7255C101.272 63.5625 101.244 63.1957 101.244 60.9407C101.244 59.5143 101.299 58.2781 101.353 58.1966C101.543 57.9113 101.883 57.8842 105.28 57.9113C107.875 57.9385 108.744 57.9792 108.88 58.1151Z" fill="#0F53D9"/>
<path d="M101.231 67.4613C100.905 67.8009 100.905 67.8417 100.905 70.4092C100.905 73.9412 100.484 73.6288 105.09 73.6288C109.736 73.6288 109.315 73.9412 109.369 70.4635L109.41 67.8553L109.057 67.4749L108.704 67.1081H105.13H101.557L101.231 67.4613ZM108.799 67.57C109.043 67.7466 109.057 67.9504 109.057 70.3413C109.057 72.311 109.016 72.9631 108.867 73.1261C108.704 73.3299 108.269 73.3571 105.13 73.3571C102.549 73.3571 101.53 73.3163 101.408 73.194C101.285 73.0718 101.245 72.2703 101.245 70.4228C101.245 68.2221 101.285 67.7738 101.462 67.5972C101.761 67.2847 108.377 67.2711 108.799 67.57Z" fill="#0F53D9"/>
<path d="M104.179 69.9745C103.677 70.8711 103.269 71.6182 103.296 71.6454C103.378 71.6997 106.869 71.4552 106.924 71.3873C106.992 71.333 106.557 70.5586 105.837 69.4583C105.592 69.0779 105.334 68.6704 105.253 68.5481C105.144 68.3851 104.927 68.6704 104.179 69.9745Z" fill="#0F53D9"/>
<path d="M101.38 77.0249C101.122 77.283 101.108 77.4732 101.108 79.8641V82.4452L101.462 82.7169C101.801 82.9886 101.991 83.0022 105.076 83.0022C108.268 83.0022 108.744 82.9478 109.016 82.5403C109.07 82.4588 109.124 81.2497 109.124 79.8369C109.124 77.4732 109.111 77.283 108.852 77.0249C108.594 76.7668 108.404 76.7532 105.116 76.7532C101.828 76.7532 101.638 76.7668 101.38 77.0249Z" fill="#0F53D9"/>
<path d="M101.584 86.1266C100.946 86.3847 100.905 86.5613 100.905 89.3326C100.905 92.9054 100.484 92.5793 105.117 92.5793C109.709 92.5793 109.315 92.851 109.369 89.6043C109.423 86.9689 109.288 86.3712 108.649 86.1266C108.214 85.9636 101.978 85.9636 101.584 86.1266ZM108.527 86.344C109.029 86.4798 109.125 86.9689 109.125 89.319C109.125 91.6692 109.029 92.1582 108.527 92.2941C108.377 92.3348 106.801 92.3756 105.035 92.3756C102.168 92.3756 101.788 92.3484 101.53 92.131C101.272 91.9137 101.258 91.7507 101.231 89.3869C101.217 88.0013 101.258 86.7651 101.313 86.6429C101.367 86.5206 101.503 86.3847 101.625 86.3576C101.965 86.2625 108.201 86.2489 108.527 86.344Z" fill="#0F53D9"/>
<path d="M104.546 88.2594C104.084 88.4904 103.88 88.993 103.989 89.6722C104.043 90.1069 104.873 90.6503 105.321 90.5416C106.49 90.2428 106.707 88.7349 105.647 88.2322C105.131 87.9877 105.104 87.9877 104.546 88.2594Z" fill="#0F53D9"/>
<path d="M113.689 93.965L112.915 95.1604L111.733 95.4457C110.035 95.8668 109.138 96.2336 107.983 96.9943C106.856 97.7279 106.407 98.38 106.407 99.263C106.421 100.173 107.1 100.662 108.119 100.472C108.744 100.35 110.293 98.8826 111.842 96.94L112.983 95.5H113.676C114.097 95.5 114.491 95.5815 114.681 95.731L115.007 95.9483L114.355 96.2064C113.146 96.6819 112.263 97.7415 112.249 98.7332C112.249 99.1 112.317 99.2086 112.711 99.3988C113.146 99.6026 113.2 99.589 113.689 99.3581C114.382 99.0185 115.048 98.0132 115.265 96.9808L115.428 96.1793H116.257C117.263 96.1793 117.684 96.4238 117.684 97.0079C117.684 97.2389 117.561 97.5785 117.412 97.7687C117.032 98.2577 117.222 98.3664 117.629 97.9045C118.01 97.4698 118.051 96.8585 117.738 96.3966C117.507 96.0162 116.434 95.7038 115.754 95.7989C115.456 95.8532 115.184 95.7717 114.858 95.5544C114.6 95.3778 114.219 95.2283 114.029 95.2283C113.39 95.2283 113.309 95.0653 113.662 94.5491C114.26 93.6389 114.722 92.7831 114.6 92.7831C114.518 92.7831 114.111 93.3129 113.689 93.965ZM112.358 95.8668C112.249 96.0027 111.679 96.6955 111.081 97.4019C109.749 99.0049 109.315 99.4396 108.703 99.9015C107.752 100.594 106.679 100.241 106.679 99.2222C106.679 98.6109 106.856 98.2577 107.481 97.7007C108.418 96.8449 111.094 95.6766 112.168 95.6495C112.535 95.6359 112.548 95.6495 112.358 95.8668ZM114.966 97.0894C114.695 97.9045 114.274 98.6788 113.961 98.8962C113.227 99.426 112.521 99.3037 112.521 98.6517C112.521 97.8094 113.499 96.7498 114.559 96.451C115.048 96.3151 115.157 96.4917 114.966 97.0894Z" fill="#0F53D9"/>
<path d="M120.931 94.7121C120.455 95.4864 119.885 96.3966 119.64 96.7362C119.205 97.3611 118.771 98.1355 118.771 98.2849C118.771 98.543 119.26 97.9453 119.925 96.8313C119.993 96.7091 120.51 95.894 121.053 95.0246C122.086 93.3672 122.099 93.3265 121.909 93.3265C121.841 93.3265 121.393 93.9514 120.931 94.7121Z" fill="#0F53D9"/>
<path d="M119.45 95.6358C119.45 95.7038 119.518 95.7717 119.586 95.7717C119.668 95.7717 119.722 95.7038 119.722 95.6358C119.722 95.5543 119.668 95.4999 119.586 95.4999C119.518 95.4999 119.45 95.5543 119.45 95.6358Z" fill="#0F53D9"/>
<path d="M60.0522 53.7134C59.7668 53.9581 59.5765 54.1891 59.6173 54.2435C59.6989 54.325 60.8677 53.5096 60.8813 53.3465C60.9084 53.129 60.5279 53.2921 60.0522 53.7134Z" fill="#0F53D9"/>
<path d="M128.688 69.2681C126.773 70.0152 125.577 71.3465 125.088 73.2891C124.816 74.3352 124.83 75.0144 125.129 75.9381C125.469 76.9842 125.767 77.514 126.487 78.2747C129.517 81.5214 134.829 80 135.889 75.5985C136.039 74.9736 136.039 74.6069 135.916 73.7646C135.617 71.6726 134.232 69.9881 132.221 69.2409C131.378 68.9285 129.504 68.9421 128.688 69.2681ZM133.484 70.2054C134.558 70.9254 135.468 72.3382 135.522 73.3571C135.549 73.7782 135.495 73.8597 135.074 74.0771C134.354 74.4438 133.158 74.3216 132.506 73.8054C132.234 73.588 131.908 73.1941 131.786 72.9359C131.46 72.3246 131.46 71.0341 131.772 70.5315C132.357 69.6077 132.56 69.567 133.484 70.2054Z" fill="#0F53D9"/>
<path d="M146.228 4.95839C145.834 5.14857 144.91 5.7463 144.19 6.28968C141.432 8.36813 141.093 8.50398 138.946 8.43606C135.006 8.30021 134.517 8.32738 133.81 8.69416C133.131 9.03378 132.574 9.61792 132.167 10.4194L131.936 10.8677H141.514H151.078L151.173 10.2021C151.282 9.42773 151.16 8.23229 150.888 7.28136C150.25 5.0399 148.225 4.03463 146.228 4.95839Z" fill="#0F53D9"/>
<path d="M109.369 6.61572L109.329 7.81117L106.706 7.85193C105.035 7.86551 104.111 7.93344 104.166 8.01494C104.275 8.20513 114.79 8.19154 114.899 8.01494C114.953 7.91985 114.057 7.8791 112.331 7.8791H109.668V6.65648C109.668 5.08066 109.424 5.05349 109.369 6.61572Z" fill="#0F53D9"/>
<path d="M20.4077 8.43607C20.4077 8.47682 20.0002 9.67227 19.5111 11.0851C17.8536 15.8125 17.6905 16.3423 17.7313 16.3831C17.7585 16.4103 19.1307 16.5597 20.7746 16.7363C24.1303 17.0623 23.7771 17.1302 24.6194 16.0299C24.8776 15.6903 25.1221 15.3914 25.1629 15.3506C25.2036 15.3099 25.4482 15.0246 25.6927 14.6986L26.1547 14.1144L23.2744 11.2345C21.6984 9.6451 20.4077 8.39531 20.4077 8.43607ZM21.318 11.2073C21.6984 12.1718 22.337 13.7884 22.731 14.7665C23.125 15.7582 23.4239 16.6004 23.3831 16.6276C23.3288 16.6955 19.7828 16.3831 18.6823 16.2201C18.3562 16.1793 18.0981 16.0978 18.0981 16.0435C18.0981 15.9891 18.3155 15.3371 18.5872 14.5899C18.8589 13.8563 19.3888 12.3349 19.7692 11.2345C20.1496 10.1341 20.4893 9.27831 20.5436 9.33265C20.5844 9.38699 20.9376 10.2292 21.318 11.2073Z" fill="#0F53D9"/>
<path d="M119.789 15.3642C118.893 16.2472 118.118 16.9808 118.064 16.9808C117.996 16.9808 117.955 16.8314 117.955 16.6412V16.3016L114.464 16.3287L110.958 16.3695V19.8336V23.2977L114.464 23.3384L117.955 23.3656V20.4449V17.5106L119.817 15.7038C120.836 14.7122 121.624 13.8699 121.542 13.8292C121.474 13.7884 120.686 14.4676 119.789 15.3642ZM117.684 16.9944C117.684 17.3476 117.453 17.6329 116.176 18.8555C115.347 19.657 114.586 20.3226 114.504 20.3498C114.409 20.377 113.88 19.983 113.336 19.494C112.793 19.0049 112.304 18.6381 112.263 18.6925C112.168 18.7876 114.26 20.7845 114.464 20.7845C114.532 20.7845 115.007 20.377 115.51 19.8607C116.013 19.3581 116.719 18.6789 117.059 18.3393L117.684 17.7415V20.4177V23.0939H114.423H111.162V19.8336V16.5733H114.423H117.684V16.9944Z" fill="#0F53D9"/>
<path d="M155.779 21.3958C155.412 21.6539 154.774 22.1022 154.366 22.4146C153.578 22.9852 152.872 23.4878 152.07 24.0448C150.888 24.8599 149.747 25.7293 149.747 25.8244C149.747 25.8787 150.073 26.1912 150.467 26.5172C151.907 27.6991 154.027 29.5466 154.067 29.6417C154.163 29.8454 154.692 29.7504 156.255 29.2613C157.124 28.9896 157.844 28.7587 157.872 28.7315C157.939 28.6636 156.608 21.0834 156.513 20.9747C156.486 20.9475 156.16 21.1377 155.779 21.3958ZM155.997 21.7898C155.997 22.0207 155.766 23.0531 155.114 25.7429C154.869 26.7889 154.584 27.9708 154.502 28.3647C154.407 28.7451 154.285 29.1119 154.217 29.1526C154.04 29.2613 150.223 26.0417 150.223 25.7972C150.223 25.7157 151.011 25.1316 154.91 22.3467C155.317 22.0479 155.684 21.7626 155.698 21.7082C155.779 21.5181 155.997 21.586 155.997 21.7898Z" fill="#0F53D9"/>
<path d="M133.24 24.2757C132.67 24.3573 131.175 24.8463 130.523 25.1723C130.238 25.3218 129.681 25.5391 129.3 25.675C128.635 25.9059 128.58 25.9059 127.928 25.6478C127.453 25.4576 126.896 25.3761 125.972 25.3625C124.572 25.3353 124.192 25.4576 123.499 26.1368C122.779 26.8568 121.801 29.3836 121.094 32.3722L120.85 33.3503L119.437 33.4454C116.258 33.6491 114.193 34.4099 112.875 35.8634C111.815 37.0317 111.598 38.7026 112.372 39.6943C112.725 40.129 114.084 40.849 115.035 41.1071C116.624 41.5147 118.187 41.5826 123.187 41.4467C128.499 41.2973 130.632 41.0528 133.444 40.2513C135.02 39.803 135.183 39.803 137.724 40.2513C140.02 40.6724 142.683 40.7675 143.837 40.4822C145.821 39.9932 146.555 38.8113 145.739 37.4257C145.4 36.8415 144.408 36.0944 143.498 35.714C142.968 35.4967 141.338 35.4695 139.965 35.6325L139.082 35.7412L139.123 33.459C139.205 29.6824 138.797 27.1421 137.941 25.9195C137.017 24.6154 135.265 24.0041 133.24 24.2757ZM135.536 24.6561C137.289 25.1859 138.131 26.2048 138.552 28.3376C138.797 29.5194 138.906 35.6053 138.702 35.8227C138.634 35.877 138.023 35.9178 137.343 35.9178C134.871 35.877 121.543 35.4423 121.135 35.3744L120.7 35.3201L120.89 34.5322C121.801 30.6198 121.977 29.9813 122.534 28.5277C123.254 26.6531 123.73 26.0418 124.735 25.7021C125.428 25.4576 126.379 25.4848 126.379 25.7565C126.379 26.1368 125.659 26.8976 125.197 26.9791C124.763 27.0606 124.572 27.3051 124.939 27.3051C125.51 27.3051 128.73 26.2455 130.591 25.444C132.819 24.4931 134.232 24.2622 135.536 24.6561ZM120.7 33.7578C120.741 33.7986 120.7 34.1518 120.605 34.5457C120.496 35.062 120.374 35.2657 120.184 35.3065C120.048 35.3336 119.858 35.4016 119.79 35.4695C119.6 35.6053 119.545 37.1812 119.708 37.2898C119.79 37.3306 121.57 37.4257 123.689 37.5072C125.809 37.5887 128.417 37.6838 129.504 37.7381L131.474 37.8332L130.591 38.1457C130.102 38.3223 129.096 38.6755 128.349 38.9336C127.602 39.1917 126.08 39.7487 124.953 40.1562C121.869 41.2973 119.708 41.5418 116.652 41.0935C114.41 40.7539 113.011 40.1562 112.44 39.2732C112.073 38.7434 112.141 37.643 112.589 36.7329C113.445 34.994 116.298 33.785 119.736 33.7035C120.225 33.7035 120.66 33.7171 120.7 33.7578ZM143.851 36.1895C145.114 36.7736 145.807 37.5615 145.807 38.4309C145.807 39.3547 145.345 39.7758 143.96 40.1426C142.791 40.4415 138.607 40.4007 138.607 40.0883C138.607 39.966 140.781 39.2596 141.147 39.2596C141.31 39.2596 141.46 39.3411 141.501 39.4226C141.528 39.5177 141.596 39.5585 141.65 39.5177C141.854 39.3275 141.541 39.0015 140.984 38.8521C139.802 38.526 137.588 38.7977 134.572 39.6671C131.229 40.6181 127.561 41.1615 124.477 41.1479C123.2 41.1479 123.187 41.1479 123.662 40.9441C124.341 40.6452 130.102 38.5804 131.066 38.2951C139.897 35.6461 141.922 35.3065 143.851 36.1895Z" fill="#0F53D9"/>
<path d="M134.707 27.6989C134.367 27.9843 134.313 28.1202 134.544 28.1202C134.68 28.1202 135.21 27.6173 135.21 27.4814C135.21 27.3727 134.979 27.4678 134.707 27.6989Z" fill="#0F53D9"/>
<path d="M136.759 28.0385C136.541 28.2152 136.419 28.419 136.473 28.4734C136.528 28.5278 136.745 28.419 136.935 28.2152C137.411 27.7531 137.262 27.6036 136.759 28.0385Z" fill="#0F53D9"/>
<path d="M134.734 29.6822C134.517 29.8589 134.381 30.0492 134.435 30.1171C134.49 30.1715 134.707 30.0492 134.897 29.8453C135.373 29.3832 135.264 29.2745 134.734 29.6822Z" fill="#0F53D9"/>
<path d="M115.238 36.4067C115.061 36.5562 114.966 36.7193 115.021 36.7736C115.061 36.828 115.279 36.7057 115.483 36.5018C115.904 36.0805 115.7 35.9989 115.238 36.4067Z" fill="#0F53D9"/>
<path d="M117.29 36.7327C117.1 36.9229 117.005 37.1268 117.059 37.1812C117.181 37.3035 117.725 36.7462 117.657 36.5424C117.63 36.4608 117.48 36.5288 117.29 36.7327Z" fill="#0F53D9"/>
<path d="M115.238 38.3764C114.803 38.8385 115.021 39.0016 115.455 38.5531C115.646 38.3628 115.754 38.1726 115.673 38.1318C115.605 38.0774 115.401 38.1997 115.238 38.3764Z" fill="#0F53D9"/>
<path d="M142.818 37.4255C142.397 37.874 142.56 38.0099 143.008 37.575C143.212 37.3983 143.321 37.208 143.253 37.1673C143.185 37.1265 142.981 37.2488 142.818 37.4255Z" fill="#0F53D9"/>
<path d="M12.2554 28.5277C12.2554 28.6092 13.0434 28.6636 14.3612 28.6636H16.4671V29.9405C16.4671 30.6469 16.5214 31.2583 16.5893 31.3126C16.7524 31.4077 16.8882 30.4432 16.8475 29.4787L16.8067 28.7315L18.9533 28.6908C20.2983 28.6772 21.0727 28.6092 21.0184 28.5277C20.9097 28.3376 12.2554 28.3511 12.2554 28.5277Z" fill="#0F53D9"/>
<path d="M13.8859 41.5282C13.5463 41.6505 12.6224 42.2211 11.8344 42.8052C11.0464 43.4029 10.3264 43.8784 10.2313 43.8784C10.1497 43.8784 10.0818 43.9327 10.0818 44.0007C10.0818 44.055 9.7014 44.2859 9.23947 44.4897C8.28844 44.9108 7.73141 44.9516 5.16364 44.7614C3.30235 44.6391 2.5687 44.775 1.88939 45.427C1.44105 45.8346 0.843262 46.6225 0.843262 46.7855C0.843262 46.8263 4.67454 46.867 9.34816 46.867H17.8531L17.7987 45.3999C17.758 44.1637 17.69 43.8241 17.3775 43.1856C16.9156 42.2346 16.4129 41.7728 15.5027 41.5147C14.6603 41.2566 14.6739 41.2566 13.8859 41.5282Z" fill="#0F53D9"/>
<path d="M26.9287 46.581C26.9287 46.7849 28.4917 48.2255 28.546 48.0625C28.5732 47.9809 28.2334 47.5868 27.7985 47.1926C26.9423 46.4044 26.9287 46.3908 26.9287 46.581Z" fill="#0F53D9"/>
<path d="M164.081 47.4376C163.51 49.0134 163.374 49.4617 163.483 49.5296C163.551 49.5704 163.632 49.516 163.673 49.4209C163.7 49.3258 163.877 48.8368 164.053 48.3206C164.244 47.8179 164.339 47.3697 164.271 47.3289C164.203 47.2881 164.121 47.3425 164.081 47.4376Z" fill="#0F53D9"/>
<path d="M147.369 47.8315C146.785 48.1847 146.242 49.027 146.282 49.516C146.296 49.6654 146.31 49.9236 146.323 50.0866C146.364 50.5756 147.125 51.3228 147.736 51.4994C148.891 51.8118 150.154 50.8745 150.154 49.7198C150.154 49.027 149.856 48.3749 149.38 48.0353C148.945 47.7228 147.763 47.6006 147.369 47.8315ZM149 48.1168C149.57 48.3749 149.924 49.0949 149.842 49.8013C149.679 51.282 148.117 51.7847 147.002 50.7115C146.31 50.0458 146.541 48.633 147.424 48.1576C147.858 47.9266 148.538 47.8994 149 48.1168Z" fill="#0F53D9"/>
<path d="M32.4984 48.7553C31.0175 49.5432 30.6779 51.3635 31.7783 52.5726C31.955 52.7627 32.0908 52.9393 32.0908 52.9937C32.0908 53.0344 31.7376 53.8903 31.2892 54.8955C30.8545 55.9008 30.4469 56.8517 30.4061 57.0147L30.311 57.3272H33.3C35.6096 57.3272 36.3025 57.2864 36.3025 57.1506C36.3025 57.0691 35.9629 56.1317 35.5553 55.0857L34.8216 53.1975L35.3515 52.6269C36.5199 51.3499 36.0444 49.2307 34.4412 48.6194C33.9114 48.4292 33.0147 48.4836 32.4984 48.7553ZM34.3869 48.9455C35.5281 49.353 36.0987 50.9152 35.4873 52.002C35.3243 52.3009 35.039 52.6269 34.8624 52.722C34.6858 52.8171 34.5363 52.9529 34.5363 53.0344C34.5499 53.1159 34.876 54.0397 35.27 55.0857L35.99 56.9876L33.4087 57.0283C31.9957 57.0419 30.8001 57.0283 30.7594 56.9876C30.7186 56.9468 30.8409 56.5664 31.0447 56.1317C31.2485 55.7106 31.6561 54.8004 31.955 54.1348L32.4984 52.9122L32.1452 52.6133C31.099 51.676 31.2077 50.0322 32.3761 49.19C33.0011 48.7281 33.5717 48.6602 34.3869 48.9455Z" fill="#0F53D9"/>
<path d="M26.4939 49.6789C26.1271 49.7061 25.8418 49.8012 25.8418 49.8828C25.8418 49.9779 26.1407 50.0051 26.7657 49.9507C27.2683 49.8964 27.8797 49.8556 28.1243 49.8556C28.3552 49.8556 28.559 49.7876 28.559 49.7197C28.559 49.5838 27.8525 49.5702 26.4939 49.6789Z" fill="#0F53D9"/>
<path d="M166.227 50.7655C165.466 51.0645 165.126 51.3499 165.507 51.3499C165.684 51.3499 167.41 50.5481 167.41 50.4665C167.41 50.3306 167.056 50.4122 166.227 50.7655Z" fill="#0F53D9"/>
<path d="M160.412 51.0647C159.733 51.2413 159.216 51.5673 158.51 52.2601C155.942 54.7597 156.187 59.3377 158.918 60.0305C160.833 60.506 162.627 59.5687 163.673 57.531C164.189 56.5121 164.216 56.417 164.216 55.1672C164.216 53.7273 164.012 53.0616 163.292 52.1514C162.64 51.3092 161.336 50.8201 160.412 51.0647ZM162.015 51.4043C162.613 51.6488 163.292 52.4503 163.496 53.1431C163.876 54.5016 163.55 56.5393 162.762 57.7211C160.983 60.3837 158.197 60.6283 157.219 58.2102C156.961 57.5717 156.92 57.2729 156.975 56.1997C157.015 55.0721 157.083 54.8412 157.559 53.8767C158.605 51.7982 160.48 50.7522 162.015 51.4043Z" fill="#0F53D9"/>
<path d="M160.956 52.5861C160.888 52.6948 160.562 52.8714 160.249 52.9529C159.638 53.1295 159.121 53.6593 159.121 54.094C159.121 54.5695 159.556 55.1265 160.168 55.4389C160.847 55.7921 161.078 56.1181 160.942 56.5529C160.616 57.626 159.352 57.7347 158.551 56.7295C158.429 56.58 158.279 56.4849 158.238 56.5393C158.184 56.58 158.361 56.8517 158.619 57.1506C158.877 57.4359 159.054 57.7483 159.026 57.8298C158.958 58.0336 159.04 58.0472 159.366 57.8841C159.488 57.8162 159.842 57.7075 160.127 57.6396C160.765 57.5038 161.214 56.974 161.214 56.3219C161.214 55.7921 161.024 55.5748 160.222 55.1672C159.393 54.7325 159.176 53.8903 159.787 53.4284C160.059 53.2246 160.915 53.1974 161.119 53.4012C161.227 53.5099 161.295 53.5099 161.35 53.4012C161.404 53.3197 161.39 53.2518 161.309 53.2518C161.241 53.2518 161.159 53.048 161.132 52.8035C161.105 52.4639 161.064 52.4095 160.956 52.5861Z" fill="#0F53D9"/>
<path d="M16.291 56.3763C16.2502 56.5664 16.1143 57.2321 16.0056 57.857C15.8834 58.4955 15.7068 59.0524 15.6117 59.1204C15.5301 59.1747 14.9731 59.3241 14.4025 59.4464C13.8183 59.5687 13.3428 59.7181 13.3428 59.7724C13.3428 59.8268 13.8862 59.949 14.5655 60.0441C15.4622 60.1664 15.8019 60.2751 15.8426 60.4381C15.8834 60.5603 16.0056 61.2667 16.1279 62.0139C16.2502 62.761 16.3725 63.3859 16.3996 63.4131C16.4132 63.4267 16.5491 62.7203 16.685 61.8101C16.9159 60.2615 16.9431 60.18 17.242 60.18C17.4186 60.18 17.7718 60.0985 18.0164 59.9898C18.2609 59.8947 18.7636 59.7588 19.1305 59.7045C20.3532 59.5415 20.1766 59.4056 18.5598 59.2426C17.6767 59.1611 16.9431 59.066 16.9295 59.0524C16.9159 59.0389 16.7936 58.346 16.6442 57.531C16.454 56.5121 16.3453 56.1453 16.291 56.3763Z" fill="#0F53D9"/>
<path d="M51.8319 60.5875C51.3428 60.7913 50.7179 61.5384 50.6228 62.0411C50.5141 62.6252 50.8809 63.6169 51.3428 63.9837C52.0221 64.5135 53.1905 64.4591 53.8698 63.875C54.4405 63.3724 54.6442 62.4758 54.3589 61.715C54.0057 60.7913 52.7422 60.2207 51.8319 60.5875ZM53.5166 61.063C53.8834 61.3075 54.2367 62.0275 54.2367 62.5165C54.2367 62.992 53.7476 63.6984 53.2313 63.9293C52.6199 64.2282 51.8727 64.0788 51.37 63.5897C49.957 62.1769 51.8319 59.9626 53.5166 61.063Z" fill="#0F53D9"/>
<path d="M3.58771 66.5104C1.1558 67.7194 -0.17564 71.496 1.06069 73.7103C1.26449 74.077 1.52262 74.4574 1.6449 74.5525C2.16117 74.9736 2.97633 75.2589 3.72357 75.2589C5.58487 75.2589 7.14727 74.0091 7.90809 71.9035C8.16622 71.1971 8.20698 70.8575 8.15264 69.9337C8.08471 68.6704 7.81299 67.9911 7.01141 67.1217C6.08755 66.0893 4.8648 65.8719 3.58771 66.5104ZM6.18265 66.6598C7.18802 67.176 7.77223 68.7519 7.52768 70.3549C7.13368 73.0446 5.17728 75.1231 3.19371 74.96C2.33779 74.8921 1.88945 74.5933 1.31883 73.751C0.965592 73.2348 0.911248 73.0174 0.870489 71.9307C0.816145 70.8847 0.856903 70.5586 1.1558 69.73C2.05248 67.1489 4.3757 65.7361 6.18265 66.6598Z" fill="#0F53D9"/>
<path d="M4.75664 67.7874C4.64795 67.9504 4.43057 68.0591 4.19961 68.0591C3.73768 68.0591 3.01762 68.779 3.01762 69.2545C3.01762 69.7164 3.39803 70.2054 4.06375 70.5994C4.74305 70.9933 4.94684 71.3601 4.75664 71.8763C4.62078 72.2839 4.14526 72.542 3.53389 72.542C3.23499 72.542 2.99044 72.4061 2.66438 72.0665C2.41983 71.8084 2.18886 71.5911 2.14811 71.5911C1.94431 71.5911 2.10735 71.8628 2.5421 72.2839C2.85458 72.5827 2.99044 72.8273 2.9361 72.9767C2.841 73.2756 3.09913 73.3027 3.20782 73.0175C3.24858 72.8952 3.45237 72.8137 3.75127 72.8137C4.74305 72.8137 5.55822 71.5367 4.97401 70.8982C4.82457 70.7352 4.48491 70.4907 4.21319 70.3549C3.27575 69.8794 3.05837 69.2273 3.62899 68.6704C3.96864 68.3172 4.68871 68.2085 4.85174 68.4666C4.8925 68.5345 5.02836 68.6024 5.15063 68.6024C5.35442 68.6024 5.35442 68.5753 5.15063 68.3579C5.01477 68.2085 4.96043 68.0047 5.01477 67.8145C5.10987 67.4477 4.97401 67.4206 4.75664 67.7874Z" fill="#0F53D9"/>
<path d="M153.279 80.1494C153.279 80.2309 154.067 80.2852 155.385 80.2852C156.975 80.2852 157.491 80.326 157.505 80.4482C157.505 80.5433 157.505 81.1546 157.491 81.8067C157.477 82.5403 157.532 83.0022 157.613 83.0022C157.695 83.0022 157.763 82.4588 157.79 81.6709L157.831 80.3532L159.977 80.3124C161.241 80.2988 162.11 80.2309 162.11 80.1494C162.11 80.0679 160.466 80.0135 157.695 80.0135C154.842 80.0135 153.279 80.0679 153.279 80.1494Z" fill="#0F53D9"/>
<path d="M147.804 93.0548C147.763 93.1635 147.628 93.8427 147.505 94.5491C147.383 95.2555 147.247 96.0298 147.206 96.2743C147.139 96.6955 147.111 96.7091 145.658 97.0623C144.842 97.266 144.177 97.4834 144.177 97.5377C144.177 97.5921 144.802 97.7415 145.563 97.8638C146.337 97.986 147.016 98.149 147.071 98.2034C147.206 98.3392 147.533 99.8743 147.655 100.975C147.709 101.437 147.791 101.898 147.845 102.007C147.899 102.116 148.09 101.287 148.253 100.146L148.565 98.0947L149.326 97.9317C149.747 97.8502 150.63 97.6464 151.309 97.4698C152.709 97.1166 152.695 97.1166 150.141 96.8449L148.551 96.6819L148.253 94.9023C147.913 92.8239 147.899 92.7831 147.804 93.0548Z" fill="#0F53D9"/>
<path d="M9.53809 97.4019C9.53809 97.4834 10.2581 97.5377 11.4401 97.5513C12.4863 97.5649 13.4237 97.5785 13.5188 97.5921C13.6275 97.6057 13.6954 97.9996 13.7226 98.9234C13.7362 99.6569 13.8177 100.255 13.8856 100.255C13.9536 100.255 14.0351 99.6569 14.0487 98.9234L14.0894 97.6057L16.1681 97.5785C19.9315 97.5241 18.3826 97.334 13.9264 97.2932C11.019 97.2796 9.53809 97.3068 9.53809 97.4019Z" fill="#0F53D9"/>
</svg>
