<svg width="35" height="41" viewBox="0 0 35 41" fill="none" xmlns="http://www.w3.org/2000/svg">
<path d="M17.501 21.5562C22.5209 21.5562 26.5904 17.4867 26.5904 12.4668C26.5904 7.44689 22.5209 3.37744 17.501 3.37744C12.4811 3.37744 8.41162 7.44689 8.41162 12.4668C8.41162 17.4867 12.4811 21.5562 17.501 21.5562Z" fill="#FFB6B6"/>
<path d="M12.2831 22.9003L11.8725 18.7494L20.0726 17.2161L24.9147 29.0055L16.4937 38.6897L10.4937 26.9003L12.2831 22.9003Z" fill="#FFB6B6"/>
<path d="M11.7407 20.8271L13.5335 21.2322C13.5335 21.2322 12.1242 16.7633 12.6025 16.3366C13.0809 15.91 14.2531 16.5822 14.2531 16.5822L15.4849 17.9633L16.9853 16.4357C16.9853 16.4357 18.6142 14.4102 19.252 13.8413C19.8898 13.2724 18.8654 11.1609 18.8654 11.1609C18.8654 11.1609 28.3277 8.60943 24.8067 4.01991C24.8067 4.01991 22.7424 0.421535 22.0702 1.59373C21.3979 2.76592 20.5963 0.904239 20.5963 0.904239L18.1485 1.36971C18.1485 1.36971 13.3176 -1.47876 8.7324 4.61493C4.14724 10.7086 11.7407 20.8271 11.7407 20.8271Z" fill="#2F2E41"/>
<path d="M34.5957 34.7842C29.6283 38.8115 23.4831 40.9999 16.9999 40.9999C11.0799 40.9999 5.44096 39.1747 0.724121 35.7915C0.732544 35.7031 0.740967 35.6157 0.748336 35.5284C0.873599 34.1599 0.985178 32.8294 1.05886 31.7263C1.34412 27.4431 11.3368 24.5884 11.3368 24.5884C11.3368 24.5884 11.382 24.6336 11.4725 24.7126C12.0241 25.1968 14.2631 26.9526 18.1894 27.4431C21.6904 27.881 22.8431 25.8042 23.1915 24.8094C23.2968 24.5063 23.3283 24.3031 23.3283 24.3031L33.6062 29.1568C34.2768 30.1147 34.5389 32.1778 34.5904 34.4968C34.5925 34.5926 34.5946 34.6873 34.5957 34.7842Z" fill="#0F53D9"/>
</svg>
