<svg width="175" height="141" viewBox="0 0 175 141" fill="none" xmlns="http://www.w3.org/2000/svg">
<g clip-path="url(#clip0_8892_10831)">
<path d="M49.261 93.7604C60.2262 93.7604 69.1153 84.8747 69.1153 73.9136C69.1153 62.9525 60.2262 54.0668 49.261 54.0668C38.2958 54.0668 29.4067 62.9525 29.4067 73.9136C29.4067 84.8747 38.2958 93.7604 49.261 93.7604Z" fill="#E6E6E6"/>
<path d="M43.8969 102.895L48.7807 105.92V85.471L43.3065 82.0801C42.8539 81.7998 42.5232 81.3597 42.3799 80.8471C42.9029 80.7472 43.4443 80.8474 43.8969 81.1277L48.7807 84.153V76.2233C48.7807 74.6893 48.969 73.161 49.3411 71.6728C49.7133 73.161 49.9016 74.6893 49.9015 76.2233V89.166L57.1066 84.7029C57.682 84.3466 58.3476 84.163 59.0244 84.1741C58.7331 84.7848 58.2723 85.2989 57.697 85.6553L49.9015 90.4841V138.845H48.7807V107.239L43.3065 103.848C42.8539 103.567 42.5232 103.127 42.3799 102.615C42.9028 102.515 43.4443 102.615 43.8969 102.895Z" fill="#CCCCCC"/>
<path d="M19.8543 95.4455C30.8195 95.4455 39.7086 86.5598 39.7086 75.5987C39.7086 64.6376 30.8195 55.7519 19.8543 55.7519C8.88906 55.7519 0 64.6376 0 75.5987C0 86.5598 8.88906 95.4455 19.8543 95.4455Z" fill="#E6E6E6"/>
<path d="M25.2186 104.58L20.3347 107.606V87.1561L25.8089 83.7652C26.2615 83.4849 26.5922 83.0448 26.7355 82.5322C26.2125 82.4323 25.6711 82.5325 25.2185 82.8128L20.3346 85.8381V77.9084C20.3346 76.3744 20.1464 74.8461 19.7742 73.3579C19.402 74.8461 19.2138 76.3744 19.2138 77.9084V90.8511L12.0088 86.388C11.4335 86.0317 10.7678 85.8481 10.0911 85.8592C10.3824 86.4699 10.8431 86.984 11.4184 87.3404L19.2139 92.1692V138.952H20.3347V108.924L25.8089 105.533C26.2615 105.252 26.5922 104.812 26.7355 104.3C26.2126 104.2 25.6711 104.3 25.2186 104.58Z" fill="#CCCCCC"/>
<path d="M34.2768 68.3423C53.1561 68.3423 68.4609 53.0434 68.4609 34.1712C68.4609 15.2989 53.1561 0 34.2768 0C15.3975 0 0.0927734 15.2989 0.0927734 34.1712C0.0927734 53.0434 15.3975 68.3423 34.2768 68.3423Z" fill="#E6E6E6"/>
<path d="M43.5125 84.0701L35.1037 89.2789V54.0702L44.529 48.2318C45.3082 47.7491 45.8776 46.9915 46.1243 46.1089C45.2239 45.937 44.2917 46.1094 43.5125 46.5921L35.1037 51.8008V38.1479C35.1037 35.5067 34.7797 32.8755 34.1388 30.3131C33.498 32.8755 33.174 35.5067 33.174 38.1479V60.432L20.7686 52.7477C19.7781 52.1341 18.632 51.818 17.4668 51.8371C17.9683 52.8886 18.7616 53.7738 19.7522 54.3874L33.174 62.7013V139.027H35.1037V91.5482L44.529 85.7099C45.3082 85.2272 45.8776 84.4695 46.1243 83.587C45.2239 83.415 44.2917 83.5875 43.5125 84.0701Z" fill="#CCCCCC"/>
<path d="M175 138.845H13.6335V139.254H175V138.845Z" fill="#3F3D56"/>
<path d="M133.442 61.6502L125.433 66.2723L130.057 74.2782L138.066 69.656L133.442 61.6502Z" fill="#FF6584"/>
<path d="M133.544 75.9467L128.715 67.5871L137.078 62.7608L141.906 71.1205L133.544 75.9467ZM129.273 67.7367L133.693 75.3888L141.348 70.9709L136.928 63.3187L129.273 67.7367Z" fill="#2F2E41"/>
<path d="M126.051 98.4104C128.195 98.4104 129.932 96.6735 129.932 94.5309C129.932 92.3883 128.195 90.6514 126.051 90.6514C123.908 90.6514 122.17 92.3883 122.17 94.5309C122.17 96.6735 123.908 98.4104 126.051 98.4104Z" fill="#D0CDE1"/>
<path d="M128.911 98.6146C128.103 98.6146 127.313 98.3751 126.641 97.9264C125.969 97.4776 125.446 96.8399 125.137 96.0937C124.827 95.3475 124.747 94.5264 124.904 93.7342C125.062 92.9421 125.451 92.2144 126.022 91.6433C126.594 91.0722 127.321 90.6832 128.114 90.5257C128.906 90.3681 129.728 90.449 130.474 90.7581C131.221 91.0671 131.859 91.5906 132.308 92.2621C132.757 92.9337 132.996 93.7232 132.996 94.5309C132.996 95.614 132.566 96.6527 131.8 97.4185C131.033 98.1843 129.994 98.6146 128.911 98.6146ZM128.911 90.8556C128.184 90.8556 127.473 91.0711 126.868 91.475C126.264 91.8788 125.792 92.4528 125.514 93.1244C125.236 93.796 125.163 94.535 125.305 95.2479C125.447 95.9608 125.797 96.6157 126.311 97.1297C126.825 97.6437 127.48 97.9938 128.194 98.1356C128.907 98.2774 129.646 98.2046 130.318 97.9264C130.99 97.6483 131.564 97.1772 131.968 96.5728C132.372 95.9684 132.588 95.2578 132.588 94.5309C132.588 93.5561 132.2 92.6213 131.511 91.9321C130.821 91.2428 129.886 90.8556 128.911 90.8556Z" fill="#2F2E41"/>
<path d="M150.534 139.774H112.95C112.49 139.774 112.049 139.591 111.723 139.265C111.398 138.94 111.215 138.499 111.214 138.039V103.123C111.215 102.663 111.398 102.222 111.723 101.896C112.049 101.571 112.49 101.388 112.95 101.387H150.534C150.995 101.388 151.436 101.571 151.762 101.896C152.087 102.222 152.27 102.663 152.271 103.123V138.039C152.27 138.499 152.087 138.94 151.762 139.265C151.436 139.591 150.995 139.774 150.534 139.774Z" fill="#0E53D9"/>
<path d="M134.398 141H129.087C128.626 140.999 128.185 140.816 127.86 140.491C127.534 140.166 127.351 139.725 127.351 139.264V102.086C127.351 101.626 127.534 101.184 127.86 100.859C128.185 100.534 128.626 100.351 129.087 100.35H134.398C134.858 100.351 135.299 100.534 135.625 100.859C135.95 101.184 136.133 101.626 136.134 102.086V139.264C136.133 139.725 135.95 140.166 135.625 140.491C135.299 140.816 134.858 140.999 134.398 141Z" fill="#3F3D56"/>
<path d="M160.52 97.9312C160.301 101.533 155.433 104.167 155.433 104.167C155.433 104.167 150.922 100.962 151.142 97.3599C151.361 93.758 156.228 91.1237 156.228 91.1237C156.228 91.1237 160.74 94.3293 160.52 97.9312Z" fill="#3F3D56"/>
<path d="M160.74 109.169C157.137 108.961 154.486 104.104 154.486 104.104C154.486 104.104 157.679 99.5842 161.283 99.7925C164.887 100.001 167.537 104.858 167.537 104.858C167.537 104.858 164.344 109.378 160.74 109.169Z" fill="#3F3D56"/>
<path opacity="0.1" d="M152.168 105.659V118.988L138.906 101.49H149.009L152.168 105.659Z" fill="black"/>
<path d="M163.428 128.476C163.159 128.476 162.895 128.414 162.654 128.295C162.414 128.176 162.204 128.003 162.042 127.789L134.411 91.3336C134.273 91.1519 134.172 90.9449 134.115 90.7244C134.057 90.5039 134.043 90.2742 134.075 90.0484C134.106 89.8226 134.181 89.6052 134.296 89.4085C134.411 89.2118 134.564 89.0397 134.746 88.9021L138.816 85.8194C138.998 85.6817 139.205 85.5812 139.426 85.5236C139.646 85.4659 139.876 85.4523 140.102 85.4834C140.328 85.5146 140.545 85.5899 140.742 85.7051C140.939 85.8203 141.111 85.9731 141.249 86.1548L168.88 122.61C169.018 122.792 169.118 122.999 169.176 123.219C169.233 123.44 169.247 123.669 169.216 123.895C169.185 124.121 169.11 124.338 168.994 124.535C168.879 124.732 168.726 124.904 168.545 125.041L164.474 128.124C164.173 128.353 163.806 128.476 163.428 128.476Z" fill="#0E53D9"/>
<path d="M152.368 100.148L145.367 105.451L150.671 112.449L157.672 107.146L152.368 100.148Z" fill="#3F3D56"/>
<path d="M116.355 73.4805L113.961 82.4099L122.894 84.8025L125.287 75.8731L116.355 73.4805Z" fill="#D0CDE1"/>
<path d="M119.105 86.1374L109.777 83.6391L112.277 74.3152L121.604 76.8135L119.105 86.1374ZM110.278 83.3504L118.816 85.6373L121.103 77.1022L112.565 74.8153L110.278 83.3504Z" fill="#2F2E41"/>
<path d="M79.8149 107.809C80.0603 107.574 80.2512 107.288 80.3741 106.971C80.4971 106.655 80.549 106.315 80.5263 105.976C80.5036 105.637 80.4068 105.307 80.2428 105.009C80.0788 104.712 79.8515 104.454 79.5769 104.253L75.8259 74.028L70.9795 75.4684L76.2116 104.883C75.9056 105.366 75.7877 105.945 75.8801 106.51C75.9725 107.074 76.2688 107.585 76.713 107.946C77.1571 108.307 77.7182 108.492 78.2899 108.467C78.8616 108.442 79.4042 108.208 79.8149 107.809Z" fill="#FFB8B8"/>
<path d="M84.3071 136.699H87.1417L88.4908 125.77H84.3071V136.699Z" fill="#FFB8B8"/>
<path d="M92.6084 139.33H83.6999V135.89H89.4813C90.3107 135.89 91.1061 136.219 91.6925 136.805C92.2789 137.391 92.6084 138.186 92.6084 139.016V139.33Z" fill="#2F2E41"/>
<path d="M64.7056 132.286L67.3624 133.274L72.4383 123.5L68.5173 122.042L64.7056 132.286Z" fill="#FFB8B8"/>
<path d="M71.5684 137.645L63.2188 134.54L64.4187 131.315L69.8374 133.33C70.6148 133.619 71.2454 134.205 71.5906 134.959C71.9358 135.713 71.9673 136.573 71.6781 137.35L71.5684 137.645Z" fill="#2F2E41"/>
<path d="M79.2224 66.1816C82.1824 66.1816 84.5819 63.7829 84.5819 60.824C84.5819 57.8651 82.1824 55.4665 79.2224 55.4665C76.2624 55.4665 73.8628 57.8651 73.8628 60.824C73.8628 63.7829 76.2624 66.1816 79.2224 66.1816Z" fill="#FFB8B8"/>
<path d="M70.8393 74.5742C70.6715 69.6394 75.8598 66.216 80.2251 68.5265C80.7813 68.8209 86.5241 73.698 86.7405 76.7268C86.9569 79.7556 87.3897 84.7314 87.3897 84.7314L93.4496 129.946L80.4643 129.297L82.0325 116.108L73.592 129.521L63.3669 126.269L75.9194 90.1399C75.9194 90.1399 71.0936 82.0526 70.8393 74.5742Z" fill="#2F2E41"/>
<path d="M70.9415 76.2921L71.7754 87.1279C71.7841 87.2411 71.8352 87.3468 71.9185 87.4239C72.0018 87.501 72.1111 87.5438 72.2246 87.5438H75.8935C75.9677 87.5438 76.0406 87.5255 76.106 87.4906C76.1714 87.4556 76.2272 87.4051 76.2683 87.3434C76.3095 87.2818 76.3348 87.2109 76.342 87.1372C76.3492 87.0634 76.3381 86.989 76.3097 86.9206L71.8069 76.0848C71.7658 75.9858 71.6908 75.9048 71.5953 75.8562C71.4997 75.8075 71.39 75.7946 71.2858 75.8195C71.1815 75.8445 71.0896 75.9058 71.0265 75.9924C70.9634 76.079 70.9333 76.1853 70.9415 76.2921Z" fill="#2F2E41"/>
<path d="M89.7826 105.932C89.9988 105.669 90.155 105.363 90.2399 105.034C90.3249 104.705 90.3367 104.362 90.2745 104.028C90.2123 103.694 90.0776 103.377 89.8798 103.101C89.6821 102.825 89.4261 102.595 89.13 102.428L81.8661 72.8492L77.2217 74.8467L85.8615 103.447C85.6142 103.963 85.5648 104.552 85.7227 105.101C85.8806 105.651 86.2347 106.124 86.7181 106.43C87.2014 106.737 87.7803 106.855 88.3451 106.763C88.9099 106.671 89.4214 106.375 89.7826 105.932Z" fill="#FFB8B8"/>
<path d="M77.8672 70.2366C77.8672 70.2366 76.3522 73.2654 77.8672 78.6739C79.3821 84.0824 80.4642 88.6255 80.4642 88.6255C80.4642 88.6255 83.927 86.4621 85.4419 87.1111C86.9569 87.7602 83.0455 72.6935 83.0455 72.6935C83.0455 72.6935 80.6806 67.6405 77.8672 70.2366Z" fill="#2F2E41"/>
<path d="M80.4799 61.66C80.5523 60.5484 81.9552 60.5103 83.0696 60.4997C84.184 60.4892 85.5163 60.529 86.1469 59.6104C86.5636 59.0034 86.484 58.1606 86.1398 57.5098C85.7955 56.859 85.2292 56.3584 84.6721 55.8769C83.2338 54.6336 81.7515 53.4002 80.0247 52.6045C78.298 51.8087 76.2744 51.4872 74.4836 52.126C72.2837 52.9107 69.3098 56.95 69.053 59.2707C68.7962 61.5915 69.724 63.9573 71.288 65.6915C72.852 67.4257 76.4317 66.726 78.6844 67.3429C77.3149 65.4053 78.2176 61.8846 80.4116 60.9797L80.4799 61.66Z" fill="#2F2E41"/>
</g>
<defs>
<clipPath id="clip0_8892_10831">
<rect width="175" height="141" fill="white"/>
</clipPath>
</defs>
</svg>
