<svg width="19" height="22" viewBox="0 0 19 22" fill="none" xmlns="http://www.w3.org/2000/svg">
<path d="M9.26823 11.5837C11.9575 11.5837 14.1375 9.40361 14.1375 6.71437C14.1375 4.02512 11.9575 1.84506 9.26823 1.84506C6.57899 1.84506 4.39893 4.02512 4.39893 6.71437C4.39893 9.40361 6.57899 11.5837 9.26823 11.5837Z" fill="#FFB6B6"/>
<path d="M6.47305 12.3037L6.25307 10.08L10.646 9.25861L13.24 15.5744L8.72869 20.7624L5.5144 14.4466L6.47305 12.3037Z" fill="#FFB6B6"/>
<path d="M6.18246 11.1931L7.14287 11.4101C7.14287 11.4101 6.38789 9.01604 6.64415 8.78748C6.9004 8.55892 7.52836 8.91905 7.52836 8.91905L8.18825 9.6589L8.99204 8.84053C8.99204 8.84053 9.86469 7.75545 10.2064 7.4507C10.548 7.14595 9.99923 6.01478 9.99923 6.01478C9.99923 6.01478 15.0683 4.64791 13.1821 2.18924C13.1821 2.18924 12.0762 0.261537 11.7161 0.889496C11.356 1.51745 10.9265 0.520128 10.9265 0.520128L9.61522 0.769487C9.61522 0.769487 7.02719 -0.756477 4.57086 2.508C2.11452 5.77247 6.18246 11.1931 6.18246 11.1931Z" fill="#2F2E41"/>
<path d="M18.4263 18.6701C15.7652 20.8276 12.4731 22 8.99993 22C5.82851 22 2.80764 21.0222 0.280762 19.2097C0.285274 19.1624 0.289786 19.1156 0.293734 19.0688C0.360839 18.3357 0.420614 17.6229 0.460085 17.0319C0.612905 14.7374 5.9661 13.2081 5.9661 13.2081C5.9661 13.2081 5.99035 13.2323 6.03885 13.2746C6.33433 13.534 7.53377 14.4746 9.63716 14.7374C11.5127 14.972 12.1302 13.8594 12.3169 13.3265C12.3732 13.1641 12.3902 13.0552 12.3902 13.0552L17.8962 15.6554C18.2554 16.1686 18.3958 17.2738 18.4234 18.5161C18.4246 18.5675 18.4257 18.6182 18.4263 18.6701Z" fill="#0F53D9"/>
</svg>
