<svg width="240" height="134" viewBox="0 0 240 134" fill="none" xmlns="http://www.w3.org/2000/svg">
<g clip-path="url(#clip0_4052_25747)">
<path d="M20.2977 110.387C22.3448 113.617 24.8387 116.544 27.7059 119.082C27.7714 119.141 27.8387 119.198 27.906 119.257L34.0276 115.635C33.9824 115.574 33.9324 115.505 33.8788 115.43C30.6825 110.999 16.2471 81.5222 16.1589 74.9946C16.1478 75.5349 10.9639 95.8224 20.2977 110.387Z" fill="#E6E6E6"/>
<path d="M26.5246 119.781C26.6191 119.823 26.7157 119.864 26.8129 119.904L31.4055 117.186C31.3338 117.145 31.2501 117.096 31.1542 117.042C29.582 116.127 24.904 113.38 20.298 110.387C15.349 107.171 10.4803 103.674 9.6355 101.866C9.81131 102.282 15.2604 114.928 26.5246 119.781Z" fill="#E6E6E6"/>
<path d="M220.537 122.271C220.434 126.089 219.792 129.873 218.628 133.513C218.603 133.597 218.574 133.681 218.546 133.765H211.425C211.433 133.689 211.441 133.605 211.448 133.513C211.923 128.078 209.21 95.3953 205.938 89.7388C206.224 90.1976 221.089 105.002 220.537 122.271Z" fill="#E6E6E6"/>
<path d="M220.002 133.513C219.943 133.597 219.881 133.682 219.818 133.765H214.475C214.516 133.693 214.563 133.609 214.617 133.513C215.5 131.927 218.112 127.186 220.536 122.27C223.141 116.988 225.532 111.506 225.331 109.521C225.393 109.969 227.196 123.612 220.002 133.513Z" fill="#E6E6E6"/>
<path d="M115.546 133.568H33.199C31.2472 133.566 29.3759 132.793 27.9958 131.419C26.6157 130.044 25.8394 128.181 25.8372 126.238V7.33008C25.8394 5.3867 26.6157 3.52354 27.9958 2.14935C29.3759 0.775172 31.2472 0.00219375 33.199 0H115.546C117.498 0.00219374 119.369 0.77517 120.75 2.14935C122.13 3.52353 122.906 5.38669 122.908 7.33007V126.238C122.906 128.181 122.13 130.044 120.75 131.419C119.369 132.793 117.498 133.566 115.546 133.568Z" fill="#CACACA"/>
<path d="M115.691 128.891H33.054C32.4524 128.89 31.8755 128.652 31.4501 128.229C31.0247 127.805 30.7854 127.231 30.7847 126.632V6.93633C30.7854 6.33726 31.0247 5.76293 31.4501 5.33933C31.8755 4.91572 32.4524 4.67744 33.054 4.67676H115.691C116.293 4.67744 116.87 4.91572 117.295 5.33933C117.721 5.76293 117.96 6.33726 117.961 6.93633V126.632C117.96 127.231 117.721 127.805 117.295 128.229C116.87 128.652 116.293 128.89 115.691 128.891Z" fill="white"/>
<path d="M74.0596 2.86823C74.4055 2.86823 74.6859 2.58905 74.6859 2.24466C74.6859 1.90027 74.4055 1.62109 74.0596 1.62109C73.7137 1.62109 73.4333 1.90027 73.4333 2.24466C73.4333 2.58905 73.7137 2.86823 74.0596 2.86823Z" fill="white"/>
<path d="M239.693 134H0.307048C0.225613 134 0.147515 133.968 0.089932 133.911C0.0323491 133.853 0 133.775 0 133.694C0 133.613 0.0323491 133.536 0.089932 133.478C0.147515 133.421 0.225613 133.389 0.307048 133.389H239.693C239.774 133.389 239.852 133.421 239.91 133.478C239.968 133.536 240 133.613 240 133.694C240 133.775 239.968 133.853 239.91 133.911C239.852 133.968 239.774 134 239.693 134Z" fill="#CACACA"/>
<path d="M74.3721 99.2007C78.7872 99.2007 82.3663 95.637 82.3663 91.241C82.3663 86.845 78.7872 83.2812 74.3721 83.2812C69.9571 83.2812 66.3779 86.845 66.3779 91.241C66.3779 95.637 69.9571 99.2007 74.3721 99.2007Z" fill="#E4E4E4"/>
<path d="M79.377 75.9631H69.3671L63.3241 46.5299C63.1688 44.993 63.3387 43.4407 63.8228 41.9732C64.307 40.5056 65.0946 39.1554 66.1349 38.0094C67.1752 36.8635 68.4451 35.9474 69.8628 35.32C71.2804 34.6927 72.8144 34.3681 74.3658 34.3672C75.9171 34.3663 77.4515 34.6891 78.8699 35.3147C80.2883 35.9404 81.5594 36.855 82.601 37.9997C83.6427 39.1444 84.4319 40.4937 84.9178 41.9607C85.4036 43.4277 85.5754 44.9798 85.422 46.5169L79.377 75.9631Z" fill="#E4E4E4"/>
<path d="M113.703 36.4006H150.289C152.054 36.4006 153.767 36.9986 155.146 38.0965C156.525 39.1943 157.487 40.7266 157.876 42.4414L176.362 124.085C176.564 124.975 176.567 125.899 176.372 126.791C176.178 127.683 175.789 128.522 175.234 129.249C174.68 129.975 173.972 130.572 173.161 130.998C172.35 131.424 171.455 131.667 170.539 131.712L132.929 133.558C130.915 133.656 128.933 133.022 127.355 131.773C125.776 130.525 124.707 128.746 124.348 126.771L113.862 69.048L111.878 58.1295L108.951 42.017C108.826 41.3269 108.855 40.6177 109.036 39.94C109.218 39.2624 109.547 38.6329 110.001 38.0965C110.455 37.5601 111.022 37.1301 111.661 36.8369C112.301 36.5437 112.998 36.3948 113.703 36.4006Z" fill="#3F3D56"/>
<path d="M145.472 38.1607H149.743C150.969 38.1607 152.159 38.5783 153.114 39.3443C154.069 40.1102 154.733 41.1784 154.994 42.3715L172.738 123.349C172.84 123.815 172.84 124.298 172.738 124.764C172.636 125.23 172.434 125.669 172.145 126.05C171.857 126.431 171.49 126.746 171.068 126.973C170.646 127.2 170.18 127.333 169.702 127.365L132.213 129.811C131.156 129.88 130.109 129.559 129.274 128.909C128.439 128.259 127.874 127.325 127.686 126.287L112.545 42.589C112.447 42.0473 112.47 41.4908 112.611 40.9587C112.753 40.4266 113.01 39.9319 113.364 39.5096C113.719 39.0873 114.162 38.7476 114.663 38.5145C115.164 38.2815 115.71 38.1607 116.263 38.1607H120.314C120.706 38.1607 121.088 38.2894 121.399 38.5269C121.71 38.7643 121.934 39.0974 122.036 39.4744C122.126 39.8072 122.324 40.1012 122.598 40.3109C122.873 40.5205 123.21 40.6342 123.556 40.6342H142.789C143.467 40.6342 144.12 40.3794 144.618 39.9208C145.115 39.4622 145.42 38.8336 145.472 38.1607Z" fill="white"/>
<path d="M164.393 64.1181C164.513 64.1953 164.627 64.2818 164.733 64.3767L177.125 61.2312L177.971 58.2544L182.65 58.9376L181.667 64.3523C181.588 64.7897 181.368 65.1897 181.041 65.4922C180.714 65.7947 180.297 65.9834 179.853 66.0299L165.383 67.5472C165.148 68.0416 164.766 68.4528 164.29 68.7261C163.814 68.9994 163.265 69.1218 162.717 69.0772C162.169 69.0325 161.648 68.8228 161.223 68.4759C160.798 68.1291 160.488 67.6615 160.337 67.1355C160.185 66.6095 160.197 66.0499 160.373 65.5311C160.548 65.0124 160.878 64.5591 161.318 64.2315C161.759 63.904 162.289 63.7177 162.838 63.6974C163.387 63.6771 163.93 63.8239 164.393 64.1181Z" fill="#FFB6B6"/>
<path d="M155.549 75.2823C159.964 75.2823 163.544 71.7186 163.544 67.3225C163.544 62.9265 159.964 59.3628 155.549 59.3628C151.134 59.3628 147.555 62.9265 147.555 67.3225C147.555 71.7186 151.134 75.2823 155.549 75.2823Z" fill="#0F53D9"/>
<path d="M160.554 52.0451H150.545L144.502 22.6119C144.346 21.075 144.516 19.5227 145 18.0552C145.484 16.5876 146.272 15.2374 147.312 14.0915C148.353 12.9455 149.623 12.0294 151.04 11.4021C152.458 10.7747 153.992 10.4501 155.543 10.4492C157.095 10.4483 158.629 10.7711 160.047 11.3967C161.466 12.0224 162.737 12.9371 163.779 14.0817C164.82 15.2264 165.609 16.5758 166.095 18.0427C166.581 19.5097 166.753 21.0618 166.599 22.5989L160.554 52.0451Z" fill="#0F53D9"/>
<path d="M183.486 61.6397L180.293 64.3819L175.827 68.2154L173.854 58.1656L173.648 57.1206L173.485 56.2912L178.011 48.4419L181.784 48.6576L182.042 48.673L182.047 48.7295L182.106 49.2558L182.88 56.1834L182.898 56.3503L183.486 61.6397Z" fill="#3F3D56"/>
<path d="M162.619 130.369L159.457 130.369L157.953 118.227L162.619 118.227L162.619 130.369Z" fill="#FFB6B6"/>
<path d="M163.425 133.421L153.231 133.42V133.292C153.231 132.244 153.649 131.239 154.393 130.498C155.137 129.758 156.146 129.341 157.199 129.341H157.199L163.425 129.342L163.425 133.421Z" fill="#2F2E41"/>
<path d="M195.627 130.626L192.466 130.626L190.961 118.484L195.628 118.484L195.627 130.626Z" fill="#FFB6B6"/>
<path d="M196.433 133.678L186.239 133.677V133.549C186.239 132.501 186.657 131.496 187.401 130.755C188.146 130.014 189.155 129.598 190.207 129.598H190.207L196.434 129.598L196.433 133.678Z" fill="#2F2E41"/>
<path d="M198.154 125.279L189.644 126.563L177.263 84.8436L164.114 126.82L154.573 125.536L166.951 76.7504V72.8989L168.627 67.1216L168.452 65.5579L167.232 54.6223L166.703 49.8798L166.669 49.5734C166.64 49.3163 166.709 49.0578 166.861 48.8482C167.013 48.6385 167.238 48.4928 167.492 48.4393L171.464 47.6074H177.954L181.784 48.6576L182.047 48.7295L182.166 48.7629L182.106 49.2559L181.209 56.7483L181.16 57.1591L180.293 64.3819L180.103 65.9662C187.581 71.3583 187.839 76.7504 187.839 76.7504L198.154 125.279Z" fill="#2F2E41"/>
<path d="M173.925 44.359C177.423 44.359 180.258 41.5355 180.258 38.0525C180.258 34.5696 177.423 31.7461 173.925 31.7461C170.427 31.7461 167.591 34.5696 167.591 38.0525C167.591 41.5355 170.427 44.359 173.925 44.359Z" fill="#FFB6B6"/>
<path d="M180.577 64.517L168.048 66.1484L168.282 67.9306L180.811 66.2992L180.577 64.517Z" fill="#3F3D56"/>
<path d="M151.241 66.6855C151.361 66.7627 151.475 66.8492 151.581 66.9441L163.974 63.7986L164.819 60.8218L169.498 61.505L168.515 66.9196C168.436 67.3571 168.216 67.7571 167.889 68.0596C167.562 68.3621 167.145 68.5508 166.701 68.5973L152.231 70.1146C151.996 70.609 151.614 71.0202 151.138 71.2935C150.662 71.5668 150.113 71.6892 149.565 71.6445C149.017 71.5998 148.496 71.3901 148.071 71.0433C147.646 70.6965 147.337 70.2289 147.185 69.7029C147.033 69.1769 147.045 68.6173 147.221 68.0985C147.396 67.5798 147.726 67.1265 148.166 66.7989C148.607 66.4713 149.137 66.285 149.686 66.2648C150.235 66.2445 150.778 66.3913 151.241 66.6855Z" fill="#FFB6B6"/>
<path d="M170.303 50.0464L168.111 48.3774C167.519 48.1536 166.707 48.7895 166.564 49.4045L163.469 61.986L169.916 66.6078L170.819 65.1956L170.303 50.0464Z" fill="#3F3D56"/>
<g opacity="0.2">
<path d="M182.88 56.1834C182.333 56.3996 181.775 56.5882 181.209 56.7483C181.028 56.8022 180.843 56.8536 180.66 56.9023C179.453 57.2357 178.213 57.4355 176.962 57.498C176.423 57.5207 175.884 57.5061 175.347 57.4544C174.772 57.3972 174.203 57.2855 173.648 57.1206C173.63 57.1154 173.609 57.1103 173.591 57.1052C172.438 56.7792 171.381 56.1811 170.51 55.3617C170.315 55.173 170.133 54.9714 169.965 54.7583C169.484 54.1711 169.131 53.4904 168.928 52.7596C168.726 52.0288 168.678 51.264 168.79 50.514C168.811 50.3781 168.84 50.2435 168.877 50.1109C168.974 49.7495 169.103 49.3973 169.261 49.0581C169.331 48.8989 169.409 48.7423 169.491 48.5883L172.405 47.6074H177.954L181.784 48.6576L182.042 48.673L182.047 48.7295L182.166 48.7629L182.106 49.2559L182.88 56.1834Z" fill="black"/>
</g>
<path d="M169.071 32.8313C167.887 32.6868 166.587 32.789 165.664 33.5419C164.741 34.2948 164.443 35.8599 165.317 36.6689C166.091 37.385 167.301 37.2166 168.337 37.4203C169.23 37.6195 170.03 38.1113 170.609 38.8169C171.188 39.5224 171.512 40.401 171.531 41.312C171.515 43.9243 168.997 45.9027 168.545 48.476C168.236 50.2322 168.98 52.0805 170.266 53.3211C171.552 54.5616 173.32 55.2321 175.102 55.4137C176.883 55.5952 178.684 55.3179 180.415 54.8622C182.154 54.4046 183.865 53.7554 185.324 52.7084C186.783 51.6615 187.978 50.1856 188.447 48.457C188.915 46.7284 188.579 44.7465 187.372 43.4193C185.99 41.8995 183.691 41.3768 182.495 39.7075C181.155 37.8363 181.651 35.1714 180.567 33.1427C179.843 31.7882 178.472 30.8644 177.01 30.3777C175.549 29.891 173.988 29.795 172.448 29.7479C171.638 29.7231 170.804 29.7148 170.049 30.0087C169.295 30.3026 168.632 30.9724 168.593 31.778C168.554 32.5836 169.071 32.8313 169.071 32.8313Z" fill="#2F2E41"/>
</g>
<defs>
<clipPath id="clip0_4052_25747">
<rect width="240" height="134" fill="white"/>
</clipPath>
</defs>
</svg>
