<svg width="18" height="18" viewBox="0 0 18 18" fill="none" xmlns="http://www.w3.org/2000/svg">
<g clip-path="url(#clip0_12032_60356)">
<path d="M7.88463 0.034068C9.4615 -0.0905857 11.0723 0.230273 12.4756 0.961492C14.0363 1.767 15.3357 3.06664 16.1407 4.62756C17.0534 6.37695 17.3199 8.4477 16.8976 10.3736C16.5351 12.0602 15.6396 13.6248 14.3758 14.7981C13.1016 15.9935 11.4512 16.7808 9.71903 17.0134C8.49668 17.1812 7.23767 17.0835 6.05695 16.723C4.45765 16.2393 3.01241 15.2678 1.95261 13.9771C1.34928 13.2446 0.868617 12.4114 0.539032 11.5217C-0.105926 9.79072 -0.164264 7.84961 0.370251 6.08202C0.795071 4.6657 1.59959 3.36656 2.67385 2.35088C3.62346 1.44814 4.78399 0.768029 6.03676 0.384096C6.63734 0.200356 7.25837 0.0814364 7.88463 0.034068ZM8.51338 4.10451C8.28526 4.15288 8.09155 4.33662 8.03247 4.56199C7.99931 4.77041 7.92676 4.97011 7.8956 5.17903C7.8572 5.36526 7.79837 5.547 7.76945 5.73523C7.73604 5.89554 7.68518 6.05185 7.65651 6.2134C7.47925 6.82446 6.9749 7.33304 6.35812 7.49933C5.81986 7.63221 5.27687 7.74565 4.73712 7.87354C4.38261 7.9436 4.13654 8.37939 4.30083 8.71146C4.37612 8.88947 4.53518 9.03033 4.72291 9.07894C5.25044 9.20085 5.77997 9.31529 6.30626 9.44243C6.88042 9.57831 7.37205 10.0114 7.5897 10.5583C7.67471 10.7508 7.69715 10.9637 7.75823 11.1644C7.79662 11.4087 7.87665 11.6443 7.91604 11.8886C7.9482 12.0392 7.99532 12.1868 8.02299 12.3386C8.06812 12.66 8.40443 12.9093 8.72579 12.8545C8.95465 12.825 9.14662 12.6498 9.22715 12.4384C9.26654 12.213 9.34258 11.9956 9.37648 11.7687C9.45452 11.4825 9.50089 11.1888 9.58116 10.9031C9.70457 10.1998 10.2792 9.60224 10.9735 9.44044C11.5026 9.31404 12.0356 9.20509 12.5634 9.07446C12.7738 9.02235 12.9329 8.8411 12.9984 8.63991C13.0146 8.53171 13.0146 8.41977 12.9982 8.31157C12.9326 8.11063 12.773 7.93487 12.5644 7.88102C12.0393 7.75213 11.5103 7.64169 10.9843 7.51678C10.2845 7.35822 9.70507 6.75764 9.58067 6.05011C9.54252 5.89554 9.4974 5.74246 9.47272 5.58515C9.43781 5.40814 9.37997 5.23637 9.3533 5.05786C9.31939 4.8826 9.26155 4.71307 9.23089 4.53706C9.14637 4.24063 8.81654 4.0372 8.51338 4.10451Z" fill="#FF9900"/>
<path d="M15.5149 15.0918C15.6854 15.0429 15.8761 15.0681 16.0272 15.1618C16.1135 15.2139 16.1808 15.29 16.2519 15.3605C16.7253 15.834 17.199 16.3076 17.6724 16.7811C17.7669 16.8786 17.8768 16.9676 17.9339 17.0942C18.0551 17.3433 17.988 17.6716 17.7724 17.8474C17.5355 18.0446 17.1548 18.0411 16.9322 17.8234C16.366 17.2587 15.8006 16.6936 15.2362 16.1274C15.0325 15.919 15.0123 15.5679 15.1806 15.3326C15.2589 15.2159 15.3803 15.1307 15.5149 15.0918Z" fill="#FF9900"/>
</g>
<defs>
<clipPath id="clip0_12032_60356">
<rect width="18" height="18" fill="white"/>
</clipPath>
</defs>
</svg>
