<svg width="32" height="33" viewBox="0 0 32 33" fill="none" xmlns="http://www.w3.org/2000/svg">
<g clip-path="url(#clip0_13816_9109)">
<g clip-path="url(#clip1_13816_9109)">
<path d="M28.321 15.5207C28.3091 15.3025 28.2236 15.0957 28.0795 14.937C27.9354 14.7783 27.7422 14.678 27.534 14.6539L14.7241 13.1456C14.6012 13.131 14.4768 13.1433 14.3588 13.1818L11.4202 14.1419L9.7342 14.6933L6.62262 15.7096C6.4348 15.7712 6.27187 15.8961 6.1594 16.0648C6.04692 16.2334 5.99125 16.4362 6.00112 16.6414L6.52635 29.6691C6.53754 29.8808 6.61758 30.0822 6.75327 30.24C6.88896 30.3979 7.07218 30.5027 7.27268 30.5373L20.3521 30.567C20.4135 30.5775 20.4759 30.5809 20.538 30.5774C20.6285 30.5728 20.7179 30.5537 20.8029 30.5209L28.4674 30.4656C28.646 30.397 28.7986 30.2701 28.9027 30.1038C29.0067 29.9375 29.0565 29.7406 29.0449 29.5424L28.321 15.5207Z" fill="#F2F4FF"/>
<path d="M7.39613 29.7362L20.4755 29.7657C20.4946 29.769 20.5142 29.7671 20.5324 29.7602L28.196 29.7053C28.2184 29.6969 28.2377 29.681 28.2507 29.6601C28.2638 29.6393 28.27 29.6145 28.2683 29.5896L27.5454 15.5676C27.5436 15.5405 27.5328 15.5148 27.5149 15.4951C27.497 15.4753 27.4731 15.4626 27.4472 15.4592L27.361 15.4487L14.6368 13.9521C14.6309 13.9513 14.625 13.9511 14.6192 13.9516C14.6096 13.9518 14.6001 13.9534 14.5909 13.9562L7.42361 16.2984L6.85476 16.4837C6.83149 16.4917 6.81133 16.5073 6.79737 16.5283C6.78341 16.5493 6.77641 16.5745 6.77744 16.6L7.30288 29.6272C7.30416 29.6538 7.31412 29.679 7.33108 29.6989C7.34805 29.7187 7.371 29.7319 7.39613 29.7362Z" fill="#0E53D9"/>
<path d="M7.42365 16.2984L14.591 13.9562C14.6001 13.9534 14.6096 13.9518 14.6192 13.9516C14.6251 13.9511 14.631 13.9513 14.6368 13.9521L27.361 15.4487L24.2965 16.4892L23.1496 16.878L19.886 17.9854C19.8764 17.9881 19.8666 17.9901 19.8567 17.9915C19.8504 17.991 19.8441 17.9904 19.8365 17.99L7.42365 16.2984Z" fill="#161B2C"/>
<path d="M7.27261 30.538L20.352 30.5675C20.4135 30.5778 20.4759 30.5809 20.5381 30.5766C20.6287 30.5723 20.7182 30.5537 20.8035 30.5215L28.467 30.4666C28.6457 30.3978 28.7983 30.2707 28.9024 30.1043C29.0065 29.9379 29.0565 29.741 29.045 29.5427L28.3208 15.5208C28.3116 15.3566 28.261 15.1978 28.174 15.0606C28.162 15.0424 28.15 15.0243 28.1369 15.0076C28.0469 14.8847 27.9282 14.7878 27.7921 14.7263C27.7101 14.6888 27.6231 14.6644 27.534 14.654L27.5188 14.6519L14.7247 13.1454C14.6726 13.14 14.6201 13.1384 14.5678 13.1406C14.4967 13.1457 14.4264 13.1598 14.3585 13.1826L11.4202 14.1415L9.73449 14.6938L6.62234 15.7101C6.49499 15.7515 6.37832 15.8225 6.28111 15.9179C6.27337 15.9241 6.26618 15.9311 6.25963 15.9387C6.25486 15.9437 6.25043 15.949 6.24636 15.9546C6.16305 16.0456 6.09835 16.1533 6.05622 16.2712C6.01409 16.3891 5.99541 16.5148 6.00131 16.6404L6.52565 29.6691C6.53689 29.881 6.61702 30.0826 6.75281 30.2405C6.88861 30.3985 7.07196 30.5034 7.27261 30.538ZM6.22278 16.6297C6.21676 16.4994 6.2464 16.37 6.30823 16.2566C6.32659 16.2205 6.34841 16.1864 6.37338 16.1548C6.44131 16.0675 6.52869 15.9988 6.6279 15.9548C6.64743 15.9459 6.66749 15.9382 6.68794 15.932L11.928 14.2206L14.4252 13.4031C14.4421 13.3971 14.458 13.3939 14.4737 13.3894C14.5121 13.38 14.5513 13.3745 14.5908 13.3728C14.6267 13.3698 14.6629 13.3708 14.6986 13.3756L27.508 14.8842C27.5182 14.8856 27.5271 14.8872 27.5372 14.8886C27.6546 14.9067 27.7649 14.9581 27.8562 15.0372C27.9279 15.0973 27.9866 15.1725 28.0285 15.2579C28.0704 15.3433 28.0946 15.437 28.0994 15.5329L28.8225 29.5562C28.8312 29.7047 28.7939 29.8521 28.7161 29.9768C28.6383 30.1015 28.5242 30.1968 28.3906 30.2486L20.7258 30.3036C20.6175 30.3451 20.5007 30.3568 20.3868 30.3376L7.30759 30.3094C7.15743 30.2831 7.02029 30.2043 6.91868 30.086C6.81706 29.9677 6.757 29.8168 6.74836 29.6582L6.22278 16.6297Z" fill="#B4C5FF"/>
<path d="M20.5778 30.6024C20.5486 30.604 20.5199 30.5934 20.4981 30.573C20.4763 30.5526 20.4631 30.5241 20.4613 30.4936L19.7405 17.8821C19.7387 17.8514 19.7488 17.8213 19.7683 17.7983C19.7879 17.7753 19.8154 17.7613 19.8448 17.7595L19.8458 17.7595C19.875 17.7579 19.9037 17.7685 19.9255 17.7889C19.9473 17.8093 19.9605 17.8378 19.9623 17.8683L20.6831 30.4798C20.6848 30.5105 20.6748 30.5406 20.6553 30.5636C20.6357 30.5866 20.6082 30.6005 20.5788 30.6024L20.5778 30.6024Z" fill="#B4C5FF"/>
<path d="M25.0997 29.7493L23.8448 29.7404L22.654 16.8024C22.654 16.8024 24.1614 16.1591 24.2274 16.2685C24.2677 16.3337 25.0951 29.6691 25.0997 29.7493Z" fill="#B4C5FF"/>
<path d="M27.9214 15.1475L27.8308 15.0701C27.7375 14.9901 27.6239 14.9402 27.5039 14.9265L14.6947 13.4179C14.624 13.4098 14.5526 13.414 14.4832 13.4302L14.4352 13.4425L14.4255 13.2426L16.5498 10.7904C16.6763 10.6451 16.8333 10.5322 17.0085 10.4604C17.1836 10.3887 17.3723 10.3602 17.5598 10.377L26.2192 11.1765C26.4779 11.1995 26.7227 11.3086 26.9175 11.4877C27.1123 11.6668 27.2468 11.9065 27.3011 12.1714L27.9214 15.1475Z" fill="#B4C5FF"/>
<path d="M8.56069 25.0148C8.57436 25.0125 8.58823 25.0118 8.60205 25.0127L12.5444 25.262C12.5938 25.2651 12.64 25.2885 12.6727 25.3272C12.7055 25.3658 12.7223 25.4164 12.7193 25.4679C12.7163 25.5194 12.6939 25.5676 12.6569 25.6018C12.6199 25.636 12.5713 25.6535 12.522 25.6504L8.57957 25.401C8.5338 25.3981 8.49066 25.3777 8.45839 25.3437C8.42613 25.3097 8.407 25.2645 8.40466 25.2167C8.40233 25.1689 8.41695 25.1219 8.44573 25.0847C8.47451 25.0474 8.51544 25.0226 8.56069 25.0148Z" fill="#F2F4FF"/>
<path d="M8.62673 26.46C8.6404 26.4577 8.65427 26.4569 8.66809 26.4578L12.6105 26.7071C12.6598 26.7103 12.706 26.7337 12.7388 26.7723C12.7716 26.8109 12.7883 26.8616 12.7854 26.9131C12.7824 26.9646 12.7599 27.0127 12.7229 27.0469C12.6859 27.0812 12.6374 27.0986 12.588 27.0955L8.64561 26.8462C8.59984 26.8433 8.5567 26.8229 8.52443 26.7889C8.49217 26.7549 8.47304 26.7097 8.4707 26.6619C8.46837 26.6141 8.48299 26.5671 8.51177 26.5298C8.54055 26.4926 8.58148 26.4677 8.62673 26.46Z" fill="#F2F4FF"/>
<path d="M28.0107 15.2242C28.0018 15.2302 27.9922 15.235 27.9821 15.2386L27.5768 15.3757L24.2964 16.4897L23.1497 16.8778L23.1073 16.8923L23.0176 16.9229L21.1874 17.5442L20.49 17.7808L19.8857 17.9859C19.8767 17.9884 19.8669 17.9901 19.8571 17.9918C19.8506 17.991 19.8441 17.991 19.8367 17.9901L18.3009 17.7808L16.452 17.5289L15.5874 17.4114L13.6952 17.1527L11.8797 16.9059L11.8348 16.8999L11.79 16.8931L6.37356 16.1552L6.32789 16.1484C6.31734 16.1474 6.30709 16.1442 6.29771 16.1391C6.2759 16.1288 6.25779 16.1116 6.24605 16.0898C6.23431 16.0681 6.22955 16.043 6.23246 16.0182C6.2346 15.9975 6.24223 15.9777 6.25449 15.9612C6.25938 15.9561 6.26346 15.951 6.26835 15.9467C6.27243 15.9442 6.27732 15.9391 6.28222 15.9365C6.30413 15.9208 6.33088 15.9141 6.35725 15.9178L6.62803 15.9552L11.79 16.6591L11.8348 16.665L11.8797 16.671L14.5541 17.0361L15.5491 17.1714L18.168 17.5289L19.8408 17.7569L20.5137 17.5289L22.6538 16.8029L23.0176 16.6795L23.0624 16.6642L23.1073 16.6489L24.2271 16.2693L27.558 15.1382L27.8565 15.0369L27.9145 15.0174C27.9394 15.0092 27.9663 15.0104 27.9905 15.0208C28.0146 15.0312 28.0345 15.0502 28.0466 15.0744C28.0495 15.0801 28.052 15.0861 28.0539 15.0923C28.0612 15.1162 28.061 15.1419 28.0532 15.1657C28.0454 15.1894 28.0305 15.2099 28.0107 15.2242Z" fill="#B4C5FF"/>
<path d="M16.7478 23.2276C16.6762 23.2276 16.6047 23.2218 16.5339 23.2103L8.34489 21.8758C8.0637 21.829 7.80275 21.6942 7.59661 21.4892C7.39047 21.2843 7.24886 21.0188 7.19054 20.728L6.27661 16.0991L6.33288 16.1062L20.0226 17.833L18.021 22.3776C17.9084 22.6311 17.7287 22.8458 17.5032 22.9963C17.2777 23.1469 17.0156 23.2271 16.7478 23.2276Z" fill="#B4C5FF"/>
<g opacity="0.6">
<path opacity="0.5" d="M22.0357 9.32347C22.0152 9.29697 21.9858 9.27964 21.9535 9.27502C21.9212 9.2704 21.8884 9.27885 21.8618 9.29863C21.8353 9.3184 21.817 9.34802 21.8106 9.38142C21.8043 9.41482 21.8105 9.44947 21.8278 9.47829C21.8515 9.51633 21.8777 9.55236 21.9027 9.58707C22.2026 10.0102 22.358 10.5213 22.4923 11.0312C22.5249 11.1553 22.5563 11.2888 22.5192 11.4116C22.5655 11.0793 22.5437 10.7407 22.4552 10.4179C22.3675 10.0959 22.2548 9.78187 22.1182 9.47896C22.0959 9.42429 22.0683 9.37218 22.0357 9.32347Z" fill="#0E53D9"/>
<path d="M20.0877 10.213C19.885 10.2064 19.8594 10.5273 20.0608 10.5467C20.1139 10.5514 20.167 10.552 20.2182 10.554C20.8385 10.5714 21.4243 10.8063 21.9877 11.0585C22.1265 11.1206 22.2717 11.192 22.3523 11.3221C22.0904 11.0201 21.7681 10.7819 21.4083 10.6241C21.0479 10.4655 20.6755 10.3385 20.2949 10.2444C20.2271 10.2264 20.1576 10.2158 20.0877 10.213Z" fill="#0E53D9"/>
<path opacity="0.2" d="M20.144 11.0011C20.0161 11.0058 20.0448 11.1953 20.174 11.1967C20.2073 11.1967 20.238 11.1967 20.2732 11.1967C20.6645 11.18 21.0649 11.2928 21.4537 11.4169C21.5518 11.4395 21.6431 11.4872 21.7191 11.5557C21.5127 11.3896 21.2788 11.2645 21.0291 11.1867C20.7837 11.1092 20.5332 11.0505 20.2796 11.0111C20.2348 11.003 20.1894 10.9997 20.144 11.0011Z" fill="#0E53D9"/>
<path opacity="0.5" d="M22.7609 14.5267C22.7974 14.6548 22.9662 14.5781 22.9355 14.4479C22.9272 14.4139 22.9176 14.3812 22.908 14.3478C22.7961 13.9568 22.8012 13.5237 22.8198 13.1006C22.8166 12.9956 22.8386 12.8915 22.8837 12.7976C22.7801 13.0473 22.7212 13.3146 22.7098 13.5864C22.6999 13.8536 22.7087 14.1213 22.736 14.3872C22.7401 14.4344 22.7485 14.4811 22.7609 14.5267Z" fill="#0E53D9"/>
<path opacity="0.2" d="M20.3774 9.14595C20.3 9.13194 20.2943 9.24872 20.371 9.26674C20.3915 9.27141 20.4113 9.27475 20.4305 9.27809C20.6665 9.32013 20.8916 9.44092 21.109 9.56637C21.1649 9.59284 21.2134 9.63344 21.2504 9.68449C21.1474 9.55796 21.023 9.45232 20.8833 9.37285C20.7458 9.2952 20.603 9.22828 20.4561 9.17265C20.4308 9.16111 20.4044 9.15217 20.3774 9.14595Z" fill="#0E53D9"/>
<path d="M19.1885 12.2464C18.9935 12.3512 19.1585 12.6394 19.3593 12.5433C19.4117 12.5187 19.4629 12.4906 19.5115 12.4639C20.1088 12.1409 20.8021 12.0222 21.4838 11.9301C21.6514 11.9074 21.8298 11.8874 21.9846 11.9568C21.5584 11.8415 21.1149 11.8136 20.6786 11.8747C20.2475 11.9364 19.8214 12.0321 19.4041 12.161C19.3295 12.1815 19.2573 12.2101 19.1885 12.2464Z" fill="#0E53D9"/>
<path opacity="0.5" d="M19.7469 13.3682C19.6062 13.5016 19.8255 13.6658 19.9726 13.5343C20.011 13.5003 20.0481 13.4643 20.0826 13.4296C20.5105 13.0105 21.0758 12.7122 21.6386 12.4379C21.7767 12.3712 22.3421 12.3011 22.4975 12.3044C22.101 12.3411 21.2907 12.4706 20.9306 12.6414C20.5771 12.8176 20.2352 13.0182 19.9074 13.242C19.8503 13.2789 19.7966 13.3211 19.7469 13.3682Z" fill="#0E53D9"/>
<path d="M20.7477 15.1573C20.7068 15.3528 20.9747 15.3575 21.0246 15.1573C21.0374 15.1066 21.0483 15.0545 21.0585 15.0058C21.1819 14.4052 21.4844 13.8266 21.7978 13.2667C21.8746 13.1293 22.305 12.7329 22.4322 12.6481C22.1259 12.9151 21.5298 13.501 21.3271 13.8547C21.133 14.2083 20.9621 14.5753 20.8155 14.9531C20.787 15.0189 20.7643 15.0872 20.7477 15.1573Z" fill="#0E53D9"/>
<path d="M22.7635 8.28843C22.6676 8.0849 22.3945 8.2524 22.4815 8.46061C22.5038 8.51533 22.5294 8.56871 22.5537 8.61943C22.8479 9.24139 22.9496 9.95944 23.0251 10.6661C23.0436 10.8396 23.0596 11.0245 22.9918 11.184C23.1071 10.7449 23.1401 10.2868 23.089 9.83464C23.0375 9.38687 22.9535 8.94383 22.8377 8.50932C22.8201 8.4333 22.7952 8.3593 22.7635 8.28843Z" fill="#0E53D9"/>
<path d="M21.2385 8.63383C21.2432 8.63719 21.2488 8.63904 21.2545 8.63916C21.2597 8.63806 21.2645 8.63549 21.2685 8.63174C21.2724 8.62798 21.2753 8.62318 21.2768 8.61784C21.3011 8.56387 21.287 8.4939 21.3241 8.44859C21.3611 8.49529 21.391 8.54766 21.4128 8.60385L21.5533 8.5592C21.5598 8.58754 21.5607 8.61693 21.5561 8.64566C21.5515 8.67439 21.5414 8.70186 21.5265 8.72645C21.5503 8.73785 21.5719 8.75365 21.5903 8.77309C21.5997 8.78313 21.6061 8.79566 21.6091 8.8093C21.612 8.82294 21.6113 8.83715 21.6069 8.85038C21.5746 8.85864 21.5413 8.86223 21.508 8.86105C21.5135 8.92519 21.51 8.98983 21.4978 9.05295C21.4974 9.0576 21.4962 9.06213 21.4941 9.06626C21.492 9.07038 21.4891 9.07402 21.4856 9.07693C21.4754 9.08426 21.462 9.07693 21.4518 9.0716C21.4032 9.0402 21.3634 8.9961 21.3362 8.94367L21.2845 9.07693C21.2806 9.09042 21.2722 9.10201 21.2608 9.10958C21.2529 9.1123 21.2444 9.11221 21.2365 9.10932C21.2287 9.10642 21.222 9.10089 21.2174 9.09359C21.2087 9.07861 21.2035 9.06173 21.2021 9.04428L21.1823 8.92101C21.1824 8.9146 21.1801 8.90841 21.1759 8.90369C21.1702 8.89887 21.1629 8.89649 21.1555 8.89703C21.1057 8.89703 21.0565 8.89703 21.0073 8.89703C20.9984 8.86971 21.0246 8.84439 21.0501 8.8304C21.0757 8.8164 21.105 8.81041 21.1178 8.78442C21.144 8.73245 21.0769 8.65982 21.1057 8.61451C21.1344 8.5692 21.197 8.61184 21.2385 8.63383Z" fill="#0E53D9"/>
<path opacity="0.5" d="M23.9479 9.32346C23.9676 9.29461 23.9974 9.2751 24.0309 9.26922C24.0643 9.26334 24.0987 9.27157 24.1263 9.2921C24.154 9.31263 24.1727 9.34378 24.1783 9.37869C24.1839 9.41361 24.176 9.44943 24.1564 9.47828C24.1321 9.51632 24.1065 9.55236 24.0815 9.58706C23.7816 10.0101 23.6256 10.5213 23.4919 11.0312C23.4586 11.1553 23.4279 11.2888 23.4644 11.4115C23.4181 11.0793 23.4399 10.7407 23.5284 10.4179C23.6158 10.0958 23.7285 9.78174 23.8654 9.47895C23.8876 9.42427 23.9153 9.37216 23.9479 9.32346Z" fill="#0E53D9"/>
<path d="M25.8959 10.213C26.098 10.2064 26.1242 10.5273 25.9221 10.5467C25.8697 10.5514 25.816 10.552 25.7655 10.554C25.1451 10.5714 24.5587 10.8063 23.9952 11.0585C23.8571 11.1206 23.7119 11.192 23.6313 11.3221C23.8932 11.0201 24.2155 10.7819 24.5753 10.6241C24.9357 10.4656 25.3081 10.3386 25.6887 10.2444C25.7565 10.2265 25.826 10.2159 25.8959 10.213Z" fill="#0E53D9"/>
<path opacity="0.5" d="M25.8435 11.0012C25.9714 11.0058 25.942 11.1953 25.8134 11.1967C25.7795 11.1967 25.7463 11.1967 25.7143 11.1967C25.3229 11.18 24.9225 11.2928 24.5337 11.4169C24.4355 11.4394 24.3443 11.4871 24.2683 11.5557C24.4747 11.3895 24.7086 11.2644 24.9584 11.1867C25.2043 11.11 25.4552 11.0523 25.7092 11.0138C25.7534 11.0049 25.7984 11.0007 25.8435 11.0012Z" fill="#0E53D9"/>
<path opacity="0.2" d="M25.6068 9.14595C25.6842 9.13194 25.69 9.24872 25.6132 9.26674C25.5928 9.27141 25.5729 9.27475 25.5531 9.27809C25.3178 9.32013 25.092 9.44092 24.8752 9.56637C24.8194 9.59284 24.7708 9.63344 24.7339 9.68449C24.8366 9.55798 24.9609 9.45234 25.1003 9.37285C25.2381 9.29532 25.3811 9.22841 25.5282 9.17265C25.5535 9.16102 25.5798 9.15208 25.6068 9.14595Z" fill="#0E53D9"/>
<path opacity="0.2" d="M23.6051 14.7689C23.5878 14.849 23.4823 14.8089 23.4964 14.7282C23.4964 14.7075 23.5047 14.6862 23.5092 14.6668C23.5629 14.4232 23.5431 14.1596 23.5162 13.9027C23.5141 13.8386 23.4967 13.776 23.4657 13.7205C23.5379 13.8685 23.5835 14.0291 23.6 14.1943C23.6161 14.357 23.621 14.5207 23.6147 14.6841C23.6144 14.7127 23.6112 14.7411 23.6051 14.7689Z" fill="#0E53D9"/>
<path opacity="0.5" d="M25.5576 14.2404C25.6177 14.3465 25.47 14.3398 25.4054 14.233C25.3881 14.205 25.3727 14.1777 25.3574 14.151C25.1745 13.8253 24.8957 13.5043 24.6149 13.1933C24.5486 13.1129 24.4713 13.0431 24.3853 12.9865C24.6045 13.1423 24.8068 13.3226 24.9884 13.5243C25.1687 13.7245 25.3273 13.9247 25.4834 14.1303C25.5103 14.1653 25.5351 14.2021 25.5576 14.2404Z" fill="#0E53D9"/>
<path opacity="0.2" d="M20.2086 14.2404C20.1485 14.3465 20.2962 14.3398 20.3615 14.233C20.3781 14.205 20.3941 14.1777 20.4088 14.151C20.5917 13.8253 20.8705 13.5043 21.1513 13.1933C21.2178 13.1129 21.2954 13.0431 21.3815 12.9865C21.1621 13.1423 20.9597 13.3226 20.7778 13.5243C20.5981 13.7245 20.4388 13.9247 20.2828 14.1303C20.2559 14.1653 20.2311 14.2021 20.2086 14.2404Z" fill="#0E53D9"/>
<path opacity="0.2" d="M22.1649 14.7689C22.1821 14.849 22.2877 14.8089 22.2742 14.7282C22.2704 14.7075 22.2659 14.6862 22.2614 14.6668C22.2077 14.4232 22.2269 14.1596 22.2544 13.9027C22.256 13.8386 22.2732 13.7759 22.3043 13.7205C22.232 13.8685 22.1865 14.0291 22.17 14.1943C22.1538 14.357 22.1491 14.5207 22.1559 14.6841C22.1563 14.7126 22.1593 14.741 22.1649 14.7689Z" fill="#0E53D9"/>
<path opacity="0.2" d="M24.991 9.94408C25.0677 9.93074 25.0735 10.0475 24.9967 10.0649L24.9372 10.0769C24.7013 10.1189 24.4761 10.239 24.2587 10.3645C24.2028 10.3912 24.1543 10.432 24.1174 10.4833C24.2203 10.3566 24.3448 10.2507 24.4845 10.171C24.6219 10.0933 24.7647 10.0264 24.9117 9.97078C24.9372 9.95915 24.9637 9.95021 24.991 9.94408Z" fill="#0E53D9"/>
<path opacity="0.2" d="M24.2715 8.37586C24.3355 8.33315 24.3854 8.43926 24.3208 8.48597L24.2696 8.52001C24.0662 8.65347 23.9 8.85034 23.7433 9.05387C23.701 9.10019 23.6707 9.15688 23.655 9.2187C23.7052 9.06123 23.7826 8.91466 23.8833 8.78627C23.9829 8.66018 24.091 8.54175 24.2069 8.43192C24.2268 8.41119 24.2484 8.39242 24.2715 8.37586Z" fill="#0E53D9"/>
<path d="M26.7957 12.2464C26.9908 12.3512 26.8258 12.6394 26.625 12.5434C26.5725 12.5187 26.5214 12.4906 26.4721 12.4639C25.8754 12.1409 25.1822 12.0222 24.5004 11.9301C24.3329 11.9074 24.1545 11.8874 23.9997 11.9568C24.4256 11.8415 24.8689 11.8136 25.305 11.8747C25.7364 11.9363 26.1627 12.032 26.5802 12.161C26.6546 12.1817 26.7269 12.2103 26.7957 12.2464Z" fill="#0E53D9"/>
<path opacity="0.5" d="M26.2374 13.3682C26.3781 13.5016 26.1588 13.6658 26.0117 13.5343C25.9733 13.5003 25.9362 13.4643 25.901 13.4296C25.4732 13.0105 24.9085 12.7122 24.3451 12.4379C24.2076 12.3712 23.6384 12.3011 23.4868 12.3044C23.8833 12.3411 24.693 12.4706 25.053 12.6414C25.4066 12.8175 25.7485 13.0181 26.0763 13.242C26.1336 13.2788 26.1875 13.321 26.2374 13.3682Z" fill="#0E53D9"/>
<path d="M24.5836 15.3828C24.6009 15.583 24.3342 15.5504 24.3086 15.3495C24.3022 15.2974 24.2977 15.2447 24.2933 15.1947C24.2427 14.5847 24.0119 13.9694 23.7682 13.3728C23.7087 13.2267 23.3289 12.7796 23.2137 12.6761C23.4855 12.9798 24.0061 13.6398 24.1654 14.0182C24.3163 14.3944 24.4428 14.7807 24.544 15.1746C24.5635 15.2426 24.5768 15.3123 24.5836 15.3828Z" fill="#0E53D9"/>
<path d="M24.7429 8.63383C24.7379 8.63717 24.7322 8.63902 24.7263 8.63916C24.7161 8.63916 24.7084 8.62783 24.7039 8.61784C24.6803 8.56387 24.6937 8.4939 24.6573 8.44859C24.6201 8.49527 24.59 8.54763 24.5679 8.60385L24.4281 8.5592C24.4215 8.58752 24.4204 8.61695 24.425 8.6457C24.4297 8.67445 24.4398 8.70192 24.4549 8.72645C24.4311 8.73785 24.4095 8.75365 24.391 8.77309C24.3817 8.7831 24.3751 8.7956 24.3721 8.80923C24.369 8.82285 24.3696 8.83709 24.3738 8.85038C24.4062 8.85857 24.4395 8.86215 24.4728 8.86105C24.4678 8.92523 24.4714 8.98983 24.4836 9.05295C24.484 9.0576 24.4852 9.06213 24.4873 9.06626C24.4894 9.07038 24.4923 9.07402 24.4958 9.07693C24.506 9.08426 24.5194 9.07693 24.5296 9.0716C24.5782 9.0402 24.618 8.9961 24.6452 8.94367L24.6969 9.07693C24.7008 9.09024 24.7089 9.10177 24.7199 9.10958C24.7279 9.11235 24.7366 9.11228 24.7445 9.10939C24.7525 9.1065 24.7593 9.10095 24.764 9.09359C24.7727 9.07861 24.7779 9.06173 24.7793 9.04428L24.7991 8.92101C24.799 8.9146 24.8013 8.90841 24.8055 8.90369C24.8112 8.89887 24.8185 8.89649 24.8259 8.89703C24.8751 8.89703 24.9249 8.89703 24.974 8.89703C24.983 8.86971 24.9562 8.84439 24.9313 8.8304C24.9064 8.8164 24.8757 8.81041 24.8629 8.78442C24.8374 8.73245 24.9044 8.65982 24.8757 8.61451C24.847 8.5692 24.7863 8.61184 24.7429 8.63383Z" fill="#0E53D9"/>
<path opacity="0.2" d="M25.1663 14.6625C25.1613 14.6657 25.1555 14.6673 25.1497 14.6672C25.1388 14.6672 25.1318 14.6558 25.1273 14.6459C25.1037 14.5919 25.1171 14.5219 25.0807 14.4766C25.0431 14.5233 25.0129 14.5759 24.9913 14.6325L24.8514 14.5872C24.8449 14.6155 24.8438 14.6449 24.8483 14.6736C24.8528 14.7023 24.8628 14.7298 24.8776 14.7545C24.8539 14.766 24.8323 14.7818 24.8138 14.8011C24.8044 14.8111 24.7979 14.8236 24.7948 14.8372C24.7918 14.8509 24.7924 14.8651 24.7965 14.8784C24.8289 14.8869 24.8622 14.8905 24.8955 14.8891C24.8903 14.9532 24.8937 15.0178 24.9057 15.081C24.9066 15.0905 24.9109 15.0993 24.9179 15.1056C24.9281 15.1123 24.9415 15.1056 24.9523 15.0996C25.0006 15.068 25.0402 15.0239 25.0673 14.9717L25.1196 15.1016C25.1232 15.1151 25.1314 15.1267 25.1426 15.1343C25.1505 15.1372 25.1592 15.1373 25.1671 15.1343C25.175 15.1314 25.1817 15.1258 25.1861 15.1183C25.1949 15.1033 25.2004 15.0865 25.202 15.069L25.2212 14.9457C25.2218 14.9394 25.224 14.9335 25.2276 14.9284C25.2337 14.9237 25.2411 14.9214 25.2486 14.9217C25.2978 14.9217 25.3476 14.9217 25.3968 14.9217C25.4051 14.8944 25.3789 14.8691 25.354 14.8551C25.3291 14.8411 25.2984 14.8351 25.2857 14.8098C25.2601 14.7571 25.3265 14.6845 25.2984 14.6399C25.2703 14.5952 25.2097 14.6399 25.1663 14.6625Z" fill="#0E53D9"/>
<path d="M26.3545 10.6218C26.3495 10.6249 26.3437 10.6265 26.3379 10.6265C26.327 10.6265 26.32 10.6152 26.3155 10.6052C26.2913 10.5512 26.3053 10.4812 26.2683 10.4359C26.2311 10.4828 26.2012 10.5354 26.1795 10.5918L26.039 10.5465C26.0326 10.5749 26.0316 10.6043 26.0362 10.633C26.0408 10.6617 26.0509 10.6892 26.0659 10.7138C26.042 10.7251 26.0204 10.7409 26.002 10.7604C25.9926 10.7704 25.9861 10.7829 25.9831 10.7965C25.98 10.8102 25.9806 10.8244 25.9848 10.8377C26.0171 10.8463 26.0504 10.8498 26.0837 10.8484C26.0785 10.9125 26.082 10.9771 26.094 11.0403C26.0948 11.0498 26.0992 11.0586 26.1061 11.0649C26.1117 11.0672 26.1179 11.0679 26.1238 11.0668C26.1298 11.0658 26.1354 11.063 26.1399 11.0589C26.1885 11.0275 26.2283 10.9834 26.2555 10.931L26.3079 11.0609C26.3115 11.0744 26.3196 11.086 26.3309 11.0936C26.3388 11.0965 26.3474 11.0966 26.3553 11.0937C26.3632 11.0907 26.3699 11.0851 26.3743 11.0776C26.3833 11.0627 26.3885 11.0458 26.3896 11.0283L26.4094 10.905C26.4094 10.8986 26.4116 10.8924 26.4158 10.8877C26.4217 10.8831 26.4289 10.8808 26.4362 10.881C26.486 10.881 26.5352 10.881 26.585 10.881C26.5933 10.8537 26.5671 10.8284 26.5416 10.8144C26.516 10.8004 26.4867 10.7944 26.4739 10.7691C26.4477 10.7164 26.5148 10.6438 26.4867 10.5992C26.4586 10.5545 26.3979 10.5992 26.3545 10.6218Z" fill="#0E53D9"/>
<path d="M21.6028 15.2674C21.5957 15.2716 21.5878 15.2739 21.5797 15.2741C21.565 15.2741 21.5548 15.2587 21.5484 15.2447C21.5151 15.1693 21.5343 15.0712 21.4844 15.0078C21.4325 15.0732 21.3906 15.1466 21.3604 15.2254L21.1647 15.162C21.1555 15.2015 21.1541 15.2426 21.1605 15.2827C21.1668 15.3228 21.1809 15.3612 21.2018 15.3955C21.1675 15.4119 21.1364 15.4345 21.1097 15.4623C21.0966 15.4763 21.0874 15.4937 21.0831 15.5128C21.0788 15.5318 21.0796 15.5518 21.0854 15.5704C21.1306 15.5816 21.177 15.5865 21.2235 15.5851C21.2166 15.6743 21.2216 15.7641 21.2382 15.852C21.238 15.8598 21.2401 15.8675 21.2443 15.8741C21.2484 15.8806 21.2544 15.8857 21.2614 15.8885C21.2684 15.8914 21.2761 15.8919 21.2834 15.89C21.2907 15.8881 21.2972 15.8839 21.3022 15.878C21.3698 15.8342 21.4253 15.7728 21.4633 15.6998L21.5356 15.8814C21.5411 15.9 21.5526 15.916 21.5682 15.9267C21.5797 15.9313 21.5923 15.9317 21.604 15.9277C21.6156 15.9236 21.6256 15.9155 21.6322 15.9047C21.6442 15.8845 21.6517 15.8617 21.6539 15.838L21.6808 15.6651C21.6815 15.6563 21.6849 15.6479 21.6904 15.6411C21.6943 15.6377 21.6989 15.6352 21.7039 15.6337C21.7088 15.6322 21.714 15.6318 21.7191 15.6324C21.7882 15.6324 21.8566 15.6324 21.9257 15.6324C21.9379 15.5937 21.9008 15.5584 21.8656 15.5423C21.8304 15.5263 21.7889 15.5137 21.7709 15.4756C21.7351 15.4029 21.8279 15.3014 21.7882 15.2387C21.7383 15.1633 21.6635 15.236 21.6028 15.2674Z" fill="#0E53D9"/>
<path d="M19.6253 10.7422C19.6185 10.7469 19.6105 10.7495 19.6023 10.7496C19.5876 10.7496 19.5774 10.7342 19.571 10.7202C19.5377 10.6448 19.5569 10.5467 19.507 10.4833C19.4549 10.5485 19.4131 10.622 19.383 10.7008L19.1873 10.6374C19.1781 10.677 19.1767 10.718 19.183 10.7582C19.1894 10.7983 19.2035 10.8367 19.2244 10.871C19.19 10.8871 19.1587 10.9098 19.1323 10.9377C19.1192 10.9517 19.11 10.9692 19.1058 10.9883C19.1016 11.0074 19.1026 11.0273 19.1086 11.0459C19.1536 11.0572 19.1999 11.0619 19.2461 11.0599C19.2393 11.1491 19.2442 11.2389 19.2608 11.3268C19.2621 11.3401 19.2683 11.3523 19.2781 11.3608C19.2859 11.3641 19.2945 11.3651 19.3028 11.3637C19.3111 11.3622 19.3189 11.3585 19.3254 11.3528C19.393 11.309 19.4485 11.2476 19.4866 11.1746L19.5588 11.3555C19.5642 11.3742 19.5758 11.3903 19.5914 11.4009C19.6025 11.405 19.6145 11.4051 19.6256 11.4011C19.6366 11.3971 19.646 11.3892 19.6522 11.3789C19.6643 11.3587 19.6718 11.3358 19.6739 11.3121L19.7008 11.1399C19.7017 11.1309 19.705 11.1224 19.7104 11.1153C19.7187 11.1088 19.729 11.106 19.7392 11.1072C19.8082 11.1072 19.8767 11.1072 19.9457 11.1072C19.9579 11.0692 19.9214 11.0338 19.8856 11.0172C19.8498 11.0005 19.8089 10.9891 19.791 10.9538C19.7552 10.8804 19.8479 10.7789 19.8089 10.7162C19.7699 10.6535 19.6861 10.7115 19.6253 10.7422Z" fill="#0E53D9"/>
<path opacity="0.2" d="M25.625 13.5441C25.6213 13.5465 25.6171 13.5478 25.6128 13.5481C25.6052 13.5481 25.5994 13.5395 25.5962 13.5321C25.579 13.4922 25.5892 13.4402 25.5617 13.4069C25.5348 13.4416 25.5133 13.4805 25.4979 13.5221L25.3938 13.4888C25.389 13.5098 25.3884 13.5316 25.3918 13.5529C25.3952 13.5742 25.4026 13.5945 25.4136 13.6128C25.3953 13.6207 25.3788 13.6325 25.3651 13.6474C25.3581 13.6547 25.3532 13.6638 25.351 13.6738C25.3487 13.6838 25.3492 13.6943 25.3523 13.7041C25.3761 13.7104 25.4006 13.713 25.4251 13.712C25.4211 13.7595 25.4239 13.8074 25.4334 13.854C25.4336 13.8575 25.4345 13.8608 25.4361 13.8639C25.4376 13.867 25.4397 13.8698 25.4423 13.872C25.4493 13.8773 25.4596 13.872 25.4672 13.868C25.5032 13.8447 25.5327 13.8121 25.5528 13.7734L25.5911 13.8693C25.5938 13.8793 25.5999 13.8878 25.6083 13.8933C25.6142 13.8957 25.6206 13.8958 25.6266 13.8938C25.6325 13.8917 25.6376 13.8875 25.6409 13.882C25.6463 13.8712 25.6498 13.8594 25.6511 13.8473L25.6652 13.756C25.6652 13.7534 25.6658 13.7508 25.6669 13.7485C25.668 13.7461 25.6696 13.7441 25.6715 13.7424C25.6735 13.7408 25.6758 13.7396 25.6782 13.7389C25.6806 13.7383 25.6831 13.7382 25.6856 13.7387C25.722 13.7387 25.7584 13.7387 25.7948 13.7387C25.8012 13.7187 25.782 13.6994 25.7635 13.6907C25.745 13.6821 25.722 13.6761 25.7131 13.6567C25.6939 13.6181 25.7431 13.5648 25.722 13.5315C25.7009 13.4982 25.6575 13.5275 25.625 13.5441Z" fill="#0E53D9"/>
<path opacity="0.2" d="M22.939 15.1624C22.9353 15.1648 22.9311 15.1661 22.9268 15.1664C22.9192 15.1664 22.9134 15.1578 22.9102 15.1504C22.893 15.1104 22.9032 15.0585 22.8757 15.0252C22.8487 15.0598 22.8271 15.0987 22.8119 15.1404L22.7078 15.1065C22.703 15.1274 22.7023 15.1492 22.7057 15.1705C22.7091 15.1918 22.7165 15.2121 22.7276 15.2304C22.7095 15.2388 22.6931 15.2505 22.6791 15.265C22.6721 15.2725 22.6672 15.2817 22.665 15.2918C22.6627 15.3019 22.6632 15.3125 22.6663 15.3223C22.6901 15.3283 22.7146 15.331 22.7391 15.3303C22.7351 15.3778 22.7379 15.4256 22.7474 15.4723C22.7479 15.4791 22.7508 15.4856 22.7557 15.4903C22.7633 15.4956 22.7736 15.4903 22.7812 15.4863C22.8172 15.463 22.8467 15.4304 22.8668 15.3916L22.9051 15.4876C22.9078 15.4976 22.9139 15.5061 22.9224 15.5116C22.9282 15.5138 22.9346 15.5139 22.9405 15.5119C22.9465 15.5098 22.9515 15.5057 22.9549 15.5002C22.9611 15.489 22.9648 15.4765 22.9658 15.4636L22.9805 15.3723C22.9808 15.3674 22.9826 15.3628 22.9856 15.359C22.9877 15.3573 22.9902 15.3561 22.9928 15.3554C22.9955 15.3547 22.9982 15.3546 23.0009 15.355C23.0373 15.355 23.0737 15.355 23.1101 15.355C23.1165 15.3343 23.0973 15.3157 23.0788 15.307C23.0603 15.2984 23.0373 15.2924 23.0284 15.273C23.0092 15.2344 23.0584 15.1811 23.0373 15.1478C23.0162 15.1144 22.9709 15.1458 22.939 15.1624Z" fill="#0E53D9"/>
<path opacity="0.5" d="M20.3431 9.49877C20.3395 9.5011 20.3353 9.50226 20.331 9.5021C20.3227 9.5021 20.3176 9.4941 20.3144 9.48677C20.2965 9.44679 20.3067 9.39482 20.2793 9.36084C20.2525 9.39566 20.231 9.43453 20.2154 9.47611L20.112 9.4428C20.1069 9.46373 20.106 9.48552 20.1093 9.50683C20.1126 9.52814 20.12 9.54852 20.1311 9.56673C20.113 9.57506 20.0966 9.58681 20.0826 9.60138C20.0756 9.60875 20.0707 9.61802 20.0684 9.62814C20.0662 9.63826 20.0666 9.64884 20.0698 9.65869C20.0938 9.66482 20.1186 9.66729 20.1433 9.66601C20.1394 9.71368 20.142 9.76169 20.1509 9.80861C20.1515 9.8156 20.1547 9.82206 20.1599 9.8266C20.164 9.82829 20.1685 9.82874 20.1729 9.82792C20.1773 9.8271 20.1814 9.82503 20.1848 9.82193C20.2207 9.79894 20.2502 9.76655 20.2703 9.72798L20.3086 9.82393C20.3115 9.83379 20.3176 9.84228 20.3259 9.84792C20.3318 9.84999 20.3382 9.84993 20.3441 9.84776C20.35 9.84559 20.3551 9.84142 20.3585 9.83593C20.3649 9.82503 20.3688 9.81271 20.3699 9.79994L20.384 9.70799C20.3845 9.70334 20.3863 9.69894 20.3891 9.69533C20.3934 9.69174 20.3989 9.69006 20.4044 9.69067H20.5143C20.52 9.67068 20.5008 9.65202 20.4823 9.64336C20.4638 9.6347 20.4415 9.62803 20.4319 9.60938C20.4127 9.57073 20.4619 9.51676 20.4415 9.48344C20.421 9.45013 20.3719 9.48211 20.3431 9.49877Z" fill="#0E53D9"/>
<path opacity="0.5" d="M21.7232 12.69C21.7197 12.6926 21.7154 12.694 21.7111 12.6939C21.7073 12.6931 21.7038 12.6913 21.7008 12.6886C21.6979 12.6859 21.6957 12.6825 21.6945 12.6786C21.6766 12.6386 21.6868 12.5867 21.66 12.5527C21.6331 12.5874 21.6115 12.6263 21.5962 12.668L21.4927 12.6346C21.4878 12.6556 21.487 12.6774 21.4904 12.6987C21.4938 12.72 21.5013 12.7404 21.5125 12.7586C21.4942 12.7669 21.4776 12.7786 21.4633 12.7932C21.4564 12.8007 21.4516 12.81 21.4494 12.82C21.4471 12.8301 21.4475 12.8407 21.4506 12.8505C21.4746 12.8567 21.4993 12.8591 21.524 12.8579C21.5202 12.9055 21.5227 12.9535 21.5317 13.0005C21.5314 13.0048 21.5324 13.0091 21.5347 13.0127C21.5369 13.0163 21.5402 13.0191 21.5441 13.0206C21.548 13.0221 21.5522 13.0222 21.5562 13.021C21.5602 13.0198 21.5637 13.0173 21.5661 13.0138C21.6019 12.9908 21.6311 12.9584 21.6511 12.9198L21.69 13.0158C21.6929 13.0256 21.699 13.0341 21.7073 13.0398C21.7131 13.0418 21.7194 13.0417 21.7252 13.0395C21.731 13.0374 21.7359 13.0332 21.7392 13.0278C21.7459 13.017 21.7499 13.0046 21.7507 12.9918L21.7654 12.8998C21.7655 12.8952 21.7671 12.8908 21.7698 12.8872C21.7742 12.8837 21.7797 12.882 21.7852 12.8825C21.8216 12.8825 21.8586 12.8825 21.895 12.8825C21.9014 12.8625 21.8816 12.8439 21.8631 12.8352C21.8446 12.8265 21.8222 12.8199 21.8126 12.8012C21.7941 12.7626 21.8433 12.7086 21.8222 12.6753C21.8011 12.642 21.7552 12.674 21.7232 12.69Z" fill="#0E53D9"/>
<path opacity="0.5" d="M20.7192 11.4454C20.7155 11.4477 20.7113 11.4491 20.707 11.4494C20.6994 11.4494 20.6936 11.4407 20.6904 11.4334C20.6726 11.3934 20.6828 11.3414 20.656 11.3081C20.6287 11.3426 20.6072 11.3815 20.5921 11.4234L20.4887 11.3894C20.4837 11.4104 20.4829 11.4322 20.4863 11.4535C20.4898 11.4748 20.4973 11.4952 20.5085 11.5133C20.4903 11.5219 20.4737 11.5336 20.4593 11.548C20.4524 11.5555 20.4477 11.5647 20.4454 11.5748C20.4432 11.5849 20.4435 11.5954 20.4465 11.6053C20.4706 11.6113 20.4952 11.614 20.5199 11.6133C20.5161 11.6607 20.5187 11.7085 20.5276 11.7552C20.5278 11.7587 20.5287 11.7621 20.5303 11.7652C20.5318 11.7683 20.534 11.771 20.5366 11.7732C20.5442 11.7785 20.5544 11.7732 20.5621 11.7692C20.5978 11.7459 20.6271 11.7133 20.647 11.6746L20.686 11.7705C20.6886 11.7805 20.6948 11.7891 20.7032 11.7945C20.709 11.7969 20.7153 11.797 20.7212 11.7949C20.727 11.7929 20.732 11.7887 20.7351 11.7832C20.7415 11.772 20.7454 11.7595 20.7466 11.7465L20.7613 11.6553C20.7615 11.6504 20.763 11.6458 20.7658 11.6419C20.7702 11.6386 20.7757 11.6372 20.7811 11.6379C20.8175 11.6379 20.8546 11.6379 20.8909 11.6379C20.8973 11.6173 20.8775 11.5986 20.859 11.59C20.8405 11.5813 20.8182 11.5753 20.8086 11.556C20.7894 11.5173 20.8392 11.464 20.8182 11.4307C20.7971 11.3974 20.7511 11.4294 20.7192 11.4454Z" fill="#0E53D9"/>
<path opacity="0.5" d="M25.0321 11.739C25.0284 11.7412 25.0243 11.7426 25.02 11.743C25.0117 11.743 25.0066 11.7343 25.0034 11.727C24.9855 11.687 24.9957 11.6351 24.9683 11.6017C24.9412 11.6364 24.9197 11.6753 24.9044 11.717L24.801 11.683C24.7959 11.704 24.795 11.7258 24.7983 11.7471C24.8016 11.7684 24.809 11.7888 24.8201 11.807C24.8022 11.8155 24.7857 11.8273 24.7716 11.8416C24.7646 11.849 24.7598 11.8583 24.7575 11.8684C24.7553 11.8785 24.7557 11.8891 24.7588 11.8989C24.7829 11.9049 24.8075 11.9076 24.8323 11.9069C24.8284 11.9544 24.831 12.0021 24.8399 12.0488C24.8401 12.0523 24.841 12.0557 24.8426 12.0588C24.8441 12.0619 24.8463 12.0646 24.8489 12.0668C24.8565 12.0722 24.8661 12.0668 24.8738 12.0628C24.9097 12.0396 24.9392 12.007 24.9593 11.9682L24.9976 12.0642C25.0003 12.0741 25.0065 12.0827 25.0149 12.0882C25.0207 12.0905 25.0272 12.0907 25.0331 12.0886C25.0391 12.0866 25.0441 12.0824 25.0474 12.0768C25.0538 12.0657 25.0578 12.0531 25.0589 12.0402L25.073 11.9489C25.0733 11.944 25.0751 11.9394 25.0781 11.9356C25.0803 11.9339 25.0827 11.9327 25.0854 11.932C25.088 11.9313 25.0907 11.9311 25.0934 11.9316C25.1298 11.9316 25.1662 11.9316 25.2033 11.9316C25.209 11.9109 25.1898 11.8923 25.1713 11.8836C25.1528 11.8749 25.1305 11.8689 25.1209 11.8496C25.1017 11.811 25.1509 11.7577 25.1305 11.7243C25.11 11.691 25.064 11.7223 25.0321 11.739Z" fill="#0E53D9"/>
<path opacity="0.2" d="M22.9389 11.4941C22.9352 11.4964 22.9311 11.4978 22.9268 11.4981C22.9191 11.4981 22.9134 11.4894 22.9102 11.4821C22.8929 11.4421 22.9032 11.3901 22.8757 11.3568C22.8488 11.3916 22.8273 11.4304 22.8118 11.4721L22.7078 11.4388C22.703 11.4598 22.7023 11.4815 22.7057 11.5028C22.7091 11.5241 22.7165 11.5445 22.7276 11.5627C22.7093 11.5706 22.6927 11.5824 22.679 11.5974C22.6721 11.6046 22.6672 11.6138 22.6649 11.6238C22.6627 11.6338 22.6631 11.6443 22.6663 11.654C22.69 11.6603 22.7145 11.663 22.739 11.662C22.7351 11.7095 22.7379 11.7573 22.7473 11.8039C22.7478 11.8108 22.7508 11.8172 22.7556 11.8219C22.7633 11.8272 22.7735 11.8219 22.7812 11.8179C22.8171 11.7947 22.8466 11.7621 22.8668 11.7233L22.9051 11.8193C22.9076 11.8293 22.9138 11.8379 22.9223 11.8432C22.9282 11.8455 22.9346 11.8456 22.9405 11.8435C22.9464 11.8415 22.9515 11.8374 22.9549 11.8319C22.9611 11.8207 22.9648 11.8082 22.9657 11.7953L22.9804 11.704C22.9805 11.7014 22.9811 11.6988 22.9822 11.6964C22.9833 11.6941 22.9848 11.692 22.9868 11.6904C22.9887 11.6887 22.991 11.6875 22.9934 11.6869C22.9959 11.6863 22.9984 11.6862 23.0009 11.6867C23.0373 11.6867 23.0737 11.6867 23.11 11.6867C23.1164 11.6667 23.0973 11.6473 23.0788 11.6387C23.0602 11.63 23.0373 11.624 23.0283 11.6047C23.0092 11.5661 23.0583 11.5127 23.0373 11.4794C23.0162 11.4461 22.9708 11.4774 22.9389 11.4941Z" fill="#0E53D9"/>
<path opacity="0.3" d="M22.2828 11.7924C22.2789 11.7946 22.2745 11.796 22.2701 11.7964C22.2624 11.7964 22.2573 11.7877 22.2534 11.7804C22.2362 11.7404 22.2464 11.6884 22.219 11.6545C22.1921 11.6894 22.1705 11.7285 22.1551 11.7704L22.051 11.7364C22.0462 11.7574 22.0455 11.7792 22.0489 11.8005C22.0523 11.8218 22.0598 11.8421 22.0708 11.8604C22.0527 11.8687 22.0363 11.8804 22.0223 11.895C22.0153 11.9024 22.0104 11.9116 22.0081 11.9218C22.0059 11.9319 22.0063 11.9425 22.0095 11.9523C22.0333 11.9583 22.0578 11.961 22.0823 11.9603C22.0787 12.0078 22.0815 12.0556 22.0906 12.1022C22.0912 12.1092 22.0944 12.1157 22.0996 12.1202C22.1072 12.1256 22.1168 12.1202 22.1245 12.1162C22.1604 12.093 22.1899 12.0604 22.21 12.0216L22.2483 12.1176C22.251 12.1275 22.2572 12.1361 22.2656 12.1415C22.2715 12.1436 22.2778 12.1436 22.2837 12.1415C22.2895 12.1395 22.2946 12.1355 22.2981 12.1302C22.3042 12.1189 22.3081 12.1065 22.3096 12.0936L22.3237 12.0023C22.324 11.9974 22.3258 11.9928 22.3288 11.989C22.3333 11.9856 22.3387 11.984 22.3441 11.9843C22.3805 11.9843 22.4169 11.9843 22.454 11.9843C22.4597 11.9636 22.4405 11.945 22.422 11.9363C22.4035 11.9277 22.3812 11.9217 22.3716 11.9023C22.3524 11.8637 22.4016 11.8097 22.3805 11.7764C22.3594 11.7431 22.3148 11.7791 22.2828 11.7924Z" fill="#0E53D9"/>
<path opacity="0.2" d="M21.6701 9.98792C21.6664 9.99025 21.6623 9.99162 21.658 9.99192C21.6541 9.99104 21.6505 9.98909 21.6476 9.98628C21.6447 9.98347 21.6425 9.9799 21.6414 9.97593C21.6241 9.93595 21.6344 9.88464 21.6069 9.85066C21.58 9.88539 21.5585 9.92428 21.5431 9.96593L21.439 9.93262C21.4342 9.95361 21.4335 9.97539 21.4369 9.99666C21.4403 10.0179 21.4477 10.0383 21.4588 10.0566C21.4406 10.0647 21.4241 10.0765 21.4102 10.0912C21.4032 10.0986 21.3983 10.1078 21.396 10.118C21.3938 10.1281 21.3943 10.1387 21.3975 10.1485C21.4213 10.1546 21.4458 10.157 21.4703 10.1558C21.4663 10.2033 21.4691 10.2511 21.4786 10.2978C21.479 10.3048 21.482 10.3115 21.4869 10.3164C21.4945 10.3211 21.5047 10.3164 21.5124 10.3118C21.5485 10.2887 21.578 10.256 21.598 10.2171L21.6363 10.3138C21.6392 10.3236 21.6453 10.3321 21.6535 10.3377C21.6595 10.3397 21.6659 10.3396 21.6717 10.3374C21.6776 10.3353 21.6826 10.3312 21.6861 10.3257C21.6923 10.3148 21.6961 10.3025 21.6969 10.2898L21.7116 10.1978C21.7117 10.1952 21.7123 10.1926 21.7134 10.1903C21.7145 10.1879 21.7161 10.1859 21.718 10.1842C21.7199 10.1826 21.7222 10.1814 21.7246 10.1807C21.7271 10.1801 21.7296 10.18 21.7321 10.1805C21.7685 10.1805 21.8049 10.1805 21.8413 10.1805C21.8476 10.1605 21.8285 10.1412 21.81 10.1332C21.7914 10.1252 21.7685 10.1179 21.7595 10.0992C21.7404 10.0606 21.7895 10.0066 21.7685 9.97326C21.7474 9.93995 21.7021 9.97193 21.6701 9.98792Z" fill="#0E53D9"/>
<path opacity="0.3" d="M22.8763 12.3423C22.8725 12.3445 22.8684 12.3459 22.8641 12.3463C22.8558 12.3463 22.8507 12.3376 22.8475 12.3303C22.8297 12.2903 22.8399 12.2383 22.8124 12.205C22.7855 12.2397 22.764 12.2786 22.7486 12.3203L22.6451 12.287C22.6403 12.3079 22.6395 12.3297 22.6428 12.3509C22.6461 12.3722 22.6534 12.3926 22.6643 12.4109C22.6461 12.4192 22.6297 12.4309 22.6157 12.4456C22.6087 12.4529 22.6038 12.4622 22.6016 12.4723C22.5993 12.4824 22.5998 12.493 22.603 12.5029C22.627 12.509 22.6517 12.5115 22.6764 12.5102C22.6726 12.5576 22.6751 12.6054 22.6841 12.6521C22.6842 12.6556 22.6851 12.659 22.6866 12.6621C22.6882 12.6653 22.6903 12.668 22.693 12.6701C22.7007 12.6754 22.7102 12.6701 22.7179 12.6661C22.7538 12.6429 22.7833 12.6103 22.8035 12.5715L22.8418 12.6674C22.8443 12.6775 22.8505 12.6861 22.859 12.6914C22.8649 12.6938 22.8713 12.694 22.8773 12.6919C22.8832 12.6898 22.8883 12.6857 22.8916 12.6801C22.897 12.6696 22.9002 12.658 22.9012 12.6461L22.9152 12.5548C22.9159 12.5502 22.9176 12.5459 22.9203 12.5422C22.9247 12.5386 22.9302 12.5369 22.9357 12.5375C22.9721 12.5375 23.0091 12.5375 23.0455 12.5375C23.0519 12.5175 23.0321 12.4982 23.0136 12.4895C22.995 12.4809 22.9727 12.4749 22.9631 12.4562C22.944 12.4169 22.9938 12.3636 22.9727 12.3303C22.9516 12.297 22.9082 12.3256 22.8763 12.3423Z" fill="#0E53D9"/>
</g>
</g>
<g opacity="0.8">
<path opacity="0.5" d="M8.90288 3.24904C8.73978 3.03381 8.40283 3.2666 8.5552 3.48898C8.5948 3.54685 8.63842 3.60342 8.68004 3.65739C9.18143 4.31282 9.44119 5.10936 9.6647 5.89679C9.71974 6.09186 9.77277 6.29604 9.71035 6.48721C9.80029 5.97547 9.74189 5.44683 9.60631 4.9455C9.47072 4.44417 9.26064 3.96365 9.04317 3.48963C9.00524 3.40489 8.95822 3.32425 8.90288 3.24904Z" fill="#0E53D9"/>
<path d="M5.6489 4.62824C5.31329 4.61849 5.26765 5.11526 5.60459 5.14127C5.69319 5.14843 5.78179 5.15038 5.86704 5.15233C6.90271 5.17964 7.88066 5.54247 8.82371 5.93261C9.05461 6.02819 9.29356 6.13613 9.4325 6.3416C9.0083 5.86498 8.44918 5.51581 7.85516 5.25962C7.26114 5.00342 6.62752 4.83436 5.99457 4.67441C5.88139 4.64702 5.7655 4.63154 5.6489 4.62824Z" fill="#0E53D9"/>
<path opacity="0.2" d="M5.74215 5.84995C5.5287 5.85775 5.57703 6.15165 5.79182 6.15361C5.8482 6.15361 5.90458 6.15361 5.95827 6.1497C6.61136 6.12369 7.28056 6.29861 7.92961 6.49043C8.08936 6.53789 8.25716 6.59121 8.37328 6.70695C8.0285 6.44922 7.6379 6.25484 7.22082 6.13345C6.81011 6.01507 6.39107 5.92575 5.967 5.8662C5.89278 5.85363 5.81747 5.84819 5.74215 5.84995Z" fill="#0E53D9"/>
<path opacity="0.5" d="M10.1145 11.3171C10.1749 11.5161 10.4568 11.3977 10.4051 11.1955C10.3917 11.1422 10.3756 11.0902 10.3602 11.0408C10.1722 10.4334 10.1809 9.7624 10.2118 9.10566C10.2199 8.94441 10.2313 8.77339 10.3179 8.63554C10.1458 9.02303 10.0487 9.43782 10.0313 9.85928C10.0145 10.2742 10.0291 10.6897 10.0749 11.1025C10.0807 11.1752 10.0939 11.247 10.1145 11.3171Z" fill="#0E53D9"/>
<path opacity="0.2" d="M6.13149 2.97325C6.00328 2.95114 5.99321 3.13256 6.12142 3.16052C6.15498 3.16767 6.18854 3.17287 6.22142 3.17808C6.61475 3.2431 6.9913 3.43037 7.35375 3.62479C7.44716 3.666 7.52857 3.729 7.59069 3.80815C7.41828 3.61209 7.21038 3.44814 6.97721 3.32438C6.74754 3.2031 6.50908 3.09813 6.26371 3.01032C6.22101 2.99374 6.17672 2.98133 6.13149 2.97325Z" fill="#0E53D9"/>
<path d="M4.14602 7.78246C3.81981 7.94502 4.09568 8.39173 4.43061 8.24347C4.51854 8.20511 4.60378 8.16154 4.68567 8.12058C5.68308 7.61925 6.84092 7.43458 7.98064 7.29283C8.25986 7.25772 8.55788 7.22781 8.81696 7.33445C8.11152 7.13938 7.36111 7.12637 6.63553 7.20765C5.90996 7.28893 5.20451 7.46775 4.50578 7.65176C4.3815 7.68309 4.26092 7.7269 4.14602 7.78246Z" fill="#0E53D9"/>
<path opacity="0.5" d="M5.07832 9.5212C4.8434 9.73252 5.21256 9.98286 5.45554 9.78129C5.52266 9.72797 5.58105 9.67205 5.64012 9.61873C6.35429 8.9685 7.29868 8.50618 8.23904 8.08028C8.46994 7.97559 9.4197 7.86895 9.67341 7.8748C9.01093 7.93202 7.65979 8.1349 7.0557 8.39499C6.46594 8.66651 5.89589 8.97652 5.34949 9.32287C5.25272 9.38037 5.16191 9.44679 5.07832 9.5212Z" fill="#0E53D9"/>
<path d="M6.75099 12.2958C6.68387 12.5994 7.13022 12.6033 7.21345 12.3003C7.23493 12.2216 7.25238 12.1417 7.26916 12.0656C7.4759 11.137 7.98132 10.2365 8.50486 9.36776C8.63373 9.15514 9.35259 8.54392 9.5647 8.40932C9.05324 8.82091 8.05783 9.73124 7.7182 10.28C7.3925 10.8286 7.10524 11.3978 6.85838 11.9837C6.8124 12.0841 6.77644 12.1886 6.75099 12.2958Z" fill="#0E53D9"/>
<path d="M10.1177 1.64292C9.958 1.32755 9.50158 1.587 9.6479 1.91016C9.68616 1.99534 9.72845 2.07792 9.7694 2.1566C10.2607 3.1209 10.4299 4.23735 10.5567 5.33104C10.5876 5.59959 10.6138 5.88634 10.501 6.13343C10.7071 5.45914 10.7346 4.73868 10.6634 4.04098C10.5923 3.34328 10.4238 2.66313 10.2466 1.98949C10.2159 1.87004 10.1727 1.75392 10.1177 1.64292Z" fill="#0E53D9"/>
<path d="M7.57389 2.18008C7.58226 2.18483 7.59171 2.18751 7.6014 2.18788C7.61886 2.18788 7.63161 2.17032 7.63899 2.15472C7.67859 2.07084 7.65578 1.95965 7.71753 1.89462C7.78008 1.96712 7.83037 2.04876 7.86653 2.13651L8.10078 2.06629C8.11172 2.11031 8.11343 2.156 8.10582 2.20068C8.09821 2.24535 8.08144 2.28809 8.05649 2.32638C8.09758 2.34373 8.13493 2.36844 8.16657 2.3992C8.18242 2.41455 8.19352 2.43389 8.19862 2.45504C8.20372 2.47618 8.20261 2.49828 8.19543 2.51885C8.14144 2.53171 8.08586 2.53718 8.03031 2.5351C8.03906 2.63492 8.03295 2.73543 8.01218 2.83356C8.01163 2.84084 8.00957 2.84793 8.00611 2.85442C8.00265 2.8609 7.99786 2.86663 7.99205 2.87127C7.97527 2.88168 7.95245 2.87127 7.935 2.86217C7.85436 2.81449 7.78796 2.74725 7.74236 2.6671L7.65309 2.86412C7.64695 2.88507 7.6331 2.90311 7.61416 2.91484C7.60086 2.91919 7.58645 2.91912 7.5732 2.91465C7.55995 2.91017 7.54862 2.90154 7.541 2.89013C7.52665 2.86697 7.51793 2.84096 7.51549 2.81405L7.4826 2.61898C7.48222 2.60898 7.47844 2.59939 7.47186 2.59167C7.46206 2.58448 7.44989 2.58101 7.43763 2.58192C7.3544 2.58192 7.27184 2.57867 7.18929 2.58192C7.17519 2.53966 7.21881 2.49999 7.2611 2.48178C7.30339 2.46358 7.35373 2.45057 7.37521 2.41091C7.41816 2.32963 7.30809 2.21584 7.35373 2.14691C7.41145 2.06433 7.5014 2.14496 7.57389 2.18008Z" fill="#0E53D9"/>
<path opacity="0.5" d="M12.0971 3.24904C12.2602 3.03381 12.5965 3.2666 12.4448 3.48898C12.4045 3.54685 12.3616 3.60342 12.32 3.65739C11.8186 4.31282 11.5588 5.10936 11.3346 5.89679C11.2796 6.09186 11.2266 6.29604 11.2897 6.48721C11.1997 5.97547 11.2581 5.44683 11.3937 4.9455C11.5399 4.44617 11.728 3.95926 11.9562 3.48963C11.9946 3.405 12.0418 3.32439 12.0971 3.24904Z" fill="#0E53D9"/>
<path d="M15.3506 4.62824C15.6862 4.61849 15.7318 5.11526 15.3949 5.14127C15.3069 5.14843 15.2177 5.15038 15.1331 5.15233C14.0967 5.17964 13.1195 5.54247 12.1764 5.93261C11.9455 6.02819 11.7025 6.13613 11.5676 6.3416C11.9918 5.86498 12.5503 5.51581 13.145 5.25962C13.7397 5.00342 14.3719 4.83436 15.0056 4.67441C15.1185 4.64707 15.2342 4.63159 15.3506 4.62824Z" fill="#0E53D9"/>
<path opacity="0.5" d="M15.2572 5.84994C15.4713 5.85774 15.423 6.15165 15.2082 6.1536C15.1518 6.1536 15.0954 6.1536 15.0417 6.1497C14.388 6.12369 13.7194 6.2986 13.0704 6.49042C12.9106 6.53789 12.7422 6.59121 12.6267 6.70695C12.9715 6.44921 13.3621 6.25484 13.7792 6.13344C14.1899 6.01506 14.6089 5.92575 15.033 5.8662C15.107 5.85364 15.1821 5.8482 15.2572 5.84994Z" fill="#0E53D9"/>
<path opacity="0.2" d="M14.8686 2.97325C14.9968 2.95114 15.0069 3.13256 14.8787 3.16052C14.8451 3.16767 14.8116 3.17287 14.7787 3.17808C14.3854 3.2431 14.0081 3.43037 13.6457 3.62479C13.5525 3.66602 13.4713 3.72902 13.4094 3.80815C13.5816 3.6121 13.7893 3.44815 14.0222 3.32438C14.2522 3.20321 14.4909 3.09826 14.7364 3.01032C14.7791 2.99374 14.8234 2.98133 14.8686 2.97325Z" fill="#0E53D9"/>
<path opacity="0.2" d="M11.5199 11.6942C11.491 11.8178 11.3145 11.756 11.338 11.6292C11.344 11.5967 11.3521 11.5642 11.3595 11.533C11.4487 11.1558 11.4165 10.7475 11.3709 10.3482C11.3674 10.2489 11.3385 10.152 11.287 10.066C11.4077 10.2956 11.4839 10.5446 11.5118 10.8008C11.5388 11.0531 11.5466 11.3069 11.5353 11.5603C11.535 11.6053 11.5298 11.6502 11.5199 11.6942Z" fill="#0E53D9"/>
<path opacity="0.5" d="M14.786 10.8743C14.8867 11.0395 14.6397 11.0278 14.531 10.8633C14.5028 10.8197 14.4766 10.7761 14.4518 10.7332C14.1457 10.2286 13.6806 9.73056 13.2114 9.24874C13.1005 9.12365 12.9708 9.01538 12.8268 8.92752C13.1929 9.169 13.5306 9.44877 13.8336 9.76177C14.1343 10.0667 14.4001 10.3847 14.6605 10.7014C14.7062 10.7563 14.7482 10.8141 14.786 10.8743Z" fill="#0E53D9"/>
<path opacity="0.2" d="M5.85023 10.8743C5.74955 11.0395 5.99655 11.0278 6.10461 10.8633C6.13348 10.8197 6.15965 10.7761 6.18449 10.7332C6.49056 10.2286 6.95571 9.73056 7.42488 9.24874C7.53564 9.1235 7.66531 9.01521 7.80949 8.92752C7.4432 9.16885 7.10555 9.44863 6.80267 9.76177C6.50197 10.0667 6.2355 10.3847 5.97574 10.7014C5.93002 10.7563 5.88809 10.8141 5.85023 10.8743Z" fill="#0E53D9"/>
<path opacity="0.2" d="M9.11826 11.6942C9.14713 11.8178 9.32365 11.756 9.30016 11.6292C9.29412 11.5967 9.28606 11.5642 9.27868 11.533C9.18941 11.1558 9.22163 10.7475 9.26727 10.3482C9.27079 10.2489 9.29962 10.152 9.35117 10.066C9.23044 10.2956 9.15422 10.5446 9.12632 10.8008C9.09941 11.0531 9.09155 11.3069 9.10282 11.5603C9.10317 11.6053 9.10834 11.6502 9.11826 11.6942Z" fill="#0E53D9"/>
<path opacity="0.2" d="M13.839 4.21135C13.9672 4.1899 13.9772 4.37131 13.849 4.39862C13.8155 4.40577 13.7819 4.41163 13.749 4.41683C13.3557 4.48185 12.9792 4.66847 12.616 4.86289C12.5229 4.90453 12.4418 4.96773 12.3798 5.0469C12.5518 4.85047 12.7598 4.68647 12.9932 4.56313C13.2228 4.44158 13.4613 4.33661 13.7067 4.24907C13.7494 4.23228 13.7937 4.21965 13.839 4.21135Z" fill="#0E53D9"/>
<path opacity="0.2" d="M12.6382 1.78013C12.749 1.7151 12.8282 1.87831 12.7194 1.95049C12.6912 1.9687 12.6617 1.98625 12.6342 2.00316C12.2939 2.20603 12.0167 2.51554 11.7556 2.827C11.6846 2.89891 11.6336 2.98705 11.6072 3.0832C11.691 2.83872 11.8205 2.61125 11.9892 2.41215C12.1552 2.21627 12.336 2.03261 12.5302 1.86271C12.5633 1.83182 12.5995 1.80416 12.6382 1.78013Z" fill="#0E53D9"/>
<path d="M16.854 7.78246C17.1802 7.94502 16.9043 8.39173 16.5694 8.24347C16.4815 8.20511 16.3956 8.16154 16.3143 8.12058C15.3169 7.61925 14.1584 7.43458 13.0194 7.29283C12.7401 7.25772 12.4421 7.22781 12.183 7.33445C12.8878 7.13938 13.6389 7.12637 14.3645 7.20765C15.0901 7.28893 15.7955 7.46775 16.4942 7.65176C16.6185 7.6832 16.739 7.727 16.854 7.78246Z" fill="#0E53D9"/>
<path opacity="0.5" d="M15.9218 9.5212C16.156 9.73252 15.7875 9.98286 15.5439 9.78129C15.4768 9.72797 15.4184 9.67205 15.36 9.61873C14.6451 8.9685 13.7007 8.50618 12.761 8.08028C12.5301 7.97559 11.5797 7.86895 11.3267 7.8748C11.9891 7.93202 13.3403 8.1349 13.9444 8.39499C14.5344 8.66651 15.1046 8.97651 15.6513 9.32287C15.7478 9.38041 15.8384 9.44682 15.9218 9.5212Z" fill="#0E53D9"/>
<path d="M13.1569 12.6423C13.1858 12.9512 12.7401 12.9024 12.6971 12.5909C12.6857 12.5096 12.679 12.4277 12.6723 12.3503C12.5871 11.4042 12.2025 10.4497 11.795 9.52442C11.695 9.29749 11.0607 8.60434 10.8674 8.44438C11.3218 8.91515 12.1917 9.93992 12.4575 10.5251C12.7099 11.1086 12.9211 11.708 13.0898 12.3191C13.1225 12.4246 13.145 12.5328 13.1569 12.6423Z" fill="#0E53D9"/>
<path d="M13.4255 2.18008C13.4172 2.18483 13.4077 2.18751 13.398 2.18788C13.3799 2.18788 13.3678 2.17032 13.3604 2.15472C13.3202 2.07084 13.3436 1.95965 13.2819 1.89462C13.2193 1.96712 13.169 2.04876 13.1329 2.13651L12.8986 2.06629C12.8875 2.11029 12.8858 2.15602 12.8934 2.20071C12.901 2.24541 12.9178 2.28815 12.9429 2.32638C12.9016 2.34373 12.8641 2.36843 12.8322 2.3992C12.8166 2.41471 12.8057 2.43408 12.8007 2.45518C12.7957 2.47629 12.7969 2.49832 12.804 2.51885C12.858 2.53174 12.9136 2.53721 12.9691 2.5351C12.9605 2.63489 12.9664 2.73536 12.9866 2.83356C12.986 2.84255 12.9884 2.85147 12.9935 2.85903C12.9985 2.86659 13.0059 2.87239 13.0146 2.87558C13.0233 2.87877 13.0328 2.87919 13.0418 2.87678C13.0508 2.87437 13.0587 2.86925 13.0644 2.86217C13.1451 2.81449 13.2115 2.74725 13.2571 2.6671L13.3443 2.86867C13.3502 2.88973 13.3641 2.90785 13.3832 2.91939C13.3964 2.92381 13.4108 2.92378 13.4239 2.91929C13.4371 2.9148 13.4483 2.90613 13.4557 2.89468C13.4706 2.8717 13.4796 2.84562 13.4819 2.81861L13.5141 2.62354C13.5151 2.61354 13.519 2.60403 13.5255 2.59623C13.5353 2.58903 13.5475 2.58557 13.5598 2.58647C13.6423 2.58647 13.7256 2.58322 13.8081 2.58647C13.8222 2.54421 13.7779 2.50454 13.7356 2.48634C13.6933 2.46813 13.6437 2.45512 13.6222 2.41546C13.5792 2.33418 13.6893 2.22039 13.643 2.15147C13.5886 2.06433 13.4987 2.14496 13.4255 2.18008Z" fill="#0E53D9"/>
<path opacity="0.2" d="M14.1329 11.5291C14.1246 11.5338 14.1151 11.5365 14.1054 11.5369C14.0873 11.5369 14.0752 11.5193 14.0678 11.5037C14.0282 11.4198 14.051 11.3086 13.9893 11.2404C13.9267 11.3129 13.8764 11.3945 13.8403 11.4822L13.606 11.412C13.5951 11.456 13.5934 11.5017 13.601 11.5464C13.6086 11.5911 13.6254 11.6338 13.6503 11.6721C13.6092 11.6895 13.5719 11.7142 13.5402 11.7449C13.5244 11.7604 13.5133 11.7799 13.5082 11.8011C13.5031 11.8224 13.5042 11.8446 13.5114 11.8652C13.5655 11.8776 13.621 11.8828 13.6765 11.8808C13.6678 11.9806 13.6739 12.0812 13.6946 12.1793C13.6952 12.1866 13.6972 12.1937 13.7007 12.2001C13.7042 12.2066 13.7089 12.2124 13.7148 12.217C13.7315 12.2281 13.7544 12.217 13.7718 12.2079C13.8529 12.1593 13.9193 12.0909 13.9645 12.0096L14.0517 12.2118C14.0581 12.2325 14.0719 12.2503 14.0906 12.2619C14.1039 12.2663 14.1182 12.2663 14.1315 12.262C14.1447 12.2576 14.1561 12.2491 14.1638 12.2378C14.1781 12.2144 14.1868 12.1882 14.1893 12.1611L14.2222 11.966C14.2226 11.956 14.2264 11.9464 14.2329 11.9387C14.2427 11.9315 14.2549 11.928 14.2672 11.929C14.3497 11.929 14.433 11.929 14.5155 11.929C14.5296 11.886 14.486 11.8464 14.4437 11.8288C14.4014 11.8113 14.3511 11.797 14.3296 11.7573C14.2866 11.676 14.3967 11.5622 14.3511 11.4933C14.298 11.4133 14.2054 11.4939 14.1329 11.5291Z" fill="#0E53D9"/>
<path d="M16.1191 5.26211C16.1105 5.26694 16.1008 5.26962 16.0909 5.26991C16.0734 5.26991 16.0613 5.25235 16.054 5.23675C16.0137 5.15287 16.0365 5.04168 15.9754 4.9734C15.913 5.04599 15.8627 5.12761 15.8264 5.21529L15.5922 5.14507C15.5811 5.18907 15.5793 5.2348 15.5869 5.27949C15.5945 5.32419 15.6114 5.36693 15.6365 5.40516C15.5952 5.42258 15.5577 5.44727 15.5257 5.47798C15.5101 5.49364 15.4992 5.51309 15.4941 5.53427C15.489 5.55545 15.49 5.57757 15.4969 5.59828C15.5511 5.61092 15.6069 5.61617 15.6626 5.61388C15.654 5.71367 15.6599 5.81414 15.6801 5.91234C15.6815 5.92697 15.6887 5.94049 15.7002 5.95006C15.7177 5.96111 15.7398 5.95006 15.7573 5.94095C15.8382 5.89338 15.9048 5.82613 15.9506 5.74588L16.0372 5.94745C16.0435 5.96813 16.0573 5.98591 16.0761 5.99752C16.0893 6.00217 16.1037 6.00232 16.117 5.99795C16.1303 5.99357 16.1417 5.98494 16.1493 5.97346C16.164 5.9502 16.173 5.92393 16.1754 5.89674L16.2077 5.70492C16.2087 5.69505 16.2124 5.68563 16.2184 5.67761C16.2285 5.67042 16.2408 5.66696 16.2533 5.66785C16.3356 5.66785 16.4182 5.66785 16.501 5.66785C16.5157 5.62494 16.4714 5.58527 16.4292 5.56772C16.3869 5.55016 16.3365 5.53586 16.3157 5.49619C16.2728 5.41491 16.3828 5.30112 16.3365 5.2322C16.2815 5.14637 16.1909 5.227 16.1191 5.26211Z" fill="#0E53D9"/>
<path d="M8.17937 12.4667C8.16781 12.4735 8.15463 12.4773 8.14112 12.4778C8.11628 12.4778 8.09883 12.4537 8.08876 12.4316C8.03305 12.3146 8.06527 12.1631 7.97935 12.0642C7.89253 12.1656 7.82256 12.2795 7.77195 12.4017L7.44507 12.3035C7.42994 12.3649 7.4276 12.4287 7.4382 12.491C7.4488 12.5533 7.47214 12.6129 7.50682 12.6664C7.44944 12.6905 7.39729 12.7249 7.35312 12.7678C7.33131 12.7894 7.31602 12.8165 7.30892 12.8459C7.30183 12.8754 7.30318 12.9061 7.31284 12.9349C7.38838 12.9526 7.46609 12.96 7.54374 12.957C7.53147 13.0959 7.53983 13.2359 7.56857 13.3725C7.56777 13.3849 7.57106 13.3972 7.57797 13.4077C7.58489 13.4182 7.59507 13.4263 7.60704 13.4308C7.619 13.4352 7.63213 13.4359 7.64453 13.4327C7.65692 13.4295 7.66793 13.4225 7.67597 13.4128C7.78895 13.3454 7.88157 13.2503 7.94445 13.1371L8.06594 13.418C8.0748 13.447 8.09409 13.4719 8.12031 13.4883C8.13877 13.4945 8.15885 13.4946 8.17735 13.4884C8.19586 13.4823 8.21169 13.4703 8.22233 13.4544C8.24221 13.4219 8.25436 13.3855 8.2579 13.3478L8.30355 13.0799C8.30422 13.0661 8.30939 13.0529 8.31831 13.0422C8.33216 13.0321 8.34935 13.0272 8.36664 13.0285C8.48209 13.0285 8.59754 13.0246 8.71231 13.0253C8.73245 12.9661 8.6707 12.9108 8.6123 12.8861C8.55391 12.8614 8.48343 12.8419 8.4539 12.7867C8.39349 12.6735 8.54921 12.5162 8.48276 12.4193C8.40557 12.3055 8.28006 12.418 8.17937 12.4667Z" fill="#0E53D9"/>
<path d="M4.87631 5.44881C4.86463 5.45588 4.85116 5.45971 4.83738 5.45986C4.81322 5.45986 4.79577 5.43581 4.78503 5.41435C4.72999 5.29731 4.76154 5.1458 4.67629 5.04697C4.58913 5.14821 4.51892 5.26209 4.46822 5.38444L4.14201 5.28625C4.12653 5.34764 4.12402 5.41143 4.13463 5.47378C4.14524 5.53613 4.16876 5.59576 4.20376 5.64908C4.14645 5.67304 4.09431 5.70723 4.05005 5.74987C4.02813 5.77158 4.01277 5.7987 4.00567 5.82829C3.99857 5.85787 3.99999 5.88878 4.00978 5.91763C4.08531 5.93539 4.16302 5.94283 4.24068 5.93974C4.22856 6.07865 4.2367 6.21852 4.26484 6.35524C4.2655 6.36543 4.26835 6.37538 4.2732 6.38445C4.27806 6.39352 4.28481 6.40151 4.29303 6.40791C4.3172 6.42286 4.34807 6.40791 4.37291 6.39555C4.48592 6.32789 4.57852 6.23258 4.64139 6.1192L4.76288 6.4001C4.77174 6.42905 4.79073 6.45411 4.81657 6.47098C4.83512 6.47694 4.85519 6.47679 4.87364 6.47056C4.89209 6.46432 4.9079 6.45236 4.9186 6.43652C4.93888 6.4041 4.95127 6.36763 4.95484 6.32988L4.99981 6.06263C5.00098 6.04885 5.00635 6.03572 5.01525 6.02492C5.02892 6.01446 5.04625 6.00957 5.06358 6.01126C5.17836 6.00801 5.29381 6.00736 5.40925 6.00801C5.42872 5.94884 5.36764 5.89357 5.30857 5.86821C5.24951 5.84285 5.1797 5.82465 5.15017 5.76938C5.09043 5.65623 5.24548 5.49888 5.1797 5.40134C5.10251 5.2882 4.97699 5.40004 4.87631 5.44881Z" fill="#0E53D9"/>
<path opacity="0.2" d="M14.9021 9.79486C14.896 9.79837 14.8891 9.80038 14.882 9.80071C14.8686 9.80071 14.8598 9.78771 14.8538 9.776C14.8243 9.71098 14.8417 9.6336 14.7961 9.58093C14.7499 9.6348 14.7128 9.69536 14.686 9.7604L14.5121 9.70838C14.5035 9.74134 14.502 9.77567 14.5076 9.80923C14.5133 9.84279 14.526 9.87486 14.545 9.90345C14.5145 9.91628 14.4867 9.93459 14.4631 9.95742C14.4518 9.96896 14.4438 9.98328 14.4401 9.99885C14.4365 10.0144 14.4372 10.0307 14.4423 10.0458C14.4823 10.0555 14.5234 10.0596 14.5645 10.0582C14.5579 10.1319 14.5624 10.2062 14.5779 10.2786C14.5783 10.284 14.5798 10.2893 14.5824 10.2941C14.5849 10.2989 14.5884 10.3031 14.5927 10.3066C14.5997 10.3093 14.6073 10.3102 14.6148 10.309C14.6222 10.3079 14.6292 10.3048 14.635 10.3001C14.6949 10.264 14.7439 10.2133 14.7773 10.1531L14.8444 10.3027C14.849 10.3181 14.8593 10.3313 14.8733 10.3398C14.883 10.3433 14.8937 10.3435 14.9036 10.3403C14.9135 10.3371 14.922 10.3307 14.9276 10.3222C14.9383 10.305 14.9447 10.2856 14.9464 10.2656L14.9706 10.1232C14.9711 10.1159 14.9739 10.1088 14.9786 10.1031C14.9861 10.0981 14.9951 10.0956 15.0041 10.0959H15.1881C15.1988 10.0647 15.1659 10.0354 15.135 10.0218C15.1041 10.0081 15.0679 9.99903 15.0505 9.96912C15.0189 9.9093 15.1015 9.82607 15.0659 9.77405C15.0303 9.72203 14.9531 9.76885 14.9021 9.79486Z" fill="#0E53D9"/>
<path opacity="0.2" d="M10.4125 12.3048C10.406 12.308 10.3989 12.31 10.3917 12.3106C10.3853 12.3091 10.3795 12.306 10.3746 12.3017C10.3698 12.2974 10.3662 12.292 10.3642 12.2859C10.3346 12.2241 10.3514 12.1435 10.3064 12.0909C10.2601 12.1447 10.2227 12.2053 10.1957 12.2703L10.0225 12.2183C10.0139 12.2513 10.0124 12.2856 10.0181 12.3191C10.0237 12.3527 10.0364 12.3848 10.0554 12.4134C10.0249 12.426 9.99709 12.4441 9.97352 12.4667C9.96189 12.4782 9.95375 12.4926 9.94996 12.5083C9.94618 12.524 9.94689 12.5404 9.95204 12.5558C9.99216 12.5655 10.0336 12.5695 10.0749 12.5675C10.0684 12.6414 10.0727 12.7158 10.0876 12.7886C10.0888 12.7993 10.094 12.8093 10.1024 12.8165C10.1151 12.8243 10.1319 12.8165 10.1447 12.81C10.2048 12.774 10.2541 12.7233 10.2876 12.6631L10.3548 12.8126C10.3593 12.828 10.3696 12.8412 10.3836 12.8497C10.3935 12.8529 10.4042 12.8529 10.414 12.8496C10.4239 12.8463 10.4323 12.8399 10.438 12.8315C10.4487 12.8143 10.4551 12.7949 10.4568 12.7749L10.481 12.6331C10.4815 12.6258 10.4843 12.6188 10.489 12.613C10.4962 12.6074 10.5054 12.6049 10.5145 12.6058C10.5756 12.6058 10.6367 12.6058 10.6984 12.6058C10.7085 12.5746 10.6763 12.5454 10.6447 12.5317C10.6132 12.5181 10.5776 12.5083 10.5608 12.479C10.5286 12.4192 10.6112 12.3353 10.5763 12.284C10.5414 12.2326 10.4662 12.2788 10.4125 12.3048Z" fill="#0E53D9"/>
<path opacity="0.5" d="M6.06968 3.52016C6.06365 3.52386 6.05669 3.52589 6.04955 3.52601C6.03612 3.52601 6.02673 3.51301 6.02136 3.50195C5.99183 3.43693 6.00861 3.3589 5.96364 3.30688C5.91713 3.3604 5.87974 3.42077 5.85288 3.4857L5.67971 3.43368C5.67104 3.46664 5.66949 3.50097 5.67515 3.53454C5.68081 3.56811 5.69356 3.60018 5.7126 3.62875C5.68218 3.64182 5.65443 3.6601 5.63071 3.68272C5.61903 3.69422 5.61084 3.70862 5.60705 3.72434C5.60326 3.74005 5.60402 3.75648 5.60923 3.7718C5.64948 3.78087 5.69077 3.7848 5.73207 3.78351C5.72551 3.8572 5.72981 3.93142 5.74482 4.00394C5.7453 4.00946 5.74691 4.01484 5.74956 4.01975C5.75221 4.02466 5.75585 4.02901 5.76026 4.03255C5.77301 4.04035 5.78912 4.03255 5.80254 4.02539C5.86235 3.9895 5.91141 3.93906 5.94484 3.87909L6.01196 4.02799C6.01678 4.04342 6.02698 4.05676 6.04082 4.06571C6.05069 4.06894 6.06138 4.0689 6.07122 4.06561C6.08106 4.06231 6.08949 4.05594 6.09519 4.0475C6.10588 4.0303 6.11231 4.01094 6.11399 3.99093L6.13815 3.84853C6.13866 3.84118 6.14147 3.83415 6.1462 3.82837C6.15369 3.8234 6.16263 3.82089 6.17171 3.82122C6.23279 3.82122 6.29454 3.82122 6.35562 3.82122C6.36569 3.78936 6.33347 3.7601 6.30192 3.74709C6.27038 3.73409 6.2348 3.72369 6.21802 3.69442C6.1858 3.63395 6.26903 3.55072 6.23346 3.49935C6.19788 3.44799 6.12338 3.4948 6.06968 3.52016Z" fill="#0E53D9"/>
<path opacity="0.5" d="M8.38066 8.47034C8.37471 8.47421 8.36769 8.47625 8.36052 8.47619C8.3471 8.47619 8.33837 8.46319 8.333 8.45213C8.30347 8.38711 8.32025 8.30908 8.27461 8.25706C8.22868 8.3111 8.19156 8.37162 8.16453 8.43653L7.99069 8.38451C7.98237 8.4175 7.981 8.45177 7.98665 8.48529C7.9923 8.5188 8.00486 8.55087 8.02358 8.57958C7.9933 8.59256 7.96576 8.61086 7.94236 8.63355C7.93067 8.64505 7.92249 8.65945 7.9187 8.67517C7.91491 8.69088 7.91566 8.70731 7.92088 8.72263C7.9609 8.73169 8.00197 8.73563 8.04304 8.73434C8.03671 8.80806 8.04123 8.88228 8.05647 8.95477C8.05682 8.96025 8.05831 8.96561 8.06085 8.97052C8.06338 8.97544 8.06691 8.97981 8.07123 8.98338C8.08398 8.99118 8.10076 8.98338 8.11352 8.97622C8.17416 8.93949 8.22371 8.8879 8.25716 8.82667L8.32428 8.97557C8.32871 8.99119 8.33901 9.00464 8.35314 9.01329C8.3629 9.01659 8.37352 9.01659 8.38327 9.01328C8.39303 9.00997 8.40133 9.00356 8.40684 8.99508C8.41776 8.97794 8.42442 8.95857 8.4263 8.93851L8.45047 8.79611C8.4507 8.7887 8.45354 8.78158 8.45852 8.77595C8.46592 8.77079 8.47493 8.76827 8.48403 8.7688C8.54511 8.7688 8.60618 8.7688 8.66726 8.7688C8.678 8.73694 8.64579 8.70768 8.61424 8.69467C8.58269 8.68167 8.54712 8.67126 8.53034 8.642C8.49812 8.58153 8.58068 8.4983 8.54578 8.44693C8.51087 8.39556 8.43436 8.44498 8.38066 8.47034Z" fill="#0E53D9"/>
<path opacity="0.5" d="M6.70334 6.54053C6.69739 6.5444 6.69037 6.54644 6.6832 6.54638C6.66978 6.54638 6.66105 6.53403 6.65568 6.52233C6.62615 6.4573 6.64293 6.37927 6.59729 6.32726C6.55113 6.38089 6.51398 6.44124 6.48721 6.50607L6.31336 6.45405C6.30505 6.48704 6.30368 6.52131 6.30933 6.55483C6.31498 6.58834 6.32754 6.62041 6.34626 6.64912C6.31583 6.66219 6.28809 6.68047 6.26437 6.70309C6.25292 6.71474 6.24494 6.72917 6.24128 6.74485C6.23762 6.76054 6.2384 6.77689 6.24356 6.79217C6.28351 6.80159 6.32463 6.80553 6.36572 6.80388C6.35945 6.87781 6.36397 6.95224 6.37914 7.02496C6.37955 7.03034 6.38107 7.03558 6.3836 7.04039C6.38614 7.04519 6.38964 7.04945 6.39391 7.05292C6.40666 7.06072 6.42344 7.05292 6.4362 7.04576C6.49678 7.00889 6.54613 6.95704 6.57916 6.89556L6.64628 7.04446C6.65055 7.05997 6.66059 7.07341 6.67447 7.08218C6.68434 7.08541 6.69503 7.08537 6.70487 7.08208C6.71471 7.07878 6.72314 7.07241 6.72884 7.06397C6.73977 7.04683 6.74643 7.02746 6.74831 7.0074L6.7718 6.865C6.77223 6.85782 6.77506 6.85098 6.77985 6.84549C6.78726 6.83984 6.79667 6.83727 6.80603 6.83834C6.86689 6.83834 6.92797 6.83834 6.98927 6.83834C7.00001 6.80648 6.96712 6.77722 6.93625 6.76421C6.90537 6.75121 6.86913 6.7408 6.85167 6.71154C6.82013 6.65107 6.90269 6.56784 6.86778 6.51647C6.83288 6.46511 6.75703 6.51517 6.70334 6.54053Z" fill="#0E53D9"/>
<path opacity="0.5" d="M13.9081 6.99505C13.9022 6.99892 13.8951 7.00096 13.888 7.0009C13.8746 7.0009 13.8658 6.98789 13.8605 6.97684C13.8309 6.91182 13.8477 6.83379 13.8021 6.78177C13.7567 6.83557 13.7202 6.8959 13.694 6.96058L13.5202 6.90856C13.5118 6.94155 13.5105 6.97583 13.5161 7.00934C13.5218 7.04285 13.5343 7.07492 13.553 7.10363C13.5226 7.1167 13.4949 7.13499 13.4712 7.1576C13.4597 7.16925 13.4517 7.18368 13.4481 7.19936C13.4444 7.21505 13.4452 7.2314 13.4503 7.24669C13.4904 7.25575 13.5314 7.25968 13.5725 7.25839C13.5662 7.33211 13.5707 7.40633 13.5859 7.47882C13.5863 7.4843 13.5878 7.48966 13.5903 7.49458C13.5928 7.49949 13.5964 7.50386 13.6007 7.50743C13.6134 7.51523 13.6302 7.50743 13.643 7.50028C13.7029 7.46436 13.7522 7.41394 13.786 7.35397L13.8531 7.50288C13.8575 7.51849 13.8678 7.53194 13.8819 7.54059C13.8917 7.54378 13.9023 7.54371 13.912 7.54042C13.9217 7.53712 13.93 7.53077 13.9356 7.52239C13.9466 7.50524 13.9532 7.48588 13.9551 7.46582L13.9793 7.32341C13.9795 7.31612 13.9821 7.30909 13.9866 7.30326C13.9943 7.29819 14.0035 7.29568 14.0128 7.2961C14.0739 7.2961 14.135 7.2961 14.1961 7.2961C14.2068 7.26424 14.1739 7.23498 14.143 7.22198C14.1122 7.20897 14.0759 7.19857 14.0585 7.16931C14.0269 7.10884 14.1095 7.02561 14.0746 6.97424C14.0397 6.92287 13.9625 6.96969 13.9081 6.99505Z" fill="#0E53D9"/>
<path opacity="0.2" d="M10.4125 6.61533C10.4062 6.61912 10.399 6.62114 10.3917 6.62118C10.3789 6.62118 10.3695 6.60818 10.3641 6.59712C10.3346 6.5321 10.3514 6.45407 10.3064 6.40205C10.2599 6.45557 10.2225 6.51593 10.1957 6.58087L10.0225 6.52885C10.0138 6.56181 10.0123 6.59614 10.0179 6.62971C10.0236 6.66328 10.0363 6.69535 10.0554 6.72392C10.0249 6.73699 9.99721 6.75527 9.97349 6.77789C9.9618 6.78939 9.95361 6.80379 9.94982 6.8195C9.94603 6.83522 9.94679 6.85164 9.95201 6.86697C9.99225 6.87609 10.0335 6.88002 10.0748 6.87868C10.0683 6.95237 10.0726 7.02659 10.0876 7.0991C10.0886 7.11011 10.0939 7.12034 10.1024 7.12772C10.1151 7.13552 10.1319 7.12771 10.1446 7.12056C10.2047 7.08476 10.254 7.03431 10.2876 6.97426L10.3547 7.12316C10.3596 7.13859 10.3698 7.15192 10.3836 7.16088C10.3935 7.16411 10.4042 7.16407 10.414 7.16078C10.4238 7.15748 10.4323 7.15111 10.438 7.14267C10.4487 7.12547 10.4551 7.10611 10.4568 7.0861L10.4809 6.9437C10.4814 6.93634 10.4842 6.92932 10.489 6.92354C10.4965 6.91857 10.5054 6.91606 10.5145 6.91639C10.5756 6.91639 10.6366 6.91639 10.6984 6.91639C10.7085 6.88453 10.6762 6.85527 10.6447 6.84226C10.6132 6.82926 10.5776 6.81885 10.5608 6.78959C10.5286 6.72912 10.6111 6.64589 10.5762 6.59452C10.5413 6.54315 10.4662 6.58997 10.4125 6.61533Z" fill="#0E53D9"/>
<path opacity="0.3" d="M9.31497 7.0776C9.30902 7.08147 9.302 7.08351 9.29484 7.08345C9.28141 7.08345 9.27269 7.07044 9.26732 7.05939C9.23778 6.99437 9.25456 6.91634 9.20892 6.86432C9.16263 6.91786 9.12547 6.97823 9.09884 7.04313L8.925 6.99111C8.91669 7.0241 8.91531 7.05838 8.92096 7.09189C8.92661 7.1254 8.93917 7.15747 8.95789 7.18618C8.92746 7.19925 8.89972 7.21754 8.876 7.24015C8.86455 7.2518 8.85658 7.26623 8.85291 7.28191C8.84925 7.2976 8.85004 7.31395 8.85519 7.32924C8.89521 7.3383 8.93628 7.34223 8.97735 7.34094C8.97102 7.41466 8.97554 7.48888 8.99078 7.56137C8.99113 7.56685 8.99262 7.57221 8.99516 7.57713C8.9977 7.58204 9.00123 7.58641 9.00555 7.58998C9.0183 7.59778 9.03508 7.58998 9.04783 7.58283C9.10779 7.54691 9.15706 7.49649 9.1908 7.43652L9.25792 7.58543C9.26235 7.60104 9.27265 7.61449 9.28678 7.62314C9.29655 7.62633 9.30713 7.62626 9.31686 7.62297C9.32658 7.61967 9.33489 7.61332 9.34048 7.60494C9.3514 7.58779 9.35806 7.56843 9.35994 7.54836L9.38411 7.40596C9.38439 7.39867 9.38697 7.39164 9.39149 7.38581C9.39911 7.38063 9.40841 7.37831 9.41767 7.3793C9.47897 7.3793 9.54005 7.3793 9.60091 7.3793C9.61165 7.34744 9.57876 7.31818 9.54788 7.30518C9.517 7.29217 9.48076 7.28177 9.46331 7.25251C9.43176 7.19204 9.51432 7.10881 9.47942 7.05744C9.44452 7.00607 9.36867 7.05224 9.31497 7.0776Z" fill="#0E53D9"/>
<path opacity="0.2" d="M8.29277 4.27961C8.28653 4.28339 8.27932 4.28542 8.27196 4.28546C8.25921 4.28546 8.24981 4.27245 8.24444 4.2614C8.21491 4.19638 8.23169 4.11835 8.18672 4.06633C8.14035 4.12018 8.10298 4.18073 8.07597 4.24579L7.90279 4.19378C7.89412 4.22673 7.89257 4.26107 7.89823 4.29464C7.90389 4.3282 7.91664 4.36027 7.93569 4.38885C7.90526 4.40191 7.87752 4.4202 7.8538 4.44281C7.84211 4.45432 7.83392 4.46872 7.83013 4.48443C7.82635 4.50015 7.8271 4.51657 7.83232 4.5319C7.87256 4.54096 7.91386 4.5449 7.95515 4.5436C7.9486 4.61729 7.95289 4.69151 7.9679 4.76403C7.9689 4.77504 7.97418 4.78526 7.98267 4.79264C7.99542 4.80044 8.0122 4.79264 8.02496 4.78549C8.08501 4.74969 8.13431 4.69924 8.16792 4.63919L8.23504 4.78809C8.23986 4.80352 8.25006 4.81685 8.26391 4.8258C8.27377 4.82903 8.28446 4.829 8.2943 4.8257C8.30414 4.82241 8.31257 4.81604 8.31827 4.8076C8.32896 4.7904 8.3354 4.77104 8.33707 4.75103L8.36123 4.60862C8.36175 4.60127 8.36456 4.59424 8.36929 4.58847C8.37677 4.58349 8.38572 4.58098 8.39479 4.58132C8.45587 4.58132 8.51762 4.58132 8.5787 4.58132C8.58877 4.54945 8.55655 4.52019 8.52501 4.50719C8.49346 4.49418 8.45789 4.48378 8.44111 4.45452C8.40889 4.39405 8.49144 4.31082 8.45654 4.25945C8.42164 4.20808 8.34647 4.2536 8.29277 4.27961Z" fill="#0E53D9"/>
<path opacity="0.3" d="M10.307 7.93068C10.3008 7.93447 10.2936 7.9365 10.2862 7.93654C10.2735 7.93654 10.2641 7.92418 10.2587 7.91248C10.2292 7.84745 10.246 7.76943 10.201 7.71741C10.1546 7.77102 10.1173 7.83136 10.0902 7.89622L9.91708 7.8442C9.90841 7.87716 9.90685 7.9115 9.91251 7.94506C9.91817 7.97863 9.93092 8.0107 9.94997 8.03927C9.91954 8.05234 9.8918 8.07063 9.86808 8.09324C9.85639 8.10474 9.84821 8.11914 9.84442 8.13486C9.84063 8.15057 9.84138 8.167 9.8466 8.18232C9.88679 8.19171 9.92813 8.19565 9.96943 8.19403C9.96294 8.26794 9.96723 8.34236 9.98219 8.41511C9.98335 8.42588 9.98861 8.43585 9.99695 8.44307C10.0097 8.45087 10.0265 8.44307 10.0399 8.43592C10.0997 8.40003 10.1488 8.34958 10.1822 8.28961L10.2493 8.43852C10.2541 8.45395 10.2643 8.46728 10.2782 8.47623C10.2881 8.47946 10.2987 8.47943 10.3086 8.47613C10.3184 8.47283 10.3269 8.46647 10.3326 8.45802C10.3432 8.44082 10.3497 8.42146 10.3514 8.40145L10.3755 8.25905C10.3759 8.25188 10.3788 8.24503 10.3836 8.23954C10.3908 8.234 10.3999 8.23143 10.4091 8.23239C10.4702 8.23239 10.5319 8.23239 10.593 8.23239C10.6031 8.20053 10.5708 8.17127 10.5393 8.15827C10.5077 8.14526 10.4722 8.13486 10.4554 8.1056C10.4232 8.04513 10.5057 7.9619 10.4708 7.91053C10.4359 7.85916 10.3607 7.90532 10.307 7.93068Z" fill="#0E53D9"/>
</g>
</g>
<defs>
<clipPath id="clip0_13816_9109">
<rect width="32" height="32" fill="white" transform="translate(0 0.5)"/>
</clipPath>
<clipPath id="clip1_13816_9109">
<rect width="23" height="24" fill="white" transform="translate(6 8.5)"/>
</clipPath>
</defs>
</svg>
