<svg width="32" height="32" viewBox="0 0 32 32" fill="none" xmlns="http://www.w3.org/2000/svg">
<g clip-path="url(#clip0_13816_9221)">
<path d="M28.2915 15.0207C28.2791 14.8025 28.1898 14.5957 28.0395 14.437C27.8891 14.2783 27.6875 14.178 27.4702 14.1539L14.1034 12.6456C13.9752 12.631 13.8454 12.6433 13.7222 12.6818L10.6559 13.6419L8.89655 14.1933L5.64969 15.2096C5.4537 15.2712 5.28369 15.3961 5.16633 15.5648C5.04896 15.7334 4.99087 15.9362 5.00117 16.1414L5.54924 29.1691C5.56091 29.3808 5.64443 29.5822 5.78602 29.74C5.92761 29.8979 6.11879 30.0028 6.32801 30.0373L19.9761 30.067C20.0402 30.0775 20.1052 30.0809 20.1701 30.0774C20.2646 30.0728 20.3578 30.0537 20.4465 30.0209L28.4443 29.9656C28.6306 29.897 28.7899 29.7701 28.8984 29.6038C29.007 29.4375 29.059 29.2406 29.0468 29.0424L28.2915 15.0207Z" fill="#FBF8FD"/>
<path d="M6.45685 29.2362L20.1049 29.2657C20.1248 29.269 20.1453 29.2671 20.1643 29.2602L28.161 29.2053C28.1845 29.1969 28.2045 29.181 28.2182 29.1601C28.2318 29.1392 28.2382 29.1145 28.2365 29.0896L27.4822 15.0676C27.4803 15.0405 27.469 15.0148 27.4504 14.995C27.4317 14.9753 27.4067 14.9626 27.3797 14.9592L27.2897 14.9486L14.0123 13.4521C14.0062 13.4513 14.0001 13.4511 13.9939 13.4516C13.984 13.4518 13.974 13.4534 13.9645 13.4562L6.48553 15.7983L5.89194 15.9837C5.86765 15.9916 5.84662 16.0073 5.83206 16.0283C5.81749 16.0493 5.81019 16.0744 5.81126 16.1L6.35954 29.1272C6.36088 29.1537 6.37127 29.179 6.38897 29.1989C6.40667 29.2187 6.43062 29.2318 6.45685 29.2362Z" fill="#C6C6D0"/>
<path d="M6.48553 15.7983L13.9645 13.4562C13.9741 13.4534 13.984 13.4518 13.994 13.4516C14.0001 13.4511 14.0062 13.4513 14.0123 13.4521L27.2897 14.9486L24.092 15.9892L22.8952 16.378L19.4898 17.4854C19.4797 17.4881 19.4695 17.4901 19.4591 17.4915C19.4526 17.491 19.446 17.4904 19.4381 17.49L6.48553 15.7983Z" fill="#1B1B1F"/>
<path d="M6.32793 30.038L19.976 30.0675C20.0402 30.0778 20.1053 30.0809 20.1702 30.0766C20.2647 30.0723 20.3581 30.0537 20.4471 30.0215L28.4438 29.9666C28.6302 29.8978 28.7895 29.7707 28.8982 29.6043C29.0068 29.438 29.0589 29.241 29.0469 29.0427L28.2912 15.0208C28.2817 14.8566 28.2289 14.6978 28.1381 14.5606C28.1256 14.5424 28.1131 14.5243 28.0994 14.5076C28.0054 14.3847 27.8816 14.2878 27.7396 14.2263C27.654 14.1888 27.5632 14.1644 27.4703 14.154L27.4544 14.1519L14.104 12.6454C14.0496 12.64 13.9949 12.6384 13.9403 12.6406C13.8661 12.6457 13.7927 12.6598 13.7219 12.6826L10.6558 13.6415L8.89685 14.1938L5.64939 15.2101C5.5165 15.2515 5.39476 15.3225 5.29332 15.4179C5.28525 15.4241 5.27774 15.4311 5.2709 15.4387C5.26593 15.4437 5.26131 15.449 5.25707 15.4546C5.17013 15.5456 5.10262 15.6533 5.05866 15.7712C5.01469 15.8891 4.9952 16.0148 5.00135 16.1404L5.5485 29.1691C5.56022 29.381 5.64383 29.5826 5.78553 29.7405C5.92723 29.8985 6.11855 30.0034 6.32793 30.038ZM5.23246 16.1297C5.22617 15.9994 5.2571 15.87 5.32162 15.7566C5.34077 15.7205 5.36355 15.6864 5.3896 15.6548C5.46049 15.5675 5.55167 15.4988 5.65519 15.4548C5.67557 15.4459 5.6965 15.4382 5.71784 15.432L11.1857 13.7206L13.7915 12.9031C13.8091 12.8971 13.8257 12.8939 13.8421 12.8894C13.8822 12.88 13.9231 12.8745 13.9643 12.8728C14.0018 12.8698 14.0395 12.8708 14.0768 12.8756L27.4431 14.3842C27.4537 14.3856 27.463 14.3872 27.4736 14.3886C27.5961 14.4067 27.7112 14.4581 27.8065 14.5372C27.8813 14.5973 27.9426 14.6725 27.9863 14.7579C28.03 14.8433 28.0552 14.937 28.0603 15.0329L28.8148 29.0562C28.8239 29.2047 28.7849 29.3521 28.7038 29.4768C28.6226 29.6015 28.5035 29.6968 28.3641 29.7486L20.3661 29.8036C20.253 29.8451 20.1312 29.8568 20.0123 29.8376L6.36443 29.8094C6.20774 29.7831 6.06464 29.7043 5.95861 29.586C5.85258 29.4677 5.78991 29.3168 5.78089 29.1582L5.23246 16.1297Z" fill="#757680"/>
<path d="M20.2116 30.1024C20.1811 30.104 20.1512 30.0934 20.1284 30.073C20.1057 30.0526 20.0919 30.0241 20.0901 29.9936L19.3379 17.3821C19.3361 17.3514 19.3465 17.3213 19.3669 17.2983C19.3873 17.2753 19.416 17.2613 19.4467 17.2595L19.4477 17.2595C19.4783 17.2579 19.5082 17.2685 19.5309 17.2889C19.5537 17.3093 19.5675 17.3378 19.5693 17.3683L20.3215 29.9798C20.3233 30.0105 20.3129 30.0406 20.2924 30.0636C20.272 30.0866 20.2434 30.1005 20.2127 30.1024L20.2116 30.1024Z" fill="#757680"/>
<path d="M24.9301 29.2493L23.6206 29.2404L22.3781 16.3024C22.3781 16.3024 23.951 15.6591 24.0199 15.7685C24.0619 15.8337 24.9253 29.1691 24.9301 29.2493Z" fill="#757680"/>
<path d="M27.8745 14.6475L27.78 14.5701C27.6827 14.4901 27.5641 14.4402 27.4389 14.4265L14.0728 12.9179C13.999 12.9098 13.9245 12.914 13.8521 12.9302L13.802 12.9425L13.7919 12.7426L16.0086 10.2904C16.1406 10.1451 16.3043 10.0322 16.4871 9.96045C16.6699 9.88874 16.8668 9.8602 17.0624 9.87705L26.0984 10.6765C26.3683 10.6995 26.6237 10.8086 26.827 10.9877C27.0302 11.1668 27.1706 11.4065 27.2273 11.6714L27.8745 14.6475Z" fill="#757680"/>
<path d="M7.67204 24.5148C7.6863 24.5125 7.70077 24.5118 7.71519 24.5127L11.829 24.762C11.8805 24.7651 11.9287 24.7885 11.9629 24.8272C11.9971 24.8658 12.0146 24.9164 12.0115 24.9679C12.0084 25.0194 11.9849 25.0676 11.9463 25.1018C11.9077 25.136 11.8571 25.1535 11.8056 25.1504L7.69174 24.901C7.64398 24.8981 7.59896 24.8777 7.56529 24.8437C7.53162 24.8097 7.51166 24.7645 7.50922 24.7167C7.50679 24.6689 7.52204 24.6219 7.55208 24.5847C7.58211 24.5474 7.62482 24.5226 7.67204 24.5148Z" fill="#FBF8FD"/>
<path d="M7.74095 25.96C7.75521 25.9577 7.76968 25.9569 7.7841 25.9578L11.8979 26.2071C11.9494 26.2103 11.9976 26.2337 12.0318 26.2723C12.066 26.3109 12.0835 26.3616 12.0804 26.4131C12.0773 26.4646 12.0538 26.5127 12.0152 26.5469C11.9766 26.5812 11.926 26.5986 11.8745 26.5955L7.76065 26.3462C7.71289 26.3433 7.66787 26.3229 7.6342 26.2889C7.60053 26.2549 7.58057 26.2097 7.57813 26.1619C7.5757 26.1141 7.59095 26.0671 7.62099 26.0298C7.65102 25.9926 7.69373 25.9677 7.74095 25.96Z" fill="#FBF8FD"/>
<path d="M27.9677 14.7242C27.9584 14.7302 27.9484 14.735 27.9379 14.7386L27.5149 14.8757L24.0919 15.9897L22.8953 16.3778L22.8511 16.3923L22.7575 16.4229L20.8477 17.0442L20.12 17.2808L19.4894 17.4859C19.48 17.4884 19.4698 17.4901 19.4596 17.4918C19.4528 17.491 19.446 17.491 19.4383 17.4901L17.8358 17.2808L15.9064 17.0289L15.0043 16.9114L13.0298 16.6527L11.1353 16.4059L11.0885 16.3999L11.0417 16.3931L5.38981 15.6552L5.34215 15.6484C5.33114 15.6474 5.32044 15.6442 5.31066 15.6391C5.28789 15.6288 5.269 15.6116 5.25675 15.5898C5.2445 15.5681 5.23953 15.543 5.24257 15.5182C5.2448 15.4975 5.25276 15.4777 5.26555 15.4612C5.27066 15.4561 5.27491 15.451 5.28002 15.4467C5.28427 15.4442 5.28938 15.4391 5.29449 15.4365C5.31735 15.4208 5.34527 15.4141 5.37278 15.4178L5.65534 15.4552L11.0417 16.1591L11.0885 16.165L11.1353 16.171L13.926 16.5361L14.9643 16.6714L17.697 17.0289L19.4426 17.2569L20.1447 17.0289L22.3779 16.3029L22.7575 16.1795L22.8043 16.1642L22.8511 16.1489L24.0196 15.7693L27.4953 14.6382L27.8068 14.5369L27.8673 14.5174C27.8933 14.5092 27.9214 14.5104 27.9466 14.5208C27.9718 14.5312 27.9925 14.5502 28.0051 14.5744C28.0082 14.5801 28.0108 14.5861 28.0128 14.5923C28.0204 14.6162 28.0201 14.6419 28.012 14.6657C28.0039 14.6894 27.9884 14.7099 27.9677 14.7242Z" fill="#757680"/>
<path d="M16.2151 22.7276C16.1404 22.7276 16.0658 22.7218 15.9919 22.7103L7.44684 21.3758C7.15342 21.329 6.88113 21.1942 6.66602 20.9892C6.45092 20.7843 6.30316 20.5188 6.2423 20.228L5.28864 15.5991L5.34735 15.6062L19.6323 17.333L17.5436 21.8776C17.4261 22.1311 17.2387 22.3458 17.0033 22.4963C16.768 22.6469 16.4945 22.7271 16.2151 22.7276Z" fill="#757680"/>
</g>
<rect x="4" y="1" width="10" height="10" rx="5" fill="#C6C6D0"/>
<path d="M9.67911 5.99907L10.3582 5.31954C10.448 5.22936 10.4983 5.10725 10.4981 4.97999C10.498 4.85273 10.4474 4.73072 10.3575 4.64074C10.2676 4.55075 10.1456 4.50014 10.0185 4.5C9.89128 4.49986 9.76923 4.55021 9.67911 4.64L9 5.31953L8.32089 4.64C8.23077 4.55021 8.10873 4.49986 7.98155 4.5C7.85437 4.50014 7.73244 4.55075 7.64251 4.64074C7.55258 4.73072 7.50199 4.85273 7.50186 4.97999C7.50172 5.10725 7.55205 5.22936 7.64179 5.31954L8.32089 5.99907L7.64179 6.6786C7.59695 6.72316 7.56134 6.77615 7.53701 6.83451C7.51268 6.89287 7.50011 6.95546 7.5 7.0187C7.4999 7.08193 7.51226 7.14457 7.5364 7.20301C7.56053 7.26145 7.59596 7.31455 7.64065 7.35926C7.68533 7.40398 7.7384 7.43943 7.79681 7.46358C7.85521 7.48773 7.91781 7.5001 7.981 7.5C8.0442 7.49989 8.10676 7.48731 8.16508 7.46296C8.22341 7.43862 8.27635 7.403 8.32089 7.35813L9 6.6786L9.67911 7.35813C9.72365 7.403 9.7766 7.43862 9.83493 7.46296C9.89325 7.48731 9.9558 7.49989 10.019 7.5C10.0822 7.5001 10.1448 7.48773 10.2032 7.46358C10.2616 7.43943 10.3147 7.40398 10.3594 7.35926C10.404 7.31455 10.4395 7.26145 10.4636 7.20301C10.4877 7.14457 10.5001 7.08193 10.5 7.0187C10.4999 6.95546 10.4873 6.89287 10.463 6.83451C10.4387 6.77615 10.4031 6.72316 10.3582 6.6786L9.67911 5.99907Z" fill="#BA1A1A"/>
<defs>
<clipPath id="clip0_13816_9221">
<rect width="24" height="24" fill="white" transform="translate(5 8)"/>
</clipPath>
</defs>
</svg>
