<svg fill="none" height="134" viewBox="0 0 248 134" width="248" xmlns="http://www.w3.org/2000/svg">
    <g clip-path="url(#clip0_9800_2536)">
        <path
            d="M134.577 70.8853V71.1762C134.577 73.8487 133.513 76.4116 131.619 78.3011C129.725 80.1905 127.156 81.2518 124.478 81.2514H10.4812C7.80352 81.2511 5.2356 80.1895 3.34221 78.3001C1.44883 76.4107 0.385021 73.8482 0.384766 71.1762V70.8853H134.577Z"
            fill="#F2F2F2" />
        <path
            d="M24.2274 22.9236C15.9893 24.954 8.59398 18.6294 7.30273 12.7621L7.87629 12.6598C14.8198 11.1282 22.5708 16.081 24.2274 22.9236Z"
            fill="#0F53D9" />
        <path
            d="M223.356 131.583C220.974 130.556 220.432 126.816 222.426 125.159C224.421 123.502 228.009 124.71 228.59 127.234L226.367 111.368C225.856 107.721 225.447 103.644 227.656 100.693C229.725 97.9302 233.766 97.045 237.01 98.2344C240.254 99.4237 242.652 102.391 243.669 105.687C244.686 108.983 244.446 112.565 243.558 115.897C242.67 119.23 241.161 122.361 239.634 125.455C238.071 128.626 236.174 132.062 232.831 133.229C229.638 134.344 223.356 131.583 223.356 131.583Z"
            fill="#F2F2F2" />
        <path
            d="M233.797 97.9332C235.258 102.482 235.953 107.241 235.855 112.016C235.763 116.77 234.907 121.479 233.32 125.963C232.417 128.506 231.272 130.958 229.901 133.285C229.842 133.394 229.828 133.522 229.862 133.642C229.895 133.762 229.974 133.864 230.082 133.927C230.19 133.99 230.318 134.008 230.439 133.979C230.56 133.949 230.665 133.874 230.731 133.769C233.192 129.573 234.94 125 235.906 120.236C236.885 115.448 237.081 110.534 236.486 105.685C236.152 102.967 235.562 100.286 234.724 97.6782C234.535 97.093 233.607 97.3432 233.797 97.9332Z"
            fill="white" />
        <path
            d="M221.944 125.743L229.552 133.721C229.979 134.169 230.658 133.49 230.232 133.042L222.624 125.064C222.197 124.616 221.518 125.295 221.944 125.743Z"
            fill="white" />
        <path
            d="M215.481 95.619C215.21 95.6195 214.948 95.5223 214.743 95.3453C210.045 92.2929 205.864 88.5145 202.355 84.1516C202.14 83.9483 202.014 83.6693 202.003 83.3742C201.992 83.0791 202.097 82.7914 202.295 82.5725L204.601 80.0312L205.076 80.4606L202.77 83.0018C202.683 83.0984 202.637 83.2257 202.643 83.3558C202.65 83.4859 202.708 83.6081 202.805 83.6955L202.838 83.731C206.312 88.0549 210.455 91.7983 215.11 94.8204L215.152 94.8524C215.248 94.9398 215.376 94.9853 215.506 94.9788C215.637 94.9724 215.759 94.9146 215.847 94.818L220.346 89.8595C220.43 89.7673 220.475 89.6468 220.474 89.5224C220.472 89.3981 220.423 89.279 220.336 89.1894C219.293 88.6225 218.276 88.0044 217.312 87.352L217.671 86.8227C218.63 87.4714 219.642 88.0854 220.68 88.648L220.742 88.692C220.852 88.7916 220.942 88.912 221.006 89.0462C221.069 89.1804 221.106 89.3257 221.113 89.474C221.12 89.6223 221.098 89.7706 221.048 89.9104C220.998 90.0502 220.921 90.1788 220.821 90.2888L216.322 95.2474C216.222 95.3577 216.102 95.4473 215.967 95.5108C215.833 95.5744 215.687 95.6106 215.538 95.6176C215.519 95.6185 215.5 95.619 215.481 95.619Z"
            fill="#3F3D56" />
        <path
            d="M210.521 87.2718C211.934 88.5475 213.385 89.2478 213.764 88.8321C213.813 88.7616 213.844 88.6801 213.854 88.5947C213.864 88.5094 213.853 88.4229 213.821 88.3429C213.668 87.8723 213.423 87.4365 213.1 87.0607C211.844 86.1686 210.623 85.2062 209.438 84.1734C209.066 84.0519 208.781 84.0551 208.643 84.2086C208.624 84.2306 208.607 84.2554 208.595 84.2822C208.358 84.765 209.182 86.0599 210.521 87.2718Z"
            fill="#0F53D9" />
        <path
            d="M202.003 76.9918C202.015 77.283 202.142 77.5576 202.356 77.756C204.254 80.0969 206.341 82.2795 208.595 84.282C210.244 85.7502 211.99 87.1068 213.821 88.3428C214.125 88.5506 214.433 88.752 214.743 88.9503C214.947 89.1284 215.209 89.2262 215.48 89.2253C215.5 89.2253 215.519 89.2221 215.538 89.2221C215.687 89.2152 215.833 89.1788 215.968 89.1152C216.103 89.0515 216.223 88.9618 216.323 88.8511L220.822 83.8951C221.024 83.6725 221.128 83.379 221.113 83.0792C221.098 82.7794 220.965 82.4978 220.742 82.2964L220.681 82.2516C215.769 79.6043 211.571 75.8122 208.444 71.1981L208.396 71.1405C208.173 70.9392 207.879 70.8346 207.578 70.8496C207.278 70.8645 206.996 70.9979 206.794 71.2204L202.295 76.1765C202.195 76.2865 202.118 76.4152 202.068 76.5551C202.018 76.695 201.996 76.8434 202.003 76.9918ZM202.644 76.9598C202.641 76.8959 202.65 76.8319 202.672 76.7716C202.693 76.7112 202.726 76.6557 202.769 76.6081L207.268 71.6489C207.312 71.6008 207.364 71.5619 207.423 71.5344C207.482 71.507 207.546 71.4915 207.611 71.489C207.729 71.4819 207.845 71.5183 207.938 71.5913C211.111 76.2628 215.363 80.1052 220.335 82.7952C220.421 82.8843 220.471 83.0028 220.473 83.1268C220.475 83.2508 220.431 83.3711 220.348 83.4635L215.846 88.4227C215.803 88.471 215.751 88.5101 215.692 88.5376C215.634 88.5651 215.571 88.5804 215.506 88.5826C215.376 88.5889 215.248 88.5441 215.15 88.4579L215.109 88.4259C214.429 87.9911 213.76 87.536 213.1 87.0606C211.844 86.1685 210.623 85.2061 209.437 84.1733C207.043 82.0894 204.835 79.8021 202.837 77.3372L202.804 77.302C202.708 77.2132 202.651 77.0904 202.644 76.9598Z"
            fill="#3F3D56" />
        <path
            d="M213.763 82.4383C214.14 82.0233 213.299 80.6514 211.885 79.3739C210.471 78.0965 209.02 77.3973 208.644 77.8122C208.267 78.2271 209.108 79.5991 210.522 80.8765C211.935 82.154 213.387 82.8532 213.763 82.4383Z"
            fill="#0F53D9" />
        <path d="M185.493 129.992L181.565 129.992L179.696 114.872L185.494 114.872L185.493 129.992Z"
            fill="#FFB8B8" />
        <path
            d="M186.496 133.792L173.829 133.791V133.632C173.829 132.986 173.957 132.346 174.204 131.749C174.452 131.152 174.815 130.61 175.273 130.153C175.731 129.696 176.274 129.334 176.873 129.086C177.471 128.839 178.112 128.712 178.759 128.712H178.76L186.496 128.712L186.496 133.792Z"
            fill="#2F2E41" />
        <path d="M197.029 129.992L193.1 129.992L191.231 114.872L197.029 114.872L197.029 129.992Z"
            fill="#FFB8B8" />
        <path
            d="M198.031 133.792L185.364 133.791V133.632C185.364 132.986 185.492 132.346 185.74 131.749C185.987 131.152 186.35 130.61 186.808 130.153C187.266 129.696 187.81 129.334 188.408 129.086C189.006 128.839 189.647 128.712 190.294 128.712H190.295L198.031 128.712L198.031 133.792Z"
            fill="#2F2E41" />
        <path
            d="M199.665 68.8863L198.727 124.424C198.724 124.6 198.685 124.773 198.612 124.933C198.539 125.093 198.433 125.237 198.302 125.354C198.171 125.472 198.017 125.561 197.85 125.616C197.682 125.672 197.505 125.692 197.33 125.676L192.733 125.259C192.431 125.232 192.149 125.099 191.937 124.884C191.724 124.669 191.595 124.386 191.571 124.084L188.88 89.4415C188.874 89.3602 188.836 89.2843 188.776 89.2294C188.715 89.1746 188.636 89.1449 188.554 89.1465C188.472 89.1481 188.394 89.1809 188.336 89.2381C188.278 89.2953 188.243 89.3726 188.24 89.4541L186.895 124.89C186.883 125.221 186.742 125.534 186.503 125.763C186.265 125.992 185.946 126.121 185.614 126.121H180.685C180.358 126.121 180.044 125.996 179.806 125.773C179.569 125.55 179.425 125.245 179.405 124.92L175.954 68.5666L196.461 63.4507L199.665 68.8863Z"
            fill="#2F2E41" />
        <path
            d="M184.791 16.7373C189.137 16.7373 192.661 13.2213 192.661 8.88402C192.661 4.54679 189.137 1.03076 184.791 1.03076C180.444 1.03076 176.921 4.54679 176.921 8.88402C176.921 13.2213 180.444 16.7373 184.791 16.7373Z"
            fill="#FFB8B8" />
        <path
            d="M175.252 70.5387C175.115 70.4073 175.006 70.2502 174.931 70.0765C174.856 69.9028 174.816 69.7159 174.814 69.5268L174.283 31.6554C174.252 29.7289 174.832 27.8419 175.942 26.2654C177.052 24.689 178.635 23.5041 180.462 22.8812C181.199 19.5432 185.123 19.1251 187.411 19.1751C187.982 19.1873 188.542 19.3368 189.042 19.6108C189.543 19.8848 189.97 20.2753 190.288 20.7491L191.927 23.2037L195.542 25.318C197.215 26.2923 198.534 27.7716 199.31 29.5425C200.085 31.3134 200.277 33.2845 199.858 35.1714L199.302 37.6972C197.342 46.637 197.528 55.9125 199.846 64.7668L200.965 69.0272C201.024 69.249 201.028 69.4816 200.978 69.7055C200.928 69.9294 200.825 70.1381 200.678 70.3142C200.53 70.4903 200.343 70.6287 200.131 70.7178C199.919 70.807 199.689 70.8443 199.46 70.8267L198.16 70.7267C197.822 70.7012 197.504 70.5578 197.262 70.3217C197.02 70.0855 196.869 69.7718 196.835 69.4356L196.62 67.2879C196.616 67.2485 196.598 67.2119 196.568 67.1853C196.539 67.1587 196.5 67.144 196.461 67.144C196.421 67.144 196.383 67.1587 196.353 67.1853C196.324 67.2119 196.305 67.2485 196.301 67.2879L196.093 69.3672C196.058 69.7185 195.894 70.0446 195.634 70.2835C195.374 70.5223 195.034 70.6573 194.68 70.6627L176.278 70.9453C176.271 70.9453 176.263 70.9456 176.255 70.9456C175.88 70.9464 175.52 70.8003 175.252 70.5387Z"
            fill="#3F3D56" />
        <path
            d="M185.407 13.4108C185.439 14.5209 186.211 15.1632 187.16 15.7447C188.108 16.3262 189.216 16.5783 190.302 16.8215C190.448 16.8988 190.612 16.9373 190.777 16.9332C190.942 16.9292 191.103 16.8828 191.245 16.7984C191.387 16.7141 191.504 16.5947 191.587 16.4517C191.669 16.3088 191.713 16.1471 191.714 15.9823L192.71 12.2019C193.062 10.9943 193.319 9.76083 193.477 8.51299C193.716 6.11199 193.146 3.52911 191.467 1.79313C189.787 0.0571459 186.875 -0.559534 184.862 0.778012C182.474 -2.26589 171.557 4.45923 174.25 6.57588C174.729 6.95243 175.462 6.47596 176.07 6.42978C176.678 6.38359 177.359 6.49033 177.746 6.96126C178.25 7.57651 178.03 8.493 178.238 9.2605C178.324 9.53055 178.463 9.78094 178.647 9.99722C178.83 10.2135 179.055 10.3914 179.307 10.5206C179.56 10.6499 179.836 10.728 180.119 10.7503C180.402 10.7726 180.687 10.7389 180.957 10.6509C181.46 10.4037 181.933 10.1002 182.367 9.74643C182.833 9.43642 183.422 9.20735 183.947 9.40287C184.64 9.66061 184.885 10.5061 184.948 11.2406C185.053 11.9732 185.207 12.6981 185.407 13.4108Z"
            fill="#2F2E41" />
        <path d="M183.568 34.458L182.286 50.1255L175.558 66.4325L185.491 50.4452L183.568 34.458Z"
            fill="black"
            opacity="0.2" />
        <path
            d="M173.984 72.5052C174.352 72.2109 174.65 71.8398 174.858 71.4181C175.066 70.9964 175.179 70.5343 175.188 70.0643C175.198 69.5944 175.104 69.128 174.914 68.6981C174.724 68.2682 174.441 67.8852 174.086 67.576L178.373 56.981L172.54 58.1562L169.364 68.0373C168.883 68.6666 168.65 69.4501 168.709 70.2392C168.769 71.0284 169.116 71.7685 169.685 72.3192C170.255 72.8699 171.007 73.193 171.799 73.2273C172.592 73.2616 173.369 73.0047 173.984 72.5052Z"
            fill="#FFB8B8" />
        <path
            d="M173.672 67.8324L170.37 66.645C170.03 66.5209 169.749 66.2741 169.582 65.9534C169.415 65.6327 169.375 65.2612 169.468 64.9122L174.915 45.0178L175.745 27.0378C175.77 26.4951 175.903 25.9628 176.136 25.4718C176.369 24.9808 176.698 24.5409 177.102 24.1777C177.507 23.8146 177.981 23.5354 178.495 23.3564C179.009 23.1773 179.553 23.1021 180.097 23.135C180.64 23.1678 181.172 23.3082 181.66 23.5479C182.149 23.7875 182.585 24.1217 182.943 24.5311C183.301 24.9404 183.574 25.4166 183.745 25.9321C183.917 26.4476 183.985 26.9921 183.944 27.5338L182.461 47.2216L175.521 66.9556C175.416 67.2538 175.216 67.5092 174.951 67.6825C174.686 67.8557 174.371 67.9373 174.055 67.9147C173.924 67.9047 173.795 67.877 173.672 67.8324Z"
            fill="#3F3D56" />
        <path
            d="M207.697 73.5448C207.922 73.132 208.054 72.6749 208.083 72.2058C208.112 71.7366 208.038 71.2668 207.865 70.8294C207.693 70.392 207.426 69.9976 207.085 69.6741C206.743 69.3506 206.334 69.1058 205.887 68.957L205.753 57.5317L200.824 60.8587L201.708 71.1982C201.507 71.9638 201.595 72.7763 201.954 73.4818C202.313 74.1873 202.92 74.7367 203.658 75.0259C204.396 75.3152 205.215 75.3242 205.959 75.0512C206.704 74.7782 207.322 74.2422 207.697 73.5448Z"
            fill="#FFB8B8" />
        <path
            d="M205.605 69.3527L202.099 69.5264C201.738 69.5425 201.383 69.4229 201.105 69.1912C200.827 68.9594 200.646 68.6322 200.598 68.274L197.943 47.8217L191.767 30.9105C191.58 30.4 191.498 29.8577 191.523 29.3151C191.549 28.7724 191.682 28.2402 191.915 27.7494C192.149 27.2586 192.478 26.819 192.883 26.4562C193.288 26.0934 193.762 25.8146 194.276 25.636C194.79 25.4574 195.335 25.3826 195.878 25.4159C196.421 25.4492 196.953 25.59 197.441 25.8301C197.929 26.0701 198.365 26.4047 198.723 26.8143C199.08 27.2239 199.353 27.7003 199.524 28.2159L205.757 46.9539L206.973 67.8326C206.991 68.1482 206.904 68.4609 206.727 68.7227C206.549 68.9844 206.29 69.1807 205.99 69.2813C205.865 69.3224 205.736 69.3464 205.605 69.3527Z"
            fill="#3F3D56" />
        <path
            d="M247.68 133.954H125.599C125.514 133.954 125.432 133.921 125.372 133.861C125.312 133.801 125.278 133.719 125.278 133.635C125.278 133.55 125.312 133.469 125.372 133.409C125.432 133.349 125.514 133.315 125.599 133.315H247.68C247.764 133.315 247.846 133.349 247.906 133.409C247.966 133.469 248 133.55 248 133.635C248 133.719 247.966 133.801 247.906 133.861C247.846 133.921 247.764 133.954 247.68 133.954Z"
            fill="#3F3D56" />
        <path
            d="M103.567 64.9217C101.726 64.9217 100.263 64.3756 99.2163 63.2983C96.8511 60.8634 96.9993 56.1701 97.1183 52.3989C97.1529 51.3018 97.1856 50.2655 97.1526 49.3974L97.1524 49.3843C97.1607 47.6883 97.8394 46.064 99.0409 44.8644C100.242 43.6648 101.87 42.9867 103.569 42.9775H118.827C120.665 42.9775 122.127 43.5229 123.172 44.5987C125.537 47.0316 125.391 51.7238 125.273 55.4941C125.239 56.5935 125.207 57.6321 125.24 58.5017C125.234 60.2003 124.556 61.8277 123.354 63.0301C122.152 64.2324 120.522 64.9122 118.82 64.9217H103.567ZM97.7932 49.3798C97.8267 50.2686 97.7938 51.3132 97.7588 52.4191C97.6436 56.0696 97.5002 60.6128 99.6765 62.8532C100.611 63.8148 101.883 64.2822 103.567 64.2822H118.819C120.35 64.2742 121.816 63.6637 122.898 62.5835C123.98 61.5033 124.592 60.0406 124.6 58.5131C124.565 57.6344 124.598 56.5851 124.633 55.4741C124.747 51.8245 124.889 47.2824 122.712 45.044C121.779 44.0838 120.508 43.617 118.827 43.617H103.57C102.041 43.6255 100.577 44.2354 99.4955 45.3142C98.414 46.393 97.8023 47.8538 97.7932 49.3798Z"
            fill="#3F3D56" />
        <path
            d="M20.8561 23.5117C18.1809 23.4955 15.5638 22.7306 13.3025 21.3039C9.98976 19.2498 7.48842 15.9599 6.77466 12.7186L6.70312 12.3937L7.59837 12.2338C14.6455 10.6818 22.6162 15.6833 24.3237 22.7331L24.3986 23.0422L24.0892 23.1186C23.0314 23.3798 21.9458 23.5118 20.8561 23.5117ZM7.47809 12.905C8.24703 15.8784 10.5807 18.8633 13.6408 20.7608C16.5994 22.6503 20.1848 23.3007 23.6206 22.5714C21.8341 16.0033 14.3532 11.3944 7.73048 12.8598L7.47809 12.905Z"
            fill="#3F3D56" />
        <path
            d="M11.9674 59.8485C9.87099 59.8485 8.16782 58.9124 7.1679 57.2047C6.60745 56.2112 6.31286 55.0904 6.3125 53.9503C6.31214 52.8102 6.60604 51.6892 7.16587 50.6953C8.18177 48.9584 9.92555 48.0162 12.0791 48.0492H32.4079C34.5542 48.0219 36.2993 48.9599 37.3158 50.6988C37.8757 51.6924 38.1697 52.8131 38.1696 53.9531C38.1695 55.093 37.8753 56.2137 37.3152 57.2072C36.2991 58.9421 34.5545 59.8687 32.4031 59.8477H12.0739C12.0383 59.8482 12.0028 59.8485 11.9674 59.8485ZM11.9793 48.6879C10.1097 48.6879 8.59951 49.5129 7.71933 51.0177C7.21499 51.9131 6.95024 52.923 6.95057 53.9501C6.95091 54.9772 7.21633 55.9869 7.72125 56.882C8.61626 58.4107 10.1574 59.2382 12.0691 59.2082H32.4079C34.3216 59.2387 35.8675 58.4115 36.7619 56.8845C37.2665 55.9894 37.5315 54.9797 37.5316 53.9528C37.5316 52.9258 37.2667 51.9162 36.7623 51.021C35.8673 49.4901 34.3211 48.6657 32.4124 48.6887H12.0724C12.0413 48.6882 12.0101 48.6879 11.9793 48.6879Z"
            fill="#3F3D56" />
        <path
            d="M108.783 50.5812H102.375C101.95 50.5812 101.542 50.4128 101.242 50.113C100.941 49.8132 100.772 49.4065 100.772 48.9825C100.772 48.5585 100.941 48.1519 101.242 47.852C101.542 47.5522 101.95 47.3838 102.375 47.3838H108.783C109.208 47.3838 109.615 47.5522 109.916 47.852C110.216 48.1519 110.385 48.5585 110.385 48.9825C110.385 49.4065 110.216 49.8132 109.916 50.113C109.615 50.4128 109.208 50.5812 108.783 50.5812Z"
            fill="#0F53D9" />
        <path
            d="M108.783 55.6974H102.375C101.95 55.6974 101.542 55.529 101.242 55.2292C100.941 54.9294 100.772 54.5227 100.772 54.0987C100.772 53.6747 100.941 53.2681 101.242 52.9683C101.542 52.6684 101.95 52.5 102.375 52.5H108.783C109.208 52.5 109.615 52.6684 109.916 52.9683C110.216 53.2681 110.385 53.6747 110.385 54.0987C110.385 54.5227 110.216 54.9294 109.916 55.2292C109.615 55.529 109.208 55.6974 108.783 55.6974Z"
            fill="#0F53D9" />
        <path
            d="M108.783 60.8132H102.375C101.95 60.8132 101.542 60.6447 101.242 60.3449C100.941 60.0451 100.772 59.6385 100.772 59.2144C100.772 58.7904 100.941 58.3838 101.242 58.084C101.542 57.7842 101.95 57.6157 102.375 57.6157H108.783C109.208 57.6157 109.615 57.7842 109.916 58.084C110.216 58.3838 110.385 58.7904 110.385 59.2144C110.385 59.6385 110.216 60.0451 109.916 60.3449C109.615 60.6447 109.208 60.8132 108.783 60.8132Z"
            fill="#0F53D9" />
        <path
            d="M119.998 50.5812H113.589C113.165 50.5812 112.757 50.4128 112.457 50.113C112.156 49.8132 111.987 49.4065 111.987 48.9825C111.987 48.5585 112.156 48.1519 112.457 47.852C112.757 47.5522 113.165 47.3838 113.589 47.3838H119.998C120.423 47.3838 120.83 47.5522 121.131 47.852C121.431 48.1519 121.6 48.5585 121.6 48.9825C121.6 49.4065 121.431 49.8132 121.131 50.113C120.83 50.4128 120.423 50.5812 119.998 50.5812Z"
            fill="#0F53D9" />
        <path
            d="M119.998 55.6974H113.589C113.165 55.6974 112.757 55.529 112.457 55.2292C112.156 54.9294 111.987 54.5227 111.987 54.0987C111.987 53.6747 112.156 53.2681 112.457 52.9683C112.757 52.6684 113.165 52.5 113.589 52.5H119.998C120.423 52.5 120.83 52.6684 121.131 52.9683C121.431 53.2681 121.6 53.6747 121.6 54.0987C121.6 54.5227 121.431 54.9294 121.131 55.2292C120.83 55.529 120.423 55.6974 119.998 55.6974Z"
            fill="#0F53D9" />
        <path
            d="M119.998 60.8132H113.589C113.165 60.8132 112.757 60.6447 112.457 60.3449C112.156 60.0451 111.987 59.6385 111.987 59.2144C111.987 58.7904 112.156 58.3838 112.457 58.084C112.757 57.7842 113.165 57.6157 113.589 57.6157H119.998C120.423 57.6157 120.83 57.7842 121.131 58.084C121.431 58.3838 121.6 58.7904 121.6 59.2144C121.6 59.6385 121.431 60.0451 121.131 60.3449C120.83 60.6447 120.423 60.8132 119.998 60.8132Z"
            fill="#0F53D9" />
        <path d="M134.577 27.8604H0.384766V28.4998H134.577V27.8604Z" fill="#3F3D56" />
        <path
            d="M124.003 81.4367H10.5739C7.77052 81.4335 5.08284 80.3208 3.10053 78.3427C1.11822 76.3646 0.00316673 73.6826 0 70.8851V15.889C0.00316673 13.0915 1.11822 10.4095 3.10053 8.43138C5.08284 6.45326 7.77052 5.34056 10.5739 5.3374H124.003C126.807 5.34056 129.494 6.45326 131.477 8.43138C133.459 10.4095 134.574 13.0915 134.577 15.889V70.8851C134.574 73.6826 133.459 76.3646 131.477 78.3427C129.494 80.3208 126.807 81.4335 124.003 81.4367ZM10.5739 5.97689C7.94043 5.97988 5.41564 7.02515 3.55348 8.88338C1.69131 10.7416 0.643836 13.261 0.640844 15.889V70.8851C0.643837 73.513 1.69132 76.0325 3.55348 77.8907C5.41565 79.7489 7.94043 80.7942 10.5739 80.7972H124.003C126.637 80.7942 129.162 79.7489 131.024 77.8907C132.886 76.0325 133.933 73.513 133.936 70.8851V15.889C133.933 13.261 132.886 10.7416 131.024 8.88337C129.162 7.02514 126.637 5.97987 124.003 5.97689H10.5739Z"
            fill="#3F3D56" />
    </g>
    <defs>
        <clipPath id="clip0_9800_2536">
            <rect fill="white" height="134" width="248" />
        </clipPath>
    </defs>
</svg>