<svg width="242" height="125" viewBox="0 0 242 125" fill="none" xmlns="http://www.w3.org/2000/svg">
<g clip-path="url(#clip0_6426_3022)">
<path d="M152.948 69.7246H72.0332V125H152.948V69.7246Z" fill="#0F53D9"/>
<path d="M157.462 63.2598H77.8367C77.5802 63.2602 77.3343 63.3625 77.153 63.5444C76.9716 63.7262 76.8695 63.9727 76.8691 64.2299V118.212C76.8691 118.339 76.8942 118.465 76.9428 118.583C76.9914 118.7 77.0627 118.807 77.1525 118.898C77.2424 118.988 77.349 119.059 77.4664 119.108C77.5838 119.157 77.7096 119.182 77.8367 119.182H157.462C157.589 119.182 157.715 119.157 157.832 119.108C157.95 119.059 158.056 118.988 158.146 118.898C158.236 118.807 158.307 118.7 158.356 118.583C158.404 118.465 158.429 118.339 158.429 118.212V64.2299C158.429 63.9727 158.327 63.7262 158.146 63.5444C157.964 63.3625 157.718 63.2602 157.462 63.2598ZM157.784 118.212C157.785 118.254 157.776 118.296 157.76 118.335C157.744 118.375 157.72 118.41 157.69 118.44C157.66 118.471 157.625 118.494 157.585 118.511C157.546 118.527 157.504 118.535 157.462 118.535H77.8367C77.7943 118.535 77.7523 118.527 77.7131 118.511C77.6739 118.494 77.6383 118.471 77.6083 118.44C77.5784 118.41 77.5546 118.375 77.5385 118.335C77.5223 118.296 77.514 118.254 77.5142 118.212V64.2299C77.5143 64.1442 77.5483 64.062 77.6088 64.0014C77.6692 63.9408 77.7512 63.9067 77.8367 63.9065H157.462C157.547 63.9067 157.629 63.9408 157.69 64.0014C157.75 64.062 157.784 64.1442 157.784 64.2299V118.212Z" fill="#45464F"/>
<path d="M117.018 101.402H81.5314C81.2713 101.402 81.0605 101.614 81.0605 101.874V105.132C81.0605 105.393 81.2713 105.605 81.5314 105.605H117.018C117.278 105.605 117.489 105.393 117.489 105.132V101.874C117.489 101.614 117.278 101.402 117.018 101.402Z" fill="#45464F"/>
<path d="M150.692 97.8477H139.089C138.962 97.8477 138.836 97.8727 138.718 97.9215C138.601 97.9702 138.494 98.0417 138.404 98.1318C138.315 98.2219 138.243 98.3288 138.195 98.4465C138.146 98.5643 138.121 98.6904 138.121 98.8178V107.868C138.121 107.995 138.146 108.121 138.195 108.239C138.243 108.357 138.315 108.464 138.404 108.554C138.494 108.644 138.601 108.715 138.718 108.764C138.836 108.813 138.962 108.838 139.089 108.838H150.692C150.819 108.838 150.945 108.813 151.062 108.764C151.18 108.715 151.286 108.644 151.376 108.554C151.466 108.464 151.537 108.357 151.586 108.239C151.635 108.121 151.66 107.995 151.66 107.868V98.8178C151.66 98.6904 151.635 98.5643 151.586 98.4465C151.537 98.3288 151.466 98.2219 151.376 98.1318C151.286 98.0417 151.18 97.9702 151.062 97.9215C150.945 97.8727 150.819 97.8477 150.692 97.8477ZM151.015 107.868C151.014 107.954 150.98 108.036 150.92 108.096C150.859 108.157 150.778 108.191 150.692 108.191H139.089C139.003 108.191 138.921 108.157 138.861 108.096C138.8 108.036 138.766 107.954 138.766 107.868V98.8178C138.766 98.7753 138.774 98.7332 138.79 98.6939C138.807 98.6546 138.83 98.6189 138.86 98.5888C138.89 98.5588 138.926 98.535 138.965 98.5188C139.004 98.5026 139.046 98.4943 139.089 98.4944H150.692C150.734 98.4943 150.776 98.5026 150.816 98.5188C150.855 98.535 150.89 98.5588 150.92 98.5888C150.95 98.6189 150.974 98.6546 150.99 98.6939C151.006 98.7332 151.015 98.7753 151.015 98.8178V107.868Z" fill="#45464F"/>
<path d="M148.373 99.9355H141.404C141.144 99.9355 140.934 100.147 140.934 100.408V101.105C140.934 101.365 141.144 101.577 141.404 101.577H148.373C148.633 101.577 148.844 101.365 148.844 101.105V100.408C148.844 100.147 148.633 99.9355 148.373 99.9355Z" fill="#45464F"/>
<path d="M148.373 102.521H141.404C141.144 102.521 140.934 102.733 140.934 102.994V103.69C140.934 103.951 141.144 104.163 141.404 104.163H148.373C148.633 104.163 148.844 103.951 148.844 103.69V102.994C148.844 102.733 148.633 102.521 148.373 102.521Z" fill="#45464F"/>
<path d="M148.373 105.107H141.404C141.144 105.107 140.934 105.319 140.934 105.58V106.276C140.934 106.537 141.144 106.749 141.404 106.749H148.373C148.633 106.749 148.844 106.537 148.844 106.276V105.58C148.844 105.319 148.633 105.107 148.373 105.107Z" fill="#45464F"/>
<path d="M98.3198 67.1387H82.4982C82.2381 67.1387 82.0273 67.35 82.0273 67.6108V73.7779C82.0273 74.0387 82.2381 74.25 82.4982 74.25H98.3198C98.5799 74.25 98.7907 74.0387 98.7907 73.7779V67.6108C98.7907 67.35 98.5799 67.1387 98.3198 67.1387Z" fill="#45464F"/>
<path d="M91.6981 70.6943C91.6981 71.944 91.1208 72.9571 90.4086 72.9571C89.6965 72.9571 89.1191 71.944 89.1191 70.6943C89.1191 69.4447 90.4086 68.4316 90.4086 68.4316C90.4086 68.4316 91.6981 69.4447 91.6981 70.6943Z" fill="#0F53D9"/>
<path d="M212.339 38.2012H211.868V90.9846H158.43V91.4567H212.339V38.2012Z" fill="#45464F"/>
<path d="M72.034 91.4567H18.125V38.2012H18.5958V90.9846H72.034V91.4567Z" fill="#45464F"/>
<path d="M241.849 8.92485H241.547V8.3954H241.773C241.813 8.3954 241.852 8.37947 241.88 8.3511C241.908 8.32273 241.924 8.28425 241.924 8.24414V5.5213C241.924 5.48119 241.908 5.44271 241.88 5.41434C241.852 5.38597 241.813 5.37004 241.773 5.37004H241.547V3.82369C241.547 3.39108 241.462 2.96271 241.297 2.56303C241.132 2.16335 240.89 1.80019 240.585 1.49429C240.28 1.18839 239.917 0.945741 239.519 0.780191C239.12 0.614641 238.693 0.529437 238.262 0.529442H237.926V0.151268C237.926 0.111149 237.91 0.0726738 237.882 0.0443056C237.854 0.0159375 237.815 6.26018e-07 237.775 0H235.06C235.02 6.26018e-07 234.982 0.0159375 234.953 0.0443056C234.925 0.0726738 234.909 0.111149 234.909 0.151268V0.529442H185.846C185.414 0.529437 184.987 0.614641 184.589 0.780191C184.19 0.945741 183.828 1.18839 183.523 1.49429C183.218 1.80019 182.976 2.16335 182.811 2.56303C182.646 2.96271 182.561 3.39108 182.561 3.82369V73.9283C182.561 74.3609 182.646 74.7893 182.811 75.189C182.976 75.5886 183.218 75.9518 183.523 76.2577C183.828 76.5636 184.19 76.8063 184.589 76.9718C184.987 77.1374 185.414 77.2226 185.846 77.2226H238.262C238.693 77.2226 239.12 77.1374 239.519 76.9718C239.917 76.8063 240.28 76.5636 240.585 76.2577C240.89 75.9518 241.132 75.5886 241.297 75.189C241.462 74.7893 241.547 74.3609 241.547 73.9283V11.9502H241.849C241.889 11.9502 241.927 11.9343 241.955 11.9059C241.984 11.8775 242 11.8391 242 11.7989V9.07611C242 9.05625 241.996 9.03658 241.988 9.01822C241.981 8.99987 241.969 8.9832 241.955 8.96915C241.941 8.9551 241.925 8.94396 241.906 8.93636C241.888 8.92876 241.869 8.92485 241.849 8.92485Z" fill="#45464F"/>
<path d="M238.836 2.68359H185.724C185.476 2.68359 185.275 2.8849 185.275 3.13322V74.088C185.275 74.3364 185.476 74.5377 185.724 74.5377H238.836C239.083 74.5377 239.284 74.3364 239.284 74.088V3.13322C239.284 2.8849 239.083 2.68359 238.836 2.68359Z" fill="#DBE1FF"/>
<path d="M214.872 37.8984H206.549C206.289 37.8984 206.078 38.1098 206.078 38.3705V40.1793C206.078 40.4401 206.289 40.6514 206.549 40.6514H214.872C215.132 40.6514 215.343 40.4401 215.343 40.1793V38.3705C215.343 38.1098 215.132 37.8984 214.872 37.8984Z" fill="#45464F"/>
<path d="M226.073 16.4648H195.348C195.088 16.4648 194.877 16.6762 194.877 16.9369V17.1726C194.877 17.4333 195.088 17.6447 195.348 17.6447H226.073C226.333 17.6447 226.544 17.4333 226.544 17.1726V16.9369C226.544 16.6762 226.333 16.4648 226.073 16.4648Z" fill="#45464F"/>
<path d="M226.073 20.2012H195.348C195.088 20.2012 194.877 20.4125 194.877 20.6733V20.9089C194.877 21.1697 195.088 21.381 195.348 21.381H226.073C226.333 21.381 226.544 21.1697 226.544 20.9089V20.6733C226.544 20.4125 226.333 20.2012 226.073 20.2012Z" fill="#45464F"/>
<path d="M226.073 23.9375H195.348C195.088 23.9375 194.877 24.1489 194.877 24.4096V24.6453C194.877 24.906 195.088 25.1174 195.348 25.1174H226.073C226.333 25.1174 226.544 24.906 226.544 24.6453V24.4096C226.544 24.1489 226.333 23.9375 226.073 23.9375Z" fill="#45464F"/>
<path d="M226.073 27.6738H195.348C195.088 27.6738 194.877 27.8852 194.877 28.1459V28.3816C194.877 28.6423 195.088 28.8537 195.348 28.8537H226.073C226.333 28.8537 226.544 28.6423 226.544 28.3816V28.1459C226.544 27.8852 226.333 27.6738 226.073 27.6738Z" fill="#45464F"/>
<path d="M226.073 31.4102H195.348C195.088 31.4102 194.877 31.6215 194.877 31.8823V32.1179C194.877 32.3787 195.088 32.59 195.348 32.59H226.073C226.333 32.59 226.544 32.3787 226.544 32.1179V31.8823C226.544 31.6215 226.333 31.4102 226.073 31.4102Z" fill="#45464F"/>
<path d="M209.589 71.7005C215.021 71.7005 219.425 67.2851 219.425 61.8385C219.425 56.3919 215.021 51.9766 209.589 51.9766C204.157 51.9766 199.754 56.3919 199.754 61.8385C199.754 67.2851 204.157 71.7005 209.589 71.7005Z" fill="#0F53D9"/>
<path d="M212.489 69.446C210.051 69.446 207.666 68.7208 205.639 67.3622C203.611 66.0036 202.03 64.0725 201.097 61.8131C200.164 59.5538 199.919 57.0677 200.395 54.6692C200.871 52.2707 202.045 50.0675 203.77 48.3383C205.495 46.6091 207.692 45.4315 210.084 44.9544C212.476 44.4773 214.955 44.7222 217.208 45.658C219.462 46.5938 221.388 48.1787 222.743 50.212C224.098 52.2453 224.821 54.6359 224.821 57.0814C224.817 60.3596 223.517 63.5024 221.205 65.8204C218.893 68.1384 215.759 69.4423 212.489 69.446ZM212.489 45.1664C210.139 45.1664 207.842 45.8652 205.888 47.1745C203.934 48.4837 202.411 50.3446 201.511 52.5217C200.612 54.6989 200.376 57.0946 200.835 59.4059C201.293 61.7172 202.425 63.8402 204.087 65.5066C205.749 67.1729 207.866 68.3077 210.171 68.7674C212.476 69.2272 214.866 68.9912 217.037 68.0894C219.208 67.1876 221.064 65.6604 222.37 63.701C223.675 61.7416 224.372 59.438 224.372 57.0814C224.369 53.9224 223.116 50.8939 220.888 48.6602C218.66 46.4264 215.64 45.17 212.489 45.1664Z" fill="#45464F"/>
<path d="M36.6044 20.752H36.2011V9.67238C36.2011 8.83026 36.0357 7.99639 35.7143 7.21837C35.3929 6.44036 34.9218 5.73344 34.3279 5.13797C33.7341 4.5425 33.0291 4.07015 32.2531 3.74789C31.4772 3.42563 30.6456 3.25976 29.8057 3.25977H6.39532C5.55548 3.25976 4.72386 3.42563 3.94794 3.74789C3.17202 4.07015 2.46701 4.5425 1.87315 5.13797C1.27929 5.73344 0.808209 6.44036 0.486814 7.21838C0.16542 7.99639 -9.27436e-07 8.83026 0 9.67238V70.4563C-9.27439e-07 71.2984 0.165419 72.1322 0.486814 72.9103C0.80821 73.6883 1.27929 74.3952 1.87315 74.9907C2.46701 75.5861 3.17203 76.0585 3.94794 76.3807C4.72386 76.703 5.55548 76.8689 6.39533 76.8689H29.8058C30.6456 76.8689 31.4772 76.703 32.2531 76.3807C33.0291 76.0585 33.7341 75.5861 34.3279 74.9907C34.9218 74.3952 35.3929 73.6883 35.7143 72.9103C36.0357 72.1322 36.2011 71.2984 36.2011 70.4563V28.6387H36.6044V20.752Z" fill="#45464F"/>
<path d="M34.8396 10.0479V70.7431C34.8398 72.0133 34.3368 73.2314 33.4413 74.1297C32.5457 75.028 31.331 75.5328 30.0643 75.533H6.54086C5.27417 75.5328 4.05945 75.028 3.16392 74.1297C2.26839 73.2314 1.76541 72.0133 1.76563 70.7431V10.0479C1.76576 8.77805 2.26891 7.56025 3.16441 6.66232C4.05991 5.7644 5.27443 5.2599 6.54086 5.25977H9.39481C9.25436 5.60521 9.20079 5.97998 9.23881 6.35108C9.27684 6.72217 9.40529 7.07819 9.61286 7.38778C9.82043 7.69737 10.1007 7.95103 10.4291 8.12641C10.7575 8.30179 11.1238 8.3935 11.4958 8.39348H24.9075C25.2796 8.39351 25.6459 8.3018 25.9743 8.12642C26.3027 7.95104 26.583 7.69739 26.7905 7.38779C26.9981 7.0782 27.1266 6.72218 27.1646 6.35108C27.2026 5.97998 27.149 5.60521 27.0086 5.25977H30.0643C31.3307 5.2599 32.5453 5.76441 33.4408 6.66233C34.3363 7.56025 34.8394 8.77805 34.8396 10.0479Z" fill="#DBE1FF"/>
<path d="M20.9831 41.0195H15.6232C15.3631 41.0195 15.1523 41.2309 15.1523 41.4916V42.4199C15.1523 42.6806 15.3631 42.892 15.6232 42.892H20.9831C21.2431 42.892 21.4539 42.6806 21.4539 42.4199V41.4916C21.4539 41.2309 21.2431 41.0195 20.9831 41.0195Z" fill="#45464F"/>
<path d="M28.6712 26.4395H7.93336C7.71236 26.4395 7.5332 26.6191 7.5332 26.8407C7.5332 27.0623 7.71236 27.2419 7.93336 27.2419H28.6712C28.8922 27.2419 29.0714 27.0623 29.0714 26.8407C29.0714 26.6191 28.8922 26.4395 28.6712 26.4395Z" fill="#45464F"/>
<path d="M28.6712 28.9805H7.93336C7.71236 28.9805 7.5332 29.1601 7.5332 29.3817C7.5332 29.6033 7.71236 29.783 7.93336 29.783H28.6712C28.8922 29.783 29.0714 29.6033 29.0714 29.3817C29.0714 29.1601 28.8922 28.9805 28.6712 28.9805Z" fill="#45464F"/>
<path d="M28.6712 31.5234H7.93336C7.71236 31.5234 7.5332 31.7031 7.5332 31.9247C7.5332 32.1463 7.71236 32.3259 7.93336 32.3259H28.6712C28.8922 32.3259 29.0714 32.1463 29.0714 31.9247C29.0714 31.7031 28.8922 31.5234 28.6712 31.5234Z" fill="#45464F"/>
<path d="M28.6712 34.0645H7.93336C7.71236 34.0645 7.5332 34.2441 7.5332 34.4657C7.5332 34.6873 7.71236 34.8669 7.93336 34.8669H28.6712C28.8922 34.8669 29.0714 34.6873 29.0714 34.4657C29.0714 34.2441 28.8922 34.0645 28.6712 34.0645Z" fill="#45464F"/>
<path d="M28.6712 36.6055H7.93336C7.71236 36.6055 7.5332 36.7851 7.5332 37.0067C7.5332 37.2283 7.71236 37.408 7.93336 37.408H28.6712C28.8922 37.408 29.0714 37.2283 29.0714 37.0067C29.0714 36.7851 28.8922 36.6055 28.6712 36.6055Z" fill="#45464F"/>
<path d="M16.4489 67.3133C20.1949 67.3133 23.2317 64.2683 23.2317 60.5121C23.2317 56.7559 20.1949 53.7109 16.4489 53.7109C12.7028 53.7109 9.66602 56.7559 9.66602 60.5121C9.66602 64.2683 12.7028 67.3133 16.4489 67.3133Z" fill="#0F53D9"/>
<path d="M18.4494 65.7573C16.7675 65.7573 15.1233 65.2572 13.7248 64.3203C12.3263 63.3833 11.2363 62.0516 10.5927 60.4934C9.949 58.9353 9.78059 57.2208 10.1087 55.5667C10.4369 53.9126 11.2468 52.3932 12.4361 51.2007C13.6254 50.0081 15.1407 49.196 16.7904 48.867C18.44 48.538 20.1499 48.7068 21.7038 49.3522C23.2577 49.9976 24.5859 51.0906 25.5203 52.4928C26.4548 53.8951 26.9535 55.5437 26.9535 57.2302C26.951 59.491 26.0542 61.6584 24.4599 63.257C22.8657 64.8556 20.7041 65.7548 18.4494 65.7573ZM18.4494 49.0132C16.8286 49.0132 15.2442 49.4951 13.8966 50.398C12.549 51.3009 11.4986 52.5843 10.8784 54.0857C10.2581 55.5872 10.0958 57.2394 10.412 58.8333C10.7282 60.4273 11.5087 61.8914 12.6548 63.0406C13.8009 64.1897 15.261 64.9723 16.8507 65.2894C18.4403 65.6064 20.0881 65.4437 21.5855 64.8218C23.0829 64.1999 24.3628 63.1467 25.2632 61.7954C26.1637 60.4441 26.6443 58.8554 26.6443 57.2302C26.6419 55.0517 25.7777 52.9631 24.2414 51.4226C22.7051 49.8822 20.6221 49.0157 18.4494 49.0132Z" fill="#45464F"/>
<path d="M41.3161 88.5625H34.7246V95.1718H41.3161V88.5625Z" fill="#DBE1FF"/>
<path d="M45.3184 91.3947H37.3145V83.3691H45.3184V91.3947ZM37.6624 91.0458H44.9704V83.7181H37.6624V91.0458Z" fill="#45464F"/>
<path d="M188.918 88.5625H182.326V95.1718H188.918V88.5625Z" fill="#DBE1FF"/>
<path d="M192.92 91.3947H184.916V83.3691H192.92V91.3947ZM185.264 91.0458H192.572V83.7181H185.264V91.0458Z" fill="#45464F"/>
</g>
<defs>
<clipPath id="clip0_6426_3022">
<rect width="242" height="125" fill="white"/>
</clipPath>
</defs>
</svg>
