<?xml version="1.0" encoding="UTF-8"?>
<svg version="1.1" xmlns="http://www.w3.org/2000/svg" width="1024" height="1024">
    <path
        d="M0 0 C1.36314934 -0.00702035 2.72629834 -0.01410719 4.08944702 -0.02125549 C8.43333393 -0.04069939 12.77716773 -0.0456909 17.12109375 -0.046875 C18.23134855 -0.04753778 18.23134855 -0.04753778 19.36403275 -0.04821396 C41.52222991 -0.05515336 63.52882472 0.17880246 85.54498291 2.94989014 C87.64947097 3.21455386 89.755042 3.46912769 91.86083984 3.72314453 C147.91644433 10.57861757 203.0206856 24.97177441 254.55859375 48.203125 C255.63496094 48.68104492 256.71132813 49.15896484 257.8203125 49.65136719 C304.7020874 70.49534507 348.10982042 98.33781647 386.046875 132.9375 C387.43798664 134.19231299 388.83570925 135.44029449 390.2590332 136.65844727 C396.15441391 141.71663178 401.64185682 147.13792239 407.12109375 152.640625 C408.48137695 153.99510742 408.48137695 153.99510742 409.86914062 155.37695312 C414.97574727 160.49096602 419.87136875 165.70395143 424.55859375 171.203125 C425.51941271 172.29812317 426.4815992 173.39192328 427.4453125 174.484375 C434.94262501 183.06689442 441.85989057 191.98721406 448.55859375 201.203125 C449.04827637 201.87182617 449.53795898 202.54052734 450.04248047 203.22949219 C472.99108508 234.65992528 492.49389326 269.90569174 506.55859375 306.203125 C507.05866943 307.49331543 507.05866943 307.49331543 507.56884766 308.80957031 C514.48558627 326.84956713 519.84183164 344.96529217 523.74609375 363.890625 C523.98408691 365.02177734 524.22208008 366.15292969 524.46728516 367.31835938 C528.67724869 388.59534397 530.12013693 409.92325192 529.99609375 431.578125 C529.99272003 432.73156403 529.98934631 433.88500305 529.98587036 435.07339478 C529.75589696 489.49337966 513.86922867 543.1914118 479.55859375 586.203125 C478.841875 587.11191406 478.12515625 588.02070312 477.38671875 588.95703125 C465.60311752 603.64474697 452.56512062 617.77899983 437.55859375 629.203125 C436.92598633 629.68507324 436.29337891 630.16702148 435.64160156 630.66357422 C388.02731149 666.61516407 334.78942152 682.46902189 275.43359375 682.390625 C274.05181442 682.38922012 274.05181442 682.38922012 272.64212036 682.38778687 C219.20762933 682.27070841 152.43422372 677.75276014 110.55859375 640.203125 C108.51171875 637.703125 108.51171875 637.703125 106.80859375 635.203125 C106.23625 634.378125 105.66390625 633.553125 105.07421875 632.703125 C100.64648451 625.39964585 100.16388779 617.17047409 102.10546875 608.86328125 C103.94681012 604.6160363 106.87545859 601.8187234 110.18359375 598.640625 C127.22658537 582.12164922 137.02789998 557.89123619 142.55859375 535.203125 C142.82285156 534.13320313 143.08710937 533.06328125 143.359375 531.9609375 C149.49305493 501.83497211 140.46909979 468.82810418 124.55859375 443.203125 C121.51096993 438.62354676 118.11960217 434.39694591 114.55859375 430.203125 C113.85347656 429.33558594 113.14835938 428.46804688 112.421875 427.57421875 C103.07595193 416.53531886 91.07187416 408.27992403 78.55859375 401.203125 C77.61886719 400.67074219 76.67914062 400.13835937 75.7109375 399.58984375 C47.95957716 384.81711135 14.39498795 381.22411927 -15.76171875 390.01171875 C-50.94605072 401.40367337 -78.00606489 421.25248234 -95.44140625 454.203125 C-116.47516553 496.37258424 -110.06605208 545.97523926 -95.75390625 589.265625 C-86.63993685 616.40318027 -73.63179078 641.30949627 -56.44140625 664.203125 C-55.97347656 664.82799805 -55.50554687 665.45287109 -55.0234375 666.09667969 C-49.36639626 673.5958247 -43.36253009 680.6660046 -36.94140625 687.51953125 C-34.80511202 689.81270958 -32.73437859 692.13975761 -30.69140625 694.515625 C-25.78883522 700.15183493 -20.50170517 705.28042096 -14.8359375 710.14453125 C-13.02787007 711.69893832 -11.23639317 713.27267255 -9.453125 714.85546875 C64.09107492 779.72310576 164.50235706 808.02161105 270.31088257 804.84802246 C323.15189392 801.34422912 377.5609537 788.55454404 424.49609375 763.515625 C430.53552421 760.34153868 435.74614861 758.68798252 442.55859375 760.203125 C446.78867379 761.57354419 449.21244825 763.76822424 451.99609375 767.265625 C454.37207759 772.27103095 454.8366054 776.80780779 453.55859375 782.203125 C450.96558783 787.95331206 447.17272796 793.06435117 443.55859375 798.203125 C442.56301492 799.6518031 441.56822626 801.10102454 440.57421875 802.55078125 C431.8123595 815.22339729 422.41486771 827.36236635 412.55859375 839.203125 C411.7284375 840.20859375 410.89828125 841.2140625 410.04296875 842.25 C399.26834842 855.21793236 387.58064226 867.26958829 375.68359375 879.203125 C375.19145386 879.69794373 374.69931396 880.19276245 374.19226074 880.70257568 C368.49468492 886.42368734 362.71142158 891.97103711 356.55859375 897.203125 C355.47529932 898.15220596 354.393218 899.1026738 353.3125 900.0546875 C344.36953765 907.85543266 335.08057814 915.1242952 325.55859375 922.203125 C324.47553955 923.00967529 324.47553955 923.00967529 323.37060547 923.83251953 C305.84277942 936.82897089 287.61295992 948.57556985 268.55859375 959.203125 C267.60275391 959.74050293 266.64691406 960.27788086 265.66210938 960.83154297 C240.27171984 975.04772752 214.06204514 986.70570238 186.55859375 996.203125 C185.44194336 996.58952148 184.32529297 996.97591797 183.17480469 997.37402344 C148.00113483 1009.40791737 111.90862611 1017.30092154 74.99609375 1021.515625 C73.92625748 1021.63786438 73.92625748 1021.63786438 72.83480835 1021.76257324 C54.81056355 1023.78853904 36.93531215 1024.44302779 18.80859375 1024.453125 C17.16386078 1024.45413712 17.16386078 1024.45413712 15.48590088 1024.45516968 C-75.29912544 1024.36705446 -165.32011882 999.57836816 -284.44140625 926.203125 C-285.57858482 925.36084082 -286.71655695 924.51962657 -287.85546875 923.6796875 C-302.34206926 912.93393066 -316.1233412 901.35948967 -329.44140625 889.203125 C-330.35148438 888.38585937 -331.2615625 887.56859375 -332.19921875 886.7265625 C-342.51902593 877.39745681 -352.81073058 867.77887529 -361.7890625 857.1328125 C-363.85699256 854.71778307 -366.02748059 852.40746775 -368.19140625 850.078125 C-373.42295027 844.33445695 -378.19297089 838.30040609 -382.93017578 832.14697266 C-384.49636073 830.1324388 -386.08880189 828.14115254 -387.6875 826.15234375 C-402.23159641 807.95238848 -414.80436842 788.36664503 -426.44140625 768.203125 C-426.86583008 767.4699707 -427.29025391 766.73681641 -427.72753906 765.98144531 C-439.54269299 745.45457228 -449.77834872 724.24286038 -458.44140625 702.203125 C-458.85100586 701.16913574 -459.26060547 700.13514648 -459.68261719 699.06982422 C-475.82831753 657.98714642 -486.21907799 615.00387333 -491.44140625 571.203125 C-491.52390625 570.52664917 -491.60640625 569.85017334 -491.69140625 569.15319824 C-496.53482891 529.13970402 -497.09145733 487.13929021 -491.44140625 447.203125 C-491.34430359 446.50044495 -491.24720093 445.79776489 -491.14715576 445.0737915 C-479.66096412 362.0921496 -449.42717814 284.32563067 -378.44140625 186.203125 C-377.96461426 185.62723633 -377.48782227 185.05134766 -376.99658203 184.45800781 C-370.57894187 176.70831983 -363.89778298 169.24704218 -357.02246094 161.90185547 C-355.36190525 160.11770684 -353.71684508 158.32019314 -352.07421875 156.51953125 C-347.03519068 151.01067725 -342.06723454 145.61913332 -336.3203125 140.83203125 C-334.13443949 138.93700205 -332.14572802 136.90185884 -330.12890625 134.828125 C-326.13116128 130.7826254 -321.89477415 127.20377766 -317.45703125 123.65234375 C-314.68664776 121.40230431 -311.98359166 119.09596386 -309.29052734 116.75512695 C-302.56315156 110.91119038 -295.675338 105.41645429 -288.44140625 100.203125 C-287.82990723 99.76033203 -287.2184082 99.31753906 -286.58837891 98.86132812 C-269.88019094 86.79269397 -252.67290097 75.60625685 -234.71337891 65.48974609 C-232.54363822 64.2610191 -230.38805512 63.01051463 -228.234375 61.75390625 C-167.47658638 26.66762627 -97.03899044 7.47900253 -27.44140625 1.203125 C-26.50188614 1.11724121 -25.56236603 1.03135742 -24.59437561 0.94287109 C-16.38754255 0.24699432 -8.23402568 0.02867362 0 0 Z "
        fill="#097FCF" transform="translate(494.44140625,-0.203125)" />
    <path
        d="M0 0 C1.36314934 -0.00702035 2.72629834 -0.01410719 4.08944702 -0.02125549 C8.43333393 -0.04069939 12.77716773 -0.0456909 17.12109375 -0.046875 C18.23134855 -0.04753778 18.23134855 -0.04753778 19.36403275 -0.04821396 C41.52222991 -0.05515336 63.52882472 0.17880246 85.54498291 2.94989014 C87.64947097 3.21455386 89.755042 3.46912769 91.86083984 3.72314453 C147.91644433 10.57861757 203.0206856 24.97177441 254.55859375 48.203125 C255.63496094 48.68104492 256.71132813 49.15896484 257.8203125 49.65136719 C304.7020874 70.49534507 348.10982042 98.33781647 386.046875 132.9375 C387.43798664 134.19231299 388.83570925 135.44029449 390.2590332 136.65844727 C396.15441391 141.71663178 401.64185682 147.13792239 407.12109375 152.640625 C408.48137695 153.99510742 408.48137695 153.99510742 409.86914062 155.37695312 C414.97574727 160.49096602 419.87136875 165.70395143 424.55859375 171.203125 C425.51941271 172.29812317 426.4815992 173.39192328 427.4453125 174.484375 C434.94262501 183.06689442 441.85989057 191.98721406 448.55859375 201.203125 C449.04827637 201.87182617 449.53795898 202.54052734 450.04248047 203.22949219 C472.99108508 234.65992528 492.49389326 269.90569174 506.55859375 306.203125 C507.05866943 307.49331543 507.05866943 307.49331543 507.56884766 308.80957031 C514.48558627 326.84956713 519.84183164 344.96529217 523.74609375 363.890625 C523.98408691 365.02177734 524.22208008 366.15292969 524.46728516 367.31835938 C528.67724869 388.59534397 530.12013693 409.92325192 529.99609375 431.578125 C529.99272003 432.73156403 529.98934631 433.88500305 529.98587036 435.07339478 C529.75589696 489.49337966 513.86922867 543.1914118 479.55859375 586.203125 C478.841875 587.11191406 478.12515625 588.02070312 477.38671875 588.95703125 C465.60311752 603.64474697 452.56512062 617.77899983 437.55859375 629.203125 C436.92598633 629.68507324 436.29337891 630.16702148 435.64160156 630.66357422 C388.02731149 666.61516407 334.78942152 682.46902189 275.43359375 682.390625 C274.05181442 682.38922012 274.05181442 682.38922012 272.64212036 682.38778687 C219.20762933 682.27070841 152.43422372 677.75276014 110.55859375 640.203125 C108.51171875 637.703125 108.51171875 637.703125 106.80859375 635.203125 C106.23625 634.378125 105.66390625 633.553125 105.07421875 632.703125 C100.64648451 625.39964585 100.16388779 617.17047409 102.10546875 608.86328125 C103.94681012 604.6160363 106.87545859 601.8187234 110.18359375 598.640625 C127.22658537 582.12164922 137.02789998 557.89123619 142.55859375 535.203125 C142.82285156 534.13320313 143.08710937 533.06328125 143.359375 531.9609375 C145.21697958 522.83719255 144.80168013 513.46337622 144.55859375 504.203125 C144.53756592 503.16526855 144.53756592 503.16526855 144.51611328 502.10644531 C144.05764433 482.85074926 140.79802082 463.61428968 135.15673828 445.22167969 C134.35848536 442.52782043 133.67456086 439.8101268 132.98852539 437.0859375 C131.60397006 431.61636047 130.05734876 426.4871871 127.6015625 421.40625 C126.41613585 418.90220269 125.43872752 416.34723174 124.43359375 413.765625 C119.07186917 400.84799318 111.68289264 388.55806486 103.55859375 377.203125 C102.78443115 376.11765381 102.78443115 376.11765381 101.99462891 375.01025391 C92.9071554 362.3133289 92.9071554 362.3133289 82.71875 350.50390625 C80.8534956 348.5172248 79.0694379 346.49174246 77.2890625 344.4296875 C67.98093308 333.75479477 57.79328967 323.82889299 46.55859375 315.203125 C45.55699219 314.40777344 44.55539062 313.61242187 43.5234375 312.79296875 C-2.55944531 276.37411038 -58.82015036 255.3573568 -116.37890625 245.953125 C-117.29913574 245.80206299 -118.21936523 245.65100098 -119.16748047 245.49536133 C-122.25427974 245.01837901 -125.34320157 244.59979157 -128.44140625 244.203125 C-129.11503204 244.11592194 -129.78865784 244.02871887 -130.48269653 243.93887329 C-144.30794171 242.20363299 -158.04161289 241.86147901 -171.96557617 241.88745117 C-175.47541771 241.89059945 -178.98440305 241.86708918 -182.49414062 241.84179688 C-203.82894954 241.78130921 -224.94921348 243.67548428 -245.87890625 247.890625 C-247.15693115 248.14408691 -248.43495605 248.39754883 -249.75170898 248.65869141 C-279.68244058 254.73546354 -308.01037748 264.91129065 -335.44140625 278.203125 C-336.3859668 278.6563916 -337.33052734 279.1096582 -338.30371094 279.57666016 C-364.45357658 292.24370946 -388.75299423 308.84567748 -409.90429688 328.76757812 C-411.53266097 330.28835018 -413.179753 331.7865102 -414.83203125 333.28125 C-420.09556729 338.05397159 -425.23524008 342.78072559 -429.79296875 348.25 C-430.95629516 349.62834883 -432.16449068 350.96942165 -433.40234375 352.28125 C-445.72564108 365.36085077 -455.49639091 380.68314113 -464.44140625 396.203125 C-465.03646973 397.22841309 -465.03646973 397.22841309 -465.64355469 398.27441406 C-482.71139498 428.01795133 -490.3310989 460.31363529 -493.44140625 494.203125 C-493.77140625 494.203125 -494.10140625 494.203125 -494.44140625 494.203125 C-494.58362724 484.25292285 -494.2647053 474.49302669 -493.31640625 464.578125 C-493.25238617 463.9062616 -493.18836609 463.23439819 -493.12240601 462.54217529 C-485.21286027 381.02941856 -457.97129779 302.3892044 -378.44140625 186.203125 C-377.96461426 185.62723633 -377.48782227 185.05134766 -376.99658203 184.45800781 C-370.57894187 176.70831983 -363.89778298 169.24704218 -357.02246094 161.90185547 C-355.36190525 160.11770684 -353.71684508 158.32019314 -352.07421875 156.51953125 C-347.03519068 151.01067725 -342.06723454 145.61913332 -336.3203125 140.83203125 C-334.13443949 138.93700205 -332.14572802 136.90185884 -330.12890625 134.828125 C-326.13116128 130.7826254 -321.89477415 127.20377766 -317.45703125 123.65234375 C-314.68664776 121.40230431 -311.98359166 119.09596386 -309.29052734 116.75512695 C-302.56315156 110.91119038 -295.675338 105.41645429 -288.44140625 100.203125 C-287.82990723 99.76033203 -287.2184082 99.31753906 -286.58837891 98.86132812 C-269.88019094 86.79269397 -252.67290097 75.60625685 -234.71337891 65.48974609 C-232.54363822 64.2610191 -230.38805512 63.01051463 -228.234375 61.75390625 C-167.47658638 26.66762627 -97.03899044 7.47900253 -27.44140625 1.203125 C-26.50188614 1.11724121 -25.56236603 1.03135742 -24.59437561 0.94287109 C-16.38754255 0.24699432 -8.23402568 0.02867362 0 0 Z "
        fill="#3ACBA8" transform="translate(494.44140625,-0.203125)" />
    <path
        d="M0 0 C0.99 0.495 0.99 0.495 2 1 C0.71029297 1.87398438 0.71029297 1.87398438 -0.60546875 2.765625 C-29.65746696 22.77305503 -49.18562814 51.06126416 -55.75 86.125 C-65.14517241 142.6737644 -43.30704035 207.0024322 -10.9375 252.9375 C-8.98758645 255.64745284 -7.00461724 258.33031202 -5 261 C-4.53207031 261.62487305 -4.06414062 262.24974609 -3.58203125 262.89355469 C2.07500999 270.3926997 8.07887616 277.4628796 14.5 284.31640625 C16.63629423 286.60958458 18.70702766 288.93663261 20.75 291.3125 C25.65257103 296.94870993 30.93970108 302.07729596 36.60546875 306.94140625 C38.41353618 308.49581332 40.20501308 310.06954755 41.98828125 311.65234375 C115.53248117 376.51998076 215.94376331 404.81848605 321.75228882 401.64489746 C374.59330017 398.14110412 429.00235995 385.35141904 475.9375 360.3125 C481.97693046 357.13841368 487.18755486 355.48485752 494 357 C498.23008004 358.37041919 500.6538545 360.56509924 503.4375 364.0625 C505.81348384 369.06790595 506.27801165 373.60468279 505 379 C502.40699408 384.75018706 498.61413421 389.86122617 495 395 C494.00442117 396.4486781 493.00963251 397.89789954 492.015625 399.34765625 C483.25376575 412.02027229 473.85627396 424.15924135 464 436 C463.16984375 437.00546875 462.3396875 438.0109375 461.484375 439.046875 C450.70975467 452.01480736 439.02204851 464.06646329 427.125 476 C426.63286011 476.49481873 426.14072021 476.98963745 425.63366699 477.49945068 C419.93609117 483.22056234 414.15282783 488.76791211 408 494 C406.91670557 494.94908096 405.83462425 495.8995488 404.75390625 496.8515625 C395.8109439 504.65230766 386.52198439 511.9211702 377 519 C375.9169458 519.80655029 375.9169458 519.80655029 374.81201172 520.62939453 C357.28418567 533.62584589 339.05436617 545.37244485 320 556 C318.56624023 556.80606689 318.56624023 556.80606689 317.10351562 557.62841797 C291.70523662 571.84901987 265.4785592 583.41403999 238 593 C237.02691895 593.3491748 236.05383789 593.69834961 235.05126953 594.05810547 C227.47492435 596.70462843 219.86585113 598.4447787 212 600 C210.78151367 600.25152832 209.56302734 600.50305664 208.30761719 600.76220703 C204.50005 601.54640933 200.68824389 602.30642578 196.875 603.0625 C195.6271875 603.31837891 194.379375 603.57425781 193.09375 603.83789062 C175.38821207 607.33051449 157.71071786 608.4143026 139.6875 608.375 C138.73699768 608.37445618 137.78649536 608.37391235 136.80718994 608.37335205 C91.0555892 608.25397098 46.94305084 597.39692074 6 577 C5.1646875 576.58782227 4.329375 576.17564453 3.46875 575.75097656 C-22.11156934 563.03255657 -44.68280802 546.92814155 -66 528 C-66.53931152 527.52385254 -67.07862305 527.04770508 -67.63427734 526.55712891 C-80.55400996 515.09488788 -92.22344429 502.59135419 -102.63037109 488.80664062 C-104.0474372 486.93742686 -105.48521134 485.0855192 -106.92578125 483.234375 C-157.62511148 417.55794771 -181.90054677 331.02254966 -171.81640625 248.453125 C-162.5412777 183.19376513 -136.48080955 121.14653361 -92 72 C-91.42668945 71.36497559 -90.85337891 70.72995117 -90.26269531 70.07568359 C-66.63033162 44.04960655 -39.84514879 22.17179755 -9.02880859 5.13964844 C-7.66484481 4.37346517 -6.31346943 3.5844727 -4.97509766 2.77441406 C-3.34907758 1.79385308 -1.67787771 0.88891367 0 0 Z "
        fill="#0D4F92" transform="translate(443,403)" />
    <path
        d="M0 0 C-4.51973515 1.28505997 -9.04041481 2.566721 -13.56201172 3.84521484 C-15.10068913 4.2807999 -16.63910232 4.71731945 -18.17724609 5.15478516 C-20.38570781 5.78272301 -22.59509195 6.40731535 -24.8046875 7.03125 C-25.49432587 7.22811401 -26.18396423 7.42497803 -26.89450073 7.62780762 C-31.77225659 9 -31.77225659 9 -34 9 C-34.33 8.01 -34.66 7.02 -35 6 C-33.75126099 5.73521851 -33.75126099 5.73521851 -32.47729492 5.46508789 C-29.38520319 4.80858779 -26.29344513 4.15054414 -23.2019043 3.49145508 C-21.86447077 3.20665679 -20.52690646 2.92247193 -19.18920898 2.63891602 C-17.26511818 2.23094875 -15.34153637 1.82058327 -13.41796875 1.41015625 C-12.26063232 1.16402588 -11.1032959 0.91789551 -9.91088867 0.66430664 C-2.96624887 -0.92055999 -2.96624887 -0.92055999 0 0 Z "
        fill="#066DB2" transform="translate(666,1001)" />
    <path
        d="M0 0 C0.66 0.33 1.32 0.66 2 1 C-2.62 4.3 -7.24 7.6 -12 11 C-12 8 -12 8 -10.78515625 6.484375 C-8.77007611 4.80881602 -6.72386841 3.53066764 -4.4375 2.25 C-3.65246094 1.80140625 -2.86742187 1.3528125 -2.05859375 0.890625 C-1.37925781 0.59671875 -0.69992187 0.3028125 0 0 Z "
        fill="#094277" transform="translate(443,403)" />
</svg>
