<?xml version="1.0" encoding="UTF-8"?>
<svg version="1.1" xmlns="http://www.w3.org/2000/svg" width="512" height="512">
    <path
        d="M0 0 C0.96955627 0.00182281 1.93911255 0.00364563 2.93804932 0.00552368 C17.26979259 0.05087263 31.28395512 0.46954578 45.375 3.3125 C46.27686035 3.48942383 47.1787207 3.66634766 48.10791016 3.84863281 C54.58082573 5.14747811 60.98520862 6.65426195 67.375 8.3125 C68.62095947 8.63492676 68.62095947 8.63492676 69.89208984 8.96386719 C122.74026918 22.97989572 173.26909547 56.8774018 205.375 101.3125 C206.22834392 102.46024758 207.08252439 103.60737362 207.9375 104.75390625 C213.98247076 112.94501369 219.36688169 121.45312179 224.375 130.3125 C224.7771875 131.01971191 225.179375 131.72692383 225.59375 132.45556641 C240.34611537 158.65830287 249.88135806 187.59880797 254.375 217.3125 C254.55160156 218.43495117 254.72820312 219.55740234 254.91015625 220.71386719 C256.5670586 232.32697743 256.77373513 243.84429945 256.75 255.5625 C256.74918427 257.08052216 256.74918427 257.08052216 256.74835205 258.62921143 C256.70761956 275.15780572 255.80424222 291.09163999 252.375 307.3125 C252.15537598 308.35438477 251.93575195 309.39626953 251.70947266 310.46972656 C241.61185215 356.76299311 219.25271242 399.17663721 186.375 433.3125 C185.74287598 433.97185547 185.11075195 434.63121094 184.45947266 435.31054688 C175.31502521 444.79880305 166.01765991 453.5387044 155.375 461.3125 C154.22394983 462.17056152 153.07290823 463.02863451 151.921875 463.88671875 C143.73069386 469.92486829 135.21695895 475.28345521 126.375 480.3125 C125.74319824 480.67698242 125.11139648 481.04146484 124.46044922 481.41699219 C98.43166464 496.31500327 69.01361377 505.96041257 39.375 510.3125 C38.17254639 510.48910156 36.97009277 510.66570312 35.73120117 510.84765625 C24.01474155 512.4516435 12.37597836 512.71213344 0.5625 512.6875 C-0.42334076 512.68695618 -1.40918152 512.68641235 -2.42489624 512.68585205 C-18.79440674 512.64448691 -34.55539842 511.6699816 -50.625 508.3125 C-52.15012207 507.99901611 -52.15012207 507.99901611 -53.70605469 507.67919922 C-95.01607034 498.9003277 -133.64691049 479.89743344 -165.625 452.3125 C-166.37007813 451.67828125 -167.11515625 451.0440625 -167.8828125 450.390625 C-181.38779833 438.57948485 -194.05918743 425.82889772 -204.625 411.3125 C-205.48149066 410.16255169 -206.33826433 409.01281411 -207.1953125 407.86328125 C-213.2359414 399.67160474 -218.59505071 391.15604922 -223.625 382.3125 C-223.98948242 381.68069824 -224.35396484 381.04889648 -224.72949219 380.39794922 C-246.33534998 342.64967428 -256.10198095 299.88310003 -255.9375 256.6875 C-255.93534485 255.66959381 -255.9331897 254.65168762 -255.93096924 253.60293579 C-255.88129854 238.99386477 -255.63040191 224.66174147 -252.625 210.3125 C-252.42632324 209.33764648 -252.22764648 208.36279297 -252.02294922 207.35839844 C-239.56286762 147.79267502 -207.6726363 91.43883581 -158.625 54.3125 C-158.08617187 53.89726074 -157.54734375 53.48202148 -156.9921875 53.05419922 C-122.45009196 26.49899517 -81.81497559 8.6564821 -38.625 2.3125 C-37.42037109 2.13517334 -36.21574219 1.95784668 -34.97460938 1.77514648 C-23.3173269 0.17617506 -11.75313934 -0.04590972 0 0 Z M-73.625 101.3125 C-74.29789063 101.91449219 -74.97078125 102.51648438 -75.6640625 103.13671875 C-113.21413195 138.46225802 -129.97910978 196.26715049 -131.625 246.3125 C-133.29488151 301.38175432 -119.308366 358.99052474 -82.625 401.3125 C-81.89539063 402.16457031 -81.16578125 403.01664062 -80.4140625 403.89453125 C-61.5416714 425.44878845 -35.01499987 442.38772372 -5.83666992 444.51586914 C-3.01249978 444.61448154 -0.20080278 444.64184174 2.625 444.625 C3.62861572 444.61936035 4.63223145 444.6137207 5.66625977 444.60791016 C34.20327346 444.14508585 58.98090117 430.64002947 79.375 411.3125 C80.19871094 410.54164063 81.02242187 409.77078125 81.87109375 408.9765625 C111.39966806 380.50751581 127.56851194 339.05448685 134.375 299.3125 C134.53726074 298.37390137 134.69952148 297.43530273 134.86669922 296.46826172 C139.33237822 269.30089564 139.06146596 240.42140193 134.375 213.3125 C134.21402832 212.3726123 134.05305664 211.43272461 133.88720703 210.46435547 C128.37844268 179.65020097 117.21259101 148.54233814 98.375 123.3125 C97.95428223 122.73532227 97.53356445 122.15814453 97.10009766 121.56347656 C77.38982355 94.6461011 50.60437979 74.38694978 17.20458984 68.69189453 C-17.81012354 63.99708309 -48.33231269 78.05840681 -73.625 101.3125 Z "
        fill="#EB1527" transform="translate(255.625,-0.3125)" />
    <path
        d="M0 0 C0.73460449 0.12358887 1.46920898 0.24717773 2.22607422 0.37451172 C24.98400325 4.35823577 47.52428743 12.20115293 66.9921875 24.80859375 C68.98002826 26.08236332 68.98002826 26.08236332 71.3046875 26.77856445 C74.6056947 28.27448285 76.56640267 30.17797717 79.1328125 32.734375 C79.84373299 33.43908684 79.84373299 33.43908684 80.5690155 34.15803528 C82.09692153 35.6797797 83.61186957 37.2135718 85.125 38.75 C85.64266937 39.27165741 86.16033875 39.79331482 86.69369507 40.33078003 C94.4197959 48.12704591 101.61783987 56.05838495 108 65 C108.84861102 66.14445404 109.69891553 67.28765401 110.55078125 68.4296875 C116.603145 76.62228421 121.98918828 85.13585714 127 94 C127.4021875 94.70721191 127.804375 95.41442383 128.21875 96.14306641 C142.97111537 122.34580287 152.50635806 151.28630797 157 181 C157.17660156 182.12245117 157.35320312 183.24490234 157.53515625 184.40136719 C159.1920586 196.01447743 159.39873513 207.53179945 159.375 219.25 C159.37418427 220.76802216 159.37418427 220.76802216 159.37335205 222.31671143 C159.33261956 238.84530572 158.42924222 254.77913999 155 271 C154.78037598 272.04188477 154.56075195 273.08376953 154.33447266 274.15722656 C144.23047061 320.47974974 121.85962611 362.81986474 89 397 C88.3306543 397.70189453 87.66130859 398.40378906 86.97167969 399.12695312 C84.74445839 401.45212862 82.49997407 403.75934826 80.25 406.0625 C79.54085449 406.80153564 78.83170898 407.54057129 78.10107422 408.30200195 C73.96608963 412.48200569 70.59762825 414.94096053 65 417 C63.55124465 417.73472593 62.11433434 418.49309192 60.6875 419.26953125 C22.29894486 440.10401366 -22.85061006 448.7012127 -66 439 C-66.76554199 438.83371094 -67.53108398 438.66742188 -68.31982422 438.49609375 C-112.06452398 428.73689612 -147.46399629 403.99517531 -177 371 C-176.67 370.34 -176.34 369.68 -176 369 C-175.5359375 369.51046875 -175.071875 370.0209375 -174.59375 370.546875 C-155.4709431 390.6686345 -128.67027855 406.31442324 -100.421875 407.30078125 C-98.53134571 407.32020168 -96.64059546 407.32376792 -94.75 407.3125 C-93.74638428 407.30686035 -92.74276855 407.3012207 -91.70874023 407.29541016 C-63.15692976 406.83234587 -38.41551249 393.31826182 -18 374 C-17.24976563 373.30261719 -16.49953125 372.60523438 -15.7265625 371.88671875 C13.46812503 343.87006247 29.30374459 302.09835618 36 263 C36.16226074 262.06140137 36.32452148 261.12280273 36.49169922 260.15576172 C40.95737822 232.98839564 40.68646596 204.10890193 36 177 C35.83902832 176.0601123 35.67805664 175.12022461 35.51220703 174.15185547 C30.0048111 143.34535549 18.84531383 112.21773469 0 87 C-0.42603516 86.41750488 -0.85207031 85.83500977 -1.29101562 85.23486328 C-20.79608787 58.70074093 -47.20626028 39.00016805 -80.17041016 33.37939453 C-107.86694574 29.66581245 -134.62161124 37.62512593 -157 54 C-159.38375493 55.94525032 -161.70796434 57.94772623 -164 60 C-164.66 59.67 -165.32 59.34 -166 59 C-123.1885751 13.85953039 -62.50666113 -10.61985105 0 0 Z "
        fill="#DB3030" transform="translate(353,36)" />
</svg>
