<svg width="222" height="244" viewBox="0 0 222 244" fill="none" xmlns="http://www.w3.org/2000/svg">
<path d="M184.069 120.782C156.044 163.188 142.863 212.817 92.0343 212.817C41.2052 212.817 0 171.612 0 120.782C0 69.9533 45.9286 50.1461 92.0343 28.7482C241.788 -40.7534 246.775 25.8978 184.069 120.782Z" fill="#222C4F"/>
<path d="M94.6381 103.073C94.2584 101.173 94.5399 99.46 95.3294 98.1055C95.2916 98.153 95.2409 98.2156 95.2021 98.262C95.1827 98.2857 95.1579 98.317 95.1385 98.3408C95.1007 98.3882 95.05 98.4508 95.0112 98.4972C94.9735 98.5447 94.9228 98.6073 94.8839 98.6537C94.8645 98.6775 94.8397 98.7088 94.8203 98.7325C94.7826 98.78 94.7319 98.8426 94.6931 98.889C94.6553 98.9365 94.6046 98.9991 94.5658 99.0455C94.5464 99.0693 94.5216 99.1006 94.5022 99.1243C94.4644 99.1718 94.4137 99.2344 94.3749 99.2808C94.3372 99.3283 94.2865 99.3909 94.2476 99.4373C94.2282 99.461 94.2034 99.4923 94.184 99.5161C94.1463 99.5636 94.0956 99.6262 94.0568 99.6726C93.4064 100.789 93.1012 102.148 93.2252 103.656C93.6911 103.081 94.1581 102.506 94.624 101.93C94.6618 102.229 94.7114 102.628 94.7653 102.924C94.7276 102.972 94.6769 103.035 94.6381 103.081C94.6186 103.105 94.5938 103.136 94.5744 103.16C94.5367 103.207 94.486 103.27 94.4472 103.316C94.4277 103.34 94.4029 103.371 94.3835 103.395C94.3458 103.442 94.2951 103.505 94.2563 103.551C94.2369 103.575 94.2121 103.607 94.1926 103.63C94.1549 103.678 94.1042 103.74 94.0654 103.787C94.046 103.811 94.0212 103.842 94.0017 103.866C93.964 103.913 93.9133 103.976 93.8745 104.022C93.8551 104.046 93.8303 104.077 93.8109 104.101C93.7731 104.148 93.7224 104.211 93.6836 104.257C93.6642 104.281 93.6394 104.312 93.62 104.336C93.5822 104.384 93.5315 104.446 93.4927 104.493C93.4733 104.516 93.4485 104.548 93.4291 104.571C93.4097 104.595 93.3838 104.628 93.3644 104.652C94.0977 108.3 97.0603 111.585 100.63 113.103C101.441 112.968 102.702 112.734 104.279 112.258C99.7144 111.415 95.5256 107.511 94.6381 103.073Z" fill="#0747A3"/>
<path d="M95.8464 97.3633L94.576 98.9304C94.3851 99.1657 94.2125 99.415 94.0594 99.6794C94.4832 99.157 94.906 98.6347 95.3298 98.1123C95.483 97.849 95.6555 97.5986 95.8464 97.3633Z" fill="#0078E5"/>
<path d="M94.6272 101.938C94.1613 102.513 93.6943 103.088 93.2284 103.663C93.2553 103.985 93.3017 104.314 93.3686 104.649C93.3697 104.652 93.3697 104.654 93.3707 104.657C93.8366 104.082 94.3036 103.507 94.7695 102.932C94.7221 102.635 94.6574 102.238 94.6272 101.938Z" fill="#0078E5"/>
<path d="M111.494 110.07C110.189 111.681 108.039 112.596 105.41 112.412C105.033 112.386 104.658 112.338 104.286 112.27C103.435 112.525 102.251 112.851 100.637 113.115C101.762 113.593 102.946 113.895 104.14 113.979C106.77 114.163 108.92 113.248 110.225 111.637L111.494 110.07Z" fill="#032E81"/>
<path d="M101.932 95.0233C96.9443 94.6747 93.6787 98.2816 94.6385 103.082C95.5984 107.883 100.421 112.057 105.409 112.406C110.397 112.755 113.662 109.147 112.702 104.346C111.741 99.5465 106.92 95.373 101.932 95.0233Z" fill="#0E53D9"/>
<path d="M111.698 106.793L112.778 107.206C112.184 110.673 109.106 112.669 105.376 112.407C104.386 112.338 103.348 112.109 102.301 111.707C102.293 111.704 102.284 111.7 102.275 111.697C102.258 111.691 102.242 111.684 102.225 111.678L102.396 110.733C103.325 111.097 104.278 111.319 105.212 111.385C106.365 111.466 107.487 111.307 108.495 110.874C110.296 110.099 111.389 108.596 111.698 106.793Z" fill="#0078E5"/>
<path d="M102.214 96.4645C103.098 96.526 103.998 96.7376 104.876 97.0808L104.796 97.5222C103.977 97.2017 103.135 97.0052 102.311 96.947C102.31 96.947 102.309 96.947 102.308 96.947C101.292 96.8757 100.302 97.0171 99.4146 97.3981C98.2681 97.8902 97.4463 98.717 96.975 99.7358C96.7928 100.131 96.6623 100.555 96.5857 100.999L96.081 100.804C96.3733 99.099 97.4064 97.6787 99.1104 96.9459C100.064 96.539 101.125 96.3879 102.214 96.4645Z" fill="#0078E5"/>
<path d="M104.977 110.222C105.957 110.29 106.909 110.155 107.764 109.787C108.869 109.313 109.658 108.517 110.112 107.536C110.565 106.555 110.683 105.39 110.44 104.174C110.251 103.232 109.847 102.262 109.215 101.323C108.399 100.112 107.318 99.1234 106.124 98.4143C104.93 97.7053 103.624 97.2768 102.361 97.1894C101.382 97.1214 100.429 97.2563 99.5742 97.6243C98.4699 98.0981 97.6804 98.8935 97.2264 99.8746C96.7734 100.856 96.6559 102.021 96.8985 103.237C97.0873 104.179 97.4917 105.149 98.1237 106.088C98.939 107.299 100.021 108.288 101.215 108.997C102.408 109.706 103.714 110.134 104.977 110.222ZM102.307 96.9357C102.308 96.9357 102.309 96.9357 102.31 96.9357C103.134 96.9929 103.975 97.1904 104.795 97.511C105.28 97.7009 105.758 97.9351 106.22 98.2093C107.46 98.9453 108.585 99.9739 109.432 101.231C110.088 102.206 110.509 103.216 110.704 104.195C110.956 105.458 110.835 106.669 110.364 107.689C109.893 108.707 109.071 109.534 107.925 110.027C107.036 110.409 106.046 110.55 105.028 110.478C103.716 110.387 102.359 109.942 101.119 109.205C99.8784 108.469 98.7535 107.44 97.9069 106.183C97.2512 105.208 96.8295 104.198 96.6343 103.219C96.4801 102.445 96.465 101.692 96.5858 100.989C96.6623 100.545 96.7917 100.122 96.9751 99.7267C97.4464 98.7079 98.2682 97.8812 99.4146 97.389C100.302 97.0059 101.291 96.8645 102.307 96.9357Z" fill="#0078E5"/>
<path d="M105.605 104.526C105.598 104.558 105.59 104.59 105.579 104.621C105.532 104.758 105.458 104.872 105.384 104.965C105.247 105.131 105.101 105.259 104.946 105.375C104.797 105.486 104.64 105.583 104.485 105.685C104.472 105.694 104.465 105.696 104.452 105.674C104.152 105.166 103.85 104.659 103.549 104.152C103.544 104.143 103.537 104.135 103.54 104.127C103.541 104.124 103.543 104.119 103.549 104.116C103.758 103.972 103.962 103.82 104.187 103.703C104.366 103.61 104.552 103.532 104.762 103.514C104.897 103.503 105.035 103.519 105.174 103.597C105.49 103.772 105.672 104.179 105.605 104.526ZM104.039 102.437C104.03 102.482 104.017 102.526 104 102.569C103.959 102.665 103.905 102.749 103.843 102.824C103.695 103.007 103.512 103.142 103.324 103.267C103.26 103.309 103.194 103.349 103.129 103.392C103.114 103.403 103.106 103.402 103.091 103.378C102.821 102.922 102.549 102.466 102.278 102.009C102.272 102 102.266 101.991 102.267 101.982C102.268 101.978 102.27 101.973 102.277 101.97C102.457 101.844 102.633 101.712 102.83 101.615C102.983 101.539 103.142 101.48 103.323 101.48C103.467 101.479 103.607 101.522 103.74 101.639C103.979 101.847 104.093 102.162 104.039 102.437ZM100.17 102.243C100.168 102.249 100.171 102.258 100.179 102.271C100.319 102.506 100.46 102.742 100.599 102.978C100.612 103 100.62 103.001 100.634 102.99C100.725 102.927 100.815 102.866 100.905 102.804C100.976 102.757 101.048 102.708 101.133 102.688C101.293 102.651 101.444 102.776 101.508 102.884C101.775 103.332 102.041 103.78 102.307 104.227C102.667 104.835 103.029 105.443 103.39 106.051C103.436 106.128 103.452 106.216 103.438 106.291C103.432 106.322 103.421 106.35 103.405 106.374C103.383 106.408 103.353 106.431 103.322 106.45C103.208 106.527 103.094 106.602 102.977 106.676C102.967 106.681 102.962 106.688 102.962 106.695C102.96 106.703 102.963 106.713 102.969 106.727C103.093 107.011 103.217 107.296 103.34 107.581C103.353 107.609 103.358 107.613 103.379 107.599C103.72 107.373 104.061 107.143 104.405 106.922C104.425 106.91 104.433 106.914 104.447 106.938C104.668 107.312 104.89 107.685 105.112 108.058C105.128 108.086 105.138 108.091 105.159 108.077C105.318 107.969 105.477 107.863 105.637 107.758C105.647 107.751 105.653 107.746 105.654 107.738C105.656 107.729 105.652 107.718 105.642 107.703C105.423 107.336 105.205 106.968 104.986 106.6C104.977 106.586 104.973 106.576 104.975 106.568C104.976 106.561 104.981 106.556 104.99 106.551C105.115 106.471 105.24 106.391 105.364 106.308C105.386 106.294 105.398 106.294 105.418 106.327C105.634 106.693 105.851 107.059 106.068 107.425C106.084 107.452 106.093 107.454 106.112 107.44C106.273 107.332 106.435 107.225 106.596 107.119C106.605 107.113 106.61 107.108 106.611 107.101C106.612 107.093 106.61 107.084 106.601 107.071C106.532 106.958 106.465 106.843 106.398 106.729C106.244 106.471 106.09 106.211 105.936 105.952C105.928 105.94 105.921 105.93 105.923 105.92C105.924 105.915 105.928 105.91 105.935 105.904C106.084 105.79 106.225 105.668 106.357 105.531C106.514 105.367 106.656 105.187 106.759 104.966C106.809 104.857 106.847 104.744 106.87 104.625C106.911 104.414 106.904 104.185 106.841 103.938C106.731 103.509 106.532 103.121 106.249 102.783C106.065 102.564 105.85 102.422 105.609 102.365C105.403 102.316 105.21 102.335 105.023 102.383C105.013 102.385 105.004 102.392 104.989 102.386C104.994 102.372 104.999 102.36 105.004 102.348C105.034 102.274 105.056 102.198 105.071 102.12C105.116 101.889 105.094 101.642 104.993 101.377C104.917 101.178 104.81 100.998 104.683 100.828C104.525 100.616 104.341 100.453 104.123 100.358C103.911 100.266 103.705 100.252 103.503 100.275C103.234 100.307 102.991 100.404 102.755 100.519C102.718 100.537 102.718 100.537 102.69 100.49C102.473 100.126 102.257 99.7604 102.04 99.3959C102.026 99.3713 102.016 99.3667 101.998 99.3794C101.837 99.4875 101.676 99.5954 101.514 99.701C101.505 99.7069 101.499 99.7126 101.499 99.7196C101.498 99.7276 101.5 99.7367 101.509 99.7514C101.724 100.11 101.936 100.47 102.15 100.83C102.158 100.843 102.161 100.852 102.16 100.859C102.158 100.865 102.154 100.871 102.145 100.877C102.02 100.961 101.895 101.047 101.772 101.134C101.753 101.148 101.744 101.146 101.728 101.118C101.515 100.756 101.299 100.395 101.085 100.033C101.07 100.008 101.061 100.004 101.043 100.018C100.885 100.124 100.725 100.23 100.567 100.334C100.551 100.344 100.543 100.35 100.542 100.356C100.54 100.364 100.546 100.375 100.559 100.396C100.776 100.762 100.994 101.127 101.212 101.493C101.22 101.507 101.225 101.517 101.223 101.525C101.221 101.532 101.216 101.538 101.207 101.544C101.094 101.618 100.985 101.697 100.871 101.77C100.639 101.918 100.412 102.073 100.183 102.224C100.176 102.232 100.171 102.237 100.17 102.243Z" fill="#EAF1F4"/>
<path opacity="0.5" d="M109.743 111.52L108.36 109.489C108.36 109.489 108.063 109.666 107.846 109.758L101.031 97.3933C101.031 97.3933 101.193 97.2131 101.577 97.1861L100.413 95.0394C100.413 95.0394 101.429 94.9401 102.329 95.0567L103.309 97.3243C103.309 97.3243 103.114 97.3631 102.937 97.4721L109.317 108.72L109.443 108.58L110.455 111.058C110.456 111.058 110.157 111.302 109.743 111.52Z" fill="white"/>
<path d="M67.9096 174.099C67.6698 172.898 67.8476 171.817 68.3462 170.961C68.3224 170.991 68.2904 171.03 68.2659 171.06C68.2536 171.075 68.2379 171.095 68.2257 171.11C68.2018 171.14 68.1698 171.179 68.1453 171.208C68.1214 171.238 68.0894 171.278 68.0649 171.307C68.0526 171.322 68.037 171.342 68.0247 171.357C68.0009 171.387 67.9688 171.427 67.9443 171.456C67.9205 171.486 67.8885 171.525 67.8639 171.555C67.8517 171.57 67.836 171.589 67.8237 171.604C67.7999 171.634 67.7679 171.674 67.7434 171.703C67.7195 171.733 67.6875 171.773 67.663 171.802C67.6507 171.817 67.635 171.837 67.6228 171.852C67.5989 171.882 67.5669 171.921 67.5424 171.951C67.1316 172.656 66.9388 173.515 67.0172 174.467C67.3115 174.104 67.6064 173.74 67.9007 173.377C67.9246 173.566 67.9559 173.817 67.99 174.005C67.9661 174.035 67.9341 174.074 67.9096 174.104C67.8973 174.119 67.8816 174.138 67.8694 174.153C67.8455 174.183 67.8135 174.223 67.789 174.252C67.7767 174.267 67.7611 174.287 67.7488 174.302C67.725 174.332 67.6929 174.372 67.6684 174.401C67.6562 174.416 67.6405 174.436 67.6282 174.451C67.6044 174.481 67.5724 174.52 67.5478 174.55C67.5356 174.565 67.5199 174.584 67.5077 174.599C67.4838 174.629 67.4518 174.669 67.4273 174.698C67.415 174.713 67.3993 174.733 67.3871 174.748C67.3632 174.778 67.3312 174.817 67.3067 174.847C67.2944 174.862 67.2788 174.882 67.2665 174.897C67.2427 174.927 67.2106 174.966 67.1861 174.995C67.1739 175.01 67.1582 175.03 67.1459 175.045C67.1337 175.06 67.1173 175.081 67.105 175.096C67.5683 177.401 69.4396 179.475 71.6944 180.434C72.2067 180.349 73.0031 180.201 73.999 179.9C71.1161 179.368 68.4702 176.902 67.9096 174.099Z" fill="#0747A3"/>
<path d="M68.6729 170.492L67.8704 171.482C67.7498 171.631 67.6408 171.788 67.5441 171.955C67.8118 171.625 68.0788 171.295 68.3465 170.965C68.4433 170.799 68.5523 170.641 68.6729 170.492Z" fill="#0078E5"/>
<path d="M67.9028 173.383C67.6085 173.746 67.3135 174.11 67.0192 174.473C67.0362 174.676 67.0655 174.884 67.1078 175.095C67.1084 175.097 67.1084 175.099 67.1091 175.101C67.4034 174.737 67.6984 174.374 67.9927 174.011C67.9627 173.823 67.9218 173.572 67.9028 173.383Z" fill="#0078E5"/>
<path d="M78.5571 178.52C77.7328 179.537 76.3745 180.115 74.7137 179.999C74.4759 179.983 74.2389 179.952 74.0038 179.909C73.4664 180.07 72.7184 180.276 71.6993 180.443C72.4098 180.745 73.1578 180.936 73.9119 180.989C75.5727 181.105 76.9311 180.527 77.7553 179.509L78.5571 178.52Z" fill="#032E81"/>
<path d="M72.5171 169.015C69.3664 168.795 67.3037 171.073 67.91 174.105C68.5163 177.137 71.5627 179.774 74.7133 179.995C77.864 180.215 79.9261 177.936 79.3198 174.903C78.7128 171.872 75.6677 169.236 72.5171 169.015Z" fill="#0E53D9"/>
<path d="M78.6858 176.449L79.3677 176.71C78.993 178.9 77.0488 180.161 74.6924 179.996C74.0671 179.952 73.4117 179.807 72.7503 179.553C72.7448 179.551 72.7394 179.549 72.7339 179.547C72.723 179.543 72.7128 179.539 72.7019 179.535L72.8102 178.938C73.3968 179.168 73.999 179.308 74.5889 179.35C75.3171 179.401 76.0256 179.3 76.6625 179.027C77.8002 178.537 78.4903 177.588 78.6858 176.449Z" fill="#0078E5"/>
<path d="M72.6952 169.926C73.2531 169.965 73.8219 170.099 74.3765 170.315L74.3261 170.594C73.8083 170.392 73.277 170.268 72.7565 170.231C72.7558 170.231 72.7552 170.231 72.7545 170.231C72.1128 170.186 71.4874 170.275 70.9268 170.516C70.2026 170.827 69.6835 171.349 69.3858 171.993C69.2707 172.242 69.1883 172.51 69.1399 172.79L68.8211 172.667C69.0057 171.59 69.6583 170.693 70.7346 170.23C71.3368 169.973 72.0072 169.878 72.6952 169.926Z" fill="#0078E5"/>
<path d="M74.4406 178.614C75.0592 178.657 75.6607 178.572 76.2009 178.339C76.8985 178.04 77.3971 177.538 77.6839 176.918C77.97 176.298 78.0443 175.562 77.891 174.794C77.7718 174.199 77.5163 173.586 77.1171 172.993C76.6021 172.228 75.9189 171.604 75.1647 171.156C74.4106 170.708 73.5857 170.438 72.788 170.382C72.1694 170.339 71.5679 170.425 71.0277 170.657C70.3301 170.956 69.8314 171.459 69.5447 172.078C69.2585 172.698 69.1843 173.434 69.3376 174.202C69.4568 174.797 69.7122 175.41 70.1114 176.003C70.6264 176.768 71.3097 177.393 72.0638 177.84C72.8179 178.288 73.6429 178.559 74.4406 178.614ZM72.7539 170.222C72.7546 170.222 72.7553 170.222 72.7559 170.222C73.2764 170.258 73.8077 170.383 74.3255 170.586C74.632 170.706 74.9338 170.853 75.2254 171.027C76.0088 171.492 76.7193 172.141 77.2541 172.935C77.6689 173.551 77.9346 174.189 78.0579 174.807C78.2173 175.605 78.1403 176.37 77.8433 177.014C77.5456 177.658 77.0265 178.18 76.3024 178.492C75.7411 178.733 75.1157 178.821 74.4726 178.776C73.6436 178.719 72.7866 178.438 72.0032 177.972C71.2198 177.507 70.5093 176.857 69.9745 176.063C69.5603 175.448 69.294 174.809 69.1707 174.191C69.0732 173.702 69.0637 173.227 69.14 172.783C69.1884 172.502 69.2701 172.235 69.3859 171.985C69.6836 171.342 70.2027 170.819 70.9269 170.508C71.4875 170.266 72.1122 170.177 72.7539 170.222Z" fill="#0078E5"/>
<path d="M74.8368 175.016C74.8327 175.036 74.8273 175.056 74.8207 175.076C74.7907 175.163 74.744 175.235 74.6975 175.293C74.6111 175.398 74.5185 175.479 74.4206 175.552C74.3268 175.622 74.2273 175.684 74.1297 175.748C74.1215 175.753 74.1171 175.755 74.1088 175.741C73.919 175.42 73.7283 175.1 73.5383 174.779C73.5351 174.774 73.5311 174.769 73.5324 174.764C73.533 174.762 73.5345 174.759 73.5384 174.757C73.6705 174.666 73.7994 174.57 73.9411 174.496C74.0545 174.437 74.1722 174.388 74.3044 174.377C74.39 174.37 74.477 174.38 74.5649 174.429C74.7642 174.54 74.8794 174.797 74.8368 175.016ZM73.848 173.696C73.8424 173.725 73.8343 173.753 73.823 173.78C73.7974 173.84 73.7631 173.893 73.7242 173.941C73.6304 174.056 73.5151 174.142 73.3962 174.22C73.3555 174.247 73.3141 174.272 73.2733 174.299C73.2634 174.306 73.2582 174.306 73.2488 174.291C73.0784 174.003 72.9065 173.715 72.7354 173.426C72.7317 173.42 72.7278 173.414 72.7287 173.409C72.7293 173.406 72.7308 173.403 72.7347 173.401C72.8484 173.322 72.9597 173.239 73.084 173.177C73.1805 173.129 73.2815 173.092 73.3954 173.092C73.4866 173.092 73.5751 173.118 73.6591 173.192C73.8099 173.324 73.8818 173.523 73.848 173.696ZM71.4037 173.574C71.4026 173.578 71.4044 173.584 71.4096 173.591C71.4984 173.74 71.5871 173.889 71.675 174.038C71.6833 174.052 71.6885 174.053 71.697 174.046C71.7545 174.006 71.8111 173.967 71.8684 173.928C71.9132 173.898 71.9584 173.867 72.0126 173.855C72.1132 173.832 72.2085 173.911 72.2493 173.979C72.4178 174.262 72.5856 174.545 72.7537 174.827C72.9815 175.211 73.21 175.595 73.4378 175.979C73.4669 176.028 73.4774 176.084 73.4681 176.131C73.4643 176.15 73.4575 176.168 73.4473 176.183C73.4336 176.205 73.4143 176.219 73.3949 176.231C73.3231 176.28 73.2507 176.327 73.1773 176.374C73.171 176.377 73.1678 176.382 73.1673 176.386C73.1666 176.391 73.1683 176.398 73.1719 176.406C73.2504 176.586 73.3288 176.765 73.4063 176.946C73.4143 176.964 73.4177 176.966 73.4308 176.957C73.6465 176.814 73.8615 176.669 74.079 176.529C74.0918 176.521 74.0965 176.524 74.1057 176.54C74.2453 176.776 74.3857 177.011 74.5254 177.247C74.536 177.265 74.5419 177.268 74.555 177.259C74.6556 177.191 74.7559 177.124 74.8574 177.057C74.8639 177.053 74.8675 177.05 74.8682 177.044C74.869 177.039 74.8668 177.032 74.8606 177.023C74.7219 176.791 74.5846 176.559 74.4461 176.326C74.4406 176.317 74.4381 176.311 74.4388 176.306C74.44 176.302 74.4428 176.298 74.4485 176.295C74.5275 176.245 74.6067 176.194 74.685 176.142C74.6989 176.132 74.7062 176.132 74.7187 176.153C74.8555 176.385 74.9925 176.616 75.1293 176.847C75.1395 176.864 75.1452 176.865 75.1576 176.857C75.2589 176.788 75.3613 176.721 75.4631 176.653C75.4687 176.65 75.4716 176.647 75.4727 176.642C75.4734 176.637 75.4716 176.632 75.4664 176.624C75.4227 176.552 75.3804 176.48 75.3382 176.408C75.2407 176.244 75.1434 176.08 75.0459 175.917C75.0413 175.909 75.037 175.903 75.038 175.896C75.0388 175.893 75.041 175.89 75.0453 175.887C75.1396 175.814 75.2287 175.737 75.312 175.651C75.4114 175.547 75.5008 175.433 75.5657 175.294C75.5975 175.225 75.6213 175.154 75.6361 175.079C75.6618 174.945 75.6576 174.801 75.6179 174.644C75.5486 174.373 75.4227 174.129 75.2435 173.915C75.1273 173.777 74.992 173.687 74.8397 173.651C74.7094 173.62 74.5878 173.632 74.4692 173.662C74.4633 173.664 74.4575 173.668 74.4478 173.664C74.4509 173.655 74.4543 173.648 74.4577 173.64C74.4762 173.593 74.4904 173.545 74.4995 173.496C74.5279 173.35 74.5142 173.194 74.4506 173.027C74.4026 172.901 74.3347 172.787 74.2549 172.68C74.1549 172.546 74.0386 172.443 73.9006 172.383C73.7669 172.325 73.6368 172.316 73.509 172.331C73.3396 172.351 73.1859 172.412 73.0366 172.485C73.0134 172.496 73.0135 172.496 72.9959 172.467C72.8588 172.236 72.7224 172.006 72.5853 171.775C72.5761 171.76 72.5701 171.757 72.5586 171.765C72.4573 171.833 72.3553 171.901 72.2531 171.968C72.2474 171.972 72.2438 171.975 72.2433 171.98C72.2426 171.985 72.2444 171.991 72.2499 172C72.3854 172.227 72.5193 172.454 72.6546 172.681C72.6596 172.69 72.6615 172.695 72.6609 172.7C72.66 172.703 72.6569 172.707 72.6513 172.711C72.5727 172.764 72.4939 172.818 72.4162 172.873C72.4039 172.882 72.3981 172.881 72.3881 172.863C72.2533 172.634 72.1169 172.406 71.982 172.178C71.9727 172.162 71.9668 172.159 71.9551 172.168C71.8554 172.236 71.7546 172.302 71.6545 172.368C71.6447 172.375 71.6398 172.378 71.6387 172.382C71.638 172.387 71.6415 172.394 71.65 172.407C71.787 172.638 71.9246 172.869 72.0622 173.1C72.0673 173.109 72.0702 173.115 72.0689 173.12C72.0677 173.125 72.0647 173.128 72.059 173.132C71.9875 173.179 71.9185 173.229 71.8466 173.275C71.7003 173.369 71.557 173.466 71.4122 173.562C71.4076 173.567 71.4047 173.57 71.4037 173.574Z" fill="#EAF1F4"/>
<path opacity="0.5" d="M77.451 179.435L76.577 178.152C76.577 178.152 76.3897 178.264 76.2528 178.322L71.9481 170.512C71.9481 170.512 72.0503 170.398 72.2928 170.381L71.5578 169.025C71.5578 169.025 72.1995 168.962 72.7676 169.036L73.3868 170.468C73.3868 170.468 73.2635 170.493 73.1518 170.562L77.1819 177.666L77.2616 177.578L77.9006 179.143C77.9013 179.143 77.7126 179.297 77.451 179.435Z" fill="white"/>
<path d="M44.6819 116.825C44.5021 115.925 44.6354 115.114 45.0093 114.473C44.9914 114.495 44.9674 114.525 44.949 114.547C44.9398 114.558 44.9281 114.573 44.9189 114.584C44.901 114.607 44.877 114.636 44.8586 114.658C44.8408 114.681 44.8167 114.71 44.7984 114.732C44.7892 114.744 44.7774 114.758 44.7682 114.77C44.7504 114.792 44.7263 114.822 44.708 114.844C44.6901 114.866 44.6661 114.896 44.6477 114.918C44.6385 114.929 44.6267 114.944 44.6176 114.955C44.5997 114.978 44.5757 115.007 44.5573 115.029C44.5394 115.052 44.5154 115.081 44.497 115.103C44.4878 115.115 44.4761 115.129 44.4669 115.141C44.449 115.163 44.425 115.193 44.4066 115.215C44.0986 115.743 43.9541 116.387 44.0128 117.101C44.2335 116.829 44.4546 116.557 44.6753 116.284C44.6931 116.426 44.7166 116.614 44.7422 116.755C44.7243 116.777 44.7003 116.807 44.6819 116.829C44.6727 116.84 44.661 116.855 44.6518 116.866C44.6339 116.889 44.6099 116.918 44.5915 116.94C44.5823 116.952 44.5706 116.966 44.5614 116.978C44.5435 117 44.5195 117.03 44.5011 117.052C44.4919 117.063 44.4802 117.078 44.471 117.089C44.4531 117.112 44.4291 117.141 44.4107 117.163C44.4015 117.175 44.3898 117.189 44.3806 117.201C44.3627 117.223 44.3387 117.253 44.3203 117.275C44.3111 117.286 44.2994 117.301 44.2902 117.312C44.2723 117.334 44.2483 117.364 44.2299 117.386C44.2207 117.397 44.2089 117.412 44.1998 117.423C44.1819 117.446 44.1579 117.476 44.1395 117.498C44.1303 117.509 44.1185 117.524 44.1094 117.535C44.1002 117.546 44.0879 117.561 44.0787 117.573C44.426 119.301 45.8291 120.856 47.5197 121.575C47.9038 121.511 48.5008 121.401 49.2476 121.175C47.086 120.776 45.1023 118.927 44.6819 116.825Z" fill="#0747A3"/>
<path d="M45.2542 114.121L44.6525 114.863C44.5621 114.975 44.4804 115.093 44.4078 115.218C44.6086 114.971 44.8088 114.723 45.0095 114.476C45.082 114.351 45.1637 114.233 45.2542 114.121Z" fill="#0078E5"/>
<path d="M44.677 116.285C44.4563 116.558 44.2352 116.83 44.0145 117.102C44.0273 117.255 44.0492 117.411 44.0809 117.569C44.0814 117.571 44.0814 117.572 44.0819 117.573C44.3026 117.301 44.5237 117.028 44.7444 116.756C44.7219 116.615 44.6913 116.427 44.677 116.285Z" fill="#0078E5"/>
<path d="M52.665 120.137C52.047 120.899 51.0286 121.333 49.7834 121.246C49.6051 121.234 49.4274 121.211 49.2511 121.178C48.8482 121.299 48.2873 121.453 47.5233 121.579C48.056 121.805 48.6168 121.948 49.1822 121.988C50.4274 122.075 51.4459 121.641 52.0639 120.879L52.665 120.137Z" fill="#032E81"/>
<path d="M48.1365 113.011C45.7742 112.846 44.2276 114.554 44.6822 116.828C45.1368 119.101 47.4209 121.078 49.7831 121.243C52.1454 121.408 53.6914 119.7 53.2369 117.426C52.7818 115.153 50.4987 113.177 48.1365 113.011Z" fill="#0E53D9"/>
<path d="M52.7614 118.586L53.2727 118.782C52.9918 120.423 51.5341 121.369 49.7674 121.245C49.2985 121.212 48.8072 121.104 48.3112 120.913C48.3071 120.912 48.303 120.91 48.299 120.909C48.2908 120.905 48.2831 120.902 48.275 120.899L48.3562 120.452C48.7959 120.624 49.2474 120.73 49.6898 120.761C50.2357 120.799 50.7669 120.724 51.2445 120.519C52.0975 120.152 52.6149 119.44 52.7614 118.586Z" fill="#0078E5"/>
<path d="M48.27 113.693C48.6883 113.722 49.1148 113.822 49.5305 113.985L49.4927 114.194C49.1045 114.042 48.7062 113.949 48.3159 113.921C48.3154 113.921 48.3149 113.921 48.3144 113.921C47.8333 113.887 47.3644 113.954 46.944 114.135C46.4011 114.368 46.0119 114.759 45.7887 115.242C45.7024 115.429 45.6406 115.63 45.6043 115.84L45.3653 115.748C45.5037 114.94 45.993 114.268 46.8 113.921C47.2515 113.728 47.7541 113.656 48.27 113.693Z" fill="#0078E5"/>
<path d="M49.5785 120.211C50.0423 120.243 50.4933 120.179 50.8983 120.005C51.4213 119.78 51.7952 119.404 52.0102 118.939C52.2247 118.474 52.2804 117.922 52.1655 117.347C52.0761 116.901 51.8846 116.441 51.5853 115.996C51.1992 115.423 50.6869 114.955 50.1215 114.619C49.556 114.283 48.9375 114.08 48.3394 114.039C47.8757 114.006 47.4247 114.07 47.0196 114.245C46.4966 114.469 46.1227 114.846 45.9077 115.31C45.6932 115.775 45.6375 116.327 45.7524 116.903C45.8418 117.349 46.0334 117.808 46.3327 118.253C46.7188 118.826 47.2311 119.295 47.7965 119.63C48.3619 119.966 48.9804 120.169 49.5785 120.211ZM48.3139 113.919C48.3144 113.919 48.3149 113.919 48.3154 113.919C48.7056 113.946 49.104 114.039 49.4922 114.191C49.722 114.281 49.9483 114.392 50.1669 114.522C50.7543 114.87 51.287 115.357 51.6879 115.953C51.999 116.414 52.1982 116.893 52.2906 117.356C52.4102 117.954 52.3524 118.528 52.1297 119.011C51.9065 119.494 51.5174 119.885 50.9744 120.119C50.5536 120.3 50.0847 120.366 49.6025 120.332C48.9809 120.289 48.3384 120.078 47.751 119.729C47.1637 119.381 46.6309 118.893 46.23 118.298C45.9195 117.836 45.7198 117.358 45.6273 116.894C45.5543 116.528 45.5471 116.171 45.6043 115.838C45.6406 115.628 45.7019 115.427 45.7887 115.24C46.0119 114.758 46.4011 114.366 46.944 114.133C47.3644 113.952 47.8328 113.885 48.3139 113.919Z" fill="#0078E5"/>
<path d="M49.8757 117.51C49.8726 117.525 49.8686 117.54 49.8636 117.555C49.8411 117.62 49.8061 117.674 49.7712 117.718C49.7064 117.797 49.6371 117.857 49.5636 117.912C49.4933 117.965 49.4187 118.011 49.3456 118.059C49.3394 118.063 49.3361 118.064 49.3299 118.054C49.1875 117.813 49.0446 117.573 48.9021 117.333C48.8997 117.329 48.8967 117.325 48.8977 117.322C48.8982 117.32 48.8993 117.318 48.9022 117.316C49.0013 117.248 49.0979 117.176 49.2041 117.12C49.2891 117.076 49.3774 117.039 49.4765 117.031C49.5407 117.026 49.6059 117.033 49.6718 117.07C49.8212 117.153 49.9076 117.346 49.8757 117.51ZM49.1344 116.521C49.1301 116.542 49.124 116.563 49.1156 116.583C49.0964 116.629 49.0707 116.668 49.0415 116.704C48.9711 116.791 48.8847 116.855 48.7956 116.914C48.7651 116.934 48.734 116.953 48.7035 116.973C48.696 116.978 48.6921 116.978 48.6851 116.967C48.5573 116.75 48.4284 116.535 48.3001 116.318C48.2973 116.314 48.2944 116.31 48.2951 116.305C48.2956 116.303 48.2967 116.301 48.2996 116.3C48.3848 116.24 48.4683 116.178 48.5615 116.132C48.6339 116.096 48.7096 116.068 48.795 116.068C48.8633 116.067 48.9297 116.088 48.9927 116.143C49.1058 116.242 49.1596 116.391 49.1344 116.521ZM47.3017 116.429C47.3008 116.432 47.3022 116.436 47.3061 116.442C47.3726 116.554 47.4392 116.665 47.5051 116.777C47.5113 116.787 47.5152 116.788 47.5216 116.783C47.5647 116.753 47.6071 116.724 47.6501 116.695C47.6837 116.672 47.7176 116.649 47.7582 116.64C47.8336 116.622 47.9051 116.682 47.9356 116.732C48.062 116.945 48.1878 117.157 48.3138 117.368C48.4847 117.656 48.656 117.944 48.8268 118.232C48.8486 118.269 48.8564 118.311 48.8495 118.346C48.8466 118.361 48.8415 118.374 48.8339 118.386C48.8236 118.401 48.8091 118.412 48.7946 118.422C48.7408 118.458 48.6865 118.494 48.6315 118.528C48.6267 118.531 48.6243 118.534 48.624 118.538C48.6234 118.541 48.6247 118.546 48.6274 118.553C48.6863 118.687 48.745 118.822 48.8032 118.957C48.8091 118.971 48.8117 118.972 48.8215 118.966C48.9833 118.858 49.1444 118.75 49.3075 118.645C49.3171 118.639 49.3206 118.641 49.3275 118.653C49.4322 118.83 49.5374 119.006 49.6422 119.183C49.6502 119.196 49.6546 119.198 49.6644 119.192C49.7398 119.141 49.8151 119.091 49.8911 119.041C49.896 119.038 49.8987 119.035 49.8992 119.031C49.8999 119.027 49.8981 119.022 49.8935 119.015C49.7895 118.841 49.6866 118.667 49.5828 118.493C49.5786 118.486 49.5768 118.481 49.5773 118.477C49.5781 118.474 49.5803 118.472 49.5845 118.469C49.6438 118.432 49.7032 118.394 49.7619 118.354C49.7723 118.347 49.7778 118.347 49.7871 118.363C49.8897 118.537 49.9924 118.71 50.095 118.883C50.1026 118.896 50.1069 118.897 50.1162 118.89C50.1921 118.839 50.2689 118.789 50.3452 118.738C50.3495 118.735 50.3516 118.733 50.3525 118.73C50.353 118.726 50.3516 118.722 50.3477 118.716C50.315 118.662 50.2833 118.608 50.2516 118.554C50.1785 118.431 50.1055 118.308 50.0325 118.186C50.029 118.18 50.0258 118.175 50.0265 118.17C50.0271 118.168 50.0288 118.166 50.032 118.163C50.1027 118.109 50.1695 118.051 50.232 117.986C50.3065 117.909 50.3736 117.823 50.4222 117.719C50.446 117.667 50.4639 117.614 50.4749 117.557C50.4943 117.457 50.4911 117.349 50.4613 117.232C50.4093 117.029 50.315 116.845 50.1806 116.685C50.0935 116.581 49.9921 116.514 49.8779 116.487C49.7802 116.464 49.689 116.472 49.6 116.495C49.5957 116.496 49.5913 116.5 49.5841 116.497C49.5864 116.49 49.5889 116.484 49.5914 116.479C49.6053 116.444 49.6159 116.408 49.6228 116.371C49.6441 116.261 49.6338 116.144 49.5861 116.019C49.5502 115.925 49.4992 115.839 49.4394 115.759C49.3644 115.659 49.2772 115.581 49.1738 115.536C49.0735 115.493 48.976 115.486 48.8802 115.497C48.7532 115.512 48.6379 115.558 48.526 115.612C48.5086 115.621 48.5086 115.621 48.4955 115.599C48.3926 115.426 48.2904 115.253 48.1876 115.081C48.1807 115.069 48.1762 115.067 48.1676 115.073C48.0916 115.124 48.0152 115.175 47.9385 115.225C47.9343 115.228 47.9315 115.231 47.9311 115.234C47.9306 115.238 47.932 115.242 47.9361 115.249C48.0377 115.419 48.1381 115.589 48.2395 115.76C48.2433 115.766 48.2447 115.77 48.2443 115.774C48.2436 115.776 48.2413 115.779 48.237 115.782C48.1781 115.822 48.1191 115.863 48.0608 115.904C48.0516 115.91 48.0472 115.91 48.0398 115.896C47.9387 115.725 47.8364 115.554 47.7352 115.382C47.7283 115.371 47.7239 115.369 47.7151 115.375C47.6403 115.426 47.5647 115.475 47.4897 115.525C47.4824 115.53 47.4787 115.532 47.4779 115.536C47.4774 115.539 47.48 115.544 47.4863 115.554C47.589 115.728 47.6922 115.901 47.7954 116.074C47.7992 116.08 47.8014 116.085 47.8004 116.089C47.7995 116.092 47.7973 116.095 47.793 116.098C47.7394 116.133 47.6877 116.171 47.6337 116.205C47.5241 116.275 47.4166 116.348 47.308 116.42C47.3046 116.424 47.3024 116.426 47.3017 116.429Z" fill="#EAF1F4"/>
<path opacity="0.5" d="M51.8358 120.824L51.1805 119.862C51.1805 119.862 51.04 119.946 50.9373 119.989L47.7099 114.133C47.7099 114.133 47.7865 114.048 47.9683 114.035L47.4172 113.019C47.4172 113.019 47.8983 112.972 48.3243 113.027L48.7886 114.101C48.7886 114.101 48.6961 114.119 48.6124 114.171L51.634 119.498L51.6938 119.431L52.1729 120.605C52.1734 120.605 52.0319 120.72 51.8358 120.824Z" fill="white"/>
<path d="M96.6798 52.2175C96.4441 51.0373 96.6189 49.9738 97.1091 49.1328C97.0856 49.1623 97.0542 49.2012 97.0301 49.23C97.018 49.2447 97.0026 49.2642 96.9906 49.2789C96.9671 49.3084 96.9356 49.3473 96.9115 49.3761C96.8881 49.4056 96.8566 49.4444 96.8325 49.4732C96.8205 49.488 96.8051 49.5074 96.793 49.5222C96.7696 49.5516 96.7381 49.5905 96.714 49.6193C96.6906 49.6488 96.6591 49.6877 96.635 49.7165C96.6229 49.7312 96.6075 49.7507 96.5955 49.7654C96.572 49.7949 96.5406 49.8338 96.5164 49.8626C96.493 49.8921 96.4615 49.9309 96.4374 49.9598C96.4254 49.9745 96.41 49.9939 96.3979 50.0087C96.3745 50.0382 96.343 50.077 96.3189 50.1059C95.9151 50.7988 95.7256 51.6431 95.8026 52.5793C96.0919 52.2221 96.3818 51.865 96.6711 51.5078C96.6946 51.6934 96.7254 51.9407 96.7589 52.125C96.7354 52.1545 96.7039 52.1933 96.6798 52.2221C96.6678 52.2369 96.6524 52.2563 96.6403 52.2711C96.6169 52.3006 96.5854 52.3394 96.5613 52.3682C96.5493 52.383 96.5339 52.4024 96.5218 52.4172C96.4984 52.4466 96.4669 52.4855 96.4428 52.5143C96.4307 52.5291 96.4153 52.5485 96.4033 52.5632C96.3798 52.5927 96.3484 52.6316 96.3243 52.6604C96.3122 52.6752 96.2968 52.6946 96.2848 52.7093C96.2613 52.7388 96.2298 52.7777 96.2057 52.8065C96.1937 52.8213 96.1783 52.8407 96.1662 52.8554C96.1428 52.8849 96.1113 52.9238 96.0872 52.9526C96.0752 52.9673 96.0598 52.9868 96.0477 53.0015C96.0243 53.031 95.9928 53.0699 95.9687 53.0987C95.9566 53.1134 95.9412 53.1329 95.9292 53.1476C95.9171 53.1624 95.901 53.1825 95.889 53.1979C96.3443 55.4629 98.1839 57.5022 100.4 58.445C100.904 58.3613 101.687 58.2159 102.666 57.9203C99.8318 57.3969 97.231 54.9731 96.6798 52.2175Z" fill="#0747A3"/>
<path d="M97.4302 48.6719L96.6413 49.6449C96.5228 49.791 96.4157 49.9458 96.3206 50.11C96.5837 49.7856 96.8462 49.4613 97.1094 49.137C97.2045 48.9734 97.3116 48.818 97.4302 48.6719Z" fill="#0078E5"/>
<path d="M96.6731 51.5117C96.3838 51.8689 96.0938 52.2261 95.8046 52.5833C95.8213 52.783 95.8501 52.9874 95.8916 53.1951C95.8923 53.1971 95.8923 53.1985 95.8929 53.2005C96.1822 52.8433 96.4722 52.4861 96.7615 52.1289C96.732 51.9446 96.6918 51.698 96.6731 51.5117Z" fill="#0078E5"/>
<path d="M107.146 56.5586C106.336 57.5584 105.001 58.1267 103.368 58.0128C103.134 57.9967 102.901 57.9666 102.67 57.9243C102.142 58.0825 101.407 58.2849 100.405 58.4491C101.103 58.7459 101.839 58.9336 102.58 58.9858C104.213 59.0998 105.548 58.5315 106.358 57.5316L107.146 56.5586Z" fill="#032E81"/>
<path d="M101.209 47.2176C98.1119 47.0011 96.0842 49.2407 96.6802 52.2215C97.2762 55.2023 100.271 57.7944 103.368 58.0108C106.465 58.2273 108.492 55.987 107.896 53.0062C107.299 50.0261 104.306 47.4347 101.209 47.2176Z" fill="#0E53D9"/>
<path d="M107.273 54.5273L107.943 54.784C107.575 56.9365 105.664 58.1756 103.347 58.0134C102.733 57.9705 102.088 57.8284 101.438 57.5785C101.433 57.5765 101.427 57.5745 101.422 57.5724C101.411 57.5684 101.401 57.5644 101.391 57.5604L101.497 56.974C102.074 57.1999 102.666 57.3379 103.246 57.3788C103.961 57.429 104.658 57.3299 105.284 57.0611C106.402 56.58 107.081 55.6471 107.273 54.5273Z" fill="#0078E5"/>
<path d="M101.384 48.1135C101.932 48.1517 102.492 48.283 103.037 48.4961L102.987 48.7702C102.478 48.5712 101.956 48.4492 101.444 48.413C101.444 48.413 101.443 48.413 101.442 48.413C100.811 48.3688 100.197 48.4566 99.6456 48.6932C98.9337 48.9987 98.4235 49.5121 98.1308 50.1447C98.0177 50.3899 97.9366 50.6533 97.8891 50.9287L97.5757 50.8081C97.7572 49.7493 98.3987 48.8674 99.4567 48.4124C100.049 48.1597 100.708 48.0659 101.384 48.1135Z" fill="#0078E5"/>
<path d="M103.1 56.655C103.708 56.6972 104.299 56.6134 104.83 56.3849C105.516 56.0907 106.006 55.5968 106.288 54.9877C106.569 54.3785 106.642 53.6547 106.491 52.9002C106.374 52.3151 106.123 51.7127 105.731 51.1297C105.224 50.3778 104.553 49.7639 103.812 49.3236C103.07 48.8834 102.259 48.6173 101.475 48.563C100.867 48.5208 100.276 48.6046 99.7448 48.8331C99.059 49.1273 98.5689 49.6212 98.287 50.2303C98.0057 50.8395 97.9327 51.5633 98.0834 52.3178C98.2006 52.9029 98.4517 53.5053 98.8441 54.0883C99.3503 54.8402 100.022 55.4541 100.763 55.8943C101.505 56.3346 102.316 56.6007 103.1 56.655ZM101.442 48.4056C101.442 48.4056 101.443 48.4056 101.444 48.4056C101.955 48.4411 102.478 48.5637 102.987 48.7627C103.288 48.8807 103.584 49.0261 103.871 49.1963C104.641 49.6534 105.34 50.292 105.865 51.0727C106.273 51.6778 106.534 52.3051 106.655 52.9129C106.812 53.697 106.736 54.4489 106.445 55.0821C106.152 55.7148 105.642 56.2281 104.93 56.5343C104.378 56.7716 103.763 56.8587 103.131 56.8144C102.316 56.7575 101.474 56.4814 100.704 56.0237C99.9336 55.5667 99.2352 54.928 98.7095 54.1473C98.3024 53.5422 98.0405 52.9149 97.9193 52.3071C97.8236 51.8266 97.8142 51.3589 97.8892 50.9226C97.9367 50.6465 98.0171 50.3838 98.1309 50.1385C98.4236 49.5059 98.9338 48.9926 99.6457 48.687C100.197 48.4491 100.811 48.3613 101.442 48.4056Z" fill="#0078E5"/>
<path d="M103.489 53.1179C103.485 53.138 103.48 53.1578 103.473 53.1773C103.444 53.2625 103.398 53.3331 103.352 53.3909C103.267 53.4941 103.176 53.5732 103.08 53.6451C102.988 53.7142 102.89 53.7747 102.794 53.8377C102.786 53.8433 102.782 53.8447 102.774 53.8309C102.587 53.5156 102.399 53.2006 102.213 52.8858C102.21 52.8805 102.206 52.8756 102.207 52.8708C102.208 52.8684 102.209 52.8655 102.213 52.8634C102.343 52.7741 102.469 52.6796 102.609 52.607C102.72 52.5495 102.836 52.5008 102.966 52.49C103.05 52.483 103.135 52.493 103.222 52.5412C103.418 52.6503 103.531 52.9029 103.489 53.1179ZM102.517 51.8211C102.512 51.8491 102.504 51.8765 102.493 51.9031C102.467 51.9626 102.434 52.0146 102.395 52.0615C102.303 52.175 102.19 52.259 102.073 52.3363C102.033 52.3628 101.992 52.3873 101.952 52.4138C101.942 52.4208 101.937 52.4201 101.928 52.4054C101.761 52.1221 101.592 51.8391 101.423 51.5557C101.42 51.5496 101.416 51.544 101.417 51.5385C101.417 51.5361 101.419 51.5333 101.423 51.5311C101.534 51.4531 101.644 51.3712 101.766 51.3108C101.861 51.2636 101.96 51.2272 102.072 51.227C102.162 51.2266 102.249 51.2531 102.331 51.3254C102.48 51.455 102.55 51.6507 102.517 51.8211ZM100.114 51.7004C100.113 51.7046 100.115 51.7102 100.12 51.718C100.207 51.8641 100.295 52.0102 100.381 52.1568C100.389 52.1705 100.394 52.1712 100.403 52.1645C100.459 52.1256 100.515 52.0872 100.571 52.049C100.615 52.0197 100.66 51.9891 100.713 51.9771C100.812 51.9541 100.905 52.0319 100.946 52.0985C101.111 52.3768 101.276 52.6549 101.441 52.9324C101.665 53.3098 101.89 53.6874 102.114 54.0648C102.142 54.113 102.153 54.1678 102.144 54.2142C102.14 54.2331 102.133 54.2506 102.123 54.2659C102.11 54.2867 102.091 54.3009 102.072 54.3131C102.001 54.3604 101.93 54.4075 101.858 54.4531C101.852 54.4566 101.849 54.4609 101.848 54.4652C101.847 54.4702 101.849 54.4764 101.853 54.4851C101.93 54.6613 102.007 54.838 102.083 55.0153C102.091 55.0328 102.094 55.035 102.107 55.0262C102.319 54.8857 102.53 54.7431 102.744 54.6057C102.757 54.5982 102.761 54.6007 102.77 54.616C102.908 54.8481 103.046 55.0797 103.183 55.3112C103.193 55.3288 103.199 55.3317 103.212 55.3229C103.311 55.2562 103.41 55.1901 103.509 55.1249C103.516 55.1209 103.519 55.1173 103.52 55.1124C103.521 55.1068 103.519 55.1004 103.513 55.0911C103.376 54.8631 103.241 54.6348 103.105 54.4062C103.1 54.397 103.097 54.3912 103.098 54.3863C103.099 54.3821 103.102 54.379 103.107 54.3753C103.185 54.3261 103.263 54.2763 103.34 54.2249C103.354 54.2157 103.361 54.2157 103.373 54.2364C103.508 54.4639 103.642 54.6908 103.777 54.9183C103.787 54.9351 103.792 54.936 103.804 54.9277C103.904 54.8605 104.005 54.7943 104.105 54.728C104.11 54.7243 104.113 54.7212 104.114 54.717C104.115 54.7121 104.113 54.7064 104.108 54.6986C104.065 54.628 104.023 54.5571 103.982 54.4862C103.886 54.3256 103.79 54.1644 103.695 54.0038C103.69 53.9962 103.686 53.9899 103.687 53.9837C103.688 53.9807 103.69 53.9775 103.694 53.9741C103.787 53.9032 103.874 53.827 103.956 53.7423C104.054 53.6406 104.142 53.5286 104.206 53.3914C104.237 53.324 104.26 53.2538 104.275 53.1799C104.3 53.0486 104.296 52.9068 104.257 52.753C104.189 52.4867 104.065 52.246 103.889 52.0363C103.775 51.9003 103.642 51.812 103.492 51.7763C103.364 51.7459 103.244 51.7575 103.128 51.7873C103.122 51.789 103.116 51.7933 103.107 51.7894C103.11 51.7806 103.113 51.7731 103.116 51.7657C103.135 51.7198 103.149 51.6728 103.158 51.6244C103.186 51.4809 103.172 51.3276 103.109 51.163C103.062 51.0392 102.996 50.9275 102.917 50.8223C102.819 50.6906 102.704 50.5893 102.569 50.5305C102.437 50.4734 102.31 50.4642 102.184 50.4788C102.017 50.4984 101.866 50.5588 101.72 50.63C101.697 50.6413 101.697 50.6413 101.68 50.6122C101.545 50.3859 101.411 50.1592 101.276 49.9329C101.267 49.9176 101.261 49.9147 101.25 49.9226C101.15 49.9897 101.05 50.0567 100.949 50.1223C100.944 50.126 100.94 50.1295 100.94 50.1339C100.939 50.1388 100.941 50.1444 100.946 50.1536C101.079 50.3763 101.211 50.5998 101.344 50.8231C101.349 50.8315 101.351 50.8371 101.35 50.8415C101.349 50.845 101.346 50.8488 101.341 50.8524C101.263 50.9049 101.186 50.9581 101.11 51.0122C101.098 51.0205 101.092 51.0196 101.082 51.0022C100.95 50.7772 100.815 50.553 100.683 50.3285C100.674 50.3132 100.668 50.3104 100.656 50.3189C100.558 50.3851 100.459 50.4505 100.361 50.5154C100.351 50.5218 100.346 50.525 100.345 50.5292C100.345 50.5342 100.348 50.5409 100.356 50.554C100.491 50.7809 100.626 51.008 100.762 51.2351C100.767 51.2435 100.77 51.2501 100.768 51.2549C100.767 51.259 100.764 51.2627 100.759 51.2664C100.688 51.3125 100.62 51.3618 100.55 51.4071C100.406 51.499 100.265 51.5949 100.123 51.6891C100.118 51.6937 100.115 51.6968 100.114 51.7004Z" fill="#EAF1F4"/>
<path opacity="0.5" d="M106.059 57.4606L105.2 56.1994C105.2 56.1994 105.016 56.3093 104.881 56.3663L100.65 48.6892C100.65 48.6892 100.75 48.5773 100.988 48.5605L100.266 47.2276C100.266 47.2276 100.897 47.166 101.455 47.2383L102.064 48.6463C102.064 48.6463 101.943 48.6704 101.833 48.7381L105.795 55.7223L105.873 55.6352L106.501 57.1738C106.502 57.1738 106.316 57.3252 106.059 57.4606Z" fill="white"/>
<path d="M174.188 41.7353C183.699 41.7353 191.409 34.0251 191.409 24.5141C191.409 15.0031 183.699 7.29297 174.188 7.29297C164.677 7.29297 156.967 15.0031 156.967 24.5141C156.967 34.0251 164.677 41.7353 174.188 41.7353Z" fill="#E6E6E6"/>
<path d="M172.494 14.6321C173.585 14.6321 174.47 13.7473 174.47 12.6559C174.47 11.5645 173.585 10.6797 172.494 10.6797C171.402 10.6797 170.518 11.5645 170.518 12.6559C170.518 13.7473 171.402 14.6321 172.494 14.6321Z" fill="#CBCBCB"/>
<path d="M175.881 34.3938C176.973 34.3938 177.858 33.509 177.858 32.4176C177.858 31.3262 176.973 30.4414 175.881 30.4414C174.79 30.4414 173.905 31.3262 173.905 32.4176C173.905 33.509 174.79 34.3938 175.881 34.3938Z" fill="#CBCBCB"/>
<path d="M183.504 22.8192C184.284 22.8192 184.916 22.1873 184.916 21.4077C184.916 20.6281 184.284 19.9961 183.504 19.9961C182.725 19.9961 182.093 20.6281 182.093 21.4077C182.093 22.1873 182.725 22.8192 183.504 22.8192Z" fill="#CBCBCB"/>
<path d="M167.412 30.4442C169.907 30.4442 171.929 28.4219 171.929 25.9272C171.929 23.4325 169.907 21.4102 167.412 21.4102C164.917 21.4102 162.895 23.4325 162.895 25.9272C162.895 28.4219 164.917 30.4442 167.412 30.4442Z" fill="#CBCBCB"/>
<path d="M190.562 61.2166C192.121 61.2166 193.385 59.9526 193.385 58.3935C193.385 56.8343 192.121 55.5703 190.562 55.5703C189.002 55.5703 187.739 56.8343 187.739 58.3935C187.739 59.9526 189.002 61.2166 190.562 61.2166Z" fill="#0E53D9"/>
<path d="M156.967 65.4464C157.902 65.4464 158.66 64.688 158.66 63.7525C158.66 62.817 157.902 62.0586 156.967 62.0586C156.031 62.0586 155.273 62.817 155.273 63.7525C155.273 64.688 156.031 65.4464 156.967 65.4464Z" fill="#E6E6E6"/>
<path d="M22.6939 131.388C23.6294 131.388 24.3878 130.629 24.3878 129.694C24.3878 128.758 23.6294 128 22.6939 128C21.7584 128 21 128.758 21 129.694C21 130.629 21.7584 131.388 22.6939 131.388Z" fill="#E6E6E6"/>
<path d="M126.759 164.259C127.694 164.259 128.453 163.5 128.453 162.565C128.453 161.629 127.694 160.871 126.759 160.871C125.823 160.871 125.065 161.629 125.065 162.565C125.065 163.5 125.823 164.259 126.759 164.259Z" fill="#E6E6E6"/>
<path d="M153.297 114.014L152.451 114.853L151.612 114.008L151.048 114.568L151.888 115.413L151.042 116.253L151.602 116.817L152.447 115.977L153.287 116.822L153.851 116.262L153.011 115.417L153.856 114.577L153.297 114.014Z" fill="#0E53D9"/>
<path d="M77.2546 143.006L76.4091 143.846L75.5695 143L75.0057 143.56L75.8455 144.405L75 145.245L75.5599 145.809L76.4052 144.969L77.245 145.814L77.8088 145.255L76.9689 144.409L77.8145 143.57L77.2546 143.006Z" fill="#E6E6E6"/>
<path d="M69.2546 85.0057L68.4091 85.8453L67.5695 85L67.0057 85.5596L67.8455 86.4052L67 87.245L67.5599 87.8085L68.4052 86.9689L69.245 87.8142L69.8088 87.2546L68.9689 86.4091L69.8145 85.5692L69.2546 85.0057Z" fill="#E6E6E6"/>
<path d="M195.644 40.3338L194.798 41.1734L193.959 40.3281L193.395 40.8877L194.235 41.7333L193.389 42.5731L193.949 43.1366L194.795 42.2971L195.634 43.1424L196.198 42.5827L195.358 41.7372L196.204 40.8974L195.644 40.3338Z" fill="#E6E6E6"/>
<path d="M129.018 63.7635L128.172 64.6034L127.333 63.7578L126.769 64.3177L127.609 65.163L126.763 66.0028L127.323 66.5666L128.169 65.7268L129.008 66.5723L129.572 66.0124L128.732 65.1669L129.578 64.3273L129.018 63.7635Z" fill="#E6E6E6"/>
<path opacity="0.8" d="M134.882 105.625L143.46 95.5825L152.038 85.5404L156.88 79.8715C157.148 79.5578 156.734 79.0685 156.466 79.3822L147.889 89.4242L139.311 99.4663L134.468 105.135C134.2 105.449 134.614 105.938 134.882 105.625Z" fill="url(#paint0_linear_3435_16202)"/>
<path opacity="0.8" d="M119.637 141.761L128.215 131.719L136.792 121.677L141.635 116.008C141.903 115.695 141.489 115.205 141.221 115.519L132.643 125.561L124.066 135.603L119.223 141.272C118.955 141.586 119.369 142.075 119.637 141.761Z" fill="url(#paint1_linear_3435_16202)"/>
<path d="M206.112 140.965L220.942 162.152C221.893 163.51 221.948 165.301 221.087 166.715L209.659 185.459C208.841 186.8 207.385 187.618 205.818 187.618H196.829L194.684 187.218C194.161 187.123 193.883 186.544 194.128 186.071L194.539 185.281C194.656 185.053 194.878 184.897 195.134 184.864L198.152 184.463L195.99 184.753L196.93 182.499C197.096 182.099 197.452 181.81 197.88 181.732L199.853 181.37C200.215 181.303 200.52 181.058 200.665 180.713L207.329 164.617L186.963 152.543L206.112 140.965Z" fill="white"/>
<path d="M221.087 166.715L216.357 174.471C213.305 175.049 209.558 174.003 207.852 173.43C207.357 173.263 207.124 172.701 207.352 172.234L209.864 167.132L206.801 165.891L207.329 164.617L191.849 155.442L189.448 151.041L206.112 140.965L220.942 162.152C221.893 163.51 221.948 165.301 221.087 166.715Z" fill="#0078E5"/>
<path d="M209.864 146.328C207.919 147.041 205.968 163.805 205.968 163.805H205.962L186.963 152.543L206.112 140.965L209.864 146.328Z" fill="black"/>
<path d="M200.342 137.914H188.525C181.56 137.914 175.785 143.244 175.134 150.182C174.695 154.867 174.784 159.441 174.934 162.479C175.045 164.643 173.911 166.657 172.049 167.764C159.454 175.248 163.984 185.268 163.984 185.268L151.194 198.833C148.859 201.309 147.042 204.225 145.835 207.407L136.086 233.252C135.541 234.698 134.457 235.878 133.062 236.545L129.377 238.304C128.376 238.782 128.554 240.257 129.638 240.485L143.818 243.456C145.13 243.729 146.447 243.039 146.969 241.803L156.241 219.887C152.772 220.421 149.148 220.11 145.835 220.11C149.148 220.11 152.767 220.416 156.241 219.887L159.226 212.832C159.226 212.832 180.548 198.321 192.243 183.688C200.07 173.896 204.839 156.72 207.14 146.421C208.13 142.054 204.811 137.914 200.342 137.914Z" fill="white"/>
<path d="M195.545 187.375L195.862 191.203C195.896 191.581 196.207 191.871 196.585 191.871C196.941 191.871 197.241 191.615 197.302 191.27L197.93 187.62H196.835L195.545 187.375Z" fill="black"/>
<path d="M198.519 187.613V192.504C198.519 192.96 198.891 193.333 199.347 193.333C199.742 193.333 200.081 193.055 200.159 192.665L200.759 189.622L201.343 191.308C201.46 191.642 201.771 191.864 202.127 191.864C202.504 191.864 202.838 191.608 202.932 191.241L203.283 189.895L203.566 189.744C204.305 189.349 204.828 188.637 204.978 187.814L205.017 187.613H198.519Z" fill="black"/>
<path d="M173.011 190.474L144.363 174.973L137.331 200.84C136.998 202.064 136.019 203.009 134.785 203.304L120.216 206.754C119.283 206.977 118.616 205.864 119.249 205.146L123.224 200.617C123.913 199.832 124.38 198.876 124.574 197.852L129.977 169.259C131.428 161.569 139.604 157.196 146.803 160.251L171.51 170.756" fill="white"/>
<path d="M173.011 190.471L163.79 185.485L163.806 185.469L173.006 190.421L173.011 190.471Z" fill="#0078E5"/>
<path d="M173.011 190.469L163.789 185.484L157.108 181.867L163.806 185.467L173.005 190.419L173.011 190.469Z" fill="#0078E5"/>
<path d="M195.99 184.753L198.447 184.403L196.524 183.457L195.99 184.753Z" fill="black"/>
<path d="M215.617 175.679L209.658 185.455C208.841 186.796 207.385 187.613 205.817 187.613H196.829L195.356 187.341C195.017 187.28 194.834 186.912 194.989 186.601L195.423 185.722C195.501 185.566 195.645 185.466 195.812 185.438L202.655 184.492C202.971 184.448 203.16 184.114 203.033 183.819L202.538 182.667C202.416 182.378 202.427 182.05 202.566 181.771L205.934 175.173C206.223 174.605 206.873 174.327 207.485 174.516C208.936 174.972 211.837 175.679 215.617 175.679Z" fill="#0078E5"/>
<path opacity="0.15" d="M180.02 140.962L179.203 115.485C179.092 112.041 181.621 109.081 185.034 108.652C189.242 108.124 193.477 107.918 197.719 108.029L198.586 108.052C202.171 108.146 205.034 111.067 205.067 114.656L205.306 139.983C205.306 139.983 192.182 147.722 180.02 140.962Z" fill="#0078E5"/>
<path d="M186.774 128.835L186.084 127.833C185.862 127.51 186.012 127.071 186.385 126.948L188.903 126.125L186.774 128.835Z" fill="white"/>
<path d="M189.748 133.108C189.025 132.98 187.869 132.852 186.735 132.746C185.251 132.601 184.495 130.882 185.395 129.691L188.747 125.246C190.115 123.432 192.471 122.664 194.645 123.332C197.48 124.2 198.614 127.605 196.868 130.003L196.373 130.682L197.285 137.915H190.159L189.748 133.108Z" fill="#FFA500"/>
<path d="M196.373 130.68L197.285 137.913H190.159L189.748 133.106C189.025 132.978 187.869 132.85 186.735 132.738C186.185 132.683 185.729 132.416 185.434 132.032C186.502 130.608 189.253 127.074 190.37 127.097C191.771 127.13 191.849 125.01 189.375 124.543C190.77 123.241 192.777 122.757 194.645 123.324C196.557 123.909 197.696 125.656 197.696 127.469C197.696 128.337 197.435 129.222 196.868 130.001L196.373 130.68Z" fill="black"/>
<path d="M190.487 130.308C190.759 130.442 191.087 130.331 191.221 130.064L192.199 128.1C192.332 127.827 192.221 127.499 191.954 127.365C191.682 127.232 191.354 127.343 191.221 127.61L190.242 129.574C190.103 129.847 190.215 130.175 190.487 130.308Z" fill="#FFA500"/>
<path d="M146.13 220.111L142.762 230.432C141.967 232.869 140.155 234.844 137.792 235.84L128.788 239.651C128.893 240.041 129.182 240.38 129.655 240.48L143.834 243.452C145.146 243.724 146.464 243.034 146.986 241.799L156.258 219.883C152.884 220.406 149.365 220.128 146.13 220.111Z" fill="black"/>
<path d="M183.544 193.095L169.009 187.965L154.14 203.7C153.012 204.896 153.301 206.827 154.729 207.639L155.035 207.811L151.539 209.336C150.138 209.948 149.065 211.127 148.593 212.58L146.13 220.108C149.371 220.124 152.884 220.397 156.258 219.879L159.243 212.824C159.243 212.824 172.272 203.956 183.544 193.095Z" fill="#0078E5"/>
<path d="M196.29 131.453C196.563 131.587 196.89 131.475 197.024 131.208L198.002 129.244C198.136 128.972 198.024 128.643 197.758 128.51C197.485 128.376 197.157 128.487 197.024 128.755L196.046 130.719C195.907 130.991 196.018 131.319 196.29 131.453Z" fill="black"/>
<path d="M134.541 180.573L131.539 196.441L119.171 206.351C119.383 206.662 119.766 206.857 120.211 206.751L134.78 203.302C136.014 203.012 136.992 202.066 137.325 200.842L142.234 182.793C139.999 181.174 137.086 180.389 134.541 180.573Z" fill="black"/>
<path d="M203.116 138.482C201.971 138.049 200.759 137.843 199.536 137.865L197.285 137.909H190.159L196.918 139.128L189.448 139.912L177.958 162.413L179.514 169.229C177.869 169.557 176.602 170.876 176.335 172.534L176.318 172.656L175.307 179.644C175.101 181.052 173.617 181.875 172.316 181.302L163.678 177.508L143.907 168.811C143.123 168.466 142.278 169.145 142.439 169.985L142.784 171.744L139.91 171.226C137.981 170.881 136.136 172.15 135.775 174.075L134.546 180.568C137.092 180.384 140.005 181.169 142.239 182.788L144.362 174.971L156.436 181.503L157.108 181.864L163.806 185.464L173.005 190.416L181.527 195.001C185.395 191.412 189.164 187.551 192.26 183.678C200.086 173.886 204.856 156.71 207.157 146.411C207.918 143.023 206.079 139.762 203.116 138.482Z" fill="#0078E5"/>
<path d="M180.02 140.962L179.203 115.485C179.092 112.041 181.621 109.081 185.034 108.652C189.242 108.124 193.477 107.918 197.719 108.029L198.586 108.052C202.171 108.146 205.034 111.067 205.067 114.656L205.306 139.983C205.306 139.983 192.182 147.722 180.02 140.962Z" stroke="white" stroke-width="2" stroke-miterlimit="10"/>
<path d="M186.685 155.739L175.429 167.907C174.4 169.02 172.672 169.087 171.56 168.069C171.721 167.963 171.888 167.863 172.06 167.763C173.917 166.655 175.051 164.641 174.945 162.477C174.84 160.363 174.762 157.503 174.873 154.376C179.325 153.463 184.422 152.423 184.678 152.384C185.134 152.312 186.685 155.739 186.685 155.739Z" fill="black"/>
<path d="M182.811 139.254L159.787 150.665L139.393 132.649C139.054 132.354 138.537 132.404 138.265 132.761C138.087 132.989 138.054 133.3 138.181 133.562L139.627 136.611L136.881 139.916C136.33 140.578 136.03 141.407 136.03 142.269V145.012C136.03 145.658 136.436 146.236 137.042 146.459L138.954 147.16L155.496 164.119C157.758 166.439 161.199 167.151 164.195 165.921L190.003 155.333C193.928 153.764 196.184 149.625 195.378 145.468C194.272 139.743 188.025 136.655 182.811 139.254Z" fill="white"/>
<path d="M183.306 151.879C185.943 151.879 188.08 149.739 188.08 147.1C188.08 144.46 185.943 142.32 183.306 142.32C180.668 142.32 178.531 144.46 178.531 147.1C178.531 149.739 180.668 151.879 183.306 151.879Z" fill="#0078E5"/>
<path d="M146.486 147.902L146.275 147.701C146.158 147.59 146.13 147.412 146.208 147.273C146.692 146.4 148.515 143.551 151.75 143.551L152.489 144.218C149.732 144.218 147.625 146.744 147.036 147.818C146.931 148.024 146.658 148.063 146.486 147.902Z" fill="#414659"/>
<path d="M145.936 154.311L138.96 147.161L137.042 146.455C136.436 146.232 136.036 145.654 136.036 145.008V144.535L140.699 145.309C141.539 145.448 142.323 145.826 142.956 146.405L144.807 148.085C145.313 148.541 145.574 149.209 145.508 149.882C145.374 151.273 145.263 153.621 145.936 154.311Z" fill="#0078E5"/>
<path d="M195.229 149.48C195.229 149.492 195.223 149.503 195.223 149.508C194.506 152.09 192.627 154.282 190.009 155.328L164.201 165.916C161.205 167.146 157.764 166.434 155.502 164.114L147.792 156.213L147.787 156.207C145.986 154.349 146.603 149.748 146.603 149.748L158.303 162.077C159.165 163.001 160.505 163.301 161.677 162.834L180.193 155.467C180.876 155.195 181.61 155.067 182.338 155.156C182.655 155.195 182.978 155.211 183.306 155.211C185.79 155.211 188.019 154.087 189.509 152.318C190.004 151.728 190.659 151.3 191.371 151.016L195.229 149.48Z" fill="#0078E5"/>
<path d="M134.463 197.095C133.985 195.954 132.545 195.587 131.583 196.366L131.55 196.388L131.539 196.433L124.658 201.947L119.188 206.359C119.399 206.659 119.777 206.843 120.211 206.743L134.78 203.293C134.785 203.293 134.796 203.288 134.802 203.288C135.886 203.026 136.442 201.802 136.008 200.773L134.463 197.095Z" fill="black"/>
<path d="M185.236 114.747C185.968 113.272 185.813 111.703 184.889 111.244C183.965 110.785 182.623 111.608 181.891 113.083C181.158 114.558 181.314 116.126 182.237 116.586C183.161 117.045 184.504 116.222 185.236 114.747Z" fill="white"/>
<defs>
<linearGradient id="paint0_linear_3435_16202" x1="134.382" y1="92.5034" x2="156.967" y2="92.5034" gradientUnits="userSpaceOnUse">
<stop stop-color="white"/>
<stop offset="1" stop-color="white" stop-opacity="0.3"/>
</linearGradient>
<linearGradient id="paint1_linear_3435_16202" x1="119.136" y1="128.64" x2="141.722" y2="128.64" gradientUnits="userSpaceOnUse">
<stop stop-color="white"/>
<stop offset="1" stop-color="white" stop-opacity="0.3"/>
</linearGradient>
</defs>
</svg>
