<svg width="314" height="227" viewBox="0 0 314 227" fill="none" xmlns="http://www.w3.org/2000/svg">
<path opacity="0.15" d="M255.454 151.555V75.4455C255.454 62.0864 248.333 49.7487 236.777 43.0652L170.917 5.00664C159.36 -1.66888 145.119 -1.66888 133.555 5.00664L67.6951 43.0652C56.1385 49.7407 49.0181 62.0864 49.0181 75.4455V151.555C49.0181 164.914 56.1385 177.251 67.6951 183.935L133.555 221.993C145.111 228.669 159.352 228.669 170.917 221.993L236.777 183.935C248.333 177.251 255.454 164.906 255.454 151.555Z" fill="#0078E5"/>
<path d="M214.164 102.7C216.993 88.534 214.895 75.7676 209.012 65.6719C209.293 66.0258 209.671 66.4924 209.96 66.8383C210.105 67.0153 210.29 67.2486 210.435 67.4255C210.716 67.7795 211.094 68.2461 211.383 68.592C211.664 68.9459 212.042 69.4125 212.331 69.7584C212.476 69.9354 212.661 70.1687 212.805 70.3457C213.087 70.6996 213.464 71.1662 213.754 71.5121C214.035 71.866 214.413 72.3326 214.702 72.6785C214.847 72.8555 215.032 73.0888 215.176 73.2658C215.458 73.6197 215.835 74.0863 216.125 74.4322C216.406 74.7862 216.784 75.2527 217.073 75.5986C217.218 75.7756 217.402 76.0089 217.547 76.1859C217.828 76.5398 218.206 77.0064 218.495 77.3523C223.341 85.6702 225.616 95.8061 224.692 107.044C221.22 102.756 217.74 98.4688 214.268 94.1812C213.987 96.4095 213.617 99.3779 213.215 101.59C213.497 101.944 213.874 102.411 214.164 102.757C214.308 102.933 214.493 103.167 214.638 103.344C214.919 103.698 215.297 104.164 215.586 104.51C215.731 104.687 215.916 104.92 216.06 105.097C216.342 105.451 216.719 105.918 217.009 106.264C217.153 106.441 217.338 106.674 217.483 106.851C217.764 107.205 218.142 107.672 218.431 108.018C218.576 108.194 218.761 108.428 218.905 108.605C219.186 108.959 219.564 109.425 219.854 109.771C219.998 109.948 220.183 110.181 220.328 110.358C220.609 110.712 220.987 111.179 221.276 111.525C221.421 111.702 221.606 111.935 221.75 112.112C222.031 112.466 222.409 112.933 222.698 113.279C222.843 113.456 223.028 113.689 223.173 113.866C223.317 114.043 223.51 114.284 223.655 114.469C218.19 141.659 196.113 166.138 169.512 177.457C163.469 176.451 154.074 174.705 142.325 171.158C176.335 164.875 207.55 135.779 214.164 102.7Z" fill="#0747A3"/>
<path d="M205.161 60.0898L214.628 71.7703C216.051 73.524 217.337 75.3822 218.478 77.3531C215.319 73.4596 212.169 69.5661 209.011 65.6726C207.869 63.7098 206.584 61.8435 205.161 60.0898Z" fill="#0078E5"/>
<path d="M214.251 94.1797C217.723 98.4673 221.203 102.755 224.674 107.043C224.474 109.44 224.128 111.893 223.63 114.387C223.622 114.411 223.622 114.427 223.614 114.452C220.142 110.164 216.662 105.876 213.19 101.589C213.544 99.3764 214.026 96.416 214.251 94.1797Z" fill="#0078E5"/>
<path d="M88.5581 154.75C98.2824 166.752 114.307 173.574 133.9 172.206C136.705 172.013 139.502 171.651 142.275 171.144C148.615 173.043 157.44 175.472 169.462 177.443C161.08 181.007 152.256 183.259 143.359 183.887C123.766 185.254 107.741 178.433 98.0171 166.43L88.5581 154.75Z" fill="#231F20"/>
<path d="M159.811 42.6384C196.98 40.0401 221.315 66.9244 214.163 102.706C207.01 138.487 171.07 169.603 133.901 172.201C96.7321 174.8 72.4054 147.907 79.558 112.126C86.7186 76.3524 122.642 45.2448 159.811 42.6384Z" fill="#0E53D9"/>
<path d="M87.0395 130.383L78.9949 133.464C83.415 159.302 106.351 174.176 134.15 172.23C141.527 171.715 149.259 170.009 157.062 167.009C157.126 166.985 157.191 166.961 157.255 166.936C157.384 166.888 157.504 166.84 157.633 166.792L156.355 159.753C149.435 162.464 142.331 164.121 135.371 164.612C126.78 165.215 118.422 164.024 110.908 160.799C97.487 155.023 89.346 143.825 87.0395 130.383Z" fill="#0078E5"/>
<path d="M157.715 53.358C151.133 53.8165 144.422 55.3932 137.88 57.9513L138.475 61.2415C144.583 58.8523 150.851 57.3882 156.991 56.9538C156.999 56.9538 157.007 56.9538 157.015 56.9538C164.586 56.4229 171.963 57.4767 178.578 60.3164C187.12 63.9846 193.244 70.1466 196.756 77.7405C198.114 80.6848 199.087 83.8462 199.658 87.1525L203.419 85.7045C201.241 72.9944 193.542 62.4079 180.844 56.9458C173.74 53.9131 165.832 52.7869 157.715 53.358Z" fill="#0078E5"/>
<path d="M137.116 155.983C129.819 156.49 122.723 155.484 116.35 152.741C108.12 149.21 102.237 143.281 98.8539 135.969C95.4785 128.656 94.6025 119.968 96.4108 110.91C97.8172 103.888 100.831 96.6557 105.54 89.6571C111.616 80.6313 119.677 73.2626 128.573 67.9774C137.47 62.6923 147.202 59.4986 156.613 58.847C163.91 58.3402 171.006 59.3458 177.379 62.0889C185.609 65.6204 191.492 71.5491 194.875 78.8615C198.25 86.1738 199.126 94.8618 197.318 103.92C195.912 110.943 192.898 118.174 188.188 125.173C182.113 134.199 174.052 141.567 165.156 146.853C156.259 152.138 146.527 155.331 137.116 155.983ZM157.015 56.9566C157.007 56.9566 156.999 56.9566 156.99 56.9566C150.851 57.383 144.582 58.8551 138.474 61.2443C134.858 62.6601 131.298 64.4057 127.858 66.449C118.616 71.9353 110.234 79.6016 103.925 88.9733C99.0307 96.2374 95.8964 103.767 94.4418 111.063C92.5612 120.475 93.4694 129.501 96.9733 137.103C100.485 144.697 106.609 150.859 115.152 154.535C121.774 157.383 129.152 158.429 136.738 157.898C146.519 157.214 156.629 153.9 165.871 148.405C175.113 142.919 183.495 135.253 189.804 125.881C194.69 118.617 197.832 111.087 199.287 103.791C200.436 98.0232 200.549 92.4082 199.649 87.1713C199.078 83.8571 198.114 80.7036 196.747 77.7594C193.235 70.1655 187.112 64.0035 178.569 60.3353C171.955 57.4795 164.585 56.4257 157.015 56.9566Z" fill="#0078E5"/>
<path d="M144.84 124.391C144.574 124.407 144.309 124.407 144.044 124.391C142.879 124.311 141.842 123.981 140.966 123.611C139.391 122.911 138.097 122.058 136.875 121.117C135.702 120.216 134.617 119.219 133.508 118.253C133.412 118.173 133.379 118.125 133.524 117.98C136.843 114.666 140.154 111.343 143.465 108.029C143.522 107.973 143.57 107.908 143.634 107.908C143.666 107.908 143.706 107.916 143.747 107.957C145.298 109.252 146.905 110.491 148.279 111.955C149.372 113.129 150.369 114.384 150.939 115.937C151.309 116.942 151.47 118.02 151.156 119.235C150.449 121.986 147.668 124.198 144.84 124.391ZM157.803 108.262C157.433 108.286 157.063 108.278 156.694 108.23C155.866 108.117 155.102 107.876 154.387 107.562C152.659 106.806 151.229 105.696 149.87 104.522C149.404 104.119 148.962 103.701 148.496 103.299C148.376 103.202 148.368 103.138 148.52 102.977C151.502 100.001 154.475 97.0081 157.457 94.0236C157.521 93.9593 157.578 93.8949 157.65 93.8869C157.682 93.8869 157.722 93.8949 157.762 93.9352C159.113 95.0453 160.503 96.1152 161.668 97.4103C162.576 98.4159 163.364 99.5099 163.742 100.877C164.047 101.971 164.007 103.122 163.38 104.369C162.255 106.605 160.045 108.109 157.803 108.262ZM151.261 78.498C151.205 78.498 151.14 78.5382 151.06 78.6267C149.525 80.1712 147.99 81.7157 146.447 83.2522C146.302 83.397 146.31 83.4614 146.423 83.5418C147.098 84.1049 147.765 84.66 148.432 85.2231C148.946 85.6655 149.477 86.108 149.806 86.7193C150.425 87.8536 149.766 89.2533 149.067 89.9612C146.142 92.8974 143.216 95.8256 140.299 98.7537C136.329 102.728 132.359 106.71 128.389 110.684C127.882 111.19 127.231 111.496 126.621 111.536C126.372 111.552 126.13 111.528 125.905 111.456C125.6 111.359 125.359 111.174 125.142 110.981C124.314 110.273 123.486 109.557 122.675 108.825C122.61 108.761 122.546 108.737 122.49 108.745C122.426 108.753 122.353 108.793 122.257 108.866C120.312 110.386 118.359 111.906 116.398 113.419C116.205 113.572 116.189 113.62 116.342 113.748C118.809 115.88 121.3 117.996 123.736 120.16C123.872 120.289 123.856 120.353 123.695 120.514C121.252 122.951 118.817 125.397 116.382 127.834C116.197 128.019 116.181 128.1 116.334 128.228C117.499 129.218 118.656 130.207 119.806 131.213C119.878 131.277 119.934 131.309 119.999 131.301C120.071 131.293 120.143 131.245 120.24 131.14C122.635 128.727 125.037 126.33 127.44 123.917C127.537 123.82 127.601 123.772 127.665 123.764C127.722 123.764 127.77 123.788 127.834 123.844C128.71 124.633 129.594 125.421 130.494 126.193C130.655 126.33 130.679 126.418 130.462 126.636C128.067 129.025 125.68 131.414 123.285 133.803C123.109 133.98 123.117 134.053 123.261 134.173C124.435 135.171 125.6 136.184 126.765 137.19C126.83 137.246 126.878 137.27 126.934 137.27C126.998 137.262 127.063 137.222 127.143 137.133C127.882 136.377 128.63 135.637 129.377 134.897C131.065 133.2 132.761 131.502 134.448 129.805C134.529 129.725 134.593 129.652 134.673 129.644C134.713 129.644 134.762 129.66 134.818 129.7C136.015 130.601 137.261 131.422 138.595 132.146C140.194 133.007 141.89 133.715 143.819 134.044C144.767 134.205 145.724 134.262 146.696 134.197C148.424 134.077 150.184 133.562 151.976 132.58C155.078 130.875 157.674 128.574 159.707 125.735C161.025 123.892 161.684 121.978 161.628 120.031C161.58 118.366 161.033 116.942 160.27 115.615C160.23 115.55 160.157 115.494 160.173 115.365C160.294 115.373 160.398 115.39 160.503 115.406C161.138 115.478 161.773 115.494 162.408 115.446C164.296 115.317 166.169 114.649 168.017 113.346C169.407 112.365 170.581 111.182 171.634 109.879C172.952 108.246 173.836 106.517 174.117 104.666C174.39 102.872 174.077 101.28 173.474 99.7915C172.67 97.8206 171.409 96.1715 170.026 94.6109C169.809 94.3696 169.809 94.3696 170.115 94.0639C172.493 91.6747 174.88 89.2935 177.259 86.9043C177.42 86.7435 177.436 86.663 177.299 86.5504C176.126 85.5529 174.953 84.5473 173.795 83.5337C173.731 83.4774 173.675 83.4453 173.619 83.4533C173.554 83.4614 173.49 83.5016 173.394 83.5981C171.055 85.9551 168.7 88.296 166.354 90.653C166.265 90.7415 166.201 90.7818 166.145 90.7898C166.096 90.7898 166.04 90.7657 165.976 90.7093C165.06 89.9371 164.135 89.1648 163.203 88.4086C163.058 88.288 163.05 88.2156 163.235 88.0386C165.606 85.6816 167.961 83.3085 170.324 80.9515C170.484 80.7906 170.5 80.7102 170.356 80.5975C169.198 79.6161 168.049 78.6186 166.908 77.6292C166.796 77.5326 166.739 77.4844 166.683 77.4844C166.619 77.4924 166.546 77.5568 166.41 77.7016C164.023 80.0907 161.636 82.488 159.249 84.8852C159.161 84.9737 159.088 85.03 159.024 85.03C158.968 85.03 158.912 85.0059 158.847 84.9496C158.036 84.2417 157.192 83.574 156.388 82.858C154.757 81.402 153.085 79.9942 151.43 78.5623C151.357 78.5221 151.309 78.498 151.261 78.498Z" fill="#EAF1F4"/>
<path opacity="0.5" d="M101.602 165.624L111.913 150.484C111.913 150.484 114.123 151.804 115.738 152.487L166.521 60.3309C166.521 60.3309 165.316 58.9875 162.455 58.7863L171.126 42.7861C171.126 42.7861 163.556 42.046 156.853 42.9148L149.548 59.816C149.548 59.816 151.003 60.1056 152.321 60.9181L104.776 144.757L103.836 143.711L96.2976 162.181C96.2896 162.181 98.5157 163.999 101.602 165.624Z" fill="white"/>
<path d="M264.018 57C267.884 57 271.018 53.6421 271.018 49.5C271.018 45.3579 267.884 42 264.018 42C260.152 42 257.018 45.3579 257.018 49.5C257.018 53.6421 260.152 57 264.018 57Z" fill="#FFA500"/>
<path d="M31.5181 184C38.4216 184 44.0181 178.18 44.0181 171C44.0181 163.82 38.4216 158 31.5181 158C24.6145 158 19.0181 163.82 19.0181 171C19.0181 178.18 24.6145 184 31.5181 184Z" fill="#FFA500"/>
<path d="M247.509 103.424C246.816 103.78 246.117 104.122 245.41 104.472C221.981 116.039 194.669 127.663 167.183 137.778C142.425 146.894 118.17 154.654 95.9938 160.606C95.0283 160.864 94.0699 161.123 93.1185 161.374C79.2248 165.035 66.1847 167.975 54.3968 170.071C43.5183 172.006 31.4366 173.627 21.4536 173.627C10.806 173.627 2.52996 171.789 0.599124 166.55C-4.80163 151.93 27.5181 129.5 49.0178 119V121.5C11.0178 142 -0.660121 157.071 2.56494 165.824C5.06244 172.586 23.8181 173.382 54.026 168.01C65.1843 166.026 77.4689 163.288 90.537 159.886C91.4955 159.635 92.4609 159.383 93.4263 159.125C116.086 153.118 141.005 145.182 166.462 135.808C196.971 124.575 223.604 113.057 245.41 102.201C246.117 101.852 246.816 101.496 247.509 101.147C290.239 79.6527 313.78 60.8971 310.646 52.4169C306.518 43 247.518 52.5 247.518 52.5C247.518 52.5 246.518 51.1117 246.018 50.6117C246.018 50.6117 308.127 39.5499 312.612 51.6904C316.788 63.0066 288.343 83.0755 247.509 103.424Z" fill="#FFA500"/>
<path d="M34.0181 177C37.3318 177 40.0181 174.314 40.0181 171C40.0181 167.686 37.3318 165 34.0181 165C30.7044 165 28.0181 167.686 28.0181 171C28.0181 174.314 30.7044 177 34.0181 177Z" fill="white"/>
</svg>
