<svg width="156" height="224" viewBox="0 0 156 224" fill="none" xmlns="http://www.w3.org/2000/svg">
<path d="M89.3617 43.8105L110.65 5.42803C113.275 0.697228 119.055 -1.28228 124.017 0.862187C134.034 5.19826 143.322 10.8953 151.656 17.7234C156.476 21.6765 156.859 28.9288 152.45 33.3415L133.086 52.7124C102.528 83.2947 52.9882 83.2947 22.4356 52.7124L3.07756 33.3415C-1.33082 28.9288 -0.948243 21.6824 3.87213 17.7234C12.2004 10.8953 21.4939 5.19237 31.5113 0.862187C36.4729 -1.28228 42.2527 0.697228 44.8777 5.42803L66.1662 43.8105C71.2161 52.9186 84.3059 52.9186 89.3617 43.8105Z" fill="#0E53D9"/>
<path d="M144.993 12.6568C148.336 15.0192 149.054 19.697 146.559 22.9432L133.84 39.4803C131.562 42.4437 129.184 45.195 126.724 47.7401C126.659 47.8108 126.583 47.8874 126.5 47.964C122.545 51.9053 117.024 56.7127 110.209 60.9074C96.1477 69.5677 77.6843 64.5836 69.668 50.132L66.1602 43.8046C71.216 52.9186 84.3057 52.9186 89.3615 43.8046L110.644 5.42803C113.269 0.697228 119.049 -1.28228 124.011 0.862187C131.438 4.07889 138.46 8.03792 144.993 12.6568Z" fill="#0078E5"/>
<path d="M111.833 60.2705C113.481 59.0038 114.911 58.0553 116.153 57.3601C119.296 55.5986 122.062 60.1821 119.031 62.1204C111.727 66.7864 97.0364 74.2449 77.7667 74.2449C64.0942 74.2449 51.8461 69.3845 44.1653 65.4431C42.4702 64.5712 43.2354 62.0085 45.1306 62.2088C60.0979 63.7641 73.17 60.2587 86.3598 64.2354C100.209 68.4124 111.833 60.2705 111.833 60.2705Z" fill="#0747A3"/>
<path d="M44.8779 5.42697C48.5682 12.096 66.2017 43.6857 69.48 49.6007C71.0515 52.5818 73.1704 55.2447 75.6659 57.4893C84.3532 65.3543 98.0374 67.7757 108.379 61.8136C121.18 53.707 131.445 42.1245 140.791 30.3299C142.822 27.667 144.905 24.9864 146.712 22.1703C148.484 19.5192 147.913 15.6721 145.399 13.6985L145.282 13.6042L145.223 13.5571L145.193 13.5335C145.264 13.4216 144.999 13.7515 145.341 13.2743C145.706 12.8089 145.458 13.1624 145.547 13.0622L145.576 13.0858L145.641 13.1388C146.1 13.4864 146.565 13.9636 146.93 14.4114C149.531 17.9639 148.378 21.4693 145.888 24.6683C144.452 26.689 142.916 28.8689 141.415 30.8189C133.351 41.4941 116.689 60.5352 104.129 64.9007C94.1175 68.2234 82.6758 65.2895 74.9067 58.32C72.6407 56.2816 70.6513 53.8955 69.1092 51.2621C68.8209 50.779 63.9828 42.0244 63.5708 41.3174C58.8152 32.7925 53.7358 23.2838 49.2156 14.5763C47.9443 12.0018 45.9138 8.10756 44.6954 5.51534C44.6719 5.46821 44.6896 5.4093 44.7366 5.38573C44.8014 5.36806 44.8544 5.38573 44.8779 5.42697Z" fill="#1C92EA"/>
<path d="M145.176 13.5037C138.86 8.87303 132.139 4.73726 125.082 1.33203C132.251 4.5723 139.061 8.53722 145.523 13.0265C145.841 13.2562 145.494 13.7452 145.176 13.5037Z" fill="#1C92EA"/>
<path d="M85.0947 70.4638C85.8245 70.67 85.7421 71.7363 84.9888 71.8188C82.4873 72.1016 79.88 72.2547 77.1843 72.2547C71.587 72.2547 66.2252 71.3828 61.3459 70.0808C60.5749 69.8746 60.6985 68.7435 61.499 68.714C61.7168 68.7081 61.9286 68.6963 62.1464 68.6904C64.8362 68.5962 67.3729 68.5078 69.9037 68.5078C75.913 68.5078 80.445 69.0675 84.5885 70.3165C84.7533 70.3636 84.924 70.4166 85.0947 70.4638Z" fill="#0078E5"/>
<path d="M92.3058 91.4952C89.1353 86.7424 84.9786 83.7589 80.5101 82.5807C80.6877 82.601 80.9239 82.6259 81.1015 82.6417C81.1914 82.6507 81.3084 82.6643 81.3983 82.6733C81.576 82.6937 81.8121 82.7185 81.9897 82.7343C82.1674 82.7546 82.4035 82.7795 82.5811 82.7953C82.6711 82.8044 82.788 82.8179 82.878 82.8269C83.0556 82.8473 83.2917 82.8721 83.4694 82.8879C83.647 82.9083 83.8831 82.9331 84.0608 82.9489C84.1507 82.958 84.2676 82.9715 84.3576 82.9805C84.5352 83.0009 84.7713 83.0257 84.949 83.0415C85.1266 83.0619 85.3628 83.0867 85.5404 83.1025C85.6303 83.1116 85.7473 83.1251 85.8372 83.1342C86.0149 83.1545 86.251 83.1793 86.4286 83.1951C90.11 84.166 93.5806 86.3645 96.4649 89.7658C94.2949 89.5376 92.1227 89.3117 89.9527 89.0836C90.4972 89.7854 91.2239 90.7189 91.7302 91.4499C91.9078 91.4702 92.144 91.4951 92.3216 91.5109C92.4115 91.52 92.5285 91.5335 92.6184 91.5425C92.7961 91.5629 93.0322 91.5877 93.2098 91.6035C93.2998 91.6126 93.4167 91.6261 93.5066 91.6351C93.6843 91.6555 93.9204 91.6803 94.0981 91.6961C94.188 91.7052 94.3049 91.7187 94.3949 91.7278C94.5725 91.7481 94.8086 91.7729 94.9863 91.7888C95.0762 91.7978 95.1932 91.8113 95.2831 91.8204C95.4608 91.8407 95.6969 91.8655 95.8745 91.8814C95.9645 91.8904 96.0814 91.904 96.1713 91.913C96.349 91.9333 96.5851 91.9582 96.7627 91.974C96.8527 91.983 96.9696 91.9966 97.0596 92.0056C97.2372 92.0259 97.4733 92.0508 97.651 92.0666C97.7409 92.0756 97.8578 92.0892 97.9478 92.0982C98.0377 92.1073 98.1592 92.1208 98.2514 92.1321C104.327 101.264 104.999 114.284 100.725 124.888C98.7533 126.297 95.6378 128.436 91.3599 130.73C99.1143 119.462 99.7067 102.595 92.3058 91.4952Z" fill="#0747A3"/>
<path d="M77.8721 82.0977L83.7861 82.7166C84.6743 82.8092 85.5536 82.9693 86.4239 83.2013C84.4518 82.9957 82.482 82.7879 80.5099 82.5824C79.6418 82.3526 78.7603 82.1903 77.8721 82.0977Z" fill="#0078E5"/>
<path d="M89.9476 89.09C92.1175 89.3182 94.2898 89.5441 96.4597 89.7722C97.0739 90.4988 97.6634 91.2816 98.2215 92.1183C98.226 92.1273 98.2305 92.1318 98.235 92.1408C96.065 91.9127 93.8928 91.6868 91.7228 91.4586C91.203 90.7411 90.51 89.7784 89.9476 89.09Z" fill="#0078E5"/>
<path d="M71.7349 141.18C77.8108 141.817 84.2 139.243 89.297 133.381C90.0274 132.543 90.7083 131.659 91.3419 130.742C93.6461 129.5 96.7933 127.711 100.707 124.9C99.3591 128.241 97.5213 131.339 95.2088 134.002C90.1118 139.864 83.7226 142.438 77.6467 141.801L71.7349 141.18Z" fill="#0E3590"/>
<path d="M60.3093 89.9006C69.9773 78.7793 84.301 79.4922 92.3072 91.4988C100.313 103.506 98.9641 122.258 89.2961 133.379C79.628 144.501 65.3043 143.783 57.2981 131.777C49.2965 119.77 50.6434 101.024 60.3093 89.9006Z" fill="#0E53D9"/>
<path d="M64.4958 134.789L63.1077 137.901C71.5697 143.89 82.1436 141.636 89.3733 133.317C91.2925 131.11 92.9777 128.471 94.3209 125.449C94.3322 125.425 94.3434 125.4 94.3546 125.375C94.3771 125.326 94.3973 125.279 94.4197 125.229L92.094 123.618C90.917 126.311 89.3936 128.762 87.5845 130.845C85.3507 133.416 82.6803 135.421 79.6768 136.62C74.3082 138.758 68.9 137.903 64.4958 134.789Z" fill="#0078E5"/>
<path d="M62.7207 93.4854C61.0082 95.4543 59.5724 97.7719 58.4584 100.317L59.5448 101.071C60.5847 98.6943 61.9284 96.5318 63.524 94.6933C63.5262 94.691 63.5285 94.6888 63.5307 94.6865C65.4994 92.4209 67.8573 90.6524 70.5011 89.5968C73.916 88.2336 77.3518 88.2442 80.4577 89.3857C81.6609 89.8292 82.8169 90.4414 83.9011 91.2064L84.548 89.7497C80.3845 86.8043 75.2709 85.9969 70.1923 88.0204C67.3574 89.1591 64.8309 91.0557 62.7207 93.4854Z" fill="#0078E5"/>
<path d="M85.6595 127.946C83.7605 130.128 81.4947 131.832 78.9453 132.847C75.6563 134.161 72.3531 134.148 69.362 133.049C66.3732 131.948 63.6986 129.763 61.6711 126.725C60.1005 124.367 58.9209 121.502 58.2808 118.228C57.4558 114.005 57.6493 109.69 58.6593 105.724C59.6693 101.758 61.4979 98.1429 63.9475 95.3289C65.8465 93.1464 68.1123 91.4431 70.6616 90.428C73.9507 89.1141 77.2538 89.1269 80.245 90.2257C83.2338 91.3266 85.9084 93.5113 87.9358 96.5501C89.5065 98.9073 90.6861 101.773 91.3262 105.047C92.1512 109.27 91.9576 113.585 90.9477 117.551C89.9377 121.517 88.1091 125.132 85.6595 127.946ZM63.5312 94.6879C63.529 94.6901 63.5267 94.6924 63.5245 94.6946C61.9266 96.5309 60.5852 98.6957 59.5453 101.072C58.9298 102.479 58.4224 103.963 58.0319 105.496C56.9815 109.615 56.7812 114.103 57.6378 118.488C58.3005 121.889 59.5296 124.871 61.1633 127.318C63.2694 130.476 66.0475 132.746 69.1533 133.892C72.2591 135.034 75.6949 135.044 79.1121 133.683C81.7604 132.628 84.1161 130.857 86.0893 128.587C88.6332 125.66 90.5338 121.906 91.5819 117.785C92.6322 113.666 92.8325 109.178 91.9759 104.793C91.311 101.395 90.0841 98.4106 88.4505 95.9634C87.1589 94.029 85.6201 92.4273 83.9039 91.2145C82.8174 90.4472 81.6659 89.8351 80.4604 89.3938C77.3546 88.2523 73.9188 88.2417 70.5038 89.6049C67.8555 90.656 65.4999 92.4222 63.5312 94.6879Z" fill="#0078E5"/>
<path d="M78.9847 116.949C78.9151 117.027 78.8409 117.102 78.7622 117.171C78.4138 117.475 78.0317 117.672 77.6832 117.814C77.047 118.059 76.4467 118.182 75.8419 118.26C75.2618 118.337 74.6794 118.361 74.0993 118.401C74.0498 118.406 74.0273 118.401 74.0273 118.32C74.0286 116.465 74.0255 114.61 74.0246 112.757C74.0246 112.726 74.0201 112.694 74.0381 112.676C74.0471 112.667 74.0606 112.658 74.0831 112.658C74.879 112.587 75.675 112.484 76.4687 112.509C77.1028 112.532 77.7325 112.604 78.3262 112.879C78.7108 113.056 79.0572 113.313 79.3092 113.74C79.8808 114.707 79.7219 116.104 78.9847 116.949ZM78.0994 108.813C78.0028 108.923 77.8971 109.024 77.7803 109.114C77.5173 109.314 77.2363 109.46 76.9485 109.573C76.2538 109.844 75.5433 109.934 74.8351 109.985C74.5922 110.003 74.3516 110.01 74.1088 110.028C74.0481 110.034 74.0278 110.019 74.0255 109.931C74.027 108.265 74.0217 106.596 74.0209 104.928C74.0209 104.892 74.0186 104.858 74.0366 104.836C74.0456 104.827 74.0591 104.818 74.0816 104.818C74.7696 104.751 75.4576 104.661 76.1457 104.697C76.6809 104.725 77.2071 104.81 77.6951 105.087C78.0865 105.308 78.397 105.64 78.5704 106.164C78.8811 107.105 78.6837 108.143 78.0994 108.813ZM67.9463 102.319C67.9305 102.335 67.9238 102.364 67.9261 102.411C67.9287 103.272 67.9314 104.133 67.9296 104.995C67.9296 105.076 67.9498 105.091 68.0038 105.082C68.3501 105.051 68.6918 105.02 69.0359 104.991C69.3034 104.971 69.5755 104.946 69.8386 105.025C70.3289 105.169 70.536 105.745 70.5385 106.138C70.5415 107.777 70.5423 109.414 70.5453 111.049C70.5463 113.271 70.5496 115.494 70.5507 117.716C70.5508 117.999 70.4543 118.267 70.2947 118.449C70.2295 118.523 70.1554 118.584 70.0722 118.627C69.9598 118.685 69.8406 118.701 69.726 118.707C69.2965 118.741 68.8648 118.772 68.4331 118.794C68.3971 118.794 68.3724 118.806 68.3589 118.824C68.3431 118.844 68.3342 118.875 68.3274 118.922C68.2087 119.892 68.0878 120.863 67.9623 121.834C67.9511 121.931 67.9601 121.949 68.0388 121.942C69.325 121.848 70.6133 121.743 71.8995 121.667C71.9737 121.665 71.9872 121.688 71.9872 121.778C71.9856 123.143 71.9885 124.507 71.9892 125.87C71.9892 125.974 72.0072 126 72.0859 125.994C72.6885 125.945 73.2889 125.898 73.8915 125.857C73.9297 125.855 73.9544 125.849 73.9701 125.828C73.9881 125.806 73.9949 125.772 73.9926 125.716C73.9874 124.371 73.989 123.029 73.9862 121.682C73.9861 121.628 73.9906 121.596 74.0063 121.576C74.0221 121.561 74.0423 121.554 74.076 121.552C74.5415 121.527 75.0092 121.5 75.4769 121.465C75.5601 121.458 75.5915 121.476 75.5916 121.597C75.59 122.935 75.5906 124.271 75.589 125.609C75.5891 125.708 75.6116 125.726 75.6858 125.719C76.2928 125.67 76.9022 125.627 77.5093 125.583C77.543 125.58 77.5632 125.574 77.579 125.558C77.5947 125.538 77.6014 125.508 77.5992 125.461C77.5945 125.043 77.5965 124.627 77.5986 124.211C77.5959 123.264 77.5954 122.316 77.5927 121.369C77.5927 121.324 77.5904 121.286 77.6107 121.261C77.6219 121.25 77.6399 121.241 77.6669 121.236C78.2537 121.153 78.8315 121.034 79.4071 120.864C80.095 120.657 80.7672 120.381 81.3989 119.934C81.7091 119.714 81.9923 119.462 82.2462 119.172C82.6957 118.655 83.0439 118.019 83.2706 117.243C83.6612 115.899 83.7438 114.529 83.5183 113.167C83.3717 112.283 83.0206 111.563 82.4605 111.034C81.9813 110.582 81.4303 110.337 80.8456 110.179C80.8163 110.173 80.7804 110.177 80.7489 110.136C80.7848 110.105 80.8185 110.08 80.8523 110.056C81.0501 109.898 81.2321 109.725 81.3962 109.534C81.8883 108.97 82.2253 108.26 82.3778 107.378C82.4921 106.715 82.4896 106.056 82.4195 105.397C82.3315 104.572 82.095 103.841 81.6563 103.245C81.231 102.667 80.6979 102.309 80.1132 102.062C79.3373 101.735 78.5232 101.627 77.7002 101.577C77.5721 101.57 77.5721 101.57 77.572 101.399C77.5691 100.066 77.5707 98.7325 77.5678 97.3991C77.5678 97.3091 77.5498 97.2821 77.4801 97.2889C76.873 97.338 76.2636 97.385 75.6565 97.4252C75.6228 97.4274 75.5981 97.4341 75.5846 97.4521C75.5689 97.4723 75.5621 97.5016 75.5622 97.5555C75.5673 98.8687 75.5634 100.182 75.5663 101.497C75.5663 101.547 75.5596 101.576 75.5461 101.594C75.5326 101.607 75.5101 101.616 75.4764 101.619C75.0042 101.659 74.5298 101.701 74.0576 101.751C73.9834 101.757 73.9609 101.739 73.9631 101.638C73.967 100.316 73.9619 98.9939 73.9635 97.6739C73.9634 97.584 73.9454 97.557 73.8735 97.566C73.2754 97.6152 72.6751 97.6576 72.0792 97.7C72.0207 97.7045 71.9915 97.7067 71.9758 97.7225C71.96 97.7427 71.9578 97.7809 71.9601 97.8596C71.9607 99.1953 71.9636 100.533 71.9665 101.871C71.9665 101.921 71.9621 101.957 71.9441 101.974C71.9283 101.99 71.9059 101.999 71.8721 102.001C71.4472 102.03 71.0245 102.08 70.5995 102.104C69.7361 102.153 68.8749 102.227 68.0115 102.29C67.98 102.299 67.9598 102.305 67.9463 102.319Z" fill="#EAF1F4"/>
<path opacity="0.5" d="M78.4239 140.572L77.0736 133.455C77.0736 133.455 78.0606 133.205 78.7036 132.945L67.1337 92.9711C67.1337 92.9711 66.4208 92.9325 65.5645 93.6764L63.515 86.7768C63.515 86.7768 61.1909 88.687 59.5594 90.8044L62.243 97.5738C62.243 97.5738 62.7307 97.248 63.3265 97.1066L73.4761 133.849L72.9207 133.819L75.9777 141.092C75.9755 141.095 77.1064 140.981 78.4239 140.572Z" fill="white"/>
<path d="M66.1662 180.077L44.8777 218.459C42.2527 223.19 36.4729 225.17 31.5113 223.025C21.4939 218.689 12.2063 212.992 3.87213 206.164C-0.948247 202.211 -1.33081 194.959 3.07757 190.546L22.4415 171.175C52.9999 140.593 102.54 140.593 133.092 171.175L152.45 190.546C156.859 194.959 156.476 202.205 151.656 206.164C143.328 212.992 134.034 218.695 124.017 223.025C119.055 225.17 113.275 223.19 110.65 218.459L89.3617 180.077C84.3118 170.969 71.222 170.969 66.1662 180.077Z" fill="#0E53D9"/>
<path d="M10.535 211.232C7.19189 208.87 6.47384 204.192 8.96937 200.946L21.6883 184.409C23.9661 181.445 26.3439 178.694 28.8041 176.149C28.8689 176.078 28.9454 176.002 29.0278 175.925C32.983 171.984 38.5037 167.176 45.3193 162.982C59.3802 154.321 77.8436 159.306 85.8599 173.757L89.3678 180.085C84.312 170.971 71.2222 170.971 66.1664 180.085L44.8838 218.461C42.2588 223.192 36.479 225.171 31.5174 223.027C24.0897 219.81 17.0681 215.851 10.535 211.232Z" fill="#0078E5"/>
<path d="M43.6951 163.619C42.0471 164.886 40.6169 165.834 39.375 166.529C36.232 168.291 33.4657 163.707 36.4969 161.769C43.801 157.103 58.4917 149.645 77.7614 149.645C91.4338 149.645 103.682 154.505 111.363 158.446C113.058 159.318 112.293 161.881 110.398 161.681C95.4302 160.125 82.3581 163.631 69.1683 159.654C55.3193 155.477 43.6951 163.619 43.6951 163.619Z" fill="black"/>
<path d="M110.65 218.459C106.96 211.79 89.3263 180.2 86.048 174.285C84.4765 171.304 82.3576 168.641 79.8621 166.397C71.1748 158.532 57.4906 156.11 47.1495 162.073C34.3481 170.179 24.0835 181.762 14.737 193.556C12.7065 196.219 10.6229 198.9 8.81602 201.716C7.04442 204.367 7.61533 208.214 10.1285 210.188L10.2462 210.282L10.3051 210.329L10.3345 210.353C10.2639 210.465 10.5287 210.135 10.1874 210.612C9.82246 211.077 10.0697 210.724 9.98138 210.824L9.95195 210.8L9.88721 210.747C9.42812 210.4 8.96315 209.923 8.59824 209.475C5.99677 205.922 7.15036 202.417 9.64001 199.218C11.0761 197.197 12.6123 195.017 14.1131 193.067C22.1765 182.392 38.8389 163.351 51.3989 158.985C61.4105 155.663 72.8523 158.597 80.6214 165.566C82.8873 167.605 84.8767 169.991 86.4188 172.624C86.7072 173.107 91.5452 181.862 91.9572 182.569C96.7128 191.094 101.792 200.602 106.312 209.31C107.584 211.884 109.614 215.779 110.833 218.371C110.856 218.418 110.838 218.477 110.791 218.5C110.727 218.518 110.674 218.5 110.65 218.459Z" fill="#1C92EA"/>
<path d="M10.352 210.382C16.6673 215.012 23.3888 219.148 30.4457 222.553C23.2769 219.313 16.4672 215.348 10.0047 210.859C9.68687 210.629 10.0341 210.14 10.352 210.382Z" fill="#1C92EA"/>
<path opacity="0.7" d="M70.4332 153.424C69.7034 153.218 69.7858 152.151 70.5391 152.069C73.0406 151.786 75.6479 151.633 78.3436 151.633C83.9408 151.633 89.3027 152.505 94.1819 153.807C94.953 154.013 94.8294 155.144 94.0289 155.174C93.8111 155.179 93.5992 155.191 93.3815 155.197C90.6917 155.291 88.155 155.38 85.6242 155.38C79.6149 155.38 75.0829 154.82 70.9394 153.571C70.7746 153.524 70.6039 153.471 70.4332 153.424Z" fill="#0E53D9"/>
</svg>
