<svg width="20" height="40" viewBox="0 0 32 33" fill="none" xmlns="http://www.w3.org/2000/svg">
    <g id="Group 28302">
        <g id="Group 28259">
            <path id="Vector"
                d="M31.2537 1.27498L22.8589 13.9397C22.6589 14.2396 22.2239 14.2396 22.0239 13.9397L17.3191 6.84484C17.1541 6.59484 17.1541 6.26485 17.3191 6.01486L20.684 0.944989C20.869 0.664996 21.184 0.5 21.5189 0.5H30.8337C31.2337 0.5 31.4687 0.944988 31.2487 1.27498H31.2537Z"
                fill="#2B44E7" />
            <path id="Vector_2"
                d="M30.8415 32.4996H21.5268C21.1918 32.4996 20.8768 32.3296 20.6918 32.0546L17.3269 26.9848C17.1619 26.7348 17.1619 26.4048 17.3269 26.1548L22.0318 19.06C22.2317 18.76 22.6667 18.76 22.8667 19.06L31.2615 31.7246C31.4815 32.0546 31.2415 32.4996 30.8465 32.4996H30.8415Z"
                fill="#2B44E7" />
            <path id="Vector_3"
                d="M10.0223 0.5H0.702553C0.302563 0.5 0.0675694 0.944989 0.287564 1.27498L10.0973 16.0846C10.2623 16.3346 10.2623 16.6596 10.0973 16.9146L0.287564 31.7242C0.0675694 32.0542 0.307563 32.4992 0.702553 32.4992H10.0173C10.3523 32.4992 10.6673 32.3292 10.8523 32.0542L20.892 16.9146C21.057 16.6646 21.057 16.3346 20.892 16.0846L10.8523 0.944989C10.6673 0.664996 10.3523 0.5 10.0173 0.5H10.0223Z"
                fill="#2B44E7" />
        </g>
    </g>
</svg>
