<svg width="240" height="211" viewBox="0 0 240 211" fill="none" xmlns="http://www.w3.org/2000/svg">
<g clip-path="url(#clip0_5344_33712)">
<path d="M130.735 203.064C130.543 203.073 130.353 203.023 130.19 202.92C130.027 202.817 129.9 202.666 129.826 202.489C129.752 202.311 129.734 202.115 129.775 201.927C129.816 201.739 129.914 201.568 130.055 201.437L130.119 201.181C130.111 201.161 130.102 201.14 130.094 201.12C129.9 200.662 129.575 200.272 129.161 199.998C128.746 199.725 128.259 199.58 127.763 199.582C127.266 199.583 126.78 199.732 126.368 200.009C125.955 200.286 125.633 200.678 125.443 201.137C124.682 202.969 123.714 204.804 123.476 206.741C123.37 207.597 123.415 208.465 123.606 209.306C121.82 205.409 120.892 201.174 120.886 196.887C120.886 195.811 120.946 194.736 121.065 193.667C121.164 192.79 121.301 191.92 121.477 191.056C122.434 186.368 124.49 181.975 127.476 178.236C128.92 177.447 130.089 176.235 130.824 174.762C131.09 174.232 131.278 173.667 131.382 173.084C131.219 173.105 130.768 170.623 130.891 170.47C130.663 170.126 130.257 169.954 130.009 169.618C128.775 167.945 127.075 168.237 126.188 170.511C124.292 171.467 124.274 173.054 125.437 174.58C126.177 175.551 126.279 176.865 126.928 177.904C126.861 177.99 126.792 178.073 126.725 178.158C125.504 179.728 124.439 181.414 123.547 183.192C123.764 181.201 123.505 179.186 122.791 177.314C122.068 175.569 120.713 174.1 119.519 172.591C118.085 170.779 115.145 171.57 114.892 173.867C114.89 173.889 114.887 173.911 114.885 173.933C115.062 174.034 115.236 174.14 115.406 174.252C115.619 174.395 115.784 174.598 115.88 174.836C115.975 175.074 115.997 175.336 115.941 175.586C115.886 175.837 115.756 176.065 115.569 176.24C115.382 176.416 115.146 176.53 114.892 176.569L114.866 176.573C114.929 177.213 115.041 177.846 115.2 178.468C113.669 184.391 116.975 186.548 121.696 186.645C121.8 186.698 121.902 186.751 122.006 186.802C121.109 189.343 120.547 191.989 120.333 194.674C120.212 196.258 120.219 197.85 120.355 199.433L120.347 199.377C120.004 197.617 119.065 196.028 117.688 194.88C115.642 193.199 112.751 192.58 110.544 191.229C110.309 191.079 110.036 190.998 109.758 190.998C109.479 190.997 109.206 191.076 108.97 191.225C108.735 191.375 108.547 191.588 108.43 191.841C108.312 192.094 108.269 192.375 108.305 192.651C108.308 192.671 108.311 192.69 108.314 192.71C108.643 192.844 108.964 192.999 109.273 193.172C109.451 193.272 109.624 193.379 109.794 193.491C110.007 193.633 110.173 193.837 110.268 194.075C110.364 194.313 110.386 194.575 110.33 194.825C110.275 195.076 110.145 195.304 109.957 195.479C109.77 195.655 109.534 195.769 109.281 195.808L109.255 195.812C109.236 195.815 109.22 195.818 109.201 195.82C109.764 197.163 110.553 198.398 111.534 199.473C112.492 204.643 116.604 205.134 121.004 203.628H121.007C121.489 205.726 122.189 207.768 123.093 209.721H130.548C130.575 209.638 130.599 209.552 130.623 209.469C129.933 209.513 129.24 209.471 128.56 209.346C129.114 208.668 129.667 207.984 130.22 207.305C130.232 207.292 130.244 207.279 130.255 207.265C130.535 206.918 130.818 206.573 131.099 206.225L131.099 206.225C131.114 205.16 130.992 204.098 130.735 203.064Z" fill="#F2F2F2"/>
<path d="M119.69 85.1852C111.29 85.1852 103.078 82.6943 96.094 78.0276C89.1098 73.3608 83.6662 66.7278 80.4517 58.9673C77.2371 51.2068 76.3961 42.6673 78.0348 34.4288C79.6736 26.1903 83.7185 18.6227 89.6582 12.6831C95.5978 6.74343 103.165 2.69848 111.404 1.05974C119.642 -0.579008 128.182 0.262054 135.942 3.47656C143.703 6.69108 150.336 12.1347 155.003 19.1189C159.669 26.1032 162.16 34.3145 162.16 42.7144C162.148 53.9745 157.669 64.7697 149.707 72.7317C141.745 80.6938 130.95 85.1724 119.69 85.1852ZM119.69 0.912502C111.422 0.912502 103.34 3.36414 96.4656 7.9574C89.5913 12.5507 84.2335 19.0792 81.0696 26.7175C77.9057 34.3558 77.0779 42.7608 78.6908 50.8696C80.3037 58.9784 84.285 66.4268 90.1311 72.2729C95.9772 78.119 103.426 82.1002 111.534 83.7132C119.643 85.3261 128.048 84.4983 135.686 81.3344C143.325 78.1705 149.853 72.8126 154.447 65.9383C159.04 59.0641 161.491 50.9821 161.491 42.7144C161.479 31.6317 157.071 21.0065 149.234 13.1698C141.397 5.33317 130.772 0.925027 119.69 0.912502Z" fill="#F2F2F2"/>
<path d="M124.35 58.0976H115.321C114.877 58.0976 114.452 57.9214 114.138 57.6078C113.825 57.2943 113.648 56.869 113.648 56.4255C113.648 55.982 113.825 55.5567 114.138 55.2432C114.452 54.9296 114.877 54.7534 115.321 54.7534H124.35C124.793 54.7534 125.218 54.9296 125.532 55.2432C125.846 55.5567 126.022 55.982 126.022 56.4255C126.022 56.869 125.846 57.2943 125.532 57.6078C125.218 57.9214 124.793 58.0976 124.35 58.0976Z" fill="#E6E6E6"/>
<path d="M126.424 106.627H113.246C112.599 106.627 111.978 106.37 111.52 105.912C111.063 105.454 110.806 104.834 110.806 104.186C110.806 103.539 111.063 102.919 111.52 102.461C111.978 102.003 112.599 101.746 113.246 101.746H126.424C127.071 101.746 127.692 102.003 128.149 102.461C128.607 102.919 128.864 103.539 128.864 104.186C128.864 104.834 128.607 105.454 128.149 105.912C127.692 106.37 127.071 106.627 126.424 106.627Z" fill="#0F53D9"/>
<path d="M163.882 96.3983H75.7883C75.0033 96.3974 74.2508 96.0852 73.6958 95.5301C73.1408 94.9751 72.8285 94.2226 72.8276 93.4377V67.1745C72.8285 66.3896 73.1408 65.6371 73.6958 65.082C74.2508 64.527 75.0033 64.2148 75.7883 64.2139H163.882C164.667 64.2148 165.419 64.527 165.974 65.082C166.529 65.6371 166.841 66.3896 166.842 67.1745V93.4377C166.841 94.2226 166.529 94.9751 165.974 95.5301C165.419 96.0852 164.667 96.3974 163.882 96.3983Z" fill="#E6E6E6"/>
<path d="M155.322 94.4012H77.7858C77.0009 94.4003 76.2484 94.0881 75.6934 93.5331C75.1383 92.9781 74.8261 92.2255 74.8252 91.4406V69.173C74.8261 68.3881 75.1383 67.6356 75.6934 67.0805C76.2484 66.5255 77.0009 66.2133 77.7858 66.2124H161.885C162.67 66.2133 163.422 66.5255 163.977 67.0805C164.532 67.6356 164.844 68.3881 164.845 69.173V84.8783C164.843 87.403 163.838 89.8236 162.053 91.6089C160.268 93.3942 157.847 94.3984 155.322 94.4012Z" fill="white"/>
<path d="M128.577 74.1316H93.1698C92.9673 74.1316 92.7731 74.0511 92.6299 73.908C92.4867 73.7648 92.4062 73.5705 92.4062 73.368C92.4062 73.1655 92.4867 72.9713 92.6299 72.8281C92.7731 72.6849 92.9673 72.6045 93.1698 72.6045H128.577C128.779 72.6045 128.973 72.6849 129.117 72.8281C129.26 72.9713 129.34 73.1655 129.34 73.368C129.34 73.5705 129.26 73.7648 129.117 73.908C128.973 74.0511 128.779 74.1316 128.577 74.1316Z" fill="#0F53D9"/>
<path d="M146.5 77.2546H93.1698C92.9673 77.2546 92.7731 77.1742 92.6299 77.031C92.4867 76.8878 92.4062 76.6936 92.4062 76.4911C92.4062 76.2886 92.4867 76.0944 92.6299 75.9512C92.7731 75.808 92.9673 75.7275 93.1698 75.7275H146.5C146.703 75.7275 146.897 75.808 147.04 75.9512C147.183 76.0944 147.264 76.2886 147.264 76.4911C147.264 76.6936 147.183 76.8878 147.04 77.031C146.897 77.1742 146.703 77.2546 146.5 77.2546Z" fill="#E6E6E6"/>
<path d="M146.5 80.8391H93.1699C93.0695 80.8393 92.9701 80.8197 92.8773 80.7814C92.7844 80.7432 92.7001 80.687 92.629 80.616C92.5579 80.5451 92.5015 80.4609 92.4631 80.3681C92.4246 80.2754 92.4048 80.176 92.4048 80.0756C92.4048 79.9752 92.4246 79.8757 92.4631 79.783C92.5015 79.6902 92.5579 79.606 92.629 79.5351C92.7001 79.4642 92.7844 79.408 92.8773 79.3697C92.9701 79.3314 93.0695 79.3118 93.1699 79.312H146.5C146.703 79.3124 146.896 79.3931 147.039 79.5362C147.182 79.6794 147.262 79.8733 147.262 80.0756C147.262 80.2778 147.182 80.4718 147.039 80.6149C146.896 80.7581 146.703 80.8387 146.5 80.8391Z" fill="#E6E6E6"/>
<path d="M146.5 84.4241H93.1699C93.0695 84.4243 92.9701 84.4047 92.8773 84.3664C92.7844 84.3281 92.7001 84.2719 92.629 84.201C92.5579 84.1301 92.5015 84.0458 92.4631 83.9531C92.4246 83.8603 92.4048 83.7609 92.4048 83.6605C92.4048 83.5601 92.4246 83.4607 92.4631 83.368C92.5015 83.2752 92.5579 83.191 92.629 83.12C92.7001 83.0491 92.7844 82.9929 92.8773 82.9546C92.9701 82.9164 93.0695 82.8968 93.1699 82.897H146.5C146.703 82.8974 146.896 82.978 147.039 83.1212C147.182 83.2643 147.262 83.4583 147.262 83.6605C147.262 83.8628 147.182 84.0567 147.039 84.1999C146.896 84.343 146.703 84.4236 146.5 84.4241Z" fill="#E6E6E6"/>
<path d="M146.5 88.0085H93.1699C93.0695 88.0088 92.9701 87.9892 92.8773 87.9509C92.7844 87.9126 92.7001 87.8564 92.629 87.7855C92.5579 87.7145 92.5015 87.6303 92.4631 87.5376C92.4246 87.4448 92.4048 87.3454 92.4048 87.245C92.4048 87.1446 92.4246 87.0452 92.4631 86.9524C92.5015 86.8597 92.5579 86.7754 92.629 86.7045C92.7001 86.6336 92.7844 86.5774 92.8773 86.5391C92.9701 86.5008 93.0695 86.4812 93.1699 86.4814H146.5C146.703 86.4819 146.896 86.5625 147.039 86.7057C147.182 86.8488 147.262 87.0428 147.262 87.245C147.262 87.4472 147.182 87.6412 147.039 87.7843C146.896 87.9275 146.703 88.0081 146.5 88.0085Z" fill="#E6E6E6"/>
<path d="M193.358 206.189L189.779 206.188L188.077 192.385L193.359 192.385L193.358 206.189Z" fill="#A0616A"/>
<path d="M193.484 209.922L182.479 209.921V209.782C182.479 208.646 182.93 207.557 183.733 206.753C184.537 205.95 185.626 205.499 186.762 205.499L188.773 203.974L192.523 205.499L193.484 205.499L193.484 209.922Z" fill="#00174C"/>
<path d="M222.615 201.606L219.409 203.194L211.755 191.581L216.488 189.237L222.615 201.606Z" fill="#A0616A"/>
<path d="M224.386 204.896L214.525 209.781L214.463 209.656C213.958 208.638 213.879 207.462 214.242 206.385C214.606 205.309 215.381 204.421 216.399 203.917L217.524 201.657L221.562 201.359L222.422 200.933L224.386 204.896Z" fill="#00174C"/>
<path d="M182.756 131.991C182.756 131.991 178.682 137.67 181.622 147.481C184.563 157.293 182.912 166.064 183.738 167.823C184.563 169.582 186.224 171.252 184.852 172.586C183.479 173.919 182.756 175.004 183.84 175.365C184.924 175.727 188.539 201.028 188.539 201.028L194.684 201.39C194.684 201.39 196.91 189.636 194.531 180.151C194.531 180.151 195.054 173.266 193.965 171.243C192.876 169.22 193.09 171.045 193.164 168.506C193.205 166.67 193.472 164.846 193.961 163.076C194.322 161.63 194.531 147.058 194.531 147.058L200.513 166.395C200.753 167.062 200.843 167.773 200.777 168.478C200.629 169.474 200.628 170.962 200.809 171.483C200.99 172.004 201.192 172.113 201.091 173.143C200.99 174.173 213.029 195.876 213.029 195.876L219.011 191.863L213.118 172.835C212.532 172.186 212.045 171.456 211.672 170.666C210.949 169.22 210.921 169.141 211.296 168.096C211.672 167.052 211.672 165.017 211.672 164.408C211.672 163.799 212.047 136.149 207.341 132.082C202.636 128.015 182.756 131.991 182.756 131.991Z" fill="#00174C"/>
<path d="M204.853 88.0018L203.628 84.5162L200.284 81.172L194.115 80.4355L190.1 83.0757L186.381 86.7421L180.888 132.338C180.888 132.338 206.833 142.34 210.232 133.946L204.853 88.0018Z" fill="#CCCCCC"/>
<path d="M206.956 88.0017L203.352 84.3979C203.352 84.3979 201.631 107.43 202.364 109.05C203.097 110.669 203.961 110.256 203.028 111.132C202.094 112.007 201.091 111.138 202.094 112.743C202.685 113.643 202.975 114.707 202.922 115.783C202.922 115.783 208.114 148.458 211.123 148.458C214.133 148.458 216.017 147.577 215.911 146.68C215.805 145.783 214.03 143.549 214.583 142.994C215.136 142.439 216.5 142.858 215.149 141.813C213.799 140.767 213.13 141.101 213.464 139.764C213.799 138.426 211.242 121.085 211.242 121.085L210.993 92.1202L206.956 88.0017Z" fill="#3F3D56"/>
<path d="M190.1 83.0757L185.433 83.736L179.885 85.8538C179.885 85.8538 182.419 114.44 181.89 115.398C181.36 116.355 180.42 115.757 181.225 116.725C182.029 117.692 182.753 117.263 181.89 118.147C181.026 119.03 179.573 117.911 180.466 119.474C181.36 121.037 177.053 142.554 178.212 143.708C179.372 144.862 182.361 144.144 182.362 143.291C182.271 142.373 181.924 141.498 181.36 140.767C181.199 140.582 181.11 140.344 181.11 140.098C181.11 139.852 181.199 139.615 181.36 139.429C181.834 138.974 182.16 138.386 182.294 137.742C182.364 137.088 182.875 136.285 183.121 135.684C183.367 135.082 189.568 94.3531 189.568 94.3531L190.1 83.0757Z" fill="#3F3D56"/>
<path d="M170.186 105.584L172.291 104.485C169.663 102.115 163.142 98.2362 163.142 98.2362L151.904 90.6595C151.739 90.2722 151.476 89.9351 151.139 89.6821C150.803 89.429 150.406 89.2691 149.989 89.2182C149.571 89.1674 149.147 89.2275 148.76 89.3925C148.373 89.5575 148.036 89.8215 147.783 90.1581C147.531 90.4946 147.371 90.8918 147.321 91.3096C147.271 91.7274 147.331 92.1511 147.497 92.538C147.662 92.9249 147.927 93.2614 148.263 93.5136C148.6 93.7658 148.998 93.9249 149.415 93.9747L162.01 105.258L170.186 105.584Z" fill="#A0616A"/>
<path d="M185.57 97.2238L185.592 87.9826L180.459 85.5273L167.511 99.2303L166.508 98.5615H164.167L158.482 105.25C158.482 105.25 161.51 107.044 163.006 106.314C164.501 105.584 164.361 106.633 164.361 106.633C164.583 106.912 164.892 107.108 165.239 107.19C165.586 107.272 165.951 107.234 166.274 107.083C167.511 106.587 169.852 107.925 169.852 107.925L185.57 97.2238Z" fill="#3F3D56"/>
<path d="M197.874 78.3125C202.009 78.3125 205.36 74.9608 205.36 70.8262C205.36 66.6916 202.009 63.3398 197.874 63.3398C193.739 63.3398 190.388 66.6916 190.388 70.8262C190.388 74.9608 193.739 78.3125 197.874 78.3125Z" fill="#A0616A"/>
<path d="M206.911 72.7268C206.205 74.11 205.256 75.3555 204.111 76.4044C203.782 76.7782 203.362 77.0611 202.892 77.226C202.656 77.303 202.4 77.2947 202.17 77.2026C201.939 77.1105 201.748 76.9404 201.63 76.722L201.491 76.5324C201.892 76.4097 202.271 76.2225 202.612 75.9781C202.781 75.855 202.919 75.6933 203.013 75.5064C203.107 75.3194 203.156 75.1127 203.154 74.9033C203.142 74.6941 203.049 74.4977 202.895 74.3555C202.741 74.2132 202.538 74.1362 202.328 74.1405C201.861 74.1961 201.443 74.7422 201.024 74.5317C200.685 74.3597 200.734 73.867 200.831 73.495C201.352 71.5537 201.134 68.5447 200.384 68.4395C199.638 68.2877 198.928 67.997 198.29 67.5825C197.651 67.1673 196.938 66.8803 196.189 66.7376C196.136 66.7305 196.081 66.7266 196.023 66.7219C196.001 66.3217 195.932 65.9254 195.815 65.5419C195.734 65.9469 195.61 66.3421 195.444 66.7208C194.796 66.8091 194.142 66.8422 193.488 66.8197C192.791 66.7388 190.788 68.3627 190.773 68.1392C190.752 67.739 190.682 67.3428 190.565 66.9592C190.484 67.3642 190.36 67.7594 190.195 68.1381C190.187 68.1536 190.184 68.1666 190.176 68.1821C189.963 67.6629 189.902 67.0823 189.908 67.5159C189.46 64.7572 190.347 63.0962 192.611 61.4603C193.064 61.0995 193.6 60.8595 194.17 60.7626C194.455 60.7171 194.747 60.7457 195.017 60.8456C195.288 60.9456 195.528 61.1136 195.715 61.3333C196.584 60.8735 197.561 60.6545 198.543 60.699C199.526 60.7435 200.478 61.0499 201.302 61.5865C202.931 62.6776 204.216 63.4035 203.999 65.3544C205.543 65.5031 206.846 66.7429 207.334 68.2121C207.818 69.6838 207.567 71.326 206.911 72.7268Z" fill="#00174C"/>
<path d="M216.467 111.736L211.096 110.967C209.279 114.004 208.634 122.089 208.634 122.089L203.378 134.582C203.03 134.819 202.75 135.143 202.567 135.521C202.384 135.9 202.304 136.321 202.335 136.74C202.366 137.16 202.507 137.564 202.744 137.912C202.98 138.26 203.305 138.539 203.684 138.722C204.063 138.904 204.483 138.984 204.903 138.952C205.323 138.921 205.727 138.779 206.074 138.542C206.422 138.305 206.701 137.98 206.883 137.601C207.065 137.222 207.144 136.801 207.112 136.381L215.742 121.84L216.467 111.736Z" fill="#A0616A"/>
<path d="M204.101 93.1121L206.376 89.9775L210.991 92.1221L214.829 106.928C214.829 106.928 217.632 108.752 217.034 110.038C216.436 111.325 216.119 112.363 216.737 113.1C217.355 113.838 219.155 113.892 217.814 115.094C216.473 116.296 217.621 119.437 217.621 119.437L216.336 122.305L208.31 121.971L204.101 93.1121Z" fill="#3F3D56"/>
<path d="M18.4747 139.031C18.9813 138.633 19.3128 138.054 19.3987 137.416C19.4846 136.778 19.318 136.131 18.9345 135.614C18.8549 135.51 18.7668 135.413 18.6712 135.323L22.0983 127.41L18.6945 124.258L15.1719 135.606C14.832 136.032 14.6424 136.557 14.6327 137.102C14.6231 137.646 14.7939 138.178 15.1185 138.615C15.3056 138.862 15.5395 139.07 15.8069 139.226C16.0742 139.383 16.3698 139.485 16.6767 139.528C16.9836 139.57 17.2958 139.551 17.5956 139.473C17.8953 139.395 18.1766 139.258 18.4236 139.071C18.4408 139.058 18.4578 139.044 18.4747 139.031Z" fill="#FFB6B6"/>
<path d="M38.3847 87.6933C38.3847 87.6933 35.8479 82.8706 29.9629 88.0788C24.0779 93.287 17.1236 119.356 17.2586 120.336C17.3937 121.316 18.8321 120.929 17.0127 122.34C15.1934 123.751 14.1874 122.483 15.1934 123.751C16.1993 125.019 18.4489 126.362 16.4571 126.551C14.4652 126.739 21.7671 129.881 21.7671 129.881C21.7671 129.881 22.9156 129.605 23.268 126.955C23.4659 125.466 22.7952 124.621 23.9758 124.373C25.1563 124.125 24.0498 121.433 24.2197 121.01C24.3897 120.586 33.8159 102.088 33.8159 102.088L38.3847 87.6933Z" fill="#0F53D9"/>
<path d="M49.9702 205.476L54.2314 205.476L56.2589 189.038L49.9692 189.038L49.9702 205.476Z" fill="#FFB6B6"/>
<path d="M49.82 209.922L62.9251 209.921V209.756C62.925 208.403 62.3876 207.106 61.431 206.149C60.4744 205.192 59.1771 204.655 57.8243 204.655H57.8239L55.4301 202.839L50.9638 204.655L49.8198 204.655L49.82 209.922Z" fill="#00174C"/>
<path d="M20.0996 197.637L23.5856 200.088L34.6995 187.808L29.5539 184.19L20.0996 197.637Z" fill="#FFB6B6"/>
<path d="M17.4194 201.187L28.1398 208.725L28.2352 208.589C29.0132 207.483 29.3198 206.112 29.0875 204.78C28.8553 203.447 28.1031 202.261 26.9966 201.483L26.0828 198.62L21.3845 197.537L20.4487 196.879L17.4194 201.187Z" fill="#00174C"/>
<path d="M32.9904 123.698L32.6363 124.455C30.3088 129.427 29.7136 134.986 30.6181 140.401C30.6854 140.613 30.6726 140.841 30.5821 141.044C30.0211 141.702 30.9012 144.56 31.4057 146.156L31.8604 148.979C31.8604 148.979 31.1064 151.601 32.2517 151.408C33.3969 151.215 31.6915 154.011 32.7839 154.712L35.6177 172.303L23.7949 191.789L28.1737 198.138L45.689 175.587L45.9079 155.226L48.5352 171.646L48.7542 197.481L56.7203 196.634L59.6389 171.587L56.8549 136.948L52.4761 121.929L32.9904 123.698Z" fill="#00174C"/>
<path d="M38.4635 78.6001L44.9082 78.907L47.9899 84.231C49.3566 84.641 50.6136 85.3526 51.6684 86.3135C52.7232 87.2743 53.5487 88.4597 54.084 89.7823L56.0908 94.7401L53.8079 123.406C53.8079 123.406 53.3503 125.139 54.1929 124.886C55.0354 124.633 54.692 126.806 54.692 126.806L57.7974 138.75L29.5638 136.295L31.1315 123.64C31.1315 123.64 28.9519 123.711 30.4845 122.178C32.0171 120.645 32.7624 121.134 31.2901 119.322C29.8179 117.51 29.599 116.196 29.599 116.196L28.9421 107.22L27.8593 94.5866C27.6875 92.582 28.0166 90.5662 28.8171 88.7203C29.6176 86.8745 30.8643 85.2565 32.4452 84.012L38.4635 78.6001Z" fill="#0F53D9"/>
<path d="M41.8057 77.1217C46.3195 77.1217 49.9787 73.4626 49.9787 68.9488C49.9787 64.435 46.3195 60.7759 41.8057 60.7759C37.292 60.7759 33.6328 64.435 33.6328 68.9488C33.6328 73.4626 37.292 77.1217 41.8057 77.1217Z" fill="#FFB6B6"/>
<path d="M38.6478 76.4518C40.9931 76.3749 41.2061 75.7554 43.5515 75.6784C44.2982 75.6539 45.1795 75.5516 45.5405 74.8974C45.6456 74.6524 45.6924 74.3862 45.6772 74.12C45.662 73.8538 45.5853 73.5947 45.453 73.3632C45.1854 72.9035 44.9442 72.429 44.7305 71.9419C44.6018 71.5599 44.568 71.1523 44.6321 70.7544C44.6963 70.3564 44.8563 69.9801 45.0985 69.6578C45.3406 69.3356 45.6576 69.0772 46.0221 68.9049C46.3865 68.7327 46.7874 68.6518 47.1901 68.6692C47.9038 68.7 48.5741 69.0356 49.2859 69.097C50.262 69.1811 52.4204 65.9582 51.971 65.0877C51.5335 64.2403 50.6532 63.6009 50.5148 62.6573C50.4243 62.0402 50.679 61.427 50.7139 60.8042C50.7655 59.8808 48.4247 61.9629 48.8534 61.1434C49.905 59.1331 39.9957 56.6409 38.3643 59.159C37.7546 60.1001 36.6679 60.0359 35.6994 60.601C35.0647 60.9715 33.4618 62.2494 33.0974 63.046C32.7626 63.8588 32.6043 64.7334 32.6332 65.612C32.6186 69.698 33.2411 73.4564 36.5368 75.8716" fill="#00174C"/>
<path d="M61.8497 138.68C61.3677 138.253 61.0714 137.655 61.0238 137.012C60.9762 136.37 61.181 135.735 61.5947 135.241C61.6803 135.142 61.7741 135.051 61.8749 134.967L58.9263 126.863L62.5121 123.92L65.351 135.458C65.665 135.903 65.8228 136.439 65.8 136.983C65.7771 137.527 65.5749 138.048 65.2247 138.465C65.0232 138.701 64.7773 138.894 64.5011 139.034C64.2248 139.174 63.9237 139.259 63.6148 139.283C63.3059 139.307 62.9954 139.27 62.7009 139.173C62.4063 139.077 62.1336 138.924 61.8983 138.723C61.8819 138.709 61.8657 138.694 61.8497 138.68Z" fill="#FFB6B6"/>
<path d="M45.0396 86.245C45.0396 86.245 47.8598 81.5823 53.4234 87.1325C58.987 92.6827 64.3727 119.121 64.1793 120.091C63.986 121.061 62.5733 120.588 64.3052 122.106C66.0371 123.623 67.117 122.417 66.0371 123.623C64.9573 124.828 62.6315 126.035 64.6086 126.342C66.5856 126.649 59.1092 129.349 59.1092 129.349C59.1092 129.349 57.9792 129.005 57.7857 126.339C57.677 124.841 58.3968 124.038 57.2332 123.72C56.0696 123.402 57.3348 120.781 57.1905 120.348C57.0461 119.915 48.7409 100.887 48.7409 100.887L45.0396 86.245Z" fill="#0F53D9"/>
<path d="M126.361 41.8016C126.362 43.1247 125.97 44.4183 125.235 45.5186C124.5 46.619 123.455 47.4767 122.233 47.9834C121.011 48.49 119.666 48.6228 118.368 48.365C117.07 48.1072 115.878 47.4704 114.942 46.535C114.006 45.5996 113.369 44.4077 113.11 43.1101C112.852 41.8124 112.984 40.4672 113.49 39.2447C113.996 38.0221 114.853 36.9771 115.953 36.2417C117.053 35.5063 118.347 35.1136 119.67 35.1133C120.549 35.1121 121.419 35.2843 122.231 35.6199C123.043 35.9556 123.781 36.4482 124.403 37.0694C125.024 37.6907 125.517 38.4284 125.853 39.2405C126.19 40.0525 126.362 40.9228 126.361 41.8016Z" fill="#0F53D9"/>
<path d="M119.819 42.7712C121.112 42.7712 122.16 41.7231 122.16 40.4303C122.16 39.1374 121.112 38.0894 119.819 38.0894C118.526 38.0894 117.478 39.1374 117.478 40.4303C117.478 41.7231 118.526 42.7712 119.819 42.7712Z" fill="white"/>
<path d="M122.328 43.6074H117.312C117.002 43.6078 116.704 43.7312 116.485 43.9506C116.265 44.17 116.142 44.4676 116.142 44.7779C116.213 45.7803 116.37 46.7749 116.61 47.7508C117.616 48.2692 118.737 48.5237 119.868 48.4903C120.999 48.457 122.104 48.137 123.077 47.5602C123.292 46.6455 123.433 45.7151 123.499 44.7779C123.498 44.4676 123.375 44.17 123.156 43.9506C122.936 43.7312 122.639 43.6078 122.328 43.6074Z" fill="white"/>
<path d="M-0.165037 210.11C-0.165193 210.162 -0.155004 210.214 -0.135058 210.262C-0.115113 210.311 -0.0858083 210.355 -0.0488216 210.392C-0.0118349 210.429 0.0321025 210.458 0.0804572 210.478C0.128812 210.498 0.180633 210.508 0.232938 210.508H239.437C239.543 210.508 239.644 210.466 239.718 210.391C239.793 210.317 239.835 210.215 239.835 210.11C239.835 210.004 239.793 209.903 239.718 209.828C239.644 209.754 239.543 209.712 239.437 209.712H0.232938C0.180633 209.712 0.128811 209.722 0.0804572 209.742C0.0321033 209.762 -0.0118301 209.791 -0.0488165 209.828C-0.0858028 209.865 -0.115113 209.909 -0.135058 209.957C-0.155004 210.006 -0.165191 210.058 -0.165037 210.11Z" fill="#CCCCCC"/>
</g>
<defs>
<clipPath id="clip0_5344_33712">
<rect width="240" height="211" fill="white"/>
</clipPath>
</defs>
</svg>
