<svg width="22" height="21" fill="none" xmlns="http://www.w3.org/2000/svg">
<defs>
        <linearGradient id="a" x1="10.999" y1=".896" x2="10.999" y2="27.613" gradientUnits="userSpaceOnUse">
            <stop stop-color="#FFEE58"/>
            <stop offset=".63" stop-color="#F4991E"/>
            <stop offset="1" stop-color="#EF6C00"/>
        </linearGradient>
        <linearGradient id="b" x1="10.999" y1="1.16" x2="10.999" y2="27.136" gradientUnits="userSpaceOnUse">
            <stop stop-color="#FFD54F"/>
            <stop offset=".48" stop-color="#FFAF16"/>
            <stop offset=".65" stop-color="#FFA000"/>
        </linearGradient>
        <linearGradient id="c" x1="10.999" y1="19.721" x2="10.999" y2="3.479" gradientUnits="userSpaceOnUse">
            <stop stop-color="#FFEE58"/>
            <stop offset=".63" stop-color="#F4991E"/>
            <stop offset="1" stop-color="#EF6C00"/>
        </linearGradient>
        <linearGradient id="d" x1="10.999" y1="4.058" x2="10.999" y2="21.856" gradientUnits="userSpaceOnUse">
            <stop stop-color="#FF8F00"/>
            <stop offset="1" stop-color="#B13827"/>
        </linearGradient>
        <linearGradient id="e" x1="10.999" y1="5.767" x2="10.999" y2="18.745" gradientUnits="userSpaceOnUse">
            <stop stop-color="#FFD54F"/>
            <stop offset=".48" stop-color="#FFAF16"/>
            <stop offset=".65" stop-color="#FFA000"/>
        </linearGradient>
        <linearGradient id="f" x1="10.52" y1="7.257" x2="12.327" y2="15.567" gradientUnits="userSpaceOnUse">
            <stop stop-color="#FF8F00"/>
            <stop offset="1" stop-color="#B13827"/>
        </linearGradient>
        <linearGradient id="g" x1="10.57" y1="7.484" x2="12.248" y2="15.207" gradientUnits="userSpaceOnUse">
            <stop stop-color="#FFD54F"/>
            <stop offset=".48" stop-color="#FFCE16"/>
            <stop offset=".65" stop-color="#FFCB00"/>
        </linearGradient>
        <linearGradient id="h" x1="12.618" y1="16.593" x2="10.46" y2="5.657" gradientUnits="userSpaceOnUse">
            <stop stop-color="#FFD54F"/>
            <stop offset=".48" stop-color="#FFAF16"/>
            <stop offset=".65" stop-color="#FFA000"/>
        </linearGradient>
    </defs>
    <path d="M11 20.737a2.775 2.775 0 0 1-2.005-.845 2.24 2.24 0 0 0-1.97-.64 2.814 2.814 0 0 1-3.245-2.358 2.232 2.232 0 0 0-1.217-1.676 2.804 2.804 0 0 1-1.24-3.814 2.223 2.223 0 0 0 0-2.071 2.805 2.805 0 0 1 1.24-3.815A2.232 2.232 0 0 0 3.78 3.843 2.815 2.815 0 0 1 7.025 1.48a2.242 2.242 0 0 0 1.97-.635 2.803 2.803 0 0 1 4.01 0 2.24 2.24 0 0 0 1.97.641 2.814 2.814 0 0 1 3.245 2.358 2.232 2.232 0 0 0 1.217 1.675 2.802 2.802 0 0 1 1.24 3.815 2.232 2.232 0 0 0 0 2.07 2.802 2.802 0 0 1-1.24 3.815 2.232 2.232 0 0 0-1.217 1.675 2.814 2.814 0 0 1-3.245 2.359 2.241 2.241 0 0 0-1.97.64 2.778 2.778 0 0 1-2.006.845Z" fill="url(#a)"/>
    <path d="M12.8 1.046a2.516 2.516 0 0 0 2.224.72 2.514 2.514 0 0 1 2.911 2.12 2.518 2.518 0 0 0 1.374 1.89 2.513 2.513 0 0 1 1.117 3.423 2.514 2.514 0 0 0 0 2.338 2.515 2.515 0 0 1-1.117 3.428 2.517 2.517 0 0 0-1.374 1.892 2.513 2.513 0 0 1-2.911 2.116 2.517 2.517 0 0 0-2.225.72 2.513 2.513 0 0 1-3.597 0 2.516 2.516 0 0 0-2.225-.72 2.513 2.513 0 0 1-2.91-2.116 2.517 2.517 0 0 0-1.376-1.892 2.513 2.513 0 0 1-1.115-3.428 2.515 2.515 0 0 0 0-2.338 2.514 2.514 0 0 1 1.112-3.423 2.517 2.517 0 0 0 1.377-1.89 2.514 2.514 0 0 1 2.911-2.118 2.517 2.517 0 0 0 2.226-.722 2.514 2.514 0 0 1 3.597 0Z" fill="url(#b)"/>
    <path d="M16.053 15.422A7.147 7.147 0 1 0 5.946 5.316a7.147 7.147 0 0 0 10.107 10.107Z" fill="url(#c)"/>
    <path d="M11 17.276a6.907 6.907 0 1 0 0-13.814 6.907 6.907 0 0 0 0 13.814Z" fill="url(#d)"/>
    <path d="M11 15.405a5.036 5.036 0 1 0 0-10.072 5.036 5.036 0 0 0 0 10.072Z" fill="url(#e)"/>
    <path d="M12.814 14.267c-.121 0-.241-.018-.357-.053l-1.22-.37a.642.642 0 0 0-.379-.003l-1.224.373a1.264 1.264 0 0 1-.359.053 1.235 1.235 0 0 1-1.224-1.206l-.026-1.273a.646.646 0 0 0-.118-.36l-.72-1.045a1.229 1.229 0 0 1 .605-1.863l1.204-.419a.652.652 0 0 0 .305-.221l.764-1.016a1.228 1.228 0 0 1 1.959 0l.775 1.016c.079.102.185.18.307.221l1.203.42a1.23 1.23 0 0 1 .606 1.862l-.728 1.045a.656.656 0 0 0-.117.36l-.026 1.273a1.236 1.236 0 0 1-1.227 1.206h-.003Z" fill="url(#f)"/>
    <path d="m11.792 7.038.776 1.02c.111.148.265.26.44.321l1.205.419a.94.94 0 0 1 .457 1.419l-.72 1.047a.94.94 0 0 0-.168.518l-.026 1.274a.941.941 0 0 1-1.213.882l-1.223-.369a.927.927 0 0 0-.545 0l-1.219.369a.94.94 0 0 1-1.217-.882l-.026-1.274a.953.953 0 0 0-.169-.518l-.723-1.047a.942.942 0 0 1 .463-1.426l1.203-.42a.938.938 0 0 0 .442-.313l.768-1.014a.94.94 0 0 1 1.495-.006Z" fill="url(#g)"/>
    <path d="M8.149 11.264a.953.953 0 0 1 .168.518l.022 1.274a.94.94 0 0 0 1.213.882l1.219-.369a.927.927 0 0 1 .545 0l1.22.369a.94.94 0 0 0 1.213-.882l.026-1.274a.94.94 0 0 1 .175-.518l.72-1.047a.93.93 0 0 0 .167-.56c-2.28.981-4.845 1.389-6.729 1.557l.04.05Z" fill="url(#h)"/>
    <path d="M11.137 7.943c-.247.331-.575.5-.748.377-.172-.124-.1-.492.144-.824.243-.333.576-.5.747-.377.171.122.104.493-.143.824ZM10.277 8.79a.26.26 0 1 1-.5-.156.259.259 0 0 1 .494.152l.006.003Z" fill="#FFF9C4"/>
    <path d="M13.207 13.031a.265.265 0 1 1-.53 0 .265.265 0 0 1 .53 0Z" fill="#FDD835"/>
    
</svg>
