<svg width="32" height="32" viewBox="0 0 32 32" fill="none" xmlns="http://www.w3.org/2000/svg">
<path opacity="0.4" d="M29.0133 21.2265L20.48 5.8665C19.3333 3.79984 17.7466 2.6665 16 2.6665C14.2533 2.6665 12.6666 3.79984 11.52 5.8665L2.98664 21.2265C1.90664 23.1865 1.78664 25.0665 2.6533 26.5465C3.51997 28.0265 5.22664 28.8398 7.46664 28.8398H24.5333C26.7733 28.8398 28.48 28.0265 29.3466 26.5465C30.2133 25.0665 30.0933 23.1732 29.0133 21.2265Z" fill="#FFA800"/>
<path d="M16 19.6667C15.4533 19.6667 15 19.2133 15 18.6667V12C15 11.4533 15.4533 11 16 11C16.5467 11 17 11.4533 17 12V18.6667C17 19.2133 16.5467 19.6667 16 19.6667Z" fill="#FFA800"/>
<path d="M16.0003 24.0001C15.9203 24.0001 15.827 23.9867 15.7337 23.9734C15.6537 23.9601 15.5737 23.9334 15.4937 23.8934C15.4137 23.8667 15.3337 23.8267 15.2537 23.7734C15.187 23.7201 15.1203 23.6667 15.0537 23.6134C14.8137 23.3601 14.667 23.0134 14.667 22.6667C14.667 22.3201 14.8137 21.9734 15.0537 21.7201C15.1203 21.6667 15.187 21.6134 15.2537 21.5601C15.3337 21.5067 15.4137 21.4667 15.4937 21.4401C15.5737 21.4001 15.6537 21.3734 15.7337 21.3601C15.907 21.3201 16.0937 21.3201 16.2537 21.3601C16.347 21.3734 16.427 21.4001 16.507 21.4401C16.587 21.4667 16.667 21.5067 16.747 21.5601C16.8137 21.6134 16.8803 21.6667 16.947 21.7201C17.187 21.9734 17.3337 22.3201 17.3337 22.6667C17.3337 23.0134 17.187 23.3601 16.947 23.6134C16.8803 23.6667 16.8137 23.7201 16.747 23.7734C16.667 23.8267 16.587 23.8667 16.507 23.8934C16.427 23.9334 16.347 23.9601 16.2537 23.9734C16.1737 23.9867 16.0803 24.0001 16.0003 24.0001Z" fill="#FFA800"/>
</svg>
