<svg width="24" height="25" viewBox="0 0 24 25" fill="none" xmlns="http://www.w3.org/2000/svg">
<g id="vuesax/bulk/money">
<g id="money">
<path id="Vector" opacity="0.4" d="M17 21H7C4 21 2 19.5 2 16V9C2 5.5 4 4 7 4H17C20 4 22 5.5 22 9V16C22 19.5 20 21 17 21Z" fill="#0E53D9"/>
<g id="Group">
<path id="Vector_2" d="M12 15.5C13.6569 15.5 15 14.1569 15 12.5C15 10.8431 13.6569 9.5 12 9.5C10.3431 9.5 9 10.8431 9 12.5C9 14.1569 10.3431 15.5 12 15.5Z" fill="#0E53D9"/>
</g>
<g id="Group_2">
<path id="Vector_3" d="M5.5 15.75C5.09 15.75 4.75 15.41 4.75 15V10C4.75 9.59 5.09 9.25 5.5 9.25C5.91 9.25 6.25 9.59 6.25 10V15C6.25 15.41 5.91 15.75 5.5 15.75Z" fill="#0E53D9"/>
</g>
<g id="Group_3">
<path id="Vector_4" d="M18.5 15.75C18.09 15.75 17.75 15.41 17.75 15V10C17.75 9.59 18.09 9.25 18.5 9.25C18.91 9.25 19.25 9.59 19.25 10V15C19.25 15.41 18.91 15.75 18.5 15.75Z" fill="#0E53D9"/>
</g>
</g>
</g>
</svg>
