<svg width="175" height="175" viewBox="0 0 175 175" fill="none" xmlns="http://www.w3.org/2000/svg">
<circle cx="87.5" cy="87.5" r="87.5" fill="#FEFBFF"/>
<circle cx="87.5" cy="87.5" r="87.5" fill="#0F53D9" fill-opacity="0.08"/>
<g clip-path="url(#clip0_3297_25568)">
<path d="M105.608 65.7104H68.4231C67.5757 65.7115 66.7633 66.0643 66.1641 66.6915C65.5649 67.3187 65.2278 68.1691 65.2268 69.056V155.562L64.8007 155.698L55.6786 158.622C55.2463 158.76 54.7793 158.713 54.3802 158.491C53.9811 158.269 53.6825 157.89 53.5499 157.438L26.4159 64.6644C26.2839 64.2118 26.3289 63.723 26.5411 63.3051C26.7532 62.8873 27.1152 62.5748 27.5474 62.4362L41.6045 57.9308L82.3566 44.874L96.4136 40.3686C96.6275 40.2997 96.8523 40.2756 97.0751 40.2978C97.2979 40.3199 97.5144 40.3878 97.7121 40.4976C97.9099 40.6074 98.085 40.7569 98.2274 40.9376C98.3699 41.1184 98.4769 41.3267 98.5423 41.5507L105.478 65.2644L105.608 65.7104Z" fill="white"/>
<path d="M113.722 65.2644L105.363 36.6841C105.224 36.2079 104.997 35.765 104.694 35.3808C104.391 34.9966 104.019 34.6786 103.599 34.445C103.179 34.2113 102.719 34.0666 102.246 34.0191C101.772 33.9716 101.294 34.0223 100.839 34.1682L81.076 40.5003L40.3261 53.5593L20.5627 59.8936C19.6446 60.1887 18.8759 60.853 18.4252 61.7408C17.9746 62.6285 17.8789 63.6672 18.1591 64.6287L46.7292 162.305C46.9569 163.081 47.4162 163.76 48.0397 164.243C48.6633 164.726 49.4183 164.987 50.194 164.988C50.553 164.988 50.91 164.932 51.253 164.82L64.8008 160.48L65.2269 160.342V159.876L64.8008 160.012L51.1273 164.394C50.3169 164.653 49.4416 164.565 48.6934 164.149C47.9452 163.733 47.3852 163.023 47.1362 162.175L18.5683 64.4971C18.4449 64.0771 18.402 63.6358 18.4418 63.1984C18.4816 62.7609 18.6035 62.336 18.8004 61.948C18.9974 61.5599 19.2655 61.2164 19.5895 60.937C19.9134 60.6575 20.2869 60.4477 20.6884 60.3196L40.4518 53.9853L81.2018 40.9285L100.965 34.5942C101.27 34.4969 101.586 34.4473 101.905 34.447C102.588 34.4486 103.253 34.6792 103.802 35.105C104.351 35.5309 104.756 36.1296 104.956 36.8134L113.277 65.2644L113.409 65.7105H113.852L113.722 65.2644Z" fill="#3F3D56"/>
<path d="M44.1412 62.5091C43.7305 62.5088 43.3307 62.3708 43.0004 62.1152C42.6702 61.8596 42.4269 61.5 42.3062 61.0891L39.5617 51.7054C39.4879 51.4534 39.4623 51.1886 39.4863 50.9261C39.5104 50.6637 39.5836 50.4088 39.7017 50.176C39.8199 49.9432 39.9807 49.7371 40.175 49.5693C40.3692 49.4016 40.5932 49.2755 40.834 49.1984L78.3236 37.1846C78.8099 37.0293 79.3352 37.0823 79.7843 37.3319C80.2333 37.5816 80.5694 38.0076 80.7188 38.5163L83.4633 47.9001C83.6117 48.4092 83.561 48.959 83.3225 49.4291C83.084 49.8991 82.6771 50.2509 82.1911 50.4073L44.7014 62.421C44.5199 62.4794 44.3311 62.509 44.1412 62.5091Z" fill="#0F53D9"/>
<path d="M58.5184 44.0267C60.8721 44.0267 62.7801 42.0295 62.7801 39.5659C62.7801 37.1023 60.8721 35.1051 58.5184 35.1051C56.1648 35.1051 54.2568 37.1023 54.2568 39.5659C54.2568 42.0295 56.1648 44.0267 58.5184 44.0267Z" fill="#0F53D9"/>
<path d="M58.5184 42.3906C60.0088 42.3906 61.217 41.1259 61.217 39.5659C61.217 38.0058 60.0088 36.7412 58.5184 36.7412C57.028 36.7412 55.8198 38.0058 55.8198 39.5659C55.8198 41.1259 57.028 42.3906 58.5184 42.3906Z" fill="white"/>
<path d="M146.411 163.848H74.3894C73.9093 163.847 73.4489 163.647 73.1093 163.292C72.7698 162.937 72.5788 162.455 72.5782 161.952V71.621C72.5788 71.1184 72.7698 70.6365 73.1093 70.2811C73.4489 69.9256 73.9093 69.7257 74.3894 69.7252H146.411C146.892 69.7257 147.352 69.9257 147.691 70.2811C148.031 70.6365 148.222 71.1184 148.223 71.621V161.952C148.222 162.455 148.031 162.937 147.691 163.292C147.352 163.647 146.892 163.847 146.411 163.848Z" fill="white"/>
<path d="M113.277 65.2644H68.4231C67.4628 65.2658 66.5422 65.6657 65.8631 66.3765C65.1841 67.0873 64.802 68.0509 64.8007 69.056V160.012L65.2268 159.876V69.056C65.2279 68.1691 65.5649 67.3187 66.1641 66.6915C66.7633 66.0643 67.5757 65.7115 68.4231 65.7104H113.409L113.277 65.2644ZM152.378 65.2644H68.4231C67.4628 65.2658 66.5422 65.6657 65.8631 66.3765C65.1841 67.0873 64.802 68.0509 64.8007 69.056V171.208C64.802 172.214 65.1841 173.177 65.8631 173.888C66.5422 174.599 67.4628 174.999 68.4231 175H152.378C153.338 174.999 154.258 174.599 154.938 173.888C155.617 173.177 155.999 172.214 156 171.208V69.056C155.999 68.0509 155.617 67.0873 154.938 66.3765C154.258 65.6657 153.338 65.2658 152.378 65.2644ZM155.574 171.208C155.573 172.095 155.236 172.946 154.637 173.573C154.037 174.2 153.225 174.553 152.378 174.554H68.4231C67.5757 174.553 66.7633 174.2 66.1641 173.573C65.5649 172.946 65.2279 172.095 65.2268 171.208V69.056C65.2279 68.1691 65.5649 67.3187 66.1641 66.6915C66.7633 66.0643 67.5757 65.7115 68.4231 65.7104H152.378C153.225 65.7115 154.037 66.0643 154.637 66.6915C155.236 67.3187 155.573 68.1691 155.574 69.056V171.208Z" fill="#3F3D56"/>
<path d="M130.004 75.0781H90.7968C90.2883 75.0775 89.8009 74.8658 89.4413 74.4895C89.0818 74.1132 88.8796 73.603 88.879 73.0708V63.257C88.8796 62.7248 89.0818 62.2146 89.4414 61.8382C89.8009 61.4619 90.2883 61.2502 90.7968 61.2496H130.004C130.512 61.2502 131 61.4619 131.359 61.8382C131.719 62.2146 131.921 62.7248 131.922 63.257V73.0708C131.921 73.603 131.719 74.1132 131.359 74.4895C131 74.8658 130.512 75.0775 130.004 75.0781Z" fill="#0F53D9"/>
<path d="M110.4 61.9188C112.754 61.9188 114.662 59.9216 114.662 57.458C114.662 54.9943 112.754 52.9972 110.4 52.9972C108.047 52.9972 106.139 54.9943 106.139 57.458C106.139 59.9216 108.047 61.9188 110.4 61.9188Z" fill="#0F53D9"/>
<path d="M110.4 60.175C111.834 60.175 112.996 58.9585 112.996 57.458C112.996 55.9574 111.834 54.7409 110.4 54.7409C108.967 54.7409 107.805 55.9574 107.805 57.458C107.805 58.9585 108.967 60.175 110.4 60.175Z" fill="white"/>
</g>
<defs>
<clipPath id="clip0_3297_25568">
<rect width="138" height="141" fill="white" transform="translate(18 34)"/>
</clipPath>
</defs>
</svg>
