<svg width="175" height="175" viewBox="0 0 175 175" fill="none" xmlns="http://www.w3.org/2000/svg">
<circle cx="87.5" cy="87.5" r="87.5" fill="#FEFBFF"/>
<circle cx="87.5" cy="87.5" r="87.5" fill="#0F53D9" fill-opacity="0.08"/>
<g clip-path="url(#clip0_3297_25373)">
<path d="M11.8064 168.358C14.1367 172.703 19.0825 174.568 19.0825 174.568C19.0825 174.568 20.2501 169.389 17.9198 165.044C15.5894 160.699 10.6436 158.834 10.6436 158.834C10.6436 158.834 9.47605 164.013 11.8064 168.358Z" fill="#2F2E41"/>
<path d="M13.4081 166.929C17.6153 169.473 19.2356 174.528 19.2356 174.528C19.2356 174.528 14.0347 175.457 9.82753 172.912C5.62033 170.367 4 165.313 4 165.313C4 165.313 9.2009 164.384 13.4081 166.929Z" fill="#0F53D9"/>
<path d="M107.734 40.769H81.4841V41.146H107.734V40.769Z" fill="#F2F2F2"/>
<path d="M100.609 41.0517H100.234V44.5392H100.609V41.0517Z" fill="#F2F2F2"/>
<path d="M89.1716 41.0517H88.7966V44.5392H89.1716V41.0517Z" fill="#F2F2F2"/>
<path d="M121.047 58.8659H94.7966V59.2429H121.047V58.8659Z" fill="#F2F2F2"/>
<path d="M102.297 55.4727H101.922V58.9602H102.297V55.4727Z" fill="#F2F2F2"/>
<path d="M113.734 55.4727H113.359V58.9602H113.734V55.4727Z" fill="#F2F2F2"/>
<path d="M155.922 67.3489H129.672V67.7259H155.922V67.3489Z" fill="#F2F2F2"/>
<path d="M137.172 63.9557H136.797V67.4431H137.172V63.9557Z" fill="#F2F2F2"/>
<path d="M148.609 63.9557H148.234V67.4431H148.609V63.9557Z" fill="#F2F2F2"/>
<path d="M153.297 154.817H127.047V155.194H153.297V154.817Z" fill="#F2F2F2"/>
<path d="M134.547 151.424H134.172V154.912H134.547V151.424Z" fill="#F2F2F2"/>
<path d="M145.984 151.424H145.609V154.912H145.984V151.424Z" fill="#F2F2F2"/>
<path d="M108.484 94.3058H82.2341V94.6828H108.484V94.3058Z" fill="#F2F2F2"/>
<path d="M89.7341 90.9126H89.3591V94.4H89.7341V90.9126Z" fill="#F2F2F2"/>
<path d="M101.172 90.9126H100.797V94.4H101.172V90.9126Z" fill="#F2F2F2"/>
<path d="M116.734 139.737H90.4841V140.114H116.734V139.737Z" fill="#F2F2F2"/>
<path d="M97.9841 136.343H97.6091V139.831H97.9841V136.343Z" fill="#F2F2F2"/>
<path d="M109.422 136.343H109.047V139.831H109.422V136.343Z" fill="#F2F2F2"/>
<path d="M158.734 125.975H132.484V126.352H158.734V125.975Z" fill="#F2F2F2"/>
<path d="M139.984 122.582H139.609V126.07H139.984V122.582Z" fill="#F2F2F2"/>
<path d="M151.422 122.582H151.047V126.07H151.422V122.582Z" fill="#F2F2F2"/>
<path d="M71.8863 166.369H27.4889V166.048H71.5668V150.473H31.2213L29.2613 146.368L29.5493 146.229L31.4223 150.152H71.8863V166.369Z" fill="#2F2E41"/>
<path d="M33.3978 174.236C35.2501 174.236 36.7516 172.727 36.7516 170.864C36.7516 169.002 35.2501 167.493 33.3978 167.493C31.5456 167.493 30.0441 169.002 30.0441 170.864C30.0441 172.727 31.5456 174.236 33.3978 174.236Z" fill="#3F3D56"/>
<path d="M66.4563 174.236C68.3086 174.236 69.8101 172.727 69.8101 170.864C69.8101 169.002 68.3086 167.493 66.4563 167.493C64.6041 167.493 63.1026 169.002 63.1026 170.864C63.1026 172.727 64.6041 174.236 66.4563 174.236Z" fill="#3F3D56"/>
<path d="M105.424 101.341C106.57 101.341 107.5 100.406 107.5 99.2533C107.5 98.1005 106.57 97.1659 105.424 97.1659C104.277 97.1659 103.348 98.1005 103.348 99.2533C103.348 100.406 104.277 101.341 105.424 101.341Z" fill="#3F3D56"/>
<path d="M76.6348 145.174H26.7319L15.9341 109.69H87.7549L87.6895 109.899L76.6348 145.174ZM26.9682 144.853H76.4005L87.3194 110.011H16.3658L26.9682 144.853Z" fill="#2F2E41"/>
<path d="M72.7394 143.328H28.9079L19.4237 111.857H82.5064L82.449 112.043L72.7394 143.328Z" fill="#F2F2F2"/>
<path d="M88.6497 106.52L88.3409 106.437L90.4486 98.4504H102.709V98.7716H90.6944L88.6497 106.52Z" fill="#2F2E41"/>
<path d="M84.1659 120.448H19.4235V120.769H84.1659V120.448Z" fill="#2F2E41"/>
<path d="M80.4583 132.278H23.0236V132.6H80.4583V132.278Z" fill="#2F2E41"/>
<path d="M52.0032 109.85H51.6838V145.014H52.0032V109.85Z" fill="#2F2E41"/>
<path d="M66.3036 109.84L64.0108 145.003L64.3296 145.024L66.6224 109.861L66.3036 109.84Z" fill="#2F2E41"/>
<path d="M37.3901 109.84L37.0713 109.861L39.3508 145.024L39.6696 145.003L37.3901 109.84Z" fill="#2F2E41"/>
<path d="M172 174.44H4V174.817H172V174.44Z" fill="#2F2E41"/>
<path d="M115.64 45.6642C115.64 45.6642 118.38 53.5074 116.694 54.7141C115.007 55.9207 122.386 65.775 122.386 65.775L131.242 63.3617L126.392 55.1163C126.392 55.1163 125.76 46.8709 125.76 45.6642C125.76 44.4576 115.64 45.6642 115.64 45.6642Z" fill="#A0616A"/>
<path opacity="0.1" d="M115.64 45.6642C115.64 45.6642 118.38 53.5074 116.694 54.7141C115.007 55.9207 122.386 65.775 122.386 65.775L131.242 63.3617L126.392 55.1163C126.392 55.1163 125.76 46.8709 125.76 45.6642C125.76 44.4576 115.64 45.6642 115.64 45.6642Z" fill="black"/>
<path d="M111.039 101.572C111.039 101.572 110.239 111.627 111.039 116.856C111.839 122.085 113.039 136.565 113.039 136.565C113.039 136.565 113.039 163.915 117.44 164.318C121.84 164.72 125.041 165.122 125.441 163.513C125.841 161.904 123.441 161.1 124.641 160.296C125.841 159.491 126.241 156.676 124.641 153.458C123.041 150.24 124.641 117.661 124.641 117.661L132.242 138.174C132.242 138.174 133.042 155.067 133.842 157.48C134.642 159.893 133.042 164.318 135.843 164.72C138.643 165.122 141.843 162.709 143.444 161.904C145.044 161.1 141.043 161.1 141.843 160.698C142.644 160.296 145.044 159.089 144.244 158.687C143.444 158.284 142.644 138.978 142.644 138.978C142.644 138.978 140.443 97.7511 137.643 96.1422C134.842 94.5334 133.042 97.3045 133.042 97.3045L111.039 101.572Z" fill="#2F2E41"/>
<path d="M118.24 162.709V165.927C118.24 165.927 114.639 174.673 118.24 174.673C121.84 174.673 124.641 175.58 124.641 174.373V163.513L118.24 162.709Z" fill="#2F2E41"/>
<path d="M141.843 162.703V165.921C141.843 165.921 145.444 174.668 141.843 174.668C138.243 174.668 135.442 175.574 135.442 174.367V163.508L141.843 162.703Z" fill="#2F2E41"/>
<path d="M121.24 51.4964C125.217 51.4964 128.441 48.255 128.441 44.2565C128.441 40.258 125.217 37.0166 121.24 37.0166C117.263 37.0166 114.039 40.258 114.039 44.2565C114.039 48.255 117.263 51.4964 121.24 51.4964Z" fill="#A0616A"/>
<path d="M119.04 57.7307C119.04 57.7307 121.04 63.7639 124.241 62.5573L127.441 61.3506L133.042 99.9633C133.042 99.9633 128.641 106.399 122.24 102.377C115.84 98.3544 119.04 57.7307 119.04 57.7307Z" fill="#0F53D9"/>
<path d="M124.641 56.524L126.441 52.703C126.441 52.703 137.043 57.7307 138.643 59.3396C140.243 60.9484 140.243 63.3617 140.243 63.3617L137.443 73.4171C137.443 73.4171 138.243 95.5389 138.243 96.3433C138.243 97.1478 141.043 101.572 139.043 99.9633C137.043 98.3544 136.643 96.7456 135.042 99.1588C133.442 101.572 129.842 104.388 129.842 104.388L124.641 56.524Z" fill="#3F3D56"/>
<path d="M138.643 85.4835L137.443 96.7455C137.443 96.7455 130.242 103.181 131.842 103.583C133.442 103.985 134.242 102.377 134.242 102.377C134.242 102.377 137.043 105.192 138.643 103.583C140.243 101.974 144.244 86.6902 144.244 86.6902L138.643 85.4835Z" fill="#A0616A"/>
<path d="M121.394 34.0245C119.797 33.9671 118.089 33.9387 116.743 34.8036C116.124 35.2377 115.581 35.7723 115.136 36.3855C113.825 38.0517 112.692 40.148 113.179 42.2153L113.745 41.9935C113.745 42.5453 113.623 43.0902 113.387 43.5888C113.467 43.356 113.734 43.7323 113.662 43.9678L113.039 46.0227C114.063 45.6453 115.337 46.4095 115.493 47.4949C115.565 45.1082 115.811 42.3713 117.737 40.9738C118.708 40.269 119.937 40.0538 121.119 39.8628C122.21 39.6865 123.354 39.5184 124.399 39.8795C125.444 40.2406 126.334 41.315 126.097 42.4001C126.579 42.2332 127.117 42.5708 127.356 43.0238C127.594 43.4767 127.606 44.0111 127.613 44.5234C128.127 44.8883 128.711 44.1637 128.921 43.5674C129.412 42.1679 129.849 40.6781 129.584 39.2179C129.319 37.7578 128.136 36.3624 126.66 36.3575C126.839 36.1596 126.935 35.8994 126.926 35.632L125.71 35.5286C126.018 35.4846 126.303 35.334 126.513 35.1027C126.025 35.6431 122.184 34.0529 121.394 34.0245Z" fill="#2F2E41"/>
<path d="M121.04 55.3174C121.04 55.3174 117.784 52.1088 116.612 52.3053C115.439 52.5019 113.839 55.3174 113.839 55.3174C113.839 55.3174 104.238 58.5351 104.638 61.7528C105.038 64.9706 109.439 80.6569 109.439 80.6569C109.439 80.6569 113.039 99.5611 109.839 101.572C106.638 103.583 125.041 108.812 125.441 106.399C125.841 103.985 126.641 79.8525 125.441 76.2326C124.241 72.6126 121.04 55.3174 121.04 55.3174Z" fill="#3F3D56"/>
<path d="M135.042 61.7528H139.989C139.989 61.7528 143.444 77.037 143.844 78.6459C144.244 80.2547 145.044 87.8968 144.644 87.8968C144.244 87.8968 136.243 86.288 136.243 87.4946L135.042 61.7528Z" fill="#3F3D56"/>
<path d="M134.875 99.6014H115.938C114.089 91.0544 113.935 82.7964 115.938 74.9066H134.875C131.819 82.6545 131.628 90.8559 134.875 99.6014Z" fill="#F2F2F2"/>
<path d="M108.238 89.1035L113.839 91.5168C113.839 91.5168 124.641 93.1256 124.641 88.7013C124.641 84.2769 113.839 86.6902 113.839 86.6902L110.238 85.5327L108.238 89.1035Z" fill="#A0616A"/>
<path d="M109.439 59.3395L104.638 60.5462L101.037 81.8636C101.037 81.8636 99.8371 87.4946 101.837 87.8968C103.838 88.299 109.439 91.5168 109.439 91.5168C109.439 91.5168 110.239 85.4835 111.839 85.4835L107.838 82.2658L110.239 68.1883L109.439 59.3395Z" fill="#3F3D56"/>
<path d="M41.5466 100.527H15.2966V100.904H41.5466V100.527Z" fill="#F2F2F2"/>
<path d="M22.7966 97.1334H22.4216V100.621H22.7966V97.1334Z" fill="#F2F2F2"/>
<path d="M34.2341 97.1334H33.8591V100.621H34.2341V97.1334Z" fill="#F2F2F2"/>
<path d="M50.7341 44.7277H24.4841V45.1047H50.7341V44.7277Z" fill="#F2F2F2"/>
<path d="M43.6091 45.0104H43.2341V48.4979H43.6091V45.0104Z" fill="#F2F2F2"/>
<path d="M32.1716 45.0104H31.7966V48.4979H32.1716V45.0104Z" fill="#F2F2F2"/>
<path d="M77.1716 81.8641H50.9216V82.2411H77.1716V81.8641Z" fill="#F2F2F2"/>
<path d="M70.0466 82.1469H69.6716V85.6343H70.0466V82.1469Z" fill="#F2F2F2"/>
<path d="M58.6091 82.1469H58.2341V85.6343H58.6091V82.1469Z" fill="#F2F2F2"/>
<path d="M32.5466 81.6756H6.2966V82.0526H32.5466V81.6756Z" fill="#F2F2F2"/>
<path d="M25.4216 81.9584H25.0466V85.4458H25.4216V81.9584Z" fill="#F2F2F2"/>
<path d="M13.9841 81.9584H13.6091V85.4458H13.9841V81.9584Z" fill="#F2F2F2"/>
<path d="M64.0466 62.8246H37.7966V63.2016H64.0466V62.8246Z" fill="#F2F2F2"/>
<path d="M45.2966 59.4314H44.9216V62.9189H45.2966V59.4314Z" fill="#F2F2F2"/>
<path d="M56.7341 59.4314H56.3591V62.9189H56.7341V59.4314Z" fill="#F2F2F2"/>
</g>
<defs>
<clipPath id="clip0_3297_25373">
<rect width="168" height="141" fill="white" transform="translate(4 34)"/>
</clipPath>
</defs>
</svg>
