<svg width="235" height="179" viewBox="0 0 235 179" fill="none" xmlns="http://www.w3.org/2000/svg">
<g clip-path="url(#clip0_6776_834)">
<path d="M157.484 50.4016C162.526 36.9797 174.437 25.3823 188.831 24.0028C180.177 37.0058 176.447 52.6207 178.3 68.0849C179.037 74.0462 180.483 80.6007 177.238 85.6745C175.218 88.8315 171.66 90.7751 167.991 91.6522C164.323 92.5292 160.5 92.4613 156.727 92.3883L155.882 92.8013C153.229 78.7244 152.443 63.8235 157.484 50.4016Z" fill="#F0F0F0"/>
<path d="M188.9 24.2952C179.088 31.0834 171.684 40.7607 167.742 51.9525C166.912 54.3553 166.282 56.8642 166.245 59.4157C166.229 61.903 166.886 64.3493 168.148 66.5002C169.283 68.5292 170.682 70.4743 171.3 72.7413C171.951 75.1308 171.42 77.548 170.09 79.6125C168.463 82.1384 166.016 83.9347 163.562 85.609C160.837 87.468 157.976 89.3562 156.309 92.2765C156.107 92.6304 155.564 92.2993 155.766 91.9459C158.667 86.865 164.755 85.0194 168.48 80.7036C170.218 78.6897 171.353 76.1451 170.816 73.4635C170.346 71.1185 168.905 69.1114 167.738 67.0669C166.512 64.9201 165.711 62.6922 165.617 60.2084C165.522 57.6676 166.055 55.129 166.819 52.7157C168.593 47.2562 171.223 42.1067 174.612 37.4561C178.451 32.1271 183.181 27.4877 188.6 23.7384C188.935 23.5065 189.234 24.0648 188.9 24.2952Z" fill="white"/>
<path d="M168.797 48.2748C166.991 47.3649 165.57 45.8488 164.788 43.9973C164.006 42.1457 163.914 40.0792 164.529 38.1668C164.655 37.7803 165.267 37.9556 165.141 38.3427C164.566 40.1224 164.651 42.0473 165.383 43.77C166.114 45.4928 167.444 46.8998 169.131 47.7371C169.498 47.9195 169.162 48.4561 168.797 48.2748Z" fill="white"/>
<path d="M167.435 65.5466C171.386 64.311 174.721 61.6463 176.776 58.0838C176.979 57.7307 177.522 58.0617 177.319 58.4144C175.174 62.1176 171.697 64.8837 167.583 66.1605C167.191 66.2819 167.045 65.6673 167.435 65.5466Z" fill="white"/>
<path d="M178.887 32.8439C179.512 33.3401 180.252 33.6749 181.039 33.8182C181.827 33.9615 182.639 33.9088 183.401 33.6648C183.791 33.5385 183.937 34.1532 183.549 34.2787C182.705 34.5444 181.809 34.6016 180.938 34.4452C180.068 34.2888 179.249 33.9236 178.553 33.3815C178.483 33.3359 178.434 33.2656 178.414 33.185C178.395 33.1043 178.407 33.0194 178.449 32.9474C178.493 32.8765 178.564 32.8258 178.646 32.8064C178.728 32.787 178.815 32.8005 178.887 32.8439Z" fill="white"/>
<path d="M223.526 58.2152C223.284 58.301 223.043 58.3867 222.8 58.4775C219.558 59.6467 216.418 61.0747 213.41 62.7475C213.176 62.8732 212.94 63.004 212.709 63.1361C205.506 67.2426 199.135 72.6377 193.921 79.0471C191.849 81.5995 189.975 84.3042 188.317 87.138C186.027 91.0518 183.859 95.4756 180.497 98.3278C180.149 98.6293 179.783 98.9091 179.401 99.1658L156.457 93.7897C156.411 93.7516 156.363 93.7185 156.317 93.6803L155.391 93.5072C155.466 93.3551 155.548 93.199 155.623 93.0469C155.666 92.9585 155.714 92.8713 155.758 92.783C155.788 92.7244 155.819 92.6659 155.843 92.6113C155.853 92.5918 155.863 92.5723 155.872 92.558C155.896 92.5034 155.925 92.4553 155.947 92.4059C156.399 91.532 156.858 90.6598 157.324 89.7891C157.326 89.7839 157.326 89.7839 157.332 89.7799C160.9 83.1551 165.058 76.767 170.062 71.2069C170.213 71.0397 170.364 70.8672 170.526 70.7024C172.795 68.2085 175.267 65.9026 177.917 63.8075C179.371 62.6649 180.883 61.596 182.447 60.6048C186.492 58.0514 190.917 56.144 195.561 54.9523C204.818 52.5782 214.739 53.1622 222.905 57.8509C223.114 57.971 223.318 58.0899 223.526 58.2152Z" fill="#F0F0F0"/>
<path d="M223.405 58.4915C211.443 58.0614 199.648 61.3746 189.696 67.9603C187.572 69.3841 185.543 71.0114 183.963 73.027C182.438 75.0033 181.475 77.348 181.174 79.8175C180.847 82.1145 180.781 84.5015 179.896 86.6798C178.963 88.9758 177.07 90.5895 174.753 91.445C171.918 92.4916 168.872 92.4672 165.894 92.3408C162.588 92.2004 159.156 92.0028 156.049 93.3405C155.673 93.5025 155.441 92.9146 155.817 92.7528C161.222 90.4255 167.206 92.5816 172.804 91.3562C175.416 90.7844 177.87 89.4296 179.071 86.9681C180.122 84.8157 180.192 82.3542 180.502 80.0256C180.829 77.5806 181.544 75.3242 182.979 73.2853C184.448 71.1997 186.417 69.4904 188.494 68.0192C193.23 64.7176 198.461 62.174 203.995 60.4814C210.3 58.515 216.898 57.6311 223.504 57.8679C223.913 57.8827 223.812 58.5062 223.405 58.4915Z" fill="white"/>
<path d="M192.774 65.653C191.885 63.8496 191.672 61.7918 192.174 59.8473C192.675 57.9028 193.859 56.1982 195.512 55.0378C195.848 54.8041 196.23 55.3093 195.894 55.5432C194.352 56.621 193.25 58.209 192.787 60.0206C192.324 61.8323 192.53 63.7483 193.368 65.4228C193.55 65.7869 192.955 66.015 192.774 65.653Z" fill="white"/>
<path d="M181.185 78.6313C185.09 80 189.374 79.8609 193.18 78.2414C193.557 78.0807 193.789 78.6685 193.413 78.8291C189.448 80.507 184.991 80.6428 180.93 79.2096C180.543 79.0727 180.8 78.4951 181.185 78.6313Z" fill="white"/>
<path d="M210.213 59.3474C210.41 60.1162 210.797 60.8245 211.339 61.4086C211.881 61.9927 212.561 62.4344 213.318 62.6939C213.706 62.8259 213.448 63.4034 213.062 63.2723C212.227 62.9816 211.477 62.4929 210.877 61.8489C210.277 61.2049 209.845 60.4251 209.619 59.5777C209.591 59.4996 209.594 59.4138 209.628 59.3379C209.661 59.2619 209.723 59.2014 209.8 59.1687C209.878 59.1387 209.966 59.1405 210.043 59.174C210.121 59.2075 210.181 59.2698 210.213 59.3474Z" fill="white"/>
<path d="M24.5439 173.429C11.4089 167.438 0.629802 154.801 0.327637 140.484C12.768 150.011 28.2105 154.873 43.9228 154.211C49.9815 153.934 56.691 153.001 61.5551 156.589C64.5818 158.821 66.2702 162.481 66.8764 166.17C67.4826 169.858 67.1255 173.627 66.7671 177.347L67.1192 178.213C52.7434 179.77 37.6789 179.421 24.5439 173.429Z" fill="#F0F0F0"/>
<path d="M0.627538 140.437C6.72223 150.639 15.9081 158.68 26.8805 163.417C29.2374 164.418 31.7163 165.23 34.2829 165.459C36.7864 165.663 39.2993 165.199 41.5605 164.116C43.6894 163.148 45.7539 161.913 48.0833 161.475C50.5386 161.012 52.9328 161.719 54.9112 163.188C57.3319 164.985 58.956 167.537 60.4567 170.087C62.1229 172.918 63.8082 175.885 66.6231 177.752C66.9642 177.978 66.5898 178.489 66.2492 178.263C61.3518 175.015 59.9531 168.864 55.8883 164.86C53.9916 162.992 51.5149 161.679 48.774 162.007C46.3772 162.294 44.2472 163.565 42.1002 164.563C39.8459 165.612 37.5419 166.234 35.0337 166.139C32.4679 166.041 29.9518 165.324 27.5793 164.387C22.2155 162.223 17.2287 159.237 12.8015 155.539C7.72512 151.347 3.41045 146.325 0.0441395 140.692C-0.164081 140.343 0.420692 140.091 0.627538 140.437Z" fill="white"/>
<path d="M23.2566 162.098C22.204 163.813 20.57 165.101 18.6464 165.734C16.7229 166.366 14.635 166.3 12.7557 165.549C12.376 165.395 12.5988 164.804 12.979 164.957C14.7277 165.66 16.6726 165.721 18.4626 165.129C20.2526 164.537 21.7698 163.33 22.7404 161.727C22.9518 161.379 23.4668 161.752 23.2566 162.098Z" fill="white"/>
<path d="M40.5463 164.747C39.6004 160.753 37.1689 157.259 33.7367 154.961C33.3965 154.733 33.7708 154.223 34.1106 154.45C37.6777 156.848 40.2006 160.489 41.1756 164.648C41.2683 165.044 40.6384 165.142 40.5463 164.747Z" fill="white"/>
<path d="M8.47988 150.97C9.0268 150.391 9.4198 149.686 9.62358 148.919C9.82736 148.152 9.83554 147.346 9.64738 146.575C9.54969 146.18 10.1797 146.083 10.2768 146.476C10.4806 147.328 10.4705 148.218 10.2473 149.066C10.024 149.914 9.59444 150.695 8.99607 151.34C8.94482 151.406 8.87029 151.45 8.78763 151.463C8.70496 151.476 8.62037 151.457 8.55104 151.411C8.48294 151.362 8.43726 151.288 8.42394 151.205C8.41062 151.123 8.43072 151.038 8.47988 150.97Z" fill="white"/>
<path d="M37.3997 108.81C37.4678 109.055 37.5359 109.3 37.609 109.547C38.5416 112.836 39.7425 116.044 41.1998 119.141C41.3087 119.382 41.4226 119.624 41.5382 119.862C45.1295 127.285 50.0813 133.982 56.1417 139.615C58.5554 141.854 61.1376 143.908 63.866 145.759C67.6342 148.316 71.9253 150.79 74.5435 154.326C74.8208 154.692 75.075 155.074 75.3046 155.471L68.1582 177.72C68.1164 177.763 68.0795 177.807 68.0376 177.85L67.7933 178.751C67.6458 178.665 67.4948 178.573 67.3473 178.488C67.2616 178.438 67.1774 178.384 67.0917 178.334C67.035 178.3 66.9784 178.265 66.9253 178.237C66.9064 178.226 66.8876 178.214 66.8738 178.204C66.8206 178.176 66.7743 178.145 66.7263 178.119C65.8804 177.606 65.0368 177.087 64.1952 176.561C64.1901 176.56 64.1901 176.56 64.1865 176.553C57.7848 172.53 51.666 167.942 46.4449 162.581C46.2879 162.42 46.1257 162.257 45.9719 162.085C43.632 159.656 41.4966 157.041 39.5869 154.267C38.5462 152.744 37.584 151.171 36.7039 149.552C34.4381 145.365 32.8515 140.852 32.0022 136.177C30.3105 126.857 31.6478 117.105 36.986 109.395C37.1227 109.198 37.2579 109.006 37.3997 108.81Z" fill="#F0F0F0"/>
<path d="M37.6688 108.95C36.3323 120.729 38.7779 132.625 44.6582 142.95C45.9316 145.154 47.417 147.28 49.3273 148.993C51.2023 150.648 53.4907 151.776 55.9548 152.259C58.2431 152.756 60.6419 153.001 62.7686 154.039C65.0102 155.134 66.4921 157.125 67.1786 159.478C68.0185 162.356 67.7639 165.362 67.4117 168.292C67.0207 171.546 66.5625 174.92 67.6749 178.089C67.8097 178.473 67.2002 178.657 67.0656 178.274C65.1303 172.761 67.7533 167.016 66.942 161.396C66.5634 158.773 65.3845 156.248 62.9966 154.876C60.9084 153.676 58.435 153.421 56.1136 152.938C53.6761 152.431 51.4579 151.555 49.5132 149.984C47.5239 148.376 45.9514 146.303 44.6267 144.14C41.6597 139.215 39.4933 133.858 38.2067 128.266C36.7027 121.892 36.3109 115.31 37.0482 108.806C37.094 108.403 37.7143 108.55 37.6688 108.95Z" fill="white"/>
<path d="M42.5671 139.736C40.6839 140.477 38.5957 140.532 36.6755 139.89C34.7553 139.248 33.128 137.951 32.0844 136.231C31.8744 135.882 32.412 135.542 32.6222 135.892C33.5911 137.495 35.107 138.703 36.8963 139.298C38.6856 139.892 40.6306 139.833 42.38 139.132C42.7604 138.98 42.9453 139.585 42.5671 139.736Z" fill="white"/>
<path d="M54.7608 152.159C56.4341 148.406 56.6174 144.166 55.2741 140.285C55.1407 139.901 55.7502 139.716 55.8834 140.1C57.2737 144.141 57.0739 148.553 55.3239 152.455C55.1569 152.826 54.5947 152.529 54.7608 152.159Z" fill="white"/>
<path d="M37.5343 122.041C38.3234 121.905 39.0658 121.576 39.6949 121.085C40.324 120.594 40.8202 119.956 41.1387 119.228C41.3009 118.854 41.863 119.153 41.7018 119.524C41.3461 120.326 40.7973 121.03 40.1035 121.574C39.4096 122.118 38.5918 122.486 37.7214 122.645C37.6406 122.666 37.5545 122.657 37.4805 122.618C37.4066 122.579 37.3503 122.514 37.3232 122.436C37.2988 122.356 37.3074 122.269 37.3469 122.195C37.3864 122.122 37.4538 122.066 37.5343 122.041Z" fill="white"/>
<path d="M54.7874 94.3104C43.1809 82.9963 38.2789 71.1929 40.9839 61.0748C44.4554 48.0903 59.8773 39.1126 83.2953 36.4437L83.3818 37.1885C60.2898 39.8201 45.1031 48.5963 41.7157 61.2666C39.0831 71.1135 43.914 82.659 55.3186 93.7764L54.7874 94.3104Z" fill="#F0F0F0"/>
<path d="M166.771 134.472C152.285 134.472 136.544 132.34 120.909 128.241C101.573 123.173 83.8446 115.522 69.6396 106.116L70.0603 105.493C84.1969 114.853 101.847 122.469 121.102 127.517C138.503 132.079 156.034 134.192 171.795 133.635L171.822 134.383C170.158 134.443 168.474 134.472 166.771 134.472Z" fill="#F0F0F0"/>
<path d="M200.003 129.758L199.761 129.048C212.716 124.711 220.819 117.723 223.194 108.841C226.213 97.55 219.655 84.4471 204.728 71.9463C189.724 59.3819 168.09 48.9567 143.808 42.5914L144.001 41.8667C168.389 48.26 190.13 58.7392 205.216 71.374C220.379 84.0721 227.024 97.4464 223.926 109.033C221.483 118.17 213.211 125.336 200.003 129.758Z" fill="#F0F0F0"/>
<path d="M81.0419 134.785C52.5784 122.285 30.6451 106.067 19.2827 89.119L19.9133 88.7043C31.1972 105.535 53.0153 121.657 81.3487 134.1L81.0419 134.785Z" fill="#F0F0F0"/>
<path d="M181.117 156.441C178.181 156.441 175.195 156.376 172.159 156.247L172.192 155.498C194.85 156.469 214.841 153.784 230.009 147.731L230.292 148.427C217.061 153.706 200.197 156.441 181.117 156.441Z" fill="#F0F0F0"/>
<path d="M164.602 37.1159C159.897 35.5992 155.058 34.187 150.219 32.9184C122.373 25.6185 94.999 23.0267 71.0566 25.4246L70.9805 24.6786C95.0121 22.2729 122.479 24.871 150.413 32.1938C155.266 33.466 160.119 34.8822 164.836 36.4033L164.602 37.1159Z" fill="#F0F0F0"/>
<path d="M36.9984 95.4348C25.3918 84.1207 20.4898 72.3173 23.1948 62.1992C26.6663 49.2147 42.0882 40.237 65.5062 37.5681L65.5927 38.3129C42.5007 40.9445 27.314 49.7207 23.9267 62.391C21.2941 72.2379 26.125 83.7834 37.5295 94.9007L36.9984 95.4348Z" fill="#F0F0F0"/>
<path d="M148.982 135.596C134.496 135.596 118.755 133.465 103.12 129.366C83.7841 124.297 66.0555 116.646 51.8506 107.24L52.2712 106.617C66.4078 115.978 84.0578 123.594 103.313 128.641C120.714 133.203 138.245 135.317 154.005 134.759L154.033 135.508C152.368 135.567 150.685 135.596 148.982 135.596Z" fill="#F0F0F0"/>
<path d="M182.214 130.882L181.972 130.172C194.927 125.835 203.03 118.848 205.405 109.966C208.424 98.6742 201.866 85.5713 186.939 73.0705C171.935 60.5062 150.301 50.081 126.019 43.7157L126.212 42.991C150.6 49.3843 172.34 59.8635 187.427 72.4983C202.59 85.1964 209.235 98.5706 206.137 110.157C203.694 119.294 195.422 126.461 182.214 130.882Z" fill="#F0F0F0"/>
<path d="M63.2528 135.909C34.7893 123.409 12.8561 107.191 1.49365 90.2433L2.12422 89.8286C13.4081 106.659 35.2262 122.781 63.5596 135.224L63.2528 135.909Z" fill="#F0F0F0"/>
<path d="M163.328 157.565C160.392 157.565 157.406 157.501 154.37 157.371L154.403 156.622C177.061 157.593 197.052 154.908 212.22 148.856L212.503 149.551C199.272 154.83 182.407 157.565 163.328 157.565Z" fill="#F0F0F0"/>
<path d="M146.813 38.2402C142.109 36.7235 137.27 35.3113 132.431 34.0427C104.584 26.7428 77.2104 24.151 53.268 26.5488L53.1919 25.8029C77.2235 23.3972 104.691 25.9952 132.625 33.318C137.477 34.5903 142.33 36.0065 147.048 37.5276L146.813 38.2402Z" fill="#F0F0F0"/>
<path d="M71.6127 93.898C70.0573 93.8997 68.5661 94.5123 67.4663 95.6013C66.3665 96.6904 65.7479 98.167 65.7461 99.7072C63.5157 115.969 62.7708 132.397 63.5205 148.792C63.565 149.839 63.6144 150.796 63.6717 151.72C63.7548 153.245 63.8605 154.856 63.9857 156.507C64.0575 157.481 64.1333 158.459 64.2163 159.433C64.3553 161.019 64.5079 162.631 64.6704 164.223C64.7724 165.196 64.8783 166.174 64.9916 167.147C65.2091 169.06 65.4552 171.02 65.7445 173.14C65.7416 174.684 66.3581 176.166 67.4586 177.26C68.559 178.355 70.0533 178.971 71.6127 178.975H170.02C171.575 178.973 173.066 178.36 174.166 177.271C175.266 176.182 175.884 174.705 175.886 173.165L175.891 173.125C176.329 171.148 176.737 169.132 177.104 167.135C177.301 166.082 177.47 165.126 177.622 164.211C177.898 162.547 178.144 160.936 178.352 159.423C178.494 158.407 178.623 157.424 178.734 156.499C178.917 154.984 179.083 153.419 179.24 151.714C179.327 150.787 179.406 149.829 179.482 148.787V148.787C180.686 132.354 179.476 115.836 175.891 99.7474L175.886 99.7072C175.884 98.167 175.266 96.6904 174.166 95.6013C173.066 94.5123 171.575 93.8997 170.02 93.8979L71.6127 93.898Z" fill="#00174C"/>
<path d="M124.636 118.767C103.314 118.767 80.7198 116.849 51.1493 113.01H51.1462C49.6132 113.008 48.1349 112.446 46.9948 111.431C45.8547 110.417 45.1329 109.021 44.9679 107.512C44.9409 107.285 44.9279 107.056 44.9289 106.828V89.2129C44.9282 89.1753 44.9299 89.1376 44.934 89.1002C44.9673 87.4817 45.6388 85.9404 46.8049 84.8058C47.971 83.6712 49.5391 83.0335 51.1739 83.029C102.62 76.1024 133.872 76.1031 190.481 83.0304H190.483C192.117 83.0411 193.682 83.6841 194.844 84.822C196.005 85.96 196.671 87.5027 196.699 89.1203C196.702 89.1511 196.704 89.182 196.703 89.2129V106.828C196.704 107.057 196.69 107.286 196.663 107.513C196.496 109.026 195.77 110.425 194.624 111.44C193.479 112.455 191.995 113.015 190.458 113.012C166 116.848 145.954 118.767 124.636 118.767Z" fill="#0F53D9"/>
<path d="M128.057 131.002H115.119C113.473 131 111.894 130.351 110.73 129.198C109.566 128.045 108.911 126.482 108.909 124.852V78.3101C108.911 76.6796 109.566 75.1164 110.73 73.9635C111.894 72.8106 113.473 72.162 115.119 72.1602H128.057C129.703 72.162 131.282 72.8105 132.446 73.9634C133.611 75.1164 134.266 76.6796 134.267 78.3101V124.852C134.266 126.482 133.611 128.045 132.446 129.198C131.282 130.351 129.703 131 128.057 131.002Z" fill="#00174C"/>
<path d="M157.429 63.2545C157.335 62.382 157.17 61.5184 156.935 60.6723C156.682 59.8245 156.361 58.9979 155.976 58.2002C154.596 55.2676 152.269 52.8742 149.361 51.3983C145.752 49.6393 141.624 49.4953 137.744 50.3429C134.483 51.0663 131.42 52.4861 128.77 54.5032C127.397 55.5282 126.141 56.7005 125.028 57.9987C123.878 59.3645 121.739 63.1172 121.585 63.4646C120.376 60.7464 118.641 58.289 116.479 56.2309C113.965 53.868 110.964 52.0722 107.682 50.9668C105.938 50.3848 104.127 50.0202 102.291 49.8817C100.348 49.7218 98.3928 49.8907 96.5077 50.3813C93.1216 51.3203 90.1926 53.4404 88.2614 56.3503C86.4212 59.0548 85.5174 62.2778 85.686 65.5346C85.7791 67.179 86.1372 68.798 86.7467 70.3303C87.0734 71.1598 87.4608 71.9646 87.9059 72.7382C88.3664 73.5023 88.8814 74.233 89.4469 74.9246C91.6657 77.6209 94.6544 79.5916 98.0223 80.5791C101.618 81.6795 105.432 81.7155 109.129 81.1988C112.926 80.6683 116.581 79.4512 120.157 78.1183C120.634 77.9405 121.109 77.7575 121.585 77.5764C124.764 78.7874 127.97 79.9554 131.298 80.6967C135.042 81.592 138.927 81.7463 142.732 81.1508C146.278 80.5744 149.574 78.9798 152.213 76.5647C154.655 74.2895 156.363 71.3511 157.125 68.1182C157.501 66.5253 157.604 64.8811 157.429 63.2545ZM108.142 77.5781C106.09 77.8385 104.013 77.8505 101.958 77.614C100.485 77.4026 99.0424 77.0222 97.6582 76.4806C94.3958 75.1353 91.795 72.5783 90.413 69.3575C89.9999 68.3421 89.7058 67.2832 89.5362 66.2014C89.4275 65.2391 89.4272 64.2677 89.5353 63.3052C89.6963 62.2927 89.9721 61.3013 90.3575 60.35C90.7744 59.4247 91.292 58.5472 91.9012 57.7331C92.4919 57.0047 93.1594 56.3408 93.8924 55.7527C94.5872 55.2437 95.335 54.8099 96.123 54.4584C97.0635 54.0947 98.0418 53.8355 99.0401 53.6857C100.392 53.5375 101.757 53.5481 103.107 53.7172C104.713 53.9627 106.285 54.3918 107.792 54.9958C109.394 55.6844 110.908 56.5585 112.302 57.6C113.593 58.6121 114.762 59.7667 115.788 61.0412C116.804 62.3793 117.656 63.832 118.326 65.369C118.977 66.9725 119.435 68.6466 119.689 70.3565L119.692 70.3815C119.593 71.2406 119.543 72.1047 119.543 72.9694C119.544 73.3025 119.559 73.6352 119.576 73.9677C119.416 74.1201 119.282 74.2977 119.181 74.4932C116.545 75.5174 113.842 76.3661 111.092 77.0336C110.117 77.2565 109.133 77.438 108.142 77.5781ZM153.642 66.2014C153.472 67.2832 153.178 68.3423 152.765 69.3578C151.39 72.583 148.787 75.142 145.52 76.4806C144.136 77.0222 142.693 77.4026 141.22 77.614C139.161 77.8509 137.081 77.8385 135.025 77.5768C131.373 77.0598 127.851 75.9184 124.405 74.6447C124.264 74.5922 124.123 74.5369 123.981 74.4841C123.885 74.2915 123.757 74.1158 123.604 73.9643C123.664 72.7575 123.627 71.5479 123.491 70.3471C123.745 68.6405 124.202 66.9695 124.852 65.369C125.522 63.8321 126.374 62.3794 127.39 61.0414C128.416 59.7668 129.586 58.6122 130.876 57.6C132.27 56.5585 133.784 55.6844 135.387 54.9958C136.893 54.3918 138.465 53.9628 140.071 53.7172C141.421 53.5481 142.786 53.5375 144.138 53.6857C145.136 53.8355 146.115 54.0947 147.055 54.4584C147.843 54.8099 148.591 55.2438 149.286 55.7528C150.019 56.3409 150.686 57.0048 151.277 57.7333C151.886 58.5473 152.404 59.4247 152.821 60.35C153.206 61.3013 153.482 62.2927 153.643 63.3052C153.751 64.2677 153.751 65.239 153.642 66.2014Z" fill="#00174C"/>
<path d="M82.2104 133.063C83.4646 133.063 84.4813 132.056 84.4813 130.814C84.4813 129.572 83.4646 128.566 82.2104 128.566C80.9562 128.566 79.9395 129.572 79.9395 130.814C79.9395 132.056 80.9562 133.063 82.2104 133.063Z" fill="#0F53D9"/>
<path d="M98.4853 127.441C99.7395 127.441 100.756 126.434 100.756 125.193C100.756 123.951 99.7395 122.944 98.4853 122.944C97.2311 122.944 96.2144 123.951 96.2144 125.193C96.2144 126.434 97.2311 127.441 98.4853 127.441Z" fill="#0F53D9"/>
<path d="M91.2939 145.056C92.5481 145.056 93.5648 144.049 93.5648 142.808C93.5648 141.566 92.5481 140.559 91.2939 140.559C90.0397 140.559 89.0229 141.566 89.0229 142.808C89.0229 144.049 90.0397 145.056 91.2939 145.056Z" fill="#0F53D9"/>
<path d="M158.665 133.063C159.919 133.063 160.936 132.056 160.936 130.814C160.936 129.572 159.919 128.566 158.665 128.566C157.411 128.566 156.394 129.572 156.394 130.814C156.394 132.056 157.411 133.063 158.665 133.063Z" fill="#0F53D9"/>
<path d="M142.39 127.441C143.644 127.441 144.661 126.434 144.661 125.193C144.661 123.951 143.644 122.944 142.39 122.944C141.135 122.944 140.119 123.951 140.119 125.193C140.119 126.434 141.135 127.441 142.39 127.441Z" fill="#0F53D9"/>
<path d="M149.581 145.056C150.835 145.056 151.852 144.049 151.852 142.808C151.852 141.566 150.835 140.559 149.581 140.559C148.327 140.559 147.31 141.566 147.31 142.808C147.31 144.049 148.327 145.056 149.581 145.056Z" fill="#0F53D9"/>
<path d="M160.557 172.416C161.811 172.416 162.828 171.409 162.828 170.167C162.828 168.925 161.811 167.918 160.557 167.918C159.303 167.918 158.286 168.925 158.286 170.167C158.286 171.409 159.303 172.416 160.557 172.416Z" fill="#0F53D9"/>
<path d="M166.234 156.3C167.489 156.3 168.505 155.293 168.505 154.051C168.505 152.809 167.489 151.802 166.234 151.802C164.98 151.802 163.963 152.809 163.963 154.051C163.963 155.293 164.98 156.3 166.234 156.3Z" fill="#0F53D9"/>
<path d="M148.446 163.421C149.7 163.421 150.717 162.414 150.717 161.172C150.717 159.93 149.7 158.923 148.446 158.923C147.192 158.923 146.175 159.93 146.175 161.172C146.175 162.414 147.192 163.421 148.446 163.421Z" fill="#0F53D9"/>
<path d="M95.4575 172.416C96.7117 172.416 97.7284 171.409 97.7284 170.167C97.7284 168.925 96.7117 167.918 95.4575 167.918C94.2033 167.918 93.1865 168.925 93.1865 170.167C93.1865 171.409 94.2033 172.416 95.4575 172.416Z" fill="#0F53D9"/>
<path d="M101.135 156.3C102.389 156.3 103.406 155.293 103.406 154.051C103.406 152.809 102.389 151.802 101.135 151.802C99.8805 151.802 98.8638 152.809 98.8638 154.051C98.8638 155.293 99.8805 156.3 101.135 156.3Z" fill="#0F53D9"/>
<path d="M83.3456 163.421C84.5998 163.421 85.6166 162.414 85.6166 161.172C85.6166 159.93 84.5998 158.923 83.3456 158.923C82.0914 158.923 81.0747 159.93 81.0747 161.172C81.0747 162.414 82.0914 163.421 83.3456 163.421Z" fill="#0F53D9"/>
<path d="M148.594 13.596C149.454 13.9514 150.392 14.0816 151.318 13.9739C152.243 13.8663 153.125 13.5244 153.878 12.9813C155.799 11.5629 156.519 9.08707 157.122 6.79147L158.903 0L155.895 1.80882C153.731 3.10937 151.517 4.45301 149.956 6.42746C148.394 8.40191 147.604 11.1688 148.633 13.46" fill="#F2F2F2"/>
<path d="M68.1255 71.6086C68.7062 70.887 69.0895 70.0294 69.2384 69.1186C69.3873 68.2077 69.2968 67.2742 68.9756 66.408C68.124 64.1905 65.9165 62.8268 63.852 61.6237L57.7437 58.0671L58.6764 61.4279C59.347 63.8448 60.0458 66.3207 61.5357 68.349C63.0257 70.3772 65.4966 71.8875 68.0039 71.5347" fill="#F2F2F2"/>
<path d="M211.572 176.174C212.153 175.452 212.536 174.595 212.685 173.684C212.834 172.773 212.744 171.84 212.422 170.973C211.571 168.756 209.363 167.392 207.299 166.189L201.19 162.633L202.123 165.993C202.794 168.41 203.493 170.886 204.983 172.914C206.472 174.943 208.943 176.453 211.451 176.1" fill="#F2F2F2"/>
<path d="M96.2144 43.489C97.8867 43.489 99.2423 42.1466 99.2423 40.4907C99.2423 38.8348 97.8867 37.4924 96.2144 37.4924C94.5422 37.4924 93.1865 38.8348 93.1865 40.4907C93.1865 42.1466 94.5422 43.489 96.2144 43.489Z" fill="#FD6584"/>
<path d="M15.5963 131.939C17.2685 131.939 18.6242 130.596 18.6242 128.94C18.6242 127.285 17.2685 125.942 15.5963 125.942C13.924 125.942 12.5684 127.285 12.5684 128.94C12.5684 130.596 13.924 131.939 15.5963 131.939Z" fill="#FD6584"/>
<path d="M223.765 107.578C225.437 107.578 226.793 106.235 226.793 104.579C226.793 102.923 225.437 101.581 223.765 101.581C222.092 101.581 220.737 102.923 220.737 104.579C220.737 106.235 222.092 107.578 223.765 107.578Z" fill="#FD6584"/>
<path d="M12.5684 56.6067C14.2407 56.6067 15.5963 55.2643 15.5963 53.6084C15.5963 51.9525 14.2407 50.6101 12.5684 50.6101C10.8962 50.6101 9.54053 51.9525 9.54053 53.6084C9.54053 55.2643 10.8962 56.6067 12.5684 56.6067Z" fill="#E6E6E6"/>
<path d="M199.92 142.058C201.592 142.058 202.948 140.715 202.948 139.06C202.948 137.404 201.592 136.061 199.92 136.061C198.248 136.061 196.892 137.404 196.892 139.06C196.892 140.715 198.248 142.058 199.92 142.058Z" fill="#E6E6E6"/>
<path d="M205.976 50.9849C207.648 50.9849 209.004 49.6425 209.004 47.9866C209.004 46.3307 207.648 44.9883 205.976 44.9883C204.303 44.9883 202.948 46.3307 202.948 47.9866C202.948 49.6425 204.303 50.9849 205.976 50.9849Z" fill="#E6E6E6"/>
<path d="M73.2121 98.6713C72.9504 99.0812 72.3158 99.0217 71.9594 98.7654C71.4647 98.4095 71.6248 97.7242 71.9655 97.3192C73.0482 96.0322 74.8389 97.391 75.0805 98.6692C75.1703 99.2924 75.0734 99.928 74.8017 100.497C74.5301 101.066 74.0958 101.544 73.5525 101.871C72.3172 102.596 70.7126 102.232 69.6505 101.365C67.435 99.5551 68.0382 95.9317 70.4991 94.6224C72.0696 93.7868 74.0552 94.1536 75.6023 94.8535C77.3439 95.6414 78.8414 96.849 80.452 97.8557C83.9858 100.046 87.9832 101.398 92.132 101.805C92.8582 101.878 92.8531 100.753 92.132 100.681C89.8329 100.445 87.5759 99.9071 85.4207 99.0804C83.2883 98.2246 81.2643 97.1246 79.3901 95.8028C77.4938 94.5157 75.5127 93.2654 73.1659 93.0527C72.2188 92.9432 71.2594 93.0839 70.3851 93.4606C69.5108 93.8373 68.7528 94.4366 68.1883 95.1974C67.6861 95.8782 67.3499 96.6649 67.2061 97.4959C67.0624 98.3269 67.1149 99.1796 67.3595 99.9871C67.6545 100.832 68.1701 101.583 68.8538 102.166C69.5376 102.749 70.3652 103.143 71.2523 103.306C72.1063 103.466 72.9894 103.358 73.7783 102.997C74.5673 102.636 75.2229 102.04 75.6535 101.292C76.5173 99.8131 76.4892 97.826 75.1845 96.5995C74.8106 96.2231 74.3424 95.9517 73.8278 95.8131C73.3133 95.6746 72.7708 95.6737 72.2558 95.8108C71.7813 95.9695 71.3638 96.2617 71.0544 96.6516C70.745 97.0416 70.557 97.5124 70.5136 98.0065C70.3877 99.9266 73.1404 100.887 74.1925 99.2388C74.5841 98.6254 73.602 98.0606 73.2121 98.6713Z" fill="#00174C"/>
<path d="M170.312 98.6713C170.574 99.0812 171.209 99.0217 171.565 98.7654C172.06 98.4095 171.9 97.7242 171.559 97.3192C170.476 96.0322 168.685 97.391 168.444 98.6692C168.354 99.2924 168.451 99.928 168.723 100.497C168.994 101.066 169.429 101.544 169.972 101.871C171.207 102.596 172.812 102.232 173.874 101.365C176.089 99.5551 175.486 95.9317 173.025 94.6224C171.455 93.7868 169.469 94.1536 167.922 94.8535C166.18 95.6414 164.683 96.849 163.072 97.8557C159.539 100.046 155.541 101.398 151.392 101.805C150.666 101.878 150.671 100.753 151.392 100.681C153.691 100.445 155.948 99.9071 158.104 99.0804C160.236 98.2246 162.26 97.1246 164.134 95.8028C166.031 94.5157 168.012 93.2654 170.359 93.0527C171.306 92.9432 172.265 93.0839 173.139 93.4606C174.014 93.8373 174.772 94.4366 175.336 95.1974C175.838 95.8782 176.174 96.6649 176.318 97.4959C176.462 98.3269 176.409 99.1796 176.165 99.9871C175.87 100.832 175.354 101.583 174.671 102.166C173.987 102.749 173.159 103.143 172.272 103.306C171.418 103.466 170.535 103.358 169.746 102.997C168.957 102.636 168.301 102.04 167.871 101.292C167.007 99.8131 167.035 97.826 168.34 96.5995C168.714 96.2231 169.182 95.9517 169.697 95.8131C170.211 95.6746 170.754 95.6737 171.269 95.8108C171.743 95.9695 172.161 96.2617 172.47 96.6516C172.779 97.0416 172.967 97.5124 173.011 98.0065C173.137 99.9266 170.384 100.887 169.332 99.2388C168.94 98.6254 169.922 98.0606 170.312 98.6713Z" fill="#00174C"/>
<path d="M33.6986 13.6282L32.1987 15.4915L26.8945 12.3845L28.3941 10.5212L33.6986 13.6282Z" fill="#E4E4E4"/>
<path d="M39.2329 21.6338L40.5575 23.5913L34.9852 26.3358L33.6606 24.3786L39.2329 21.6338Z" fill="#E4E4E4"/>
<path d="M45.0012 13.1238L47.6482 13.2166L47.3847 18.7012L44.7373 18.6086L45.0012 13.1238Z" fill="#E4E4E4"/>
<path d="M221.05 128.313L219.55 130.176L214.246 127.069L215.746 125.206L221.05 128.313Z" fill="#E4E4E4"/>
<path d="M226.584 136.318L227.909 138.276L222.337 141.02L221.012 139.063L226.584 136.318Z" fill="#E4E4E4"/>
<path d="M232.353 127.808L235 127.901L234.736 133.386L232.089 133.293L232.353 127.808Z" fill="#E4E4E4"/>
</g>
<defs>
<clipPath id="clip0_6776_834">
<rect width="235" height="179" fill="white"/>
</clipPath>
</defs>
</svg>
