<svg width="33" height="33" viewBox="0 0 33 33" fill="none" xmlns="http://www.w3.org/2000/svg">
    <path opacity="0.4"
        d="M24.5 25.8143H23.4867C22.42 25.8143 21.4067 26.2276 20.66 26.9743L18.38 29.2276C17.34 30.2543 15.6467 30.2543 14.6067 29.2276L12.3267 26.9743C11.58 26.2276 10.5533 25.8143 9.5 25.8143H8.5C6.28667 25.8143 4.5 24.041 4.5 21.8543V7.30762C4.5 5.12095 6.28667 3.34766 8.5 3.34766H24.5C26.7133 3.34766 28.5 5.12095 28.5 7.30762V21.8543C28.5 24.0277 26.7133 25.8143 24.5 25.8143Z"
        fill="white" />
    <path
        d="M14.3401 20.0133H10.7667C10.1801 20.0133 9.63339 19.7333 9.28672 19.2533C8.95339 18.7999 8.87339 18.24 9.03339 17.7066C9.50005 16.28 10.6467 15.5066 11.6601 14.8132C12.7267 14.0932 13.3267 13.64 13.3267 12.8666C13.3267 12.1733 12.7667 11.6133 12.0734 11.6133C11.3801 11.6133 10.8201 12.1733 10.8201 12.8666C10.8201 13.4133 10.3667 13.8666 9.82007 13.8666C9.2734 13.8666 8.82007 13.4133 8.82007 12.8666C8.82007 11.08 10.2734 9.61328 12.0734 9.61328C13.8734 9.61328 15.3267 11.0666 15.3267 12.8666C15.3267 14.7466 13.9134 15.7066 12.7801 16.4799C12.0734 16.9599 11.4067 17.4133 11.0734 18.0133H14.3267C14.8734 18.0133 15.3267 18.4666 15.3267 19.0133C15.3267 19.5599 14.8867 20.0133 14.3401 20.0133Z"
        fill="white" />
    <path
        d="M21.8867 20.012C21.34 20.012 20.8867 19.5586 20.8867 19.012V18.092H18.2733C18.2733 18.092 18.2733 18.092 18.26 18.092C17.6067 18.092 17.0067 17.7453 16.6733 17.1853C16.34 16.612 16.34 15.9053 16.6733 15.3453C17.58 13.7853 18.6333 12.0119 19.5933 10.4652C20.02 9.78525 20.8333 9.47864 21.5933 9.69197C22.3533 9.91864 22.8867 10.6119 22.8733 11.4119V16.1053H23.1667C23.7133 16.1053 24.1667 16.5586 24.1667 17.1053C24.1667 17.652 23.7133 18.1053 23.1667 18.1053H22.8867V19.0253C22.8867 19.572 22.4467 20.012 21.8867 20.012ZM20.8867 12.1853C20.1 13.4653 19.2867 14.8386 18.5533 16.092H20.8867V12.1853Z"
        fill="white" />
</svg>
