<svg width="33" height="32" viewBox="0 0 33 32" fill="none" xmlns="http://www.w3.org/2000/svg">
<path opacity="0.4" fill-rule="evenodd" clip-rule="evenodd" d="M31.1666 20.293C31.7189 20.293 32.1666 20.7407 32.1666 21.293C32.1666 27.0053 27.5455 31.6263 21.8333 31.6263C21.473 31.6263 21.1406 31.4325 20.9631 31.119C20.7855 30.8055 20.7904 30.4207 20.9758 30.1118L22.3758 27.7785C22.6599 27.3049 23.2742 27.1513 23.7477 27.4355C24.2213 27.7196 24.3749 28.3339 24.0907 28.8075L23.729 29.4104C27.4211 28.5538 30.1666 25.2484 30.1666 21.293C30.1666 20.7407 30.6143 20.293 31.1666 20.293Z" fill="white"/>
<path opacity="0.4" fill-rule="evenodd" clip-rule="evenodd" d="M9.27085 2.50889C5.57872 3.36546 2.83325 6.67087 2.83325 10.6263C2.83325 11.1786 2.38554 11.6263 1.83325 11.6263C1.28097 11.6263 0.833252 11.1786 0.833252 10.6263C0.833252 4.91402 5.4543 0.292969 11.1666 0.292969C11.5269 0.292969 11.8593 0.486761 12.0368 0.80027C12.2143 1.11378 12.2094 1.49853 12.0241 1.80746L10.6241 4.1408C10.3399 4.61438 9.72567 4.76794 9.25209 4.4838C8.77851 4.19965 8.62495 3.58539 8.90909 3.11181L9.27085 2.50889Z" fill="white"/>
<path opacity="0.4" d="M20.3 20.4416C20.3 24.9882 16.62 28.6682 12.0733 28.6682C7.52668 28.6682 3.84668 24.9882 3.84668 20.4416C3.84668 15.8949 7.52668 12.2148 12.0733 12.2148C12.2867 12.2148 12.4867 12.2282 12.7133 12.2415C16.7533 12.5482 19.98 15.7749 20.2867 19.8149C20.2867 20.0149 20.3 20.2149 20.3 20.4416Z" fill="white"/>
<path d="M29.1667 11.5587C29.1667 16.1053 25.4867 19.7854 20.94 19.7854H20.2867C19.98 15.7454 16.7534 12.5187 12.7134 12.212V11.5587C12.7134 7.01201 16.3934 3.33203 20.94 3.33203C25.4867 3.33203 29.1667 7.01201 29.1667 11.5587Z" fill="white"/>
<path d="M15.3267 20.0152C15.4867 19.6819 15.58 19.3219 15.58 18.9352C15.58 17.6019 14.4067 16.4285 13.0733 16.4285H12.7267V15.9219C12.7267 15.3752 12.2733 14.9219 11.7267 14.9219C11.18 14.9219 10.7267 15.3752 10.7267 15.9219V16.4285H9.32666C8.77999 16.4285 8.32666 16.8819 8.32666 17.4285V20.4285V23.4285C8.32666 23.9752 8.77999 24.4285 9.32666 24.4285H10.7267V24.9352C10.7267 25.4819 11.18 25.9352 11.7267 25.9352C12.2733 25.9352 12.7267 25.4819 12.7267 24.9352V24.4285H13.6067C15.1 24.4285 16.3267 23.3085 16.3267 21.9219C16.3267 21.1619 15.9267 20.4686 15.3267 20.0152ZM10.3267 18.4285H13.0733C13.3533 18.4285 13.58 18.7352 13.58 18.9352C13.58 19.2152 13.3533 19.4419 13.0733 19.4419H10.3267V18.4285ZM13.6067 22.4419H10.3133V21.4419H13.06H13.5933C14.02 21.4419 14.3133 21.7086 14.3133 21.9486C14.3133 22.1886 14.0333 22.4419 13.6067 22.4419Z" fill="white"/>
</svg>
