<svg width="212" height="204" viewBox="0 0 212 204" fill="none" xmlns="http://www.w3.org/2000/svg">
<g clip-path="url(#clip0_2011_10404)">
<path d="M175.777 115.779C149.015 156.427 136.428 204 87.8886 204C39.3491 204 0 164.502 0 115.779C0 67.0552 43.8598 48.0686 87.8886 27.5572C230.897 -39.0651 235.659 24.8249 175.777 115.779Z" fill="#3F3D56"/>
<path d="M166.341 40.0056C175.424 40.0056 182.787 32.6149 182.787 23.4979C182.787 14.381 175.424 6.99023 166.341 6.99023C157.259 6.99023 149.896 14.381 149.896 23.4979C149.896 32.6149 157.259 40.0056 166.341 40.0056Z" fill="#E6E6E6"/>
<path d="M164.724 14.0262C165.766 14.0262 166.611 13.1781 166.611 12.1319C166.611 11.0857 165.766 10.2375 164.724 10.2375C163.681 10.2375 162.837 11.0857 162.837 12.1319C162.837 13.1781 163.681 14.0262 164.724 14.0262Z" fill="#CBCBCB"/>
<path d="M167.959 32.9696C169.001 32.9696 169.846 32.1214 169.846 31.0752C169.846 30.029 169.001 29.1809 167.959 29.1809C166.917 29.1809 166.072 30.029 166.072 31.0752C166.072 32.1214 166.917 32.9696 167.959 32.9696Z" fill="#CBCBCB"/>
<path d="M175.238 21.8741C175.983 21.8741 176.586 21.2683 176.586 20.5211C176.586 19.7738 175.983 19.168 175.238 19.168C174.494 19.168 173.89 19.7738 173.89 20.5211C173.89 21.2683 174.494 21.8741 175.238 21.8741Z" fill="#CBCBCB"/>
<path d="M159.871 29.1808C162.253 29.1808 164.185 27.2422 164.185 24.8509C164.185 22.4596 162.253 20.521 159.871 20.521C157.489 20.521 155.557 22.4596 155.557 24.8509C155.557 27.2422 157.489 29.1808 159.871 29.1808Z" fill="#CBCBCB"/>
<path d="M109.726 51.6421C111.215 51.6421 112.422 50.4305 112.422 48.9359C112.422 47.4413 111.215 46.2297 109.726 46.2297C108.237 46.2297 107.03 47.4413 107.03 48.9359C107.03 50.4305 108.237 51.6421 109.726 51.6421Z" fill="#6C63FF"/>
<path d="M181.978 58.6782C183.467 58.6782 184.674 57.4666 184.674 55.9721C184.674 54.4775 183.467 53.2659 181.978 53.2659C180.489 53.2659 179.282 54.4775 179.282 55.9721C179.282 57.4666 180.489 58.6782 181.978 58.6782Z" fill="#6C63FF"/>
<path d="M149.896 62.7374C150.789 62.7374 151.513 62.0104 151.513 61.1137C151.513 60.217 150.789 59.49 149.896 59.49C149.003 59.49 148.278 60.217 148.278 61.1137C148.278 62.0104 149.003 62.7374 149.896 62.7374Z" fill="#E6E6E6"/>
<path d="M25.3421 113.884C26.2355 113.884 26.9597 113.157 26.9597 112.26C26.9597 111.364 26.2355 110.637 25.3421 110.637C24.4488 110.637 23.7245 111.364 23.7245 112.26C23.7245 113.157 24.4488 113.884 25.3421 113.884Z" fill="#E6E6E6"/>
<path d="M121.049 157.454C121.942 157.454 122.667 156.727 122.667 155.83C122.667 154.933 121.942 154.206 121.049 154.206C120.156 154.206 119.431 154.933 119.431 155.83C119.431 156.727 120.156 157.454 121.049 157.454Z" fill="#E6E6E6"/>
<path d="M146.392 109.293L145.584 110.098L144.782 109.288L144.244 109.825L145.046 110.635L144.238 111.44L144.773 111.98L145.581 111.175L146.383 111.986L146.921 111.449L146.119 110.639L146.926 109.834L146.392 109.293Z" fill="#6C63FF"/>
<path d="M39.3616 135.814L38.5541 136.619L37.7524 135.808L37.214 136.345L38.016 137.156L37.2086 137.96L37.7432 138.501L38.5504 137.696L39.3524 138.506L39.8908 137.97L39.0888 137.159L39.8963 136.354L39.3616 135.814Z" fill="#E6E6E6"/>
<path d="M45.8319 88.7264L45.0245 89.5312L44.2227 88.7209L43.6844 89.2574L44.4863 90.0679L43.6789 90.8729L44.2136 91.4131L45.0208 90.6083L45.8228 91.4186L46.3611 90.8822L45.5591 90.0716L46.3666 89.2666L45.8319 88.7264Z" fill="#E6E6E6"/>
<path d="M186.831 38.6622L186.024 39.467L185.222 38.6567L184.684 39.1932L185.486 40.0037L184.678 40.8087L185.213 41.3489L186.02 40.5441L186.822 41.3544L187.36 40.8179L186.558 40.0074L187.366 39.2024L186.831 38.6622Z" fill="#E6E6E6"/>
<path d="M123.206 61.1234L122.399 61.9284L121.597 61.1179L121.059 61.6546L121.86 62.4649L121.053 63.2699L121.588 63.8103L122.395 63.0053L123.197 63.8158L123.735 63.2791L122.934 62.4686L123.741 61.6638L123.206 61.1234Z" fill="#E6E6E6"/>
<path opacity="0.8" d="M128.806 101.25L136.997 91.6237L145.189 81.9977L149.813 76.5636C150.069 76.2629 149.674 75.7939 149.418 76.0945L141.227 85.7206L133.035 95.3466L128.411 100.781C128.155 101.081 128.55 101.55 128.806 101.25Z" fill="url(#paint0_linear_2011_10404)"/>
<path opacity="0.8" d="M114.248 135.889L122.439 126.263L130.631 116.637L135.255 111.203C135.511 110.902 135.116 110.433 134.86 110.733L126.668 120.36L118.477 129.986L113.853 135.42C113.597 135.72 113.992 136.189 114.248 135.889Z" fill="url(#paint1_linear_2011_10404)"/>
<path d="M72.926 82.6279H88.293V88.6977C88.293 89.7435 87.8791 90.7464 87.1424 91.4859C86.4058 92.2254 85.4066 92.6408 84.3648 92.6408H76.8542C75.8124 92.6408 74.8132 92.2254 74.0765 91.4859C73.3398 90.7464 72.926 89.7435 72.926 88.6977L72.926 82.6279Z" fill="#2F2E41"/>
<path d="M93.4153 163.272C89.916 166.831 86.4112 166.855 82.9011 163.387L80.2051 139.458L78.3179 163.437C74.8102 166.287 71.5413 166.67 68.6124 163.543C65.8185 142.825 64.2998 123.577 66.7252 108.878L61.6029 88.0403L73.1956 82.6279C75.5301 88.4245 71.8482 91.3893 80.1741 91.29C88.4266 91.1917 87.8103 88.0756 87.4842 82.6279L98.1484 86.7451C99.0566 87.0957 99.7974 87.7809 100.22 88.6609C100.642 89.5409 100.714 90.5494 100.421 91.4809L95.0329 108.607C97.1071 117.253 94.9774 141.302 93.4153 163.272Z" fill="#E6E6E6"/>
<path d="M77.2395 184.109C77.2395 184.109 68.6331 184.866 67.4802 184.39C67.4074 184.36 67.3366 184.327 67.2677 184.292C65.5544 183.413 65.5022 180.954 67.1035 179.884L70.4996 177.615L67.534 161.648L78.9919 161.784L77.2395 184.109Z" fill="#2F2E41"/>
<path d="M83.7099 184.245C83.7099 184.245 92.3162 185.002 93.4691 184.525C93.5419 184.495 93.6127 184.462 93.6816 184.427C95.395 183.549 95.4472 181.09 93.8458 180.02L90.4498 177.75L94.6285 161.784H82.6315L83.7099 184.245Z" fill="#2F2E41"/>
<path d="M63.4901 127.28L65.196 134.129C65.4057 134.971 65.3457 135.858 65.0245 136.664C64.7033 137.469 64.1373 138.153 63.407 138.617C62.8168 138.993 62.1412 139.211 61.4438 139.251C60.7464 139.291 60.0503 139.153 59.4211 138.848C58.7918 138.544 58.2503 138.083 57.8475 137.51C57.4447 136.938 57.1939 136.271 57.1188 135.574L56.7501 132.151L55.4022 99.6168C55.4022 96.9108 56.2013 94.2656 57.6986 92.0154C59.1959 89.7652 61.3241 88.011 63.8143 86.9746L66.4556 85.8752L63.4901 127.28Z" fill="#E6E6E6"/>
<path d="M106.356 99.3467L106.348 99.5389L105.259 125.8L105.048 130.874L105.008 131.88L104.639 135.304C104.578 135.866 104.403 136.41 104.124 136.902C103.845 137.394 103.468 137.823 103.017 138.163C102.566 138.502 102.051 138.745 101.502 138.876C100.954 139.007 100.384 139.023 99.829 138.924C99.274 138.825 98.7452 138.612 98.2756 138.299C97.8059 137.986 97.4055 137.579 97.099 137.104C96.7926 136.629 96.5868 136.096 96.4943 135.537C96.4018 134.979 96.4247 134.408 96.5616 133.859L98.2681 127.009L98.2304 126.501L98.0039 123.318L95.3026 85.6047L97.9446 86.7034C100.433 87.7423 102.56 89.4972 104.057 91.7471C105.554 93.997 106.354 96.6412 106.356 99.3467Z" fill="#E6E6E6"/>
<path d="M81.2985 129.231C71.5053 129.231 65.4644 125.822 65.379 125.772L65.6484 125.303C65.7688 125.373 77.8843 132.195 95.6843 126.282L95.8538 126.796C91.1634 128.385 86.2489 129.207 81.2985 129.231Z" fill="#2F2E41"/>
<path d="M71.6012 154.181C69.446 149.313 69.435 128.157 69.4357 127.259L69.9749 127.259C69.9747 127.478 69.9849 149.198 72.094 153.961L71.6012 154.181Z" fill="#2F2E41"/>
<path d="M72.7222 154.399C70.8024 154.399 69.5268 153.989 68.6952 153.518C67.1811 152.661 66.8687 151.493 66.8562 151.444L67.3785 151.31L67.1174 151.377L67.3781 151.309C67.3891 151.35 67.6617 152.322 68.9839 153.06C70.4397 153.873 73.3701 154.479 79.0606 152.752L79.2165 153.27C76.4931 154.097 74.3703 154.399 72.7222 154.399Z" fill="#2F2E41"/>
<path d="M67.9066 85.2096L67.3679 85.2361L69.436 127.622L69.9746 127.596L67.9066 85.2096Z" fill="#2F2E41"/>
<path d="M89.8874 154.181L89.3945 153.961C91.5037 149.198 91.5139 127.478 91.5137 127.259L92.0529 127.259C92.0534 128.157 92.0426 149.313 89.8874 154.181Z" fill="#2F2E41"/>
<path d="M88.7664 154.399C87.1183 154.399 84.996 154.097 82.2721 153.27L82.428 152.752C88.1185 154.479 91.0482 153.873 92.5047 153.06C93.8268 152.322 94.0993 151.35 94.1101 151.309L94.6322 151.444C94.6196 151.493 94.3073 152.661 92.7932 153.518C91.9618 153.989 90.6857 154.399 88.7664 154.399Z" fill="#2F2E41"/>
<path d="M93.5799 85.2096L91.5161 127.596L92.0547 127.622L94.1186 85.236L93.5799 85.2096Z" fill="#2F2E41"/>
<path d="M88.2606 91.5583L84.249 97.5118H75.6219L72.7374 91.5583H74.0045L76.1612 96.4294H83.4403L86.9451 91.5583H88.2606Z" fill="#6C63FF"/>
<path d="M97.9985 94.5352L98.0686 94.6758L97.9985 94.8057V94.5352Z" fill="black"/>
<path d="M106.895 99.3467L106.887 99.5388L101.773 101.03L98.6078 94.6758L101.846 88.7168C103.423 89.9988 104.696 91.6187 105.569 93.4579C106.443 95.2971 106.896 97.3091 106.895 99.3467Z" fill="#6C63FF"/>
<path d="M55.0706 99.3467L55.0787 99.5388L60.1929 101.03L63.358 94.6758L60.1201 88.7168C58.5424 89.9988 57.2701 91.6187 56.3964 93.4579C55.5227 95.2971 55.0697 97.3091 55.0706 99.3467Z" fill="#6C63FF"/>
<path d="M80.6095 87.093C88.5009 87.093 94.8981 80.6715 94.8981 72.7502C94.8981 64.8289 88.5009 58.4075 80.6095 58.4075C72.7181 58.4075 66.3209 64.8289 66.3209 72.7502C66.3209 80.6715 72.7181 87.093 80.6095 87.093Z" fill="#E6E6E6"/>
<path d="M80.6095 85.1988C86.4164 85.1988 91.1238 80.4735 91.1238 74.6447C91.1238 68.8158 86.4164 64.0906 80.6095 64.0906C74.8026 64.0906 70.0952 68.8158 70.0952 74.6447C70.0952 80.4735 74.8026 85.1988 80.6095 85.1988Z" fill="#2F2E41"/>
<path d="M105.412 125.8L105.194 130.874L98.2788 127.145L98.0994 126.501L97.8636 123.318L105.412 125.8Z" fill="#6C63FF"/>
<path d="M56.2297 125.8L56.4598 130.874L63.7276 127.145L63.9165 126.501L64.1642 123.318L56.2297 125.8Z" fill="#6C63FF"/>
<path d="M84.3923 97.7825H75.4531L70.5038 87.57L70.2494 83.8968L70.7873 83.8594L71.0345 87.4276L75.7908 97.2411H84.1058L90.2052 88.1908L91.5036 84.1948L92.0167 84.3624L90.6731 88.4626L84.3923 97.7825Z" fill="#2F2E41"/>
</g>
<defs>
<linearGradient id="paint0_linear_2011_10404" x1="128.328" y1="88.6721" x2="149.896" y2="88.6721" gradientUnits="userSpaceOnUse">
<stop stop-color="white"/>
<stop offset="1" stop-color="white" stop-opacity="0.3"/>
</linearGradient>
<linearGradient id="paint1_linear_2011_10404" x1="113.77" y1="123.311" x2="135.338" y2="123.311" gradientUnits="userSpaceOnUse">
<stop stop-color="white"/>
<stop offset="1" stop-color="white" stop-opacity="0.3"/>
</linearGradient>
<clipPath id="clip0_2011_10404">
<rect width="212" height="204" fill="white"/>
</clipPath>
</defs>
</svg>
