<svg width="33" height="32" viewBox="0 0 33 32" fill="none" xmlns="http://www.w3.org/2000/svg">
    <path opacity="0.4"
        d="M26.9801 10.7861C26.9801 10.9861 26.9801 11.1861 26.9668 11.3728C24.9268 10.6128 22.5268 11.0795 20.9268 12.5195C19.8468 11.5461 18.4467 10.9995 16.9534 10.9995C13.6734 10.9995 11.0068 13.6795 11.0068 16.9861C11.0068 20.7595 12.9001 23.5195 14.7134 25.3061C14.5668 25.2928 14.4468 25.2661 14.3401 25.2261C10.8868 24.0395 3.16675 19.1328 3.16675 10.7861C3.16675 7.10613 6.12674 4.13281 9.78007 4.13281C11.9534 4.13281 13.8734 5.1728 15.0734 6.78613C16.2867 5.1728 18.2067 4.13281 20.3667 4.13281C24.0201 4.13281 26.9801 7.10613 26.9801 10.7861Z"
        fill="white" />
    <path
        d="M24.5 12.7852C23.0734 12.7852 21.78 13.4785 20.98 14.5452C20.18 13.4785 18.9 12.7852 17.46 12.7852C15.0334 12.7852 13.0601 14.7585 13.0601 17.2118C13.0601 18.1585 13.2067 19.0252 13.4734 19.8252C14.7267 23.7852 18.58 26.1452 20.4867 26.7985C20.7534 26.8918 21.1934 26.8918 21.4734 26.7985C23.3801 26.1452 27.2334 23.7852 28.4867 19.8252C28.7534 19.0118 28.9 18.1452 28.9 17.2118C28.9 14.7585 26.9267 12.7852 24.5 12.7852Z"
        fill="white" />
</svg>
