<svg width="239" height="165" viewBox="0 0 239 165" fill="none" xmlns="http://www.w3.org/2000/svg">
<g clip-path="url(#clip0_5484_34151)">
<path d="M21.6001 72.0632C17.1754 75.6772 24.4158 107.4 24.4158 107.4C24.4158 107.4 26.0248 155.789 29.4439 157.997C32.863 160.206 40.5056 157.796 43.5224 157.395C46.5393 156.993 43.9247 127.077 39.5 116.034C35.0753 104.991 38.4944 88.9287 38.4944 88.9287L62.428 93.5466C62.428 93.5466 47.9471 105.794 48.5505 108.404C49.1539 111.015 64.6403 119.849 67.456 120.25C70.2717 120.652 75.702 104.188 80.529 92.9443C85.3559 81.7006 47.5449 74.4725 47.5449 74.4725L42.3157 64.6343C42.3157 64.6343 26.0248 68.4491 21.6001 72.0632Z" fill="#1B1B1F"/>
<path d="M33.6125 158.83C33.6125 158.83 32.1531 163.93 33.6125 163.93C35.072 163.93 37.7476 165.386 41.8828 164.901C46.0179 164.415 44.8017 159.316 41.8828 158.587C38.9639 157.859 39.6936 152.031 39.6936 152.031C38.7206 150.088 34.099 152.517 34.099 152.517L33.6125 158.83Z" fill="#1B1B1F"/>
<path d="M54.3321 118.279C54.3321 118.279 51.8282 122.957 53.2548 123.264C54.6815 123.571 56.9892 125.559 61.1339 125.955C65.2786 126.351 65.167 121.11 62.4676 119.783C59.7682 118.457 61.7127 112.913 61.7127 112.913C61.172 110.81 56.1413 112.21 56.1413 112.21L54.3321 118.279Z" fill="#1B1B1F"/>
<path d="M24.3161 28.594C24.7183 29.3972 22.9082 39.4362 22.9082 39.4362L24.5172 42.2471C24.5172 42.2471 33.7688 38.6331 32.361 38.0307C30.9531 37.4284 31.1542 29.9995 31.1542 29.9995C31.1542 29.9995 23.9138 27.7909 24.3161 28.594Z" fill="#FFDAD6"/>
<path d="M27.7974 31.6886C34.6079 31.6886 40.129 26.1769 40.129 19.378C40.129 12.579 34.6079 7.06738 27.7974 7.06738C20.9869 7.06738 15.4658 12.579 15.4658 19.378C15.4658 26.1769 20.9869 31.6886 27.7974 31.6886Z" fill="#1B1B1F"/>
<path d="M26.9474 12.9473C29.7656 12.9473 32.0502 10.6667 32.0502 7.85331C32.0502 5.03995 29.7656 2.75928 26.9474 2.75928C24.1293 2.75928 21.8447 5.03995 21.8447 7.85331C21.8447 10.6667 24.1293 12.9473 26.9474 12.9473Z" fill="#1B1B1F"/>
<path d="M29.1797 10.1606C29.3563 10.1789 29.5337 10.188 29.7112 10.1881C30.3813 10.1881 31.0449 10.0563 31.664 9.80033C32.283 9.54433 32.8456 9.1691 33.3194 8.69608C33.7932 8.22305 34.1691 7.66149 34.4255 7.04345C34.682 6.42541 34.814 5.763 34.814 5.09404C34.814 4.42508 34.682 3.76268 34.4255 3.14464C34.1691 2.5266 33.7932 1.96504 33.3194 1.49201C32.8456 1.01899 32.283 0.643761 31.664 0.387761C31.0449 0.131761 30.3813 -1.99365e-08 29.7112 0C29.5337 4.55809e-05 29.3563 0.009238 29.1797 0.0275414C30.4341 0.15875 31.5955 0.74911 32.4396 1.68472C33.2837 2.62032 33.7509 3.83488 33.7509 5.09404C33.7509 6.35321 33.2837 7.56777 32.4396 8.50337C31.5955 9.43898 30.4341 10.0293 29.1797 10.1606Z" fill="#1B1B1F"/>
<path d="M28.1366 33.8145C32.8018 33.8145 36.5837 30.039 36.5837 25.3817C36.5837 20.7245 32.8018 16.949 28.1366 16.949C23.4714 16.949 19.6895 20.7245 19.6895 25.3817C19.6895 30.039 23.4714 33.8145 28.1366 33.8145Z" fill="#FFDAD6"/>
<path d="M15.969 38.3321C13.3544 38.9344 8.92969 45.3594 8.92969 45.3594L15.969 52.3867C15.969 52.3867 20.997 71.26 21.6004 72.0631C25.5533 77.3246 43.3216 65.6382 43.3216 65.6382C43.3216 65.6382 42.6177 59.9159 43.0199 57.105C43.4068 54.4016 41.5115 48.9734 41.5115 48.9734C41.5115 48.9734 48.1486 46.1625 46.7407 43.3516C45.3329 40.5407 36.6846 34.1157 33.0644 36.3243C29.4442 38.5328 22.2038 36.3243 22.2038 36.3243C22.2038 36.3243 18.5836 37.7297 15.969 38.3321Z" fill="#DBE1FF"/>
<path d="M67.3555 78.7892C67.3555 78.7892 78.8194 88.6274 81.6352 86.6196C84.4509 84.6118 70.7745 77.5845 70.7745 77.5845L67.3555 78.7892Z" fill="#FFDAD6"/>
<path d="M15.8687 75.3759C17.4776 77.1829 25.1203 72.565 24.1405 70.5142C23.1607 68.4634 17.0754 72.565 17.0754 72.565C17.0754 72.565 14.2597 73.5689 15.8687 75.3759Z" fill="#FFDAD6"/>
<path d="M15.969 48.1701L7.52187 63.831C7.52187 63.831 17.1757 71.8622 18.3825 72.063C19.5892 72.2638 15.969 77.484 15.969 77.484C15.969 77.484 5.10839 69.8544 0.884823 66.0396C-3.33874 62.2248 8.92972 45.3592 8.92972 45.3592L12.5499 43.1506L15.969 48.1701Z" fill="#DBE1FF"/>
<path d="M40.5059 47.568L50.3609 62.8272C50.3609 62.8272 65.445 79.6928 67.4562 80.4959C69.4675 81.299 71.8809 77.4842 71.8809 77.4842L53.7799 55.5991L46.9418 43.3516L44.3272 42.3477L40.5059 47.568Z" fill="#DBE1FF"/>
<path d="M27.7975 20.4564C32.4944 20.4564 36.302 18.1757 36.302 15.3624C36.302 12.549 32.4944 10.2683 27.7975 10.2683C23.1006 10.2683 19.293 12.549 19.293 15.3624C19.293 18.1757 23.1006 20.4564 27.7975 20.4564Z" fill="#1B1B1F"/>
<path d="M51.6558 125.272C51.3771 125.272 51.1099 125.383 50.9128 125.58C50.7157 125.777 50.6048 126.043 50.6045 126.322V162.118C50.6048 162.396 50.7157 162.663 50.9128 162.86C51.1099 163.057 51.3771 163.167 51.6558 163.168H173.924C174.203 163.167 174.47 163.057 174.667 162.86C174.864 162.663 174.975 162.396 174.976 162.118V126.322C174.975 126.043 174.864 125.776 174.667 125.58C174.47 125.383 174.203 125.272 173.924 125.272L51.6558 125.272Z" fill="#DBE1FF"/>
<path d="M53.2393 160.538H172.341V127.902H53.2393V160.538Z" fill="white"/>
<path d="M157.307 153.767C157.078 153.767 156.851 153.812 156.64 153.899C156.428 153.986 156.236 154.114 156.074 154.276C155.912 154.437 155.784 154.629 155.696 154.84C155.609 155.051 155.563 155.277 155.563 155.506C155.563 155.734 155.609 155.961 155.696 156.172C155.784 156.383 155.912 156.574 156.074 156.736C156.236 156.897 156.428 157.025 156.64 157.113C156.851 157.2 157.078 157.245 157.307 157.244H164.273C164.735 157.244 165.178 157.061 165.504 156.735C165.831 156.409 166.015 155.967 166.015 155.506C166.015 155.045 165.831 154.603 165.504 154.277C165.178 153.951 164.735 153.767 164.273 153.767H157.307Z" fill="#0F53D9"/>
<path d="M166.015 150.395H85.6016V150.852H166.015V150.395Z" fill="#DBE1FF"/>
<path d="M68.7917 154.346C74.3937 154.346 78.935 149.813 78.935 144.22C78.935 138.628 74.3937 134.094 68.7917 134.094C63.1897 134.094 58.6484 138.628 58.6484 144.22C58.6484 149.813 63.1897 154.346 68.7917 154.346Z" fill="#0F53D9"/>
<path d="M85.7286 147.841L85.4746 147.46L93.8307 141.899L99.5608 144.645L107.803 139.388L124.198 146.37L137.255 139.967L149.933 145.098L165.863 131.012L166.167 131.355L150.024 145.629L137.272 140.468L124.211 146.873L107.845 139.904L99.5926 145.168L93.8677 142.424L85.7286 147.841Z" fill="#45464F"/>
<path d="M87.0907 154.007C86.8949 154.006 86.7011 154.045 86.5202 154.119C86.3393 154.194 86.1749 154.303 86.0364 154.441C85.898 154.579 85.7881 154.743 85.7131 154.924C85.6382 155.104 85.5996 155.298 85.5996 155.493C85.5996 155.689 85.6382 155.882 85.7131 156.063C85.7881 156.243 85.898 156.407 86.0364 156.545C86.1749 156.683 86.3393 156.793 86.5202 156.867C86.7011 156.942 86.8949 156.98 87.0907 156.98H102.669C103.064 156.979 103.442 156.822 103.721 156.544C104 156.265 104.157 155.887 104.157 155.493C104.157 155.099 104 154.721 103.721 154.443C103.442 154.164 103.064 154.007 102.669 154.007H87.0907Z" fill="#DBE1FF"/>
<path d="M72.6661 139.69H74.251L70.9531 142.948C70.377 143.515 69.6005 143.833 68.7916 143.833C67.9827 143.833 67.2062 143.515 66.6301 142.948L63.3327 139.69H64.9176L67.4228 142.165C67.7877 142.524 68.2795 142.725 68.7918 142.725C69.3042 142.725 69.796 142.524 70.1609 142.165L72.6661 139.69ZM64.8974 148.75H63.3125L66.6306 145.472C67.2067 144.905 67.9831 144.587 68.7921 144.587C69.601 144.587 70.3774 144.905 70.9536 145.472L74.2716 148.75H72.6867L70.1609 146.255C69.796 145.896 69.3042 145.695 68.7918 145.695C68.2795 145.695 67.7877 145.896 67.4228 146.255L64.8974 148.75Z" fill="white"/>
<path d="M67.5777 10.6118C67.299 10.6121 67.0318 10.7228 66.8347 10.9196C66.6376 11.1163 66.5267 11.3831 66.5264 11.6614V47.4581C66.5267 47.7363 66.6376 48.0031 66.8347 48.1998C67.0318 48.3966 67.299 48.5073 67.5777 48.5076H189.846C190.125 48.5073 190.392 48.3966 190.589 48.1998C190.786 48.0031 190.897 47.7363 190.897 47.4581V11.6614C190.897 11.3831 190.786 11.1163 190.589 10.9196C190.392 10.7228 190.125 10.6121 189.846 10.6118L67.5777 10.6118Z" fill="#DBE1FF"/>
<path d="M69.1602 45.8777H188.262V13.2422H69.1602V45.8777Z" fill="white"/>
<path d="M173.229 39.1072C172.767 39.1072 172.324 39.2903 171.997 39.6164C171.671 39.9424 171.487 40.3846 171.487 40.8457C171.487 41.3068 171.671 41.749 171.997 42.075C172.324 42.4011 172.767 42.5843 173.229 42.5843H180.195C180.657 42.5843 181.1 42.4011 181.426 42.075C181.753 41.749 181.936 41.3068 181.936 40.8457C181.936 40.3846 181.753 39.9424 181.426 39.6164C181.1 39.2903 180.657 39.1072 180.195 39.1072H173.229Z" fill="#0F53D9"/>
<path d="M181.936 35.7351H101.522V36.1925H181.936V35.7351Z" fill="#DBE1FF"/>
<path d="M84.7136 39.6859C90.3156 39.6859 94.8569 35.1523 94.8569 29.5599C94.8569 23.9674 90.3156 19.4338 84.7136 19.4338C79.1116 19.4338 74.5703 23.9674 74.5703 29.5599C74.5703 35.1523 79.1116 39.6859 84.7136 39.6859Z" fill="#0F53D9"/>
<path d="M101.65 33.1807L101.396 32.8L109.752 27.2388L115.482 29.9847L123.724 24.7279L123.835 24.7752L140.119 31.7098L153.175 25.3071L165.854 30.4382L181.784 16.3521L182.088 16.6945L165.945 30.9687L153.193 25.8079L140.133 32.2128L123.767 25.2434L115.514 30.5073L109.789 27.7638L101.65 33.1807Z" fill="#45464F"/>
<path d="M103.012 39.3464C102.617 39.3469 102.239 39.5038 101.96 39.7825C101.681 40.0613 101.524 40.4391 101.524 40.8331C101.524 41.227 101.681 41.6048 101.96 41.8836C102.239 42.1623 102.617 42.3192 103.012 42.3197H118.59C118.985 42.3197 119.364 42.163 119.643 41.8842C119.923 41.6054 120.08 41.2273 120.08 40.8331C120.08 40.4388 119.923 40.0606 119.643 39.7819C119.364 39.5031 118.985 39.3464 118.59 39.3464H103.012Z" fill="#DBE1FF"/>
<path d="M88.7949 28.3779C88.9845 27.1108 88.0181 26.4296 86.6966 25.9751L87.1253 24.2586L86.0783 23.9982L85.661 25.6695C85.3861 25.6011 85.1035 25.5365 84.8227 25.4725L85.2431 23.7902L84.197 23.5298L83.768 25.2457C83.5403 25.1939 83.3167 25.1428 83.0997 25.0889L83.1009 25.0835L81.6575 24.7237L81.379 25.8397C81.379 25.8397 82.1556 26.0174 82.1392 26.0284C82.284 26.0457 82.4163 26.1191 82.5075 26.2327C82.5987 26.3464 82.6416 26.4912 82.6269 26.6361L82.1386 28.5916C82.1756 28.6008 82.212 28.6124 82.2474 28.6264L82.1371 28.599L81.4524 31.3384C81.4373 31.3862 81.413 31.4306 81.3807 31.469C81.3484 31.5073 81.3088 31.539 81.2642 31.562C81.2197 31.5851 81.171 31.5991 81.1209 31.6034C81.0709 31.6076 81.0205 31.6019 80.9727 31.5866C80.9832 31.6018 80.212 31.397 80.212 31.397L79.6924 32.5934L81.0547 32.9323C81.3081 32.9957 81.5564 33.0621 81.8006 33.1246L81.3674 34.861L82.4129 35.1214L82.8421 33.4037C83.1274 33.4811 83.4047 33.5525 83.6759 33.6198L83.2484 35.3294L84.2951 35.5898L84.7282 33.8569C86.513 34.1941 87.8553 34.0581 88.4196 32.4469C88.8748 31.1494 88.3973 30.401 87.4582 29.9126C88.1421 29.7546 88.6572 29.3055 88.7946 28.3779L88.7949 28.3779ZM86.4033 31.7256C86.0795 33.0231 83.8914 32.3219 83.1817 32.1458L83.7564 29.8457C84.4659 30.0224 86.7407 30.3724 86.4036 31.7256H86.4033ZM86.7267 28.3592C86.4316 29.5394 84.6102 28.9398 84.019 28.7928L84.5401 26.7066C85.1313 26.8536 87.0343 27.128 86.7267 28.3592Z" fill="white"/>
<path d="M115.68 67.9419C115.402 67.9422 115.134 68.0529 114.937 68.2497C114.74 68.4464 114.629 68.7132 114.629 68.9914V104.788C114.629 105.066 114.74 105.333 114.937 105.53C115.134 105.727 115.402 105.837 115.68 105.838H237.949C238.227 105.837 238.495 105.727 238.692 105.53C238.889 105.333 239 105.066 239 104.788V68.9914C239 68.7132 238.889 68.4464 238.692 68.2497C238.495 68.0529 238.227 67.9422 237.949 67.9419L115.68 67.9419Z" fill="#DBE1FF"/>
<path d="M117.264 103.208H236.366V70.5723H117.264V103.208Z" fill="white"/>
<path d="M221.331 96.4373C220.869 96.4373 220.427 96.6204 220.1 96.9465C219.773 97.2725 219.59 97.7147 219.59 98.1758C219.59 98.6369 219.773 99.0791 220.1 99.4051C220.427 99.7312 220.869 99.9143 221.331 99.9143H228.297C228.759 99.9143 229.202 99.7312 229.529 99.4051C229.855 99.0791 230.039 98.6369 230.039 98.1758C230.039 97.7147 229.855 97.2725 229.529 96.9465C229.202 96.6204 228.759 96.4373 228.297 96.4373H221.331Z" fill="#0F53D9"/>
<path d="M230.039 93.0649H149.625V93.5224H230.039V93.0649Z" fill="#DBE1FF"/>
<path d="M132.816 97.016C138.418 97.016 142.959 92.4824 142.959 86.89C142.959 81.2975 138.418 76.7639 132.816 76.7639C127.214 76.7639 122.673 81.2975 122.673 86.89C122.673 92.4824 127.214 97.016 132.816 97.016Z" fill="#0F53D9"/>
<path d="M149.752 90.5107L149.498 90.1301L157.854 84.5689L163.584 87.3147L171.826 82.058L171.938 82.1052L188.222 89.0399L201.278 82.6371L213.956 87.7681L229.887 73.6821L230.191 74.0248L214.048 88.2987L201.296 83.1379L188.235 89.5429L171.869 82.5735L163.616 87.8373L157.891 85.0942L149.752 90.5107Z" fill="#45464F"/>
<path d="M151.114 96.6765C150.719 96.6765 150.34 96.8331 150.061 97.1119C149.782 97.3907 149.625 97.7688 149.625 98.1631C149.625 98.5574 149.782 98.9355 150.061 99.2143C150.34 99.4931 150.719 99.6497 151.114 99.6497H166.693C167.088 99.6497 167.467 99.4931 167.746 99.2143C168.025 98.9355 168.182 98.5574 168.182 98.1631C168.182 97.7688 168.025 97.3907 167.746 97.1119C167.467 96.8331 167.088 96.6765 166.693 96.6765H151.114Z" fill="#DBE1FF"/>
<path d="M132.816 93.5637L136.922 87.7908L132.816 90.2111L128.712 87.7908L132.815 93.5637H132.816Z" fill="white"/>
<path d="M132.815 89.4352H132.816L136.919 87.0136L132.816 80.2161H132.815L128.712 87.0136L132.815 89.4352Z" fill="white"/>
</g>
<defs>
<clipPath id="clip0_5484_34151">
<rect width="239" height="165" fill="white"/>
</clipPath>
</defs>
</svg>
