<svg width="26" height="26" viewBox="0 0 26 26" fill="none" xmlns="http://www.w3.org/2000/svg">
    <g clip-path="url(#clip0_11169_2415)">
        <path
            d="M21.3901 12.8236C21.3901 14.4948 21.2144 16.026 20.8573 17.422C20.501 18.8123 19.9682 20.0119 19.2597 21.0206C18.5512 22.0294 17.6811 22.8072 16.6402 23.3648C15.888 23.7661 15.0476 24.0223 14.114 24.1329C11.7494 21.9844 12.7556 15.9506 15.2621 15.66C14.1725 18.6166 15.5697 20.4336 16.7524 20.5392C19.2251 20.7603 21.5163 16.6286 21.3554 11.584C21.3802 11.9901 21.3901 12.402 21.3901 12.8236Z"
            fill="#B79EF4" />
        <path
            d="M22.7925 21.0523C20.2563 23.8231 16.5333 25.4746 14.7444 24.5707C14.5101 24.4552 14.2998 24.3046 14.1143 24.1294C15.0479 24.0188 15.8883 23.7625 16.6405 23.3613C17.6814 22.8045 18.5507 22.0259 19.26 21.0171C19.9685 20.0083 20.5013 18.8088 20.8576 17.4185C21.2139 16.0233 21.3904 14.4921 21.3904 12.8201C21.3904 12.3984 21.3805 11.9866 21.3565 11.5805V11.5657C21.3318 10.7977 21.2493 10.01 21.1025 9.21168C20.4518 5.66792 18.4534 1.5117 16.5721 0.447266C17.0216 0.562716 17.4562 0.713375 17.8867 0.888598C17.9065 0.888598 17.9255 0.898423 17.9404 0.909068C19.9338 1.75243 23.3789 3.81007 25.148 8.13741C26.8677 12.3387 25.9348 17.6347 22.7925 21.0523Z"
            fill="#7730E8" />
        <path
            d="M10.7364 9.70406C11.8259 6.75229 10.4287 4.93538 9.24603 4.82975C6.85667 4.61359 4.63392 8.46849 4.63392 13.2773C4.62402 13.1266 4.62402 12.976 4.62402 12.8204C4.62402 11.1337 4.8096 9.58287 5.17167 8.16717C5.53292 6.74656 6.07067 5.52164 6.78409 4.48258C7.49752 3.44353 8.37672 2.63538 9.41263 2.05321C10.1648 1.63644 10.9962 1.37033 11.9142 1.25488C14.24 3.42961 13.2338 9.41748 10.7364 9.70406Z"
            fill="#B79EF4" />
        <path
            d="M9.42801 24.9205C9.12037 24.8353 8.81686 24.7444 8.52407 24.6446C8.49932 24.6347 8.47541 24.6249 8.44571 24.6143C8.38716 24.5946 8.32365 24.5692 8.26014 24.5438C8.20158 24.5185 8.13808 24.4939 8.07457 24.4685C6.08605 23.6251 2.62615 21.5618 0.852896 17.2303C-0.451888 14.0428 -0.231675 10.228 1.32219 7.08052C1.38075 6.95525 1.44425 6.83489 1.50776 6.7137C1.63973 6.47298 1.77664 6.23225 1.92839 6.00135C2.20717 5.56493 2.50986 5.14816 2.83234 4.74613C2.93956 4.61594 3.05255 4.48494 3.16967 4.35475C3.17957 4.34001 3.19441 4.32445 3.20843 4.30971C3.22823 4.28924 3.2472 4.26468 3.26699 4.24421C5.8081 1.51843 9.4874 -0.102787 11.2565 0.790521C11.5007 0.915797 11.7209 1.07137 11.9163 1.25724C10.9975 1.37269 10.167 1.6388 9.41482 2.05556C8.37891 2.63773 7.49971 3.44588 6.78628 4.48494C6.07286 5.52399 5.53511 6.74891 5.17386 8.16953C4.81261 9.58523 4.62621 11.136 4.62621 12.8228C4.62621 12.9783 4.62621 13.129 4.63611 13.2796C4.63611 13.4156 4.63611 13.5507 4.64601 13.6866C4.6559 14.1934 4.69467 14.7052 4.76312 15.2276C4.77797 15.393 4.80189 15.5534 4.83158 15.7197C4.85137 15.8654 4.87529 16.0054 4.90003 16.1512C4.90993 16.2167 4.92478 16.2814 4.9388 16.3469C5.00231 16.7137 5.08561 17.0699 5.17303 17.4211C5.26623 17.7675 5.36355 18.104 5.47572 18.4299C5.48562 18.4651 5.49552 18.4954 5.50954 18.5306C6.41761 21.3718 7.96158 24.0869 9.42801 24.9205Z"
            fill="#7730E8" />
    </g>
    <defs>
        <clipPath id="clip0_11169_2415">
            <rect width="26" height="26" fill="white" />
        </clipPath>
    </defs>
</svg>
