<svg width="175" height="175" viewBox="0 0 175 175" fill="none" xmlns="http://www.w3.org/2000/svg">
<circle cx="87.5" cy="87.5" r="87.5" fill="#FEFBFF"/>
<circle cx="87.5" cy="87.5" r="87.5" fill="#0F53D9" fill-opacity="0.08"/>
<g clip-path="url(#clip0_1857_16276)">
<path d="M137.873 67.4194H137.106V46.2514C137.106 43.0021 135.823 39.8859 133.54 37.5884C131.256 35.2908 128.159 34 124.93 34H80.3582C78.7593 34 77.1759 34.3168 75.6987 34.9325C74.2214 35.5482 72.8792 36.4506 71.7485 37.5882C70.6179 38.7258 69.721 40.0764 69.109 41.5628C68.4971 43.0492 68.1822 44.6423 68.1821 46.2512V162.381C68.1821 165.63 69.4649 168.746 71.7484 171.044C74.0318 173.341 77.1288 174.632 80.358 174.632H124.929C128.159 174.632 131.256 173.341 133.539 171.044C135.823 168.746 137.105 165.63 137.105 162.381V82.4872H137.872L137.873 67.4194Z" fill="#3F3D56"/>
<path d="M134.608 45.4308V163.201C134.608 165.664 133.635 168.027 131.904 169.769C130.173 171.511 127.825 172.49 125.377 172.491H79.8908C77.4415 172.492 75.0923 171.513 73.36 169.771C71.6277 168.029 70.6541 165.665 70.6533 163.201V45.4308C70.6541 42.9664 71.6276 40.6031 73.3598 38.8609C75.0921 37.1186 77.4412 36.1401 79.8904 36.1404H85.4082C85.1372 36.8108 85.0341 37.5379 85.1079 38.2578C85.1816 38.9777 85.43 39.6683 85.8311 40.269C86.2323 40.8697 86.7739 41.362 87.4085 41.7027C88.043 42.0435 88.751 42.2221 89.4702 42.223H115.403C116.122 42.2221 116.83 42.0435 117.465 41.7027C118.099 41.362 118.641 40.8697 119.042 40.269C119.443 39.6683 119.691 38.9777 119.765 38.2578C119.839 37.5379 119.736 36.8108 119.465 36.1404H125.375C127.824 36.1408 130.172 37.1195 131.903 38.8613C133.634 40.6031 134.608 42.9655 134.608 45.429V45.4308Z" fill="white"/>
<path d="M102.623 92.7082C113.11 92.7082 121.613 84.1533 121.613 73.6004C121.613 63.0475 113.11 54.4927 102.623 54.4927C92.1347 54.4927 83.6326 63.0475 83.6326 73.6004C83.6326 84.1533 92.1347 92.7082 102.623 92.7082Z" fill="#0F53D9"/>
<path d="M123.333 113.268H82.9136C82.7152 113.268 82.5249 113.188 82.3846 113.047C82.2443 112.906 82.1654 112.714 82.1652 112.515V102.426C82.1654 102.227 82.2444 102.035 82.3847 101.894C82.525 101.753 82.7152 101.673 82.9136 101.673H123.333C123.532 101.673 123.722 101.753 123.862 101.894C124.003 102.035 124.082 102.227 124.082 102.426V112.515C124.082 112.714 124.003 112.906 123.862 113.047C123.722 113.188 123.532 113.268 123.333 113.268V113.268ZM82.9136 101.974C82.7945 101.974 82.6803 102.022 82.5961 102.107C82.5119 102.191 82.4646 102.306 82.4645 102.426V112.515C82.4646 112.635 82.5119 112.75 82.5961 112.834C82.6803 112.919 82.7945 112.967 82.9136 112.967H123.333C123.453 112.967 123.567 112.919 123.651 112.834C123.735 112.75 123.783 112.635 123.783 112.515V102.426C123.783 102.306 123.735 102.191 123.651 102.107C123.567 102.022 123.453 101.974 123.333 101.974H82.9136Z" fill="#E6E6E6"/>
<path d="M95.4138 105.306C95.2748 105.306 95.1415 105.362 95.0432 105.461C94.945 105.559 94.8898 105.694 94.8898 105.833C94.8898 105.973 94.945 106.107 95.0432 106.206C95.1415 106.305 95.2748 106.361 95.4138 106.361H120.115C120.253 106.366 120.389 106.316 120.491 106.221C120.593 106.126 120.653 105.994 120.658 105.854C120.664 105.714 120.614 105.578 120.519 105.475C120.425 105.373 120.294 105.312 120.155 105.307C120.147 105.306 120.139 105.306 120.132 105.306L95.4138 105.306Z" fill="#E6E6E6"/>
<path d="M95.4138 108.469C95.2748 108.469 95.1415 108.525 95.0432 108.623C94.945 108.722 94.8898 108.856 94.8898 108.996C94.8898 109.136 94.945 109.27 95.0432 109.369C95.1415 109.468 95.2748 109.523 95.4138 109.523H120.115C120.253 109.529 120.389 109.478 120.491 109.383C120.593 109.288 120.653 109.156 120.658 109.017C120.664 108.877 120.614 108.741 120.519 108.638C120.425 108.536 120.294 108.475 120.155 108.47C120.147 108.469 120.139 108.469 120.132 108.469L95.4138 108.469Z" fill="#E6E6E6"/>
<path d="M123.333 130.083H82.9136C82.7152 130.083 82.5249 130.004 82.3846 129.862C82.2443 129.721 82.1654 129.53 82.1652 129.33V119.242C82.1654 119.042 82.2444 118.851 82.3847 118.709C82.525 118.568 82.7152 118.489 82.9136 118.489H123.333C123.532 118.489 123.722 118.568 123.862 118.709C124.003 118.851 124.082 119.042 124.082 119.242V129.33C124.082 129.53 124.003 129.721 123.862 129.862C123.722 130.004 123.532 130.083 123.333 130.083ZM82.9136 118.79C82.7945 118.79 82.6803 118.837 82.5961 118.922C82.5119 119.007 82.4646 119.122 82.4645 119.242V129.33C82.4646 129.45 82.5119 129.565 82.5961 129.65C82.6803 129.734 82.7945 129.782 82.9136 129.782H123.333C123.453 129.782 123.567 129.734 123.651 129.65C123.735 129.565 123.783 129.45 123.783 129.33V119.242C123.783 119.122 123.735 119.007 123.651 118.922C123.567 118.837 123.453 118.79 123.333 118.79H82.9136Z" fill="#E6E6E6"/>
<path d="M95.4138 122.176C95.2748 122.176 95.1415 122.232 95.0432 122.331C94.945 122.43 94.8898 122.564 94.8898 122.704C94.8898 122.843 94.945 122.977 95.0432 123.076C95.1415 123.175 95.2748 123.231 95.4138 123.231H120.115C120.252 123.23 120.383 123.175 120.48 123.078C120.578 122.981 120.633 122.85 120.636 122.712C120.638 122.574 120.586 122.441 120.492 122.341C120.398 122.241 120.269 122.182 120.132 122.176H95.4138V122.176Z" fill="#E6E6E6"/>
<path d="M95.4138 125.34C95.2748 125.34 95.1415 125.395 95.0432 125.494C94.945 125.593 94.8898 125.727 94.8898 125.867C94.8898 126.007 94.945 126.141 95.0432 126.24C95.1415 126.339 95.2748 126.394 95.4138 126.394H120.115C120.252 126.394 120.383 126.339 120.48 126.242C120.578 126.145 120.633 126.013 120.636 125.876C120.638 125.738 120.586 125.605 120.492 125.504C120.398 125.404 120.269 125.345 120.132 125.34H95.4138V125.34Z" fill="#E6E6E6"/>
<path d="M123.333 146.954H82.9136C82.7152 146.953 82.5249 146.874 82.3846 146.733C82.2443 146.592 82.1654 146.4 82.1652 146.2V136.112C82.1654 135.912 82.2444 135.721 82.3847 135.58C82.525 135.439 82.7152 135.359 82.9136 135.359H123.333C123.532 135.359 123.722 135.439 123.862 135.58C124.003 135.721 124.082 135.912 124.082 136.112V146.201C124.082 146.4 124.003 146.592 123.862 146.733C123.722 146.874 123.532 146.953 123.333 146.954V146.954ZM82.9136 135.66C82.7945 135.66 82.6803 135.708 82.5961 135.793C82.5119 135.877 82.4646 135.992 82.4645 136.112V146.201C82.4646 146.32 82.5119 146.435 82.5961 146.52C82.6803 146.605 82.7945 146.652 82.9136 146.653H123.333C123.453 146.652 123.567 146.605 123.651 146.52C123.735 146.435 123.783 146.32 123.783 146.201V136.112C123.783 135.992 123.735 135.877 123.651 135.793C123.567 135.708 123.453 135.66 123.333 135.66H82.9136Z" fill="#E6E6E6"/>
<path d="M95.4138 139.047C95.2748 139.047 95.1415 139.103 95.0432 139.202C94.945 139.3 94.8898 139.435 94.8898 139.574C94.8898 139.714 94.945 139.848 95.0432 139.947C95.1415 140.046 95.2748 140.102 95.4138 140.102H120.115C120.183 140.104 120.252 140.093 120.317 140.069C120.381 140.045 120.44 140.009 120.491 139.962C120.541 139.914 120.582 139.858 120.611 139.795C120.64 139.732 120.656 139.664 120.658 139.595C120.661 139.526 120.65 139.457 120.626 139.392C120.602 139.327 120.566 139.267 120.519 139.216C120.472 139.166 120.416 139.124 120.354 139.096C120.291 139.067 120.224 139.05 120.155 139.048C120.147 139.047 120.139 139.047 120.132 139.047L95.4138 139.047Z" fill="#E6E6E6"/>
<path d="M95.4138 142.211C95.2748 142.211 95.1415 142.266 95.0432 142.365C94.945 142.464 94.8898 142.598 94.8898 142.738C94.8898 142.878 94.945 143.012 95.0432 143.111C95.1415 143.21 95.2748 143.265 95.4138 143.265H120.115C120.183 143.268 120.252 143.257 120.317 143.233C120.381 143.209 120.44 143.172 120.491 143.125C120.541 143.078 120.582 143.021 120.611 142.959C120.64 142.896 120.656 142.828 120.658 142.758C120.661 142.689 120.65 142.62 120.626 142.555C120.602 142.49 120.566 142.431 120.519 142.38C120.472 142.329 120.416 142.288 120.354 142.259C120.291 142.23 120.224 142.214 120.155 142.211C120.147 142.211 120.139 142.211 120.132 142.211H95.4137L95.4138 142.211Z" fill="#E6E6E6"/>
<path d="M160.619 175H15.3811C15.1705 175 15 174.907 15 174.793C15 174.679 15.1707 174.586 15.3811 174.586H160.619C160.829 174.586 161 174.679 161 174.793C161 174.907 160.83 175 160.619 175Z" fill="#E6E6E6"/>
<path d="M154.468 166.934C153.847 167.153 153.181 167.208 152.533 167.093C151.886 166.978 151.278 166.698 150.77 166.278C149.474 165.184 149.068 163.382 148.738 161.713L147.76 156.777L149.807 158.195C151.278 159.214 152.783 160.267 153.802 161.743C154.821 163.22 155.266 165.236 154.447 166.834" fill="#E6E6E6"/>
<path d="M154.152 173.253C154.409 171.365 154.674 169.453 154.494 167.545C154.333 165.85 153.819 164.195 152.773 162.837C152.218 162.118 151.542 161.502 150.776 161.017C150.577 160.89 150.393 161.208 150.592 161.335C151.917 162.177 152.941 163.421 153.518 164.888C154.155 166.518 154.258 168.296 154.147 170.028C154.081 171.075 153.94 172.116 153.799 173.155C153.787 173.202 153.794 173.252 153.818 173.294C153.842 173.336 153.881 173.367 153.926 173.382C153.973 173.394 154.023 173.388 154.065 173.364C154.107 173.34 154.138 173.3 154.151 173.253H154.152Z" fill="#F2F2F2"/>
<path d="M152.298 170.224C152.032 170.631 151.666 170.962 151.236 171.185C150.806 171.409 150.325 171.517 149.842 171.499C148.598 171.44 147.561 170.567 146.628 169.738L143.868 167.286L145.695 167.198C147.009 167.134 148.356 167.075 149.608 167.483C150.86 167.891 152.014 168.872 152.242 170.174" fill="#E6E6E6"/>
<path d="M154.88 174.338C153.641 172.131 152.202 169.678 149.632 168.893C148.917 168.676 148.168 168.598 147.425 168.664C147.19 168.684 147.249 169.048 147.484 169.028C148.73 168.923 149.974 169.255 151.006 169.965C151.999 170.646 152.773 171.591 153.427 172.594C153.828 173.208 154.187 173.849 154.546 174.488C154.66 174.693 154.996 174.545 154.88 174.338Z" fill="#F2F2F2"/>
<path d="M87.9562 110.572C89.6925 110.572 91.1 109.155 91.1 107.408C91.1 105.661 89.6925 104.245 87.9562 104.245C86.22 104.245 84.8125 105.661 84.8125 107.408C84.8125 109.155 86.22 110.572 87.9562 110.572Z" fill="#0F53D9"/>
<path d="M86.4512 106.817C86.415 106.817 86.3857 107.053 86.3857 107.345C86.3857 107.636 86.415 107.872 86.4512 107.872H89.5424C89.5786 107.877 89.6085 107.645 89.6091 107.353C89.6292 107.172 89.6071 106.989 89.5446 106.818H86.4512V106.817Z" fill="#E6E6E6"/>
<path d="M87.9562 127.449C89.6925 127.449 91.1 126.033 91.1 124.286C91.1 122.539 89.6925 121.123 87.9562 121.123C86.22 121.123 84.8125 122.539 84.8125 124.286C84.8125 126.033 86.22 127.449 87.9562 127.449Z" fill="#0F53D9"/>
<path d="M86.4512 123.695C86.415 123.695 86.3857 123.931 86.3857 124.222C86.3857 124.513 86.415 124.749 86.4512 124.749H89.5424C89.5786 124.754 89.6085 124.522 89.6091 124.231C89.6292 124.05 89.6071 123.866 89.5446 123.695L86.4512 123.695Z" fill="#E6E6E6"/>
<path d="M87.9562 144.319C89.6925 144.319 91.1 142.903 91.1 141.156C91.1 139.409 89.6925 137.993 87.9562 137.993C86.22 137.993 84.8125 139.409 84.8125 141.156C84.8125 142.903 86.22 144.319 87.9562 144.319Z" fill="#0F53D9"/>
<path d="M86.4512 140.565C86.415 140.565 86.3857 140.801 86.3857 141.092C86.3857 141.383 86.415 141.62 86.4512 141.62H89.5424C89.5786 141.624 89.6085 141.392 89.6091 141.101C89.6292 140.92 89.6071 140.737 89.5446 140.565L86.4512 140.565Z" fill="#E6E6E6"/>
<path d="M98.5204 68.3536L97.408 69.4729L106.725 78.8474L107.837 77.7281L98.5204 68.3536Z" fill="white"/>
<path d="M107.837 69.4729L106.725 68.3535L97.408 77.728L98.5204 78.8474L107.837 69.4729Z" fill="white"/>
<path d="M32.7499 124.257C33.0225 124.16 33.2705 124.004 33.4767 123.8C33.6828 123.596 33.842 123.349 33.943 123.077C34.044 122.804 34.0844 122.513 34.0613 122.223C34.0383 121.933 33.9523 121.652 33.8095 121.399L38.4437 116.083L34.8261 115.581L30.98 120.706C30.5736 120.975 30.2797 121.385 30.1538 121.859C30.0279 122.332 30.0789 122.835 30.2971 123.273C30.5153 123.71 30.8855 124.052 31.3375 124.234C31.7896 124.415 32.2921 124.424 32.7499 124.257Z" fill="#9F616A"/>
<path d="M38.3388 171.367L35.1067 171.367L33.5691 158.823L38.3394 158.823L38.3388 171.367Z" fill="#9F616A"/>
<path d="M39.1631 174.52L28.7415 174.52V174.387C28.7415 173.304 29.1689 172.266 29.9296 171.501C30.6903 170.736 31.7221 170.305 32.7979 170.305H32.7981L39.1633 170.306L39.1631 174.52Z" fill="#2F2E41"/>
<path d="M55.2578 168.646L52.1711 169.61L47.0057 158.089L51.5614 156.666L55.2578 168.646Z" fill="#9F616A"/>
<path d="M56.9742 171.411L47.0212 174.52L46.9821 174.393C46.6631 173.359 46.7653 172.24 47.2663 171.282C47.7672 170.324 48.6257 169.606 49.6531 169.285L49.6534 169.285L55.7324 167.386L56.9742 171.411Z" fill="#2F2E41"/>
<path d="M35.8637 113.534L31.0769 119.05L34.8244 119.39L35.8637 113.534Z" fill="#E6E6E6"/>
<path d="M33.9933 120.644C33.9933 120.644 32.3306 121.481 32.1227 125.245C31.9149 129.01 32.7463 138.839 32.7463 138.839C32.7463 138.839 31.915 143.231 32.7463 147.204C33.5776 151.177 31.915 165.606 32.9542 165.606C33.9933 165.606 39.397 166.234 39.6048 165.606C39.8127 164.979 40.0206 155.568 40.0206 155.568C40.0206 155.568 41.6833 150.758 40.0206 147.832C40.0206 147.832 45.826 158.032 49.581 165.816C50.4028 167.52 56.6474 165.607 55.6082 163.725C54.5691 161.843 52.0751 153.269 52.0751 153.269C52.0751 153.269 50.2045 146.995 46.8793 144.276L48.542 130.892C48.542 130.892 52.0753 121.9 49.9973 120.645C47.9192 119.39 33.9933 120.644 33.9933 120.644Z" fill="#2F2E41"/>
<path d="M40.2283 86.5568C43.2126 86.5568 45.632 84.1224 45.632 81.1196C45.632 78.1167 43.2126 75.6824 40.2283 75.6824C37.2439 75.6824 34.8246 78.1167 34.8246 81.1196C34.8246 84.1224 37.2439 86.5568 40.2283 86.5568Z" fill="#A0616A"/>
<path d="M46.2555 86.9751L39.5378 90.9484C39.5378 90.9484 36.9656 92.406 36.0047 94.9217C34.9805 97.6029 35.5758 101.378 36.0047 102.241C36.836 103.914 35.656 108.097 35.656 108.097L34.6169 117.716C34.6169 117.716 30.8759 121.271 33.7856 121.69C36.6954 122.108 41.8912 121.48 45.0087 121.69C48.1263 121.899 51.6594 122.317 50.6203 120.225C49.5812 118.134 48.3342 116.67 49.5812 112.488C50.557 109.216 50.5147 96.9784 50.4502 91.8106C50.4413 91.1009 50.2521 90.4053 49.9007 89.7899C49.5492 89.1746 49.0471 88.6599 48.4421 88.2949L46.2555 86.9751Z" fill="#E5E5E5"/>
<path opacity="0.1" d="M43.2427 93.5627L43.8661 106.319L37.8237 118.632L36.799 118.239L43.0341 106.737L43.2427 93.5627Z" fill="black"/>
<path opacity="0.1" d="M50.1005 109.038V107.573L43.0349 119.285L50.1005 109.038Z" fill="black"/>
<path d="M36.3931 76.0828L35.5005 75.7235C35.5005 75.7235 37.3687 73.6543 39.9671 73.8342L39.2362 73.0245C39.2362 73.0245 41.0228 72.3048 42.6472 74.1939C43.501 75.187 44.4888 76.3545 45.1053 77.6694H46.0621L45.6629 78.5541L47.0603 79.4388L45.6259 79.2805C45.7618 80.0442 45.7152 80.8295 45.4902 81.5717L45.5295 82.2709C45.5295 82.2709 43.866 79.681 43.866 79.3216V80.2214C43.866 80.2214 42.9726 79.4117 42.9726 78.8719L42.4853 79.5017L42.2417 78.5123L39.2368 79.5017L39.7237 78.6916L37.8555 78.9615L38.5864 77.9721C38.5864 77.9721 36.4749 79.1416 36.3937 80.1313C36.3125 81.1211 35.2569 82.3804 35.2569 82.3804L34.7696 81.4806C34.7696 81.4806 34.0388 77.4323 36.3931 76.0828Z" fill="#2F2E41"/>
<path d="M39.8892 124.849C40.1403 124.705 40.3569 124.507 40.5238 124.27C40.6907 124.032 40.8038 123.761 40.8551 123.474C40.9064 123.188 40.8947 122.894 40.8209 122.613C40.747 122.331 40.6128 122.07 40.4276 121.847L44.0505 115.788L40.4018 115.94L37.5208 121.67C37.1685 122.008 36.9516 122.464 36.9112 122.952C36.8708 123.44 37.0097 123.926 37.3016 124.318C37.5936 124.71 38.0182 124.98 38.4951 125.078C38.972 125.176 39.4681 125.095 39.8892 124.849Z" fill="#9F616A"/>
<path d="M48.1263 89.6942L49.685 89.3806C49.685 89.3806 54.3613 92.8311 52.9064 99.7322C51.4515 106.633 45.0087 117.09 45.0087 117.09C45.0087 117.09 43.5535 118.972 43.1382 119.39C42.7228 119.808 41.8912 119.39 42.3069 120.017C42.7226 120.645 41.6833 121.063 41.6833 121.063C41.6833 121.063 37.1109 121.063 37.5266 119.39C37.9423 117.717 45.0087 105.796 45.0087 105.796L43.9696 94.7123C43.9696 94.7123 43.138 89.2759 48.1263 89.6942Z" fill="#E5E5E5"/>
</g>
<defs>
<clipPath id="clip0_1857_16276">
<rect width="146" height="141" fill="white" transform="translate(15 34)"/>
</clipPath>
</defs>
</svg>
