<svg width="240" height="144" viewBox="0 0 240 144" fill="none" xmlns="http://www.w3.org/2000/svg">
<g clip-path="url(#clip0_7888_465)">
<path d="M40.2734 137.072C40.0812 137.081 39.8908 137.031 39.7281 136.928C39.5655 136.825 39.4384 136.674 39.3642 136.497C39.2899 136.319 39.272 136.123 39.313 135.935C39.3539 135.747 39.4517 135.576 39.593 135.445L39.6574 135.19C39.6489 135.169 39.6404 135.149 39.6318 135.128C39.4381 134.671 39.1135 134.281 38.6987 134.007C38.284 133.734 37.7976 133.589 37.3007 133.591C36.8039 133.593 36.3186 133.741 35.9059 134.018C35.4932 134.294 35.1715 134.687 34.9812 135.146C34.2205 136.977 33.2521 138.812 33.0137 140.748C32.9087 141.604 32.953 142.471 33.1446 143.312C31.3581 139.416 30.4304 135.182 30.4244 130.897C30.4241 129.821 30.4838 128.746 30.6035 127.678C30.7023 126.802 30.8395 125.932 31.015 125.068C31.9725 120.382 34.0284 115.989 37.0138 112.252C38.4587 111.463 39.6272 110.251 40.3619 108.779C40.628 108.25 40.8161 107.685 40.9203 107.101C40.7573 107.123 40.3058 104.641 40.4287 104.489C40.2015 104.144 39.795 103.973 39.5469 103.637C38.3131 101.965 36.6132 102.257 35.7258 104.529C33.8301 105.486 33.8118 107.072 34.975 108.597C35.715 109.568 35.8167 110.881 36.466 111.92C36.3992 112.006 36.3297 112.089 36.2629 112.174C35.0418 113.744 33.9774 115.429 33.0852 117.207C33.3022 115.216 33.0432 113.201 32.3296 111.33C31.6064 109.586 30.2508 108.117 29.057 106.609C27.6231 104.798 24.6828 105.588 24.4301 107.884C24.4277 107.906 24.4253 107.929 24.423 107.951C24.6003 108.051 24.7739 108.157 24.9437 108.269C25.157 108.412 25.3224 108.615 25.418 108.853C25.5136 109.091 25.5351 109.353 25.4796 109.603C25.4241 109.854 25.2942 110.081 25.1069 110.257C24.9197 110.432 24.6838 110.547 24.4302 110.586L24.4043 110.59C24.4675 111.229 24.5791 111.862 24.7383 112.484C23.2068 118.405 26.5131 120.561 31.2341 120.658C31.3383 120.711 31.4398 120.765 31.5441 120.815C30.6477 123.355 30.0854 126 29.8714 128.685C29.7502 130.269 29.7573 131.86 29.8927 133.442L29.8847 133.386C29.5427 131.626 28.6036 130.038 27.226 128.89C25.18 127.21 22.2893 126.592 20.082 125.241C19.8474 125.09 19.5747 125.01 19.2959 125.009C19.0171 125.009 18.744 125.088 18.5087 125.237C18.2733 125.387 18.0857 125.6 17.9678 125.853C17.8499 126.105 17.8067 126.386 17.8434 126.662C17.8463 126.682 17.8493 126.702 17.8524 126.721C18.1814 126.855 18.5018 127.01 18.8116 127.184C18.989 127.284 19.1625 127.39 19.3324 127.502C19.5457 127.644 19.711 127.848 19.8066 128.086C19.9022 128.324 19.9237 128.585 19.8682 128.836C19.8127 129.086 19.6828 129.314 19.4956 129.49C19.3084 129.665 19.0725 129.78 18.8189 129.819L18.7929 129.823C18.7742 129.825 18.7582 129.828 18.7395 129.831C19.3017 131.173 20.0908 132.408 21.0722 133.482C22.0298 138.651 26.1426 139.141 30.542 137.636H30.5447C31.0274 139.733 31.7268 141.774 32.6316 143.726H40.0867C40.1134 143.643 40.1374 143.558 40.1615 143.475C39.4714 143.519 38.7787 143.477 38.0986 143.352C38.6518 142.674 39.2049 141.99 39.758 141.312C39.7703 141.299 39.7819 141.285 39.7927 141.271C40.0733 140.924 40.3566 140.58 40.6371 140.232L40.6373 140.232C40.6522 139.167 40.5298 138.105 40.2734 137.072Z" fill="#E4E2E6"/>
<path d="M195.985 137.072C196.177 137.081 196.367 137.031 196.53 136.928C196.693 136.825 196.82 136.674 196.894 136.497C196.968 136.319 196.986 136.123 196.945 135.935C196.904 135.747 196.807 135.576 196.665 135.445L196.601 135.19C196.609 135.169 196.618 135.149 196.626 135.128C196.82 134.671 197.145 134.281 197.559 134.007C197.974 133.734 198.461 133.589 198.957 133.591C199.454 133.593 199.94 133.741 200.352 134.018C200.765 134.294 201.087 134.687 201.277 135.146C202.038 136.977 203.006 138.812 203.245 140.748C203.35 141.604 203.305 142.471 203.114 143.312C204.9 139.416 205.828 135.182 205.834 130.897C205.834 129.821 205.774 128.746 205.655 127.678C205.556 126.802 205.419 125.932 205.243 125.068C204.286 120.382 202.23 115.989 199.244 112.252C197.8 111.463 196.631 110.251 195.896 108.779C195.63 108.25 195.442 107.685 195.338 107.101C195.501 107.123 195.952 104.641 195.83 104.489C196.057 104.144 196.463 103.973 196.711 103.637C197.945 101.965 199.645 102.257 200.532 104.529C202.428 105.486 202.446 107.072 201.283 108.597C200.543 109.568 200.442 110.881 199.792 111.92C199.859 112.006 199.929 112.089 199.995 112.174C201.216 113.744 202.281 115.429 203.173 117.207C202.956 115.216 203.215 113.201 203.929 111.33C204.652 109.586 206.007 108.117 207.201 106.609C208.635 104.798 211.575 105.588 211.828 107.884C211.831 107.906 211.833 107.929 211.835 107.951C211.658 108.051 211.484 108.157 211.315 108.269C211.101 108.412 210.936 108.615 210.84 108.853C210.745 109.091 210.723 109.353 210.779 109.603C210.834 109.854 210.964 110.081 211.151 110.257C211.339 110.432 211.574 110.547 211.828 110.586L211.854 110.59C211.791 111.229 211.679 111.862 211.52 112.484C213.051 118.405 209.745 120.561 205.024 120.658C204.92 120.711 204.818 120.765 204.714 120.815C205.611 123.355 206.173 126 206.387 128.685C206.508 130.269 206.501 131.86 206.365 133.442L206.374 133.386C206.716 131.626 207.655 130.038 209.032 128.89C211.078 127.21 213.969 126.592 216.176 125.241C216.411 125.09 216.684 125.01 216.962 125.009C217.241 125.009 217.514 125.088 217.75 125.237C217.985 125.387 218.173 125.6 218.29 125.853C218.408 126.105 218.452 126.386 218.415 126.662C218.412 126.682 218.409 126.702 218.406 126.721C218.077 126.855 217.756 127.01 217.447 127.184C217.269 127.284 217.096 127.39 216.926 127.502C216.713 127.644 216.547 127.848 216.452 128.086C216.356 128.324 216.335 128.585 216.39 128.836C216.446 129.086 216.575 129.314 216.763 129.49C216.95 129.665 217.186 129.78 217.439 129.819L217.465 129.823C217.484 129.825 217.5 129.828 217.519 129.831C216.957 131.173 216.167 132.408 215.186 133.482C214.228 138.651 210.116 139.141 205.716 137.636H205.714C205.231 139.733 204.531 141.774 203.627 143.726H196.172C196.145 143.643 196.121 143.558 196.097 143.475C196.787 143.519 197.48 143.477 198.16 143.352C197.606 142.674 197.053 141.99 196.5 141.312C196.488 141.299 196.476 141.285 196.466 141.271C196.185 140.924 195.902 140.58 195.621 140.232L195.621 140.232C195.606 139.167 195.728 138.105 195.985 137.072Z" fill="#E4E2E6"/>
<path d="M48.8481 143.559H60.8783C62.9358 136.634 60.8892 120.266 63.6012 113.577C68.8043 100.75 75.4514 87.2156 87.8578 80.9525C93.155 78.2782 98.9308 77.2337 104.829 77.2906C112.977 77.3678 121.355 79.5544 129.024 82.4522C132.162 83.635 135.271 84.9355 138.367 86.2645C150.033 91.2758 161.572 96.7342 174.118 98.2095C189.993 100.075 208.658 92.9747 212.994 77.6808C216.303 65.9715 210.343 53.8152 204.093 43.3578C197.843 32.9004 190.856 21.7114 191.998 9.60384C192.002 9.5632 192.006 9.51848 192.014 9.47785C192.443 5.12905 195.041 2.00369 198.669 0H182.872C182.663 11.2947 189.2 21.2643 195.082 31.108C201.332 41.5614 207.292 53.7217 203.983 65.431C199.647 80.7208 163.743 62.7979 147.868 60.9283C143.385 60.4041 150.507 62.2696 146.232 60.9283C139.528 58.8271 138.784 78.0994 132.26 75.2706C128.198 73.5067 124.132 71.755 120.013 70.1984C118.307 69.5522 116.565 68.9466 114.802 68.3857C114.798 68.3857 114.798 68.3857 114.794 68.3816C102.956 64.6344 90.0094 63.1753 79.0715 68.593C78.9979 68.6296 78.9201 68.6662 78.8465 68.7027C66.44 74.9617 59.793 88.4958 54.5899 101.323C50.2908 111.926 50.967 132.374 48.8481 143.559Z" fill="#E4E2E6"/>
<path d="M115.779 143.205C146.294 143.205 171.032 118.475 171.032 87.9695C171.032 57.464 146.294 32.7343 115.779 32.7343C85.2633 32.7343 60.5256 57.464 60.5256 87.9695C60.5256 118.475 85.2633 143.205 115.779 143.205Z" fill="white"/>
<path d="M115.621 143.559C60.9535 144.815 59.7548 118.851 59.7548 87.9693C59.7548 57.0881 84.8871 31.9639 115.779 31.9639C146.67 31.9639 171.803 57.0881 171.803 87.9693C171.803 118.851 146.513 143.559 115.621 143.559ZM115.779 33.505C85.7369 33.505 61.8022 57.9419 61.2963 87.9693C60.8257 115.899 90.5056 150.75 115.779 142.434C129.332 127.513 167.651 111.441 170.261 87.9693C173.581 58.1215 145.821 33.505 115.779 33.505Z" fill="#3F3D56"/>
<path d="M108.241 116.717C107.287 116.717 106.346 116.495 105.493 116.068C104.639 115.641 103.897 115.022 103.325 114.259L88.2508 94.1664C87.7661 93.5209 87.4134 92.7863 87.2128 92.0045C87.0122 91.2228 86.9676 90.4092 87.0816 89.6102C87.1956 88.8112 87.466 88.0425 87.8773 87.348C88.2886 86.6534 88.8327 86.0467 89.4786 85.5625C90.1245 85.0783 90.8595 84.726 91.6416 84.5258C92.4237 84.3256 93.2376 84.2815 94.0368 84.3958C94.836 84.5102 95.6049 84.7808 96.2994 85.1923C96.994 85.6037 97.6006 86.148 98.0847 86.7939L107.947 99.9378L133.276 61.9572C134.18 60.6023 135.586 59.6619 137.184 59.3428C138.782 59.0238 140.441 59.3521 141.797 60.2557C143.153 61.1594 144.094 62.5642 144.414 64.1615C144.734 65.7588 144.407 67.4178 143.504 68.7737L113.356 113.981C112.81 114.798 112.077 115.473 111.217 115.949C110.357 116.425 109.395 116.687 108.412 116.715C108.355 116.716 108.298 116.717 108.241 116.717Z" fill="#FBF8FD"/>
<path d="M108.241 116.717C107.287 116.717 106.346 116.495 105.493 116.068C104.639 115.641 103.897 115.022 103.325 114.259L88.2508 94.1664C87.7661 93.5209 87.4134 92.7863 87.2128 92.0045C87.0122 91.2228 86.9676 90.4092 87.0816 89.6102C87.1956 88.8112 87.466 88.0425 87.8773 87.348C88.2886 86.6534 88.8327 86.0467 89.4786 85.5625C90.1245 85.0783 90.8595 84.726 91.6416 84.5258C92.4237 84.3256 93.2376 84.2815 94.0368 84.3958C94.836 84.5102 95.6049 84.7808 96.2994 85.1923C96.994 85.6037 97.6006 86.148 98.0847 86.7939L107.947 99.9378L133.276 61.9572C134.18 60.6023 135.586 59.6619 137.184 59.3428C138.782 59.0238 140.441 59.3521 141.797 60.2557C143.153 61.1594 144.094 62.5642 144.414 64.1615C144.734 65.7588 144.407 67.4178 143.504 68.7737L113.356 113.981C112.81 114.798 112.077 115.473 111.217 115.949C110.357 116.425 109.395 116.687 108.412 116.715C108.355 116.716 108.298 116.717 108.241 116.717Z" fill="#0E53D9" fill-opacity="0.05"/>
<path d="M1.76145e-06 143.602C-0.000154102 143.654 0.0100352 143.706 0.0299806 143.755C0.0499259 143.803 0.0792355 143.847 0.116223 143.884C0.15321 143.921 0.197141 143.95 0.245496 143.97C0.293851 143.99 0.345677 144 0.397983 144H239.602C239.708 144 239.809 143.958 239.883 143.883C239.958 143.809 240 143.708 240 143.602C240 143.497 239.958 143.395 239.883 143.321C239.809 143.246 239.708 143.204 239.602 143.204H0.397983C0.345677 143.204 0.293856 143.214 0.245501 143.234C0.197147 143.254 0.153214 143.284 0.116228 143.321C0.079241 143.358 0.0499316 143.401 0.0299857 143.45C0.0100397 143.498 -0.000152326 143.55 1.76145e-06 143.602Z" fill="#C6C6D0"/>
<path d="M151.062 139.702H147.827L146.288 127.227L151.063 127.227L151.062 139.702Z" fill="#FFB6B6"/>
<path d="M151.176 143.076L141.227 143.076V142.95C141.227 141.924 141.635 140.939 142.362 140.213C143.088 139.487 144.073 139.079 145.1 139.079L146.917 137.701L150.308 139.079L151.176 139.079L151.176 143.076Z" fill="#2F2E41"/>
<path d="M136.997 124.241L134.008 125.48L127.806 114.546L132.217 112.718L136.997 124.241Z" fill="#FFB6B6"/>
<path d="M138.395 127.314L129.205 131.124L129.157 131.008C128.763 130.059 128.763 128.994 129.155 128.045C129.548 127.096 130.301 126.342 131.25 125.949L132.401 123.98L136.061 123.955L136.863 123.622L138.395 127.314Z" fill="#2F2E41"/>
<path d="M154.762 68.7365L131.801 71.1346L128.73 81.4756L118.094 98.5631C118.094 98.5631 125.515 111.051 124.819 110.915C124.122 110.779 125.515 114.183 126.49 113.985C127.466 113.788 128.48 116.007 127.806 116.402C127.131 116.796 129.837 120.133 129.837 120.133L133.973 116.422C134.853 109.789 133.79 103.885 130.003 99.0041L141.853 86.2159L144.1 85.2839L145.883 132.738L152.48 132.846C154.3 123.485 155.215 115.06 153.792 109.05C153.792 109.05 153.996 90.9942 154.777 91.1916C155.557 91.3891 154.895 89.0369 154.895 89.0369C154.895 89.0369 154.212 87.0337 155.052 86.2026C155.891 85.3715 155.367 80.4837 155.367 80.4837C156.754 75.858 156.337 72.0387 154.762 68.7365Z" fill="#2F2E41"/>
<path d="M137.108 30.5751L143.455 28.9308L146.418 24.8456L153.455 25.7103L154.952 31.2826L159.962 34.1894C159.962 34.1894 157.193 63.4652 157.852 65.0727C158.51 66.6802 160.872 66.5475 158.855 68.6197C156.838 70.6919 156.571 69.8572 157.039 72.1132C157.507 74.3692 160.918 76.7567 157.039 76.733C153.16 76.7094 129.75 76.375 130.419 73.7006C131.088 71.0261 131.078 71.7053 132.086 70.0285C133.095 68.3517 133.773 69.2887 133.434 66.8144C133.095 64.34 133.429 62.6685 133.429 61.3313C133.429 59.994 134.55 47.8425 134.55 47.8425L137.108 30.5751Z" fill="#E6E6E6"/>
<path d="M149.919 24.0905C154.037 24.0905 157.375 20.7531 157.375 16.6363C157.375 12.5194 154.037 9.18203 149.919 9.18203C145.8 9.18203 142.462 12.5194 142.462 16.6363C142.462 20.7531 145.8 24.0905 149.919 24.0905Z" fill="#FFB6B6"/>
<path d="M142.105 12.125C142.76 12.6539 142.61 15.2263 143.34 14.807C144.069 14.3877 144.221 13.6369 145.061 13.629C145.746 13.6668 146.392 13.9591 146.873 14.4484C146.962 14.5292 147.047 14.6139 147.13 14.6977C147.205 14.6712 147.28 14.6472 147.358 14.6275C147.947 14.4837 148.569 14.5712 149.096 14.8721C148.61 14.9068 148.147 15.0934 147.772 15.4056C147.933 15.5853 148.096 15.7659 148.267 15.9329C149.695 17.3319 152.623 15.842 154.592 15.5059C152.952 17.2957 153.275 18.2949 153.683 20.6873L153.685 20.818C153.769 20.2663 155.536 20.2938 155.245 21.0258C154.879 21.749 154.421 22.4219 153.882 23.0279C156.291 21.3599 158.235 19.0608 158.665 16.2836C158.753 15.6997 158.925 15.1039 158.759 14.5346C158.688 14.2467 158.524 13.9904 158.292 13.8056C158.06 13.6208 157.774 13.518 157.477 13.5132C157.745 12.6613 157.778 11.7527 157.571 10.8838C157.364 10.015 156.925 9.2185 156.301 8.579C155.678 7.93951 154.892 7.48092 154.029 7.25199C153.165 7.02307 152.256 7.03237 151.397 7.27889C150.614 7.55719 149.849 7.88687 149.11 8.26576C148.363 8.64613 147.518 8.78924 146.687 8.67592C146.17 8.5691 145.646 8.30133 145.139 8.45294C144.551 8.6291 144.299 9.24941 144.063 9.84824C144.505 10.0096 144.889 10.2991 145.166 10.6797C144.709 10.5111 144.21 10.4908 143.741 10.6218C143.733 10.6233 143.724 10.6256 143.716 10.6287C143.184 11.5817 143.153 11.8153 142.105 12.125Z" fill="#2F2E41"/>
<path d="M144.564 26.934C140.745 26.6266 137.257 29.5466 135.668 33.0316C134.078 36.5166 133.973 40.4701 133.896 44.2997L133.656 56.2039C133.621 57.9654 133.585 59.7273 133.498 61.487C133.452 63.1993 133.237 64.9029 132.854 66.5726C132.076 69.6364 130.363 72.3667 128.675 75.0399C132.996 76.3458 137.391 77.395 141.836 78.1822C144.056 71.0042 146.302 63.6199 145.756 56.1265C145.467 52.1612 144.4 48.2898 143.995 44.3348C143.421 38.7334 144.182 33.0907 144.942 27.5115" fill="#3F3D56"/>
<path d="M153.835 27.6035C157.618 28.2116 160.312 31.8759 161.029 35.6387C161.745 39.4015 160.907 43.2666 160.072 47.005C159.208 50.8785 158.343 54.752 157.478 58.6256C157.094 60.3452 156.71 62.065 156.377 63.7952C156.054 65.4761 157.408 67.6318 157.423 69.3433C157.452 72.5044 156.838 75.1079 157.842 78.1053C153.334 78.348 148.816 78.3239 144.311 78.0333C143.859 70.5336 143.432 62.8275 145.743 55.678C146.965 51.8947 148.921 48.3873 150.254 44.6417C152.143 39.3369 152.744 33.6749 153.331 28.0749" fill="#3F3D56"/>
<path d="M156.357 81.6446C156.076 81.1552 155.997 80.5754 156.137 80.0288C156.277 79.4821 156.625 79.0117 157.107 78.7176C157.206 78.6593 157.309 78.6094 157.416 78.5682L156.934 62.1485L162.16 60.8188L160.167 79.9485C160.303 80.4057 160.285 80.8952 160.113 81.3406C159.942 81.786 159.628 82.1622 159.221 82.4105C158.988 82.5495 158.729 82.6413 158.46 82.6806C158.192 82.7198 157.918 82.7058 157.655 82.6392C157.391 82.5727 157.144 82.4549 156.926 82.2927C156.708 82.1305 156.524 81.927 156.385 81.6938C156.376 81.6775 156.366 81.6612 156.357 81.6446Z" fill="#FFB6B6"/>
<path d="M155.975 34.1632C155.975 34.1632 159.623 31.0796 162.692 37.2453C165.762 43.4111 164.046 57.4968 163.614 58.2486C163.182 59.0003 162.919 57.9531 163.155 59.957C163.348 61.5867 162.203 61.3829 162.614 61.7307C163.696 62.6477 160.665 62.7521 162.222 63.5602C163.779 64.3682 156.812 64.5195 156.812 64.5195C156.812 64.5195 155.969 63.9179 156.554 61.6493C156.883 60.3751 157.706 59.909 156.828 59.3194C155.95 58.7297 157.735 56.9069 157.736 56.507C157.737 56.107 154.954 47.3592 154.954 47.3592L155.975 34.1632Z" fill="#3F3D56"/>
<path d="M125.791 110.12C124.837 110.12 123.896 109.898 123.043 109.471C122.189 109.045 121.447 108.425 120.875 107.662L105.801 87.5697C105.316 86.9243 104.963 86.1897 104.763 85.4079C104.562 84.6262 104.518 83.8125 104.632 83.0135C104.746 82.2145 105.016 81.4458 105.427 80.7513C105.839 80.0568 106.383 79.4501 107.029 78.9659C107.674 78.4817 108.409 78.1294 109.192 77.9292C109.974 77.729 110.788 77.6848 111.587 77.7992C112.386 77.9135 113.155 78.1842 113.849 78.5956C114.544 79.0071 115.151 79.5513 115.635 80.1973L125.496 93.3411L150.825 55.3606C151.273 54.6892 151.849 54.1126 152.519 53.6636C153.19 53.2146 153.943 52.9021 154.734 52.7439C155.526 52.5856 156.34 52.5848 157.132 52.7413C157.924 52.8979 158.677 53.2089 159.349 53.6565C160.02 54.104 160.597 54.6795 161.046 55.3499C161.495 56.0203 161.808 56.7726 161.966 57.5638C162.125 58.355 162.126 59.1697 161.969 59.9612C161.812 60.7527 161.501 61.5057 161.053 62.177L130.906 107.384C130.36 108.202 129.627 108.877 128.767 109.352C127.906 109.828 126.945 110.091 125.962 110.118C125.905 110.119 125.848 110.12 125.791 110.12Z" fill="#0E53D9"/>
<path d="M137.282 78.7925C137.589 78.3193 137.7 77.7448 137.59 77.1912C137.481 76.6377 137.159 76.1487 136.694 75.8285C136.599 75.7649 136.498 75.7092 136.394 75.6622L137.783 59.2943L132.639 57.6779L133.571 76.8884C133.41 77.3374 133.401 77.8272 133.548 78.2814C133.694 78.7355 133.987 79.1285 134.38 79.3989C134.605 79.5507 134.858 79.6566 135.124 79.7106C135.39 79.7646 135.664 79.7657 135.931 79.7138C136.198 79.6619 136.451 79.5581 136.678 79.4081C136.904 79.2582 137.099 79.0651 137.251 78.84C137.261 78.8243 137.271 78.8085 137.282 78.7925Z" fill="#FFB6B6"/>
<path d="M140.292 31.4385C140.292 31.4385 136.821 28.158 133.415 34.1447C130.009 40.1315 130.943 54.2904 131.333 55.0649C131.723 55.8394 132.044 54.8084 131.697 56.7961C131.415 58.4127 132.569 58.2724 132.14 58.597C131.008 59.4528 134.029 59.7245 132.43 60.4454C130.831 61.1662 137.779 61.7022 137.779 61.7022C137.779 61.7022 138.653 61.148 138.194 58.8505C137.937 57.5601 137.141 57.0492 138.05 56.509C138.959 55.9688 137.278 54.0502 137.299 53.6507C137.32 53.2513 140.583 44.6707 140.583 44.6707L140.292 31.4385Z" fill="#3F3D56"/>
</g>
<defs>
<clipPath id="clip0_7888_465">
<rect width="240" height="144" fill="white"/>
</clipPath>
</defs>
</svg>
