<svg width="33" height="33" viewBox="0 0 33 33" fill="none" xmlns="http://www.w3.org/2000/svg">
    <path opacity="0.4"
        d="M15.1134 3.41539L7.78007 6.16206C6.38007 6.69539 5.2334 8.34873 5.2334 9.85539V20.6554C5.2334 21.7354 5.94007 23.1621 6.80673 23.8021L14.1401 29.2821C15.4334 30.2554 17.5534 30.2554 18.8467 29.2821L26.1801 23.8021C27.0467 23.1487 27.7534 21.7354 27.7534 20.6554V9.85539C27.7534 8.36206 26.6067 6.69539 25.2067 6.17539L17.8734 3.42873C17.1267 3.13539 15.8734 3.13539 15.1134 3.41539Z"
        fill="white" />
    <path
        d="M14.7134 19.6402C14.4601 19.6402 14.2067 19.5468 14.0067 19.3468L11.8601 17.2002C11.4734 16.8135 11.4734 16.1735 11.8601 15.7868C12.2467 15.4002 12.8867 15.4002 13.2734 15.7868L14.7134 17.2268L19.7401 12.2002C20.1267 11.8135 20.7667 11.8135 21.1534 12.2002C21.5401 12.5868 21.5401 13.2268 21.1534 13.6135L15.4201 19.3468C15.2201 19.5468 14.9667 19.6402 14.7134 19.6402Z"
        fill="white" />
</svg>
