<svg width="179" height="141" viewBox="0 0 179 141" fill="none" xmlns="http://www.w3.org/2000/svg">
<g clip-path="url(#clip0_3512_24782)">
<path d="M88.0915 32.0359H87.3512V11.7443C87.3512 8.62949 86.1146 5.64229 83.9134 3.43982C81.7121 1.23734 78.7266 3.88388e-06 75.6135 0H32.6469C31.1055 -5.49441e-06 29.5792 0.303763 28.1551 0.893961C26.731 1.48416 25.4371 2.34923 24.3471 3.43978C23.2571 4.53033 22.3926 5.825 21.8027 7.24987C21.2128 8.67475 20.9092 10.2019 20.9092 11.7442V123.066C20.9092 124.608 21.2128 126.135 21.8026 127.56C22.3925 128.985 23.2571 130.28 24.3471 131.37C25.437 132.461 26.731 133.326 28.155 133.916C29.5791 134.506 31.1054 134.81 32.6469 134.81H75.6135C77.1549 134.81 78.6812 134.506 80.1053 133.916C81.5294 133.326 82.8234 132.461 83.9133 131.37C85.0033 130.28 85.8679 128.985 86.4577 127.56C87.0476 126.135 87.3512 124.608 87.3512 123.066V46.4798H88.0915V32.0359Z" fill="#3F3D56"/>
<path d="M75.9987 3.33321H70.3901C70.6481 3.96591 70.7465 4.65236 70.6768 5.3321C70.6072 6.01183 70.3715 6.664 69.9905 7.23113C69.6096 7.79826 69.0951 8.26295 68.4924 8.58428C67.8897 8.9056 67.2173 9.0737 66.5344 9.07375H41.9193C41.2364 9.0737 40.564 8.9056 39.9613 8.58428C39.3586 8.26295 38.8441 7.79826 38.4632 7.23113C38.0823 6.664 37.8466 6.01184 37.7769 5.3321C37.7072 4.65236 37.8057 3.96591 38.0636 3.33321H32.8252C30.5004 3.33321 28.2708 4.25723 26.627 5.90201C24.9831 7.54679 24.0596 9.77759 24.0596 12.1037V123.262C24.0596 124.414 24.2863 125.554 24.7268 126.618C25.1673 127.682 25.813 128.649 26.6269 129.463C27.4409 130.278 28.4072 130.924 29.4707 131.365C30.5342 131.805 31.674 132.032 32.8252 132.032H75.9987C78.3235 132.032 80.553 131.108 82.1969 129.463C83.8408 127.819 84.7643 125.588 84.7643 123.262V12.1037C84.7643 10.9519 84.5376 9.81145 84.0971 8.74737C83.6565 7.68328 83.0109 6.71644 82.1969 5.90202C81.383 5.08761 80.4166 4.44158 79.3532 4.00082C78.2897 3.56007 77.1498 3.33321 75.9987 3.33321ZM75.0564 54.9002C75.0547 55.5021 74.8149 56.0789 74.3895 56.5046C73.9641 56.9302 73.3876 57.1701 72.786 57.1719H61.812C61.2104 57.1701 60.6339 56.9302 60.2085 56.5046C59.7831 56.0789 59.5433 55.5021 59.5416 54.9002V54.3322C59.5433 53.7303 59.7831 53.1535 60.2085 52.7278C60.6339 52.3022 61.2104 52.0623 61.812 52.0605H72.786C73.3876 52.0623 73.9641 52.3022 74.3895 52.7278C74.8149 53.1535 75.0547 53.7303 75.0564 54.3322V54.9002ZM76.2863 44.8667C76.2845 45.4687 76.0447 46.0455 75.6193 46.4711C75.1939 46.8968 74.6174 47.1367 74.0158 47.1384H34.661C34.0594 47.1367 33.4829 46.8968 33.0575 46.4711C32.6321 46.0455 32.3923 45.4687 32.3906 44.8667V44.2988C32.3923 43.6968 32.6321 43.12 33.0575 42.6944C33.4829 42.2687 34.0594 42.0288 34.661 42.027H74.0158C74.6174 42.0288 75.1939 42.2687 75.6193 42.6944C76.0447 43.12 76.2845 43.6968 76.2863 44.2988V44.8667ZM76.2863 34.8332C76.2845 35.4352 76.0447 36.012 75.6193 36.4376C75.1939 36.8633 74.6174 37.1032 74.0158 37.1049H34.661C34.0594 37.1032 33.4829 36.8633 33.0575 36.4376C32.6321 36.012 32.3923 35.4352 32.3906 34.8332V34.2653C32.3923 33.6633 32.6321 33.0865 33.0575 32.6609C33.4829 32.2352 34.0594 31.9953 34.661 31.9935H74.0158C74.6174 31.9953 75.1939 32.2352 75.6193 32.6609C76.0447 33.0865 76.2845 33.6633 76.2863 34.2653V34.8332ZM76.2863 24.7997C76.2845 25.4017 76.0447 25.9785 75.6193 26.4041C75.1939 26.8298 74.6174 27.0697 74.0158 27.0715H34.661C34.0594 27.0697 33.4829 26.8298 33.0575 26.4041C32.6321 25.9785 32.3923 25.4017 32.3906 24.7997V24.2318C32.3923 23.6298 32.6321 23.053 33.0575 22.6274C33.4829 22.2017 34.0594 21.9618 34.661 21.9601H74.0158C74.6174 21.9618 75.1939 22.2017 75.6193 22.6274C76.0447 23.053 76.2845 23.6298 76.2863 24.2318V24.7997Z" fill="white"/>
<path d="M35.5125 46.0026C36.244 46.0026 36.837 45.4093 36.837 44.6774C36.837 43.9455 36.244 43.3522 35.5125 43.3522C34.7811 43.3522 34.1881 43.9455 34.1881 44.6774C34.1881 45.4093 34.7811 46.0026 35.5125 46.0026Z" fill="white"/>
<path d="M39.8642 46.0026C40.5957 46.0026 41.1887 45.4093 41.1887 44.6774C41.1887 43.9455 40.5957 43.3522 39.8642 43.3522C39.1328 43.3522 38.5398 43.9455 38.5398 44.6774C38.5398 45.4093 39.1328 46.0026 39.8642 46.0026Z" fill="white"/>
<path d="M44.2159 46.0026C44.9474 46.0026 45.5404 45.4093 45.5404 44.6774C45.5404 43.9455 44.9474 43.3522 44.2159 43.3522C43.4845 43.3522 42.8915 43.9455 42.8915 44.6774C42.8915 45.4093 43.4845 46.0026 44.2159 46.0026Z" fill="white"/>
<path d="M48.5677 46.0026C49.2992 46.0026 49.8922 45.4093 49.8922 44.6774C49.8922 43.9455 49.2992 43.3522 48.5677 43.3522C47.8363 43.3522 47.2433 43.9455 47.2433 44.6774C47.2433 45.4093 47.8363 46.0026 48.5677 46.0026Z" fill="white"/>
<path d="M62.758 56.036C63.4895 56.036 64.0825 55.4427 64.0825 54.7109C64.0825 53.979 63.4895 53.3857 62.758 53.3857C62.0266 53.3857 61.4336 53.979 61.4336 54.7109C61.4336 55.4427 62.0266 56.036 62.758 56.036Z" fill="white"/>
<path d="M67.1098 56.036C67.8413 56.036 68.4343 55.4427 68.4343 54.7109C68.4343 53.979 67.8413 53.3857 67.1098 53.3857C66.3784 53.3857 65.7854 53.979 65.7854 54.7109C65.7854 55.4427 66.3784 56.036 67.1098 56.036Z" fill="white"/>
<path d="M71.4615 56.036C72.193 56.036 72.786 55.4427 72.786 54.7109C72.786 53.979 72.193 53.3857 71.4615 53.3857C70.7301 53.3857 70.1371 53.979 70.1371 54.7109C70.1371 55.4427 70.7301 56.036 71.4615 56.036Z" fill="white"/>
<path d="M76.5908 71.881H31.7078C30.6533 71.881 29.642 72.3001 28.8964 73.0461C28.1508 73.7921 27.7319 74.804 27.7319 75.859V97.7391C27.7319 98.7942 28.1508 99.806 28.8964 100.552C29.642 101.298 30.6533 101.717 31.7078 101.717H76.5908C77.6453 101.717 78.6565 101.298 79.4022 100.552C80.1478 99.806 80.5667 98.7942 80.5667 97.7391V75.859C80.5667 74.804 80.1478 73.7921 79.4022 73.0461C78.6566 72.3001 77.6453 71.881 76.5908 71.881ZM30.5973 74.5946C30.6859 74.5786 32.7876 74.2207 34.5279 75.2685C36.2681 76.316 36.9367 78.3417 36.9643 78.4274L37.0346 78.6458L36.8088 78.6859C36.4866 78.7362 36.1609 78.7602 35.8348 78.7575C34.8004 78.7773 33.7796 78.5198 32.8781 78.0118C31.1379 76.9645 30.4694 74.9388 30.4418 74.8531L30.3715 74.6347L30.5973 74.5946ZM40.3402 94.9089H32.335C31.7511 94.9089 31.1912 94.6769 30.7783 94.2638C30.3655 93.8507 30.1335 93.2904 30.1335 92.7062C30.1335 92.1221 30.3655 91.5618 30.7783 91.1487C31.1912 90.7356 31.7511 90.5036 32.335 90.5036H40.3402C40.9241 90.5036 41.484 90.7356 41.8969 91.1487C42.3097 91.5618 42.5417 92.1221 42.5417 92.7062C42.5417 93.2904 42.3097 93.8507 41.8969 94.2638C41.484 94.6769 40.9241 94.9089 40.3402 94.9089ZM76.7642 94.5084C76.7623 95.1452 76.5087 95.7553 76.0587 96.2055C75.6087 96.6557 74.9989 96.9095 74.3626 96.9114H68.3586C67.7223 96.9095 67.1125 96.6557 66.6625 96.2055C66.2126 95.7553 65.9589 95.1452 65.9571 94.5084V90.9041C65.9589 90.2673 66.2125 89.6572 66.6625 89.207C67.1125 88.7568 67.7223 88.503 68.3586 88.5011H74.3626C74.9989 88.503 75.6087 88.7568 76.0587 89.207C76.5087 89.6572 76.7623 90.2673 76.7642 90.9041L76.7642 94.5084Z" fill="#0F53D9"/>
<path d="M70.2944 93.7657H67.8804C67.708 93.7657 67.5427 93.8342 67.4208 93.9561C67.2989 94.0781 67.2305 94.2435 67.2305 94.416C67.2305 94.5884 67.2989 94.7538 67.4208 94.8758C67.5427 94.9977 67.708 95.0663 67.8804 95.0663H70.2944C70.4668 95.0663 70.6321 94.9977 70.754 94.8758C70.8759 94.7538 70.9443 94.5884 70.9443 94.416C70.9443 94.2435 70.8759 94.0781 70.754 93.9561C70.6321 93.8342 70.4668 93.7657 70.2944 93.7657Z" fill="#3F3D56"/>
<path d="M74.7511 93.7657H72.3371C72.1647 93.7657 71.9994 93.8342 71.8775 93.9561C71.7556 94.0781 71.6871 94.2435 71.6871 94.416C71.6871 94.5884 71.7556 94.7538 71.8775 94.8758C71.9994 94.9977 72.1647 95.0663 72.3371 95.0663H74.7511C74.9235 95.0663 75.0888 94.9977 75.2107 94.8758C75.3325 94.7538 75.401 94.5884 75.401 94.416C75.401 94.2435 75.3325 94.0781 75.2107 93.9561C75.0888 93.8342 74.9235 93.7657 74.7511 93.7657Z" fill="#3F3D56"/>
<path d="M70.2941 91.93H67.88C67.7077 91.93 67.5423 91.9985 67.4205 92.1205C67.2986 92.2424 67.2301 92.4078 67.2301 92.5803C67.2301 92.7528 67.2986 92.9182 67.4205 93.0401C67.5423 93.1621 67.7077 93.2306 67.88 93.2306H70.2941C70.4664 93.2306 70.6317 93.1621 70.7536 93.0401C70.8755 92.9182 70.944 92.7528 70.944 92.5803C70.944 92.4078 70.8755 92.2424 70.7536 92.1205C70.6317 91.9985 70.4664 91.93 70.2941 91.93Z" fill="#3F3D56"/>
<path d="M74.7507 91.93H72.3367C72.1643 91.93 71.999 91.9985 71.8771 92.1205C71.7552 92.2424 71.6868 92.4078 71.6868 92.5803C71.6868 92.7528 71.7552 92.9182 71.8771 93.0401C71.999 93.1621 72.1643 93.2306 72.3367 93.2306H74.7507C74.9231 93.2306 75.0884 93.1621 75.2103 93.0401C75.3322 92.9182 75.4007 92.7528 75.4007 92.5803C75.4007 92.4078 75.3322 92.2424 75.2103 92.1205C75.0884 91.9985 74.9231 91.93 74.7507 91.93Z" fill="#3F3D56"/>
<path d="M70.2941 90.1315H67.88C67.7077 90.1315 67.5423 90.2 67.4205 90.3219C67.2986 90.4439 67.2301 90.6093 67.2301 90.7818C67.2301 90.9542 67.2986 91.1196 67.4205 91.2416C67.5423 91.3635 67.7077 91.4321 67.88 91.4321H70.2941C70.4664 91.4321 70.6317 91.3635 70.7536 91.2416C70.8755 91.1196 70.944 90.9542 70.944 90.7818C70.944 90.6093 70.8755 90.4439 70.7536 90.3219C70.6317 90.2 70.4664 90.1315 70.2941 90.1315Z" fill="#3F3D56"/>
<path d="M74.7507 90.1315H72.3367C72.1643 90.1315 71.999 90.2 71.8771 90.3219C71.7552 90.4439 71.6868 90.6093 71.6868 90.7818C71.6868 90.9542 71.7552 91.1196 71.8771 91.2416C71.999 91.3635 72.1643 91.4321 72.3367 91.4321H74.7507C74.9231 91.4321 75.0884 91.3635 75.2103 91.2416C75.3322 91.1196 75.4007 90.9542 75.4007 90.7818C75.4007 90.6093 75.3322 90.4439 75.2103 90.3219C75.0884 90.2 74.9231 90.1315 74.7507 90.1315Z" fill="#3F3D56"/>
<path d="M107.677 80.1231H101.823V85.9807H107.677V80.1231Z" fill="#E6E6E6"/>
<path d="M94.9233 83.6795H104.541V93.3027H94.9233V83.6795ZM104.123 84.0979H95.3415V92.8843H104.123V84.0979Z" fill="#3F3D56"/>
<path d="M5.85431 31.7982H0V37.6558H5.85431V31.7982Z" fill="#E6E6E6"/>
<path d="M12.754 34.0994H3.13623V24.4763H12.754V34.0994ZM3.5544 33.681H12.3359V24.8947H3.5544V33.681Z" fill="#3F3D56"/>
<path d="M136.547 138.368H133.984L132.764 128.475H136.547L136.547 138.368Z" fill="#FFB8B8"/>
<path d="M132.153 137.635H137.096V140.749H129.04C129.04 139.923 129.368 139.131 129.952 138.547C130.535 137.963 131.327 137.635 132.153 137.635Z" fill="#2F2E41"/>
<path d="M149.301 138.368H146.738L145.518 128.475H149.301L149.301 138.368Z" fill="#FFB8B8"/>
<path d="M144.907 137.635H149.85V140.749H141.794C141.794 139.923 142.122 139.131 142.706 138.547C143.289 137.963 144.081 137.635 144.907 137.635Z" fill="#2F2E41"/>
<path d="M123.688 102.989C123.504 102.717 123.381 102.408 123.329 102.084C123.277 101.76 123.296 101.428 123.386 101.112C123.476 100.796 123.634 100.503 123.849 100.255C124.064 100.007 124.331 99.8088 124.631 99.6749L133.345 75.645L137.632 77.9862L127.683 100.95C127.875 101.469 127.869 102.04 127.668 102.555C127.467 103.071 127.083 103.494 126.591 103.745C126.098 103.997 125.531 104.058 124.996 103.919C124.461 103.78 123.996 103.449 123.688 102.989Z" fill="#FFB8B8"/>
<path d="M147.992 107.505C147.707 107.341 147.461 107.117 147.272 106.849C147.083 106.58 146.955 106.273 146.898 105.95C146.84 105.626 146.854 105.294 146.938 104.977C147.023 104.659 147.176 104.364 147.387 104.112L144.687 78.6925L149.567 78.9156L150.689 103.919C151.088 104.301 151.333 104.817 151.378 105.369C151.423 105.92 151.264 106.469 150.932 106.91C150.599 107.352 150.116 107.657 149.574 107.767C149.033 107.876 148.469 107.783 147.992 107.505Z" fill="#FFB8B8"/>
<path d="M140.207 71.194C143.043 71.194 145.343 68.8936 145.343 66.0559C145.343 63.2181 143.043 60.9177 140.207 60.9177C137.371 60.9177 135.072 63.2181 135.072 66.0559C135.072 68.8936 137.371 71.194 140.207 71.194Z" fill="#FFB8B8"/>
<path d="M147.959 101.723H132.477L132.496 101.603C132.523 101.423 135.255 83.52 133.24 77.663C133.038 77.0875 133.056 76.4574 133.29 75.8942C133.524 75.3309 133.959 74.8743 134.509 74.6122C137.389 73.2554 142.916 71.5848 147.581 75.6392C148.268 76.2456 148.804 77.0035 149.147 77.853C149.49 78.7025 149.631 79.6202 149.559 80.5336L147.959 101.723Z" fill="#CCCCCC"/>
<path d="M135.45 86.1657L128.48 84.7509L131.747 77.0043C131.943 76.2539 132.428 75.6118 133.096 75.2188C133.764 74.8258 134.56 74.7139 135.311 74.9077C136.061 75.1015 136.704 75.5852 137.099 76.2527C137.493 76.9202 137.607 77.7169 137.415 78.4682L135.45 86.1657Z" fill="#CCCCCC"/>
<path d="M144.377 88.7927L143.958 79.1818C143.641 77.3752 144.674 75.6672 146.264 75.3881C147.854 75.1099 149.407 76.363 149.726 78.1829L151.301 87.1634L144.377 88.7927Z" fill="#CCCCCC"/>
<path d="M147.444 100.573C149.935 110.066 150.207 122.135 149.534 135.3L146.189 134.881L140.126 109.778L136.78 135.3L133.017 135.091C131.893 121.277 130.798 109.419 132.599 101.619L147.444 100.573Z" fill="#2F2E41"/>
<path d="M143.591 70.0268C142.633 71.0478 140.854 70.4997 140.729 69.1048C140.719 68.9965 140.72 68.8875 140.731 68.7793C140.796 68.1614 141.152 67.6005 141.067 66.9481C141.047 66.7857 140.987 66.631 140.891 66.4985C140.128 65.4757 138.336 66.956 137.615 66.0301C137.173 65.4623 137.693 64.5684 137.354 63.9338C136.906 63.0963 135.581 63.5094 134.75 63.0507C133.825 62.5404 133.88 61.1208 134.489 60.2574C135.232 59.2043 136.533 58.6425 137.818 58.5615C139.104 58.4805 140.38 58.8282 141.58 59.2961C142.944 59.8277 144.296 60.5625 145.135 61.762C146.155 63.2208 146.253 65.182 145.743 66.8877C145.433 67.9254 144.373 69.193 143.591 70.0268Z" fill="#2F2E41"/>
<path d="M178.791 141H99.1306C99.0751 141 99.022 140.978 98.9828 140.939C98.9435 140.899 98.9215 140.846 98.9215 140.791C98.9215 140.735 98.9435 140.682 98.9828 140.643C99.022 140.604 99.0751 140.582 99.1306 140.582H178.791C178.846 140.582 178.9 140.604 178.939 140.643C178.978 140.682 179 140.735 179 140.791C179 140.846 178.978 140.899 178.939 140.939C178.9 140.978 178.846 141 178.791 141Z" fill="#3F3D56"/>
</g>
<defs>
<clipPath id="clip0_3512_24782">
<rect width="179" height="141" fill="white"/>
</clipPath>
</defs>
</svg>
