<svg width="195" height="144" viewBox="0 0 195 144" fill="none" xmlns="http://www.w3.org/2000/svg">
<g clip-path="url(#clip0_7681_1307)">
<path d="M195 126.547H0V126.644H195V126.547Z" fill="#EBEBEB"/>
<path d="M175.461 132.765H162.544V132.862H175.461V132.765Z" fill="#EBEBEB"/>
<path d="M129.176 133.816H125.787V133.913H129.176V133.816Z" fill="#EBEBEB"/>
<path d="M162.154 129.179H154.67V129.276H162.154V129.179Z" fill="#EBEBEB"/>
<path d="M37.3035 129.828H20.4594V129.925H37.3035V129.828Z" fill="#EBEBEB"/>
<path d="M43.2471 129.828H40.7784V129.925H43.2471V129.828Z" fill="#EBEBEB"/>
<path d="M87.8085 131.459H51.2733V131.556H87.8085V131.459Z" fill="#EBEBEB"/>
<path d="M92.43 109.311H17.1249C16.535 109.31 15.9696 109.077 15.5528 108.663C15.136 108.25 14.9019 107.689 14.9019 107.104V2.20664C14.9019 1.62206 15.136 1.06136 15.5528 0.647632C15.9696 0.233906 16.535 0.000962757 17.1249 -6.10352e-05L92.43 -6.10352e-05C93.0206 -6.10352e-05 93.5871 0.23243 94.0047 0.646268C94.4223 1.06011 94.6569 1.62139 94.6569 2.20664V107.104C94.6569 107.394 94.5993 107.681 94.4874 107.949C94.3755 108.217 94.2115 108.46 94.0047 108.665C93.7979 108.87 93.5524 109.032 93.2822 109.143C93.012 109.254 92.7225 109.311 92.43 109.311ZM17.1249 0.0965547C16.5608 0.0975785 16.0202 0.320343 15.6217 0.71595C15.2232 1.11156 14.9994 1.64768 14.9994 2.20664V107.104C14.9994 107.663 15.2232 108.199 15.6217 108.595C16.0202 108.991 16.5608 109.213 17.1249 109.214H92.43C92.9945 109.213 93.5355 108.991 93.9346 108.595C94.3337 108.2 94.5584 107.664 94.5594 107.104V2.20664C94.5584 1.64733 94.3337 1.11121 93.9346 0.715714C93.5355 0.320217 92.9945 0.0975763 92.43 0.0965547H17.1249Z" fill="#EBEBEB"/>
<path d="M176.791 109.311H101.482C100.892 109.31 100.326 109.077 99.9084 108.664C99.491 108.25 99.256 107.689 99.255 107.104V2.20664C99.256 1.6217 99.491 1.06101 99.9084 0.647396C100.326 0.23378 100.892 0.000960697 101.482 -6.10352e-05L176.791 -6.10352e-05C177.38 0.00198421 177.945 0.235378 178.361 0.648994C178.776 1.06261 179.01 1.62273 179.01 2.20664V107.104C179.01 107.688 178.776 108.248 178.361 108.662C177.945 109.076 177.38 109.309 176.791 109.311ZM101.482 0.0965547C100.917 0.0975763 100.376 0.320217 99.9773 0.715714C99.5782 1.11121 99.3535 1.64733 99.3525 2.20664V107.104C99.3535 107.664 99.5782 108.2 99.9773 108.595C100.376 108.991 100.917 109.213 101.482 109.214H176.791C177.355 109.213 177.896 108.991 178.295 108.595C178.695 108.2 178.919 107.664 178.92 107.104V2.20664C178.919 1.64733 178.695 1.11121 178.295 0.715714C177.896 0.320217 177.355 0.0975763 176.791 0.0965547H101.482Z" fill="#EBEBEB"/>
<path d="M85.9326 19.8949H88.92C89.0255 19.9008 89.1248 19.9465 89.1973 20.0227C89.2698 20.0989 89.3102 20.1998 89.31 20.3045V126.609H93.795V20.3045C93.795 20.1959 93.8385 20.0917 93.9161 20.0148C93.9936 19.938 94.0987 19.8949 94.2084 19.8949H97.1724C97.2542 19.8949 97.3342 19.8709 97.4022 19.8259C97.4703 19.7809 97.5233 19.7169 97.5547 19.642C97.586 19.5671 97.5942 19.4847 97.5782 19.4052C97.5622 19.3257 97.5228 19.2526 97.4649 19.1954L91.845 13.6264C91.7676 13.5507 91.6632 13.5082 91.5544 13.5082C91.4457 13.5082 91.3413 13.5507 91.2639 13.6264L85.644 19.1954C85.5863 19.2524 85.547 19.3251 85.5309 19.4042C85.5148 19.4834 85.5226 19.5655 85.5535 19.6402C85.5843 19.715 85.6367 19.779 85.7042 19.8243C85.7716 19.8696 85.8511 19.8942 85.9326 19.8949Z" fill="#EBEBEB"/>
<path d="M108.946 58.6959H111.93C111.984 58.6954 112.038 58.7055 112.088 58.7257C112.138 58.7458 112.184 58.7756 112.222 58.8134C112.261 58.8511 112.291 58.896 112.312 58.9455C112.333 58.995 112.343 59.0481 112.343 59.1017V126.609H116.828V59.1017C116.826 59.0477 116.834 58.9937 116.854 58.9432C116.873 58.8927 116.903 58.8468 116.942 58.8086C116.981 58.7703 117.027 58.7405 117.078 58.7211C117.129 58.7017 117.183 58.6931 117.238 58.6959H120.206C120.287 58.6952 120.367 58.6707 120.434 58.6254C120.502 58.5801 120.554 58.516 120.585 58.4413C120.616 58.3665 120.624 58.2844 120.608 58.2053C120.591 58.1261 120.552 58.0535 120.494 57.9964L114.878 52.4275C114.8 52.3515 114.695 52.3089 114.586 52.3089C114.476 52.3089 114.371 52.3515 114.293 52.4275L108.654 57.9964C108.596 58.0537 108.557 58.1267 108.541 58.2062C108.525 58.2857 108.533 58.3682 108.564 58.4431C108.596 58.518 108.649 58.582 108.717 58.627C108.785 58.672 108.865 58.696 108.946 58.6959Z" fill="#EBEBEB"/>
<path d="M57.0336 80.9562H60.0015C60.1108 80.9572 60.2154 81.0007 60.2927 81.0773C60.37 81.1539 60.4139 81.2575 60.4149 81.3658V126.609H64.896V81.3658C64.897 81.2575 64.9409 81.1539 65.0182 81.0773C65.0955 81.0007 65.2001 80.9572 65.3094 80.9562H68.2734C68.3552 80.9563 68.4352 80.9323 68.5032 80.8873C68.5713 80.8423 68.6243 80.7783 68.6557 80.7034C68.687 80.6285 68.6952 80.546 68.6792 80.4665C68.6632 80.387 68.6238 80.314 68.5659 80.2567L62.946 74.6916C62.9094 74.6511 62.8646 74.6188 62.8145 74.5966C62.7645 74.5744 62.7103 74.563 62.6554 74.563C62.6006 74.563 62.5464 74.5744 62.4963 74.5966C62.4462 74.6188 62.4015 74.6511 62.3649 74.6916L56.7411 80.2567C56.6832 80.314 56.6438 80.387 56.6278 80.4665C56.6118 80.546 56.62 80.6285 56.6513 80.7034C56.6826 80.7783 56.7357 80.8423 56.8037 80.8873C56.8718 80.9323 56.9518 80.9563 57.0336 80.9562Z" fill="#EBEBEB"/>
<path d="M44.031 28.6598V24.7334L41.9835 24.5401C41.7124 23.2317 41.1937 21.9859 40.4547 20.8687L41.769 19.3229L38.9571 16.5365L37.3698 17.8389C36.2515 17.1108 35.0054 16.597 33.696 16.3239L33.501 14.2989H29.523L29.3319 16.3278C28.0221 16.5993 26.7757 17.1133 25.6581 17.8427L24.0669 16.5403L21.255 19.3229L22.5693 20.8687C21.8388 21.9826 21.3268 23.2229 21.06 24.5247L19.0125 24.7179V28.6598L21.06 28.8492C21.3327 30.1469 21.8501 31.382 22.5849 32.4897L21.255 34.0664L24.0669 36.8528L25.6581 35.5543C26.7748 36.2853 28.0215 36.7994 29.3319 37.0693L29.523 39.0982H33.501L33.696 37.0693C35.0059 36.798 36.2524 36.284 37.3698 35.5543L38.9571 36.8606L41.769 34.0742L40.4547 32.4974C41.1908 31.39 41.7095 30.1549 41.9835 28.8569L44.031 28.6598ZM31.512 32.0221C30.4466 32.0221 29.4052 31.7089 28.5194 31.1223C27.6336 30.5357 26.9432 29.702 26.5357 28.7265C26.1282 27.7511 26.0218 26.6778 26.2299 25.6424C26.438 24.607 26.9514 23.656 27.705 22.9098C28.4586 22.1635 29.4186 21.6555 30.4637 21.45C31.5087 21.2445 32.5917 21.3508 33.5758 21.7553C34.5599 22.1599 35.4008 22.8445 35.9921 23.7227C36.5835 24.6009 36.8987 25.6331 36.8979 26.6889C36.8979 27.3896 36.7586 28.0834 36.4879 28.7307C36.2171 29.378 35.8204 29.9661 35.3202 30.4614C34.82 30.9566 34.2262 31.3494 33.5728 31.6172C32.9194 31.885 32.2191 32.0226 31.512 32.0221Z" fill="#E0E0E0"/>
<path d="M60.1497 39.7824V36.7139L58.5468 36.5631C58.3309 35.5467 57.9248 34.5793 57.3495 33.711L58.3791 32.4628L56.16 30.2754L54.9315 31.3034C54.0552 30.7333 53.079 30.3308 52.0533 30.1169L51.9012 28.5286H48.7812L48.6291 30.1169C47.6044 30.3305 46.6294 30.733 45.7548 31.3034L44.5068 30.2831L42.3033 32.4628L43.3368 33.6956C42.7582 34.5621 42.3518 35.5301 42.1395 36.5477L40.5327 36.6984V39.7901L42.1395 39.9408C42.3511 40.9586 42.7575 41.9267 43.3368 42.7929L42.3033 44.0296L44.5068 46.2131L45.7548 45.189C46.6289 45.763 47.6059 46.1657 48.633 46.3754L48.7851 47.9677H51.9051L52.0572 46.3754C53.084 46.165 54.0609 45.7623 54.9354 45.189L56.1795 46.2131L58.383 44.0296L57.3534 42.7929C57.9294 41.925 58.3356 40.9575 58.5507 39.9408L60.1497 39.7824ZM50.3412 42.4219C49.5057 42.4219 48.6891 42.1762 47.9947 41.7158C47.3004 41.2555 46.7595 40.6013 46.4407 39.8361C46.1219 39.0709 46.0395 38.2291 46.2039 37.4175C46.3683 36.6058 46.7722 35.8608 47.3643 35.2768C47.9564 34.6927 48.7101 34.296 49.5299 34.1369C50.3498 33.9777 51.1988 34.0633 51.9696 34.3827C52.7403 34.7022 53.398 35.2411 53.8593 35.9313C54.3206 36.6215 54.5648 37.4319 54.561 38.2597C54.5548 39.365 54.1076 40.4231 53.317 41.2029C52.5264 41.9827 51.4566 42.4209 50.3412 42.4219Z" fill="#E0E0E0"/>
<path d="M42.861 48.9374V46.3443L41.5116 46.2167C41.3308 45.3626 40.9895 44.5497 40.5054 43.8207L41.3712 42.7849L39.5226 40.9647L38.4735 41.8227C37.7389 41.3407 36.9182 41.0023 36.0555 40.8256L35.9307 39.4884H33.3138L33.1851 40.8256C32.3226 41.003 31.502 41.3414 30.7671 41.8227L29.7219 40.9647L27.8694 42.7965L28.7352 43.8323C28.2511 44.5613 27.9097 45.3742 27.729 46.2283L26.3835 46.3559V48.949L27.729 49.0766C27.9097 49.9307 28.2511 50.7436 28.7352 51.4726L27.8694 52.5084L29.7219 54.3441L30.7671 53.4861C31.5022 53.9662 32.3228 54.3033 33.1851 54.4793L33.3138 55.8165H35.9307L36.0555 54.4793C36.918 54.3039 37.7387 53.9668 38.4735 53.4861L39.5226 54.3441L41.3712 52.5084L40.5054 51.4726C40.9895 50.7436 41.3308 49.9307 41.5116 49.0766L42.861 48.9374ZM34.6203 51.1519C33.919 51.1519 33.2334 50.9457 32.6503 50.5596C32.0673 50.1734 31.6129 49.6245 31.3447 48.9824C31.0765 48.3402 31.0065 47.6337 31.1436 46.9522C31.2807 46.2706 31.6187 45.6447 32.1149 45.1535C32.6111 44.6624 33.2431 44.3281 33.9311 44.193C34.619 44.0579 35.3319 44.128 35.9796 44.3945C36.6274 44.661 37.1808 45.1118 37.5698 45.69C37.9589 46.2683 38.1662 46.9478 38.1654 47.6428C38.1659 48.1041 38.0745 48.5609 37.8965 48.9872C37.7185 49.4134 37.4573 49.8006 37.128 50.1266C36.7986 50.4526 36.4076 50.711 35.9772 50.8869C35.5469 51.0628 35.0858 51.1529 34.6203 51.1519Z" fill="#E0E0E0"/>
<path d="M149.662 83.0893V87.0312L151.714 87.2245C151.987 88.522 152.505 89.7569 153.239 90.8649L151.924 92.4378L154.736 95.2242L156.328 93.9219C157.445 94.6513 158.692 95.1653 160.001 95.4368L160.192 97.4657H164.19L164.381 95.4368C165.691 95.1653 166.937 94.6513 168.055 93.9219L169.646 95.2242L172.458 92.4378L171.144 90.8649C171.878 89.7569 172.395 88.522 172.669 87.2245L174.716 87.0312V83.0893L172.669 82.8999C172.396 81.6022 171.878 80.3671 171.144 79.2595L172.458 77.6827L169.646 74.8963L168.055 76.2025C166.938 75.4715 165.691 74.9574 164.381 74.6876L164.19 72.6587H160.212L160.021 74.6876C158.71 74.9574 157.464 75.4715 156.347 76.2025L154.756 74.8963L151.944 77.6827L153.258 79.2595C152.522 80.3663 152.004 81.6017 151.733 82.8999L149.662 83.0893ZM162.181 79.7271C163.246 79.7301 164.285 80.0454 165.168 80.6332C166.052 81.221 166.74 82.0549 167.145 83.0297C167.551 84.0046 167.656 85.0766 167.447 86.1105C167.239 87.1445 166.726 88.094 165.973 88.8393C165.22 89.5847 164.262 90.0923 163.218 90.2983C162.174 90.5043 161.093 90.3994 160.109 89.9967C159.126 89.5941 158.285 88.9119 157.692 88.0361C157.1 87.1602 156.782 86.1301 156.78 85.0757C156.78 84.3739 156.921 83.679 157.193 83.0309C157.464 82.3828 157.863 81.7943 158.364 81.2989C158.866 80.8035 159.461 80.411 160.116 80.144C160.771 79.8769 161.473 79.7405 162.181 79.7425V79.7271Z" fill="#E0E0E0"/>
<path d="M133.544 71.9825V75.0742L135.147 75.2249C135.365 76.2371 135.771 77.2003 136.344 78.0654L135.33 79.306L137.533 81.4895L138.778 80.4692C139.655 81.0394 140.633 81.4418 141.66 81.6557L141.808 83.244H144.928L145.08 81.6557C146.106 81.4425 147.082 81.0401 147.958 80.4692L149.206 81.4895L151.41 79.306L150.357 78.0654C150.935 77.1985 151.341 76.2306 151.554 75.2133L153.161 75.0626V71.9709L151.554 71.8202C151.342 70.8024 150.936 69.8343 150.357 68.9681L151.39 67.7314L149.187 65.5479L147.939 66.572C147.065 65.998 146.088 65.5953 145.06 65.3856L144.908 63.7933H141.788L141.64 65.3856C140.612 65.596 139.634 65.9986 138.758 66.572L137.514 65.5479L135.33 67.743L136.36 68.9797C135.783 69.8475 135.377 70.8151 135.162 71.8318L133.544 71.9825ZM143.352 69.3429C144.187 69.3429 145.003 69.5882 145.697 70.0477C146.391 70.5071 146.931 71.1602 147.251 71.9243C147.57 72.6883 147.654 73.5291 147.491 74.3402C147.328 75.1514 146.926 75.8965 146.336 76.4813C145.746 77.0661 144.994 77.4643 144.175 77.6257C143.357 77.787 142.508 77.7042 141.737 77.3877C140.966 77.0712 140.307 76.5353 139.844 75.8476C139.38 75.16 139.132 74.3515 139.132 73.5245C139.133 72.4158 139.578 71.3528 140.37 70.5688C141.161 69.7848 142.233 69.344 143.352 69.3429Z" fill="#E0E0E0"/>
<path d="M150.833 62.827V65.4202L152.182 65.5439C152.363 66.3992 152.704 67.2133 153.188 67.9438L152.322 68.9795L154.175 70.8114L155.22 69.9495C155.955 70.4299 156.776 70.7682 157.638 70.9466L157.763 72.2838H160.384L160.508 70.9466C161.37 70.7675 162.191 70.4293 162.926 69.9495L163.972 70.8075L165.824 68.9757L164.97 67.9438C165.454 67.2133 165.795 66.3992 165.976 65.5439L167.322 65.4202V62.827L165.976 62.6995C165.797 61.84 165.456 61.0217 164.97 60.288L165.836 59.2523L163.983 57.4166L162.938 58.2745C162.202 57.7948 161.382 57.4565 160.52 57.2774L160.395 55.9441H157.775L157.65 57.2774C156.788 57.4558 155.967 57.7941 155.232 58.2745L154.187 57.4166L152.334 59.2523L153.2 60.288C152.716 61.017 152.374 61.8299 152.194 62.684L150.833 62.827ZM159.073 60.6126C159.775 60.6126 160.46 60.8187 161.043 61.2049C161.626 61.5911 162.081 62.14 162.349 62.7821C162.617 63.4242 162.687 64.1308 162.55 64.8123C162.413 65.4939 162.075 66.1198 161.579 66.6109C161.082 67.1021 160.45 67.4364 159.762 67.5715C159.075 67.7066 158.362 67.6365 157.714 67.37C157.066 67.1035 156.513 66.6526 156.124 66.0744C155.735 65.4962 155.527 64.8166 155.528 64.1217C155.528 63.6605 155.62 63.2039 155.798 62.7779C155.976 62.3519 156.237 61.9649 156.567 61.639C156.896 61.3131 157.287 61.0547 157.717 60.8786C158.147 60.7025 158.608 60.6121 159.073 60.6126Z" fill="#E0E0E0"/>
<path d="M85.02 101.937H91.5369C91.6561 101.936 91.7741 101.959 91.8844 102.004C91.9946 102.049 92.0948 102.115 92.1792 102.198C92.2637 102.281 92.3307 102.381 92.3764 102.49C92.4221 102.599 92.4456 102.715 92.4456 102.834V126.609H102.293V102.834C102.293 102.596 102.388 102.368 102.558 102.2C102.728 102.031 102.958 101.937 103.198 101.937H109.711C109.893 101.94 110.072 101.889 110.224 101.789C110.376 101.69 110.495 101.548 110.564 101.381C110.633 101.214 110.65 101.03 110.612 100.853C110.573 100.677 110.482 100.516 110.351 100.391L98.0109 88.1595C97.9268 88.0758 97.8269 88.0093 97.7168 87.9639C97.6067 87.9185 97.4886 87.8952 97.3694 87.8952C97.2501 87.8952 97.1321 87.9185 97.022 87.9639C96.9119 88.0093 96.8119 88.0758 96.7278 88.1595L84.3804 100.403C84.2545 100.529 84.1689 100.689 84.1343 100.862C84.0998 101.036 84.1177 101.216 84.186 101.38C84.2543 101.544 84.3699 101.684 84.5182 101.783C84.6666 101.882 84.8412 101.936 85.02 101.937Z" fill="#E0E0E0"/>
<path d="M24.141 81.984H30.654C30.7731 81.9835 30.8912 82.0063 31.0014 82.0512C31.1116 82.096 31.2119 82.162 31.2963 82.2453C31.3807 82.3286 31.4477 82.4276 31.4934 82.5366C31.5391 82.6456 31.5627 82.7626 31.5627 82.8806V126.609H41.4141V82.8806C41.4141 82.6435 41.5089 82.416 41.6777 82.248C41.8465 82.08 42.0757 81.985 42.315 81.984H48.828C49.0105 81.988 49.1899 81.9371 49.3427 81.8382C49.4955 81.7392 49.6145 81.5968 49.6841 81.4295C49.7537 81.2623 49.7707 81.0782 49.7327 80.9012C49.6948 80.7243 49.6037 80.5629 49.4715 80.4382L37.128 68.2182C37.0439 68.1344 36.9439 68.0679 36.8338 68.0226C36.7237 67.9772 36.6057 67.9539 36.4864 67.9539C36.3672 67.9539 36.2491 67.9772 36.139 68.0226C36.0289 68.0679 35.929 68.1344 35.8449 68.2182L23.4975 80.4498C23.3713 80.5759 23.2857 80.7362 23.2512 80.9104C23.2168 81.0847 23.2351 81.2652 23.3038 81.4292C23.3726 81.5931 23.4888 81.7333 23.6377 81.832C23.7867 81.9308 23.9618 81.9836 24.141 81.984Z" fill="#E0E0E0"/>
<path d="M120.549 109.624H125.014C125.096 109.623 125.177 109.639 125.253 109.67C125.329 109.7 125.397 109.745 125.455 109.802C125.513 109.86 125.559 109.927 125.591 110.002C125.622 110.077 125.638 110.157 125.638 110.238V126.609H132.393V110.238C132.393 110.075 132.459 109.919 132.575 109.804C132.691 109.689 132.849 109.624 133.013 109.624H137.479C137.602 109.624 137.723 109.587 137.825 109.519C137.927 109.451 138.007 109.355 138.054 109.242C138.102 109.129 138.114 109.005 138.09 108.885C138.066 108.765 138.007 108.655 137.92 108.569L129.457 100.183C129.399 100.125 129.33 100.079 129.255 100.048C129.179 100.016 129.098 100 129.016 100C128.934 100 128.853 100.016 128.777 100.048C128.701 100.079 128.633 100.125 128.575 100.183L120.12 108.569C120.034 108.655 119.975 108.764 119.95 108.882C119.926 109.001 119.937 109.124 119.983 109.237C120.029 109.349 120.107 109.446 120.207 109.515C120.308 109.583 120.427 109.621 120.549 109.624Z" fill="#E0E0E0"/>
<path d="M97.5 144C139.262 144 173.117 142.041 173.117 139.625C173.117 137.209 139.262 135.25 97.5 135.25C55.7378 135.25 21.8829 137.209 21.8829 139.625C21.8829 142.041 55.7378 144 97.5 144Z" fill="#F5F5F5"/>
<path d="M111.883 128.162L115.732 133.063L117.117 132.858L113.053 128.162H111.883Z" fill="#263238"/>
<path opacity="0.3" d="M111.883 128.162L115.732 133.063L117.117 132.858L113.053 128.162H111.883Z" fill="black"/>
<path d="M113.053 123.525L116.902 128.425L118.287 128.22L114.223 123.525H113.053Z" fill="#263238"/>
<path opacity="0.3" d="M113.053 123.525L116.902 128.425L118.287 128.22L114.223 123.525H113.053Z" fill="black"/>
<path d="M124.129 121.013H140.77L136.866 131.227H120.225L124.129 121.013Z" fill="#263238"/>
<path opacity="0.3" d="M124.129 121.013H140.77L136.866 131.227H120.225L124.129 121.013Z" fill="black"/>
<path d="M111.212 128.68H137.65V127.362H111.212V128.68Z" fill="#263238"/>
<path opacity="0.2" d="M127.503 128.68H137.65V127.362H127.503V128.68Z" fill="black"/>
<path d="M112.772 124.808H139.21V123.49H112.772V124.808Z" fill="#263238"/>
<path opacity="0.2" d="M129.063 124.808H139.21V123.49H129.063V124.808Z" fill="black"/>
<path d="M140.743 121.082L141.667 122.145L138.157 131.254H136.785L140.743 121.082Z" fill="#263238"/>
<path d="M104.543 126.423L102.757 126.864C102.826 126.385 103.032 125.935 103.349 125.568C103.667 125.2 104.084 124.93 104.551 124.788C105.11 124.661 105.696 124.737 106.202 125.004C106.709 125.27 107.102 125.708 107.308 126.238C107.462 126.604 107.504 127.007 107.429 127.397L118.201 133.82C119.461 132.769 120.954 133.557 121.571 134.415L119.792 134.844C119.593 134.894 119.422 135.02 119.316 135.195C119.21 135.369 119.178 135.578 119.227 135.776C119.252 135.874 119.296 135.967 119.357 136.048C119.419 136.13 119.495 136.198 119.583 136.25C119.671 136.302 119.769 136.337 119.87 136.352C119.972 136.366 120.075 136.361 120.174 136.336L121.961 135.895C121.892 136.375 121.687 136.825 121.369 137.193C121.052 137.56 120.634 137.83 120.167 137.971C119.61 138.109 119.022 138.045 118.509 137.791C117.996 137.536 117.592 137.108 117.37 136.583C117.208 136.241 117.154 135.859 117.214 135.486L106.446 129.078C105.382 129.797 103.716 129.275 103.108 128.417L104.91 127.957C105.011 127.934 105.106 127.89 105.19 127.829C105.273 127.768 105.344 127.692 105.397 127.603C105.451 127.515 105.486 127.417 105.5 127.316C105.515 127.214 105.509 127.11 105.483 127.011C105.461 126.911 105.419 126.816 105.36 126.732C105.3 126.648 105.225 126.577 105.137 126.522C105.05 126.467 104.952 126.43 104.85 126.414C104.748 126.397 104.644 126.4 104.543 126.423Z" fill="#263238"/>
<path opacity="0.6" d="M104.543 126.423L102.757 126.864C102.826 126.385 103.032 125.935 103.349 125.568C103.667 125.2 104.084 124.93 104.551 124.788C105.11 124.661 105.696 124.737 106.202 125.004C106.709 125.27 107.102 125.708 107.308 126.238C107.462 126.604 107.504 127.007 107.429 127.397L118.201 133.82C119.461 132.769 120.954 133.557 121.571 134.415L119.792 134.844C119.593 134.894 119.422 135.02 119.316 135.195C119.21 135.369 119.178 135.578 119.227 135.776C119.252 135.874 119.296 135.967 119.357 136.048C119.419 136.13 119.495 136.198 119.583 136.25C119.671 136.302 119.769 136.337 119.87 136.352C119.972 136.366 120.075 136.361 120.174 136.336L121.961 135.895C121.892 136.375 121.687 136.825 121.369 137.193C121.052 137.56 120.634 137.83 120.167 137.971C119.61 138.109 119.022 138.045 118.509 137.791C117.996 137.536 117.592 137.108 117.37 136.583C117.208 136.241 117.154 135.859 117.214 135.486L106.446 129.078C105.382 129.797 103.716 129.275 103.108 128.417L104.91 127.957C105.011 127.934 105.106 127.89 105.19 127.829C105.273 127.768 105.344 127.692 105.397 127.603C105.451 127.515 105.486 127.417 105.5 127.316C105.515 127.214 105.509 127.11 105.483 127.011C105.461 126.911 105.419 126.816 105.36 126.732C105.3 126.648 105.225 126.577 105.137 126.522C105.05 126.467 104.952 126.43 104.85 126.414C104.748 126.397 104.644 126.4 104.543 126.423Z" fill="white"/>
<path d="M108.084 139.555H136.866V131.227H108.084V139.555Z" fill="#263238"/>
<path opacity="0.2" d="M125.549 139.555H136.866V131.227H125.549V139.555Z" fill="black"/>
<path d="M146.975 137.445L148.274 136.154C148.467 136.601 148.527 137.093 148.447 137.573C148.367 138.052 148.15 138.499 147.821 138.86C147.409 139.256 146.867 139.491 146.294 139.522C145.72 139.553 145.155 139.378 144.701 139.03C144.38 138.795 144.133 138.473 143.992 138.102L131.426 138.121C130.892 139.667 129.203 139.756 128.228 139.339L129.527 138.06C129.61 137.991 129.679 137.905 129.727 137.809C129.775 137.712 129.803 137.606 129.807 137.499C129.812 137.391 129.794 137.283 129.754 137.183C129.715 137.083 129.654 136.992 129.577 136.916C129.499 136.84 129.407 136.781 129.305 136.743C129.203 136.704 129.095 136.688 128.986 136.693C128.877 136.699 128.771 136.727 128.674 136.776C128.577 136.825 128.492 136.894 128.423 136.978L127.14 138.257C126.947 137.81 126.887 137.317 126.968 136.838C127.049 136.358 127.267 135.912 127.596 135.551C128 135.146 128.537 134.898 129.11 134.854C129.683 134.809 130.253 134.97 130.716 135.308C131.034 135.516 131.28 135.815 131.422 136.166L143.992 136.147C144.526 134.987 146.215 134.601 147.19 134.987L145.891 136.301C145.817 136.373 145.758 136.459 145.717 136.554C145.677 136.649 145.656 136.751 145.656 136.854C145.656 136.957 145.677 137.059 145.717 137.154C145.758 137.249 145.817 137.335 145.891 137.406C146.031 137.551 146.223 137.636 146.425 137.643C146.628 137.65 146.825 137.579 146.975 137.445Z" fill="#263238"/>
<path opacity="0.6" d="M146.975 137.445L148.274 136.154C148.467 136.601 148.527 137.093 148.447 137.573C148.367 138.052 148.15 138.499 147.821 138.86C147.409 139.256 146.867 139.491 146.294 139.522C145.72 139.553 145.155 139.378 144.701 139.03C144.38 138.795 144.133 138.473 143.992 138.102L131.426 138.121C130.892 139.667 129.203 139.756 128.228 139.339L129.527 138.06C129.61 137.991 129.679 137.905 129.727 137.809C129.775 137.712 129.803 137.606 129.807 137.499C129.812 137.391 129.794 137.283 129.754 137.183C129.715 137.083 129.654 136.992 129.577 136.916C129.499 136.84 129.407 136.781 129.305 136.743C129.203 136.704 129.095 136.688 128.986 136.693C128.877 136.699 128.771 136.727 128.674 136.776C128.577 136.825 128.492 136.894 128.423 136.978L127.14 138.257C126.947 137.81 126.887 137.317 126.968 136.838C127.049 136.358 127.267 135.912 127.596 135.551C128 135.146 128.537 134.898 129.11 134.854C129.683 134.809 130.253 134.97 130.716 135.308C131.034 135.516 131.28 135.815 131.422 136.166L143.992 136.147C144.526 134.987 146.215 134.601 147.19 134.987L145.891 136.301C145.817 136.373 145.758 136.459 145.717 136.554C145.677 136.649 145.656 136.751 145.656 136.854C145.656 136.957 145.677 137.059 145.717 137.154C145.758 137.249 145.817 137.335 145.891 137.406C146.031 137.551 146.223 137.636 146.425 137.643C146.628 137.65 146.825 137.579 146.975 137.445Z" fill="white"/>
<path d="M53.3442 110.408L55.77 107.494C55.9678 107.254 56.2169 107.06 56.4995 106.926C56.782 106.792 57.091 106.723 57.4041 106.721H59.6466C59.7753 106.721 59.9016 106.756 60.0116 106.823C60.1217 106.889 60.2112 106.984 60.2703 107.097C60.3295 107.211 60.3561 107.338 60.3472 107.465C60.3383 107.592 60.2943 107.715 60.2199 107.819L58.6599 110.003L53.3442 110.408Z" fill="#407BFF"/>
<path opacity="0.3" d="M53.3442 110.408L55.77 107.494C55.9678 107.254 56.2169 107.06 56.4995 106.926C56.782 106.792 57.091 106.723 57.4041 106.721H59.6466C59.7753 106.721 59.9016 106.756 60.0116 106.823C60.1217 106.889 60.2112 106.984 60.2703 107.097C60.3295 107.211 60.3561 107.338 60.3472 107.465C60.3383 107.592 60.2943 107.715 60.2199 107.819L58.6599 110.003L53.3442 110.408Z" fill="black"/>
<path d="M27.7329 110.014L25.0029 101.133H51.0783L53.3442 110.408L27.7329 110.014Z" fill="#407BFF"/>
<path d="M25.0029 101.133L25.9584 99.9082C26.2051 99.5915 26.5218 99.3352 26.8843 99.159C27.2467 98.9827 27.6451 98.8914 28.0488 98.8918H50.3295C50.4744 98.8922 50.6175 98.9241 50.7485 98.9855C50.8796 99.0468 50.9954 99.1359 51.0877 99.2466C51.18 99.3573 51.2466 99.4868 51.2827 99.6258C51.3189 99.7649 51.3236 99.9101 51.2967 100.051L51.0783 101.118L25.0029 101.133Z" fill="#407BFF"/>
<path opacity="0.3" d="M27.7329 110.014L25.0029 101.133H51.0783L53.3442 110.408L27.7329 110.014Z" fill="black"/>
<path opacity="0.2" d="M25.0029 101.133L25.9584 99.9082C26.2051 99.5915 26.5218 99.3352 26.8843 99.159C27.2467 98.9827 27.6451 98.8914 28.0488 98.8918H50.3295C50.4744 98.8922 50.6175 98.9241 50.7485 98.9855C50.8796 99.0468 50.9954 99.1359 51.0877 99.2466C51.18 99.3573 51.2466 99.4868 51.2827 99.6258C51.3189 99.7649 51.3236 99.9101 51.2967 100.051L51.0783 101.118L25.0029 101.133Z" fill="black"/>
<path d="M38.7039 87.4999L39.7632 87.7292C39.8299 87.7436 39.888 87.7837 39.9249 87.8406C39.9618 87.8976 39.9743 87.9667 39.9597 88.0328L39.6743 89.3278L38.1121 88.9897L38.3975 87.6947C38.4047 87.662 38.4184 87.631 38.4377 87.6035C38.457 87.576 38.4816 87.5525 38.51 87.5344C38.5385 87.5163 38.5702 87.504 38.6035 87.4981C38.6368 87.4921 38.6709 87.4928 38.7039 87.4999Z" fill="#407BFF"/>
<path d="M41.698 88.1486L42.7572 88.3779C42.8239 88.3923 42.8821 88.4324 42.9189 88.4893C42.9558 88.5463 42.9683 88.6154 42.9538 88.6815L42.6683 89.9765L41.11 89.6392L41.3954 88.3442C41.4098 88.2788 41.4496 88.2216 41.5062 88.185C41.5629 88.1484 41.6317 88.1353 41.698 88.1486Z" fill="#407BFF"/>
<path d="M44.6929 88.7894L45.7521 89.0187C45.8188 89.0331 45.877 89.0732 45.9139 89.1301C45.9507 89.1871 45.9633 89.2562 45.9487 89.3223L45.6633 90.6173L44.1049 90.2801L44.3903 88.985C44.4047 88.9196 44.4446 88.8624 44.5012 88.8258C44.5578 88.7892 44.6267 88.7761 44.6929 88.7894Z" fill="#407BFF"/>
<path d="M48.1298 89.554L49.1923 89.7796C49.2592 89.7938 49.3177 89.8338 49.3548 89.8907C49.392 89.9476 49.4048 90.0168 49.3905 90.0831L49.1096 91.3822L47.5464 91.0502L47.8273 89.7512C47.8415 89.6855 47.8812 89.6281 47.9378 89.5912C47.9944 89.5543 48.0633 89.5409 48.1298 89.554Z" fill="#407BFF"/>
<path d="M50.6706 90.09L51.7299 90.3192C51.7966 90.3337 51.8547 90.3737 51.8916 90.4307C51.9285 90.4876 51.941 90.5567 51.9264 90.6228L51.641 91.9179L50.0826 91.5806L50.3705 90.2742C50.3874 90.2114 50.4279 90.1574 50.4837 90.1231C50.5395 90.0889 50.6063 90.077 50.6706 90.09Z" fill="#407BFF"/>
<path d="M53.6641 90.7195L54.7233 90.9488C54.79 90.9632 54.8482 91.0033 54.8851 91.0602C54.9219 91.1172 54.9345 91.1863 54.9199 91.2524L54.6345 92.5474L53.0761 92.2102L53.3582 90.9302C53.3728 90.8641 53.4132 90.8065 53.4707 90.77C53.5281 90.7334 53.5979 90.721 53.6646 90.7354L53.6641 90.7195Z" fill="#407BFF"/>
<path d="M49.9575 112.527L48.8983 112.298C48.8316 112.284 48.7734 112.244 48.7366 112.187C48.6997 112.13 48.6872 112.061 48.7018 111.995L48.9872 110.7L50.5455 111.037L50.2601 112.332C50.2457 112.397 50.2059 112.454 50.1493 112.491C50.0927 112.528 50.0238 112.541 49.9575 112.527Z" fill="#407BFF"/>
<path d="M46.9819 111.874L45.9227 111.644C45.8897 111.637 45.8584 111.624 45.8307 111.605C45.8029 111.585 45.7792 111.561 45.761 111.533C45.7428 111.505 45.7303 111.473 45.7243 111.44C45.7184 111.407 45.719 111.373 45.7262 111.341L46.0119 110.046L47.5702 110.383L47.2845 111.678C47.2701 111.744 47.2303 111.801 47.1736 111.837C47.117 111.874 47.0482 111.887 46.9819 111.874Z" fill="#407BFF"/>
<path d="M43.9718 111.231L42.9126 111.002C42.8459 110.988 42.7877 110.948 42.7508 110.891C42.714 110.834 42.7014 110.765 42.716 110.699L43.0014 109.403L44.5636 109.742L44.2782 111.037C44.2636 111.103 44.2232 111.16 44.1657 111.197C44.1082 111.233 44.0385 111.246 43.9718 111.231Z" fill="#407BFF"/>
<path d="M40.9794 110.581L39.9202 110.352C39.8535 110.338 39.7953 110.297 39.7584 110.241C39.7216 110.184 39.709 110.114 39.7236 110.048L40.009 108.753L41.5674 109.091L41.282 110.386C41.2676 110.451 41.2277 110.508 41.1711 110.545C41.1145 110.581 41.0456 110.595 40.9794 110.581Z" fill="#407BFF"/>
<path d="M37.99 109.935L36.9307 109.706C36.8641 109.691 36.8059 109.651 36.769 109.594C36.7322 109.537 36.7196 109.468 36.7342 109.402L37.0196 108.107L38.5818 108.445L38.2964 109.74C38.2818 109.806 38.2413 109.864 38.1839 109.9C38.1264 109.937 38.0567 109.949 37.99 109.935Z" fill="#407BFF"/>
<path d="M34.9967 109.289L33.9375 109.06C33.9044 109.052 33.8732 109.039 33.8454 109.02C33.8177 109.001 33.794 108.976 33.7757 108.948C33.7575 108.92 33.745 108.888 33.739 108.856C33.7331 108.823 33.7337 108.789 33.7409 108.756L34.0263 107.461L35.5885 107.799L35.3031 109.094C35.2959 109.127 35.2822 109.158 35.2629 109.185C35.2436 109.213 35.2191 109.236 35.1906 109.254C35.1621 109.272 35.1304 109.285 35.0971 109.291C35.0638 109.297 35.0297 109.296 34.9967 109.289Z" fill="#407BFF"/>
<g opacity="0.4">
<path d="M38.7039 87.4999L39.7632 87.7292C39.8299 87.7436 39.888 87.7837 39.9249 87.8406C39.9618 87.8976 39.9743 87.9667 39.9597 88.0328L39.6743 89.3278L38.1121 88.9897L38.3975 87.6947C38.4047 87.662 38.4184 87.631 38.4377 87.6035C38.457 87.576 38.4816 87.5525 38.51 87.5344C38.5385 87.5163 38.5702 87.504 38.6035 87.4981C38.6368 87.4921 38.6709 87.4928 38.7039 87.4999Z" fill="white"/>
<path d="M41.6979 88.1486L42.7572 88.3778C42.8238 88.3923 42.882 88.4324 42.9189 88.4893C42.9557 88.5463 42.9683 88.6154 42.9537 88.6815L42.6683 89.9765L41.1099 89.6392L41.3953 88.3442C41.4097 88.2788 41.4496 88.2216 41.5062 88.185C41.5628 88.1484 41.6317 88.1353 41.6979 88.1486Z" fill="white"/>
<path d="M44.6928 88.7894L45.752 89.0187C45.8187 89.0331 45.8769 89.0732 45.9138 89.1301C45.9506 89.1871 45.9631 89.2562 45.9486 89.3223L45.6631 90.6173L44.1048 90.2801L44.3902 88.985C44.4046 88.9196 44.4444 88.8624 44.5011 88.8258C44.5577 88.7892 44.6265 88.7761 44.6928 88.7894Z" fill="white"/>
<path d="M48.1298 89.554L49.1923 89.7796C49.2592 89.7938 49.3177 89.8338 49.3548 89.8907C49.392 89.9476 49.4048 90.0168 49.3905 90.0831L49.1096 91.3822L47.5464 91.0502L47.8273 89.7512C47.8415 89.6855 47.8812 89.6281 47.9378 89.5912C47.9944 89.5543 48.0633 89.5409 48.1298 89.554Z" fill="white"/>
<path d="M50.6706 90.09L51.7299 90.3192C51.7966 90.3337 51.8547 90.3737 51.8916 90.4307C51.9285 90.4876 51.941 90.5567 51.9264 90.6228L51.641 91.9179L50.0826 91.5806L50.3705 90.2742C50.3874 90.2114 50.4279 90.1574 50.4837 90.1231C50.5395 90.0889 50.6063 90.077 50.6706 90.09Z" fill="white"/>
<path d="M53.6641 90.7195L54.7233 90.9488C54.79 90.9632 54.8482 91.0033 54.8851 91.0602C54.9219 91.1172 54.9345 91.1863 54.9199 91.2524L54.6345 92.5474L53.0761 92.2102L53.3582 90.9302C53.3728 90.8641 53.4132 90.8065 53.4707 90.77C53.5281 90.7334 53.5979 90.721 53.6646 90.7354L53.6641 90.7195Z" fill="white"/>
<path d="M49.9575 112.527L48.8983 112.298C48.8316 112.284 48.7734 112.244 48.7366 112.187C48.6997 112.13 48.6872 112.061 48.7018 111.995L48.9872 110.7L50.5455 111.037L50.2601 112.332C50.2457 112.397 50.2059 112.454 50.1493 112.491C50.0927 112.528 50.0238 112.541 49.9575 112.527Z" fill="white"/>
<path d="M46.9819 111.874L45.9227 111.644C45.8897 111.637 45.8584 111.624 45.8307 111.605C45.8029 111.585 45.7792 111.561 45.761 111.533C45.7428 111.505 45.7303 111.473 45.7243 111.44C45.7184 111.407 45.719 111.373 45.7262 111.341L46.0119 110.046L47.5702 110.383L47.2845 111.678C47.2701 111.744 47.2303 111.801 47.1736 111.837C47.117 111.874 47.0482 111.887 46.9819 111.874Z" fill="white"/>
<path d="M43.9718 111.231L42.9126 111.002C42.8459 110.988 42.7877 110.948 42.7508 110.891C42.714 110.834 42.7014 110.765 42.716 110.699L43.0014 109.403L44.5636 109.742L44.2782 111.037C44.2636 111.103 44.2232 111.16 44.1657 111.197C44.1082 111.233 44.0385 111.246 43.9718 111.231Z" fill="white"/>
<path d="M40.9793 110.581L39.9201 110.352C39.8534 110.338 39.7952 110.297 39.7584 110.241C39.7215 110.184 39.709 110.114 39.7235 110.048L40.009 108.753L41.5673 109.091L41.2819 110.386C41.2675 110.451 41.2277 110.508 41.1711 110.545C41.1145 110.581 41.0456 110.595 40.9793 110.581Z" fill="white"/>
<path d="M37.99 109.935L36.9307 109.706C36.8641 109.691 36.8059 109.651 36.769 109.594C36.7322 109.537 36.7196 109.468 36.7342 109.402L37.0196 108.107L38.5818 108.445L38.2964 109.74C38.2818 109.806 38.2413 109.864 38.1839 109.9C38.1264 109.937 38.0567 109.949 37.99 109.935Z" fill="white"/>
<path d="M34.9966 109.289L33.9374 109.06C33.9044 109.052 33.8731 109.039 33.8453 109.02C33.8176 109.001 33.7939 108.976 33.7757 108.948C33.7574 108.92 33.745 108.888 33.739 108.856C33.733 108.823 33.7336 108.789 33.7409 108.756L34.0263 107.461L35.5885 107.799L35.303 109.094C35.2958 109.127 35.2822 109.158 35.2629 109.185C35.2436 109.213 35.219 109.236 35.1905 109.254C35.1621 109.272 35.1303 109.285 35.0971 109.291C35.0638 109.297 35.0297 109.296 34.9966 109.289Z" fill="white"/>
</g>
<path d="M56.7821 92.4769L37.0872 88.2146C36.3381 88.0525 35.5981 88.5228 35.4345 89.2651L31.7256 106.093C31.562 106.835 32.0367 107.569 32.7858 107.731L52.4807 111.993C53.2298 112.155 53.9697 111.685 54.1334 110.943L57.8422 94.1146C58.0059 93.3723 57.5312 92.6391 56.7821 92.4769Z" fill="#263238"/>
<path opacity="0.4" d="M34.6827 108.148L32.7795 107.734C32.6014 107.696 32.4326 107.624 32.2828 107.521C32.133 107.418 32.0052 107.287 31.9066 107.135C31.8081 106.983 31.7407 106.813 31.7085 106.636C31.6763 106.458 31.6797 106.276 31.7187 106.099L35.4276 89.2728C35.4664 89.0961 35.54 88.9288 35.6442 88.7803C35.7483 88.6318 35.881 88.5052 36.0345 88.4075C36.1881 88.3099 36.3596 88.2432 36.5392 88.2113C36.7188 88.1794 36.903 88.1829 37.0812 88.2216L38.9844 88.6351C38.8064 88.5965 38.6225 88.593 38.4431 88.625C38.2638 88.6569 38.0926 88.7237 37.9393 88.8213C37.7861 88.919 37.6538 89.0456 37.55 89.1941C37.4463 89.3425 37.3731 89.5098 37.3347 89.6863L33.6219 106.509C33.5829 106.686 33.5794 106.868 33.6116 107.046C33.6438 107.224 33.711 107.394 33.8096 107.546C33.9081 107.698 34.0359 107.83 34.1857 107.933C34.3356 108.036 34.5044 108.109 34.6827 108.148Z" fill="black"/>
<path d="M45.5325 96.4996L42.7401 103.456L41.2659 103.139L41.6559 95.6726L42.7791 95.9161L42.3618 101.756L44.4405 96.2755L45.5325 96.4996Z" fill="#407BFF"/>
<path d="M45.4389 101.16L44.8188 101.029L44.9007 100.643C45.053 100.68 45.2125 100.68 45.3645 100.641C45.5165 100.601 45.6561 100.525 45.7704 100.418L46.1604 100.5L45.3804 104.082L44.8344 103.962L45.4389 101.16Z" fill="#407BFF"/>
<path d="M46.1058 103.688L46.6557 103.804L46.5348 104.345L45.9888 104.225L46.1058 103.688Z" fill="#407BFF"/>
<path d="M47.2798 103.645L47.3032 103.537L47.8414 103.603L47.8141 103.719C47.7517 104.005 47.8492 104.144 48.052 104.19C48.0964 104.202 48.1428 104.203 48.1879 104.195C48.233 104.187 48.2758 104.168 48.313 104.142C48.3502 104.115 48.3811 104.081 48.4034 104.041C48.4257 104.001 48.4389 103.957 48.442 103.912L48.6253 103.081C48.6426 103.041 48.6503 102.998 48.6479 102.955C48.6455 102.912 48.6331 102.87 48.6115 102.833C48.5899 102.795 48.5599 102.763 48.5237 102.739C48.4875 102.715 48.4462 102.7 48.403 102.694C48.3567 102.683 48.3085 102.682 48.2616 102.69C48.2147 102.699 48.1702 102.717 48.1308 102.743C48.0914 102.77 48.0581 102.804 48.0331 102.845C48.0081 102.885 47.992 102.93 47.9857 102.977V103.035L47.4592 102.923L47.9116 100.878L49.4716 101.214L49.3585 101.728L48.3211 101.5L48.1261 102.393C48.2013 102.321 48.2939 102.27 48.3949 102.243C48.4959 102.217 48.6021 102.217 48.7033 102.242C48.7968 102.261 48.8852 102.299 48.9626 102.354C49.04 102.409 49.1045 102.48 49.1518 102.563C49.1991 102.645 49.2281 102.736 49.2369 102.83C49.2456 102.924 49.2339 103.019 49.2025 103.108L49.0036 104.008C48.978 104.121 48.9303 104.227 48.8633 104.321C48.7964 104.415 48.7114 104.494 48.6132 104.556C48.5151 104.617 48.4057 104.659 48.2914 104.678C48.177 104.698 48.0599 104.695 47.9467 104.669C47.8335 104.644 47.7265 104.597 47.6317 104.53C47.5369 104.464 47.4563 104.38 47.3943 104.283C47.3324 104.185 47.2904 104.077 47.2708 103.964C47.2511 103.85 47.2542 103.734 47.2798 103.622V103.645Z" fill="#407BFF"/>
<path d="M31.1341 105.461L31.3655 104.412C31.3727 104.379 31.3863 104.348 31.4056 104.32C31.4249 104.293 31.4495 104.27 31.4779 104.251C31.5064 104.233 31.5382 104.221 31.5714 104.215C31.6047 104.209 31.6388 104.21 31.6718 104.217L32.9635 104.496L32.6223 106.044L31.3269 105.764C31.2938 105.757 31.2626 105.743 31.2348 105.724C31.2071 105.705 31.1834 105.681 31.1651 105.653C31.1469 105.624 31.1344 105.593 31.1284 105.56C31.1224 105.527 31.1231 105.493 31.1303 105.46L31.1341 105.461Z" fill="#407BFF"/>
<path d="M31.7882 102.516L32.0197 101.467C32.0343 101.401 32.0748 101.343 32.1322 101.307C32.1897 101.27 32.2595 101.258 32.3262 101.272L33.633 101.555L33.2924 103.099L31.9855 102.816C31.9195 102.802 31.8618 102.762 31.8249 102.706C31.7879 102.65 31.7748 102.582 31.7882 102.516Z" fill="#407BFF"/>
<path d="M32.4418 99.5477L32.6733 98.4981C32.6879 98.432 32.7284 98.3743 32.7858 98.3378C32.8433 98.3013 32.9131 98.2889 32.9798 98.3034L34.2866 98.5864L33.9451 100.134L32.6383 99.8513C32.5716 99.8369 32.5134 99.7968 32.4766 99.7398C32.4397 99.6829 32.4272 99.6138 32.4418 99.5477Z" fill="#407BFF"/>
<path d="M33.0945 96.5877L33.3261 95.5381C33.3406 95.472 33.3811 95.4143 33.4386 95.3778C33.496 95.3413 33.5658 95.3289 33.6325 95.3434L34.9317 95.6248L34.5911 97.169L33.2843 96.8859C33.22 96.8699 33.1644 96.83 33.129 96.7745C33.0937 96.7189 33.0813 96.652 33.0945 96.5877Z" fill="#407BFF"/>
<path d="M33.7457 93.6069L33.977 92.5573C33.9916 92.4912 34.032 92.4336 34.0895 92.397C34.1469 92.3605 34.2167 92.3481 34.2834 92.3625L35.5903 92.6454L35.2491 94.1934L33.9422 93.9105C33.8755 93.8961 33.8173 93.856 33.7805 93.7991C33.7436 93.7421 33.7311 93.673 33.7457 93.6069Z" fill="#407BFF"/>
<path d="M34.399 90.6397L34.6303 89.5901C34.6449 89.524 34.6853 89.4663 34.7428 89.4298C34.8003 89.3933 34.87 89.3809 34.9367 89.3953L36.2436 89.6782L35.9024 91.2262L34.5955 90.9433C34.5288 90.9289 34.4707 90.8888 34.4338 90.8319C34.3969 90.7749 34.3844 90.7058 34.399 90.6397Z" fill="#407BFF"/>
<g opacity="0.4">
<path d="M31.1341 105.461L31.3655 104.412C31.3727 104.379 31.3863 104.348 31.4056 104.32C31.4249 104.293 31.4495 104.27 31.4779 104.251C31.5064 104.233 31.5382 104.221 31.5714 104.215C31.6047 104.209 31.6388 104.21 31.6718 104.217L32.9635 104.496L32.6223 106.044L31.3269 105.764C31.2938 105.757 31.2626 105.743 31.2348 105.724C31.2071 105.705 31.1834 105.681 31.1651 105.653C31.1469 105.624 31.1344 105.593 31.1284 105.56C31.1224 105.527 31.1231 105.493 31.1303 105.46L31.1341 105.461Z" fill="white"/>
<path d="M31.7882 102.516L32.0197 101.467C32.0343 101.401 32.0748 101.343 32.1322 101.307C32.1897 101.27 32.2595 101.258 32.3262 101.272L33.633 101.555L33.2924 103.099L31.9855 102.816C31.9195 102.802 31.8618 102.762 31.8249 102.706C31.7879 102.65 31.7748 102.582 31.7882 102.516Z" fill="white"/>
<path d="M32.4418 99.5476L32.6733 98.4981C32.6879 98.432 32.7284 98.3743 32.7858 98.3378C32.8433 98.3013 32.9131 98.2889 32.9798 98.3033L34.2866 98.5864L33.9451 100.134L32.6383 99.8513C32.5716 99.8368 32.5134 99.7967 32.4766 99.7398C32.4397 99.6829 32.4272 99.6137 32.4418 99.5476Z" fill="white"/>
<path d="M33.0944 96.5877L33.3259 95.5381C33.3405 95.472 33.381 95.4143 33.4385 95.3778C33.4959 95.3413 33.5657 95.3289 33.6324 95.3434L34.9316 95.6248L34.591 97.169L33.2841 96.8859C33.2199 96.8699 33.1642 96.83 33.1289 96.7745C33.0936 96.7189 33.0812 96.652 33.0944 96.5877Z" fill="white"/>
<path d="M33.7457 93.6069L33.977 92.5573C33.9916 92.4912 34.032 92.4336 34.0895 92.397C34.1469 92.3605 34.2167 92.3481 34.2834 92.3625L35.5903 92.6454L35.2491 94.1934L33.9422 93.9105C33.8755 93.8961 33.8173 93.856 33.7805 93.7991C33.7436 93.7421 33.7311 93.673 33.7457 93.6069Z" fill="white"/>
<path d="M34.399 90.6397L34.6303 89.5901C34.6449 89.524 34.6853 89.4663 34.7428 89.4298C34.8003 89.3933 34.87 89.3809 34.9367 89.3953L36.2436 89.6781L35.9024 91.2261L34.5955 90.9433C34.5288 90.9289 34.4707 90.8888 34.4338 90.8318C34.3969 90.7749 34.3844 90.7058 34.399 90.6397Z" fill="white"/>
</g>
<path d="M58.6677 110.014H27.7329V139.552H58.6677V110.014Z" fill="#407BFF"/>
<path opacity="0.2" d="M32.9238 110.014H27.7329V139.552H32.9238V110.014Z" fill="black"/>
<path d="M32.9238 110.014L30.0885 106.575C29.8805 106.324 29.6192 106.122 29.3232 105.983C29.0273 105.844 28.704 105.772 28.3765 105.771H26.095C25.9311 105.77 25.7704 105.816 25.6316 105.902C25.4928 105.989 25.3817 106.112 25.311 106.259C25.2403 106.405 25.2131 106.569 25.2324 106.73C25.2518 106.891 25.3169 107.044 25.4202 107.17L27.7329 110.014H32.9238Z" fill="#407BFF"/>
<path d="M106.754 56.369C104.722 57.3661 100.479 59.1322 96.4934 58.8501C95.5166 58.7908 94.555 58.5822 93.6425 58.2318C92.336 57.7178 91.5053 56.4115 91.01 54.6802C89.2043 48.4234 91.7315 36.613 91.7315 36.613C95.4053 37.2082 98.9543 51.403 100.343 52.1798C101.731 52.9566 107.64 52.686 107.64 52.686L107.835 54.4213C107.879 54.8166 107.799 55.2159 107.605 55.5645C107.412 55.9131 107.115 56.194 106.754 56.369Z" fill="#407BFF"/>
<path opacity="0.3" d="M96.4933 58.8502C95.5166 58.7909 94.5549 58.5823 93.6424 58.2319C92.3359 57.7179 91.5052 56.4116 91.0099 54.6803C91.1503 53.7451 91.318 53.0842 91.318 53.0842L98.0728 51.1519C98.0728 51.1519 98.3536 55.9943 96.4933 58.8502Z" fill="black"/>
<path d="M91.1971 136.584L94.4614 136.927L95.0737 129.952L91.8133 129.612L91.1971 136.584Z" fill="#B97964"/>
<path d="M74.9146 136.348H78.0775L78.3388 129.09H75.172L74.9146 136.348Z" fill="#B97964"/>
<path d="M78.5182 135.984H74.6767C74.6136 135.986 74.5527 136.008 74.5034 136.047C74.4541 136.086 74.419 136.14 74.4037 136.201L73.7836 138.991C73.7705 139.05 73.7693 139.112 73.7803 139.172C73.7912 139.231 73.8141 139.288 73.8474 139.34C73.8808 139.391 73.924 139.435 73.9747 139.469C74.0253 139.503 74.0823 139.527 74.1424 139.54C74.1759 139.546 74.2103 139.546 74.2438 139.54C75.4879 139.54 76.3927 139.447 77.9527 139.447C78.916 139.447 81.8137 139.547 83.1436 139.547C84.4735 139.547 84.6412 138.245 84.0991 138.125C81.6616 137.6 79.8286 136.869 79.0486 136.193C78.9048 136.059 78.7153 135.985 78.5182 135.984Z" fill="#263238"/>
<path d="M78.7328 136.421C78.718 136.417 78.7047 136.409 78.6949 136.397C78.6851 136.385 78.6793 136.371 78.6782 136.356C78.6751 136.342 78.677 136.327 78.6833 136.315C78.6897 136.302 78.7003 136.292 78.7133 136.286C78.8264 136.213 79.8482 135.59 80.1992 135.772C80.2381 135.79 80.2709 135.82 80.2937 135.856C80.3166 135.892 80.3284 135.934 80.3279 135.977C80.336 136.049 80.3255 136.123 80.2976 136.19C80.2697 136.258 80.2251 136.317 80.168 136.363C79.9917 136.485 79.7779 136.543 79.5635 136.526C79.2835 136.522 79.0049 136.487 78.7328 136.421ZM78.9512 136.317C79.3206 136.439 79.7226 136.42 80.0783 136.263C80.1154 136.229 80.1437 136.187 80.1607 136.139C80.1777 136.092 80.1829 136.042 80.1758 135.992C80.1758 135.934 80.1485 135.907 80.129 135.907C80.0993 135.891 80.0653 135.884 80.0315 135.888C79.6468 135.96 79.2799 136.106 78.9512 136.317Z" fill="#407BFF"/>
<path d="M78.7133 136.421C78.702 136.413 78.6929 136.403 78.6867 136.391C78.6806 136.378 78.6777 136.365 78.6782 136.351C78.6782 136.309 78.7562 135.408 79.1228 135.115C79.1655 135.076 79.2164 135.047 79.2717 135.031C79.327 135.014 79.3854 135.01 79.4426 135.018C79.4991 135.018 79.5541 135.037 79.5982 135.072C79.6422 135.107 79.6727 135.156 79.6844 135.211C79.7468 135.544 79.115 136.232 78.7913 136.409H78.7522C78.7408 136.417 78.7272 136.421 78.7133 136.421ZM79.2203 135.2C78.9934 135.481 78.8575 135.823 78.8303 136.181C79.1579 135.938 79.5596 135.408 79.5167 135.211C79.5167 135.192 79.5166 135.138 79.4113 135.138H79.3724C79.3143 135.146 79.2608 135.173 79.2203 135.215V135.2Z" fill="#407BFF"/>
<path d="M94.8085 135.888H90.967C90.9045 135.888 90.8439 135.909 90.7951 135.947C90.7462 135.986 90.712 136.04 90.6979 136.1L90.0739 138.89C90.0607 138.95 90.0596 139.011 90.0706 139.071C90.0815 139.131 90.1043 139.188 90.1377 139.239C90.1711 139.29 90.2143 139.334 90.265 139.368C90.3156 139.403 90.3726 139.427 90.4327 139.439H90.5341C91.7782 139.439 92.683 139.343 94.243 139.343C95.2063 139.343 98.1079 139.443 99.4339 139.443C100.76 139.443 100.935 138.141 100.389 138.025C97.9519 137.495 96.0994 136.769 95.3194 136.073C95.1771 135.953 94.9957 135.887 94.8085 135.888Z" fill="#263238"/>
<path d="M95.023 136.321C95.0092 136.316 94.9968 136.308 94.9872 136.297C94.9776 136.286 94.9711 136.273 94.9684 136.259C94.9663 136.244 94.9685 136.23 94.9748 136.217C94.981 136.204 94.991 136.193 95.0035 136.185C95.1166 136.112 96.1384 135.49 96.4894 135.671C96.5293 135.69 96.5628 135.719 96.5857 135.756C96.6086 135.793 96.6199 135.836 96.6181 135.88C96.6259 135.952 96.6158 136.025 96.5886 136.092C96.5614 136.16 96.518 136.219 96.4621 136.266C96.2829 136.385 96.0687 136.441 95.8537 136.425C95.5738 136.421 95.2951 136.386 95.023 136.321ZM95.2414 136.216C95.6108 136.338 96.0128 136.319 96.3685 136.162C96.4053 136.129 96.4336 136.087 96.4512 136.041C96.4688 135.994 96.4752 135.945 96.4699 135.895C96.4699 135.834 96.4426 135.807 96.4192 135.807C96.3908 135.791 96.3581 135.784 96.3256 135.787C95.9402 135.861 95.5724 136.007 95.2414 136.216Z" fill="#407BFF"/>
<path d="M95.0035 136.336C94.9925 136.329 94.9836 136.319 94.9774 136.308C94.9713 136.296 94.9682 136.283 94.9684 136.27C94.9684 136.224 95.0503 135.323 95.4169 135.03C95.4592 134.992 95.5094 134.963 95.564 134.947C95.6186 134.93 95.6762 134.925 95.7328 134.933C95.7899 134.933 95.8453 134.953 95.8895 134.989C95.9336 135.025 95.9637 135.075 95.9746 135.13C96.037 135.459 95.4052 136.15 95.0815 136.324H95.0464C95.0335 136.332 95.0186 136.336 95.0035 136.336ZM95.5105 135.119C95.2831 135.398 95.1471 135.739 95.1205 136.096C95.4481 135.853 95.8498 135.323 95.8108 135.13C95.8108 135.107 95.8108 135.053 95.7016 135.053H95.6665C95.6085 135.057 95.5535 135.08 95.5105 135.119Z" fill="#407BFF"/>
<path opacity="0.2" d="M91.8133 129.612L95.0737 129.952L94.7578 133.55L91.4935 133.206L91.8133 129.612Z" fill="black"/>
<path opacity="0.2" d="M75.1721 129.094H78.3389L78.2024 132.838H75.0356L75.1721 129.094Z" fill="black"/>
<path d="M76.4785 65.4201H93.2485C94.8436 74.0576 99.8395 104.615 96.2554 131.842L90.5731 131.142C90.5731 131.142 91.0996 94.9961 86.0803 81.6361C85.5031 88.7857 84.8206 96.3951 84.2239 100.445C82.7653 110.408 79.6375 132.189 79.6375 132.189H73.8694C73.8694 132.189 75.0394 111.344 75.601 101.547C76.1977 90.9151 76.4395 67.6036 76.4785 65.4201Z" fill="#263238"/>
<path opacity="0.2" d="M86.0999 81.6361C86.9251 83.9789 87.5513 86.3859 87.9719 88.832C88.4438 82.467 86.564 75.7193 86.564 75.7193L86.0999 81.6361Z" fill="black"/>
<path d="M96.9185 133.151L89.8868 132.116L90.1013 130.187L97.4177 131.138L96.9185 133.151Z" fill="#407BFF"/>
<path opacity="0.6" d="M96.9185 133.151L89.8868 132.116L90.1013 130.187L97.4177 131.138L96.9185 133.151Z" fill="white"/>
<path d="M80.3512 132.236H73.5262V130.214L80.6086 130.083L80.3512 132.236Z" fill="#407BFF"/>
<path opacity="0.6" d="M80.3512 132.236H73.5262V130.214L80.6086 130.083L80.3512 132.236Z" fill="white"/>
<path d="M76.1237 71.6461V73.4432L94.715 72.5427V70.9196L76.1237 71.6461Z" fill="#407BFF"/>
<path d="M106.002 53.718C106.002 53.718 105.896 54.5759 107.285 55.3257H109.059C109.415 55.5392 109.815 55.6712 110.229 55.7121C110.693 55.7121 112.916 54.0658 113.318 53.7141C113.72 53.3624 112.624 49.4283 112.624 49.4283L106.002 53.718Z" fill="#B97964"/>
<path d="M91.7314 36.6131C91.7314 36.6131 81.0532 36.0991 73.1011 38.0856C73.1011 38.0856 75.6712 60.8869 75.6868 71.3871C75.6868 71.4953 75.7087 71.6024 75.7514 71.702C75.7941 71.8016 75.8567 71.8916 75.9354 71.9667C76.014 72.0418 76.1072 72.1003 76.2092 72.1388C76.3113 72.1774 76.4201 72.1951 76.5292 72.1909L94.4692 71.5726C94.6841 71.5635 94.8866 71.4707 95.0327 71.3144C95.1788 71.158 95.2566 70.9508 95.2492 70.7378C95.0893 66.4056 94.204 45.7916 91.7314 36.6131Z" fill="#407BFF"/>
<path opacity="0.2" d="M95.2493 70.7222C95.2534 70.8278 95.2366 70.9332 95.1996 71.0323C95.1627 71.1314 95.1064 71.2223 95.0339 71.2999C94.9615 71.3774 94.8743 71.44 94.7774 71.4841C94.6805 71.5283 94.5758 71.553 94.4693 71.557L76.5293 72.1753C76.42 72.1801 76.3109 72.1627 76.2086 72.1244C76.1063 72.0861 76.013 72.0275 75.9342 71.9524C75.8554 71.8772 75.7929 71.7869 75.7503 71.6871C75.7078 71.5872 75.6862 71.4799 75.6869 71.3715C75.6869 69.2382 75.5738 66.591 75.4022 63.7311C75.3203 62.4403 75.2306 61.107 75.1292 59.7544C75.0161 58.1699 74.8874 56.5622 74.7392 54.9777C74.435 51.3604 74.1035 47.8552 73.8149 44.9838C73.4015 40.8834 73.0856 38.0738 73.0856 38.0738C81.0377 36.0836 91.7159 36.5976 91.7159 36.5976C94.2041 45.7915 95.0894 66.4055 95.2493 70.7222Z" fill="black"/>
<path d="M79.1696 37.0188C80.7296 38.4062 84.4853 37.8961 84.4853 37.8961C84.4853 37.8961 86.8253 37.2546 86.3456 36.5241C84.9572 36.3 84.2864 35.6585 84.0056 34.8353C83.8553 34.3265 83.8076 33.7933 83.8652 33.2663C83.8886 32.9725 83.9315 32.6788 83.9822 32.389L79.3022 28.9649C79.9496 31.2257 80.6789 35.3802 79.1696 37.0188Z" fill="#B97964"/>
<path opacity="0.2" d="M80.3981 31.1407C80.5853 33.9155 82.8863 34.6807 84.0095 34.8352C83.8592 34.3264 83.8115 33.7933 83.8691 33.2662L80.3981 31.1407Z" fill="black"/>
<path d="M88.4515 22.372C88.4515 22.372 89.1145 26.6888 86.8018 28.3506C84.4891 30.0124 84.4891 21.9739 84.4891 21.9739L88.4515 22.372Z" fill="#263238"/>
<path d="M80.0859 31.7825C80.5704 32.4943 81.2775 33.0286 82.0985 33.303C82.9195 33.5775 83.8088 33.5769 84.6294 33.3013C85.6977 32.9664 86.5972 32.2409 87.1449 31.2723C87.2221 31.1381 87.2924 31.0001 87.3555 30.8588C88.4904 28.2193 88.8531 23.6049 86.0373 21.8736C85.4173 21.4887 84.7082 21.2673 83.9775 21.2306C83.2467 21.1938 82.5187 21.3428 81.8625 21.6635C81.2063 21.9842 80.6438 22.4658 80.2284 23.0627C79.813 23.6595 79.5585 24.3517 79.4892 25.0735C79.1382 28.1575 78.7794 29.9584 80.0859 31.7825Z" fill="#B97964"/>
<path d="M84.025 26.7234C83.9665 26.9669 84.0796 27.1949 84.2434 27.222C84.4072 27.249 84.5788 27.0674 84.6334 26.8355C84.688 26.6036 84.5749 26.364 84.4111 26.337C84.2473 26.3099 84.0718 26.4722 84.025 26.7234Z" fill="#263238"/>
<path d="M86.8682 27.2029C86.8058 27.4464 86.9228 27.6782 87.0866 27.7053C87.2504 27.7323 87.4181 27.5507 87.4766 27.3188C87.5351 27.087 87.4181 26.8435 87.2543 26.8164C87.0905 26.7894 86.9072 26.9671 86.8682 27.2029Z" fill="#263238"/>
<path d="M85.9439 27.1718C86.1126 27.9787 86.3921 28.7589 86.7746 29.4906C86.5814 29.5843 86.3697 29.6346 86.1547 29.6379C85.9396 29.6413 85.7265 29.5976 85.5305 29.5099L85.9439 27.1718Z" fill="#A24E3F"/>
<path d="M83.2996 25.6606C83.3256 25.6683 83.3531 25.6695 83.3796 25.6641C83.4062 25.6587 83.4309 25.6469 83.4517 25.6297C83.5853 25.4985 83.748 25.4002 83.9267 25.3425C84.1055 25.2847 84.2954 25.2693 84.4813 25.2973C84.5003 25.3025 84.5201 25.3038 84.5396 25.301C84.5591 25.2983 84.5778 25.2917 84.5946 25.2816C84.6114 25.2715 84.6259 25.258 84.6373 25.2421C84.6487 25.2262 84.6567 25.2082 84.6607 25.1891C84.6654 25.1703 84.6662 25.1508 84.6633 25.1317C84.6603 25.1126 84.6535 25.0943 84.6434 25.0777C84.6333 25.0612 84.6199 25.0469 84.6041 25.0355C84.5884 25.0241 84.5705 25.0159 84.5515 25.0113C84.319 24.9687 84.0796 24.9815 83.8531 25.0487C83.6266 25.1159 83.4195 25.2356 83.2489 25.3978C83.235 25.4115 83.224 25.4277 83.2164 25.4456C83.2089 25.4635 83.205 25.4827 83.205 25.5021C83.205 25.5216 83.2089 25.5408 83.2164 25.5587C83.224 25.5766 83.235 25.5928 83.2489 25.6065C83.2612 25.6283 83.2786 25.6469 83.2996 25.6606Z" fill="#263238"/>
<path d="M84.8987 30.7466C84.5292 30.7404 84.1668 30.6457 83.8422 30.4708C83.5176 30.2958 83.2405 30.0457 83.0345 29.7418C83.0245 29.7233 83.0222 29.7017 83.0281 29.6815C83.0339 29.6613 83.0473 29.6442 83.0657 29.6336C83.0828 29.6233 83.1034 29.6199 83.123 29.6243C83.1426 29.6286 83.1598 29.6402 83.171 29.6568C83.3673 29.9335 83.626 30.1611 83.9266 30.3215C84.2272 30.4818 84.5613 30.5705 84.9026 30.5804C84.9226 30.5804 84.9419 30.588 84.9564 30.6017C84.9709 30.6154 84.9796 30.6341 84.9806 30.6539C84.9796 30.6737 84.9709 30.6924 84.9564 30.706C84.9419 30.7197 84.9226 30.7273 84.9026 30.7273L84.8987 30.7466Z" fill="#263238"/>
<path d="M88.2565 26.4376C88.2823 26.4534 88.3121 26.4614 88.3423 26.4608C88.3801 26.45 88.412 26.4248 88.431 26.3907C88.45 26.3567 88.4546 26.3165 88.4437 26.2791C88.3823 26.0515 88.2667 25.8418 88.1065 25.6676C87.9464 25.4934 87.7464 25.3599 87.5233 25.2782C87.4856 25.2672 87.445 25.2711 87.4101 25.2891C87.3752 25.3071 87.3487 25.3378 87.3361 25.3748C87.3271 25.4127 87.3324 25.4525 87.3511 25.4867C87.3698 25.5209 87.4006 25.5471 87.4375 25.5603C87.6088 25.6311 87.7613 25.7401 87.883 25.8789C88.0048 26.0176 88.0926 26.1824 88.1395 26.3603C88.1505 26.3822 88.167 26.4009 88.1876 26.4145C88.2081 26.4281 88.2319 26.436 88.2565 26.4376Z" fill="#263238"/>
<path d="M82.4104 21.6416V23.0174C82.1652 23.0991 81.96 23.2694 81.8357 23.4942C81.7114 23.7191 81.6771 23.9821 81.7396 24.2309C82.0399 25.4289 81.1663 27.1216 80.1796 27.709C80.1796 27.709 80.2147 27.2105 79.7896 27.2762C79.3645 27.3419 79.1539 29.9351 79.8247 31.2606C79.8247 31.2606 78.7171 30.0008 78.3505 27.2105C78.0073 24.6289 78.1828 22.5343 78.8224 21.63L82.4104 21.6416Z" fill="#263238"/>
<path d="M77.7031 27.3535C77.9288 28.1031 78.4429 28.7347 79.1344 29.1119C80.0548 29.6027 80.7451 28.8375 80.6944 27.8598C80.6281 26.9902 80.0821 25.6569 79.0642 25.5796C78.0463 25.5023 77.4418 26.4298 77.7031 27.3535Z" fill="#B97964"/>
<path d="M82.4104 23.0174C82.4104 23.0174 83.3113 23.9062 84.1888 23.257C84.1888 23.257 85.1833 24.0763 85.9906 23.4927C86.1188 23.7029 86.2885 23.8851 86.4895 24.0286C86.6906 24.1721 86.9189 24.2737 87.1606 24.3275C87.2537 24.342 87.3489 24.3358 87.4393 24.3091C87.5296 24.2825 87.6128 24.2362 87.6827 24.1735C87.7526 24.1109 87.8076 24.0336 87.8434 23.9472C87.8793 23.8608 87.8952 23.7676 87.8899 23.6744C87.8899 23.6744 89.0404 24.3275 89.4499 24.0222C89.8594 23.7169 89.2159 22.4763 89.2159 22.4763C89.2159 22.4763 89.758 22.1865 89.4109 21.2049C89.0638 20.2232 87.4609 20.4513 87.4609 20.4513C87.4609 20.4513 87.5233 19.5353 86.404 18.5769C86.2865 18.4452 86.1381 18.344 85.9718 18.2824C85.8056 18.2207 85.6266 18.2005 85.4507 18.2234C85.2747 18.2462 85.1071 18.3116 84.9626 18.4137C84.818 18.5158 84.701 18.6514 84.6217 18.8088C84.6217 18.8088 83.5375 17.3557 82.192 17.5451C80.8465 17.7344 81.022 18.6542 81.022 18.6542C81.022 18.6542 79.462 17.6996 78.7834 18.6542C78.1048 19.6088 78.7795 20.0957 78.7795 20.0957C78.7795 20.0957 77.2195 20.6097 77.3131 21.6416C77.4067 22.6734 78.1828 22.5304 78.1828 22.5304C78.1828 22.5304 77.7382 23.029 78.7405 23.4463C79.7428 23.8637 80.6905 22.8357 80.6905 22.8357C80.6372 22.9204 80.6033 23.0158 80.5913 23.1149C80.5793 23.214 80.5895 23.3146 80.6212 23.4094C80.6528 23.5042 80.7051 23.5909 80.7744 23.6634C80.8437 23.7359 80.9282 23.7925 81.022 23.8289C81.7396 24.2309 82.4104 23.0174 82.4104 23.0174Z" fill="#263238"/>
<path d="M84.4892 37.8962C84.4892 37.8962 79.0292 34.2287 77.3093 34.0316C75.5894 33.8345 75.8858 35.9639 75.8858 35.9639C75.8858 35.9639 74.5481 35.9639 75.0629 37.5948C75.5777 39.2256 82.9721 40.1222 85.7021 39.3184C88.4321 38.5145 90.0584 36.9996 89.6021 35.562C89.1458 34.1243 87.8861 35.3571 87.8861 35.3571C87.8861 35.3571 87.1529 34.0045 86.096 34.3214C85.0391 34.6383 84.4892 37.8962 84.4892 37.8962Z" fill="#407BFF"/>
<path d="M83.6818 39.3145C85.2652 42.0198 82.8394 45.1115 84.0718 47.894" stroke="white" stroke-width="0.5" stroke-linecap="round" stroke-linejoin="round"/>
<path d="M86.1544 38.762C87.1677 39.7097 87.8782 40.9311 88.198 42.2749C88.8454 44.6749 87.8704 47.0941 87.8704 47.0941" stroke="white" stroke-width="0.5" stroke-linecap="round" stroke-linejoin="round"/>
<path d="M94.2175 35.3648L95.2755 35.1299C95.3421 35.1151 95.4119 35.1271 95.4696 35.1633C95.5272 35.1995 95.568 35.257 95.5829 35.323L95.8754 36.6165L94.3189 36.9621L94.0256 35.6648C94.0119 35.5999 94.0243 35.5322 94.0602 35.4762C94.096 35.4202 94.1524 35.3802 94.2175 35.3648Z" fill="#407BFF"/>
<path d="M97.1852 34.7032L98.2432 34.4682C98.3098 34.4534 98.3796 34.4655 98.4373 34.5017C98.4949 34.5379 98.5357 34.5953 98.5506 34.6614L98.8431 35.9549L97.3018 36.2971L97.0093 35.0036C96.9949 34.9408 97.0051 34.8749 97.0377 34.8191C97.0703 34.7634 97.123 34.722 97.1852 34.7032Z" fill="#407BFF"/>
<path d="M100.172 34.0412L101.23 33.8063C101.263 33.799 101.297 33.7981 101.33 33.8039C101.364 33.8096 101.396 33.8218 101.424 33.8398C101.453 33.8577 101.477 33.881 101.497 33.9084C101.516 33.9358 101.53 33.9667 101.538 33.9994L101.83 35.2929L100.274 35.6385L99.981 34.345C99.9662 34.2797 99.978 34.2112 100.014 34.1543C100.049 34.0975 100.106 34.0568 100.172 34.0412Z" fill="#407BFF"/>
<path d="M103.164 33.3781L104.222 33.1432C104.255 33.1359 104.289 33.1351 104.322 33.1408C104.355 33.1465 104.387 33.1587 104.416 33.1767C104.444 33.1946 104.469 33.2179 104.489 33.2453C104.508 33.2727 104.522 33.3036 104.529 33.3363L104.822 34.6298L103.265 34.9754L102.972 33.6782C102.958 33.6132 102.971 33.5456 103.006 33.4896C103.042 33.4336 103.099 33.3936 103.164 33.3781Z" fill="#407BFF"/>
<path d="M106.151 32.712L107.208 32.4771C107.275 32.4623 107.345 32.4743 107.403 32.5105C107.46 32.5467 107.501 32.6042 107.516 32.6702L107.808 33.9637L106.252 34.3093L105.959 33.0158C105.952 32.9831 105.951 32.9493 105.957 32.9163C105.963 32.8833 105.975 32.8518 105.993 32.8235C106.011 32.7952 106.035 32.7707 106.062 32.7514C106.09 32.7322 106.121 32.7185 106.154 32.7111L106.151 32.712Z" fill="#407BFF"/>
<path d="M109.137 32.0499L110.18 31.8183C110.247 31.8035 110.317 31.8156 110.374 31.8518C110.432 31.888 110.473 31.9454 110.488 32.0115L110.78 33.3049L109.235 33.648L108.942 32.3545C108.928 32.2885 108.94 32.2193 108.976 32.1622C109.013 32.1051 109.071 32.0647 109.137 32.0499Z" fill="#407BFF"/>
<path d="M115.069 53.3289L114.011 53.5638C113.945 53.5786 113.875 53.5666 113.817 53.5304C113.76 53.4941 113.719 53.4367 113.704 53.3707L113.411 52.0772L114.968 51.7316L115.26 53.0251C115.275 53.0911 115.263 53.1603 115.227 53.2174C115.19 53.2746 115.132 53.315 115.066 53.3298L115.069 53.3289Z" fill="#407BFF"/>
<path d="M112.078 53.9925L111.008 54.2299C110.942 54.2447 110.872 54.2327 110.814 54.1965C110.757 54.1602 110.716 54.1028 110.701 54.0368L110.408 52.7433L111.965 52.3977L112.257 53.6912C112.272 53.7546 112.261 53.8212 112.228 53.8772C112.194 53.9332 112.141 53.9744 112.078 53.9925Z" fill="#407BFF"/>
<path d="M109.091 54.6597L108.033 54.8946C107.966 54.9094 107.896 54.8974 107.838 54.8611C107.781 54.8249 107.74 54.7675 107.725 54.7015L107.433 53.408L108.989 53.0624L109.282 54.3559C109.297 54.4219 109.284 54.4911 109.248 54.5482C109.211 54.6053 109.153 54.6457 109.087 54.6605L109.091 54.6597Z" fill="#407BFF"/>
<path d="M106.103 55.3231L105.045 55.5581C104.978 55.5729 104.908 55.5608 104.85 55.5246C104.793 55.4884 104.752 55.4309 104.737 55.3649L104.445 54.0714L106.001 53.7258L106.294 55.0193C106.309 55.0853 106.296 55.1545 106.26 55.2117C106.223 55.2688 106.165 55.3092 106.099 55.324L106.103 55.3231Z" fill="#407BFF"/>
<path d="M103.118 55.9857L102.053 56.2223C101.986 56.2371 101.916 56.225 101.859 56.1888C101.801 56.1526 101.76 56.0951 101.745 56.0291L101.453 54.7356L103.009 54.39L103.303 55.6873C103.316 55.7509 103.305 55.8173 103.27 55.8727C103.236 55.9282 103.182 55.9686 103.118 55.9857Z" fill="#407BFF"/>
<path d="M100.127 56.6491L99.0694 56.884C99.0028 56.8988 98.933 56.8868 98.8753 56.8506C98.8177 56.8143 98.7769 56.7569 98.762 56.6909L98.4652 55.3786L100.022 55.0329L100.314 56.3264C100.324 56.3598 100.328 56.3949 100.324 56.4295C100.32 56.4641 100.309 56.4976 100.291 56.5279C100.274 56.5581 100.25 56.5845 100.222 56.6053C100.194 56.6262 100.162 56.6411 100.127 56.6491Z" fill="#407BFF"/>
<g opacity="0.4">
<path d="M94.2175 35.3654L95.2755 35.1305C95.3421 35.1157 95.4119 35.1277 95.4696 35.164C95.5272 35.2002 95.568 35.2576 95.5829 35.3236L95.8754 36.6171L94.3189 36.9627L94.0256 35.6655C94.0119 35.6005 94.0243 35.5329 94.0602 35.4769C94.096 35.4209 94.1524 35.3809 94.2175 35.3654Z" fill="black"/>
<path d="M97.1854 34.7034L98.2434 34.4685C98.31 34.4537 98.3798 34.4658 98.4374 34.502C98.4951 34.5382 98.5359 34.5956 98.5508 34.6616L98.8433 35.9551L97.302 36.2974L97.0095 35.0039C96.9951 34.941 97.0053 34.8751 97.0379 34.8194C97.0705 34.7637 97.1232 34.7222 97.1854 34.7034Z" fill="black"/>
<path d="M100.172 34.0415L101.23 33.8065C101.263 33.7992 101.297 33.7984 101.331 33.8042C101.364 33.8099 101.396 33.8221 101.424 33.84C101.453 33.8579 101.478 33.8813 101.497 33.9087C101.516 33.9361 101.53 33.967 101.538 33.9997L101.83 35.2932L100.274 35.6388L99.9811 34.3453C99.9664 34.2799 99.9781 34.2114 100.014 34.1546C100.05 34.0977 100.107 34.0571 100.172 34.0415Z" fill="black"/>
<path d="M103.164 33.3784L104.222 33.1434C104.255 33.1361 104.289 33.1353 104.322 33.1411C104.355 33.1468 104.387 33.159 104.416 33.1769C104.444 33.1948 104.469 33.2182 104.488 33.2456C104.508 33.273 104.522 33.3039 104.529 33.3366L104.822 34.6301L103.265 34.9757L102.972 33.6784C102.958 33.6135 102.971 33.5458 103.006 33.4898C103.042 33.4338 103.099 33.3938 103.164 33.3784Z" fill="black"/>
<path d="M106.15 32.7123L107.208 32.4773C107.275 32.4625 107.345 32.4746 107.402 32.5108C107.46 32.547 107.501 32.6045 107.516 32.6705L107.808 33.964L106.252 34.3096L105.959 33.0161C105.952 32.9834 105.951 32.9496 105.957 32.9166C105.963 32.8836 105.975 32.852 105.993 32.8237C106.011 32.7955 106.035 32.771 106.062 32.7517C106.09 32.7324 106.121 32.7187 106.154 32.7114L106.15 32.7123Z" fill="black"/>
<path d="M109.137 32.0501L110.18 31.8186C110.247 31.8038 110.316 31.8159 110.374 31.8521C110.432 31.8883 110.473 31.9457 110.487 32.0117L110.78 33.3052L109.235 33.6483L108.942 32.3548C108.927 32.2888 108.94 32.2196 108.976 32.1625C109.013 32.1053 109.071 32.0649 109.137 32.0501Z" fill="black"/>
<path d="M115.07 53.3292L114.012 53.5641C113.945 53.5789 113.875 53.5668 113.818 53.5306C113.76 53.4944 113.719 53.437 113.704 53.371L113.412 52.0775L114.968 51.7319L115.261 53.0254C115.276 53.0914 115.263 53.1605 115.227 53.2177C115.19 53.2748 115.132 53.3152 115.066 53.33L115.07 53.3292Z" fill="black"/>
<path d="M112.078 53.9928L111.008 54.2302C110.942 54.245 110.872 54.233 110.814 54.1967C110.757 54.1605 110.716 54.1031 110.701 54.0371L110.408 52.7436L111.965 52.398L112.257 53.6915C112.272 53.7549 112.261 53.8215 112.228 53.8775C112.195 53.9335 112.141 53.9747 112.078 53.9928Z" fill="black"/>
<path d="M109.091 54.66L108.033 54.8949C107.966 54.9097 107.896 54.8976 107.838 54.8614C107.781 54.8252 107.74 54.7678 107.725 54.7018L107.433 53.4083L108.989 53.0627L109.282 54.3562C109.297 54.4222 109.284 54.4913 109.248 54.5485C109.211 54.6056 109.153 54.646 109.087 54.6608L109.091 54.66Z" fill="black"/>
<path d="M106.103 55.3234L105.045 55.5583C104.978 55.5731 104.908 55.5611 104.85 55.5249C104.793 55.4887 104.752 55.4312 104.737 55.3652L104.445 54.0717L106.001 53.7261L106.294 55.0196C106.309 55.0856 106.296 55.1548 106.26 55.2119C106.223 55.2691 106.165 55.3095 106.099 55.3243L106.103 55.3234Z" fill="black"/>
<path d="M103.118 55.9859L102.053 56.2225C101.986 56.2373 101.916 56.2253 101.859 56.1891C101.801 56.1529 101.76 56.0954 101.745 56.0294L101.453 54.7359L103.009 54.3903L103.303 55.6876C103.316 55.7512 103.305 55.8175 103.27 55.873C103.236 55.9285 103.182 55.9688 103.118 55.9859Z" fill="black"/>
<path d="M100.127 56.6494L99.0694 56.8843C99.0028 56.8991 98.933 56.887 98.8753 56.8508C98.8177 56.8146 98.7769 56.7572 98.762 56.6912L98.4652 55.3788L100.022 55.0332L100.314 56.3267C100.324 56.36 100.328 56.3951 100.324 56.4298C100.32 56.4644 100.309 56.4979 100.291 56.5281C100.274 56.5584 100.25 56.5847 100.222 56.6056C100.194 56.6264 100.162 56.6413 100.127 56.6494Z" fill="black"/>
</g>
<path d="M112.706 32.3281L93.0347 36.696C92.2864 36.8622 91.8158 37.5979 91.9834 38.3394L95.7842 55.1472C95.9518 55.8887 96.6943 56.3551 97.4425 56.1889L117.114 51.821C117.862 51.6549 118.333 50.9191 118.165 50.1777L114.364 33.3698C114.197 32.6284 113.454 32.162 112.706 32.3281Z" fill="#263238"/>
<path opacity="0.4" d="M99.3481 55.7587L97.4449 56.1799C97.2672 56.2198 97.0832 56.2246 96.9036 56.1939C96.724 56.1633 96.5523 56.0977 96.3983 56.0012C96.2443 55.9046 96.1111 55.7788 96.0063 55.6311C95.9014 55.4834 95.8271 55.3166 95.7874 55.1403L91.9849 38.333C91.9452 38.1567 91.9409 37.9743 91.9724 37.7963C92.0038 37.6183 92.0703 37.4482 92.1681 37.2957C92.2659 37.1431 92.393 37.0112 92.5423 36.9074C92.6915 36.8036 92.8599 36.7299 93.0379 36.6906L94.9411 36.2655C94.7631 36.3048 94.5947 36.3784 94.4455 36.4823C94.2962 36.5861 94.1691 36.718 94.0713 36.8706C93.9735 37.0231 93.907 37.1932 93.8756 37.3712C93.8441 37.5492 93.8484 37.7316 93.8881 37.9079L97.6906 54.7191C97.7303 54.8953 97.8046 55.0621 97.9095 55.2098C98.0143 55.3576 98.1475 55.4833 98.3015 55.5799C98.4555 55.6765 98.6272 55.742 98.8068 55.7727C98.9864 55.8034 99.1704 55.7986 99.3481 55.7587Z" fill="black"/>
<path d="M105.227 40.6633L105.648 48.122L104.178 48.4505L101.347 41.5251L102.466 41.2739L104.576 46.7617L104.127 40.9261L105.227 40.6633Z" fill="white"/>
<path d="M107.498 47.3175L107.951 47.0686L108 47.5985L107.275 48L107.231 47.5102L107.446 46.0128C107.514 45.6662 107.538 45.2773 107.515 44.8968C107.49 44.6358 107.428 44.5194 107.339 44.5676C107.249 44.6157 107.215 44.7884 107.238 45.0493L107.259 45.2661L107.039 45.3865L107.022 45.2099C107.004 45.0894 106.997 44.9606 107.001 44.8324C107.005 44.7043 107.021 44.5799 107.047 44.4681C107.072 44.3564 107.108 44.2599 107.15 44.1855C107.193 44.1111 107.242 44.0607 107.293 44.0377C107.342 44.001 107.393 43.9909 107.443 44.0082C107.494 44.0256 107.542 44.0698 107.584 44.1379C107.627 44.206 107.663 44.2963 107.69 44.4024C107.717 44.5085 107.735 44.6279 107.741 44.7522C107.774 45.2432 107.746 45.7472 107.66 46.1975L107.498 47.3175Z" fill="white"/>
<path d="M108.302 46.8274L108.848 46.7076L108.969 47.2447L108.423 47.3645L108.302 46.8274Z" fill="white"/>
<path d="M109.207 46.4224L109.01 44.8696C108.986 44.6847 109.006 44.491 109.063 44.3311C109.12 44.1712 109.21 44.0583 109.314 44.0171C109.418 43.9759 109.527 44.0099 109.617 44.1115C109.707 44.2131 109.77 44.3741 109.793 44.559L109.99 46.1304C110.014 46.3153 109.994 46.509 109.937 46.6689C109.88 46.8288 109.79 46.9417 109.686 46.9829C109.582 47.0241 109.473 46.9901 109.383 46.8885C109.293 46.7869 109.23 46.6259 109.207 46.441V46.4224ZM109.746 46.2081L109.549 44.6398C109.546 44.6024 109.539 44.5665 109.528 44.5343C109.517 44.502 109.503 44.4742 109.485 44.4526C109.468 44.431 109.448 44.4161 109.428 44.4088C109.407 44.4015 109.386 44.402 109.365 44.4102C109.344 44.4185 109.325 44.4343 109.308 44.4567C109.291 44.4791 109.277 44.5076 109.266 44.5403C109.256 44.573 109.249 44.6093 109.247 44.6467C109.245 44.6842 109.247 44.722 109.254 44.7578L109.451 46.3106C109.454 46.3479 109.461 46.3838 109.472 46.4161C109.483 46.4483 109.497 46.4761 109.515 46.4977C109.532 46.5193 109.552 46.5342 109.572 46.5415C109.593 46.5488 109.614 46.5484 109.635 46.5401C109.656 46.5318 109.675 46.516 109.692 46.4936C109.709 46.4712 109.723 46.4427 109.734 46.41C109.744 46.3773 109.751 46.341 109.753 46.3036C109.755 46.2661 109.753 46.2283 109.746 46.1925V46.2081Z" fill="white"/>
<path d="M95.0026 54.8182L94.7655 53.7698C94.7506 53.7038 94.7627 53.6346 94.7993 53.5775C94.8358 53.5203 94.8938 53.4799 94.9604 53.4651L96.2657 53.1753L96.6145 54.7177L95.3092 55.0075C95.2432 55.0222 95.1741 55.0105 95.1167 54.9751C95.0593 54.9397 95.0183 54.8833 95.0026 54.8182Z" fill="#407BFF"/>
<path d="M94.3316 51.8562L94.0945 50.8078C94.0796 50.7418 94.0917 50.6726 94.1283 50.6155C94.1648 50.5584 94.2228 50.518 94.2894 50.5032L95.5947 50.2133L95.9444 51.7595L94.6428 52.0485C94.6097 52.0564 94.5752 52.0577 94.5415 52.0522C94.5078 52.0468 94.4756 52.0348 94.4466 52.0169C94.4176 51.999 94.3925 51.9756 94.3728 51.948C94.3531 51.9204 94.339 51.8892 94.3316 51.8562Z" fill="#407BFF"/>
<path d="M93.6613 48.8933L93.4242 47.8449C93.4093 47.7789 93.4215 47.7097 93.458 47.6526C93.4946 47.5955 93.5525 47.5551 93.6191 47.5403L94.9245 47.2504L95.2732 48.7928L93.9679 49.0827C93.9019 49.0973 93.8328 49.0857 93.7755 49.0502C93.7181 49.0148 93.6771 48.9584 93.6613 48.8933Z" fill="#407BFF"/>
<path d="M92.9873 45.9351L92.7502 44.8867C92.7353 44.8207 92.7475 44.7515 92.784 44.6944C92.8205 44.6373 92.8785 44.5969 92.9451 44.5821L94.2505 44.2922L94.5992 45.8346L93.2939 46.1245C93.2279 46.1391 93.1588 46.1275 93.1014 46.092C93.0441 46.0566 93.0031 46.0002 92.9873 45.9351Z" fill="#407BFF"/>
<path d="M92.321 42.9759L92.084 41.9275C92.069 41.8615 92.0812 41.7923 92.1177 41.7352C92.1543 41.6781 92.2122 41.6377 92.2789 41.6229L93.5842 41.333L93.933 42.8754L92.6276 43.1653C92.5617 43.1799 92.4926 43.1683 92.4352 43.1328C92.3778 43.0974 92.3368 43.041 92.321 42.9759Z" fill="#407BFF"/>
<path d="M91.6498 40.0095L91.4127 38.9611C91.3978 38.8951 91.4099 38.8259 91.4465 38.7688C91.483 38.7117 91.541 38.6713 91.6076 38.6565L92.9129 38.3666L93.2617 39.909L91.9564 40.1989C91.8904 40.2135 91.8213 40.2019 91.7639 40.1664C91.7065 40.131 91.6655 40.0746 91.6498 40.0095Z" fill="#407BFF"/>
<g opacity="0.4">
<path d="M95.0026 54.8179L94.7655 53.7695C94.7506 53.7035 94.7627 53.6343 94.7993 53.5772C94.8358 53.52 94.8938 53.4796 94.9604 53.4648L96.2657 53.175L96.6145 54.7174L95.3092 55.0072C95.2432 55.0219 95.1741 55.0102 95.1167 54.9748C95.0593 54.9394 95.0183 54.883 95.0026 54.8179Z" fill="black"/>
<path d="M94.3315 51.856L94.0944 50.8076C94.0795 50.7416 94.0916 50.6724 94.1282 50.6153C94.1647 50.5581 94.2227 50.5177 94.2893 50.5029L95.5946 50.2131L95.9443 51.7592L94.6427 52.0482C94.6095 52.0561 94.5751 52.0574 94.5414 52.052C94.5077 52.0466 94.4754 52.0346 94.4465 52.0167C94.4175 51.9988 94.3924 51.9753 94.3727 51.9478C94.3529 51.9202 94.3389 51.889 94.3315 51.856Z" fill="black"/>
<path d="M93.6612 48.893L93.4241 47.8447C93.4092 47.7787 93.4213 47.7095 93.4579 47.6523C93.4944 47.5952 93.5524 47.5548 93.619 47.54L94.9243 47.2502L95.2731 48.7926L93.9678 49.0824C93.9018 49.0971 93.8327 49.0854 93.7753 49.05C93.718 49.0145 93.677 48.9582 93.6612 48.893Z" fill="black"/>
<path d="M92.9872 45.9349L92.7501 44.8865C92.7352 44.8205 92.7473 44.7513 92.7839 44.6942C92.8204 44.637 92.8784 44.5966 92.945 44.5818L94.2503 44.292L94.5991 45.8344L93.2938 46.1242C93.2278 46.1389 93.1587 46.1272 93.1013 46.0918C93.044 46.0564 93.003 46 92.9872 45.9349Z" fill="black"/>
<path d="M92.3209 42.9757L92.0838 41.9273C92.0689 41.8613 92.0811 41.7921 92.1176 41.735C92.1542 41.6778 92.2121 41.6374 92.2787 41.6226L93.5841 41.3328L93.9328 42.8752L92.6275 43.165C92.5616 43.1797 92.4924 43.168 92.4351 43.1326C92.3777 43.0972 92.3367 43.0408 92.3209 42.9757Z" fill="black"/>
<path d="M91.6498 40.0093L91.4128 38.9609C91.3978 38.8949 91.41 38.8257 91.4465 38.7686C91.4831 38.7114 91.541 38.671 91.6077 38.6562L92.913 38.3664L93.2618 39.9088L91.9564 40.1986C91.8905 40.2133 91.8213 40.2016 91.764 40.1662C91.7066 40.1308 91.6656 40.0744 91.6498 40.0093Z" fill="black"/>
</g>
<path d="M82.4104 60.7941L83.1904 61.2115C83.1904 61.2115 82.352 67.1746 80.3903 68.4731L79.5869 67.5572C79.5869 67.5572 82.3714 63.9747 82.4104 60.7941Z" fill="#407BFF"/>
<path d="M92.3009 60.2881L91.3181 60.7905C91.3181 60.7905 93.1394 66.5565 94.3133 67.8589L94.9802 66.9391C94.9802 66.9391 92.7455 63.2754 92.3009 60.2881Z" fill="#407BFF"/>
<path opacity="0.2" d="M82.3129 57.262C82.3129 57.262 79.7974 62.3169 75.4021 63.7468C75.3202 62.456 75.2305 61.1227 75.1291 59.7701C75.016 58.1856 74.8873 56.5779 74.7391 54.9934L82.3129 57.262Z" fill="black"/>
<path d="M85.702 53.3315L90.772 51.6388C90.772 51.6388 95.3233 47.6196 96.3256 47.6428C97.3279 47.666 98.1781 50.1857 98.6383 51.1403C99.0985 52.0949 94.3483 54.0388 93.6385 54.4446C92.9287 54.8503 91.9498 54.4446 91.9498 54.4446L86.7706 56.686L85.702 53.3315Z" fill="#B97964"/>
<path d="M73.1011 38.0894C68.3782 38.7116 70.8235 56.3421 73.8811 59.8087C76.4239 62.7033 85.702 58.4522 88.7011 56.972C88.9612 56.8421 89.1653 56.6237 89.2763 56.357C89.3873 56.0902 89.3977 55.7927 89.3056 55.5189L88.4086 52.9451C88.3094 52.6598 88.1055 52.4219 87.8375 52.2787C87.5694 52.1355 87.2568 52.0975 86.9617 52.1721C84.4462 52.8098 78.3817 54.232 77.6407 53.3779C76.7086 52.2997 75.4762 47.0013 75.6907 43.6352C75.9052 40.2691 73.1011 38.0894 73.1011 38.0894Z" fill="#407BFF"/>
<path d="M87.6715 52.1801L89.2978 56.2147L90.7525 55.3375L89.3446 51.7859L87.6715 52.1801Z" fill="#407BFF"/>
<path opacity="0.3" d="M87.6715 52.1801L89.2978 56.2147L90.7525 55.3375L89.3446 51.7859L87.6715 52.1801Z" fill="black"/>
<path d="M166.304 5.41068V116.712C166.303 116.927 166.26 117.14 166.176 117.339C166.091 117.537 165.968 117.717 165.813 117.868C165.658 118.019 165.475 118.138 165.273 118.218C165.071 118.299 164.856 118.338 164.639 118.335H112.379C112.185 118.338 111.993 118.303 111.814 118.232C111.635 118.161 111.471 118.056 111.333 117.922C111.19 117.781 111.077 117.613 111 117.427C110.924 117.242 110.886 117.044 110.889 116.843V5.28315C110.881 5.11025 110.909 4.93762 110.969 4.77517C111.029 4.61273 111.121 4.46366 111.24 4.33654C111.358 4.20943 111.501 4.10675 111.659 4.03442C111.818 3.9621 111.99 3.92153 112.164 3.91507H127.007C127.215 3.9191 127.417 3.9845 127.588 4.10291C127.758 4.22132 127.888 4.38736 127.963 4.57979L128.575 6.07926C128.652 6.26952 128.783 6.4331 128.953 6.54935C129.123 6.66559 129.324 6.72929 129.531 6.73239H147.693C147.899 6.73145 148.1 6.6695 148.27 6.5545C148.441 6.4395 148.572 6.2767 148.649 6.08699L149.261 4.57979C149.336 4.38766 149.467 4.2219 149.637 4.10356C149.807 3.98521 150.009 3.91961 150.216 3.91507H164.845C165.237 3.92617 165.609 4.08887 165.882 4.36838C166.155 4.64788 166.306 5.02199 166.304 5.41068Z" fill="#407BFF"/>
<path d="M168.644 5.41068V116.712C168.643 116.927 168.6 117.14 168.516 117.339C168.431 117.537 168.308 117.717 168.153 117.868C167.998 118.019 167.815 118.138 167.613 118.218C167.412 118.299 167.196 118.338 166.979 118.335H114.719C114.525 118.338 114.334 118.303 114.154 118.232C113.975 118.161 113.811 118.056 113.673 117.922C113.53 117.781 113.417 117.613 113.34 117.427C113.264 117.242 113.226 117.044 113.229 116.843V5.28315C113.221 5.11025 113.249 4.93762 113.309 4.77517C113.369 4.61273 113.461 4.46366 113.58 4.33654C113.698 4.20943 113.841 4.10675 113.999 4.03442C114.158 3.9621 114.33 3.92153 114.504 3.91507H129.347C129.555 3.9191 129.757 3.9845 129.928 4.10291C130.098 4.22132 130.229 4.38736 130.303 4.57979L130.915 6.07926C130.992 6.26952 131.123 6.4331 131.293 6.54935C131.463 6.66559 131.664 6.72929 131.871 6.73239H150.033C150.239 6.73145 150.44 6.6695 150.61 6.5545C150.781 6.4395 150.912 6.2767 150.989 6.08699L151.601 4.57979C151.676 4.38766 151.807 4.2219 151.977 4.10356C152.147 3.98521 152.349 3.91961 152.556 3.91507H167.185C167.577 3.92617 167.95 4.08887 168.222 4.36838C168.495 4.64788 168.646 5.02199 168.644 5.41068Z" fill="#407BFF"/>
<path opacity="0.4" d="M168.644 5.41068V116.712C168.643 116.927 168.6 117.14 168.516 117.339C168.431 117.537 168.308 117.717 168.153 117.868C167.998 118.019 167.815 118.138 167.613 118.218C167.412 118.299 167.196 118.338 166.979 118.335H114.719C114.525 118.338 114.334 118.303 114.154 118.232C113.975 118.161 113.811 118.056 113.673 117.922C113.53 117.781 113.417 117.613 113.34 117.427C113.264 117.242 113.226 117.044 113.229 116.843V5.28315C113.221 5.11025 113.249 4.93762 113.309 4.77517C113.369 4.61273 113.461 4.46366 113.58 4.33654C113.698 4.20943 113.841 4.10675 113.999 4.03442C114.158 3.9621 114.33 3.92153 114.504 3.91507H129.347C129.555 3.9191 129.757 3.9845 129.928 4.10291C130.098 4.22132 130.229 4.38736 130.303 4.57979L130.915 6.07926C130.992 6.26952 131.123 6.4331 131.293 6.54935C131.463 6.66559 131.664 6.72929 131.871 6.73239H150.033C150.239 6.73145 150.44 6.6695 150.61 6.5545C150.781 6.4395 150.912 6.2767 150.989 6.08699L151.601 4.57979C151.676 4.38766 151.807 4.2219 151.977 4.10356C152.147 3.98521 152.349 3.91961 152.556 3.91507H167.185C167.577 3.92617 167.95 4.08887 168.222 4.36838C168.495 4.64788 168.646 5.02199 168.644 5.41068Z" fill="white"/>
<path opacity="0.6" d="M120.112 8.40204H120.884V7.38178H120.112V8.40204Z" fill="white"/>
<path opacity="0.6" d="M118.856 8.40204H119.629V7.04169H118.856V8.40204Z" fill="white"/>
<path opacity="0.6" d="M117.597 8.40204H118.369V6.7016H117.597V8.40204Z" fill="white"/>
<path opacity="0.6" d="M116.341 8.39789H117.113V6.35736H116.341V8.39789Z" fill="white"/>
<path opacity="0.6" d="M161.565 7.00677H161.109V8.02704H161.565V7.00677Z" fill="white"/>
<path opacity="0.6" d="M161.881 8.39789H165.528V6.63175H161.881V8.39789Z" fill="white"/>
<path d="M123.361 88.7667H158.508C159.034 88.7667 159.539 88.974 159.911 89.3429C160.284 89.7118 160.493 90.2121 160.493 90.7338C160.493 90.992 160.441 91.2476 160.342 91.486C160.242 91.7245 160.096 91.941 159.911 92.1234C159.727 92.3058 159.508 92.4503 159.267 92.5487C159.026 92.6472 158.768 92.6976 158.508 92.6971H123.361C123.1 92.6976 122.842 92.6472 122.602 92.5487C122.361 92.4503 122.142 92.3058 121.958 92.1234C121.773 91.941 121.627 91.7245 121.527 91.486C121.427 91.2476 121.376 90.992 121.376 90.7338C121.376 90.2121 121.585 89.7118 121.957 89.3429C122.33 88.974 122.834 88.7667 123.361 88.7667Z" fill="#407BFF"/>
<path opacity="0.3" d="M123.361 88.7667H158.508C159.034 88.7667 159.539 88.974 159.911 89.3429C160.284 89.7118 160.493 90.2121 160.493 90.7338C160.493 90.992 160.441 91.2476 160.342 91.486C160.242 91.7245 160.096 91.941 159.911 92.1234C159.727 92.3058 159.508 92.4503 159.267 92.5487C159.026 92.6472 158.768 92.6976 158.508 92.6971H123.361C123.1 92.6976 122.842 92.6472 122.602 92.5487C122.361 92.4503 122.142 92.3058 121.958 92.1234C121.773 91.941 121.627 91.7245 121.527 91.486C121.427 91.2476 121.376 90.992 121.376 90.7338C121.376 90.2121 121.585 89.7118 121.957 89.3429C122.33 88.974 122.834 88.7667 123.361 88.7667Z" fill="black"/>
<path d="M134.722 89.1186C134.942 89.1079 135.163 89.1417 135.37 89.2179C135.577 89.2942 135.766 89.4113 135.926 89.5622C136.085 89.7131 136.213 89.8946 136.3 90.0957C136.387 90.2968 136.432 90.5133 136.432 90.7321C136.432 90.9509 136.387 91.1674 136.3 91.3685C136.213 91.5696 136.085 91.7511 135.926 91.9019C135.766 92.0528 135.577 92.1699 135.37 92.2462C135.163 92.3224 134.942 92.3562 134.722 92.3455H123.361C123.14 92.3562 122.92 92.3224 122.713 92.2462C122.506 92.1699 122.317 92.0528 122.157 91.9019C121.997 91.7511 121.87 91.5696 121.783 91.3685C121.696 91.1674 121.651 90.9509 121.651 90.7321C121.651 90.5133 121.696 90.2968 121.783 90.0957C121.87 89.8946 121.997 89.7131 122.157 89.5622C122.317 89.4113 122.506 89.2942 122.713 89.2179C122.92 89.1417 123.14 89.1079 123.361 89.1186H134.722Z" fill="#407BFF"/>
<path d="M131.563 30.2487C131.401 30.2517 131.241 30.2217 131.092 30.1605C130.943 30.0994 130.809 30.0083 130.697 29.8931C130.582 29.7825 130.491 29.6495 130.43 29.5026C130.369 29.3557 130.339 29.1979 130.342 29.039V25.1203H131.099V29.0313C131.098 29.0888 131.108 29.1459 131.131 29.1991C131.153 29.2523 131.186 29.3004 131.227 29.3405C131.269 29.3815 131.318 29.4139 131.372 29.4358C131.426 29.4577 131.485 29.4686 131.543 29.468C131.66 29.468 131.772 29.422 131.855 29.3401C131.937 29.2582 131.984 29.1471 131.984 29.0313V25.1203H132.791V29.039C132.794 29.1988 132.764 29.3575 132.702 29.5052C132.64 29.6528 132.549 29.7862 132.432 29.897C132.318 30.0101 132.183 30.0995 132.033 30.1599C131.884 30.2203 131.724 30.2505 131.563 30.2487Z" fill="#407BFF"/>
<path d="M134.698 25.1202C134.864 25.1122 135.03 25.1395 135.185 25.2001C135.34 25.2608 135.479 25.3534 135.595 25.4719C135.807 25.7074 135.918 26.0147 135.907 26.3298V27.0525C135.91 27.2125 135.88 27.3713 135.819 27.5195C135.758 27.6676 135.667 27.8019 135.552 27.9143C135.442 28.0281 135.309 28.1183 135.162 28.1794C135.015 28.2406 134.857 28.2713 134.698 28.2699H134.25V30.2022H133.47V25.1202H134.698ZM135.158 26.3453C135.163 26.2859 135.156 26.2262 135.136 26.1701C135.115 26.114 135.083 26.0628 135.042 26.02C135 25.9772 134.949 25.9437 134.894 25.9218C134.838 25.8999 134.778 25.8901 134.718 25.8931H134.25V27.5201H134.718C134.776 27.5211 134.834 27.5099 134.888 27.4872C134.941 27.4646 134.99 27.431 135.03 27.3887C135.072 27.348 135.105 27.2993 135.127 27.2454C135.149 27.1916 135.16 27.1338 135.158 27.0757V26.3453Z" fill="#407BFF"/>
<path d="M137.67 30.2564C137.345 30.2554 137.034 30.1273 136.804 29.9001C136.574 29.6728 136.444 29.3648 136.442 29.0429V26.2797C136.442 26.0394 136.514 25.8046 136.649 25.6049C136.784 25.4051 136.975 25.2494 137.199 25.1572C137.423 25.0651 137.669 25.0407 137.907 25.0871C138.145 25.1334 138.364 25.2485 138.536 25.4179C138.651 25.5303 138.741 25.6646 138.802 25.8127C138.863 25.9609 138.893 26.1197 138.891 26.2797V26.8594H138.091V26.2565C138.092 26.1689 138.066 26.0832 138.017 26.0101C137.968 25.9371 137.899 25.8802 137.817 25.8466C137.736 25.813 137.646 25.8043 137.559 25.8215C137.472 25.8388 137.393 25.8812 137.331 25.9435C137.289 25.9841 137.256 26.0329 137.234 26.0868C137.211 26.1406 137.201 26.1984 137.202 26.2565V29.0352C137.203 29.1216 137.23 29.2059 137.278 29.2775C137.327 29.3491 137.396 29.4048 137.477 29.4378C137.558 29.4708 137.646 29.4795 137.732 29.4628C137.818 29.4462 137.896 29.405 137.959 29.3443C138.002 29.3052 138.036 29.2573 138.059 29.204C138.082 29.1507 138.093 29.0931 138.091 29.0352V28.0381H137.67V27.2652H138.899V29.039C138.902 29.1988 138.871 29.3575 138.81 29.5052C138.748 29.6528 138.656 29.7862 138.54 29.897C138.428 30.0134 138.293 30.1054 138.143 30.1673C137.993 30.2292 137.832 30.2595 137.67 30.2564Z" fill="#407BFF"/>
<path d="M140.79 25.1204C140.964 25.105 141.14 25.1286 141.304 25.1894C141.468 25.2503 141.616 25.3469 141.738 25.4721C141.929 25.7165 142.023 26.0216 142.003 26.33V27.0527C142.004 27.2283 141.966 27.402 141.891 27.5611C141.817 27.7203 141.707 27.8608 141.57 27.9725L142.143 30.1908H141.309L140.841 28.2585H140.326V30.1908H139.546V25.1204H140.79ZM141.25 26.3455C141.262 26.2832 141.259 26.2188 141.24 26.1582C141.221 26.0975 141.187 26.0424 141.142 25.9977C141.096 25.953 141.04 25.9201 140.979 25.9019C140.918 25.8837 140.853 25.8807 140.79 25.8933H140.326V27.5203H140.79C140.848 27.5218 140.907 27.5108 140.96 27.4881C141.014 27.4655 141.062 27.4316 141.102 27.3889C141.144 27.3482 141.177 27.2995 141.199 27.2456C141.221 27.1918 141.232 27.134 141.231 27.0759L141.25 26.3455Z" fill="#407BFF"/>
<path d="M143.766 29.0236L143.579 30.183H142.775L143.645 25.1203H144.71L145.568 30.1984H144.756L144.573 29.039L143.766 29.0236ZM144.156 26.2758L143.871 28.2777H144.444L144.156 26.2758Z" fill="#407BFF"/>
<path d="M148.648 28.9847C148.65 29.145 148.62 29.3039 148.558 29.452C148.496 29.6002 148.405 29.7344 148.29 29.8466C148.179 29.9608 148.045 30.0513 147.898 30.1124C147.75 30.1736 147.592 30.2041 147.432 30.2021H146.219V25.1201H147.42C147.581 25.1176 147.74 25.1478 147.888 25.209C148.037 25.2702 148.17 25.3609 148.282 25.4757C148.396 25.5873 148.486 25.7204 148.547 25.8671C148.608 26.0138 148.638 26.1711 148.637 26.3297L148.648 28.9847ZM146.991 29.4446H147.455C147.513 29.4451 147.571 29.4337 147.625 29.4111C147.679 29.3885 147.727 29.3552 147.767 29.3132C147.808 29.2722 147.841 29.2233 147.863 29.1696C147.885 29.1158 147.896 29.0582 147.896 29.0002V26.3297C147.897 26.2722 147.886 26.2151 147.864 26.162C147.842 26.1088 147.809 26.0607 147.767 26.0206C147.727 25.9783 147.679 25.9447 147.625 25.9221C147.571 25.8994 147.513 25.8882 147.455 25.8892H146.991V29.4446Z" fill="#407BFF"/>
<path d="M149.327 30.1907V25.1203H151.527V25.8932H150.099V27.2806H151.141V28.0536H150.099V29.441H151.527V30.2139L149.327 30.1907Z" fill="#407BFF"/>
<g opacity="0.1">
<path d="M138.154 6.73269L122.203 65.9504L122.023 66.6151L121.735 67.6818L121.555 68.3465L113.225 99.2635V61.8578L128.825 3.91537H129.336C129.544 3.9194 129.746 3.9848 129.916 4.10322C130.086 4.22163 130.217 4.38767 130.291 4.58009L130.904 6.07957C130.98 6.26982 131.111 6.43341 131.281 6.54965C131.451 6.6659 131.652 6.72959 131.859 6.73269H138.154Z" fill="white"/>
<path d="M168.644 36.9734V74.3985L158.691 111.333L158.449 112.233L156.811 118.324H146.73L148.368 112.237L148.633 111.255L149.951 106.363L150.212 105.385L150.743 103.43L151.004 102.448L151.531 100.492L151.792 99.5147L160.087 68.7291V68.7252L160.473 67.303V67.2992L168.644 36.9734Z" fill="white"/>
<path d="M143.617 6.7327L127.764 65.5794L127.67 65.935L126.801 69.1774L126.707 69.5291L113.669 117.91C113.526 117.769 113.413 117.601 113.336 117.416C113.26 117.231 113.222 117.032 113.225 116.832V111.14L124.441 69.5098L124.535 69.1581L125.4 65.935L125.498 65.5794L141.351 6.7327H143.617Z" fill="white"/>
</g>
<path d="M158.048 58.4954C158.051 62.3927 156.7 66.1721 154.222 69.1985C151.744 72.2248 148.29 74.3135 144.44 75.1133C142.125 75.5885 139.736 75.5885 137.42 75.1133C134.254 74.4575 131.34 72.926 129.016 70.6964C126.692 68.4667 125.053 65.6302 124.29 62.5154C123.526 59.4006 123.668 56.1351 124.701 53.0973C125.733 50.0595 127.613 47.3737 130.122 45.3512C132.632 43.3287 135.668 42.0522 138.88 41.6696C142.091 41.2871 145.347 41.8142 148.269 43.1898C151.19 44.5654 153.659 46.7333 155.388 49.4421C157.118 52.151 158.037 55.29 158.04 58.4954H158.048Z" fill="#407BFF"/>
<path opacity="0.6" d="M149.721 57.0847H145.08C144.909 57.0847 144.746 57.1518 144.625 57.2714C144.504 57.391 144.437 57.5532 144.437 57.7223V75.1132C142.121 75.5883 139.732 75.5883 137.417 75.1132V57.7223C137.417 57.6383 137.4 57.555 137.367 57.4774C137.335 57.3998 137.287 57.3293 137.227 57.2701C137.166 57.2108 137.095 57.1639 137.017 57.1321C136.938 57.1003 136.854 57.0841 136.769 57.0847H132.144C132.016 57.0841 131.892 57.0461 131.786 56.9756C131.68 56.9051 131.597 56.8051 131.548 56.6882C131.5 56.5714 131.487 56.4428 131.512 56.3188C131.536 56.1947 131.597 56.0807 131.687 55.991L140.478 47.284C140.538 47.2244 140.609 47.1771 140.687 47.1448C140.766 47.1125 140.85 47.0959 140.934 47.0959C141.019 47.0959 141.103 47.1125 141.181 47.1448C141.26 47.1771 141.331 47.2244 141.391 47.284L150.177 55.991C150.267 56.0807 150.328 56.1947 150.353 56.3188C150.378 56.4428 150.365 56.5714 150.316 56.6882C150.268 56.8051 150.185 56.9051 150.079 56.9756C149.973 57.0461 149.849 57.0841 149.721 57.0847Z" fill="white"/>
</g>
<defs>
<clipPath id="clip0_7681_1307">
<rect width="195" height="144" fill="white"/>
</clipPath>
</defs>
</svg>
