<svg width="95" height="95" viewBox="0 0 95 95" fill="none" xmlns="http://www.w3.org/2000/svg">
<path opacity="0.4" d="M87.0837 30.7559V35.6247H7.91699V29.8455C7.91699 20.7809 15.2795 13.458 24.3441 13.458H63.3337V23.6309C63.3337 28.658 66.342 31.6663 71.3691 31.6663H83.0066C84.5899 31.6663 85.9357 31.3893 87.0837 30.7559Z" fill="#BA1A1A"/>
<path d="M7.91699 35.625V65.1542C7.91699 74.2188 15.2795 81.5417 24.3441 81.5417H70.6566C79.7212 81.5417 87.0837 74.2188 87.0837 65.1542V35.625H7.91699ZM31.667 68.2813H23.7503C22.1274 68.2813 20.7816 66.9354 20.7816 65.3125C20.7816 63.6896 22.1274 62.3438 23.7503 62.3438H31.667C33.2899 62.3438 34.6357 63.6896 34.6357 65.3125C34.6357 66.9354 33.2899 68.2813 31.667 68.2813ZM57.3962 68.2813H41.5628C39.9399 68.2813 38.5941 66.9354 38.5941 65.3125C38.5941 63.6896 39.9399 62.3438 41.5628 62.3438H57.3962C59.0191 62.3438 60.3649 63.6896 60.3649 65.3125C60.3649 66.9354 59.0191 68.2813 57.3962 68.2813Z" fill="#BA1A1A"/>
<path d="M83.0059 3.95801H71.3684C66.3413 3.95801 63.333 6.96634 63.333 11.9934V23.6309C63.333 28.658 66.3413 31.6663 71.3684 31.6663H83.0059C88.033 31.6663 91.0413 28.658 91.0413 23.6309V11.9934C91.0413 6.96634 88.033 3.95801 83.0059 3.95801ZM84.4705 21.7309C84.9059 22.2455 85.1434 22.7997 85.1434 23.4726C85.1434 24.0268 84.9059 24.6601 84.4705 25.0955C83.5601 26.0059 82.0163 26.0059 81.1059 25.0955L77.1872 21.1768L73.308 25.1351C72.3976 26.0455 70.8538 26.0455 69.9038 25.0955C68.9934 24.1851 68.9934 22.6413 69.9038 21.7309L73.8622 17.8518L69.9434 13.933C69.033 13.0226 68.9934 11.4788 69.9038 10.5288C70.8143 9.57884 72.358 9.61842 73.308 10.5684L77.1872 14.4872L81.1455 10.5288C82.0559 9.61842 83.5997 9.61842 84.5101 10.5288C84.9455 11.0434 85.1434 11.6372 85.183 12.2705C85.183 12.8247 84.9455 13.458 84.5497 13.933L80.5913 17.8913L84.4705 21.7309Z" fill="#BA1A1A"/>
</svg>
