<svg width="332" height="198" viewBox="0 0 332 198" fill="none" xmlns="http://www.w3.org/2000/svg">
<g clip-path="url(#clip0_1_41959)">
<path d="M254.187 195.761C249.937 192.178 247.355 186.519 248.032 181.009C248.709 175.499 252.902 170.434 258.342 169.264C263.782 168.094 269.983 171.333 271.635 176.633C272.544 166.414 273.592 155.766 279.039 147.063C283.971 139.183 292.513 133.544 301.771 132.535C311.029 131.527 320.776 135.337 326.55 142.626C332.324 149.915 333.737 160.512 329.694 168.88C326.715 175.045 321.226 179.633 315.476 183.365C296.895 195.324 274.609 200.188 252.719 197.06L254.187 195.761Z" fill="#E6E6E6"/>
<path d="M317.395 135.548C309.756 141.754 302.748 148.696 296.473 156.272C286.652 168.088 278.704 181.337 272.908 195.555C272.483 196.592 274.172 197.044 274.591 196.018C284.076 172.91 299.217 152.543 318.63 136.78C319.501 136.071 318.26 134.846 317.395 135.548Z" fill="white"/>
<path d="M106.876 194.788C112.714 189.867 116.26 182.093 115.33 174.525C114.4 166.958 108.64 160.001 101.169 158.394C93.6975 156.787 85.1805 161.235 82.9112 168.516C81.6623 154.479 80.2231 139.854 72.7419 127.901C65.9679 117.077 54.2352 109.333 41.5195 107.947C28.8039 106.562 15.416 111.795 7.48567 121.806C-0.444611 131.818 -2.38631 146.372 3.16786 157.866C7.25941 166.334 14.7975 172.635 22.6955 177.762C47.893 194.117 79.1505 200.939 108.892 196.572" fill="#E6E6E6"/>
<path d="M20.06 112.085C30.5519 120.61 40.1772 130.144 48.7966 140.55C57.4173 150.945 65.007 162.15 71.4589 174.007C75.0652 180.658 78.3048 187.501 81.1633 194.505C81.7462 195.929 79.427 196.549 78.8507 195.141C73.7875 182.793 67.5235 170.971 60.1484 159.842C52.8091 148.754 44.4089 138.403 35.0657 128.933C29.7812 123.579 24.2055 118.519 18.3641 113.776C17.1668 112.804 18.8725 111.12 20.06 112.085Z" fill="white"/>
<path d="M238.315 197.567H99.0276V55.0065C99.0276 24.6758 123.764 0 154.17 0H183.173C213.578 0 238.315 24.6758 238.315 55.0065V197.567Z" fill="#E6E6E6"/>
<path d="M209.313 197.567H99.0275V55.0065C98.9971 43.3844 102.686 32.0561 109.558 22.6709C109.812 22.3265 110.064 21.9865 110.325 21.6503C113.649 17.3015 117.604 13.4717 122.061 10.2871C122.313 10.1044 122.565 9.92486 122.822 9.7453C126.551 7.171 130.585 5.06657 134.832 3.47989C135.084 3.38454 135.341 3.289 135.598 3.19736C139.439 1.83003 143.42 0.893415 147.469 0.40481C147.72 0.370607 147.978 0.343842 148.235 0.317077C152.181 -0.103739 156.16 -0.103739 160.106 0.317077C160.362 0.343842 160.62 0.370603 160.874 0.405175C164.922 0.893813 168.902 1.83031 172.742 3.19738C172.999 3.28901 173.256 3.38455 173.509 3.48009C177.703 5.04675 181.69 7.11978 185.379 9.65293C185.636 9.82858 185.892 10.0081 186.145 10.1877C188.643 11.9664 190.99 13.9481 193.16 16.1124C194.901 17.8484 196.523 19.6989 198.016 21.6514C198.276 21.9865 198.529 22.3265 198.781 22.6704C205.654 32.0557 209.343 43.3842 209.313 55.0065V197.567Z" fill="#CCCCCC"/>
<path d="M200.345 133.805C203.717 133.805 206.451 131.078 206.451 127.714C206.451 124.35 203.717 121.624 200.345 121.624C196.973 121.624 194.239 124.35 194.239 127.714C194.239 131.078 196.973 133.805 200.345 133.805Z" fill="#0E53D9"/>
<path d="M226.904 193.296H222.226L220 175.295L226.905 175.296L226.904 193.296Z" fill="#FFB8B8"/>
<path d="M218.884 191.963H227.907V197.63H213.203C213.203 196.886 213.35 196.149 213.636 195.461C213.921 194.774 214.34 194.149 214.867 193.623C215.395 193.096 216.021 192.679 216.71 192.394C217.399 192.109 218.138 191.963 218.884 191.963Z" fill="#2F2E41"/>
<path d="M250.183 193.296H245.504L243.278 175.295L250.183 175.296L250.183 193.296Z" fill="#FFB8B8"/>
<path d="M242.162 191.963H251.185V197.63H236.481C236.481 196.886 236.628 196.149 236.914 195.461C237.199 194.774 237.618 194.149 238.145 193.623C238.673 193.096 239.299 192.679 239.988 192.394C240.677 192.109 241.416 191.963 242.162 191.963Z" fill="#2F2E41"/>
<path d="M203.435 128.921C203.098 128.426 202.875 127.864 202.779 127.273C202.684 126.683 202.72 126.079 202.884 125.504C203.048 124.929 203.337 124.397 203.729 123.945C204.122 123.494 204.609 123.133 205.156 122.89L221.06 79.1636L228.886 83.4238L210.727 125.21C211.076 126.154 211.066 127.194 210.699 128.131C210.331 129.068 209.632 129.839 208.733 130.296C207.834 130.754 206.799 130.866 205.822 130.613C204.846 130.359 203.996 129.757 203.435 128.921Z" fill="#FFB8B8"/>
<path d="M247.793 137.137C247.273 136.839 246.825 136.432 246.48 135.943C246.135 135.454 245.901 134.896 245.796 134.307C245.691 133.719 245.716 133.114 245.87 132.537C246.025 131.959 246.304 131.422 246.689 130.964L241.762 84.709L250.668 85.1148L252.715 130.612C253.445 131.308 253.892 132.247 253.974 133.25C254.056 134.253 253.766 135.252 253.159 136.056C252.552 136.86 251.671 137.414 250.682 137.613C249.693 137.813 248.665 137.643 247.793 137.137Z" fill="#FFB8B8"/>
<path d="M233.585 71.0644C238.762 71.0644 242.958 66.8785 242.958 61.7148C242.958 56.5512 238.762 52.3652 233.585 52.3652C228.409 52.3652 224.213 56.5512 224.213 61.7148C224.213 66.8785 228.409 71.0644 233.585 71.0644Z" fill="#FFB8B8"/>
<path d="M247.733 126.617H219.476L219.51 126.398C219.561 126.07 224.546 93.4934 220.869 82.8359C220.5 81.7886 220.533 80.6421 220.96 79.6172C221.388 78.5923 222.18 77.7614 223.185 77.2844C228.441 74.8157 238.529 71.7757 247.044 79.1532C248.297 80.2567 249.275 81.6358 249.901 83.1815C250.528 84.7273 250.785 86.3972 250.653 88.0593L247.733 126.617Z" fill="#0E53D9"/>
<path d="M224.903 98.3079L212.182 95.7333L218.145 81.6373C218.501 80.272 219.387 79.1037 220.606 78.3885C221.825 77.6734 223.279 77.4698 224.648 77.8225C226.018 78.1752 227.191 79.0553 227.911 80.2698C228.631 81.4843 228.839 82.9341 228.488 84.301L224.903 98.3079Z" fill="#0E53D9"/>
<path d="M241.196 103.088L240.431 85.5996C239.851 82.3121 241.738 79.2043 244.64 78.6963C247.542 78.1902 250.376 80.4703 250.958 83.782L253.833 100.123L241.196 103.088Z" fill="#0E53D9"/>
<path d="M246.793 124.523C251.34 141.797 251.836 163.759 250.609 187.714L244.503 186.953L233.436 141.273L227.331 187.714L220.462 187.334C218.41 162.198 216.412 140.62 219.699 126.427L246.793 124.523Z" fill="#2F2E41"/>
<path d="M239.761 68.9403C238.012 70.7982 234.765 69.8008 234.537 67.2626C234.519 67.0655 234.521 66.8672 234.541 66.6704C234.659 65.5461 235.31 64.5253 235.154 63.3382C235.119 63.0427 235.008 62.7612 234.833 62.5202C233.44 60.659 230.169 63.3526 228.854 61.6677C228.048 60.6346 228.996 59.008 228.377 57.8533C227.56 56.3292 225.141 57.081 223.624 56.2464C221.937 55.3178 222.038 52.7347 223.149 51.1635C224.504 49.2473 226.879 48.2249 229.225 48.0775C231.571 47.9302 233.901 48.5628 236.091 49.4142C238.58 50.3816 241.047 51.7186 242.579 53.9014C244.441 56.5558 244.62 60.1245 243.689 63.2284C243.122 65.1165 241.189 67.423 239.761 68.9403Z" fill="#2F2E41"/>
<path d="M320.545 197.812H38.8049C38.6846 197.811 38.5694 197.764 38.4845 197.679C38.3996 197.594 38.3519 197.479 38.3519 197.359C38.3519 197.239 38.3996 197.123 38.4845 197.038C38.5694 196.954 38.6846 196.906 38.8049 196.905H320.545C320.665 196.906 320.78 196.954 320.865 197.038C320.95 197.123 320.998 197.239 320.998 197.359C320.998 197.479 320.95 197.594 320.865 197.679C320.78 197.764 320.665 197.811 320.545 197.812Z" fill="#3F3D56"/>
<path d="M178.975 156.264H129.365C128.712 156.268 128.084 156.013 127.619 155.555C127.154 155.097 126.89 154.474 126.885 153.822V43.364C126.89 42.7123 127.154 42.0892 127.619 41.6314C128.084 41.1735 128.712 40.9184 129.365 40.9219H178.975C179.628 40.9184 180.256 41.1735 180.721 41.6314C181.186 42.0892 181.45 42.7123 181.455 43.364V153.822C181.45 154.474 181.186 155.097 180.721 155.555C180.256 156.013 179.628 156.268 178.975 156.264Z" fill="white"/>
<path d="M181.455 76.6626H126.885V77.4239H181.455V76.6626Z" fill="#CCCCCC"/>
<path d="M181.646 120.101H127.076V120.862H181.646V120.101Z" fill="#CCCCCC"/>
<path d="M144.821 40.9219H144.057V156.645H144.821V40.9219Z" fill="#CCCCCC"/>
<path d="M163.901 40.9219H163.138V156.645H163.901V40.9219Z" fill="#CCCCCC"/>
</g>
<defs>
<clipPath id="clip0_1_41959">
<rect width="332" height="198" fill="white"/>
</clipPath>
</defs>
</svg>
