<svg width="95" height="95" viewBox="0 0 95 95" fill="none" xmlns="http://www.w3.org/2000/svg">
<path opacity="0.4" d="M72.6358 77.9C70.4587 83.4813 65.1545 87.0833 59.1774 87.0833H35.8233C29.8066 87.0833 24.542 83.4813 22.3649 77.9C20.1878 72.2792 21.692 66.0646 26.1253 62.0271L42.1566 47.5H52.8837L68.8753 62.0271C73.3087 66.0646 74.7733 72.2792 72.6358 77.9Z" fill="#757680"/>
<path d="M54.7045 71.8033H40.2962C38.792 71.8033 37.6045 70.5762 37.6045 69.1116C37.6045 67.6074 38.8316 66.4199 40.2962 66.4199H54.7045C56.2087 66.4199 57.3962 67.647 57.3962 69.1116C57.3962 70.5762 56.1691 71.8033 54.7045 71.8033Z" fill="#757680"/>
<path d="M72.6357 17.1003C70.4586 11.5191 65.1545 7.91699 59.1774 7.91699H35.8232C29.8461 7.91699 24.542 11.5191 22.3649 17.1003C20.2274 22.7212 21.692 28.9357 26.1649 32.9732L42.1565 47.5003H52.8836L68.8753 32.9732C73.3086 28.9357 74.7732 22.7212 72.6357 17.1003ZM54.7045 28.6191H40.2961C38.792 28.6191 37.6045 27.392 37.6045 25.9274C37.6045 24.4628 38.8315 23.2357 40.2961 23.2357H54.7045C56.2086 23.2357 57.3961 24.4628 57.3961 25.9274C57.3961 27.392 56.169 28.6191 54.7045 28.6191Z" fill="#757680"/>
</svg>
