<svg width="95" height="95" viewBox="0 0 95 95" fill="none" xmlns="http://www.w3.org/2000/svg">
<path opacity="0.4" d="M87.0837 30.7559V35.6247H7.91699V29.8455C7.91699 20.7809 15.2795 13.458 24.3441 13.458H63.3337V23.6309C63.3337 28.658 66.342 31.6663 71.3691 31.6663H83.0066C84.5899 31.6663 85.9357 31.3893 87.0837 30.7559Z" fill="#0F53D9"/>
<path d="M7.91699 35.625V65.1542C7.91699 74.2187 15.2795 81.5417 24.3441 81.5417H70.6566C79.7212 81.5417 87.0837 74.2187 87.0837 65.1542V35.625H7.91699ZM31.667 68.2812H23.7503C22.1274 68.2812 20.7816 66.9354 20.7816 65.3125C20.7816 63.6896 22.1274 62.3437 23.7503 62.3437H31.667C33.2899 62.3437 34.6357 63.6896 34.6357 65.3125C34.6357 66.9354 33.2899 68.2812 31.667 68.2812ZM57.3962 68.2812H41.5628C39.9399 68.2812 38.5941 66.9354 38.5941 65.3125C38.5941 63.6896 39.9399 62.3437 41.5628 62.3437H57.3962C59.0191 62.3437 60.3649 63.6896 60.3649 65.3125C60.3649 66.9354 59.0191 68.2812 57.3962 68.2812Z" fill="#0F53D9"/>
<path d="M83.0059 3.95801H71.3684C66.3413 3.95801 63.333 6.96634 63.333 11.9934V23.6309C63.333 28.658 66.3413 31.6663 71.3684 31.6663H83.0059C88.033 31.6663 91.0413 28.658 91.0413 23.6309V11.9934C91.0413 6.96634 88.033 3.95801 83.0059 3.95801ZM85.6184 13.6559L76.2372 24.6205C75.8809 25.0559 75.3268 25.333 74.7726 25.333C74.733 25.333 74.733 25.333 74.6934 25.333C74.1393 25.333 73.6247 25.1351 73.2288 24.7393L68.8747 20.4643C68.083 19.6726 68.083 18.3663 68.8747 17.5747C69.6663 16.783 70.9726 16.7434 71.7643 17.5747L74.5351 20.3059L82.4518 11.0434C83.2038 10.1726 84.4705 10.0934 85.3413 10.8059C86.2518 11.5184 86.3309 12.8247 85.6184 13.6559Z" fill="#0F53D9"/>
</svg>
