<svg width="270" height="144" viewBox="0 0 275 156" fill="none" xmlns="http://www.w3.org/2000/svg">
<path d="M158.017 65.6493L195.654 144.791C200.295 154.538 210.51 158.631 219.286 154.207C236.999 145.264 253.416 133.529 268.151 119.427C276.683 111.265 277.352 96.3357 269.549 87.2268L235.317 47.2895C181.284 -15.7632 93.7087 -15.7632 39.6758 47.2895L5.44407 87.2268C-2.35888 96.3357 -1.66991 111.265 6.84241 119.427C21.5768 133.505 37.9934 145.264 55.7072 154.207C64.4829 158.631 74.6978 154.538 79.339 144.791L116.976 65.6493C125.934 46.84 149.079 46.84 158.017 65.6493Z" fill="#B4C5FF" fill-opacity="0.5"/>
</svg>
