<svg width="202" height="110" viewBox="0 0 202 115" fill="none" xmlns="http://www.w3.org/2000/svg">
<path d="M85.9291 66.0659L58.2833 8.18662C54.8741 1.05768 47.3708 -1.9358 40.9246 1.29991C27.9131 7.84053 15.8544 16.423 5.03125 26.7357C-1.23631 32.7053 -1.72751 43.6236 4.00412 50.2854L29.1489 79.4933C68.8385 125.606 133.167 125.606 172.856 79.4933L198.001 50.2854C203.733 43.6236 203.227 32.7053 196.974 26.7357C186.151 16.4403 174.092 7.84052 161.081 1.29989C154.634 -1.93581 147.131 1.05767 143.722 8.18661L116.076 66.0659C109.496 79.8047 92.4945 79.8047 85.9291 66.0659Z" fill="#8EB5FF" fill-opacity="0.06"/>
</svg>
