<svg xmlns="http://www.w3.org/2000/svg" width="41" height="20" fill="none"
    viewBox="2.96 2.77 41.01 19.69">
    <path fill="url(#a)"
        d="m43.68 9.54-5.285 5.285a1 1 0 0 1-1.417 0L31.694 9.54a1 1 0 0 1 0-1.417l5.284-5.285a1 1 0 0 1 1.417 0l5.284 5.285a1 1 0 0 1 0 1.417ZM23.05 2.773a1 1 0 0 0-1.417 0L16.35 8.057a1 1 0 0 1-1.417 0L9.661 2.786a1 1 0 0 0-1.417 0L2.96 8.07a1 1 0 0 0 0 1.417l12.974 12.975a1 1 0 0 0 1.417 0l2.201-2.201 3.093-3.08a1.005 1.005 0 0 1 1.416 0l5.285 5.285a1 1 0 0 0 1.417 0l5.284-5.284a1 1 0 0 0 0-1.417L23.05 2.772Z" />
    <defs>
        <linearGradient id="a" x1="43.973" x2="2.668" y1="12.619" y2="12.619"
            gradientUnits="userSpaceOnUse">
            <stop offset=".078" stop-color="#109AFA" />
            <stop offset=".369" stop-color="#0A67B4" />
            <stop offset=".659" stop-color="#043973" />
            <stop offset=".796" stop-color="#02275A" />
        </linearGradient>
    </defs>
</svg>
