<svg width="128" height="127" viewBox="0 0 128 127" fill="none" xmlns="http://www.w3.org/2000/svg">
    <g clip-path="url(#clip0_820_6256)">
        <path d="M46.7404 28.5621H81.2308C82.0168 28.5631 82.7703 28.8809 83.3261 29.4458C83.8818 30.0107 84.1945 30.7766 84.1954 31.5755V109.492L84.5907 109.615L93.0518 112.249C93.4528 112.373 93.8859 112.33 94.2561 112.13C94.6262 111.93 94.9032 111.589 95.0262 111.182L120.194 27.6199C120.316 27.2123 120.275 26.772 120.078 26.3957C119.881 26.0193 119.545 25.7378 119.144 25.613L106.106 21.5549L68.307 9.7946L55.2686 5.73653C55.0702 5.67446 54.8617 5.65277 54.655 5.6727C54.4483 5.69264 54.2475 5.7538 54.0641 5.8527C53.8807 5.95159 53.7183 6.08628 53.5862 6.24905C53.4541 6.41182 53.3548 6.59947 53.2941 6.80127L46.8609 28.1603L46.7404 28.5621Z" fill="#F2F0F4"/>
        <path d="M39.2141 28.1599L46.9676 2.41736C47.0965 1.98844 47.3074 1.58956 47.5882 1.24351C47.8689 0.897467 48.2139 0.611039 48.6036 0.400594C48.9932 0.190149 49.4199 0.0598099 49.8591 0.0170297C50.2984 -0.0257504 50.7416 0.0198667 51.1635 0.15127L69.4948 5.85465L107.292 17.617L125.623 23.3224C126.475 23.5882 127.188 24.1866 127.606 24.9862C128.024 25.7858 128.112 26.7213 127.852 27.5874L101.353 115.565C101.141 116.264 100.715 116.876 100.137 117.311C99.5587 117.746 98.8584 117.981 98.1389 117.982C97.8059 117.982 97.4748 117.931 97.1567 117.831L84.5906 113.922L84.1953 113.797V113.377L84.5906 113.5L97.2733 117.447C98.0249 117.68 98.8368 117.601 99.5308 117.226C100.225 116.851 100.744 116.212 100.975 115.448L127.473 27.4689C127.587 27.0906 127.627 26.693 127.59 26.299C127.553 25.9051 127.44 25.5223 127.258 25.1728C127.075 24.8233 126.826 24.5138 126.526 24.2622C126.225 24.0105 125.879 23.8215 125.506 23.7061L107.175 18.0007L69.3781 6.24037L51.0468 0.534981C50.7643 0.447351 50.4706 0.40267 50.1753 0.40239C49.5414 0.403837 48.9247 0.611553 48.4153 0.995113C47.906 1.37867 47.5309 1.91792 47.345 2.53388L39.6271 28.1599L39.5045 28.5617H39.0934L39.2141 28.1599Z" fill="#757680"/>
        <path d="M103.753 25.6784C104.134 25.6781 104.505 25.5537 104.811 25.3235C105.118 25.0934 105.343 24.7694 105.455 24.3993L108.001 15.9474C108.069 15.7203 108.093 15.4818 108.071 15.2455C108.048 15.0091 107.981 14.7795 107.871 14.5698C107.761 14.3601 107.612 14.1744 107.432 14.0234C107.252 13.8723 107.044 13.7587 106.821 13.6893L72.0478 2.86835C71.5967 2.72844 71.1095 2.77615 70.6929 3.00104C70.2764 3.22592 69.9647 3.60958 69.8262 4.06783L67.2805 12.5199C67.1429 12.9784 67.1899 13.4737 67.4111 13.897C67.6324 14.3204 68.0098 14.6372 68.4605 14.7781L103.234 25.599C103.402 25.6515 103.577 25.6783 103.753 25.6784Z" fill="#555D7C"/>
        <path d="M90.4178 9.03088C88.2347 9.03088 86.4649 7.23201 86.4649 5.013C86.4649 2.79398 88.2347 0.995117 90.4178 0.995117C92.6009 0.995117 94.3706 2.79398 94.3706 5.013C94.3706 7.23201 92.6009 9.03088 90.4178 9.03088Z" fill="#555D7C"/>
        <path d="M90.4178 7.55773C89.0354 7.55773 87.9148 6.41864 87.9148 5.01349C87.9148 3.60834 89.0354 2.46924 90.4178 2.46924C91.8002 2.46924 92.9209 3.60834 92.9209 5.01349C92.9209 6.41864 91.8002 7.55773 90.4178 7.55773Z" fill="white"/>
        <path d="M8.89382 116.955H75.6968C76.1421 116.955 76.5692 116.774 76.8841 116.454C77.199 116.134 77.3762 115.7 77.3767 115.247V33.8853C77.3762 33.4326 77.1991 32.9986 76.8841 32.6784C76.5692 32.3583 76.1422 32.1782 75.6968 32.1777H8.89382C8.44843 32.1783 8.02143 32.3583 7.70649 32.6785C7.39155 32.9986 7.21438 33.4326 7.21387 33.8853V115.247C7.2144 115.7 7.39156 116.134 7.7065 116.454C8.02144 116.774 8.44843 116.955 8.89382 116.955Z" fill="#F2F0F4"/>
        <path d="M39.6271 28.1602H81.2307C82.1214 28.1614 82.9753 28.5217 83.6051 29.1619C84.2349 29.8021 84.5893 30.67 84.5906 31.5754V113.5L84.1953 113.377V31.5754C84.1943 30.7764 83.8817 30.0105 83.3259 29.4456C82.7701 28.8807 82.0166 28.5629 81.2307 28.5619H39.5045L39.6271 28.1602ZM3.35979 28.1602H81.2307C82.1214 28.1614 82.9753 28.5217 83.6051 29.1619C84.2349 29.8021 84.5893 30.67 84.5906 31.5754V123.585C84.5893 124.49 84.2349 125.358 83.6051 125.998C82.9753 126.639 82.1214 126.999 81.2307 127H3.35979C2.46907 126.999 1.6152 126.639 0.985359 125.998C0.35553 125.358 0.00113678 124.49 -0.00012207 123.585V31.5754C0.00113678 30.67 0.35553 29.8021 0.985359 29.1619C1.6152 28.5217 2.46907 28.1614 3.35979 28.1602ZM0.395164 123.585C0.396118 124.384 0.708771 125.15 1.26453 125.715C1.8203 126.28 2.57381 126.597 3.35979 126.598H81.2307C82.0166 126.597 82.7701 126.28 83.3259 125.715C83.8817 125.15 84.1943 124.384 84.1953 123.585V31.5754C84.1943 30.7764 83.8817 30.0105 83.3259 29.4456C82.7701 28.8807 82.0166 28.5629 81.2307 28.5619H3.35979C2.57381 28.5629 1.8203 28.8807 1.26453 29.4456C0.708771 30.0105 0.396118 30.7764 0.395164 31.5754V123.585Z" fill="#757680"/>
        <path d="M24.1122 36.9994H60.4783C60.9499 36.9988 61.402 36.8082 61.7355 36.4692C62.069 36.1303 62.2565 35.6707 62.2571 35.1913V26.352C62.2565 25.8726 62.069 25.4131 61.7355 25.0741C61.402 24.7351 60.9499 24.5445 60.4783 24.5439H24.1122C23.6406 24.5445 23.1885 24.7351 22.855 25.0741C22.5215 25.4131 22.334 25.8726 22.3334 26.352V35.1913C22.334 35.6707 22.5215 36.1303 22.855 36.4692C23.1885 36.8082 23.6406 36.9988 24.1122 36.9994Z" fill="#555D7C"/>
        <path d="M42.2955 25.1466C40.1124 25.1466 38.3426 23.3477 38.3426 21.1287C38.3426 18.9097 40.1124 17.1108 42.2955 17.1108C44.4785 17.1108 46.2483 18.9097 46.2483 21.1287C46.2483 23.3477 44.4785 25.1466 42.2955 25.1466Z" fill="#555D7C"/>
        <path d="M42.2952 23.5762C40.9655 23.5762 39.8876 22.4805 39.8876 21.1289C39.8876 19.7773 40.9655 18.6816 42.2952 18.6816C43.6249 18.6816 44.7029 19.7773 44.7029 21.1289C44.7029 22.4805 43.6249 23.5762 42.2952 23.5762Z" fill="white"/>
    </g>
    <defs>
        <clipPath id="clip0_820_6256">
            <rect width="128" height="127" fill="white" transform="matrix(-1 0 0 1 128 0)"/>
        </clipPath>
    </defs>
</svg>
