<?xml version="1.0" standalone="no"?>
<!DOCTYPE svg PUBLIC "-//W3C//DTD SVG 20010904//EN"
 "http://www.w3.org/TR/2001/REC-SVG-20010904/DTD/svg10.dtd">
<svg version="1.0" xmlns="http://www.w3.org/2000/svg"
 width="4500.000000pt" height="4500.000000pt" viewBox="0 0 4500.000000 4500.000000"
 preserveAspectRatio="xMidYMid meet">

<g transform="translate(0.000000,4500.000000) scale(0.100000,-0.100000)"
fill="#000000" stroke="none">
<path d="M18670 41773 c-204 -13 -346 -27 -465 -44 -953 -137 -1800 -511
-2530 -1120 -55 -46 -178 -160 -274 -254 -279 -274 -483 -520 -694 -841 -110
-167 -13006 -22496 -13133 -22740 -465 -890 -655 -1925 -534 -2904 167 -1348
866 -2581 1937 -3417 134 -105 411 -290 563 -378 321 -186 728 -358 1100 -466
58 -17 106 -32 107 -33 2 -2 -4 -25 -12 -52 -8 -27 -27 -110 -44 -184 -215
-979 -130 -1990 247 -2930 68 -168 91 -219 182 -400 611 -1218 1658 -2124
2930 -2538 372 -121 720 -192 1150 -234 200 -19 26399 -19 26600 0 187 18 459
58 604 88 1519 316 2778 1291 3481 2694 314 626 490 1277 535 1975 30 472 -14
962 -131 1454 -16 68 -29 125 -29 127 0 2 33 13 73 24 728 211 1355 553 1926
1049 595 516 1091 1226 1387 1984 451 1152 466 2385 44 3542 -74 202 -169 418
-264 599 -127 244 -13023 22573 -13133 22740 -211 321 -415 567 -694 841 -249
244 -462 417 -739 600 -1471 973 -3418 1093 -5015 309 -452 -221 -880 -519
-1231 -856 l-114 -110 -114 110 c-758 728 -1766 1201 -2840 1332 -277 34 -658
48 -876 33z m497 -1864 c758 -62 1449 -374 1987 -899 282 -275 395 -429 683
-930 77 -135 2782 -4825 6012 -10424 3229 -5598 5871 -10180 5871 -10182 0 -2
-1125 -3 -2501 -2 l-2501 3 -2984 5170 c-3827 6629 -6435 11148 -6714 11633
-51 89 -97 159 -101 155 -4 -4 -3011 -5205 -6683 -11558 -3672 -6352 -6680
-11553 -6685 -11558 -22 -22 -387 68 -606 149 -156 57 -441 198 -583 288 -763
482 -1303 1297 -1451 2188 -31 187 -41 312 -41 517 0 507 106 958 330 1406
101 202 12945 22453 13066 22635 541 816 1411 1329 2389 1409 148 12 367 12
512 0z m7159 1 c443 -36 823 -142 1211 -339 482 -244 893 -612 1197 -1071 121
-182 12965 -22433 13066 -22635 175 -351 282 -720 319 -1109 14 -139 14 -453
1 -587 -96 -970 -620 -1841 -1429 -2378 -402 -266 -834 -425 -1351 -498 -119
-17 -709 -18 -12305 -14 -6699 2 -12181 5 -12183 6 -1 1 356 623 794 1381 438
759 999 1732 1247 2163 l452 783 9803 -7 c5391 -4 9802 -4 9802 -1 0 3 -3001
5209 -6670 11567 -3669 6359 -6670 11566 -6670 11572 0 5 38 53 84 106 645
741 1637 1140 2632 1061z m-6851 -10152 c302 -524 863 -1498 1247 -2164 l697
-1212 -2572 -4451 c-1415 -2448 -2803 -4850 -3086 -5338 -282 -489 -1068
-1849 -1746 -3023 -678 -1174 -1494 -2587 -1813 -3140 l-581 -1005 202 -3
c111 -1 6126 -6 13367 -10 l13165 -7 46 -138 c122 -364 166 -666 156 -1075 -6
-252 -22 -395 -72 -616 -154 -687 -568 -1352 -1116 -1792 -482 -387 -1018
-610 -1654 -686 -163 -19 -26267 -19 -26430 0 -861 103 -1602 507 -2124 1157
-753 937 -926 2144 -467 3254 43 102 652 1164 3263 5686 5568 9642 6284 10882
8088 14005 412 712 776 1343 809 1402 34 59 63 108 66 108 3 0 253 -429 555
-952z m5066 -8770 l2028 -3513 -2040 -3 c-1122 -1 -2956 -1 -4074 0 l-2033 3
2036 3523 c1308 2265 2039 3519 2045 3513 5 -5 922 -1590 2038 -3523z"/>
</g>
</svg>
