<svg width="32" height="33" viewBox="0 0 32 33" fill="none" xmlns="http://www.w3.org/2000/svg">
<g id="vuesax/bulk/clock">
<g id="clock">
<path id="Vector" opacity="0.4" d="M16.0001 30.0417C23.3639 30.0417 29.3334 24.0721 29.3334 16.7083C29.3334 9.34454 23.3639 3.375 16.0001 3.375C8.63628 3.375 2.66675 9.34454 2.66675 16.7083C2.66675 24.0721 8.63628 30.0417 16.0001 30.0417Z" fill="#0E53D9"/>
<path id="Vector_2" d="M20.9467 21.9454C20.7734 21.9454 20.6 21.9054 20.44 21.7987L16.3067 19.3321C15.28 18.7187 14.52 17.3721 14.52 16.1854V10.7187C14.52 10.1721 14.9734 9.71875 15.52 9.71875C16.0667 9.71875 16.52 10.1721 16.52 10.7187V16.1854C16.52 16.6654 16.92 17.3721 17.3334 17.6121L21.4667 20.0787C21.9467 20.3587 22.0934 20.9721 21.8134 21.4521C21.6134 21.7721 21.28 21.9454 20.9467 21.9454Z" fill="#0E53D9"/>
</g>
</g>
</svg>
