<svg width="256" height="159" viewBox="0 0 256 159" fill="none" xmlns="http://www.w3.org/2000/svg">
<path d="M244.281 125.831H11.2369C8.25773 125.827 5.40152 124.482 3.29491 122.092C1.18831 119.702 0.00334624 116.461 0 113.081V12.7493C0.00338658 9.36918 1.18835 6.12857 3.29495 3.73843C5.40155 1.3483 8.25774 0.00384239 11.2369 0H244.281C247.26 0.00384239 250.116 1.3483 252.223 3.73843C254.33 6.12857 255.515 9.36918 255.518 12.7493V113.081C255.515 116.461 254.33 119.702 252.223 122.092C250.116 124.482 247.26 125.827 244.281 125.831Z" fill="white"/>
<path d="M244.763 125.831H11.7189C8.73966 125.827 5.88345 124.482 3.77685 122.092C1.67024 119.702 0.48528 116.461 0.481934 113.081V12.7493C0.48532 9.36918 1.67029 6.12857 3.77689 3.73843C5.88348 1.3483 8.73968 0.00384239 11.7189 0H244.763C247.742 0.00384239 250.598 1.3483 252.705 3.73843C254.811 6.12857 255.996 9.36918 256 12.7493V113.081C255.996 116.461 254.812 119.702 252.705 122.092C250.598 124.482 247.742 125.827 244.763 125.831ZM11.7189 1.10863C8.99779 1.10863 6.38816 2.33506 4.46408 4.51812C2.53999 6.70117 1.45905 9.66203 1.45905 12.7493V113.081C1.45905 114.61 1.72443 116.124 2.24003 117.536C2.75563 118.948 3.51137 120.231 4.46408 121.312C5.41679 122.393 6.54783 123.251 7.7926 123.836C9.03738 124.421 10.3715 124.722 11.7189 124.722H244.763C246.11 124.722 247.444 124.421 248.689 123.836C249.934 123.251 251.065 122.393 252.018 121.312C252.97 120.231 253.726 118.948 254.242 117.536C254.757 116.124 255.023 114.61 255.023 113.081V75.2507C255.023 55.587 248.138 36.7287 235.883 22.8243C223.628 8.92001 207.007 1.10864 189.676 1.10863H11.7189Z" fill="#E6E6E6"/>
<path d="M94.7831 60.8815C94.7977 70.9381 91.0827 80.6429 84.3566 88.1192V88.1248C83.4057 89.1821 82.4013 90.1902 81.3475 91.145C80.2691 92.1217 79.1386 93.0391 77.9608 93.8932C77.1391 94.4928 76.2952 95.0591 75.4291 95.5921C74.402 96.2306 73.3453 96.8209 72.259 97.3632C71.4539 97.7685 70.6323 98.146 69.7939 98.4958C64.7898 100.599 59.4157 101.68 53.9876 101.677C50.9219 101.68 47.8657 101.338 44.8769 100.655C43.4947 100.341 42.1306 99.952 40.7907 99.4895C40.2743 99.3174 39.758 99.1287 39.2472 98.9288C36.1501 97.7317 33.2131 96.1559 30.5029 94.2374C24.7746 90.2043 20.1814 84.7639 17.1659 78.4404C14.1504 72.1169 12.8142 65.1234 13.286 58.1336C13.7578 51.1438 16.0216 44.3933 19.8595 38.5324C23.6974 32.6715 28.98 27.8977 35.1983 24.6709C41.4167 21.4441 48.3612 19.873 55.363 20.1091C62.3647 20.3452 69.1876 22.3804 75.1745 26.0187C81.1614 29.657 86.1104 34.7758 89.5448 40.882C92.9792 46.9881 94.7833 53.8758 94.7831 60.8815Z" fill="#F8F9FB"/>
<path d="M94.7831 60.8815C94.7977 70.9381 91.0827 80.6429 84.3566 88.1192V88.1248C83.4057 89.1821 82.4013 90.1902 81.3475 91.145C80.2691 92.1217 79.1386 93.0391 77.9608 93.8932C77.1391 94.4928 76.2952 95.0591 75.4291 95.5921C74.402 96.2306 73.3453 96.8209 72.259 97.3632C71.4539 97.7685 70.6323 98.146 69.7939 98.4958C64.7898 100.599 59.4157 101.68 53.9876 101.677C50.9219 101.68 47.8657 101.338 44.8769 100.655C43.4947 100.341 42.1306 99.952 40.7907 99.4895C40.2743 99.3174 39.758 99.1287 39.2472 98.9288C36.1501 97.7317 33.2131 96.1559 30.5029 94.2374C24.7746 90.2043 20.1814 84.7639 17.1659 78.4404C14.1504 72.1169 12.8142 65.1234 13.286 58.1336C13.7578 51.1438 16.0216 44.3933 19.8595 38.5324C23.6974 32.6715 28.98 27.8977 35.1983 24.6709C41.4167 21.4441 48.3612 19.873 55.363 20.1091C62.3647 20.3452 69.1876 22.3804 75.1745 26.0187C81.1614 29.657 86.1104 34.7758 89.5448 40.882C92.9792 46.9881 94.7833 53.8758 94.7831 60.8815Z" fill="#0E53D9" fill-opacity="0.05"/>
<path d="M201.935 30.5587H131.426C130.838 30.5579 130.274 30.3235 129.858 29.9071C129.442 29.4907 129.208 28.9264 129.208 28.338C129.208 27.7495 129.442 27.1852 129.858 26.7688C130.274 26.3524 130.838 26.1181 131.426 26.1172H201.935C202.524 26.1172 203.089 26.3512 203.506 26.7676C203.922 27.1841 204.156 27.749 204.156 28.338C204.156 28.9269 203.922 29.4918 203.506 29.9083C203.089 30.3248 202.524 30.5587 201.935 30.5587Z" fill="#0E53D9"/>
<path d="M201.935 60.5392H131.426C130.838 60.5383 130.274 60.304 129.858 59.8876C129.442 59.4712 129.208 58.9068 129.208 58.3184C129.208 57.73 129.442 57.1656 129.858 56.7493C130.274 56.3329 130.838 56.0985 131.426 56.0977H201.935C202.524 56.0985 203.088 56.3329 203.504 56.7493C203.919 57.1656 204.153 57.73 204.153 58.3184C204.153 58.9068 203.919 59.4712 203.504 59.8876C203.088 60.304 202.524 60.5383 201.935 60.5392Z" fill="#E6E6E6"/>
<path d="M201.935 90.5197H131.426C130.838 90.5188 130.274 90.2845 129.858 89.8681C129.442 89.4517 129.208 88.8873 129.208 88.2989C129.208 87.7105 129.442 87.1461 129.858 86.7297C130.274 86.3134 130.838 86.079 131.426 86.0781H201.935C202.524 86.0781 203.089 86.3121 203.506 86.7286C203.922 87.1451 204.156 87.7099 204.156 88.2989C204.156 88.8879 203.922 89.4527 203.506 89.8692C203.089 90.2857 202.524 90.5197 201.935 90.5197Z" fill="#E6E6E6"/>
<path d="M40.6033 156.768C32.6433 146.18 28.0425 134.34 27.8918 120.842C27.6353 120.115 27.6779 119.315 28.0101 118.619C28.3424 117.923 28.9372 117.387 29.664 117.129L56.7959 107.529C57.5233 107.273 58.3228 107.315 59.0189 107.647C59.715 107.98 60.2508 108.574 60.5089 109.301L73.2204 145.227C73.4769 145.954 73.4343 146.754 73.1021 147.45C72.7698 148.146 72.1751 148.682 71.4482 148.94L44.3163 158.54C43.5889 158.796 42.7894 158.754 42.0933 158.422C41.3973 158.089 40.8614 157.495 40.6033 156.768Z" fill="#E6E6E6"/>
<path d="M38.8454 145.182C34.0579 140.342 32.0086 131.708 30.6733 122.086C30.4331 121.405 30.4729 120.656 30.7841 120.004C31.0952 119.352 31.6523 118.85 32.333 118.609L55.6506 110.358C56.3318 110.118 57.0806 110.158 57.7325 110.469C58.3844 110.78 58.8863 111.337 59.1281 112.018L70.4396 143.987C70.6797 144.668 70.6399 145.417 70.3287 146.069C70.0175 146.721 69.4605 147.223 68.7797 147.464L54.335 152.575C51.3004 153.645 47.9653 153.468 45.0615 152.082C42.1576 150.696 39.9221 148.215 38.8454 145.182Z" fill="white"/>
<path d="M59.4399 129.239L41.2762 135.723C41.133 135.774 40.9813 135.796 40.8295 135.789C40.6777 135.781 40.5289 135.744 40.3916 135.679C40.2543 135.614 40.1311 135.522 40.0291 135.409C39.9272 135.297 39.8484 135.165 39.7973 135.022C39.7462 134.879 39.7238 134.727 39.7314 134.575C39.739 134.423 39.7764 134.275 39.8415 134.137C39.9065 134 39.998 133.877 40.1107 133.775C40.2234 133.673 40.355 133.594 40.4981 133.543L58.6619 127.06C58.9509 126.956 59.2691 126.972 59.5465 127.104C59.8238 127.235 60.0376 127.471 60.1407 127.76C60.2439 128.049 60.228 128.368 60.0966 128.645C59.9652 128.922 59.7289 129.136 59.4399 129.239Z" fill="#0E53D9"/>
<path d="M43.139 128.322L39.143 129.748C38.9998 129.799 38.848 129.822 38.6961 129.814C38.5442 129.807 38.3953 129.77 38.2578 129.705C38.1204 129.639 37.9971 129.548 37.8951 129.435C37.793 129.323 37.7142 129.191 37.663 129.048C37.6119 128.904 37.5895 128.752 37.5972 128.601C37.6048 128.449 37.6422 128.3 37.7074 128.162C37.7726 128.025 37.8642 127.902 37.9771 127.8C38.0899 127.698 38.2217 127.619 38.365 127.568L42.361 126.142C42.5042 126.091 42.656 126.068 42.8079 126.076C42.9598 126.083 43.1087 126.12 43.2461 126.185C43.3836 126.251 43.5069 126.342 43.6089 126.455C43.711 126.567 43.7898 126.699 43.8409 126.842C43.8921 126.986 43.9145 127.137 43.9068 127.289C43.8992 127.441 43.8618 127.59 43.7966 127.727C43.7314 127.865 43.6398 127.988 43.5269 128.09C43.4141 128.192 43.2823 128.271 43.139 128.322Z" fill="#0E53D9"/>
<path d="M62.8607 138.821L44.6969 145.304C44.408 145.407 44.09 145.391 43.8129 145.26C43.5359 145.128 43.3223 144.892 43.2192 144.603C43.1161 144.314 43.1319 143.996 43.2631 143.719C43.3943 143.442 43.6302 143.228 43.9189 143.125L62.0827 136.641C62.3716 136.538 62.6895 136.554 62.9666 136.686C63.2437 136.817 63.4573 137.054 63.5604 137.342C63.6635 137.631 63.6477 137.949 63.5165 138.226C63.3853 138.504 63.1494 138.717 62.8607 138.821Z" fill="#0E53D9"/>
<path d="M61.1504 134.033L42.9866 140.516C42.6976 140.619 42.3794 140.603 42.1021 140.472C41.8247 140.341 41.6109 140.104 41.5078 139.815C41.4046 139.526 41.4205 139.208 41.5519 138.931C41.6833 138.653 41.9196 138.44 42.2086 138.336L60.3723 131.853C60.5155 131.802 60.6674 131.779 60.8192 131.787C60.9711 131.794 61.12 131.831 61.2575 131.896C61.3949 131.961 61.5182 132.053 61.6203 132.166C61.7223 132.278 61.8012 132.41 61.8523 132.553C61.9034 132.697 61.9258 132.848 61.9182 133C61.9106 133.152 61.8731 133.301 61.8079 133.438C61.7427 133.576 61.6511 133.699 61.5383 133.801C61.4254 133.903 61.2936 133.982 61.1504 134.033Z" fill="#0E53D9"/>
<path d="M44.6567 42.4265C45.2482 47.1988 48.5551 51.1337 53.3639 51.1337C55.6732 51.1337 57.8879 50.2163 59.5208 48.5834C61.1537 46.9505 62.0711 44.7358 62.0711 42.4265C62.0711 37.6177 58.1521 34.164 53.3639 33.7194C48.2833 33.2476 43.8973 36.2995 44.6567 42.4265Z" fill="#2F2E41"/>
<path d="M60.9442 101.083C55.6125 101.999 50.1523 101.854 44.877 100.655C47.3809 99.2728 54.9759 100.122 60.9442 101.083Z" fill="#2F2E41"/>
<path d="M27.0547 116.401L31.2373 106.293L34.5326 108.124L32.5425 118.406C32.7418 119.057 32.7555 119.751 32.5819 120.41C32.4084 121.069 32.0545 121.666 31.5601 122.135C31.0658 122.604 30.4504 122.925 29.7834 123.063C29.1163 123.201 28.4239 123.151 27.7841 122.917C27.1442 122.683 26.5823 122.275 26.1614 121.74C25.7405 121.204 25.4774 120.562 25.4016 119.885C25.3259 119.208 25.4404 118.523 25.7325 117.907C26.0245 117.292 26.4824 116.77 27.0547 116.401Z" fill="#FFB6B6"/>
<path d="M70.3212 89.0456V89.0512C70.1713 92.5711 69.9659 95.9189 69.7938 98.495C64.7896 100.598 59.4156 101.68 53.9875 101.676C50.9218 101.68 47.8656 101.337 44.8768 100.655C43.4946 100.34 42.1305 99.9512 40.7906 99.4888C40.9771 99.3684 41.1787 99.2732 41.3902 99.2057C43.3889 98.5283 41.4124 97.9121 41.429 97.268C41.4901 94.914 42.1397 92.0881 42.978 89.3787L39.2471 98.9281L37.3039 103.891C37.3039 103.891 37.3706 108.178 36.138 106.867C34.9 105.557 34.9888 109.799 34.9888 109.799C34.604 110.073 34.2728 110.415 34.0116 110.809C33.9018 110.986 33.8603 111.198 33.895 111.403V111.409C33.9508 111.57 34.0607 111.708 34.206 111.797C35.0443 112.364 33.8395 113.863 33.3065 114.457C33.1622 114.618 33.0678 114.712 33.0678 114.712L27.9434 114.346V114.246C27.9656 113.641 28.1044 110.454 28.8983 109.693C29.77 108.855 29.3425 107.528 29.3425 107.528C29.3425 107.528 31.6187 105.513 30.092 103.875C29.4813 103.214 29.7533 99.3 30.5028 94.2367C32.1406 83.0662 36.0659 66.2994 37.7647 66.5381C38.1148 64.8375 38.9279 63.2666 40.1143 61.9989C41.3007 60.7311 42.8143 59.8158 44.4881 59.3539L50.0234 57.8327L51.0116 53.9297H58.8065L60.1612 56.4947L65.8408 59.0597L65.913 59.093L66.0906 59.1707L66.1573 59.3817C66.1573 59.3817 66.1517 59.3872 66.1573 59.3872L69.3163 69.3085C70.7376 70.9408 70.6821 80.479 70.3212 89.0456Z" fill="#0E53D9"/>
<path d="M83.5947 109.038L78.3164 99.4563L81.8048 98.0273L88.5892 106.006C89.2223 106.257 89.7727 106.68 90.1786 107.227C90.5845 107.774 90.8297 108.424 90.8867 109.103C90.9437 109.782 90.8102 110.463 90.5013 111.07C90.1923 111.677 89.7202 112.186 89.1378 112.54C88.5555 112.893 87.8861 113.077 87.2049 113.071C86.5237 113.065 85.8577 112.869 85.2818 112.505C84.7059 112.141 84.2429 111.624 83.9448 111.011C83.6468 110.399 83.5255 109.715 83.5947 109.038Z" fill="#FFB6B6"/>
<path d="M65.8418 58.9844C66.7807 60.6714 75.3673 65.0101 73.8792 69.366C73.8792 69.366 81.9459 94.6034 82.9949 94.4387C84.0439 94.274 85.0677 96.8809 85.0677 96.8809C85.0677 96.8809 84.8452 98.5823 85.4995 97.8752C86.1537 97.1682 85.9972 99.0216 85.9972 99.0216C85.9972 99.0216 85.6836 100.657 86.5143 100.213C87.3451 99.7679 86.2528 102.898 86.2528 102.898L81.2604 105.249L80.3118 103.837C80.3118 103.837 78.2845 103.451 79.2384 103.145C80.1923 102.839 78.3414 101.81 78.3414 101.81C78.3414 101.81 76.405 100.494 76.6749 98.3147C76.9448 96.1352 71.65 91.8508 71.65 91.8508C68.0102 84.6643 66.019 77.2861 66.0259 69.6752L65.8418 58.9844Z" fill="#0E53D9"/>
<path d="M54.3261 51.6493C58.5904 51.6493 62.0473 48.1924 62.0473 43.9282C62.0473 39.6639 58.5904 36.207 54.3261 36.207C50.0619 36.207 46.605 39.6639 46.605 43.9282C46.605 48.1924 50.0619 51.6493 54.3261 51.6493Z" fill="#FFB6B6"/>
<path d="M46.3309 44.772C46.5753 46.4498 48.0053 48.7907 47.6705 48.7907C47.3356 48.7907 44.9545 41.8741 47.3356 41.4231C49.0627 41.0959 49.4487 41.3829 51.0629 40.683L50.8352 40.8973C51.9035 41.6742 53.3904 41.1953 54.6094 40.6897C55.8317 40.1873 57.3153 39.7084 58.387 40.482C59.0601 40.9676 59.3447 41.8115 59.7634 42.5282C60.182 43.2482 60.9556 43.928 61.7526 43.707C62.0632 43.587 62.3278 43.3716 62.5083 43.0918C62.6888 42.812 62.776 42.4822 62.7573 42.1498C62.7539 41.4867 61.8905 40.8559 62.1813 40.261C63.043 38.498 62.2681 37.2963 60.3896 36.4667C59.7064 36.3629 59.0232 36.2568 58.3401 36.1485C58.6981 35.6527 59.1321 35.2164 59.6261 34.8559C59.4174 34.3207 59.0564 33.8585 58.5879 33.5263C58.009 33.2573 57.3639 33.1641 56.7326 33.2584C55.3194 33.3321 53.9072 33.4058 52.4962 33.4795C51.4453 33.4607 50.4023 33.6638 49.4353 34.0756C48.2699 34.675 47.5064 35.8438 46.9504 37.0327C45.7046 39.7051 45.9022 41.8551 46.3309 44.772Z" fill="#2F2E41"/>
<path d="M224.532 39.7064H108.415C108.287 39.7064 108.165 39.6556 108.074 39.5652C107.984 39.4748 107.933 39.3522 107.933 39.2243C107.933 39.0964 107.984 38.9738 108.074 38.8834C108.165 38.793 108.287 38.7422 108.415 38.7422H224.532C224.659 38.7422 224.782 38.793 224.872 38.8834C224.963 38.9738 225.014 39.0964 225.014 39.2243C225.014 39.3522 224.963 39.4748 224.872 39.5652C224.782 39.6556 224.659 39.7064 224.532 39.7064Z" fill="#E6E6E6"/>
<path d="M224.532 69.597H108.415C108.287 69.597 108.165 69.5462 108.074 69.4558C107.984 69.3654 107.933 69.2428 107.933 69.1149C107.933 68.9871 107.984 68.8644 108.074 68.774C108.165 68.6836 108.287 68.6328 108.415 68.6328H224.532C224.659 68.6328 224.782 68.6836 224.872 68.774C224.963 68.8644 225.014 68.9871 225.014 69.1149C225.014 69.2428 224.963 69.3654 224.872 69.4558C224.782 69.5462 224.659 69.597 224.532 69.597Z" fill="#E6E6E6"/>
<path d="M224.532 99.4877H108.415C108.287 99.4877 108.165 99.4369 108.074 99.3465C107.984 99.256 107.933 99.1334 107.933 99.0055C107.933 98.8777 107.984 98.7551 108.074 98.6647C108.165 98.5742 108.287 98.5234 108.415 98.5234H224.532C224.659 98.5234 224.782 98.5742 224.872 98.6647C224.963 98.7551 225.014 98.8777 225.014 99.0055C225.014 99.1334 224.963 99.256 224.872 99.3465C224.782 99.4369 224.659 99.4877 224.532 99.4877Z" fill="#E6E6E6"/>
</svg>
