<svg width="32" height="33" viewBox="0 0 32 33" fill="none" xmlns="http://www.w3.org/2000/svg">
<g id="vuesax/bulk/personalcard">
<g id="personalcard">
<g id="personalcard_2">
<path id="Vector" opacity="0.4" d="M24.0001 4.70703H8.00008C5.05341 4.70703 2.66675 7.08036 2.66675 10.0004V23.4137C2.66675 26.3337 5.05341 28.707 8.00008 28.707H24.0001C26.9467 28.707 29.3334 26.3337 29.3334 23.4137V10.0004C29.3334 7.08036 26.9467 4.70703 24.0001 4.70703Z" fill="#0E53D9"/>
<path id="Vector_2" d="M25.3334 12.375H18.6667C18.1201 12.375 17.6667 11.9217 17.6667 11.375C17.6667 10.8283 18.1201 10.375 18.6667 10.375H25.3334C25.8801 10.375 26.3334 10.8283 26.3334 11.375C26.3334 11.9217 25.8801 12.375 25.3334 12.375Z" fill="#0E53D9"/>
<path id="Vector_3" d="M25.3333 17.707H20C19.4533 17.707 19 17.2537 19 16.707C19 16.1604 19.4533 15.707 20 15.707H25.3333C25.88 15.707 26.3333 16.1604 26.3333 16.707C26.3333 17.2537 25.88 17.707 25.3333 17.707Z" fill="#0E53D9"/>
<path id="Vector_4" d="M25.3334 23.0391H22.6667C22.1201 23.0391 21.6667 22.5857 21.6667 22.0391C21.6667 21.4924 22.1201 21.0391 22.6667 21.0391H25.3334C25.8801 21.0391 26.3334 21.4924 26.3334 22.0391C26.3334 22.5857 25.8801 23.0391 25.3334 23.0391Z" fill="#0E53D9"/>
<path id="Vector_5" d="M11.3334 16.4256C13.0345 16.4256 14.4134 15.0467 14.4134 13.3456C14.4134 11.6446 13.0345 10.2656 11.3334 10.2656C9.63238 10.2656 8.25342 11.6446 8.25342 13.3456C8.25342 15.0467 9.63238 16.4256 11.3334 16.4256Z" fill="#0E53D9"/>
<path id="Vector_6" d="M12.4 18.1867C11.6934 18.1201 10.96 18.1201 10.2534 18.1867C8.01337 18.4001 6.21337 20.1734 6.00003 22.4134C5.9867 22.6001 6.04003 22.7867 6.17337 22.9201C6.3067 23.0534 6.48003 23.1467 6.6667 23.1467H16C16.1867 23.1467 16.3734 23.0667 16.4934 22.9334C16.6134 22.8001 16.68 22.6134 16.6667 22.4267C16.44 20.1734 14.6534 18.4001 12.4 18.1867Z" fill="#0E53D9"/>
</g>
</g>
</g>
</svg>
