<svg width="32" height="33" viewBox="0 0 32 33" fill="none" xmlns="http://www.w3.org/2000/svg">
<g id="vuesax/bulk/video">
<g id="video">
<path id="Vector" opacity="0.4" d="M17.3333 5.03906H9.33333C4.77333 5.03906 3 6.8124 3 11.3724V22.0391C3 25.1057 4.66667 28.3724 9.33333 28.3724H17.3333C21.8933 28.3724 23.6667 26.5991 23.6667 22.0391V11.3724C23.6667 6.8124 21.8933 5.03906 17.3333 5.03906Z" fill="#0E53D9"/>
<path id="Vector_2" d="M15.3333 15.8805C16.7177 15.8805 17.84 14.7582 17.84 13.3739C17.84 11.9895 16.7177 10.8672 15.3333 10.8672C13.9489 10.8672 12.8267 11.9895 12.8267 13.3739C12.8267 14.7582 13.9489 15.8805 15.3333 15.8805Z" fill="#0E53D9"/>
<path id="Vector_3" d="M28.8666 8.93449C28.3199 8.65449 27.1732 8.33449 25.6132 9.42783L23.6399 10.8145C23.6532 11.0012 23.6666 11.1745 23.6666 11.3745V22.0412C23.6666 22.2412 23.6399 22.4145 23.6399 22.6012L25.6132 23.9878C26.4399 24.5745 27.1599 24.7612 27.7332 24.7612C28.2266 24.7612 28.6132 24.6278 28.8666 24.4945C29.4132 24.2145 30.3332 23.4545 30.3332 21.5478V11.8812C30.3332 9.9745 29.4132 9.2145 28.8666 8.93449Z" fill="#0E53D9"/>
</g>
</g>
</svg>
