<svg width="16" height="17" viewBox="0 0 16 17" fill="none" xmlns="http://www.w3.org/2000/svg">
<path opacity="0.4" d="M7.99992 14.7044C11.6818 14.7044 14.6666 11.7197 14.6666 8.03776C14.6666 4.35586 11.6818 1.37109 7.99992 1.37109C4.31802 1.37109 1.33325 4.35586 1.33325 8.03776C1.33325 11.7197 4.31802 14.7044 7.99992 14.7044Z" fill="white"/>
<path d="M8.70666 8.03734L10.24 6.50401C10.4333 6.31068 10.4333 5.99068 10.24 5.79734C10.0467 5.60401 9.72666 5.60401 9.53332 5.79734L7.99999 7.33068L6.46666 5.79734C6.27332 5.60401 5.95332 5.60401 5.75999 5.79734C5.56666 5.99068 5.56666 6.31068 5.75999 6.50401L7.29332 8.03734L5.75999 9.57068C5.56666 9.76401 5.56666 10.084 5.75999 10.2773C5.85999 10.3773 5.98666 10.424 6.11332 10.424C6.23999 10.424 6.36666 10.3773 6.46666 10.2773L7.99999 8.74401L9.53332 10.2773C9.63332 10.3773 9.75999 10.424 9.88666 10.424C10.0133 10.424 10.14 10.3773 10.24 10.2773C10.4333 10.084 10.4333 9.76401 10.24 9.57068L8.70666 8.03734Z" fill="white"/>
</svg>
