<svg width="68" height="18" viewBox="0 0 68 18" fill="none" xmlns="http://www.w3.org/2000/svg">
<path d="M30.1994 0.041374C30.536 -0.121108 30.8821 0.225007 30.8964 0.557663C30.9498 1.26432 30.9717 1.97481 30.985 2.68339C30.9908 3.09392 30.6418 3.42754 30.2576 3.49868C29.2594 3.73712 28.2545 3.94575 27.263 4.20918C27.529 4.62741 27.9523 4.89564 28.2907 5.24657C28.8856 5.86573 29.4691 6.49739 30.0698 7.11175C30.6828 7.80494 31.292 8.50486 31.967 9.13748C32.2082 9.34708 32.4313 9.60089 32.7402 9.70954C33.4353 9.9547 34.2352 10.0066 34.9169 9.69127C35.4908 9.22017 35.7396 8.46256 35.8827 7.75302C36.0257 7.30019 36.1811 6.77332 36.6339 6.54258C37.2756 6.8637 37.9325 7.15116 38.5731 7.47517C38.6065 7.60881 38.6389 7.74341 38.6742 7.87705C38.4749 8.44044 38.1803 9.00673 38.3195 9.62493C39.3816 9.84606 40.4742 10.0076 41.5601 9.89317C42.177 9.87394 42.8005 9.79799 43.3764 9.5634C43.6214 9.42303 43.7701 9.11056 43.6967 8.83175C43.5118 7.94915 43.3039 7.07233 43.1018 6.19454C43.0284 5.88207 43.0608 5.56096 43.0904 5.24561C44.0171 5.0139 44.9285 4.71201 45.8647 4.52549C46.0774 5.92342 46.4253 7.31845 46.3577 8.7433C46.3567 9.49129 46.4015 10.2845 45.9963 10.9488C45.7732 11.5478 45.2746 11.9545 44.8122 12.3621C44.4327 12.7429 43.8874 12.8476 43.4059 13.0399C42.7786 13.2245 42.1722 13.536 41.5049 13.5293C40.9643 13.536 40.4247 13.5082 39.886 13.4755C39.3263 13.4409 38.8086 13.2043 38.2642 13.0957C37.6874 13.0226 37.3976 12.3237 36.7951 12.341C36.3689 12.8746 35.6872 13.0553 35.0818 13.2957C34.4011 13.588 33.6431 13.512 32.9233 13.4928C32.151 13.3764 31.3988 13.0919 30.7505 12.6506C30.3672 12.4208 30.1832 11.9276 29.7189 11.8237C29.4558 12.0814 29.1869 12.3429 28.857 12.514C28.387 12.7554 27.9199 13.0313 27.3917 13.1169C26.8177 13.2168 26.2771 13.4812 25.686 13.4841C24.8251 13.487 23.9642 13.5341 23.1042 13.4937C22.4788 13.4745 21.901 13.1947 21.3614 12.8996C20.572 12.441 20.0448 11.6372 19.7721 10.7767C19.6186 9.97585 19.447 9.17017 19.4546 8.35007C19.4289 5.94264 19.3164 3.53618 19.3402 1.12875C19.4584 0.993192 19.5767 0.858591 19.6949 0.723991C20.1954 0.695148 20.6969 0.678803 21.1965 0.624963C21.5616 0.608618 21.943 0.524974 22.3005 0.64323C22.4635 0.692263 22.4941 0.890318 22.5093 1.03742C22.5455 2.41803 22.4778 3.80153 22.556 5.18119C22.5637 6.43201 22.5627 7.6838 22.5627 8.93462C22.5284 9.36727 22.843 9.83548 23.2978 9.85183C24.4743 10.0182 25.6574 9.79414 26.8349 9.74415C27.1562 9.74992 27.5137 9.63551 27.6577 9.31919C27.4775 8.76637 27.0198 8.37411 26.6385 7.95973C25.6326 6.8637 24.3112 6.14647 23.1805 5.19753C23.0375 4.41974 23.2634 3.64963 23.3035 2.87375C23.3168 2.57475 23.3435 2.27286 23.4598 1.995C25.6937 1.30085 27.9589 0.714376 30.1994 0.041374Z" fill="#1B1B1F"/>
<path d="M47.6719 1.20262C47.8416 1.03052 48.0113 0.803621 48.2801 0.810351C49.0124 0.80266 49.7474 0.798814 50.4787 0.839195C50.7332 0.837272 50.8076 1.13147 50.7885 1.33818C50.7885 5.25217 50.7838 9.16712 50.7847 13.0821C50.5368 13.3119 50.2575 13.5503 49.8971 13.5349C49.2412 13.5599 48.57 13.6762 47.9236 13.5128C47.8921 13.333 47.8664 13.1513 47.8606 12.9686C47.7958 9.04694 47.7472 5.12526 47.6719 1.20262Z" fill="#1B1B1F"/>
<path d="M64.9051 1.42212C64.8727 1.04428 65.2808 0.771234 65.6269 0.803922C66.3247 0.816421 67.0265 0.791424 67.7243 0.841418C67.977 0.848148 68.0104 1.14042 67.998 1.33656C67.9799 5.26401 68.0094 9.19145 67.9865 13.1179C67.7444 13.317 67.4879 13.5419 67.1533 13.5314C66.484 13.5602 65.7975 13.6794 65.1378 13.5092C65.0739 13.1141 65.0777 12.7141 65.0748 12.3151C65.0148 8.68478 64.9614 5.05345 64.9051 1.42212Z" fill="#1B1B1F"/>
<path d="M1.89387 1.58562C3.56041 1.54332 5.23172 1.57889 6.90017 1.55389C7.25293 1.53947 7.70675 1.58081 7.86692 1.95481C7.94223 2.61339 7.98037 3.2787 8.01088 3.94113C8.04616 4.37281 7.55325 4.58529 7.19191 4.5776C5.56922 4.58721 3.94463 4.56894 2.32385 4.65259C2.01113 4.69681 1.65266 4.53049 1.63168 4.1786C1.58401 3.55175 1.60785 2.92105 1.58687 2.29323C1.56113 2.02211 1.6641 1.73945 1.89387 1.58562Z" fill="#1B1B1F"/>
<path d="M39.3368 2.10165C39.333 1.81803 39.5971 1.55652 39.8802 1.56902C40.6125 1.56613 41.3485 1.54787 42.0797 1.60171C42.3324 1.60555 42.4773 1.87379 42.4811 2.10069C42.4935 2.64871 42.4373 3.1948 42.4411 3.74282C42.4554 4.0399 42.3448 4.48793 41.9901 4.50523C41.2112 4.54753 40.4294 4.51773 39.6495 4.54369C39.516 4.36679 39.3425 4.18892 39.3549 3.94856C39.3425 3.33325 39.3206 2.71697 39.3368 2.10165Z" fill="#1B1B1F"/>
<path d="M11.8354 4.39684C12.0756 4.28051 12.3216 4.3978 12.54 4.50548C12.6048 4.81795 12.6744 5.13041 12.7688 5.43615C12.9308 5.94763 12.9537 6.48891 13.031 7.0177C13.1435 7.8753 13.2922 8.74155 13.1968 9.6078C13.0405 10.4087 12.6811 11.1961 12.0957 11.7701C11.3787 12.5402 10.4224 13.0209 9.48621 13.4622C8.99998 13.6535 8.47561 13.7218 7.96268 13.7968C6.45154 13.9333 4.91942 13.9987 3.41401 13.7708C2.56357 13.6535 1.76748 13.2776 1.05339 12.8094C0.623404 12.4729 0.190561 12.0229 0.157192 11.4441C0.00178737 10.1587 -0.0496963 8.85788 0.0542243 7.56668C0.0914069 7.07443 0.125729 6.57641 0.262066 6.09953C0.310689 5.94186 0.395542 5.72746 0.594802 5.739C1.2536 5.71112 1.93338 5.77553 2.54737 6.03512C2.65796 6.09377 2.80097 6.17068 2.81146 6.31297C2.88487 7.20807 2.3605 8.07239 2.57597 8.96749C2.70182 9.34052 2.78476 9.7972 3.15468 10.0068C3.69907 10.2625 4.30353 10.3433 4.89654 10.3875C6.05683 10.4712 7.23333 10.5019 8.37741 10.2606C9.0896 10.1895 9.89236 10.0616 10.3481 9.43859C10.5044 9.11266 10.349 8.75886 10.2728 8.43389C10.0792 7.73301 10.0602 6.98598 9.76746 6.31297C9.61492 5.97455 9.57583 5.59286 9.67117 5.23232C10.3881 4.94101 11.1184 4.68527 11.8354 4.39684Z" fill="#1B1B1F"/>
<path d="M60.7377 5.18887C61.5128 4.93794 62.2841 4.67258 63.0602 4.42549C63.2204 4.34762 63.3843 4.40434 63.5417 4.45626C63.6494 5.53691 63.8334 6.60794 63.9535 7.68667C63.9974 8.29141 63.984 8.89904 64.0222 9.50378C64.0984 10.2104 63.6818 10.8344 63.3157 11.3978C62.8895 12.0958 62.1916 12.5563 61.488 12.9322C61.2058 13.0842 60.8798 13.1053 60.5756 13.1889C60.2572 13.2591 59.9607 13.4303 59.628 13.4264C58.9892 13.4312 58.3513 13.4216 57.7135 13.4168C57.4084 13.4293 57.1424 13.2639 56.8555 13.1947C56.5809 13.4553 56.6133 13.8754 56.4703 14.2052C56.1776 14.8686 55.842 15.5243 55.3491 16.0617C55.0354 16.5049 54.5368 16.7405 54.083 17.0058C53.347 17.3923 52.5451 17.6846 51.7081 17.7086C50.9863 17.7606 50.1397 17.8836 49.5477 17.3654C49.5724 16.6674 49.4733 15.9569 49.623 15.2685C49.6916 14.9388 50.0434 14.8388 50.3209 14.7551C50.7957 14.5744 51.3172 14.6609 51.7977 14.5071C52.3821 14.3225 52.9818 14.0869 53.3879 13.6014C53.8275 13.2437 53.9266 12.6429 53.9314 12.1054C53.9285 11.6603 53.959 11.2055 53.837 10.7729C53.7226 10.3498 53.6072 9.92777 53.5071 9.50089C53.3517 8.85577 53.0485 8.25007 52.9599 7.58764C53.244 7.39055 53.5233 7.17903 53.8465 7.04924C54.5311 6.78389 55.1775 6.37816 55.9288 6.33586C56.1109 7.0752 56.2977 7.81358 56.4932 8.54907C56.599 8.95768 56.8345 9.31245 57.0147 9.68837C57.1882 9.74029 57.3627 9.79605 57.5438 9.81817C58.4772 9.90566 59.423 9.89412 60.3497 9.74317C60.6948 9.65376 61.0685 9.43359 61.1353 9.04998C61.2974 8.39717 61.0609 7.74724 61.0123 7.09731C60.9398 6.45796 60.8273 5.82534 60.7377 5.18887Z" fill="#1B1B1F"/>
<path d="M17.0273 6.43584C17.2713 6.34066 17.5288 6.43873 17.7719 6.48584C17.9578 7.17422 18.2038 7.84722 18.3287 8.55099C18.466 9.32302 18.7577 10.071 18.7577 10.8632C18.7701 11.566 18.8168 12.2813 18.6347 12.9678C18.466 13.6072 18.3725 14.284 18.0159 14.8541C17.6088 15.706 16.9224 16.3886 16.1702 16.9366C15.4122 17.3827 14.5618 17.7057 13.678 17.7461C13.1021 17.7682 12.5234 17.7932 11.9485 17.7346C11.6777 17.7259 11.4222 17.4808 11.426 17.2029C11.4108 16.4876 11.3746 15.7704 11.4117 15.0551C11.6081 14.9022 11.7979 14.7118 12.0543 14.6724C12.8657 14.5292 13.7333 14.6542 14.4969 14.2907C14.9546 14.109 15.3531 13.7668 15.539 13.3005C15.8088 12.8197 15.7974 12.2564 15.806 11.7218C15.8374 10.9863 15.4732 10.32 15.3445 9.61049C15.2425 8.98075 14.8745 8.41928 14.8659 7.77031C14.9222 7.32805 15.3836 7.15019 15.7364 6.99251C16.1778 6.83291 16.5858 6.59352 17.0273 6.43584Z" fill="#1B1B1F"/>
<path d="M58.0829 14.6745C59.8352 14.6273 61.5895 14.6418 63.3428 14.6475C63.6145 14.6177 63.8319 14.7985 64.0502 14.9321C64.1179 15.7234 64.2094 16.5175 64.1751 17.3136C64.1608 17.5309 63.9015 17.6289 63.7165 17.6347C62.7336 17.7068 61.7468 17.6337 60.7638 17.6895C59.8591 17.7068 58.9543 17.6953 58.0495 17.6972C57.8131 17.0944 57.8865 16.4368 57.8207 15.8051C57.7873 15.4946 57.7988 15.183 57.8493 14.8754C57.9265 14.8081 58.0038 14.7408 58.0829 14.6745Z" fill="#1B1B1F"/>
<path d="M31.5318 14.9445C32.8217 14.8849 34.1155 14.9387 35.4073 14.9147C36.2129 14.9281 37.0214 14.8772 37.8261 14.9589C37.8823 15.9444 37.9615 16.9395 37.8337 17.923C37.5315 17.9576 37.2302 17.9961 36.9261 17.9932C35.7525 17.9922 34.5788 17.9961 33.4052 17.9951C32.7864 17.9893 32.1629 18.0374 31.5518 17.9182C31.5146 16.9279 31.4631 15.9338 31.5318 14.9445Z" fill="#1B1B1F"/>
</svg>
