<svg width="326" height="223" viewBox="0 0 326 223" fill="none" xmlns="http://www.w3.org/2000/svg">
<g opacity="0.72">
<rect width="326" height="223" rx="16" fill="white"/>
<rect x="19" y="19" width="288" height="185" rx="17" stroke="#0E53D9" stroke-width="6"/>
<path d="M197.969 70.1758H250.855" stroke="#0E53D9" stroke-width="5" stroke-linecap="round" stroke-linejoin="round"/>
<path d="M208.546 112.621H250.855" stroke="#0E53D9" stroke-width="5" stroke-linecap="round" stroke-linejoin="round"/>
<path d="M229.701 155.062H250.855" stroke="#0E53D9" stroke-width="5" stroke-linecap="round" stroke-linejoin="round"/>
<path d="M95.7603 105.084C106.333 105.084 114.905 96.4852 114.905 85.878C114.905 75.2707 106.333 66.6719 95.7603 66.6719C85.187 66.6719 76.6157 75.2707 76.6157 85.878C76.6157 96.4852 85.187 105.084 95.7603 105.084Z" stroke="#0E53D9" stroke-width="5" stroke-linecap="round" stroke-linejoin="round"/>
<path d="M132.78 158.565C131.299 143.179 119.135 131.082 103.799 129.703C98.5101 129.172 93.1158 129.172 87.7215 129.703C72.3847 131.188 60.221 143.179 58.7402 158.565" stroke="#0E53D9" stroke-width="5" stroke-linecap="round" stroke-linejoin="round"/>
<path d="M197.969 68.4062H250.855" stroke="#0E53D9" stroke-width="5" stroke-linecap="round" stroke-linejoin="round"/>
<path d="M208.546 110.852H250.855" stroke="#0E53D9" stroke-width="5" stroke-linecap="round" stroke-linejoin="round"/>
<path d="M229.701 153.297H250.855" stroke="#0E53D9" stroke-width="5" stroke-linecap="round" stroke-linejoin="round"/>
<path d="M95.7603 103.318C106.333 103.318 114.905 94.7196 114.905 84.1124C114.905 73.5051 106.333 64.9062 95.7603 64.9062C85.187 64.9062 76.6157 73.5051 76.6157 84.1124C76.6157 94.7196 85.187 103.318 95.7603 103.318Z" stroke="#0E53D9" stroke-width="5" stroke-linecap="round" stroke-linejoin="round"/>
<path d="M132.78 156.795C131.299 141.409 119.135 129.313 103.799 127.933C98.5101 127.403 93.1158 127.403 87.7215 127.933C72.3847 129.419 60.221 141.409 58.7402 156.795" stroke="#0E53D9" stroke-width="5" stroke-linecap="round" stroke-linejoin="round"/>
</g>
</svg>
