<svg width="316" height="192" viewBox="0 0 316 192" fill="none" xmlns="http://www.w3.org/2000/svg">
<path d="M26.5729 41.6547C35.5924 41.6547 42.9042 34.3429 42.9042 25.3234C42.9042 16.3039 35.5924 8.99219 26.5729 8.99219C17.5534 8.99219 10.2417 16.3039 10.2417 25.3234C10.2417 34.3429 17.5534 41.6547 26.5729 41.6547Z" fill="#FF6584"/>
<path d="M157.97 192C245.029 192 315.604 189.139 315.604 185.609C315.604 182.08 245.029 179.219 157.97 179.219C70.9121 179.219 0.337402 182.08 0.337402 185.609C0.337402 189.139 70.9121 192 157.97 192Z" fill="#D0CED3"/>
<path d="M40.4554 105.521C62.612 105.521 80.5735 87.5598 80.5735 65.4032C80.5735 43.2466 62.612 25.2852 40.4554 25.2852C18.2989 25.2852 0.337402 43.2466 0.337402 65.4032C0.337402 87.5598 18.2989 105.521 40.4554 105.521Z" fill="#0E53D9"/>
<path d="M44.3221 186.243H36.105L39.8509 59.3633L44.3221 186.243Z" fill="#3F3D56"/>
<path d="M40.5762 83.4075L49.3976 71.2031L40.4555 86.4285L39.4888 84.7367L40.5762 83.4075Z" fill="#3F3D56"/>
<path d="M39.6101 95.7357L30.7891 83.5312L39.7311 98.7566L40.6979 97.0649L39.6101 95.7357Z" fill="#3F3D56"/>
<path d="M163.315 186.352C204.59 186.352 238.049 152.892 238.049 111.617C238.049 70.3426 204.59 36.8828 163.315 36.8828C122.04 36.8828 88.5806 70.3426 88.5806 111.617C88.5806 152.892 122.04 186.352 163.315 186.352Z" fill="#3F3D56"/>
<path d="M163.315 180.166C201.173 180.166 231.863 149.476 231.863 111.618C231.863 73.7602 201.173 43.0703 163.315 43.0703C125.457 43.0703 94.7671 73.7602 94.7671 111.618C94.7671 149.476 125.457 180.166 163.315 180.166Z" fill="white"/>
<path d="M163.067 121.023C168.124 121.023 172.223 116.924 172.223 111.867C172.223 106.81 168.124 102.711 163.067 102.711C158.01 102.711 153.911 106.81 153.911 111.867C153.911 116.924 158.01 121.023 163.067 121.023Z" fill="#3F3D56"/>
<path d="M165.046 46.5352H161.087V53.9591H165.046V46.5352Z" fill="#3F3D56"/>
<path d="M165.046 169.773H161.087V177.197H165.046V169.773Z" fill="#3F3D56"/>
<path d="M105.161 113.846V109.887H97.7367V113.846H105.161Z" fill="#3F3D56"/>
<path d="M228.398 113.846V109.887H220.974V113.846H228.398Z" fill="#3F3D56"/>
<path d="M160.428 115.843L163.812 108.105L206.211 131.588L160.428 115.843Z" fill="#3F3D56"/>
<path d="M172.966 18.8203H153.664V41.0922H172.966V18.8203Z" fill="#3F3D56"/>
<path d="M163.315 25.0061C175.615 25.0061 185.587 22.2362 185.587 18.8194C185.587 15.4027 175.615 12.6328 163.315 12.6328C151.014 12.6328 141.043 15.4027 141.043 18.8194C141.043 22.2362 151.014 25.0061 163.315 25.0061Z" fill="#3F3D56"/>
<path d="M315.644 14.9658C315.432 11.2128 313.894 7.65714 311.304 4.93278C308.714 2.20841 305.24 0.492449 301.503 0.0908226C297.765 -0.310804 294.007 0.628018 290.897 2.7399C287.787 4.85178 285.529 7.99945 284.524 11.6217C284.332 11.6148 284.14 11.6071 283.946 11.6071C280.519 11.6077 277.185 12.7179 274.441 14.7715C271.698 16.8251 269.693 19.7117 268.727 22.9995C266.456 22.0018 263.919 21.7853 261.512 22.384C259.105 22.9827 256.964 24.3628 255.426 26.3081H304.903C306.347 26.3122 307.776 26.0249 309.106 25.4636C310.436 24.9023 311.638 24.0784 312.642 23.0412C313.646 22.0041 314.431 20.775 314.948 19.4277C315.466 18.0803 315.707 16.6423 315.655 15.1998C315.652 15.1219 315.649 15.0439 315.644 14.9658Z" fill="#D0CED3"/>
</svg>
