<svg width="16" height="17" viewBox="0 0 16 17" fill="none" xmlns="http://www.w3.org/2000/svg">
<path opacity="0.4" d="M7.99992 15.0365C11.6818 15.0365 14.6666 12.0517 14.6666 8.36979C14.6666 4.68789 11.6818 1.70312 7.99992 1.70312C4.31802 1.70312 1.33325 4.68789 1.33325 8.36979C1.33325 12.0517 4.31802 15.0365 7.99992 15.0365Z" fill="white"/>
<path d="M7.05321 10.7588C6.91988 10.7588 6.79321 10.7055 6.69988 10.6121L4.81321 8.72547C4.61988 8.53214 4.61988 8.21214 4.81321 8.0188C5.00655 7.82547 5.32655 7.82547 5.51988 8.0188L7.05321 9.55214L10.4799 6.12547C10.6732 5.93214 10.9932 5.93214 11.1865 6.12547C11.3799 6.3188 11.3799 6.6388 11.1865 6.83214L7.40655 10.6121C7.31321 10.7055 7.18655 10.7588 7.05321 10.7588Z" fill="white"/>
</svg>
