<svg width="158" height="158" viewBox="0 0 158 158" fill="none" xmlns="http://www.w3.org/2000/svg">
<g id="Mask group">
<mask id="mask0_3036_15924" style="mask-type:alpha" maskUnits="userSpaceOnUse" x="0" y="0" width="158" height="158">
<circle id="Ellipse 29" cx="79" cy="79" r="78.5" fill="white" stroke="#E6E6E6"/>
</mask>
<g mask="url(#mask0_3036_15924)">
<circle id="Ellipse 30" cx="79" cy="79" r="78" fill="white" stroke="#E6E6E6" stroke-width="2"/>
<g id="Group 427320042">
<path id="Vector" d="M63.2969 102.887L71.1969 127.178L96.1013 126.362L88.4487 102.887H63.2969Z" fill="#E4E4E4"/>
<path id="Vector_2" d="M100.592 124.32L53.6414 125.545L54.4579 148.408C54.4579 148.408 53.6414 154.532 55.2744 156.165C56.9075 157.798 57.724 157.798 56.9075 160.656C56.091 163.514 60.4051 168.182 59.8811 168.706C59.3571 169.23 58.1323 172.088 58.1323 172.088L62.215 195.359C62.215 195.359 65.0729 235.778 65.8894 236.594C66.706 237.411 67.5225 236.594 66.706 238.636C65.8894 240.677 65.0729 239.86 65.8894 240.677C66.6127 241.457 67.2941 242.274 67.9308 243.127H77.8015C77.8015 243.127 78.5457 239.044 78.5457 238.636C78.5457 238.227 79.3623 235.778 79.3623 235.369C79.3623 234.961 78.6406 234.239 78.6406 234.239C78.3912 233.409 78.2227 232.557 78.1375 231.695C78.1375 230.878 75.6879 199.442 75.6879 199.442L80.5871 158.615L92.4269 198.625C92.4269 198.625 92.4269 233.736 93.2434 234.553C94.06 235.369 94.06 234.961 93.6517 236.594C93.2434 238.227 91.6103 237.819 92.8352 239.044C94.06 240.269 94.4682 238.227 94.06 240.269L93.6517 242.31L105.9 242.485C105.9 242.485 107.533 239.044 106.716 237.819C105.9 236.594 105.949 236.929 106.945 234.924C107.941 232.92 108.349 232.512 107.941 232.103C107.533 231.695 107.533 229.523 107.533 229.523L105.491 190.46C105.491 190.46 105.083 149.225 105.083 148C105.052 147.37 105.169 146.741 105.422 146.163V144.501L103.858 138.61L100.592 124.32Z" fill="#2F2E43"/>
<path id="Vector_3" d="M96.3055 64.9169L82.0161 59.6094L58.3365 61.2424L52.8537 63.8011C50.9252 64.7011 49.3553 66.2233 48.3963 68.1231C47.4373 70.023 47.1449 72.19 47.5661 74.2761L54.6621 109.418L50.1712 144.121C50.1712 144.121 72.4218 154.94 79.3624 126.77L81.812 116.155C81.812 116.155 82.6285 148.816 105.9 141.876C105.9 141.876 105.492 135.343 105.083 132.894C104.675 130.444 103.858 130.444 103.45 129.219C103.042 127.994 102.225 129.219 103.042 126.77C103.858 124.32 96.5097 107.173 96.5097 107.173L96.3055 64.9169Z" fill="#2F2E43"/>
<path id="Vector_4" d="M77.3208 92.0667L62.0703 60.9847L65.8893 54.0977H78.2643L83.1664 60.0367L77.3208 92.0667Z" fill="#E4E4E4"/>
<path id="Vector_5" d="M69.7111 125.892C69.0457 125.93 68.38 125.822 67.7608 125.575C67.1417 125.328 66.5842 124.949 66.1276 124.463C65.6709 123.978 65.3263 123.398 65.118 122.765C64.9097 122.132 64.8427 121.461 64.9218 120.799L50.354 113.709L57.5972 109.418L70.3205 116.808C71.4235 117.015 72.4123 117.619 73.0998 118.506C73.7872 119.393 74.1254 120.501 74.0503 121.621C73.9751 122.74 73.4919 123.793 72.6922 124.581C71.8925 125.368 70.8318 125.834 69.7111 125.892Z" fill="#FFB8B8"/>
<path id="Vector_6" d="M39.7905 108.576C39.0955 107.727 38.2876 101.813 39.8108 100.426C41.0954 99.2556 40.8151 98.7115 39.9984 97.4863C39.2891 96.4224 44.7339 76.7779 47.8637 67.6496C48.2809 66.4356 49.1431 65.4249 50.2762 64.8216C51.4093 64.2182 52.7291 64.0671 53.9693 64.3986C55.2095 64.7302 56.2778 65.5198 56.9587 66.6081C57.6396 67.6964 57.8824 69.0024 57.6381 70.2627C58.7429 81.9494 57.1718 89.9196 52.6948 95.3172L66.5261 113.641L63.988 122.948C63.988 122.948 40.4238 109.349 39.7905 108.576Z" fill="#2F2E43"/>
<path id="Vector_7" d="M72.2176 49.8088C79.2075 49.8088 84.8739 44.1423 84.8739 37.1524C84.8739 30.1625 79.2075 24.4961 72.2176 24.4961C65.2277 24.4961 59.5613 30.1625 59.5613 37.1524C59.5613 44.1423 65.2277 49.8088 72.2176 49.8088Z" fill="#FFB8B8"/>
<path id="Vector_8" d="M85.6201 27.9718C85.2838 24.9449 80.9115 21.9179 73.1761 19.9C65.4406 17.882 61.4047 26.6265 61.4047 26.6265C56.0234 29.3171 59.2185 43.611 60.9002 42.2656C62.5818 40.9203 64.0953 43.1065 64.0953 43.1065L65.3396 31.9069C67.1111 33.2644 69.1078 34.4138 71.251 34.0721L68.628 31.4895C71.1139 32.5712 73.5999 33.6529 76.0859 34.7345C75.2629 33.6021 74.44 32.4697 73.617 31.3373C73.7019 31.3346 73.7872 31.3309 73.8723 31.3276C74.99 32.257 76.2694 32.9725 77.6465 33.4381C79.2778 33.9056 81.2325 33.6527 82.3502 32.3757C82.6511 32.0233 82.8785 31.6142 83.0187 31.1725C85.0483 32.5626 85.4519 35.5392 85.4519 35.5392C85.4519 35.5392 85.9564 30.9987 85.6201 27.9718Z" fill="#2F2E43"/>
<path id="Vector_9" d="M74.5509 118.777C86.6461 118.777 96.4511 108.972 96.4511 96.8768C96.4511 84.7816 86.6461 74.9766 74.5509 74.9766C62.4557 74.9766 52.6506 84.7816 52.6506 96.8768C52.6506 108.972 62.4557 118.777 74.5509 118.777Z" fill="#0E53D9"/>
<path id="Vector_10" d="M78.5125 111.698C78.8783 111.141 79.3619 110.671 79.9291 110.32C80.4962 109.97 81.1333 109.749 81.7953 109.672C82.4573 109.595 83.1282 109.664 83.7607 109.874C84.3932 110.084 84.972 110.43 85.4562 110.888L99.8326 103.418L98.9604 111.792L85.4421 117.602C84.6188 118.364 83.5443 118.798 82.4225 118.821C81.3006 118.844 80.2091 118.455 79.355 117.728C78.5008 117 77.9433 115.984 77.788 114.873C77.6327 113.761 77.8905 112.632 78.5125 111.698Z" fill="#FFB8B8"/>
<path id="Vector_11" d="M87.3875 117.231L84.8494 107.924L97.4559 95.7246C92.9789 90.327 91.4078 82.3568 92.5126 70.6701C92.2679 69.4096 92.5105 68.1034 93.1914 67.0148C93.8722 65.9262 94.9406 65.1365 96.181 64.8049C97.4214 64.4733 98.7414 64.6245 99.8746 65.2281C101.008 65.8317 101.87 66.8426 102.287 68.057C105.417 77.1852 108.97 88.4218 108.124 90.1147C108.011 90.3399 107.909 90.5411 107.817 90.7217C107.059 92.2124 107.059 92.2124 107.797 93.1715C107.889 93.2913 107.991 93.4247 108.104 93.5754C108.39 93.9563 108.698 94.3146 108.996 94.6608C109.955 95.7762 110.862 96.8298 110.152 97.8937C109.336 99.1189 109.055 99.6629 110.34 100.833C111.863 102.221 111.055 108.135 110.36 108.983C109.727 109.756 91.283 115.932 87.5922 117.163L87.3875 117.231Z" fill="#2F2E43"/>
<path id="Vector_12" d="M71.9717 107.121C71.6615 107.12 71.3566 107.04 71.0854 106.89C70.7952 106.733 70.5533 106.501 70.3854 106.217C70.2176 105.933 70.1303 105.609 70.1329 105.28V90.1028C70.1329 89.7737 70.2213 89.4507 70.3888 89.1674C70.5563 88.8842 70.7969 88.6512 71.0853 88.4927C71.3737 88.3342 71.6994 88.2561 72.0283 88.2666C72.3572 88.277 72.6773 88.3756 72.9551 88.552L87.3519 96.1405C87.613 96.3064 87.828 96.5355 87.9769 96.8066C88.1258 97.0776 88.2039 97.3819 88.2039 97.6912C88.2039 98.0006 88.1258 98.3049 87.9769 98.5759C87.828 98.847 87.613 99.0761 87.3519 99.242L72.9551 106.83C72.6617 107.019 72.3204 107.12 71.9717 107.121Z" fill="white"/>
</g>
</g>
</g>
</svg>
