<svg width="158" height="193" viewBox="0 0 158 193" fill="none" xmlns="http://www.w3.org/2000/svg">
<g id="Group 39955">
<path id="Vector" d="M79.001 192.002C122.031 192.002 156.914 157.119 156.914 114.089C156.914 71.0586 122.031 36.1758 79.001 36.1758C35.9708 36.1758 1.08789 71.0586 1.08789 114.089C1.08789 157.119 35.9708 192.002 79.001 192.002Z" fill="white"/>
<path id="Vector_2" d="M78.7775 192.503C1.6903 194.274 0 157.651 0 114.089C0 70.5292 35.4393 35.0898 79 35.0898C122.561 35.0898 158 70.5292 158 114.089C158 157.651 122.338 192.503 78.7775 192.503ZM79 37.2636C36.6376 37.2636 2.88713 71.7335 2.17374 114.089C1.5102 153.486 43.3621 202.646 79 190.916C98.1116 169.868 152.145 147.198 155.826 114.089C160.507 71.987 121.362 37.2636 79 37.2636Z" fill="#3F3D56"/>
<path id="Vector_3" d="M68.3675 154.641C67.0221 154.641 65.6951 154.328 64.4918 153.726C63.2884 153.124 62.2418 152.25 61.4348 151.174L40.1789 122.832C39.4955 121.921 38.9981 120.885 38.7152 119.783C38.4323 118.68 38.3694 117.532 38.5302 116.405C38.691 115.278 39.0722 114.194 39.6522 113.214C40.2321 112.234 40.9994 111.379 41.9102 110.696C42.821 110.013 43.8574 109.516 44.9603 109.233C46.0632 108.951 47.2109 108.889 48.3378 109.05C49.4648 109.211 50.5489 109.593 51.5283 110.173C52.5077 110.754 53.3631 111.521 54.0457 112.432L67.9521 130.973L103.669 77.3987C104.944 75.4874 106.927 74.1609 109.18 73.7109C111.433 73.2608 113.773 73.724 115.685 74.9986C117.597 76.2732 118.924 78.2549 119.376 80.508C119.827 82.7611 119.365 85.1012 118.091 87.0137L75.5795 150.781C74.8105 151.935 73.7762 152.887 72.5633 153.558C71.3504 154.229 69.9943 154.599 68.6087 154.638C68.5283 154.64 68.4479 154.641 68.3675 154.641Z" fill="#F2F2F2"/>
<path id="Vector_4" d="M128.755 187.062H124.194L122.023 169.465L128.757 169.465L128.755 187.062Z" fill="#FFB6B6"/>
<path id="Vector_5" d="M128.912 191.825L114.882 191.824V191.647C114.882 190.199 115.458 188.81 116.482 187.786C117.506 186.762 118.895 186.186 120.343 186.186L122.906 184.242L127.687 186.187L128.912 186.187L128.912 191.825Z" fill="#2F2E41"/>
<path id="Vector_6" d="M108.921 165.255L104.707 167.002L95.9609 151.579L102.181 149L108.921 165.255Z" fill="#FFB6B6"/>
<path id="Vector_7" d="M110.89 169.591L97.9312 174.965L97.8632 174.801C97.3085 173.463 97.308 171.96 97.8616 170.622C98.4152 169.283 99.4777 168.22 100.815 167.665L102.438 164.887L107.6 164.852L108.731 164.383L110.89 169.591Z" fill="#2F2E41"/>
<path id="Vector_8" d="M133.969 86.9609L101.592 90.3436L97.2611 104.93L82.2627 129.033C82.2627 129.033 92.7283 146.648 91.7457 146.456C90.7631 146.265 92.7272 151.066 94.103 150.787C95.4787 150.509 96.9093 153.639 95.9582 154.196C95.0071 154.753 98.823 159.459 98.823 159.459L104.655 154.225C105.895 144.868 104.397 136.54 99.0569 129.655L115.766 111.617L118.934 110.302L121.449 177.239L130.752 177.392C133.318 164.188 134.608 152.303 132.602 143.825C132.602 143.825 132.89 118.357 133.99 118.635C135.09 118.914 134.157 115.596 134.157 115.596C134.157 115.596 133.194 112.77 134.378 111.598C135.562 110.426 134.822 103.531 134.822 103.531C136.778 97.0063 136.19 91.6188 133.969 86.9609Z" fill="#2F2E41"/>
<path id="Vector_9" d="M109.074 33.1326L118.024 30.8133L122.202 25.0508L132.124 26.2706L134.237 34.1306L141.301 38.2309C141.301 38.2309 137.396 79.5264 138.325 81.7939C139.254 84.0614 142.584 83.8742 139.74 86.7972C136.896 89.7201 136.519 88.5428 137.179 91.7251C137.839 94.9073 142.649 98.2751 137.179 98.2417C131.709 98.2082 98.6992 97.7367 99.6424 93.9642C100.586 90.1917 100.571 91.1497 101.993 88.7844C103.415 86.4192 104.372 87.7409 103.893 84.2507C103.415 80.7604 103.886 78.4026 103.886 76.5164C103.886 74.6301 105.466 57.4895 105.466 57.4895L109.074 33.1326Z" fill="#E6E6E6"/>
<path id="Vector_10" d="M127.141 23.9864C132.948 23.9864 137.655 19.2789 137.655 13.4717C137.655 7.66463 132.948 2.95703 127.141 2.95703C121.334 2.95703 116.626 7.66463 116.626 13.4717C116.626 19.2789 121.334 23.9864 127.141 23.9864Z" fill="#FFB6B6"/>
<path id="Vector_11" d="M116.124 7.10656C117.047 7.85266 116.835 11.4812 117.864 10.8897C118.893 10.2983 119.107 9.23919 120.292 9.22809C121.257 9.28142 122.168 9.69368 122.846 10.384C122.972 10.4979 123.092 10.6174 123.208 10.7355C123.315 10.6982 123.42 10.6643 123.531 10.6366C124.362 10.4337 125.239 10.5572 125.981 10.9816C125.296 11.0306 124.643 11.2938 124.115 11.7341C124.341 11.9875 124.571 12.2424 124.812 12.4779C126.825 14.4513 130.954 12.3497 133.731 11.8755C131.418 14.4003 131.874 15.8097 132.449 19.1843L132.452 19.3687C132.57 18.5904 135.062 18.6292 134.652 19.6619C134.136 20.682 133.49 21.6312 132.731 22.4858C136.127 20.1331 138.868 16.8901 139.474 12.9726C139.599 12.1489 139.841 11.3086 139.607 10.5055C139.507 10.0994 139.276 9.73782 138.949 9.47718C138.622 9.21654 138.218 9.07154 137.8 9.06482C138.178 7.86313 138.223 6.58138 137.932 5.35584C137.64 4.13031 137.021 3.00678 136.142 2.10473C135.262 1.20267 134.155 0.555805 132.937 0.23289C131.719 -0.0900242 130.437 -0.0769116 129.226 0.270832C128.121 0.663396 127.044 1.12842 126 1.66288C124.947 2.19941 123.756 2.40128 122.585 2.24144C121.855 2.09075 121.116 1.71305 120.401 1.92691C119.573 2.17539 119.217 3.05039 118.885 3.89508C119.508 4.12273 120.049 4.53106 120.439 5.0679C119.795 4.83008 119.092 4.80152 118.43 4.98627C118.418 4.98841 118.406 4.99166 118.395 4.99597C117.645 6.3402 117.601 6.66981 116.124 7.10656Z" fill="#2F2E41"/>
<path id="Vector_12" d="M119.59 27.9962C114.204 27.5627 109.287 31.6814 107.045 36.5973C104.803 41.5132 104.656 47.0899 104.547 52.4918L104.209 69.2835C104.159 71.7682 104.109 74.2535 103.985 76.7356C103.921 79.151 103.617 81.554 103.078 83.9092C101.98 88.231 99.5647 92.0822 97.1846 95.853C103.278 97.695 109.475 99.175 115.744 100.285C118.874 90.1603 122.04 79.7442 121.271 69.1742C120.864 63.581 119.359 58.1201 118.787 52.5413C117.978 44.6401 119.051 36.6807 120.122 28.8108" fill="#3F3D56"/>
<path id="Vector_13" d="M132.662 28.9414C137.996 29.7992 141.795 34.9678 142.805 40.2755C143.816 45.5832 142.634 51.0352 141.457 56.3085C140.238 61.7724 139.018 67.2363 137.798 72.7001C137.257 75.1257 136.715 77.5517 136.246 79.9923C135.79 82.3633 137.699 85.4041 137.721 87.8183C137.762 92.2772 136.896 95.9496 138.312 100.178C131.956 100.52 125.584 100.486 119.231 100.076C118.595 89.4972 117.993 78.6272 121.251 68.5423C122.974 63.2058 125.732 58.2584 127.613 52.9749C130.276 45.4921 131.123 37.5055 131.951 29.6062" fill="#3F3D56"/>
<path id="Vector_14" d="M136.221 105.169C135.825 104.479 135.713 103.661 135.911 102.89C136.109 102.119 136.599 101.455 137.279 101.04C137.418 100.958 137.564 100.888 137.715 100.83L137.035 77.6686L144.404 75.793L141.594 102.777C141.786 103.422 141.759 104.112 141.518 104.74C141.277 105.369 140.834 105.899 140.259 106.249C139.93 106.446 139.566 106.575 139.187 106.63C138.808 106.686 138.422 106.666 138.051 106.572C137.679 106.478 137.33 106.312 137.023 106.083C136.716 105.855 136.457 105.568 136.261 105.239C136.247 105.216 136.234 105.193 136.221 105.169Z" fill="#FFB6B6"/>
<path id="Vector_15" d="M135.683 38.1932C135.683 38.1932 140.826 33.8434 145.155 42.5407C149.483 51.2379 147.064 71.1068 146.455 72.1672C145.845 73.2276 145.474 71.7504 145.807 74.5771C146.079 76.8759 144.465 76.5884 145.044 77.0789C146.57 78.3725 142.296 78.5198 144.491 79.6596C146.686 80.7994 136.862 81.0129 136.862 81.0129C136.862 81.0129 135.674 80.1642 136.499 76.9642C136.963 75.1669 138.123 74.5094 136.886 73.6776C135.648 72.8459 138.164 70.2747 138.166 69.7106C138.168 69.1464 134.242 56.8071 134.242 56.8071L135.683 38.1932Z" fill="#3F3D56"/>
<path id="Vector_16" d="M93.117 145.336C91.7716 145.336 90.4446 145.023 89.2413 144.421C88.038 143.819 86.9913 142.945 86.1843 141.869L64.9284 113.527C64.245 112.617 63.7476 111.58 63.4647 110.478C63.1818 109.375 63.119 108.227 63.2797 107.1C63.4405 105.973 63.8218 104.889 64.4017 103.909C64.9817 102.93 65.7489 102.074 66.6597 101.391C67.5705 100.708 68.6069 100.211 69.7098 99.9284C70.8127 99.646 71.9604 99.5837 73.0874 99.745C74.2143 99.9063 75.2984 100.288 76.2778 100.868C77.2572 101.449 78.1127 102.217 78.7953 103.128L92.7016 121.668L128.418 68.0938C129.05 67.1468 129.861 66.3334 130.807 65.7001C131.753 65.0667 132.814 64.6259 133.93 64.4027C135.046 64.1795 136.195 64.1783 137.311 64.3991C138.428 64.62 139.49 65.0586 140.437 65.69C141.384 66.3213 142.197 67.133 142.831 68.0787C143.464 69.0244 143.905 70.0855 144.128 71.2016C144.351 72.3176 144.353 73.4667 144.132 74.5832C143.911 75.6998 143.472 76.7618 142.841 77.7088L100.329 141.476C99.56 142.63 98.5257 143.582 97.3128 144.253C96.1 144.924 94.7439 145.294 93.3583 145.333C93.2778 145.335 93.1975 145.336 93.117 145.336Z" fill="#0E53D9"/>
<path id="Vector_17" d="M109.319 101.147C109.753 100.479 109.909 99.6691 109.754 98.8882C109.6 98.1074 109.147 97.4177 108.491 96.9659C108.357 96.8762 108.215 96.7978 108.067 96.7314L110.026 73.6433L102.772 71.3633L104.087 98.4611C103.859 99.0944 103.848 99.7853 104.054 100.426C104.26 101.067 104.673 101.621 105.227 102.002C105.545 102.216 105.901 102.366 106.277 102.442C106.652 102.518 107.039 102.52 107.415 102.447C107.79 102.373 108.148 102.227 108.468 102.015C108.787 101.804 109.061 101.531 109.275 101.214C109.29 101.192 109.305 101.169 109.319 101.147Z" fill="#FFB6B6"/>
<path id="Vector_18" d="M113.569 34.3511C113.569 34.3511 108.674 29.7237 103.871 38.1685C99.0691 46.6132 100.386 66.5854 100.936 67.6779C101.486 68.7704 101.938 67.316 101.449 70.1198C101.051 72.4002 102.678 72.2023 102.073 72.6601C100.478 73.8673 104.737 74.2506 102.482 75.2673C100.227 76.2841 110.025 77.0402 110.025 77.0402C110.025 77.0402 111.258 76.2585 110.611 73.0177C110.247 71.1975 109.125 70.4769 110.407 69.7149C111.689 68.9528 109.318 66.2465 109.348 65.6831C109.377 65.1197 113.979 53.0161 113.979 53.0161L113.569 34.3511Z" fill="#3F3D56"/>
</g>
</svg>
